<svg xmlns="http://www.w3.org/2000/svg" width="1920" height="1080" viewBox="0 0 1920 1080">
<defs>
<radialGradient id="spaceGlow" cx="52%" cy="56%" r="54%"><stop offset="0%" stop-color="#132a42"/><stop offset="38%" stop-color="#111630"/><stop offset="100%" stop-color="#030712"/></radialGradient>
<radialGradient id="robotBody" cx="40%" cy="24%" r="85%"><stop offset="0%" stop-color="#ffffff"/><stop offset="52%" stop-color="#dce9ff"/><stop offset="100%" stop-color="#93a6bd"/></radialGradient>
<radialGradient id="blueCore" cx="40%" cy="30%" r="70%"><stop offset="0%" stop-color="#8df4ff"/><stop offset="45%" stop-color="#4895ff"/><stop offset="100%" stop-color="#1a47ff"/></radialGradient>
<filter id="softGlow" x="-80%" y="-80%" width="260%" height="260%"><feGaussianBlur stdDeviation="16" result="blur"/><feMerge><feMergeNode in="blur"/><feMergeNode in="SourceGraphic"/></feMerge></filter>
<filter id="wideGlow" x="-120%" y="-120%" width="340%" height="340%"><feGaussianBlur stdDeviation="34" result="blur"/><feMerge><feMergeNode in="blur"/><feMergeNode in="SourceGraphic"/></feMerge></filter>
</defs>
<ellipse cx="960" cy="742.6" rx="271.1" ry="198.6" fill="none" stroke="#70d6ff" stroke-width="4" opacity="0.134" filter="url(#softGlow)"/>
<path d="M820 740 C770 700 770 825 825 795" stroke="#c4f4ff" stroke-width="10" opacity="0.188" fill="none" stroke-linecap="round" filter="url(#softGlow)"/>
<path d="M1098 724 C1162 686 1164 822 1098 794" stroke="#c4f4ff" stroke-width="10" opacity="0.292" fill="none" stroke-linecap="round" filter="url(#softGlow)"/>
<circle cx="1028.2" cy="654.7" r="4.0" fill="#c8f7ff" opacity="0.332" filter="url(#softGlow)"/>
<circle cx="901.8" cy="586.0" r="5.0" fill="#c8f7ff" opacity="0.336" filter="url(#softGlow)"/>
<circle cx="759.1" cy="655.0" r="6.0" fill="#c8f7ff" opacity="0.295" filter="url(#softGlow)"/>
<circle cx="770.2" cy="753.8" r="7.0" fill="#c8f7ff" opacity="0.226" filter="url(#softGlow)"/>
<circle cx="772.9" cy="860.5" r="4.0" fill="#c8f7ff" opacity="0.154" filter="url(#softGlow)"/>
<circle cx="869.4" cy="940.8" r="5.0" fill="#c8f7ff" opacity="0.108" filter="url(#softGlow)"/>
<circle cx="1010.9" cy="884.3" r="6.0" fill="#c8f7ff" opacity="0.104" filter="url(#softGlow)"/>
<circle cx="1135.6" cy="795.0" r="7.0" fill="#c8f7ff" opacity="0.146" filter="url(#softGlow)"/>
<circle cx="1217.8" cy="681.7" r="4.0" fill="#c8f7ff" opacity="0.215" filter="url(#softGlow)"/>
<circle cx="1117.8" cy="590.8" r="5.0" fill="#c8f7ff" opacity="0.287" filter="url(#softGlow)"/>







<circle cx="933" cy="143" r="3.4" fill="#bff7ff" opacity="0.065" filter="url(#softGlow)"/>
<circle cx="775" cy="343" r="4.2" fill="#bff7ff" opacity="0.121" filter="url(#softGlow)"/>
<circle cx="1829" cy="189" r="4.1" fill="#bff7ff" opacity="0.076" filter="url(#softGlow)"/>
<circle cx="1324" cy="235" r="2.3" fill="#bff7ff" opacity="0.107" filter="url(#softGlow)"/>
<circle cx="544" cy="813" r="3.1" fill="#bff7ff" opacity="0.137" filter="url(#softGlow)"/>
<circle cx="1422" cy="325" r="4.1" fill="#bff7ff" opacity="0.067" filter="url(#softGlow)"/>
<circle cx="575" cy="337" r="2.1" fill="#bff7ff" opacity="0.059" filter="url(#softGlow)"/>
<circle cx="546" cy="829" r="2.9" fill="#bff7ff" opacity="0.044" filter="url(#softGlow)"/>
<circle cx="1321" cy="460" r="2.1" fill="#bff7ff" opacity="0.048" filter="url(#softGlow)"/>
<circle cx="1335" cy="577" r="3.3" fill="#bff7ff" opacity="0.135" filter="url(#softGlow)"/>
<circle cx="1126" cy="262" r="2.6" fill="#bff7ff" opacity="0.112" filter="url(#softGlow)"/>
<circle cx="1368" cy="58" r="4.0" fill="#bff7ff" opacity="0.094" filter="url(#softGlow)"/>
<circle cx="1312" cy="660" r="3.6" fill="#bff7ff" opacity="0.133" filter="url(#softGlow)"/>
<circle cx="1460" cy="444" r="1.9" fill="#bff7ff" opacity="0.034" filter="url(#softGlow)"/>
</svg>