<svg xmlns="http://www.w3.org/2000/svg" width="1920" height="1080" viewBox="0 0 1920 1080">
<defs>
<radialGradient id="spaceGlow" cx="52%" cy="56%" r="54%"><stop offset="0%" stop-color="#132a42"/><stop offset="38%" stop-color="#111630"/><stop offset="100%" stop-color="#030712"/></radialGradient>
<radialGradient id="robotBody" cx="40%" cy="24%" r="85%"><stop offset="0%" stop-color="#ffffff"/><stop offset="52%" stop-color="#dce9ff"/><stop offset="100%" stop-color="#93a6bd"/></radialGradient>
<radialGradient id="blueCore" cx="40%" cy="30%" r="70%"><stop offset="0%" stop-color="#8df4ff"/><stop offset="45%" stop-color="#4895ff"/><stop offset="100%" stop-color="#1a47ff"/></radialGradient>
<filter id="softGlow" x="-80%" y="-80%" width="260%" height="260%"><feGaussianBlur stdDeviation="16" result="blur"/><feMerge><feMergeNode in="blur"/><feMergeNode in="SourceGraphic"/></feMerge></filter>
<filter id="wideGlow" x="-120%" y="-120%" width="340%" height="340%"><feGaussianBlur stdDeviation="34" result="blur"/><feMerge><feMergeNode in="blur"/><feMergeNode in="SourceGraphic"/></feMerge></filter>
</defs>
<ellipse cx="960" cy="742.4" rx="270.3" ry="198.2" fill="none" stroke="#70d6ff" stroke-width="4" opacity="0.131" filter="url(#softGlow)"/>
<path d="M820 740 C770 700 770 825 825 795" stroke="#c4f4ff" stroke-width="10" opacity="0.182" fill="none" stroke-linecap="round" filter="url(#softGlow)"/>
<path d="M1098 724 C1162 686 1164 822 1098 794" stroke="#c4f4ff" stroke-width="10" opacity="0.298" fill="none" stroke-linecap="round" filter="url(#softGlow)"/>
<circle cx="1018.1" cy="648.0" r="4.0" fill="#c8f7ff" opacity="0.334" filter="url(#softGlow)"/>
<circle cx="889.6" cy="586.4" r="5.0" fill="#c8f7ff" opacity="0.334" filter="url(#softGlow)"/>
<circle cx="750.2" cy="662.2" r="6.0" fill="#c8f7ff" opacity="0.290" filter="url(#softGlow)"/>
<circle cx="770.0" cy="765.9" r="7.0" fill="#c8f7ff" opacity="0.219" filter="url(#softGlow)"/>
<circle cx="780.2" cy="868.0" r="4.0" fill="#c8f7ff" opacity="0.148" filter="url(#softGlow)"/>
<circle cx="883.2" cy="941.8" r="5.0" fill="#c8f7ff" opacity="0.105" filter="url(#softGlow)"/>
<circle cx="1021.2" cy="878.0" r="6.0" fill="#c8f7ff" opacity="0.106" filter="url(#softGlow)"/>
<circle cx="1143.2" cy="783.0" r="7.0" fill="#c8f7ff" opacity="0.151" filter="url(#softGlow)"/>
<circle cx="1218.0" cy="673.4" r="4.0" fill="#c8f7ff" opacity="0.222" filter="url(#softGlow)"/>
<circle cx="1111.6" cy="588.4" r="5.0" fill="#c8f7ff" opacity="0.292" filter="url(#softGlow)"/>







<circle cx="933" cy="143" r="3.4" fill="#bff7ff" opacity="0.068" filter="url(#softGlow)"/>
<circle cx="775" cy="343" r="4.2" fill="#bff7ff" opacity="0.127" filter="url(#softGlow)"/>
<circle cx="1829" cy="189" r="4.1" fill="#bff7ff" opacity="0.080" filter="url(#softGlow)"/>
<circle cx="1324" cy="235" r="2.3" fill="#bff7ff" opacity="0.113" filter="url(#softGlow)"/>
<circle cx="544" cy="813" r="3.1" fill="#bff7ff" opacity="0.144" filter="url(#softGlow)"/>
<circle cx="1422" cy="325" r="4.1" fill="#bff7ff" opacity="0.071" filter="url(#softGlow)"/>
<circle cx="575" cy="337" r="2.1" fill="#bff7ff" opacity="0.062" filter="url(#softGlow)"/>
<circle cx="546" cy="829" r="2.9" fill="#bff7ff" opacity="0.047" filter="url(#softGlow)"/>
<circle cx="1321" cy="460" r="2.1" fill="#bff7ff" opacity="0.050" filter="url(#softGlow)"/>
<circle cx="1335" cy="577" r="3.3" fill="#bff7ff" opacity="0.143" filter="url(#softGlow)"/>
<circle cx="1126" cy="262" r="2.6" fill="#bff7ff" opacity="0.118" filter="url(#softGlow)"/>
<circle cx="1368" cy="58" r="4.0" fill="#bff7ff" opacity="0.099" filter="url(#softGlow)"/>
<circle cx="1312" cy="660" r="3.6" fill="#bff7ff" opacity="0.140" filter="url(#softGlow)"/>
<circle cx="1460" cy="444" r="1.9" fill="#bff7ff" opacity="0.036" filter="url(#softGlow)"/>
</svg>