<svg xmlns="http://www.w3.org/2000/svg" width="1920" height="1080" viewBox="0 0 1920 1080">
<defs>
<radialGradient id="spaceGlow" cx="52%" cy="56%" r="54%"><stop offset="0%" stop-color="#132a42"/><stop offset="38%" stop-color="#111630"/><stop offset="100%" stop-color="#030712"/></radialGradient>
<radialGradient id="robotBody" cx="40%" cy="24%" r="85%"><stop offset="0%" stop-color="#ffffff"/><stop offset="52%" stop-color="#dce9ff"/><stop offset="100%" stop-color="#93a6bd"/></radialGradient>
<radialGradient id="blueCore" cx="40%" cy="30%" r="70%"><stop offset="0%" stop-color="#8df4ff"/><stop offset="45%" stop-color="#4895ff"/><stop offset="100%" stop-color="#1a47ff"/></radialGradient>
<filter id="softGlow" x="-80%" y="-80%" width="260%" height="260%"><feGaussianBlur stdDeviation="16" result="blur"/><feMerge><feMergeNode in="blur"/><feMergeNode in="SourceGraphic"/></feMerge></filter>
<filter id="wideGlow" x="-120%" y="-120%" width="340%" height="340%"><feGaussianBlur stdDeviation="34" result="blur"/><feMerge><feMergeNode in="blur"/><feMergeNode in="SourceGraphic"/></feMerge></filter>
</defs>
<ellipse cx="960" cy="742.1" rx="270.0" ry="198.0" fill="none" stroke="#70d6ff" stroke-width="4" opacity="0.130" filter="url(#softGlow)"/>
<path d="M820 740 C770 700 770 825 825 795" stroke="#c4f4ff" stroke-width="10" opacity="0.180" fill="none" stroke-linecap="round" filter="url(#softGlow)"/>
<path d="M1098 724 C1162 686 1164 822 1098 794" stroke="#c4f4ff" stroke-width="10" opacity="0.300" fill="none" stroke-linecap="round" filter="url(#softGlow)"/>
<circle cx="1007.7" cy="641.8" r="4.0" fill="#c8f7ff" opacity="0.336" filter="url(#softGlow)"/>
<circle cx="877.7" cy="587.7" r="5.0" fill="#c8f7ff" opacity="0.332" filter="url(#softGlow)"/>
<circle cx="742.0" cy="670.0" r="6.0" fill="#c8f7ff" opacity="0.284" filter="url(#softGlow)"/>
<circle cx="770.4" cy="777.9" r="7.0" fill="#c8f7ff" opacity="0.212" filter="url(#softGlow)"/>
<circle cx="788.0" cy="875.1" r="4.0" fill="#c8f7ff" opacity="0.143" filter="url(#softGlow)"/>
<circle cx="897.3" cy="942.0" r="5.0" fill="#c8f7ff" opacity="0.104" filter="url(#softGlow)"/>
<circle cx="1031.3" cy="871.1" r="6.0" fill="#c8f7ff" opacity="0.109" filter="url(#softGlow)"/>
<circle cx="1150.2" cy="771.0" r="7.0" fill="#c8f7ff" opacity="0.157" filter="url(#softGlow)"/>
<circle cx="1217.3" cy="665.4" r="4.0" fill="#c8f7ff" opacity="0.229" filter="url(#softGlow)"/>
<circle cx="1104.9" cy="586.9" r="5.0" fill="#c8f7ff" opacity="0.298" filter="url(#softGlow)"/>







<circle cx="933" cy="143" r="3.4" fill="#bff7ff" opacity="0.071" filter="url(#softGlow)"/>
<circle cx="775" cy="343" r="4.2" fill="#bff7ff" opacity="0.133" filter="url(#softGlow)"/>
<circle cx="1829" cy="189" r="4.1" fill="#bff7ff" opacity="0.084" filter="url(#softGlow)"/>
<circle cx="1324" cy="235" r="2.3" fill="#bff7ff" opacity="0.119" filter="url(#softGlow)"/>
<circle cx="544" cy="813" r="3.1" fill="#bff7ff" opacity="0.151" filter="url(#softGlow)"/>
<circle cx="1422" cy="325" r="4.1" fill="#bff7ff" opacity="0.074" filter="url(#softGlow)"/>
<circle cx="575" cy="337" r="2.1" fill="#bff7ff" opacity="0.065" filter="url(#softGlow)"/>
<circle cx="546" cy="829" r="2.9" fill="#bff7ff" opacity="0.049" filter="url(#softGlow)"/>
<circle cx="1321" cy="460" r="2.1" fill="#bff7ff" opacity="0.053" filter="url(#softGlow)"/>
<circle cx="1335" cy="577" r="3.3" fill="#bff7ff" opacity="0.149" filter="url(#softGlow)"/>
<circle cx="1126" cy="262" r="2.6" fill="#bff7ff" opacity="0.124" filter="url(#softGlow)"/>
<circle cx="1368" cy="58" r="4.0" fill="#bff7ff" opacity="0.104" filter="url(#softGlow)"/>
<circle cx="1312" cy="660" r="3.6" fill="#bff7ff" opacity="0.147" filter="url(#softGlow)"/>
<circle cx="1460" cy="444" r="1.9" fill="#bff7ff" opacity="0.038" filter="url(#softGlow)"/>
</svg>