<svg xmlns="http://www.w3.org/2000/svg" width="1920" height="1080" viewBox="0 0 1920 1080">
<defs>
<radialGradient id="spaceGlow" cx="52%" cy="56%" r="54%"><stop offset="0%" stop-color="#132a42"/><stop offset="38%" stop-color="#111630"/><stop offset="100%" stop-color="#030712"/></radialGradient>
<radialGradient id="robotBody" cx="40%" cy="24%" r="85%"><stop offset="0%" stop-color="#ffffff"/><stop offset="52%" stop-color="#dce9ff"/><stop offset="100%" stop-color="#93a6bd"/></radialGradient>
<radialGradient id="blueCore" cx="40%" cy="30%" r="70%"><stop offset="0%" stop-color="#8df4ff"/><stop offset="45%" stop-color="#4895ff"/><stop offset="100%" stop-color="#1a47ff"/></radialGradient>
<filter id="softGlow" x="-80%" y="-80%" width="260%" height="260%"><feGaussianBlur stdDeviation="16" result="blur"/><feMerge><feMergeNode in="blur"/><feMergeNode in="SourceGraphic"/></feMerge></filter>
<filter id="wideGlow" x="-120%" y="-120%" width="340%" height="340%"><feGaussianBlur stdDeviation="34" result="blur"/><feMerge><feMergeNode in="blur"/><feMergeNode in="SourceGraphic"/></feMerge></filter>
</defs>
<ellipse cx="960" cy="742.1" rx="272.3" ry="199.3" fill="none" stroke="#70d6ff" stroke-width="4" opacity="0.139" filter="url(#softGlow)"/>
<path d="M820 740 C770 700 770 825 825 795" stroke="#c4f4ff" stroke-width="10" opacity="0.196" fill="none" stroke-linecap="round" filter="url(#softGlow)"/>
<path d="M1098 724 C1162 686 1164 822 1098 794" stroke="#c4f4ff" stroke-width="10" opacity="0.284" fill="none" stroke-linecap="round" filter="url(#softGlow)"/>
<circle cx="975.9" cy="626.7" r="4.0" fill="#c8f7ff" opacity="0.340" filter="url(#softGlow)"/>
<circle cx="843.7" cy="596.3" r="5.0" fill="#c8f7ff" opacity="0.323" filter="url(#softGlow)"/>
<circle cx="721.8" cy="695.6" r="6.0" fill="#c8f7ff" opacity="0.266" filter="url(#softGlow)"/>
<circle cx="775.2" cy="813.6" r="7.0" fill="#c8f7ff" opacity="0.192" filter="url(#softGlow)"/>
<circle cx="814.8" cy="893.2" r="4.0" fill="#c8f7ff" opacity="0.129" filter="url(#softGlow)"/>
<circle cx="940.6" cy="937.6" r="5.0" fill="#c8f7ff" opacity="0.100" filter="url(#softGlow)"/>
<circle cx="1060.1" cy="847.6" r="6.0" fill="#c8f7ff" opacity="0.118" filter="url(#softGlow)"/>
<circle cx="1167.5" cy="734.8" r="7.0" fill="#c8f7ff" opacity="0.175" filter="url(#softGlow)"/>
<circle cx="1210.4" cy="644.6" r="4.0" fill="#c8f7ff" opacity="0.249" filter="url(#softGlow)"/>
<circle cx="1082.0" cy="587.0" r="5.0" fill="#c8f7ff" opacity="0.312" filter="url(#softGlow)"/>







<circle cx="272" cy="915" r="3.5" fill="#bff7ff" opacity="0.130" filter="url(#softGlow)"/>
<circle cx="1061" cy="828" r="2.3" fill="#bff7ff" opacity="0.083" filter="url(#softGlow)"/>
<circle cx="1019" cy="629" r="2.5" fill="#bff7ff" opacity="0.099" filter="url(#softGlow)"/>
<circle cx="377" cy="479" r="3.5" fill="#bff7ff" opacity="0.117" filter="url(#softGlow)"/>
<circle cx="473" cy="312" r="2.9" fill="#bff7ff" opacity="0.130" filter="url(#softGlow)"/>
<circle cx="579" cy="723" r="4.0" fill="#bff7ff" opacity="0.119" filter="url(#softGlow)"/>
<circle cx="1104" cy="72" r="2.2" fill="#bff7ff" opacity="0.112" filter="url(#softGlow)"/>
<circle cx="1301" cy="283" r="2.0" fill="#bff7ff" opacity="0.042" filter="url(#softGlow)"/>
<circle cx="1839" cy="624" r="1.8" fill="#bff7ff" opacity="0.051" filter="url(#softGlow)"/>
<circle cx="340" cy="866" r="2.2" fill="#bff7ff" opacity="0.043" filter="url(#softGlow)"/>
<circle cx="616" cy="815" r="3.1" fill="#bff7ff" opacity="0.043" filter="url(#softGlow)"/>
<circle cx="1476" cy="175" r="1.7" fill="#bff7ff" opacity="0.070" filter="url(#softGlow)"/>
<circle cx="285" cy="174" r="3.1" fill="#bff7ff" opacity="0.167" filter="url(#softGlow)"/>
<circle cx="1356" cy="58" r="3.9" fill="#bff7ff" opacity="0.087" filter="url(#softGlow)"/>
</svg>