<svg xmlns="http://www.w3.org/2000/svg" width="1920" height="1080" viewBox="0 0 1920 1080">
<defs>
<radialGradient id="spaceGlow" cx="52%" cy="56%" r="54%"><stop offset="0%" stop-color="#132a42"/><stop offset="38%" stop-color="#111630"/><stop offset="100%" stop-color="#030712"/></radialGradient>
<radialGradient id="robotBody" cx="40%" cy="24%" r="85%"><stop offset="0%" stop-color="#ffffff"/><stop offset="52%" stop-color="#dce9ff"/><stop offset="100%" stop-color="#93a6bd"/></radialGradient>
<radialGradient id="blueCore" cx="40%" cy="30%" r="70%"><stop offset="0%" stop-color="#8df4ff"/><stop offset="45%" stop-color="#4895ff"/><stop offset="100%" stop-color="#1a47ff"/></radialGradient>
<filter id="softGlow" x="-80%" y="-80%" width="260%" height="260%"><feGaussianBlur stdDeviation="16" result="blur"/><feMerge><feMergeNode in="blur"/><feMergeNode in="SourceGraphic"/></feMerge></filter>
<filter id="wideGlow" x="-120%" y="-120%" width="340%" height="340%"><feGaussianBlur stdDeviation="34" result="blur"/><feMerge><feMergeNode in="blur"/><feMergeNode in="SourceGraphic"/></feMerge></filter>
</defs>
<ellipse cx="960" cy="742.2" rx="274.1" ry="200.3" fill="none" stroke="#70d6ff" stroke-width="4" opacity="0.146" filter="url(#softGlow)"/>
<path d="M820 740 C770 700 770 825 825 795" stroke="#c4f4ff" stroke-width="10" opacity="0.207" fill="none" stroke-linecap="round" filter="url(#softGlow)"/>
<path d="M1098 724 C1162 686 1164 822 1098 794" stroke="#c4f4ff" stroke-width="10" opacity="0.273" fill="none" stroke-linecap="round" filter="url(#softGlow)"/>
<circle cx="965.2" cy="622.9" r="4.0" fill="#c8f7ff" opacity="0.340" filter="url(#softGlow)"/>
<circle cx="833.0" cy="600.7" r="5.0" fill="#c8f7ff" opacity="0.319" filter="url(#softGlow)"/>
<circle cx="716.6" cy="704.8" r="6.0" fill="#c8f7ff" opacity="0.260" filter="url(#softGlow)"/>
<circle cx="778.0" cy="825.1" r="7.0" fill="#c8f7ff" opacity="0.185" filter="url(#softGlow)"/>
<circle cx="824.7" cy="898.1" r="4.0" fill="#c8f7ff" opacity="0.124" filter="url(#softGlow)"/>
<circle cx="955.2" cy="934.5" r="5.0" fill="#c8f7ff" opacity="0.100" filter="url(#softGlow)"/>
<circle cx="1069.0" cy="838.9" r="6.0" fill="#c8f7ff" opacity="0.122" filter="url(#softGlow)"/>
<circle cx="1171.9" cy="722.9" r="7.0" fill="#c8f7ff" opacity="0.181" filter="url(#softGlow)"/>
<circle cx="1206.4" cy="638.7" r="4.0" fill="#c8f7ff" opacity="0.256" filter="url(#softGlow)"/>
<circle cx="1073.5" cy="588.7" r="5.0" fill="#c8f7ff" opacity="0.316" filter="url(#softGlow)"/>







<circle cx="761" cy="543" r="1.8" fill="#bff7ff" opacity="0.060" filter="url(#softGlow)"/>
<circle cx="1788" cy="615" r="2.5" fill="#bff7ff" opacity="0.080" filter="url(#softGlow)"/>
<circle cx="740" cy="894" r="3.5" fill="#bff7ff" opacity="0.183" filter="url(#softGlow)"/>
<circle cx="1591" cy="231" r="4.1" fill="#bff7ff" opacity="0.160" filter="url(#softGlow)"/>
<circle cx="524" cy="909" r="2.4" fill="#bff7ff" opacity="0.073" filter="url(#softGlow)"/>
<circle cx="328" cy="373" r="3.7" fill="#bff7ff" opacity="0.090" filter="url(#softGlow)"/>
<circle cx="1433" cy="476" r="2.9" fill="#bff7ff" opacity="0.057" filter="url(#softGlow)"/>
<circle cx="1169" cy="182" r="3.3" fill="#bff7ff" opacity="0.104" filter="url(#softGlow)"/>
<circle cx="1074" cy="182" r="2.6" fill="#bff7ff" opacity="0.066" filter="url(#softGlow)"/>
<circle cx="690" cy="340" r="4.1" fill="#bff7ff" opacity="0.169" filter="url(#softGlow)"/>
<circle cx="287" cy="461" r="4.2" fill="#bff7ff" opacity="0.175" filter="url(#softGlow)"/>
<circle cx="220" cy="129" r="2.9" fill="#bff7ff" opacity="0.104" filter="url(#softGlow)"/>
<circle cx="130" cy="684" r="4.0" fill="#bff7ff" opacity="0.056" filter="url(#softGlow)"/>
<circle cx="236" cy="844" r="2.5" fill="#bff7ff" opacity="0.062" filter="url(#softGlow)"/>
</svg>