<svg xmlns="http://www.w3.org/2000/svg" width="1920" height="1080" viewBox="0 0 1920 1080">
<defs>
<radialGradient id="spaceGlow" cx="52%" cy="56%" r="54%"><stop offset="0%" stop-color="#132a42"/><stop offset="38%" stop-color="#111630"/><stop offset="100%" stop-color="#030712"/></radialGradient>
<radialGradient id="robotBody" cx="40%" cy="24%" r="85%"><stop offset="0%" stop-color="#ffffff"/><stop offset="52%" stop-color="#dce9ff"/><stop offset="100%" stop-color="#93a6bd"/></radialGradient>
<radialGradient id="blueCore" cx="40%" cy="30%" r="70%"><stop offset="0%" stop-color="#8df4ff"/><stop offset="45%" stop-color="#4895ff"/><stop offset="100%" stop-color="#1a47ff"/></radialGradient>
<filter id="softGlow" x="-80%" y="-80%" width="260%" height="260%"><feGaussianBlur stdDeviation="16" result="blur"/><feMerge><feMergeNode in="blur"/><feMergeNode in="SourceGraphic"/></feMerge></filter>
<filter id="wideGlow" x="-120%" y="-120%" width="340%" height="340%"><feGaussianBlur stdDeviation="34" result="blur"/><feMerge><feMergeNode in="blur"/><feMergeNode in="SourceGraphic"/></feMerge></filter>
</defs>
<ellipse cx="960" cy="742.4" rx="276.1" ry="201.4" fill="none" stroke="#70d6ff" stroke-width="4" opacity="0.154" filter="url(#softGlow)"/>
<path d="M820 740 C770 700 770 825 825 795" stroke="#c4f4ff" stroke-width="10" opacity="0.220" fill="none" stroke-linecap="round" filter="url(#softGlow)"/>
<path d="M1098 724 C1162 686 1164 822 1098 794" stroke="#c4f4ff" stroke-width="10" opacity="0.260" fill="none" stroke-linecap="round" filter="url(#softGlow)"/>
<circle cx="954.4" cy="619.8" r="4.0" fill="#c8f7ff" opacity="0.340" filter="url(#softGlow)"/>
<circle cx="822.8" cy="605.9" r="5.0" fill="#c8f7ff" opacity="0.315" filter="url(#softGlow)"/>
<circle cx="712.1" cy="714.3" r="6.0" fill="#c8f7ff" opacity="0.253" filter="url(#softGlow)"/>
<circle cx="781.4" cy="836.3" r="7.0" fill="#c8f7ff" opacity="0.179" filter="url(#softGlow)"/>
<circle cx="835.0" cy="902.4" r="4.0" fill="#c8f7ff" opacity="0.120" filter="url(#softGlow)"/>
<circle cx="969.8" cy="930.6" r="5.0" fill="#c8f7ff" opacity="0.100" filter="url(#softGlow)"/>
<circle cx="1077.7" cy="829.9" r="6.0" fill="#c8f7ff" opacity="0.126" filter="url(#softGlow)"/>
<circle cx="1175.7" cy="711.3" r="7.0" fill="#c8f7ff" opacity="0.188" filter="url(#softGlow)"/>
<circle cx="1201.7" cy="633.4" r="4.0" fill="#c8f7ff" opacity="0.262" filter="url(#softGlow)"/>
<circle cx="1064.7" cy="591.2" r="5.0" fill="#c8f7ff" opacity="0.320" filter="url(#softGlow)"/>







<circle cx="761" cy="543" r="1.8" fill="#bff7ff" opacity="0.062" filter="url(#softGlow)"/>
<circle cx="1788" cy="615" r="2.5" fill="#bff7ff" opacity="0.083" filter="url(#softGlow)"/>
<circle cx="740" cy="894" r="3.5" fill="#bff7ff" opacity="0.188" filter="url(#softGlow)"/>
<circle cx="1591" cy="231" r="4.1" fill="#bff7ff" opacity="0.165" filter="url(#softGlow)"/>
<circle cx="524" cy="909" r="2.4" fill="#bff7ff" opacity="0.076" filter="url(#softGlow)"/>
<circle cx="328" cy="373" r="3.7" fill="#bff7ff" opacity="0.093" filter="url(#softGlow)"/>
<circle cx="1433" cy="476" r="2.9" fill="#bff7ff" opacity="0.058" filter="url(#softGlow)"/>
<circle cx="1169" cy="182" r="3.3" fill="#bff7ff" opacity="0.108" filter="url(#softGlow)"/>
<circle cx="1074" cy="182" r="2.6" fill="#bff7ff" opacity="0.068" filter="url(#softGlow)"/>
<circle cx="690" cy="340" r="4.1" fill="#bff7ff" opacity="0.174" filter="url(#softGlow)"/>
<circle cx="287" cy="461" r="4.2" fill="#bff7ff" opacity="0.180" filter="url(#softGlow)"/>
<circle cx="220" cy="129" r="2.9" fill="#bff7ff" opacity="0.107" filter="url(#softGlow)"/>
<circle cx="130" cy="684" r="4.0" fill="#bff7ff" opacity="0.057" filter="url(#softGlow)"/>
<circle cx="236" cy="844" r="2.5" fill="#bff7ff" opacity="0.064" filter="url(#softGlow)"/>
</svg>