<svg xmlns="http://www.w3.org/2000/svg" width="1920" height="1080" viewBox="0 0 1920 1080">
<defs>
<radialGradient id="spaceGlow" cx="52%" cy="56%" r="54%"><stop offset="0%" stop-color="#132a42"/><stop offset="38%" stop-color="#111630"/><stop offset="100%" stop-color="#030712"/></radialGradient>
<radialGradient id="robotBody" cx="40%" cy="24%" r="85%"><stop offset="0%" stop-color="#ffffff"/><stop offset="52%" stop-color="#dce9ff"/><stop offset="100%" stop-color="#93a6bd"/></radialGradient>
<radialGradient id="blueCore" cx="40%" cy="30%" r="70%"><stop offset="0%" stop-color="#8df4ff"/><stop offset="45%" stop-color="#4895ff"/><stop offset="100%" stop-color="#1a47ff"/></radialGradient>
<filter id="softGlow" x="-80%" y="-80%" width="260%" height="260%"><feGaussianBlur stdDeviation="16" result="blur"/><feMerge><feMergeNode in="blur"/><feMergeNode in="SourceGraphic"/></feMerge></filter>
<filter id="wideGlow" x="-120%" y="-120%" width="340%" height="340%"><feGaussianBlur stdDeviation="34" result="blur"/><feMerge><feMergeNode in="blur"/><feMergeNode in="SourceGraphic"/></feMerge></filter>
</defs>
<ellipse cx="960" cy="742.8" rx="278.3" ry="202.6" fill="none" stroke="#70d6ff" stroke-width="4" opacity="0.162" filter="url(#softGlow)"/>
<path d="M820 740 C770 700 770 825 825 795" stroke="#c4f4ff" stroke-width="10" opacity="0.235" fill="none" stroke-linecap="round" filter="url(#softGlow)"/>
<path d="M1098 724 C1162 686 1164 822 1098 794" stroke="#c4f4ff" stroke-width="10" opacity="0.245" fill="none" stroke-linecap="round" filter="url(#softGlow)"/>
<circle cx="943.6" cy="617.3" r="4.0" fill="#c8f7ff" opacity="0.340" filter="url(#softGlow)"/>
<circle cx="812.9" cy="611.8" r="5.0" fill="#c8f7ff" opacity="0.311" filter="url(#softGlow)"/>
<circle cx="708.5" cy="724.1" r="6.0" fill="#c8f7ff" opacity="0.247" filter="url(#softGlow)"/>
<circle cx="785.4" cy="847.2" r="7.0" fill="#c8f7ff" opacity="0.173" filter="url(#softGlow)"/>
<circle cx="845.7" cy="906.0" r="4.0" fill="#c8f7ff" opacity="0.117" filter="url(#softGlow)"/>
<circle cx="984.4" cy="926.0" r="5.0" fill="#c8f7ff" opacity="0.101" filter="url(#softGlow)"/>
<circle cx="1085.9" cy="820.6" r="6.0" fill="#c8f7ff" opacity="0.130" filter="url(#softGlow)"/>
<circle cx="1178.8" cy="699.8" r="7.0" fill="#c8f7ff" opacity="0.194" filter="url(#softGlow)"/>
<circle cx="1196.2" cy="628.7" r="4.0" fill="#c8f7ff" opacity="0.268" filter="url(#softGlow)"/>
<circle cx="1055.6" cy="594.5" r="5.0" fill="#c8f7ff" opacity="0.324" filter="url(#softGlow)"/>


<g opacity="0.062" filter="url(#softGlow)">
  <line x1="1718.1" y1="114.0" x2="2078.1" y2="-15.6" stroke="#8cf6ff" stroke-width="8" stroke-linecap="round"/>
  <line x1="1736.1" y1="108.0" x2="2228.1" y2="-69.6" stroke="#ffffff" stroke-width="2" stroke-linecap="round" opacity="0.92"/>
</g>





<circle cx="761" cy="543" r="1.8" fill="#bff7ff" opacity="0.064" filter="url(#softGlow)"/>
<circle cx="1788" cy="615" r="2.5" fill="#bff7ff" opacity="0.085" filter="url(#softGlow)"/>
<circle cx="740" cy="894" r="3.5" fill="#bff7ff" opacity="0.193" filter="url(#softGlow)"/>
<circle cx="1591" cy="231" r="4.1" fill="#bff7ff" opacity="0.169" filter="url(#softGlow)"/>
<circle cx="524" cy="909" r="2.4" fill="#bff7ff" opacity="0.078" filter="url(#softGlow)"/>
<circle cx="328" cy="373" r="3.7" fill="#bff7ff" opacity="0.095" filter="url(#softGlow)"/>
<circle cx="1433" cy="476" r="2.9" fill="#bff7ff" opacity="0.060" filter="url(#softGlow)"/>
<circle cx="1169" cy="182" r="3.3" fill="#bff7ff" opacity="0.111" filter="url(#softGlow)"/>
<circle cx="1074" cy="182" r="2.6" fill="#bff7ff" opacity="0.070" filter="url(#softGlow)"/>
<circle cx="690" cy="340" r="4.1" fill="#bff7ff" opacity="0.179" filter="url(#softGlow)"/>
<circle cx="287" cy="461" r="4.2" fill="#bff7ff" opacity="0.185" filter="url(#softGlow)"/>
<circle cx="220" cy="129" r="2.9" fill="#bff7ff" opacity="0.110" filter="url(#softGlow)"/>
<circle cx="130" cy="684" r="4.0" fill="#bff7ff" opacity="0.059" filter="url(#softGlow)"/>
<circle cx="236" cy="844" r="2.5" fill="#bff7ff" opacity="0.066" filter="url(#softGlow)"/>
</svg>