<svg xmlns="http://www.w3.org/2000/svg" width="1920" height="1080" viewBox="0 0 1920 1080">
<defs>
<radialGradient id="spaceGlow" cx="52%" cy="56%" r="54%"><stop offset="0%" stop-color="#132a42"/><stop offset="38%" stop-color="#111630"/><stop offset="100%" stop-color="#030712"/></radialGradient>
<radialGradient id="robotBody" cx="40%" cy="24%" r="85%"><stop offset="0%" stop-color="#ffffff"/><stop offset="52%" stop-color="#dce9ff"/><stop offset="100%" stop-color="#93a6bd"/></radialGradient>
<radialGradient id="blueCore" cx="40%" cy="30%" r="70%"><stop offset="0%" stop-color="#8df4ff"/><stop offset="45%" stop-color="#4895ff"/><stop offset="100%" stop-color="#1a47ff"/></radialGradient>
<filter id="softGlow" x="-80%" y="-80%" width="260%" height="260%"><feGaussianBlur stdDeviation="16" result="blur"/><feMerge><feMergeNode in="blur"/><feMergeNode in="SourceGraphic"/></feMerge></filter>
<filter id="wideGlow" x="-120%" y="-120%" width="340%" height="340%"><feGaussianBlur stdDeviation="34" result="blur"/><feMerge><feMergeNode in="blur"/><feMergeNode in="SourceGraphic"/></feMerge></filter>
</defs>
<ellipse cx="960" cy="743.2" rx="280.5" ry="203.8" fill="none" stroke="#70d6ff" stroke-width="4" opacity="0.171" filter="url(#softGlow)"/>
<path d="M820 740 C770 700 770 825 825 795" stroke="#c4f4ff" stroke-width="10" opacity="0.250" fill="none" stroke-linecap="round" filter="url(#softGlow)"/>
<path d="M1098 724 C1162 686 1164 822 1098 794" stroke="#c4f4ff" stroke-width="10" opacity="0.230" fill="none" stroke-linecap="round" filter="url(#softGlow)"/>
<circle cx="933.0" cy="615.5" r="4.0" fill="#c8f7ff" opacity="0.339" filter="url(#softGlow)"/>
<circle cx="803.6" cy="618.4" r="5.0" fill="#c8f7ff" opacity="0.306" filter="url(#softGlow)"/>
<circle cx="705.6" cy="734.0" r="6.0" fill="#c8f7ff" opacity="0.240" filter="url(#softGlow)"/>
<circle cx="789.9" cy="857.7" r="7.0" fill="#c8f7ff" opacity="0.167" filter="url(#softGlow)"/>
<circle cx="856.8" cy="908.9" r="4.0" fill="#c8f7ff" opacity="0.113" filter="url(#softGlow)"/>
<circle cx="998.9" cy="920.6" r="5.0" fill="#c8f7ff" opacity="0.101" filter="url(#softGlow)"/>
<circle cx="1093.8" cy="811.1" r="6.0" fill="#c8f7ff" opacity="0.135" filter="url(#softGlow)"/>
<circle cx="1181.2" cy="688.7" r="7.0" fill="#c8f7ff" opacity="0.201" filter="url(#softGlow)"/>
<circle cx="1190.0" cy="624.6" r="4.0" fill="#c8f7ff" opacity="0.274" filter="url(#softGlow)"/>
<circle cx="1046.1" cy="598.6" r="5.0" fill="#c8f7ff" opacity="0.327" filter="url(#softGlow)"/>


<g opacity="0.184" filter="url(#softGlow)">
  <line x1="1620.3" y1="149.9" x2="1980.3" y2="20.3" stroke="#8cf6ff" stroke-width="8" stroke-linecap="round"/>
  <line x1="1638.3" y1="143.9" x2="2130.3" y2="-33.7" stroke="#ffffff" stroke-width="2" stroke-linecap="round" opacity="0.92"/>
</g>





<circle cx="1738" cy="699" r="3.5" fill="#bff7ff" opacity="0.160" filter="url(#softGlow)"/>
<circle cx="454" cy="441" r="3.0" fill="#bff7ff" opacity="0.075" filter="url(#softGlow)"/>
<circle cx="1612" cy="571" r="3.9" fill="#bff7ff" opacity="0.082" filter="url(#softGlow)"/>
<circle cx="208" cy="289" r="3.1" fill="#bff7ff" opacity="0.201" filter="url(#softGlow)"/>
<circle cx="1527" cy="88" r="3.1" fill="#bff7ff" opacity="0.117" filter="url(#softGlow)"/>
<circle cx="1268" cy="77" r="2.2" fill="#bff7ff" opacity="0.148" filter="url(#softGlow)"/>
<circle cx="1778" cy="820" r="2.9" fill="#bff7ff" opacity="0.041" filter="url(#softGlow)"/>
<circle cx="550" cy="74" r="2.2" fill="#bff7ff" opacity="0.145" filter="url(#softGlow)"/>
<circle cx="183" cy="513" r="1.7" fill="#bff7ff" opacity="0.104" filter="url(#softGlow)"/>
<circle cx="522" cy="384" r="2.4" fill="#bff7ff" opacity="0.043" filter="url(#softGlow)"/>
<circle cx="1402" cy="340" r="2.2" fill="#bff7ff" opacity="0.131" filter="url(#softGlow)"/>
<circle cx="668" cy="897" r="2.1" fill="#bff7ff" opacity="0.083" filter="url(#softGlow)"/>
<circle cx="859" cy="541" r="1.8" fill="#bff7ff" opacity="0.147" filter="url(#softGlow)"/>
<circle cx="1381" cy="413" r="2.8" fill="#bff7ff" opacity="0.168" filter="url(#softGlow)"/>
</svg>