<svg xmlns="http://www.w3.org/2000/svg" width="1920" height="1080" viewBox="0 0 1920 1080">
<defs>
<radialGradient id="spaceGlow" cx="52%" cy="56%" r="54%"><stop offset="0%" stop-color="#132a42"/><stop offset="38%" stop-color="#111630"/><stop offset="100%" stop-color="#030712"/></radialGradient>
<radialGradient id="robotBody" cx="40%" cy="24%" r="85%"><stop offset="0%" stop-color="#ffffff"/><stop offset="52%" stop-color="#dce9ff"/><stop offset="100%" stop-color="#93a6bd"/></radialGradient>
<radialGradient id="blueCore" cx="40%" cy="30%" r="70%"><stop offset="0%" stop-color="#8df4ff"/><stop offset="45%" stop-color="#4895ff"/><stop offset="100%" stop-color="#1a47ff"/></radialGradient>
<filter id="softGlow" x="-80%" y="-80%" width="260%" height="260%"><feGaussianBlur stdDeviation="16" result="blur"/><feMerge><feMergeNode in="blur"/><feMergeNode in="SourceGraphic"/></feMerge></filter>
<filter id="wideGlow" x="-120%" y="-120%" width="340%" height="340%"><feGaussianBlur stdDeviation="34" result="blur"/><feMerge><feMergeNode in="blur"/><feMergeNode in="SourceGraphic"/></feMerge></filter>
</defs>
<ellipse cx="960" cy="743.6" rx="282.7" ry="205.0" fill="none" stroke="#70d6ff" stroke-width="4" opacity="0.179" filter="url(#softGlow)"/>
<path d="M820 740 C770 700 770 825 825 795" stroke="#c4f4ff" stroke-width="10" opacity="0.264" fill="none" stroke-linecap="round" filter="url(#softGlow)"/>
<path d="M1098 724 C1162 686 1164 822 1098 794" stroke="#c4f4ff" stroke-width="10" opacity="0.216" fill="none" stroke-linecap="round" filter="url(#softGlow)"/>
<circle cx="922.3" cy="614.4" r="4.0" fill="#c8f7ff" opacity="0.338" filter="url(#softGlow)"/>
<circle cx="794.8" cy="625.7" r="5.0" fill="#c8f7ff" opacity="0.301" filter="url(#softGlow)"/>
<circle cx="703.6" cy="744.0" r="6.0" fill="#c8f7ff" opacity="0.233" filter="url(#softGlow)"/>
<circle cx="795.0" cy="867.8" r="7.0" fill="#c8f7ff" opacity="0.161" filter="url(#softGlow)"/>
<circle cx="868.2" cy="911.2" r="4.0" fill="#c8f7ff" opacity="0.111" filter="url(#softGlow)"/>
<circle cx="1013.3" cy="914.5" r="5.0" fill="#c8f7ff" opacity="0.103" filter="url(#softGlow)"/>
<circle cx="1101.2" cy="801.3" r="6.0" fill="#c8f7ff" opacity="0.140" filter="url(#softGlow)"/>
<circle cx="1182.8" cy="677.9" r="7.0" fill="#c8f7ff" opacity="0.208" filter="url(#softGlow)"/>
<circle cx="1183.0" cy="621.1" r="4.0" fill="#c8f7ff" opacity="0.280" filter="url(#softGlow)"/>
<circle cx="1036.4" cy="603.4" r="5.0" fill="#c8f7ff" opacity="0.330" filter="url(#softGlow)"/>


<g opacity="0.303" filter="url(#softGlow)">
  <line x1="1530.4" y1="182.9" x2="1890.4" y2="53.3" stroke="#8cf6ff" stroke-width="8" stroke-linecap="round"/>
  <line x1="1548.4" y1="176.9" x2="2040.4" y2="-0.7" stroke="#ffffff" stroke-width="2" stroke-linecap="round" opacity="0.92"/>
</g>





<circle cx="1738" cy="699" r="3.5" fill="#bff7ff" opacity="0.163" filter="url(#softGlow)"/>
<circle cx="454" cy="441" r="3.0" fill="#bff7ff" opacity="0.077" filter="url(#softGlow)"/>
<circle cx="1612" cy="571" r="3.9" fill="#bff7ff" opacity="0.084" filter="url(#softGlow)"/>
<circle cx="208" cy="289" r="3.1" fill="#bff7ff" opacity="0.205" filter="url(#softGlow)"/>
<circle cx="1527" cy="88" r="3.1" fill="#bff7ff" opacity="0.119" filter="url(#softGlow)"/>
<circle cx="1268" cy="77" r="2.2" fill="#bff7ff" opacity="0.151" filter="url(#softGlow)"/>
<circle cx="1778" cy="820" r="2.9" fill="#bff7ff" opacity="0.042" filter="url(#softGlow)"/>
<circle cx="550" cy="74" r="2.2" fill="#bff7ff" opacity="0.148" filter="url(#softGlow)"/>
<circle cx="183" cy="513" r="1.7" fill="#bff7ff" opacity="0.106" filter="url(#softGlow)"/>
<circle cx="522" cy="384" r="2.4" fill="#bff7ff" opacity="0.044" filter="url(#softGlow)"/>
<circle cx="1402" cy="340" r="2.2" fill="#bff7ff" opacity="0.134" filter="url(#softGlow)"/>
<circle cx="668" cy="897" r="2.1" fill="#bff7ff" opacity="0.084" filter="url(#softGlow)"/>
<circle cx="859" cy="541" r="1.8" fill="#bff7ff" opacity="0.150" filter="url(#softGlow)"/>
<circle cx="1381" cy="413" r="2.8" fill="#bff7ff" opacity="0.172" filter="url(#softGlow)"/>
</svg>