<svg xmlns="http://www.w3.org/2000/svg" width="1920" height="1080" viewBox="0 0 1920 1080">
<defs>
<radialGradient id="spaceGlow" cx="52%" cy="56%" r="54%"><stop offset="0%" stop-color="#132a42"/><stop offset="38%" stop-color="#111630"/><stop offset="100%" stop-color="#030712"/></radialGradient>
<radialGradient id="robotBody" cx="40%" cy="24%" r="85%"><stop offset="0%" stop-color="#ffffff"/><stop offset="52%" stop-color="#dce9ff"/><stop offset="100%" stop-color="#93a6bd"/></radialGradient>
<radialGradient id="blueCore" cx="40%" cy="30%" r="70%"><stop offset="0%" stop-color="#8df4ff"/><stop offset="45%" stop-color="#4895ff"/><stop offset="100%" stop-color="#1a47ff"/></radialGradient>
<filter id="softGlow" x="-80%" y="-80%" width="260%" height="260%"><feGaussianBlur stdDeviation="16" result="blur"/><feMerge><feMergeNode in="blur"/><feMergeNode in="SourceGraphic"/></feMerge></filter>
<filter id="wideGlow" x="-120%" y="-120%" width="340%" height="340%"><feGaussianBlur stdDeviation="34" result="blur"/><feMerge><feMergeNode in="blur"/><feMergeNode in="SourceGraphic"/></feMerge></filter>
</defs>
<ellipse cx="960" cy="744.9" rx="286.2" ry="207.0" fill="none" stroke="#70d6ff" stroke-width="4" opacity="0.193" filter="url(#softGlow)"/>
<path d="M820 740 C770 700 770 825 825 795" stroke="#c4f4ff" stroke-width="10" opacity="0.288" fill="none" stroke-linecap="round" filter="url(#softGlow)"/>
<path d="M1098 724 C1162 686 1164 822 1098 794" stroke="#c4f4ff" stroke-width="10" opacity="0.192" fill="none" stroke-linecap="round" filter="url(#softGlow)"/>
<circle cx="901.5" cy="614.3" r="4.0" fill="#c8f7ff" opacity="0.334" filter="url(#softGlow)"/>
<circle cx="778.7" cy="642.2" r="5.0" fill="#c8f7ff" opacity="0.290" filter="url(#softGlow)"/>
<circle cx="702.0" cy="764.4" r="6.0" fill="#c8f7ff" opacity="0.220" filter="url(#softGlow)"/>
<circle cx="806.7" cy="886.4" r="7.0" fill="#c8f7ff" opacity="0.149" filter="url(#softGlow)"/>
<circle cx="891.9" cy="913.8" r="4.0" fill="#c8f7ff" opacity="0.106" filter="url(#softGlow)"/>
<circle cx="1041.5" cy="900.2" r="5.0" fill="#c8f7ff" opacity="0.106" filter="url(#softGlow)"/>
<circle cx="1114.7" cy="781.2" r="6.0" fill="#c8f7ff" opacity="0.150" filter="url(#softGlow)"/>
<circle cx="1184.0" cy="657.6" r="7.0" fill="#c8f7ff" opacity="0.221" filter="url(#softGlow)"/>
<circle cx="1166.9" cy="616.3" r="4.0" fill="#c8f7ff" opacity="0.292" filter="url(#softGlow)"/>
<circle cx="1016.2" cy="615.3" r="5.0" fill="#c8f7ff" opacity="0.335" filter="url(#softGlow)"/>


<g opacity="0.526" filter="url(#softGlow)">
  <line x1="1372.7" y1="240.7" x2="1732.7" y2="111.1" stroke="#8cf6ff" stroke-width="8" stroke-linecap="round"/>
  <line x1="1390.7" y1="234.7" x2="1882.7" y2="57.1" stroke="#ffffff" stroke-width="2" stroke-linecap="round" opacity="0.92"/>
</g>





<circle cx="1052" cy="207" r="3.5" fill="#bff7ff" opacity="0.192" filter="url(#softGlow)"/>
<circle cx="1810" cy="657" r="3.2" fill="#bff7ff" opacity="0.103" filter="url(#softGlow)"/>
<circle cx="1071" cy="157" r="3.1" fill="#bff7ff" opacity="0.189" filter="url(#softGlow)"/>
<circle cx="895" cy="41" r="2.6" fill="#bff7ff" opacity="0.176" filter="url(#softGlow)"/>
<circle cx="1475" cy="184" r="2.0" fill="#bff7ff" opacity="0.122" filter="url(#softGlow)"/>
<circle cx="1402" cy="404" r="3.3" fill="#bff7ff" opacity="0.075" filter="url(#softGlow)"/>
<circle cx="889" cy="204" r="3.4" fill="#bff7ff" opacity="0.178" filter="url(#softGlow)"/>
<circle cx="1688" cy="586" r="3.7" fill="#bff7ff" opacity="0.204" filter="url(#softGlow)"/>
<circle cx="612" cy="663" r="3.6" fill="#bff7ff" opacity="0.090" filter="url(#softGlow)"/>
<circle cx="1281" cy="117" r="3.4" fill="#bff7ff" opacity="0.116" filter="url(#softGlow)"/>
<circle cx="114" cy="511" r="2.6" fill="#bff7ff" opacity="0.164" filter="url(#softGlow)"/>
<circle cx="923" cy="455" r="3.6" fill="#bff7ff" opacity="0.088" filter="url(#softGlow)"/>
<circle cx="1011" cy="1002" r="2.6" fill="#bff7ff" opacity="0.055" filter="url(#softGlow)"/>
<circle cx="1768" cy="737" r="3.6" fill="#bff7ff" opacity="0.197" filter="url(#softGlow)"/>
</svg>