<svg xmlns="http://www.w3.org/2000/svg" width="1920" height="1080" viewBox="0 0 1920 1080">
<defs>
<radialGradient id="spaceGlow" cx="52%" cy="56%" r="54%"><stop offset="0%" stop-color="#132a42"/><stop offset="38%" stop-color="#111630"/><stop offset="100%" stop-color="#030712"/></radialGradient>
<radialGradient id="robotBody" cx="40%" cy="24%" r="85%"><stop offset="0%" stop-color="#ffffff"/><stop offset="52%" stop-color="#dce9ff"/><stop offset="100%" stop-color="#93a6bd"/></radialGradient>
<radialGradient id="blueCore" cx="40%" cy="30%" r="70%"><stop offset="0%" stop-color="#8df4ff"/><stop offset="45%" stop-color="#4895ff"/><stop offset="100%" stop-color="#1a47ff"/></radialGradient>
<filter id="softGlow" x="-80%" y="-80%" width="260%" height="260%"><feGaussianBlur stdDeviation="16" result="blur"/><feMerge><feMergeNode in="blur"/><feMergeNode in="SourceGraphic"/></feMerge></filter>
<filter id="wideGlow" x="-120%" y="-120%" width="340%" height="340%"><feGaussianBlur stdDeviation="34" result="blur"/><feMerge><feMergeNode in="blur"/><feMergeNode in="SourceGraphic"/></feMerge></filter>
</defs>
<ellipse cx="960" cy="745.6" rx="287.3" ry="207.6" fill="none" stroke="#70d6ff" stroke-width="4" opacity="0.197" filter="url(#softGlow)"/>
<path d="M820 740 C770 700 770 825 825 795" stroke="#c4f4ff" stroke-width="10" opacity="0.295" fill="none" stroke-linecap="round" filter="url(#softGlow)"/>
<path d="M1098 724 C1162 686 1164 822 1098 794" stroke="#c4f4ff" stroke-width="10" opacity="0.185" fill="none" stroke-linecap="round" filter="url(#softGlow)"/>
<circle cx="891.4" cy="615.3" r="4.0" fill="#c8f7ff" opacity="0.332" filter="url(#softGlow)"/>
<circle cx="771.6" cy="651.3" r="5.0" fill="#c8f7ff" opacity="0.285" filter="url(#softGlow)"/>
<circle cx="702.4" cy="774.6" r="6.0" fill="#c8f7ff" opacity="0.213" filter="url(#softGlow)"/>
<circle cx="813.3" cy="894.9" r="7.0" fill="#c8f7ff" opacity="0.144" filter="url(#softGlow)"/>
<circle cx="904.1" cy="914.0" r="4.0" fill="#c8f7ff" opacity="0.104" filter="url(#softGlow)"/>
<circle cx="1055.2" cy="892.1" r="5.0" fill="#c8f7ff" opacity="0.108" filter="url(#softGlow)"/>
<circle cx="1120.7" cy="771.1" r="6.0" fill="#c8f7ff" opacity="0.156" filter="url(#softGlow)"/>
<circle cx="1183.5" cy="648.1" r="7.0" fill="#c8f7ff" opacity="0.228" filter="url(#softGlow)"/>
<circle cx="1157.8" cy="614.8" r="4.0" fill="#c8f7ff" opacity="0.297" filter="url(#softGlow)"/>
<circle cx="1005.8" cy="622.3" r="5.0" fill="#c8f7ff" opacity="0.336" filter="url(#softGlow)"/>


<g opacity="0.627" filter="url(#softGlow)">
  <line x1="1304.2" y1="265.8" x2="1664.2" y2="136.2" stroke="#8cf6ff" stroke-width="8" stroke-linecap="round"/>
  <line x1="1322.2" y1="259.8" x2="1814.2" y2="82.2" stroke="#ffffff" stroke-width="2" stroke-linecap="round" opacity="0.92"/>
</g>





<circle cx="1052" cy="207" r="3.5" fill="#bff7ff" opacity="0.194" filter="url(#softGlow)"/>
<circle cx="1810" cy="657" r="3.2" fill="#bff7ff" opacity="0.105" filter="url(#softGlow)"/>
<circle cx="1071" cy="157" r="3.1" fill="#bff7ff" opacity="0.191" filter="url(#softGlow)"/>
<circle cx="895" cy="41" r="2.6" fill="#bff7ff" opacity="0.178" filter="url(#softGlow)"/>
<circle cx="1475" cy="184" r="2.0" fill="#bff7ff" opacity="0.123" filter="url(#softGlow)"/>
<circle cx="1402" cy="404" r="3.3" fill="#bff7ff" opacity="0.076" filter="url(#softGlow)"/>
<circle cx="889" cy="204" r="3.4" fill="#bff7ff" opacity="0.180" filter="url(#softGlow)"/>
<circle cx="1688" cy="586" r="3.7" fill="#bff7ff" opacity="0.207" filter="url(#softGlow)"/>
<circle cx="612" cy="663" r="3.6" fill="#bff7ff" opacity="0.091" filter="url(#softGlow)"/>
<circle cx="1281" cy="117" r="3.4" fill="#bff7ff" opacity="0.118" filter="url(#softGlow)"/>
<circle cx="114" cy="511" r="2.6" fill="#bff7ff" opacity="0.166" filter="url(#softGlow)"/>
<circle cx="923" cy="455" r="3.6" fill="#bff7ff" opacity="0.089" filter="url(#softGlow)"/>
<circle cx="1011" cy="1002" r="2.6" fill="#bff7ff" opacity="0.056" filter="url(#softGlow)"/>
<circle cx="1768" cy="737" r="3.6" fill="#bff7ff" opacity="0.199" filter="url(#softGlow)"/>
</svg>