<svg xmlns="http://www.w3.org/2000/svg" width="1920" height="1080" viewBox="0 0 1920 1080">
<defs>
<radialGradient id="spaceGlow" cx="52%" cy="56%" r="54%"><stop offset="0%" stop-color="#132a42"/><stop offset="38%" stop-color="#111630"/><stop offset="100%" stop-color="#030712"/></radialGradient>
<radialGradient id="robotBody" cx="40%" cy="24%" r="85%"><stop offset="0%" stop-color="#ffffff"/><stop offset="52%" stop-color="#dce9ff"/><stop offset="100%" stop-color="#93a6bd"/></radialGradient>
<radialGradient id="blueCore" cx="40%" cy="30%" r="70%"><stop offset="0%" stop-color="#8df4ff"/><stop offset="45%" stop-color="#4895ff"/><stop offset="100%" stop-color="#1a47ff"/></radialGradient>
<filter id="softGlow" x="-80%" y="-80%" width="260%" height="260%"><feGaussianBlur stdDeviation="16" result="blur"/><feMerge><feMergeNode in="blur"/><feMergeNode in="SourceGraphic"/></feMerge></filter>
<filter id="wideGlow" x="-120%" y="-120%" width="340%" height="340%"><feGaussianBlur stdDeviation="34" result="blur"/><feMerge><feMergeNode in="blur"/><feMergeNode in="SourceGraphic"/></feMerge></filter>
</defs>
<ellipse cx="960" cy="747.2" rx="288.0" ry="208.0" fill="none" stroke="#70d6ff" stroke-width="4" opacity="0.200" filter="url(#softGlow)"/>
<path d="M820 740 C770 700 770 825 825 795" stroke="#c4f4ff" stroke-width="10" opacity="0.300" fill="none" stroke-linecap="round" filter="url(#softGlow)"/>
<path d="M1098 724 C1162 686 1164 822 1098 794" stroke="#c4f4ff" stroke-width="10" opacity="0.180" fill="none" stroke-linecap="round" filter="url(#softGlow)"/>
<circle cx="871.8" cy="619.2" r="4.0" fill="#c8f7ff" opacity="0.326" filter="url(#softGlow)"/>
<circle cx="759.1" cy="671.0" r="5.0" fill="#c8f7ff" opacity="0.273" filter="url(#softGlow)"/>
<circle cx="705.8" cy="794.7" r="6.0" fill="#c8f7ff" opacity="0.199" filter="url(#softGlow)"/>
<circle cx="827.9" cy="910.1" r="7.0" fill="#c8f7ff" opacity="0.134" filter="url(#softGlow)"/>
<circle cx="929.0" cy="912.4" r="4.0" fill="#c8f7ff" opacity="0.101" filter="url(#softGlow)"/>
<circle cx="1081.7" cy="874.1" r="5.0" fill="#c8f7ff" opacity="0.114" filter="url(#softGlow)"/>
<circle cx="1131.1" cy="750.7" r="6.0" fill="#c8f7ff" opacity="0.168" filter="url(#softGlow)"/>
<circle cx="1180.4" cy="630.9" r="7.0" fill="#c8f7ff" opacity="0.242" filter="url(#softGlow)"/>
<circle cx="1137.8" cy="614.1" r="4.0" fill="#c8f7ff" opacity="0.307" filter="url(#softGlow)"/>
<circle cx="984.7" cy="638.2" r="5.0" fill="#c8f7ff" opacity="0.339" filter="url(#softGlow)"/>


<g opacity="0.798" filter="url(#softGlow)">
  <line x1="1186.5" y1="308.9" x2="1546.5" y2="179.3" stroke="#8cf6ff" stroke-width="8" stroke-linecap="round"/>
  <line x1="1204.5" y1="302.9" x2="1696.5" y2="125.3" stroke="#ffffff" stroke-width="2" stroke-linecap="round" opacity="0.92"/>
</g>





<circle cx="1263" cy="32" r="2.0" fill="#bff7ff" opacity="0.148" filter="url(#softGlow)"/>
<circle cx="1422" cy="62" r="3.3" fill="#bff7ff" opacity="0.208" filter="url(#softGlow)"/>
<circle cx="1646" cy="630" r="1.6" fill="#bff7ff" opacity="0.090" filter="url(#softGlow)"/>
<circle cx="1169" cy="900" r="3.0" fill="#bff7ff" opacity="0.103" filter="url(#softGlow)"/>
<circle cx="1388" cy="130" r="3.9" fill="#bff7ff" opacity="0.129" filter="url(#softGlow)"/>
<circle cx="748" cy="216" r="1.9" fill="#bff7ff" opacity="0.118" filter="url(#softGlow)"/>
<circle cx="1061" cy="630" r="4.0" fill="#bff7ff" opacity="0.068" filter="url(#softGlow)"/>
<circle cx="685" cy="270" r="3.8" fill="#bff7ff" opacity="0.134" filter="url(#softGlow)"/>
<circle cx="1231" cy="35" r="1.8" fill="#bff7ff" opacity="0.089" filter="url(#softGlow)"/>
<circle cx="1395" cy="674" r="2.7" fill="#bff7ff" opacity="0.155" filter="url(#softGlow)"/>
<circle cx="153" cy="174" r="2.6" fill="#bff7ff" opacity="0.089" filter="url(#softGlow)"/>
<circle cx="702" cy="977" r="3.5" fill="#bff7ff" opacity="0.180" filter="url(#softGlow)"/>
<circle cx="216" cy="793" r="2.0" fill="#bff7ff" opacity="0.189" filter="url(#softGlow)"/>
<circle cx="1204" cy="384" r="2.6" fill="#bff7ff" opacity="0.146" filter="url(#softGlow)"/>
</svg>