<svg xmlns="http://www.w3.org/2000/svg" width="1920" height="1080" viewBox="0 0 1920 1080">
<defs>
<radialGradient id="spaceGlow" cx="52%" cy="56%" r="54%"><stop offset="0%" stop-color="#132a42"/><stop offset="38%" stop-color="#111630"/><stop offset="100%" stop-color="#030712"/></radialGradient>
<radialGradient id="robotBody" cx="40%" cy="24%" r="85%"><stop offset="0%" stop-color="#ffffff"/><stop offset="52%" stop-color="#dce9ff"/><stop offset="100%" stop-color="#93a6bd"/></radialGradient>
<radialGradient id="blueCore" cx="40%" cy="30%" r="70%"><stop offset="0%" stop-color="#8df4ff"/><stop offset="45%" stop-color="#4895ff"/><stop offset="100%" stop-color="#1a47ff"/></radialGradient>
<filter id="softGlow" x="-80%" y="-80%" width="260%" height="260%"><feGaussianBlur stdDeviation="16" result="blur"/><feMerge><feMergeNode in="blur"/><feMergeNode in="SourceGraphic"/></feMerge></filter>
<filter id="wideGlow" x="-120%" y="-120%" width="340%" height="340%"><feGaussianBlur stdDeviation="34" result="blur"/><feMerge><feMergeNode in="blur"/><feMergeNode in="SourceGraphic"/></feMerge></filter>
</defs>
<ellipse cx="960" cy="751.2" rx="283.1" ry="205.3" fill="none" stroke="#70d6ff" stroke-width="4" opacity="0.181" filter="url(#softGlow)"/>
<path d="M820 740 C770 700 770 825 825 795" stroke="#c4f4ff" stroke-width="10" opacity="0.267" fill="none" stroke-linecap="round" filter="url(#softGlow)"/>
<path d="M1098 724 C1162 686 1164 822 1098 794" stroke="#c4f4ff" stroke-width="10" opacity="0.213" fill="none" stroke-linecap="round" filter="url(#softGlow)"/>
<circle cx="836.2" cy="635.1" r="4.0" fill="#c8f7ff" opacity="0.311" filter="url(#softGlow)"/>
<circle cx="742.0" cy="715.2" r="5.0" fill="#c8f7ff" opacity="0.248" filter="url(#softGlow)"/>
<circle cx="722.2" cy="833.1" r="6.0" fill="#c8f7ff" opacity="0.173" filter="url(#softGlow)"/>
<circle cx="862.0" cy="932.0" r="7.0" fill="#c8f7ff" opacity="0.117" filter="url(#softGlow)"/>
<circle cx="979.7" cy="901.0" r="4.0" fill="#c8f7ff" opacity="0.100" filter="url(#softGlow)"/>
<circle cx="1129.7" cy="832.5" r="5.0" fill="#c8f7ff" opacity="0.130" filter="url(#softGlow)"/>
<circle cx="1145.3" cy="711.0" r="6.0" fill="#c8f7ff" opacity="0.193" filter="url(#softGlow)"/>
<circle cx="1165.7" cy="604.0" r="7.0" fill="#c8f7ff" opacity="0.268" filter="url(#softGlow)"/>
<circle cx="1091.2" cy="620.8" r="4.0" fill="#c8f7ff" opacity="0.323" filter="url(#softGlow)"/>
<circle cx="941.7" cy="676.7" r="5.0" fill="#c8f7ff" opacity="0.339" filter="url(#softGlow)"/>


<g opacity="0.988" filter="url(#softGlow)">
  <line x1="1018.9" y1="370.4" x2="1378.9" y2="240.8" stroke="#8cf6ff" stroke-width="8" stroke-linecap="round"/>
  <line x1="1036.9" y1="364.4" x2="1528.9" y2="186.8" stroke="#ffffff" stroke-width="2" stroke-linecap="round" opacity="0.92"/>
</g>





<circle cx="1142" cy="780" r="1.9" fill="#bff7ff" opacity="0.180" filter="url(#softGlow)"/>
<circle cx="716" cy="759" r="3.3" fill="#bff7ff" opacity="0.134" filter="url(#softGlow)"/>
<circle cx="158" cy="728" r="3.6" fill="#bff7ff" opacity="0.205" filter="url(#softGlow)"/>
<circle cx="1067" cy="80" r="2.3" fill="#bff7ff" opacity="0.201" filter="url(#softGlow)"/>
<circle cx="962" cy="727" r="3.2" fill="#bff7ff" opacity="0.173" filter="url(#softGlow)"/>
<circle cx="1369" cy="228" r="2.9" fill="#bff7ff" opacity="0.185" filter="url(#softGlow)"/>
<circle cx="820" cy="753" r="1.9" fill="#bff7ff" opacity="0.107" filter="url(#softGlow)"/>
<circle cx="632" cy="401" r="2.7" fill="#bff7ff" opacity="0.114" filter="url(#softGlow)"/>
<circle cx="1628" cy="500" r="4.1" fill="#bff7ff" opacity="0.147" filter="url(#softGlow)"/>
<circle cx="862" cy="423" r="1.8" fill="#bff7ff" opacity="0.054" filter="url(#softGlow)"/>
<circle cx="1550" cy="464" r="3.4" fill="#bff7ff" opacity="0.055" filter="url(#softGlow)"/>
<circle cx="582" cy="311" r="1.8" fill="#bff7ff" opacity="0.051" filter="url(#softGlow)"/>
<circle cx="1251" cy="54" r="2.7" fill="#bff7ff" opacity="0.170" filter="url(#softGlow)"/>
<circle cx="628" cy="314" r="3.8" fill="#bff7ff" opacity="0.130" filter="url(#softGlow)"/>
</svg>