<svg xmlns="http://www.w3.org/2000/svg" width="1920" height="1080" viewBox="0 0 1920 1080">
<defs>
<radialGradient id="spaceGlow" cx="52%" cy="56%" r="54%"><stop offset="0%" stop-color="#132a42"/><stop offset="38%" stop-color="#111630"/><stop offset="100%" stop-color="#030712"/></radialGradient>
<radialGradient id="robotBody" cx="40%" cy="24%" r="85%"><stop offset="0%" stop-color="#ffffff"/><stop offset="52%" stop-color="#dce9ff"/><stop offset="100%" stop-color="#93a6bd"/></radialGradient>
<radialGradient id="blueCore" cx="40%" cy="30%" r="70%"><stop offset="0%" stop-color="#8df4ff"/><stop offset="45%" stop-color="#4895ff"/><stop offset="100%" stop-color="#1a47ff"/></radialGradient>
<filter id="softGlow" x="-80%" y="-80%" width="260%" height="260%"><feGaussianBlur stdDeviation="16" result="blur"/><feMerge><feMergeNode in="blur"/><feMergeNode in="SourceGraphic"/></feMerge></filter>
<filter id="wideGlow" x="-120%" y="-120%" width="340%" height="340%"><feGaussianBlur stdDeviation="34" result="blur"/><feMerge><feMergeNode in="blur"/><feMergeNode in="SourceGraphic"/></feMerge></filter>
</defs>
<ellipse cx="960" cy="755.9" rx="274.5" ry="200.5" fill="none" stroke="#70d6ff" stroke-width="4" opacity="0.147" filter="url(#softGlow)"/>
<path d="M820 740 C770 700 770 825 825 795" stroke="#c4f4ff" stroke-width="10" opacity="0.210" fill="none" stroke-linecap="round" filter="url(#softGlow)"/>
<path d="M1098 724 C1162 686 1164 822 1098 794" stroke="#c4f4ff" stroke-width="10" opacity="0.270" fill="none" stroke-linecap="round" filter="url(#softGlow)"/>
<circle cx="807.0" cy="660.5" r="4.0" fill="#c8f7ff" opacity="0.291" filter="url(#softGlow)"/>
<circle cx="736.0" cy="763.0" r="5.0" fill="#c8f7ff" opacity="0.221" filter="url(#softGlow)"/>
<circle cx="750.8" cy="866.3" r="6.0" fill="#c8f7ff" opacity="0.150" filter="url(#softGlow)"/>
<circle cx="901.1" cy="941.6" r="7.0" fill="#c8f7ff" opacity="0.106" filter="url(#softGlow)"/>
<circle cx="1029.3" cy="879.5" r="4.0" fill="#c8f7ff" opacity="0.106" filter="url(#softGlow)"/>
<circle cx="1169.0" cy="785.9" r="5.0" fill="#c8f7ff" opacity="0.150" filter="url(#softGlow)"/>
<circle cx="1150.0" cy="675.3" r="6.0" fill="#c8f7ff" opacity="0.220" filter="url(#softGlow)"/>
<circle cx="1140.5" cy="588.9" r="7.0" fill="#c8f7ff" opacity="0.291" filter="url(#softGlow)"/>
<circle cx="1038.0" cy="638.0" r="4.0" fill="#c8f7ff" opacity="0.334" filter="url(#softGlow)"/>
<circle cx="899.7" cy="721.6" r="5.0" fill="#c8f7ff" opacity="0.334" filter="url(#softGlow)"/>


<g opacity="0.943" filter="url(#softGlow)">
  <line x1="924.3" y1="405.1" x2="1284.3" y2="275.5" stroke="#8cf6ff" stroke-width="8" stroke-linecap="round"/>
  <line x1="942.3" y1="399.1" x2="1434.3" y2="221.5" stroke="#ffffff" stroke-width="2" stroke-linecap="round" opacity="0.92"/>
</g>





<circle cx="1260" cy="821" r="2.4" fill="#bff7ff" opacity="0.123" filter="url(#softGlow)"/>
<circle cx="730" cy="320" r="3.2" fill="#bff7ff" opacity="0.169" filter="url(#softGlow)"/>
<circle cx="223" cy="999" r="3.1" fill="#bff7ff" opacity="0.175" filter="url(#softGlow)"/>
<circle cx="1116" cy="290" r="2.3" fill="#bff7ff" opacity="0.061" filter="url(#softGlow)"/>
<circle cx="1096" cy="59" r="3.8" fill="#bff7ff" opacity="0.103" filter="url(#softGlow)"/>
<circle cx="1761" cy="390" r="2.2" fill="#bff7ff" opacity="0.187" filter="url(#softGlow)"/>
<circle cx="790" cy="113" r="3.5" fill="#bff7ff" opacity="0.091" filter="url(#softGlow)"/>
<circle cx="869" cy="670" r="2.9" fill="#bff7ff" opacity="0.203" filter="url(#softGlow)"/>
<circle cx="720" cy="122" r="3.7" fill="#bff7ff" opacity="0.170" filter="url(#softGlow)"/>
<circle cx="797" cy="281" r="3.1" fill="#bff7ff" opacity="0.071" filter="url(#softGlow)"/>
<circle cx="1072" cy="805" r="2.3" fill="#bff7ff" opacity="0.084" filter="url(#softGlow)"/>
<circle cx="1206" cy="437" r="3.1" fill="#bff7ff" opacity="0.125" filter="url(#softGlow)"/>
<circle cx="634" cy="653" r="2.8" fill="#bff7ff" opacity="0.100" filter="url(#softGlow)"/>
<circle cx="1339" cy="708" r="1.7" fill="#bff7ff" opacity="0.057" filter="url(#softGlow)"/>
</svg>