<svg xmlns="http://www.w3.org/2000/svg" width="1920" height="1080" viewBox="0 0 1920 1080">
<defs>
<radialGradient id="spaceGlow" cx="52%" cy="56%" r="54%"><stop offset="0%" stop-color="#132a42"/><stop offset="38%" stop-color="#111630"/><stop offset="100%" stop-color="#030712"/></radialGradient>
<radialGradient id="robotBody" cx="40%" cy="24%" r="85%"><stop offset="0%" stop-color="#ffffff"/><stop offset="52%" stop-color="#dce9ff"/><stop offset="100%" stop-color="#93a6bd"/></radialGradient>
<radialGradient id="blueCore" cx="40%" cy="30%" r="70%"><stop offset="0%" stop-color="#8df4ff"/><stop offset="45%" stop-color="#4895ff"/><stop offset="100%" stop-color="#1a47ff"/></radialGradient>
<filter id="softGlow" x="-80%" y="-80%" width="260%" height="260%"><feGaussianBlur stdDeviation="16" result="blur"/><feMerge><feMergeNode in="blur"/><feMergeNode in="SourceGraphic"/></feMerge></filter>
<filter id="wideGlow" x="-120%" y="-120%" width="340%" height="340%"><feGaussianBlur stdDeviation="34" result="blur"/><feMerge><feMergeNode in="blur"/><feMergeNode in="SourceGraphic"/></feMerge></filter>
</defs>
<ellipse cx="960" cy="757.1" rx="272.7" ry="199.5" fill="none" stroke="#70d6ff" stroke-width="4" opacity="0.140" filter="url(#softGlow)"/>
<path d="M820 740 C770 700 770 825 825 795" stroke="#c4f4ff" stroke-width="10" opacity="0.198" fill="none" stroke-linecap="round" filter="url(#softGlow)"/>
<path d="M1098 724 C1162 686 1164 822 1098 794" stroke="#c4f4ff" stroke-width="10" opacity="0.282" fill="none" stroke-linecap="round" filter="url(#softGlow)"/>
<circle cx="800.9" cy="668.1" r="4.0" fill="#c8f7ff" opacity="0.286" filter="url(#softGlow)"/>
<circle cx="736.3" cy="775.1" r="5.0" fill="#c8f7ff" opacity="0.214" filter="url(#softGlow)"/>
<circle cx="759.7" cy="873.5" r="6.0" fill="#c8f7ff" opacity="0.144" filter="url(#softGlow)"/>
<circle cx="911.4" cy="942.0" r="7.0" fill="#c8f7ff" opacity="0.104" filter="url(#softGlow)"/>
<circle cx="1041.3" cy="872.8" r="4.0" fill="#c8f7ff" opacity="0.108" filter="url(#softGlow)"/>
<circle cx="1177.3" cy="773.8" r="5.0" fill="#c8f7ff" opacity="0.155" filter="url(#softGlow)"/>
<circle cx="1149.7" cy="667.3" r="6.0" fill="#c8f7ff" opacity="0.227" filter="url(#softGlow)"/>
<circle cx="1132.7" cy="587.2" r="7.0" fill="#c8f7ff" opacity="0.296" filter="url(#softGlow)"/>
<circle cx="1023.9" cy="643.9" r="4.0" fill="#c8f7ff" opacity="0.336" filter="url(#softGlow)"/>
<circle cx="889.6" cy="733.4" r="5.0" fill="#c8f7ff" opacity="0.331" filter="url(#softGlow)"/>


<g opacity="0.895" filter="url(#softGlow)">
  <line x1="909.6" y1="410.5" x2="1269.6" y2="280.9" stroke="#8cf6ff" stroke-width="8" stroke-linecap="round"/>
  <line x1="927.6" y1="404.5" x2="1419.6" y2="226.9" stroke="#ffffff" stroke-width="2" stroke-linecap="round" opacity="0.92"/>
</g>





<circle cx="1545" cy="924" r="1.7" fill="#bff7ff" opacity="0.091" filter="url(#softGlow)"/>
<circle cx="775" cy="132" r="3.2" fill="#bff7ff" opacity="0.131" filter="url(#softGlow)"/>
<circle cx="1022" cy="802" r="1.9" fill="#bff7ff" opacity="0.105" filter="url(#softGlow)"/>
<circle cx="1636" cy="495" r="3.2" fill="#bff7ff" opacity="0.123" filter="url(#softGlow)"/>
<circle cx="1334" cy="101" r="3.7" fill="#bff7ff" opacity="0.115" filter="url(#softGlow)"/>
<circle cx="302" cy="965" r="1.9" fill="#bff7ff" opacity="0.096" filter="url(#softGlow)"/>
<circle cx="413" cy="924" r="1.6" fill="#bff7ff" opacity="0.066" filter="url(#softGlow)"/>
<circle cx="1483" cy="932" r="2.5" fill="#bff7ff" opacity="0.065" filter="url(#softGlow)"/>
<circle cx="1438" cy="728" r="2.1" fill="#bff7ff" opacity="0.182" filter="url(#softGlow)"/>
<circle cx="906" cy="541" r="3.2" fill="#bff7ff" opacity="0.181" filter="url(#softGlow)"/>
<circle cx="1082" cy="374" r="2.1" fill="#bff7ff" opacity="0.057" filter="url(#softGlow)"/>
<circle cx="381" cy="35" r="3.9" fill="#bff7ff" opacity="0.173" filter="url(#softGlow)"/>
<circle cx="1127" cy="32" r="1.6" fill="#bff7ff" opacity="0.038" filter="url(#softGlow)"/>
<circle cx="535" cy="656" r="4.2" fill="#bff7ff" opacity="0.124" filter="url(#softGlow)"/>
</svg>