<svg xmlns="http://www.w3.org/2000/svg" width="1920" height="1080" viewBox="0 0 1920 1080">
<defs>
<radialGradient id="spaceGlow" cx="52%" cy="56%" r="54%"><stop offset="0%" stop-color="#132a42"/><stop offset="38%" stop-color="#111630"/><stop offset="100%" stop-color="#030712"/></radialGradient>
<radialGradient id="robotBody" cx="40%" cy="24%" r="85%"><stop offset="0%" stop-color="#ffffff"/><stop offset="52%" stop-color="#dce9ff"/><stop offset="100%" stop-color="#93a6bd"/></radialGradient>
<radialGradient id="blueCore" cx="40%" cy="30%" r="70%"><stop offset="0%" stop-color="#8df4ff"/><stop offset="45%" stop-color="#4895ff"/><stop offset="100%" stop-color="#1a47ff"/></radialGradient>
<filter id="softGlow" x="-80%" y="-80%" width="260%" height="260%"><feGaussianBlur stdDeviation="16" result="blur"/><feMerge><feMergeNode in="blur"/><feMergeNode in="SourceGraphic"/></feMerge></filter>
<filter id="wideGlow" x="-120%" y="-120%" width="340%" height="340%"><feGaussianBlur stdDeviation="34" result="blur"/><feMerge><feMergeNode in="blur"/><feMergeNode in="SourceGraphic"/></feMerge></filter>
</defs>
<ellipse cx="960" cy="758.4" rx="271.3" ry="198.7" fill="none" stroke="#70d6ff" stroke-width="4" opacity="0.135" filter="url(#softGlow)"/>
<path d="M820 740 C770 700 770 825 825 795" stroke="#c4f4ff" stroke-width="10" opacity="0.189" fill="none" stroke-linecap="round" filter="url(#softGlow)"/>
<path d="M1098 724 C1162 686 1164 822 1098 794" stroke="#c4f4ff" stroke-width="10" opacity="0.291" fill="none" stroke-linecap="round" filter="url(#softGlow)"/>
<circle cx="795.2" cy="676.2" r="4.0" fill="#c8f7ff" opacity="0.280" filter="url(#softGlow)"/>
<circle cx="737.3" cy="787.2" r="5.0" fill="#c8f7ff" opacity="0.207" filter="url(#softGlow)"/>
<circle cx="769.2" cy="880.2" r="6.0" fill="#c8f7ff" opacity="0.139" filter="url(#softGlow)"/>
<circle cx="921.9" cy="941.5" r="7.0" fill="#c8f7ff" opacity="0.102" filter="url(#softGlow)"/>
<circle cx="1053.0" cy="865.5" r="4.0" fill="#c8f7ff" opacity="0.111" filter="url(#softGlow)"/>
<circle cx="1184.8" cy="761.7" r="5.0" fill="#c8f7ff" opacity="0.161" filter="url(#softGlow)"/>
<circle cx="1148.7" cy="659.7" r="6.0" fill="#c8f7ff" opacity="0.234" filter="url(#softGlow)"/>
<circle cx="1124.3" cy="586.2" r="7.0" fill="#c8f7ff" opacity="0.302" filter="url(#softGlow)"/>
<circle cx="1009.7" cy="650.3" r="4.0" fill="#c8f7ff" opacity="0.338" filter="url(#softGlow)"/>
<circle cx="879.7" cy="745.4" r="5.0" fill="#c8f7ff" opacity="0.329" filter="url(#softGlow)"/>


<g opacity="0.834" filter="url(#softGlow)">
  <line x1="897.8" y1="414.8" x2="1257.8" y2="285.2" stroke="#8cf6ff" stroke-width="8" stroke-linecap="round"/>
  <line x1="915.8" y1="408.8" x2="1407.8" y2="231.2" stroke="#ffffff" stroke-width="2" stroke-linecap="round" opacity="0.92"/>
</g>





<circle cx="1545" cy="924" r="1.7" fill="#bff7ff" opacity="0.089" filter="url(#softGlow)"/>
<circle cx="775" cy="132" r="3.2" fill="#bff7ff" opacity="0.128" filter="url(#softGlow)"/>
<circle cx="1022" cy="802" r="1.9" fill="#bff7ff" opacity="0.103" filter="url(#softGlow)"/>
<circle cx="1636" cy="495" r="3.2" fill="#bff7ff" opacity="0.120" filter="url(#softGlow)"/>
<circle cx="1334" cy="101" r="3.7" fill="#bff7ff" opacity="0.112" filter="url(#softGlow)"/>
<circle cx="302" cy="965" r="1.9" fill="#bff7ff" opacity="0.094" filter="url(#softGlow)"/>
<circle cx="413" cy="924" r="1.6" fill="#bff7ff" opacity="0.065" filter="url(#softGlow)"/>
<circle cx="1483" cy="932" r="2.5" fill="#bff7ff" opacity="0.063" filter="url(#softGlow)"/>
<circle cx="1438" cy="728" r="2.1" fill="#bff7ff" opacity="0.178" filter="url(#softGlow)"/>
<circle cx="906" cy="541" r="3.2" fill="#bff7ff" opacity="0.177" filter="url(#softGlow)"/>
<circle cx="1082" cy="374" r="2.1" fill="#bff7ff" opacity="0.055" filter="url(#softGlow)"/>
<circle cx="381" cy="35" r="3.9" fill="#bff7ff" opacity="0.169" filter="url(#softGlow)"/>
<circle cx="1127" cy="32" r="1.6" fill="#bff7ff" opacity="0.037" filter="url(#softGlow)"/>
<circle cx="535" cy="656" r="4.2" fill="#bff7ff" opacity="0.121" filter="url(#softGlow)"/>
</svg>