<svg xmlns="http://www.w3.org/2000/svg" width="1920" height="1080" viewBox="0 0 1920 1080">
<defs>
<radialGradient id="spaceGlow" cx="52%" cy="56%" r="54%"><stop offset="0%" stop-color="#132a42"/><stop offset="38%" stop-color="#111630"/><stop offset="100%" stop-color="#030712"/></radialGradient>
<radialGradient id="robotBody" cx="40%" cy="24%" r="85%"><stop offset="0%" stop-color="#ffffff"/><stop offset="52%" stop-color="#dce9ff"/><stop offset="100%" stop-color="#93a6bd"/></radialGradient>
<radialGradient id="blueCore" cx="40%" cy="30%" r="70%"><stop offset="0%" stop-color="#8df4ff"/><stop offset="45%" stop-color="#4895ff"/><stop offset="100%" stop-color="#1a47ff"/></radialGradient>
<filter id="softGlow" x="-80%" y="-80%" width="260%" height="260%"><feGaussianBlur stdDeviation="16" result="blur"/><feMerge><feMergeNode in="blur"/><feMergeNode in="SourceGraphic"/></feMerge></filter>
<filter id="wideGlow" x="-120%" y="-120%" width="340%" height="340%"><feGaussianBlur stdDeviation="34" result="blur"/><feMerge><feMergeNode in="blur"/><feMergeNode in="SourceGraphic"/></feMerge></filter>
</defs>
<ellipse cx="960" cy="759.6" rx="270.4" ry="198.2" fill="none" stroke="#70d6ff" stroke-width="4" opacity="0.132" filter="url(#softGlow)"/>
<path d="M820 740 C770 700 770 825 825 795" stroke="#c4f4ff" stroke-width="10" opacity="0.183" fill="none" stroke-linecap="round" filter="url(#softGlow)"/>
<path d="M1098 724 C1162 686 1164 822 1098 794" stroke="#c4f4ff" stroke-width="10" opacity="0.297" fill="none" stroke-linecap="round" filter="url(#softGlow)"/>
<circle cx="790.1" cy="684.6" r="4.0" fill="#c8f7ff" opacity="0.274" filter="url(#softGlow)"/>
<circle cx="739.1" cy="799.1" r="5.0" fill="#c8f7ff" opacity="0.200" filter="url(#softGlow)"/>
<circle cx="779.4" cy="886.4" r="6.0" fill="#c8f7ff" opacity="0.134" filter="url(#softGlow)"/>
<circle cx="932.5" cy="940.3" r="7.0" fill="#c8f7ff" opacity="0.101" filter="url(#softGlow)"/>
<circle cx="1064.3" cy="857.8" r="4.0" fill="#c8f7ff" opacity="0.114" filter="url(#softGlow)"/>
<circle cx="1191.6" cy="749.6" r="5.0" fill="#c8f7ff" opacity="0.167" filter="url(#softGlow)"/>
<circle cx="1147.1" cy="652.6" r="6.0" fill="#c8f7ff" opacity="0.241" filter="url(#softGlow)"/>
<circle cx="1115.5" cy="586.0" r="7.0" fill="#c8f7ff" opacity="0.306" filter="url(#softGlow)"/>
<circle cx="995.2" cy="657.2" r="4.0" fill="#c8f7ff" opacity="0.339" filter="url(#softGlow)"/>
<circle cx="870.1" cy="757.5" r="5.0" fill="#c8f7ff" opacity="0.326" filter="url(#softGlow)"/>


<g opacity="0.759" filter="url(#softGlow)">
  <line x1="888.6" y1="418.2" x2="1248.6" y2="288.6" stroke="#8cf6ff" stroke-width="8" stroke-linecap="round"/>
  <line x1="906.6" y1="412.2" x2="1398.6" y2="234.6" stroke="#ffffff" stroke-width="2" stroke-linecap="round" opacity="0.92"/>
</g>





<circle cx="1545" cy="924" r="1.7" fill="#bff7ff" opacity="0.087" filter="url(#softGlow)"/>
<circle cx="775" cy="132" r="3.2" fill="#bff7ff" opacity="0.125" filter="url(#softGlow)"/>
<circle cx="1022" cy="802" r="1.9" fill="#bff7ff" opacity="0.100" filter="url(#softGlow)"/>
<circle cx="1636" cy="495" r="3.2" fill="#bff7ff" opacity="0.117" filter="url(#softGlow)"/>
<circle cx="1334" cy="101" r="3.7" fill="#bff7ff" opacity="0.110" filter="url(#softGlow)"/>
<circle cx="302" cy="965" r="1.9" fill="#bff7ff" opacity="0.092" filter="url(#softGlow)"/>
<circle cx="413" cy="924" r="1.6" fill="#bff7ff" opacity="0.063" filter="url(#softGlow)"/>
<circle cx="1483" cy="932" r="2.5" fill="#bff7ff" opacity="0.062" filter="url(#softGlow)"/>
<circle cx="1438" cy="728" r="2.1" fill="#bff7ff" opacity="0.173" filter="url(#softGlow)"/>
<circle cx="906" cy="541" r="3.2" fill="#bff7ff" opacity="0.172" filter="url(#softGlow)"/>
<circle cx="1082" cy="374" r="2.1" fill="#bff7ff" opacity="0.054" filter="url(#softGlow)"/>
<circle cx="381" cy="35" r="3.9" fill="#bff7ff" opacity="0.165" filter="url(#softGlow)"/>
<circle cx="1127" cy="32" r="1.6" fill="#bff7ff" opacity="0.036" filter="url(#softGlow)"/>
<circle cx="535" cy="656" r="4.2" fill="#bff7ff" opacity="0.118" filter="url(#softGlow)"/>
</svg>