<svg xmlns="http://www.w3.org/2000/svg" width="1920" height="1080" viewBox="0 0 1920 1080">
<defs>
<radialGradient id="spaceGlow" cx="52%" cy="56%" r="54%"><stop offset="0%" stop-color="#132a42"/><stop offset="38%" stop-color="#111630"/><stop offset="100%" stop-color="#030712"/></radialGradient>
<radialGradient id="robotBody" cx="40%" cy="24%" r="85%"><stop offset="0%" stop-color="#ffffff"/><stop offset="52%" stop-color="#dce9ff"/><stop offset="100%" stop-color="#93a6bd"/></radialGradient>
<radialGradient id="blueCore" cx="40%" cy="30%" r="70%"><stop offset="0%" stop-color="#8df4ff"/><stop offset="45%" stop-color="#4895ff"/><stop offset="100%" stop-color="#1a47ff"/></radialGradient>
<filter id="softGlow" x="-80%" y="-80%" width="260%" height="260%"><feGaussianBlur stdDeviation="16" result="blur"/><feMerge><feMergeNode in="blur"/><feMergeNode in="SourceGraphic"/></feMerge></filter>
<filter id="wideGlow" x="-120%" y="-120%" width="340%" height="340%"><feGaussianBlur stdDeviation="34" result="blur"/><feMerge><feMergeNode in="blur"/><feMergeNode in="SourceGraphic"/></feMerge></filter>
</defs>
<ellipse cx="960" cy="760.9" rx="270.0" ry="198.0" fill="none" stroke="#70d6ff" stroke-width="4" opacity="0.130" filter="url(#softGlow)"/>
<path d="M820 740 C770 700 770 825 825 795" stroke="#c4f4ff" stroke-width="10" opacity="0.180" fill="none" stroke-linecap="round" filter="url(#softGlow)"/>
<path d="M1098 724 C1162 686 1164 822 1098 794" stroke="#c4f4ff" stroke-width="10" opacity="0.300" fill="none" stroke-linecap="round" filter="url(#softGlow)"/>
<circle cx="785.6" cy="693.5" r="4.0" fill="#c8f7ff" opacity="0.268" filter="url(#softGlow)"/>
<circle cx="741.5" cy="810.9" r="5.0" fill="#c8f7ff" opacity="0.194" filter="url(#softGlow)"/>
<circle cx="790.1" cy="892.0" r="6.0" fill="#c8f7ff" opacity="0.130" filter="url(#softGlow)"/>
<circle cx="943.2" cy="938.2" r="7.0" fill="#c8f7ff" opacity="0.100" filter="url(#softGlow)"/>
<circle cx="1075.4" cy="849.6" r="4.0" fill="#c8f7ff" opacity="0.117" filter="url(#softGlow)"/>
<circle cx="1197.7" cy="737.6" r="5.0" fill="#c8f7ff" opacity="0.173" filter="url(#softGlow)"/>
<circle cx="1145.0" cy="646.0" r="6.0" fill="#c8f7ff" opacity="0.247" filter="url(#softGlow)"/>
<circle cx="1106.1" cy="586.7" r="7.0" fill="#c8f7ff" opacity="0.311" filter="url(#softGlow)"/>
<circle cx="980.7" cy="664.6" r="4.0" fill="#c8f7ff" opacity="0.340" filter="url(#softGlow)"/>
<circle cx="860.7" cy="769.6" r="5.0" fill="#c8f7ff" opacity="0.322" filter="url(#softGlow)"/>


<g opacity="0.674" filter="url(#softGlow)">
  <line x1="881.7" y1="420.7" x2="1241.7" y2="291.1" stroke="#8cf6ff" stroke-width="8" stroke-linecap="round"/>
  <line x1="899.7" y1="414.7" x2="1391.7" y2="237.1" stroke="#ffffff" stroke-width="2" stroke-linecap="round" opacity="0.92"/>
</g>





<circle cx="1703" cy="784" r="3.2" fill="#bff7ff" opacity="0.146" filter="url(#softGlow)"/>
<circle cx="670" cy="766" r="2.0" fill="#bff7ff" opacity="0.155" filter="url(#softGlow)"/>
<circle cx="1807" cy="631" r="1.5" fill="#bff7ff" opacity="0.127" filter="url(#softGlow)"/>
<circle cx="1816" cy="246" r="1.5" fill="#bff7ff" opacity="0.123" filter="url(#softGlow)"/>
<circle cx="127" cy="562" r="2.1" fill="#bff7ff" opacity="0.079" filter="url(#softGlow)"/>
<circle cx="1184" cy="565" r="1.7" fill="#bff7ff" opacity="0.160" filter="url(#softGlow)"/>
<circle cx="1192" cy="828" r="2.7" fill="#bff7ff" opacity="0.131" filter="url(#softGlow)"/>
<circle cx="510" cy="517" r="1.8" fill="#bff7ff" opacity="0.182" filter="url(#softGlow)"/>
<circle cx="319" cy="732" r="2.1" fill="#bff7ff" opacity="0.103" filter="url(#softGlow)"/>
<circle cx="914" cy="510" r="2.6" fill="#bff7ff" opacity="0.065" filter="url(#softGlow)"/>
<circle cx="1079" cy="684" r="3.2" fill="#bff7ff" opacity="0.071" filter="url(#softGlow)"/>
<circle cx="248" cy="899" r="4.1" fill="#bff7ff" opacity="0.177" filter="url(#softGlow)"/>
<circle cx="341" cy="807" r="1.8" fill="#bff7ff" opacity="0.091" filter="url(#softGlow)"/>
<circle cx="607" cy="658" r="3.5" fill="#bff7ff" opacity="0.054" filter="url(#softGlow)"/>
</svg>