<svg xmlns="http://www.w3.org/2000/svg" width="1920" height="1080" viewBox="0 0 1920 1080">
<defs>
<radialGradient id="spaceGlow" cx="52%" cy="56%" r="54%"><stop offset="0%" stop-color="#132a42"/><stop offset="38%" stop-color="#111630"/><stop offset="100%" stop-color="#030712"/></radialGradient>
<radialGradient id="robotBody" cx="40%" cy="24%" r="85%"><stop offset="0%" stop-color="#ffffff"/><stop offset="52%" stop-color="#dce9ff"/><stop offset="100%" stop-color="#93a6bd"/></radialGradient>
<radialGradient id="blueCore" cx="40%" cy="30%" r="70%"><stop offset="0%" stop-color="#8df4ff"/><stop offset="45%" stop-color="#4895ff"/><stop offset="100%" stop-color="#1a47ff"/></radialGradient>
<filter id="softGlow" x="-80%" y="-80%" width="260%" height="260%"><feGaussianBlur stdDeviation="16" result="blur"/><feMerge><feMergeNode in="blur"/><feMergeNode in="SourceGraphic"/></feMerge></filter>
<filter id="wideGlow" x="-120%" y="-120%" width="340%" height="340%"><feGaussianBlur stdDeviation="34" result="blur"/><feMerge><feMergeNode in="blur"/><feMergeNode in="SourceGraphic"/></feMerge></filter>
</defs>
<ellipse cx="960" cy="763.4" rx="270.9" ry="198.5" fill="none" stroke="#70d6ff" stroke-width="4" opacity="0.134" filter="url(#softGlow)"/>
<path d="M820 740 C770 700 770 825 825 795" stroke="#c4f4ff" stroke-width="10" opacity="0.186" fill="none" stroke-linecap="round" filter="url(#softGlow)"/>
<path d="M1098 724 C1162 686 1164 822 1098 794" stroke="#c4f4ff" stroke-width="10" opacity="0.294" fill="none" stroke-linecap="round" filter="url(#softGlow)"/>
<circle cx="778.2" cy="712.1" r="4.0" fill="#c8f7ff" opacity="0.255" filter="url(#softGlow)"/>
<circle cx="748.5" cy="833.7" r="5.0" fill="#c8f7ff" opacity="0.181" filter="url(#softGlow)"/>
<circle cx="813.2" cy="901.4" r="6.0" fill="#c8f7ff" opacity="0.121" filter="url(#softGlow)"/>
<circle cx="964.7" cy="931.6" r="7.0" fill="#c8f7ff" opacity="0.100" filter="url(#softGlow)"/>
<circle cx="1096.4" cy="832.1" r="4.0" fill="#c8f7ff" opacity="0.125" filter="url(#softGlow)"/>
<circle cx="1207.5" cy="714.0" r="5.0" fill="#c8f7ff" opacity="0.186" filter="url(#softGlow)"/>
<circle cx="1138.9" cy="634.6" r="6.0" fill="#c8f7ff" opacity="0.260" filter="url(#softGlow)"/>
<circle cx="1085.9" cy="590.5" r="7.0" fill="#c8f7ff" opacity="0.319" filter="url(#softGlow)"/>
<circle cx="951.5" cy="680.7" r="4.0" fill="#c8f7ff" opacity="0.340" filter="url(#softGlow)"/>
<circle cx="843.1" cy="793.6" r="5.0" fill="#c8f7ff" opacity="0.315" filter="url(#softGlow)"/>


<g opacity="0.473" filter="url(#softGlow)">
  <line x1="873.5" y1="423.7" x2="1233.5" y2="294.1" stroke="#8cf6ff" stroke-width="8" stroke-linecap="round"/>
  <line x1="891.5" y1="417.7" x2="1383.5" y2="240.1" stroke="#ffffff" stroke-width="2" stroke-linecap="round" opacity="0.92"/>
</g>





<circle cx="1703" cy="784" r="3.2" fill="#bff7ff" opacity="0.136" filter="url(#softGlow)"/>
<circle cx="670" cy="766" r="2.0" fill="#bff7ff" opacity="0.145" filter="url(#softGlow)"/>
<circle cx="1807" cy="631" r="1.5" fill="#bff7ff" opacity="0.119" filter="url(#softGlow)"/>
<circle cx="1816" cy="246" r="1.5" fill="#bff7ff" opacity="0.114" filter="url(#softGlow)"/>
<circle cx="127" cy="562" r="2.1" fill="#bff7ff" opacity="0.074" filter="url(#softGlow)"/>
<circle cx="1184" cy="565" r="1.7" fill="#bff7ff" opacity="0.150" filter="url(#softGlow)"/>
<circle cx="1192" cy="828" r="2.7" fill="#bff7ff" opacity="0.122" filter="url(#softGlow)"/>
<circle cx="510" cy="517" r="1.8" fill="#bff7ff" opacity="0.170" filter="url(#softGlow)"/>
<circle cx="319" cy="732" r="2.1" fill="#bff7ff" opacity="0.096" filter="url(#softGlow)"/>
<circle cx="914" cy="510" r="2.6" fill="#bff7ff" opacity="0.061" filter="url(#softGlow)"/>
<circle cx="1079" cy="684" r="3.2" fill="#bff7ff" opacity="0.067" filter="url(#softGlow)"/>
<circle cx="248" cy="899" r="4.1" fill="#bff7ff" opacity="0.165" filter="url(#softGlow)"/>
<circle cx="341" cy="807" r="1.8" fill="#bff7ff" opacity="0.085" filter="url(#softGlow)"/>
<circle cx="607" cy="658" r="3.5" fill="#bff7ff" opacity="0.051" filter="url(#softGlow)"/>
</svg>