<svg xmlns="http://www.w3.org/2000/svg" width="1920" height="1080" viewBox="0 0 1920 1080">
<defs>
<radialGradient id="spaceGlow" cx="52%" cy="56%" r="54%"><stop offset="0%" stop-color="#132a42"/><stop offset="38%" stop-color="#111630"/><stop offset="100%" stop-color="#030712"/></radialGradient>
<radialGradient id="robotBody" cx="40%" cy="24%" r="85%"><stop offset="0%" stop-color="#ffffff"/><stop offset="52%" stop-color="#dce9ff"/><stop offset="100%" stop-color="#93a6bd"/></radialGradient>
<radialGradient id="blueCore" cx="40%" cy="30%" r="70%"><stop offset="0%" stop-color="#8df4ff"/><stop offset="45%" stop-color="#4895ff"/><stop offset="100%" stop-color="#1a47ff"/></radialGradient>
<filter id="softGlow" x="-80%" y="-80%" width="260%" height="260%"><feGaussianBlur stdDeviation="16" result="blur"/><feMerge><feMergeNode in="blur"/><feMergeNode in="SourceGraphic"/></feMerge></filter>
<filter id="wideGlow" x="-120%" y="-120%" width="340%" height="340%"><feGaussianBlur stdDeviation="34" result="blur"/><feMerge><feMergeNode in="blur"/><feMergeNode in="SourceGraphic"/></feMerge></filter>
</defs>
<ellipse cx="960" cy="764.6" rx="272.1" ry="199.2" fill="none" stroke="#70d6ff" stroke-width="4" opacity="0.138" filter="url(#softGlow)"/>
<path d="M820 740 C770 700 770 825 825 795" stroke="#c4f4ff" stroke-width="10" opacity="0.194" fill="none" stroke-linecap="round" filter="url(#softGlow)"/>
<path d="M1098 724 C1162 686 1164 822 1098 794" stroke="#c4f4ff" stroke-width="10" opacity="0.286" fill="none" stroke-linecap="round" filter="url(#softGlow)"/>
<circle cx="775.4" cy="721.7" r="4.0" fill="#c8f7ff" opacity="0.248" filter="url(#softGlow)"/>
<circle cx="753.0" cy="844.7" r="5.0" fill="#c8f7ff" opacity="0.174" filter="url(#softGlow)"/>
<circle cx="825.4" cy="905.2" r="6.0" fill="#c8f7ff" opacity="0.118" filter="url(#softGlow)"/>
<circle cx="975.4" cy="927.1" r="7.0" fill="#c8f7ff" opacity="0.100" filter="url(#softGlow)"/>
<circle cx="1106.2" cy="822.8" r="4.0" fill="#c8f7ff" opacity="0.129" filter="url(#softGlow)"/>
<circle cx="1211.2" cy="702.5" r="5.0" fill="#c8f7ff" opacity="0.193" filter="url(#softGlow)"/>
<circle cx="1135.0" cy="629.7" r="6.0" fill="#c8f7ff" opacity="0.267" filter="url(#softGlow)"/>
<circle cx="1075.2" cy="593.6" r="7.0" fill="#c8f7ff" opacity="0.323" filter="url(#softGlow)"/>
<circle cx="936.9" cy="689.4" r="4.0" fill="#c8f7ff" opacity="0.340" filter="url(#softGlow)"/>
<circle cx="834.8" cy="805.5" r="5.0" fill="#c8f7ff" opacity="0.310" filter="url(#softGlow)"/>


<g opacity="0.361" filter="url(#softGlow)">
  <line x1="871.5" y1="424.5" x2="1231.5" y2="294.9" stroke="#8cf6ff" stroke-width="8" stroke-linecap="round"/>
  <line x1="889.5" y1="418.5" x2="1381.5" y2="240.9" stroke="#ffffff" stroke-width="2" stroke-linecap="round" opacity="0.92"/>
</g>





<circle cx="849" cy="653" r="2.8" fill="#bff7ff" opacity="0.048" filter="url(#softGlow)"/>
<circle cx="779" cy="591" r="3.2" fill="#bff7ff" opacity="0.055" filter="url(#softGlow)"/>
<circle cx="407" cy="826" r="2.5" fill="#bff7ff" opacity="0.108" filter="url(#softGlow)"/>
<circle cx="740" cy="313" r="3.6" fill="#bff7ff" opacity="0.092" filter="url(#softGlow)"/>
<circle cx="814" cy="940" r="4.0" fill="#bff7ff" opacity="0.163" filter="url(#softGlow)"/>
<circle cx="1264" cy="103" r="3.0" fill="#bff7ff" opacity="0.102" filter="url(#softGlow)"/>
<circle cx="729" cy="849" r="2.0" fill="#bff7ff" opacity="0.111" filter="url(#softGlow)"/>
<circle cx="1325" cy="470" r="2.3" fill="#bff7ff" opacity="0.091" filter="url(#softGlow)"/>
<circle cx="1235" cy="299" r="4.0" fill="#bff7ff" opacity="0.115" filter="url(#softGlow)"/>
<circle cx="1590" cy="681" r="3.0" fill="#bff7ff" opacity="0.112" filter="url(#softGlow)"/>
<circle cx="321" cy="620" r="1.8" fill="#bff7ff" opacity="0.083" filter="url(#softGlow)"/>
<circle cx="1389" cy="320" r="3.9" fill="#bff7ff" opacity="0.051" filter="url(#softGlow)"/>
<circle cx="1612" cy="565" r="2.6" fill="#bff7ff" opacity="0.156" filter="url(#softGlow)"/>
<circle cx="550" cy="119" r="3.4" fill="#bff7ff" opacity="0.150" filter="url(#softGlow)"/>
</svg>