<svg xmlns="http://www.w3.org/2000/svg" width="1920" height="1080" viewBox="0 0 1920 1080">
<defs>
<radialGradient id="spaceGlow" cx="52%" cy="56%" r="54%"><stop offset="0%" stop-color="#132a42"/><stop offset="38%" stop-color="#111630"/><stop offset="100%" stop-color="#030712"/></radialGradient>
<radialGradient id="robotBody" cx="40%" cy="24%" r="85%"><stop offset="0%" stop-color="#ffffff"/><stop offset="52%" stop-color="#dce9ff"/><stop offset="100%" stop-color="#93a6bd"/></radialGradient>
<radialGradient id="blueCore" cx="40%" cy="30%" r="70%"><stop offset="0%" stop-color="#8df4ff"/><stop offset="45%" stop-color="#4895ff"/><stop offset="100%" stop-color="#1a47ff"/></radialGradient>
<filter id="softGlow" x="-80%" y="-80%" width="260%" height="260%"><feGaussianBlur stdDeviation="16" result="blur"/><feMerge><feMergeNode in="blur"/><feMergeNode in="SourceGraphic"/></feMerge></filter>
<filter id="wideGlow" x="-120%" y="-120%" width="340%" height="340%"><feGaussianBlur stdDeviation="34" result="blur"/><feMerge><feMergeNode in="blur"/><feMergeNode in="SourceGraphic"/></feMerge></filter>
</defs>
<ellipse cx="960" cy="767.0" rx="275.8" ry="201.2" fill="none" stroke="#70d6ff" stroke-width="4" opacity="0.153" filter="url(#softGlow)"/>
<path d="M820 740 C770 700 770 825 825 795" stroke="#c4f4ff" stroke-width="10" opacity="0.219" fill="none" stroke-linecap="round" filter="url(#softGlow)"/>
<path d="M1098 724 C1162 686 1164 822 1098 794" stroke="#c4f4ff" stroke-width="10" opacity="0.261" fill="none" stroke-linecap="round" filter="url(#softGlow)"/>
<circle cx="771.5" cy="741.7" r="4.0" fill="#c8f7ff" opacity="0.235" filter="url(#softGlow)"/>
<circle cx="764.0" cy="865.5" r="5.0" fill="#c8f7ff" opacity="0.162" filter="url(#softGlow)"/>
<circle cx="851.2" cy="910.8" r="6.0" fill="#c8f7ff" opacity="0.111" filter="url(#softGlow)"/>
<circle cx="996.7" cy="916.0" r="7.0" fill="#c8f7ff" opacity="0.102" filter="url(#softGlow)"/>
<circle cx="1124.5" cy="803.6" r="4.0" fill="#c8f7ff" opacity="0.139" filter="url(#softGlow)"/>
<circle cx="1216.3" cy="680.4" r="5.0" fill="#c8f7ff" opacity="0.206" filter="url(#softGlow)"/>
<circle cx="1125.5" cy="621.9" r="6.0" fill="#c8f7ff" opacity="0.279" filter="url(#softGlow)"/>
<circle cx="1052.8" cy="602.2" r="7.0" fill="#c8f7ff" opacity="0.329" filter="url(#softGlow)"/>
<circle cx="908.0" cy="707.7" r="4.0" fill="#c8f7ff" opacity="0.338" filter="url(#softGlow)"/>
<circle cx="819.4" cy="828.6" r="5.0" fill="#c8f7ff" opacity="0.301" filter="url(#softGlow)"/>


<g opacity="0.123" filter="url(#softGlow)">
  <line x1="870.1" y1="425.0" x2="1230.1" y2="295.4" stroke="#8cf6ff" stroke-width="8" stroke-linecap="round"/>
  <line x1="888.1" y1="419.0" x2="1380.1" y2="241.4" stroke="#ffffff" stroke-width="2" stroke-linecap="round" opacity="0.92"/>
</g>





<circle cx="849" cy="653" r="2.8" fill="#bff7ff" opacity="0.044" filter="url(#softGlow)"/>
<circle cx="779" cy="591" r="3.2" fill="#bff7ff" opacity="0.051" filter="url(#softGlow)"/>
<circle cx="407" cy="826" r="2.5" fill="#bff7ff" opacity="0.098" filter="url(#softGlow)"/>
<circle cx="740" cy="313" r="3.6" fill="#bff7ff" opacity="0.085" filter="url(#softGlow)"/>
<circle cx="814" cy="940" r="4.0" fill="#bff7ff" opacity="0.149" filter="url(#softGlow)"/>
<circle cx="1264" cy="103" r="3.0" fill="#bff7ff" opacity="0.094" filter="url(#softGlow)"/>
<circle cx="729" cy="849" r="2.0" fill="#bff7ff" opacity="0.102" filter="url(#softGlow)"/>
<circle cx="1325" cy="470" r="2.3" fill="#bff7ff" opacity="0.083" filter="url(#softGlow)"/>
<circle cx="1235" cy="299" r="4.0" fill="#bff7ff" opacity="0.105" filter="url(#softGlow)"/>
<circle cx="1590" cy="681" r="3.0" fill="#bff7ff" opacity="0.102" filter="url(#softGlow)"/>
<circle cx="321" cy="620" r="1.8" fill="#bff7ff" opacity="0.076" filter="url(#softGlow)"/>
<circle cx="1389" cy="320" r="3.9" fill="#bff7ff" opacity="0.046" filter="url(#softGlow)"/>
<circle cx="1612" cy="565" r="2.6" fill="#bff7ff" opacity="0.142" filter="url(#softGlow)"/>
<circle cx="550" cy="119" r="3.4" fill="#bff7ff" opacity="0.137" filter="url(#softGlow)"/>
</svg>