<svg xmlns="http://www.w3.org/2000/svg" width="1920" height="1080" viewBox="0 0 1920 1080">
<defs>
<radialGradient id="spaceGlow" cx="52%" cy="56%" r="54%"><stop offset="0%" stop-color="#132a42"/><stop offset="38%" stop-color="#111630"/><stop offset="100%" stop-color="#030712"/></radialGradient>
<radialGradient id="robotBody" cx="40%" cy="24%" r="85%"><stop offset="0%" stop-color="#ffffff"/><stop offset="52%" stop-color="#dce9ff"/><stop offset="100%" stop-color="#93a6bd"/></radialGradient>
<radialGradient id="blueCore" cx="40%" cy="30%" r="70%"><stop offset="0%" stop-color="#8df4ff"/><stop offset="45%" stop-color="#4895ff"/><stop offset="100%" stop-color="#1a47ff"/></radialGradient>
<filter id="softGlow" x="-80%" y="-80%" width="260%" height="260%"><feGaussianBlur stdDeviation="16" result="blur"/><feMerge><feMergeNode in="blur"/><feMergeNode in="SourceGraphic"/></feMerge></filter>
<filter id="wideGlow" x="-120%" y="-120%" width="340%" height="340%"><feGaussianBlur stdDeviation="34" result="blur"/><feMerge><feMergeNode in="blur"/><feMergeNode in="SourceGraphic"/></feMerge></filter>
</defs>
<ellipse cx="960" cy="769.3" rx="280.2" ry="203.7" fill="none" stroke="#70d6ff" stroke-width="4" opacity="0.170" filter="url(#softGlow)"/>
<path d="M820 740 C770 700 770 825 825 795" stroke="#c4f4ff" stroke-width="10" opacity="0.248" fill="none" stroke-linecap="round" filter="url(#softGlow)"/>
<path d="M1098 724 C1162 686 1164 822 1098 794" stroke="#c4f4ff" stroke-width="10" opacity="0.232" fill="none" stroke-linecap="round" filter="url(#softGlow)"/>
<circle cx="770.0" cy="762.0" r="4.0" fill="#c8f7ff" opacity="0.221" filter="url(#softGlow)"/>
<circle cx="777.5" cy="884.3" r="5.0" fill="#c8f7ff" opacity="0.150" filter="url(#softGlow)"/>
<circle cx="878.3" cy="913.6" r="6.0" fill="#c8f7ff" opacity="0.106" filter="url(#softGlow)"/>
<circle cx="1017.6" cy="902.0" r="7.0" fill="#c8f7ff" opacity="0.106" filter="url(#softGlow)"/>
<circle cx="1140.6" cy="783.6" r="4.0" fill="#c8f7ff" opacity="0.149" filter="url(#softGlow)"/>
<circle cx="1218.0" cy="659.9" r="5.0" fill="#c8f7ff" opacity="0.220" filter="url(#softGlow)"/>
<circle cx="1113.8" cy="616.7" r="6.0" fill="#c8f7ff" opacity="0.290" filter="url(#softGlow)"/>
<circle cx="1029.1" cy="613.8" r="7.0" fill="#c8f7ff" opacity="0.334" filter="url(#softGlow)"/>
<circle cx="879.7" cy="727.1" r="4.0" fill="#c8f7ff" opacity="0.334" filter="url(#softGlow)"/>
<circle cx="805.9" cy="850.5" r="5.0" fill="#c8f7ff" opacity="0.290" filter="url(#softGlow)"/>







<circle cx="611" cy="895" r="3.6" fill="#bff7ff" opacity="0.118" filter="url(#softGlow)"/>
<circle cx="302" cy="291" r="3.4" fill="#bff7ff" opacity="0.072" filter="url(#softGlow)"/>
<circle cx="1663" cy="167" r="3.8" fill="#bff7ff" opacity="0.094" filter="url(#softGlow)"/>
<circle cx="814" cy="924" r="2.6" fill="#bff7ff" opacity="0.127" filter="url(#softGlow)"/>
<circle cx="983" cy="975" r="3.4" fill="#bff7ff" opacity="0.137" filter="url(#softGlow)"/>
<circle cx="1709" cy="69" r="2.4" fill="#bff7ff" opacity="0.084" filter="url(#softGlow)"/>
<circle cx="1807" cy="331" r="2.3" fill="#bff7ff" opacity="0.032" filter="url(#softGlow)"/>
<circle cx="1078" cy="158" r="3.4" fill="#bff7ff" opacity="0.062" filter="url(#softGlow)"/>
<circle cx="1360" cy="901" r="3.8" fill="#bff7ff" opacity="0.092" filter="url(#softGlow)"/>
<circle cx="407" cy="588" r="1.9" fill="#bff7ff" opacity="0.054" filter="url(#softGlow)"/>
<circle cx="1090" cy="1004" r="2.9" fill="#bff7ff" opacity="0.041" filter="url(#softGlow)"/>
<circle cx="1276" cy="309" r="3.7" fill="#bff7ff" opacity="0.103" filter="url(#softGlow)"/>
<circle cx="276" cy="254" r="4.1" fill="#bff7ff" opacity="0.040" filter="url(#softGlow)"/>
<circle cx="688" cy="907" r="2.4" fill="#bff7ff" opacity="0.112" filter="url(#softGlow)"/>
</svg>