<svg xmlns="http://www.w3.org/2000/svg" width="1920" height="1080" viewBox="0 0 1920 1080">
<defs>
<radialGradient id="spaceGlow" cx="52%" cy="56%" r="54%"><stop offset="0%" stop-color="#132a42"/><stop offset="38%" stop-color="#111630"/><stop offset="100%" stop-color="#030712"/></radialGradient>
<radialGradient id="robotBody" cx="40%" cy="24%" r="85%"><stop offset="0%" stop-color="#ffffff"/><stop offset="52%" stop-color="#dce9ff"/><stop offset="100%" stop-color="#93a6bd"/></radialGradient>
<radialGradient id="blueCore" cx="40%" cy="30%" r="70%"><stop offset="0%" stop-color="#8df4ff"/><stop offset="45%" stop-color="#4895ff"/><stop offset="100%" stop-color="#1a47ff"/></radialGradient>
<filter id="softGlow" x="-80%" y="-80%" width="260%" height="260%"><feGaussianBlur stdDeviation="16" result="blur"/><feMerge><feMergeNode in="blur"/><feMergeNode in="SourceGraphic"/></feMerge></filter>
<filter id="wideGlow" x="-120%" y="-120%" width="340%" height="340%"><feGaussianBlur stdDeviation="34" result="blur"/><feMerge><feMergeNode in="blur"/><feMergeNode in="SourceGraphic"/></feMerge></filter>
</defs>
<ellipse cx="960" cy="772.3" rx="286.0" ry="206.9" fill="none" stroke="#70d6ff" stroke-width="4" opacity="0.192" filter="url(#softGlow)"/>
<path d="M820 740 C770 700 770 825 825 795" stroke="#c4f4ff" stroke-width="10" opacity="0.286" fill="none" stroke-linecap="round" filter="url(#softGlow)"/>
<path d="M1098 724 C1162 686 1164 822 1098 794" stroke="#c4f4ff" stroke-width="10" opacity="0.194" fill="none" stroke-linecap="round" filter="url(#softGlow)"/>
<circle cx="772.4" cy="792.4" r="4.0" fill="#c8f7ff" opacity="0.201" filter="url(#softGlow)"/>
<circle cx="802.1" cy="908.4" r="5.0" fill="#c8f7ff" opacity="0.135" filter="url(#softGlow)"/>
<circle cx="920.9" cy="912.7" r="6.0" fill="#c8f7ff" opacity="0.101" filter="url(#softGlow)"/>
<circle cx="1047.4" cy="876.4" r="7.0" fill="#c8f7ff" opacity="0.113" filter="url(#softGlow)"/>
<circle cx="1160.4" cy="753.1" r="4.0" fill="#c8f7ff" opacity="0.166" filter="url(#softGlow)"/>
<circle cx="1214.4" cy="632.8" r="5.0" fill="#c8f7ff" opacity="0.240" filter="url(#softGlow)"/>
<circle cx="1092.8" cy="614.0" r="6.0" fill="#c8f7ff" opacity="0.306" filter="url(#softGlow)"/>
<circle cx="992.1" cy="636.2" r="7.0" fill="#c8f7ff" opacity="0.339" filter="url(#softGlow)"/>
<circle cx="839.4" cy="757.3" r="4.0" fill="#c8f7ff" opacity="0.326" filter="url(#softGlow)"/>
<circle cx="789.3" cy="880.2" r="5.0" fill="#c8f7ff" opacity="0.273" filter="url(#softGlow)"/>







<circle cx="363" cy="982" r="2.9" fill="#bff7ff" opacity="0.075" filter="url(#softGlow)"/>
<circle cx="750" cy="661" r="2.7" fill="#bff7ff" opacity="0.060" filter="url(#softGlow)"/>
<circle cx="1062" cy="167" r="3.3" fill="#bff7ff" opacity="0.103" filter="url(#softGlow)"/>
<circle cx="1557" cy="513" r="2.1" fill="#bff7ff" opacity="0.034" filter="url(#softGlow)"/>
<circle cx="1762" cy="312" r="4.1" fill="#bff7ff" opacity="0.071" filter="url(#softGlow)"/>
<circle cx="565" cy="572" r="2.3" fill="#bff7ff" opacity="0.072" filter="url(#softGlow)"/>
<circle cx="519" cy="514" r="3.7" fill="#bff7ff" opacity="0.108" filter="url(#softGlow)"/>
<circle cx="1716" cy="322" r="3.6" fill="#bff7ff" opacity="0.052" filter="url(#softGlow)"/>
<circle cx="1171" cy="72" r="3.8" fill="#bff7ff" opacity="0.072" filter="url(#softGlow)"/>
<circle cx="529" cy="109" r="2.1" fill="#bff7ff" opacity="0.085" filter="url(#softGlow)"/>
<circle cx="1633" cy="289" r="3.5" fill="#bff7ff" opacity="0.099" filter="url(#softGlow)"/>
<circle cx="946" cy="968" r="2.8" fill="#bff7ff" opacity="0.107" filter="url(#softGlow)"/>
<circle cx="441" cy="545" r="2.9" fill="#bff7ff" opacity="0.030" filter="url(#softGlow)"/>
<circle cx="1779" cy="858" r="3.7" fill="#bff7ff" opacity="0.042" filter="url(#softGlow)"/>
</svg>