<svg xmlns="http://www.w3.org/2000/svg" width="1920" height="1080" viewBox="0 0 1920 1080">
<defs>
<radialGradient id="spaceGlow" cx="52%" cy="56%" r="54%"><stop offset="0%" stop-color="#132a42"/><stop offset="38%" stop-color="#111630"/><stop offset="100%" stop-color="#030712"/></radialGradient>
<radialGradient id="robotBody" cx="40%" cy="24%" r="85%"><stop offset="0%" stop-color="#ffffff"/><stop offset="52%" stop-color="#dce9ff"/><stop offset="100%" stop-color="#93a6bd"/></radialGradient>
<radialGradient id="blueCore" cx="40%" cy="30%" r="70%"><stop offset="0%" stop-color="#8df4ff"/><stop offset="45%" stop-color="#4895ff"/><stop offset="100%" stop-color="#1a47ff"/></radialGradient>
<filter id="softGlow" x="-80%" y="-80%" width="260%" height="260%"><feGaussianBlur stdDeviation="16" result="blur"/><feMerge><feMergeNode in="blur"/><feMergeNode in="SourceGraphic"/></feMerge></filter>
<filter id="wideGlow" x="-120%" y="-120%" width="340%" height="340%"><feGaussianBlur stdDeviation="34" result="blur"/><feMerge><feMergeNode in="blur"/><feMergeNode in="SourceGraphic"/></feMerge></filter>
</defs>
<ellipse cx="960" cy="775.4" rx="287.6" ry="207.8" fill="none" stroke="#70d6ff" stroke-width="4" opacity="0.198" filter="url(#softGlow)"/>
<path d="M820 740 C770 700 770 825 825 795" stroke="#c4f4ff" stroke-width="10" opacity="0.297" fill="none" stroke-linecap="round" filter="url(#softGlow)"/>
<path d="M1098 724 C1162 686 1164 822 1098 794" stroke="#c4f4ff" stroke-width="10" opacity="0.183" fill="none" stroke-linecap="round" filter="url(#softGlow)"/>
<circle cx="783.9" cy="830.9" r="4.0" fill="#c8f7ff" opacity="0.175" filter="url(#softGlow)"/>
<circle cx="841.9" cy="931.1" r="5.0" fill="#c8f7ff" opacity="0.118" filter="url(#softGlow)"/>
<circle cx="979.2" cy="901.9" r="6.0" fill="#c8f7ff" opacity="0.100" filter="url(#softGlow)"/>
<circle cx="1083.1" cy="835.1" r="7.0" fill="#c8f7ff" opacity="0.129" filter="url(#softGlow)"/>
<circle cx="1177.8" cy="713.3" r="4.0" fill="#c8f7ff" opacity="0.192" filter="url(#softGlow)"/>
<circle cx="1198.3" cy="605.3" r="5.0" fill="#c8f7ff" opacity="0.266" filter="url(#softGlow)"/>
<circle cx="1058.8" cy="620.1" r="6.0" fill="#c8f7ff" opacity="0.322" filter="url(#softGlow)"/>
<circle cx="941.4" cy="674.2" r="7.0" fill="#c8f7ff" opacity="0.340" filter="url(#softGlow)"/>
<circle cx="791.2" cy="797.8" r="4.0" fill="#c8f7ff" opacity="0.311" filter="url(#softGlow)"/>
<circle cx="774.9" cy="912.2" r="5.0" fill="#c8f7ff" opacity="0.247" filter="url(#softGlow)"/>







<circle cx="1590" cy="418" r="1.6" fill="#bff7ff" opacity="0.050" filter="url(#softGlow)"/>
<circle cx="182" cy="693" r="2.0" fill="#bff7ff" opacity="0.029" filter="url(#softGlow)"/>
<circle cx="1152" cy="644" r="2.6" fill="#bff7ff" opacity="0.044" filter="url(#softGlow)"/>
<circle cx="688" cy="699" r="3.4" fill="#bff7ff" opacity="0.057" filter="url(#softGlow)"/>
<circle cx="516" cy="591" r="2.7" fill="#bff7ff" opacity="0.051" filter="url(#softGlow)"/>
<circle cx="307" cy="50" r="2.4" fill="#bff7ff" opacity="0.070" filter="url(#softGlow)"/>
<circle cx="1054" cy="709" r="3.4" fill="#bff7ff" opacity="0.048" filter="url(#softGlow)"/>
<circle cx="524" cy="844" r="2.3" fill="#bff7ff" opacity="0.019" filter="url(#softGlow)"/>
<circle cx="1661" cy="714" r="1.5" fill="#bff7ff" opacity="0.027" filter="url(#softGlow)"/>
<circle cx="701" cy="79" r="3.1" fill="#bff7ff" opacity="0.029" filter="url(#softGlow)"/>
<circle cx="469" cy="730" r="3.5" fill="#bff7ff" opacity="0.046" filter="url(#softGlow)"/>
<circle cx="1420" cy="560" r="2.2" fill="#bff7ff" opacity="0.064" filter="url(#softGlow)"/>
<circle cx="1548" cy="355" r="1.5" fill="#bff7ff" opacity="0.051" filter="url(#softGlow)"/>
<circle cx="846" cy="151" r="2.6" fill="#bff7ff" opacity="0.077" filter="url(#softGlow)"/>
</svg>