<svg xmlns="http://www.w3.org/2000/svg" width="1920" height="1080" viewBox="0 0 1920 1080">
<defs>
<radialGradient id="spaceGlow" cx="52%" cy="56%" r="54%"><stop offset="0%" stop-color="#132a42"/><stop offset="38%" stop-color="#111630"/><stop offset="100%" stop-color="#030712"/></radialGradient>
<radialGradient id="robotBody" cx="40%" cy="24%" r="85%"><stop offset="0%" stop-color="#ffffff"/><stop offset="52%" stop-color="#dce9ff"/><stop offset="100%" stop-color="#93a6bd"/></radialGradient>
<radialGradient id="blueCore" cx="40%" cy="30%" r="70%"><stop offset="0%" stop-color="#8df4ff"/><stop offset="45%" stop-color="#4895ff"/><stop offset="100%" stop-color="#1a47ff"/></radialGradient>
<filter id="softGlow" x="-80%" y="-80%" width="260%" height="260%"><feGaussianBlur stdDeviation="16" result="blur"/><feMerge><feMergeNode in="blur"/><feMergeNode in="SourceGraphic"/></feMerge></filter>
<filter id="wideGlow" x="-120%" y="-120%" width="340%" height="340%"><feGaussianBlur stdDeviation="34" result="blur"/><feMerge><feMergeNode in="blur"/><feMergeNode in="SourceGraphic"/></feMerge></filter>
</defs>
<ellipse cx="960" cy="776.6" rx="285.2" ry="206.4" fill="none" stroke="#70d6ff" stroke-width="4" opacity="0.189" filter="url(#softGlow)"/>
<path d="M820 740 C770 700 770 825 825 795" stroke="#c4f4ff" stroke-width="10" opacity="0.281" fill="none" stroke-linecap="round" filter="url(#softGlow)"/>
<path d="M1098 724 C1162 686 1164 822 1098 794" stroke="#c4f4ff" stroke-width="10" opacity="0.199" fill="none" stroke-linecap="round" filter="url(#softGlow)"/>
<circle cx="793.1" cy="848.5" r="4.0" fill="#c8f7ff" opacity="0.163" filter="url(#softGlow)"/>
<circle cx="864.2" cy="937.9" r="5.0" fill="#c8f7ff" opacity="0.112" filter="url(#softGlow)"/>
<circle cx="1008.2" cy="892.7" r="6.0" fill="#c8f7ff" opacity="0.102" filter="url(#softGlow)"/>
<circle cx="1098.6" cy="812.4" r="7.0" fill="#c8f7ff" opacity="0.138" filter="url(#softGlow)"/>
<circle cx="1182.3" cy="694.6" r="4.0" fill="#c8f7ff" opacity="0.205" filter="url(#softGlow)"/>
<circle cx="1185.5" cy="595.8" r="5.0" fill="#c8f7ff" opacity="0.278" filter="url(#softGlow)"/>
<circle cx="1039.8" cy="627.2" r="6.0" fill="#c8f7ff" opacity="0.329" filter="url(#softGlow)"/>
<circle cx="916.3" cy="695.9" r="7.0" fill="#c8f7ff" opacity="0.338" filter="url(#softGlow)"/>
<circle cx="770.3" cy="817.3" r="4.0" fill="#c8f7ff" opacity="0.301" filter="url(#softGlow)"/>
<circle cx="771.2" cy="924.2" r="5.0" fill="#c8f7ff" opacity="0.234" filter="url(#softGlow)"/>







<circle cx="716" cy="605" r="3.3" fill="#bff7ff" opacity="0.065" filter="url(#softGlow)"/>
<circle cx="780" cy="705" r="2.5" fill="#bff7ff" opacity="0.028" filter="url(#softGlow)"/>
<circle cx="842" cy="773" r="2.6" fill="#bff7ff" opacity="0.038" filter="url(#softGlow)"/>
<circle cx="331" cy="440" r="1.9" fill="#bff7ff" opacity="0.060" filter="url(#softGlow)"/>
<circle cx="585" cy="638" r="1.8" fill="#bff7ff" opacity="0.063" filter="url(#softGlow)"/>
<circle cx="630" cy="56" r="4.0" fill="#bff7ff" opacity="0.063" filter="url(#softGlow)"/>
<circle cx="827" cy="861" r="3.4" fill="#bff7ff" opacity="0.027" filter="url(#softGlow)"/>
<circle cx="1225" cy="109" r="2.9" fill="#bff7ff" opacity="0.014" filter="url(#softGlow)"/>
<circle cx="183" cy="371" r="2.5" fill="#bff7ff" opacity="0.015" filter="url(#softGlow)"/>
<circle cx="786" cy="981" r="3.4" fill="#bff7ff" opacity="0.028" filter="url(#softGlow)"/>
<circle cx="131" cy="700" r="3.5" fill="#bff7ff" opacity="0.028" filter="url(#softGlow)"/>
<circle cx="1495" cy="742" r="2.1" fill="#bff7ff" opacity="0.031" filter="url(#softGlow)"/>
<circle cx="1716" cy="952" r="1.6" fill="#bff7ff" opacity="0.034" filter="url(#softGlow)"/>
<circle cx="1697" cy="925" r="2.3" fill="#bff7ff" opacity="0.051" filter="url(#softGlow)"/>
</svg>