<svg xmlns="http://www.w3.org/2000/svg" width="1920" height="1080" viewBox="0 0 1920 1080">
<defs>
<radialGradient id="spaceGlow" cx="52%" cy="56%" r="54%"><stop offset="0%" stop-color="#132a42"/><stop offset="38%" stop-color="#111630"/><stop offset="100%" stop-color="#030712"/></radialGradient>
<radialGradient id="robotBody" cx="40%" cy="24%" r="85%"><stop offset="0%" stop-color="#ffffff"/><stop offset="52%" stop-color="#dce9ff"/><stop offset="100%" stop-color="#93a6bd"/></radialGradient>
<radialGradient id="blueCore" cx="40%" cy="30%" r="70%"><stop offset="0%" stop-color="#8df4ff"/><stop offset="45%" stop-color="#4895ff"/><stop offset="100%" stop-color="#1a47ff"/></radialGradient>
<filter id="softGlow" x="-80%" y="-80%" width="260%" height="260%"><feGaussianBlur stdDeviation="16" result="blur"/><feMerge><feMergeNode in="blur"/><feMergeNode in="SourceGraphic"/></feMerge></filter>
<filter id="wideGlow" x="-120%" y="-120%" width="340%" height="340%"><feGaussianBlur stdDeviation="34" result="blur"/><feMerge><feMergeNode in="blur"/><feMergeNode in="SourceGraphic"/></feMerge></filter>
</defs>
<ellipse cx="960" cy="777.7" rx="279.1" ry="203.0" fill="none" stroke="#70d6ff" stroke-width="4" opacity="0.165" filter="url(#softGlow)"/>
<path d="M820 740 C770 700 770 825 825 795" stroke="#c4f4ff" stroke-width="10" opacity="0.240" fill="none" stroke-linecap="round" filter="url(#softGlow)"/>
<path d="M1098 724 C1162 686 1164 822 1098 794" stroke="#c4f4ff" stroke-width="10" opacity="0.240" fill="none" stroke-linecap="round" filter="url(#softGlow)"/>
<circle cx="810.9" cy="871.9" r="4.0" fill="#c8f7ff" opacity="0.146" filter="url(#softGlow)"/>
<circle cx="899.8" cy="942.0" r="5.0" fill="#c8f7ff" opacity="0.104" filter="url(#softGlow)"/>
<circle cx="1050.4" cy="874.4" r="6.0" fill="#c8f7ff" opacity="0.108" filter="url(#softGlow)"/>
<circle cx="1118.6" cy="776.7" r="7.0" fill="#c8f7ff" opacity="0.154" filter="url(#softGlow)"/>
<circle cx="1183.8" cy="669.1" r="4.0" fill="#c8f7ff" opacity="0.226" filter="url(#softGlow)"/>
<circle cx="1161.1" cy="587.5" r="5.0" fill="#c8f7ff" opacity="0.295" filter="url(#softGlow)"/>
<circle cx="1009.5" cy="642.4" r="6.0" fill="#c8f7ff" opacity="0.336" filter="url(#softGlow)"/>
<circle cx="879.8" cy="730.6" r="7.0" fill="#c8f7ff" opacity="0.332" filter="url(#softGlow)"/>
<circle cx="743.4" cy="844.6" r="4.0" fill="#c8f7ff" opacity="0.285" filter="url(#softGlow)"/>
<circle cx="770.3" cy="936.6" r="5.0" fill="#c8f7ff" opacity="0.213" filter="url(#softGlow)"/>







<circle cx="1736" cy="132" r="2.6" fill="#bff7ff" opacity="0.027" filter="url(#softGlow)"/>
<circle cx="868" cy="933" r="3.5" fill="#bff7ff" opacity="0.028" filter="url(#softGlow)"/>
<circle cx="1217" cy="402" r="2.2" fill="#bff7ff" opacity="0.033" filter="url(#softGlow)"/>
<circle cx="1433" cy="302" r="4.0" fill="#bff7ff" opacity="0.011" filter="url(#softGlow)"/>
<circle cx="1230" cy="66" r="3.5" fill="#bff7ff" opacity="0.011" filter="url(#softGlow)"/>
<circle cx="1182" cy="433" r="2.1" fill="#bff7ff" opacity="0.028" filter="url(#softGlow)"/>
<circle cx="1712" cy="982" r="1.7" fill="#bff7ff" opacity="0.049" filter="url(#softGlow)"/>
<circle cx="473" cy="717" r="3.4" fill="#bff7ff" opacity="0.044" filter="url(#softGlow)"/>
<circle cx="584" cy="963" r="3.2" fill="#bff7ff" opacity="0.031" filter="url(#softGlow)"/>
<circle cx="1247" cy="414" r="2.4" fill="#bff7ff" opacity="0.051" filter="url(#softGlow)"/>
<circle cx="960" cy="312" r="2.5" fill="#bff7ff" opacity="0.014" filter="url(#softGlow)"/>
<circle cx="365" cy="440" r="2.1" fill="#bff7ff" opacity="0.026" filter="url(#softGlow)"/>
<circle cx="1126" cy="845" r="3.3" fill="#bff7ff" opacity="0.049" filter="url(#softGlow)"/>
<circle cx="1812" cy="473" r="1.5" fill="#bff7ff" opacity="0.041" filter="url(#softGlow)"/>
</svg>