<svg xmlns="http://www.w3.org/2000/svg" width="1920" height="1080" viewBox="0 0 1920 1080">
<defs>
<radialGradient id="spaceGlow" cx="52%" cy="56%" r="54%"><stop offset="0%" stop-color="#132a42"/><stop offset="38%" stop-color="#111630"/><stop offset="100%" stop-color="#030712"/></radialGradient>
<radialGradient id="robotBody" cx="40%" cy="24%" r="85%"><stop offset="0%" stop-color="#ffffff"/><stop offset="52%" stop-color="#dce9ff"/><stop offset="100%" stop-color="#93a6bd"/></radialGradient>
<radialGradient id="blueCore" cx="40%" cy="30%" r="70%"><stop offset="0%" stop-color="#8df4ff"/><stop offset="45%" stop-color="#4895ff"/><stop offset="100%" stop-color="#1a47ff"/></radialGradient>
<filter id="softGlow" x="-80%" y="-80%" width="260%" height="260%"><feGaussianBlur stdDeviation="16" result="blur"/><feMerge><feMergeNode in="blur"/><feMergeNode in="SourceGraphic"/></feMerge></filter>
<filter id="wideGlow" x="-120%" y="-120%" width="340%" height="340%"><feGaussianBlur stdDeviation="34" result="blur"/><feMerge><feMergeNode in="blur"/><feMergeNode in="SourceGraphic"/></feMerge></filter>
</defs>
<ellipse cx="960" cy="778.0" rx="274.7" ry="200.6" fill="none" stroke="#70d6ff" stroke-width="4" opacity="0.148" filter="url(#softGlow)"/>
<path d="M820 740 C770 700 770 825 825 795" stroke="#c4f4ff" stroke-width="10" opacity="0.212" fill="none" stroke-linecap="round" filter="url(#softGlow)"/>
<path d="M1098 724 C1162 686 1164 822 1098 794" stroke="#c4f4ff" stroke-width="10" opacity="0.268" fill="none" stroke-linecap="round" filter="url(#softGlow)"/>
<circle cx="825.2" cy="885.0" r="4.0" fill="#c8f7ff" opacity="0.135" filter="url(#softGlow)"/>
<circle cx="924.6" cy="940.6" r="5.0" fill="#c8f7ff" opacity="0.102" filter="url(#softGlow)"/>
<circle cx="1077.1" cy="859.6" r="6.0" fill="#c8f7ff" opacity="0.113" filter="url(#softGlow)"/>
<circle cx="1129.4" cy="752.5" r="7.0" fill="#c8f7ff" opacity="0.166" filter="url(#softGlow)"/>
<circle cx="1181.1" cy="654.2" r="4.0" fill="#c8f7ff" opacity="0.239" filter="url(#softGlow)"/>
<circle cx="1141.5" cy="586.0" r="5.0" fill="#c8f7ff" opacity="0.305" filter="url(#softGlow)"/>
<circle cx="988.5" cy="655.5" r="6.0" fill="#c8f7ff" opacity="0.339" filter="url(#softGlow)"/>
<circle cx="856.6" cy="754.6" r="7.0" fill="#c8f7ff" opacity="0.326" filter="url(#softGlow)"/>
<circle cx="729.0" cy="861.0" r="4.0" fill="#c8f7ff" opacity="0.273" filter="url(#softGlow)"/>
<circle cx="772.7" cy="940.9" r="5.0" fill="#c8f7ff" opacity="0.200" filter="url(#softGlow)"/>







<circle cx="677" cy="191" r="2.4" fill="#bff7ff" opacity="0.031" filter="url(#softGlow)"/>
<circle cx="163" cy="445" r="1.6" fill="#bff7ff" opacity="0.026" filter="url(#softGlow)"/>
<circle cx="1167" cy="967" r="2.6" fill="#bff7ff" opacity="0.015" filter="url(#softGlow)"/>
<circle cx="1135" cy="408" r="3.1" fill="#bff7ff" opacity="0.019" filter="url(#softGlow)"/>
<circle cx="962" cy="514" r="3.6" fill="#bff7ff" opacity="0.034" filter="url(#softGlow)"/>
<circle cx="1316" cy="193" r="1.8" fill="#bff7ff" opacity="0.021" filter="url(#softGlow)"/>
<circle cx="1053" cy="200" r="1.5" fill="#bff7ff" opacity="0.018" filter="url(#softGlow)"/>
<circle cx="242" cy="458" r="2.4" fill="#bff7ff" opacity="0.019" filter="url(#softGlow)"/>
<circle cx="215" cy="467" r="1.8" fill="#bff7ff" opacity="0.038" filter="url(#softGlow)"/>
<circle cx="1801" cy="107" r="3.6" fill="#bff7ff" opacity="0.027" filter="url(#softGlow)"/>
<circle cx="257" cy="843" r="3.8" fill="#bff7ff" opacity="0.026" filter="url(#softGlow)"/>
<circle cx="1463" cy="769" r="2.8" fill="#bff7ff" opacity="0.039" filter="url(#softGlow)"/>
<circle cx="940" cy="210" r="2.7" fill="#bff7ff" opacity="0.014" filter="url(#softGlow)"/>
<circle cx="1187" cy="115" r="2.7" fill="#bff7ff" opacity="0.012" filter="url(#softGlow)"/>
</svg>