<svg xmlns="http://www.w3.org/2000/svg" width="1920" height="1080" viewBox="0 0 1920 1080">
<defs>
<radialGradient id="spaceGlow" cx="52%" cy="56%" r="54%"><stop offset="0%" stop-color="#132a42"/><stop offset="38%" stop-color="#111630"/><stop offset="100%" stop-color="#030712"/></radialGradient>
<radialGradient id="robotBody" cx="40%" cy="24%" r="85%"><stop offset="0%" stop-color="#ffffff"/><stop offset="52%" stop-color="#dce9ff"/><stop offset="100%" stop-color="#93a6bd"/></radialGradient>
<radialGradient id="blueCore" cx="40%" cy="30%" r="70%"><stop offset="0%" stop-color="#8df4ff"/><stop offset="45%" stop-color="#4895ff"/><stop offset="100%" stop-color="#1a47ff"/></radialGradient>
<filter id="softGlow" x="-80%" y="-80%" width="260%" height="260%"><feGaussianBlur stdDeviation="16" result="blur"/><feMerge><feMergeNode in="blur"/><feMergeNode in="SourceGraphic"/></feMerge></filter>
<filter id="wideGlow" x="-120%" y="-120%" width="340%" height="340%"><feGaussianBlur stdDeviation="34" result="blur"/><feMerge><feMergeNode in="blur"/><feMergeNode in="SourceGraphic"/></feMerge></filter>
</defs>
<ellipse cx="960" cy="778.0" rx="272.9" ry="199.6" fill="none" stroke="#70d6ff" stroke-width="4" opacity="0.141" filter="url(#softGlow)"/>
<path d="M820 740 C770 700 770 825 825 795" stroke="#c4f4ff" stroke-width="10" opacity="0.199" fill="none" stroke-linecap="round" filter="url(#softGlow)"/>
<path d="M1098 724 C1162 686 1164 822 1098 794" stroke="#c4f4ff" stroke-width="10" opacity="0.281" fill="none" stroke-linecap="round" filter="url(#softGlow)"/>
<circle cx="833.0" cy="890.7" r="4.0" fill="#c8f7ff" opacity="0.131" filter="url(#softGlow)"/>
<circle cx="937.2" cy="938.7" r="5.0" fill="#c8f7ff" opacity="0.101" filter="url(#softGlow)"/>
<circle cx="1090.0" cy="851.5" r="6.0" fill="#c8f7ff" opacity="0.116" filter="url(#softGlow)"/>
<circle cx="1134.0" cy="740.4" r="7.0" fill="#c8f7ff" opacity="0.172" filter="url(#softGlow)"/>
<circle cx="1178.7" cy="647.5" r="4.0" fill="#c8f7ff" opacity="0.246" filter="url(#softGlow)"/>
<circle cx="1130.8" cy="586.5" r="5.0" fill="#c8f7ff" opacity="0.310" filter="url(#softGlow)"/>
<circle cx="977.8" cy="662.8" r="6.0" fill="#c8f7ff" opacity="0.339" filter="url(#softGlow)"/>
<circle cx="845.5" cy="766.7" r="7.0" fill="#c8f7ff" opacity="0.323" filter="url(#softGlow)"/>
<circle cx="722.8" cy="868.6" r="4.0" fill="#c8f7ff" opacity="0.267" filter="url(#softGlow)"/>
<circle cx="774.8" cy="941.8" r="5.0" fill="#c8f7ff" opacity="0.193" filter="url(#softGlow)"/>







<circle cx="677" cy="191" r="2.4" fill="#bff7ff" opacity="0.028" filter="url(#softGlow)"/>
<circle cx="163" cy="445" r="1.6" fill="#bff7ff" opacity="0.023" filter="url(#softGlow)"/>
<circle cx="1167" cy="967" r="2.6" fill="#bff7ff" opacity="0.014" filter="url(#softGlow)"/>
<circle cx="1135" cy="408" r="3.1" fill="#bff7ff" opacity="0.017" filter="url(#softGlow)"/>
<circle cx="962" cy="514" r="3.6" fill="#bff7ff" opacity="0.031" filter="url(#softGlow)"/>
<circle cx="1316" cy="193" r="1.8" fill="#bff7ff" opacity="0.019" filter="url(#softGlow)"/>
<circle cx="1053" cy="200" r="1.5" fill="#bff7ff" opacity="0.016" filter="url(#softGlow)"/>
<circle cx="242" cy="458" r="2.4" fill="#bff7ff" opacity="0.017" filter="url(#softGlow)"/>
<circle cx="215" cy="467" r="1.8" fill="#bff7ff" opacity="0.034" filter="url(#softGlow)"/>
<circle cx="1801" cy="107" r="3.6" fill="#bff7ff" opacity="0.024" filter="url(#softGlow)"/>
<circle cx="257" cy="843" r="3.8" fill="#bff7ff" opacity="0.023" filter="url(#softGlow)"/>
<circle cx="1463" cy="769" r="2.8" fill="#bff7ff" opacity="0.035" filter="url(#softGlow)"/>
<circle cx="940" cy="210" r="2.7" fill="#bff7ff" opacity="0.013" filter="url(#softGlow)"/>
<circle cx="1187" cy="115" r="2.7" fill="#bff7ff" opacity="0.011" filter="url(#softGlow)"/>
</svg>