<svg xmlns="http://www.w3.org/2000/svg" width="1920" height="1080" viewBox="0 0 1920 1080">
<defs>
<radialGradient id="spaceGlow" cx="52%" cy="56%" r="54%"><stop offset="0%" stop-color="#132a42"/><stop offset="38%" stop-color="#111630"/><stop offset="100%" stop-color="#030712"/></radialGradient>
<radialGradient id="robotBody" cx="40%" cy="24%" r="85%"><stop offset="0%" stop-color="#ffffff"/><stop offset="52%" stop-color="#dce9ff"/><stop offset="100%" stop-color="#93a6bd"/></radialGradient>
<radialGradient id="blueCore" cx="40%" cy="30%" r="70%"><stop offset="0%" stop-color="#8df4ff"/><stop offset="45%" stop-color="#4895ff"/><stop offset="100%" stop-color="#1a47ff"/></radialGradient>
<filter id="softGlow" x="-80%" y="-80%" width="260%" height="260%"><feGaussianBlur stdDeviation="16" result="blur"/><feMerge><feMergeNode in="blur"/><feMergeNode in="SourceGraphic"/></feMerge></filter>
<filter id="wideGlow" x="-120%" y="-120%" width="340%" height="340%"><feGaussianBlur stdDeviation="34" result="blur"/><feMerge><feMergeNode in="blur"/><feMergeNode in="SourceGraphic"/></feMerge></filter>
</defs>
<ellipse cx="960" cy="777.8" rx="270.5" ry="198.3" fill="none" stroke="#70d6ff" stroke-width="4" opacity="0.132" filter="url(#softGlow)"/>
<path d="M820 740 C770 700 770 825 825 795" stroke="#c4f4ff" stroke-width="10" opacity="0.183" fill="none" stroke-linecap="round" filter="url(#softGlow)"/>
<path d="M1098 724 C1162 686 1164 822 1098 794" stroke="#c4f4ff" stroke-width="10" opacity="0.297" fill="none" stroke-linecap="round" filter="url(#softGlow)"/>
<circle cx="849.8" cy="900.4" r="4.0" fill="#c8f7ff" opacity="0.122" filter="url(#softGlow)"/>
<circle cx="962.5" cy="932.5" r="5.0" fill="#c8f7ff" opacity="0.100" filter="url(#softGlow)"/>
<circle cx="1114.3" cy="834.2" r="6.0" fill="#c8f7ff" opacity="0.124" filter="url(#softGlow)"/>
<circle cx="1141.5" cy="716.7" r="7.0" fill="#c8f7ff" opacity="0.185" filter="url(#softGlow)"/>
<circle cx="1171.9" cy="635.8" r="4.0" fill="#c8f7ff" opacity="0.259" filter="url(#softGlow)"/>
<circle cx="1107.9" cy="589.9" r="5.0" fill="#c8f7ff" opacity="0.318" filter="url(#softGlow)"/>
<circle cx="956.3" cy="678.7" r="6.0" fill="#c8f7ff" opacity="0.340" filter="url(#softGlow)"/>
<circle cx="824.5" cy="790.8" r="7.0" fill="#c8f7ff" opacity="0.316" filter="url(#softGlow)"/>
<circle cx="712.9" cy="882.2" r="4.0" fill="#c8f7ff" opacity="0.254" filter="url(#softGlow)"/>
<circle cx="780.8" cy="941.2" r="5.0" fill="#c8f7ff" opacity="0.180" filter="url(#softGlow)"/>



<g opacity="0.184" filter="url(#softGlow)">
  <line x1="1360.3" y1="224.9" x2="1650.3" y2="120.5" stroke="#d6a4ff" stroke-width="8" stroke-linecap="round"/>
  <line x1="1378.3" y1="218.9" x2="1800.3" y2="66.5" stroke="#ffffff" stroke-width="2" stroke-linecap="round" opacity="0.92"/>
</g>




<circle cx="565" cy="508" r="3.8" fill="#bff7ff" opacity="0.026" filter="url(#softGlow)"/>
<circle cx="261" cy="446" r="2.8" fill="#bff7ff" opacity="0.019" filter="url(#softGlow)"/>
<circle cx="796" cy="848" r="3.7" fill="#bff7ff" opacity="0.017" filter="url(#softGlow)"/>
<circle cx="1076" cy="38" r="4.1" fill="#bff7ff" opacity="0.007" filter="url(#softGlow)"/>
<circle cx="612" cy="156" r="3.5" fill="#bff7ff" opacity="0.021" filter="url(#softGlow)"/>
<circle cx="1152" cy="369" r="3.4" fill="#bff7ff" opacity="0.014" filter="url(#softGlow)"/>
<circle cx="1835" cy="680" r="2.1" fill="#bff7ff" opacity="0.009" filter="url(#softGlow)"/>
<circle cx="526" cy="787" r="2.6" fill="#bff7ff" opacity="0.027" filter="url(#softGlow)"/>
<circle cx="1479" cy="358" r="1.7" fill="#bff7ff" opacity="0.020" filter="url(#softGlow)"/>
<circle cx="115" cy="786" r="4.1" fill="#bff7ff" opacity="0.015" filter="url(#softGlow)"/>
<circle cx="1457" cy="274" r="1.6" fill="#bff7ff" opacity="0.019" filter="url(#softGlow)"/>
<circle cx="498" cy="94" r="1.9" fill="#bff7ff" opacity="0.013" filter="url(#softGlow)"/>
<circle cx="1203" cy="679" r="3.8" fill="#bff7ff" opacity="0.006" filter="url(#softGlow)"/>
<circle cx="601" cy="278" r="3.7" fill="#bff7ff" opacity="0.013" filter="url(#softGlow)"/>
</svg>