<svg xmlns="http://www.w3.org/2000/svg" width="1920" height="1080" viewBox="0 0 1920 1080">
<defs>
<radialGradient id="spaceGlow" cx="52%" cy="56%" r="54%"><stop offset="0%" stop-color="#132a42"/><stop offset="38%" stop-color="#111630"/><stop offset="100%" stop-color="#030712"/></radialGradient>
<radialGradient id="robotBody" cx="40%" cy="24%" r="85%"><stop offset="0%" stop-color="#ffffff"/><stop offset="52%" stop-color="#dce9ff"/><stop offset="100%" stop-color="#93a6bd"/></radialGradient>
<radialGradient id="blueCore" cx="40%" cy="30%" r="70%"><stop offset="0%" stop-color="#8df4ff"/><stop offset="45%" stop-color="#4895ff"/><stop offset="100%" stop-color="#1a47ff"/></radialGradient>
<filter id="softGlow" x="-80%" y="-80%" width="260%" height="260%"><feGaussianBlur stdDeviation="16" result="blur"/><feMerge><feMergeNode in="blur"/><feMergeNode in="SourceGraphic"/></feMerge></filter>
<filter id="wideGlow" x="-120%" y="-120%" width="340%" height="340%"><feGaussianBlur stdDeviation="34" result="blur"/><feMerge><feMergeNode in="blur"/><feMergeNode in="SourceGraphic"/></feMerge></filter>
</defs>
<ellipse cx="960" cy="777.2" rx="270.1" ry="198.1" fill="none" stroke="#70d6ff" stroke-width="4" opacity="0.131" filter="url(#softGlow)"/>
<path d="M820 740 C770 700 770 825 825 795" stroke="#c4f4ff" stroke-width="10" opacity="0.181" fill="none" stroke-linecap="round" filter="url(#softGlow)"/>
<path d="M1098 724 C1162 686 1164 822 1098 794" stroke="#c4f4ff" stroke-width="10" opacity="0.299" fill="none" stroke-linecap="round" filter="url(#softGlow)"/>
<circle cx="868.0" cy="907.6" r="4.0" fill="#c8f7ff" opacity="0.115" filter="url(#softGlow)"/>
<circle cx="987.8" cy="923.2" r="5.0" fill="#c8f7ff" opacity="0.101" filter="url(#softGlow)"/>
<circle cx="1136.7" cy="815.6" r="6.0" fill="#c8f7ff" opacity="0.133" filter="url(#softGlow)"/>
<circle cx="1146.7" cy="693.9" r="7.0" fill="#c8f7ff" opacity="0.198" filter="url(#softGlow)"/>
<circle cx="1162.3" cy="626.4" r="4.0" fill="#c8f7ff" opacity="0.272" filter="url(#softGlow)"/>
<circle cx="1083.0" cy="596.6" r="5.0" fill="#c8f7ff" opacity="0.325" filter="url(#softGlow)"/>
<circle cx="934.8" cy="696.2" r="6.0" fill="#c8f7ff" opacity="0.339" filter="url(#softGlow)"/>
<circle cx="805.2" cy="814.4" r="7.0" fill="#c8f7ff" opacity="0.307" filter="url(#softGlow)"/>
<circle cx="706.1" cy="893.6" r="4.0" fill="#c8f7ff" opacity="0.241" filter="url(#softGlow)"/>
<circle cx="789.1" cy="937.4" r="5.0" fill="#c8f7ff" opacity="0.168" filter="url(#softGlow)"/>



<g opacity="0.418" filter="url(#softGlow)">
  <line x1="1187.9" y1="288.1" x2="1477.9" y2="183.7" stroke="#d6a4ff" stroke-width="8" stroke-linecap="round"/>
  <line x1="1205.9" y1="282.1" x2="1627.9" y2="129.7" stroke="#ffffff" stroke-width="2" stroke-linecap="round" opacity="0.92"/>
</g>




<circle cx="565" cy="508" r="3.8" fill="#bff7ff" opacity="0.022" filter="url(#softGlow)"/>
<circle cx="261" cy="446" r="2.8" fill="#bff7ff" opacity="0.016" filter="url(#softGlow)"/>
<circle cx="796" cy="848" r="3.7" fill="#bff7ff" opacity="0.014" filter="url(#softGlow)"/>
<circle cx="1076" cy="38" r="4.1" fill="#bff7ff" opacity="0.006" filter="url(#softGlow)"/>
<circle cx="612" cy="156" r="3.5" fill="#bff7ff" opacity="0.017" filter="url(#softGlow)"/>
<circle cx="1152" cy="369" r="3.4" fill="#bff7ff" opacity="0.012" filter="url(#softGlow)"/>
<circle cx="1835" cy="680" r="2.1" fill="#bff7ff" opacity="0.008" filter="url(#softGlow)"/>
<circle cx="526" cy="787" r="2.6" fill="#bff7ff" opacity="0.023" filter="url(#softGlow)"/>
<circle cx="1479" cy="358" r="1.7" fill="#bff7ff" opacity="0.017" filter="url(#softGlow)"/>
<circle cx="115" cy="786" r="4.1" fill="#bff7ff" opacity="0.013" filter="url(#softGlow)"/>
<circle cx="1457" cy="274" r="1.6" fill="#bff7ff" opacity="0.016" filter="url(#softGlow)"/>
<circle cx="498" cy="94" r="1.9" fill="#bff7ff" opacity="0.011" filter="url(#softGlow)"/>
<circle cx="1203" cy="679" r="3.8" fill="#bff7ff" opacity="0.005" filter="url(#softGlow)"/>
<circle cx="601" cy="278" r="3.7" fill="#bff7ff" opacity="0.011" filter="url(#softGlow)"/>
</svg>