<svg xmlns="http://www.w3.org/2000/svg" width="1920" height="1080" viewBox="0 0 1920 1080">
<defs>
<radialGradient id="spaceGlow" cx="52%" cy="56%" r="54%"><stop offset="0%" stop-color="#132a42"/><stop offset="38%" stop-color="#111630"/><stop offset="100%" stop-color="#030712"/></radialGradient>
<radialGradient id="robotBody" cx="40%" cy="24%" r="85%"><stop offset="0%" stop-color="#ffffff"/><stop offset="52%" stop-color="#dce9ff"/><stop offset="100%" stop-color="#93a6bd"/></radialGradient>
<radialGradient id="blueCore" cx="40%" cy="30%" r="70%"><stop offset="0%" stop-color="#8df4ff"/><stop offset="45%" stop-color="#4895ff"/><stop offset="100%" stop-color="#1a47ff"/></radialGradient>
<filter id="softGlow" x="-80%" y="-80%" width="260%" height="260%"><feGaussianBlur stdDeviation="16" result="blur"/><feMerge><feMergeNode in="blur"/><feMergeNode in="SourceGraphic"/></feMerge></filter>
<filter id="wideGlow" x="-120%" y="-120%" width="340%" height="340%"><feGaussianBlur stdDeviation="34" result="blur"/><feMerge><feMergeNode in="blur"/><feMergeNode in="SourceGraphic"/></feMerge></filter>
</defs>
<ellipse cx="960" cy="776.3" rx="272.0" ry="199.1" fill="none" stroke="#70d6ff" stroke-width="4" opacity="0.138" filter="url(#softGlow)"/>
<path d="M820 740 C770 700 770 825 825 795" stroke="#c4f4ff" stroke-width="10" opacity="0.193" fill="none" stroke-linecap="round" filter="url(#softGlow)"/>
<path d="M1098 724 C1162 686 1164 822 1098 794" stroke="#c4f4ff" stroke-width="10" opacity="0.287" fill="none" stroke-linecap="round" filter="url(#softGlow)"/>
<circle cx="887.4" cy="912.2" r="4.0" fill="#c8f7ff" opacity="0.109" filter="url(#softGlow)"/>
<circle cx="1012.8" cy="910.9" r="5.0" fill="#c8f7ff" opacity="0.103" filter="url(#softGlow)"/>
<circle cx="1156.8" cy="796.0" r="6.0" fill="#c8f7ff" opacity="0.142" filter="url(#softGlow)"/>
<circle cx="1149.5" cy="672.4" r="7.0" fill="#c8f7ff" opacity="0.211" filter="url(#softGlow)"/>
<circle cx="1150.1" cy="619.6" r="4.0" fill="#c8f7ff" opacity="0.283" filter="url(#softGlow)"/>
<circle cx="1056.6" cy="606.3" r="5.0" fill="#c8f7ff" opacity="0.331" filter="url(#softGlow)"/>
<circle cx="913.7" cy="715.0" r="6.0" fill="#c8f7ff" opacity="0.336" filter="url(#softGlow)"/>
<circle cx="787.9" cy="837.1" r="7.0" fill="#c8f7ff" opacity="0.297" filter="url(#softGlow)"/>
<circle cx="702.5" cy="902.6" r="4.0" fill="#c8f7ff" opacity="0.228" filter="url(#softGlow)"/>
<circle cx="799.6" cy="930.3" r="5.0" fill="#c8f7ff" opacity="0.156" filter="url(#softGlow)"/>



<g opacity="0.627" filter="url(#softGlow)">
  <line x1="1044.2" y1="340.8" x2="1334.2" y2="236.4" stroke="#d6a4ff" stroke-width="8" stroke-linecap="round"/>
  <line x1="1062.2" y1="334.8" x2="1484.2" y2="182.4" stroke="#ffffff" stroke-width="2" stroke-linecap="round" opacity="0.92"/>
</g>




<circle cx="672" cy="385" r="3.7" fill="#bff7ff" opacity="0.010" filter="url(#softGlow)"/>
<circle cx="913" cy="547" r="3.9" fill="#bff7ff" opacity="0.005" filter="url(#softGlow)"/>
<circle cx="643" cy="600" r="2.6" fill="#bff7ff" opacity="0.011" filter="url(#softGlow)"/>
<circle cx="1836" cy="193" r="2.5" fill="#bff7ff" opacity="0.006" filter="url(#softGlow)"/>
<circle cx="815" cy="479" r="1.7" fill="#bff7ff" opacity="0.012" filter="url(#softGlow)"/>
<circle cx="1284" cy="423" r="3.1" fill="#bff7ff" opacity="0.017" filter="url(#softGlow)"/>
<circle cx="612" cy="407" r="3.2" fill="#bff7ff" opacity="0.019" filter="url(#softGlow)"/>
<circle cx="1630" cy="462" r="2.6" fill="#bff7ff" opacity="0.015" filter="url(#softGlow)"/>
<circle cx="1736" cy="647" r="1.9" fill="#bff7ff" opacity="0.011" filter="url(#softGlow)"/>
<circle cx="526" cy="107" r="3.9" fill="#bff7ff" opacity="0.007" filter="url(#softGlow)"/>
<circle cx="1054" cy="149" r="2.4" fill="#bff7ff" opacity="0.022" filter="url(#softGlow)"/>
<circle cx="418" cy="294" r="3.1" fill="#bff7ff" opacity="0.021" filter="url(#softGlow)"/>
<circle cx="184" cy="260" r="3.7" fill="#bff7ff" opacity="0.012" filter="url(#softGlow)"/>
<circle cx="584" cy="920" r="2.4" fill="#bff7ff" opacity="0.012" filter="url(#softGlow)"/>
</svg>