<svg xmlns="http://www.w3.org/2000/svg" width="1920" height="1080" viewBox="0 0 1920 1080">
<defs>
<radialGradient id="spaceGlow" cx="52%" cy="56%" r="54%"><stop offset="0%" stop-color="#132a42"/><stop offset="38%" stop-color="#111630"/><stop offset="100%" stop-color="#030712"/></radialGradient>
<radialGradient id="robotBody" cx="40%" cy="24%" r="85%"><stop offset="0%" stop-color="#ffffff"/><stop offset="52%" stop-color="#dce9ff"/><stop offset="100%" stop-color="#93a6bd"/></radialGradient>
<radialGradient id="blueCore" cx="40%" cy="30%" r="70%"><stop offset="0%" stop-color="#8df4ff"/><stop offset="45%" stop-color="#4895ff"/><stop offset="100%" stop-color="#1a47ff"/></radialGradient>
<filter id="softGlow" x="-80%" y="-80%" width="260%" height="260%"><feGaussianBlur stdDeviation="16" result="blur"/><feMerge><feMergeNode in="blur"/><feMergeNode in="SourceGraphic"/></feMerge></filter>
<filter id="wideGlow" x="-120%" y="-120%" width="340%" height="340%"><feGaussianBlur stdDeviation="34" result="blur"/><feMerge><feMergeNode in="blur"/><feMergeNode in="SourceGraphic"/></feMerge></filter>
</defs>
<ellipse cx="960" cy="775.7" rx="273.6" ry="200.0" fill="none" stroke="#70d6ff" stroke-width="4" opacity="0.144" filter="url(#softGlow)"/>
<path d="M820 740 C770 700 770 825 825 795" stroke="#c4f4ff" stroke-width="10" opacity="0.204" fill="none" stroke-linecap="round" filter="url(#softGlow)"/>
<path d="M1098 724 C1162 686 1164 822 1098 794" stroke="#c4f4ff" stroke-width="10" opacity="0.276" fill="none" stroke-linecap="round" filter="url(#softGlow)"/>
<circle cx="897.5" cy="913.4" r="4.0" fill="#c8f7ff" opacity="0.107" filter="url(#softGlow)"/>
<circle cx="1025.0" cy="903.8" r="5.0" fill="#c8f7ff" opacity="0.105" filter="url(#softGlow)"/>
<circle cx="1166.0" cy="786.0" r="6.0" fill="#c8f7ff" opacity="0.148" filter="url(#softGlow)"/>
<circle cx="1150.0" cy="662.2" r="7.0" fill="#c8f7ff" opacity="0.218" filter="url(#softGlow)"/>
<circle cx="1143.1" cy="617.2" r="4.0" fill="#c8f7ff" opacity="0.289" filter="url(#softGlow)"/>
<circle cx="1042.9" cy="612.3" r="5.0" fill="#c8f7ff" opacity="0.334" filter="url(#softGlow)"/>
<circle cx="903.3" cy="724.8" r="6.0" fill="#c8f7ff" opacity="0.335" filter="url(#softGlow)"/>
<circle cx="780.0" cy="848.0" r="7.0" fill="#c8f7ff" opacity="0.291" filter="url(#softGlow)"/>
<circle cx="702.0" cy="906.2" r="4.0" fill="#c8f7ff" opacity="0.221" filter="url(#softGlow)"/>
<circle cx="805.6" cy="925.6" r="5.0" fill="#c8f7ff" opacity="0.150" filter="url(#softGlow)"/>



<g opacity="0.718" filter="url(#softGlow)">
  <line x1="982.3" y1="363.5" x2="1272.3" y2="259.1" stroke="#d6a4ff" stroke-width="8" stroke-linecap="round"/>
  <line x1="1000.3" y1="357.5" x2="1422.3" y2="205.1" stroke="#ffffff" stroke-width="2" stroke-linecap="round" opacity="0.92"/>
</g>




<circle cx="672" cy="385" r="3.7" fill="#bff7ff" opacity="0.010" filter="url(#softGlow)"/>
<circle cx="913" cy="547" r="3.9" fill="#bff7ff" opacity="0.005" filter="url(#softGlow)"/>
<circle cx="643" cy="600" r="2.6" fill="#bff7ff" opacity="0.011" filter="url(#softGlow)"/>
<circle cx="1836" cy="193" r="2.5" fill="#bff7ff" opacity="0.006" filter="url(#softGlow)"/>
<circle cx="815" cy="479" r="1.7" fill="#bff7ff" opacity="0.012" filter="url(#softGlow)"/>
<circle cx="1284" cy="423" r="3.1" fill="#bff7ff" opacity="0.017" filter="url(#softGlow)"/>
<circle cx="612" cy="407" r="3.2" fill="#bff7ff" opacity="0.018" filter="url(#softGlow)"/>
<circle cx="1630" cy="462" r="2.6" fill="#bff7ff" opacity="0.015" filter="url(#softGlow)"/>
<circle cx="1736" cy="647" r="1.9" fill="#bff7ff" opacity="0.011" filter="url(#softGlow)"/>
<circle cx="526" cy="107" r="3.9" fill="#bff7ff" opacity="0.007" filter="url(#softGlow)"/>
<circle cx="1054" cy="149" r="2.4" fill="#bff7ff" opacity="0.022" filter="url(#softGlow)"/>
<circle cx="418" cy="294" r="3.1" fill="#bff7ff" opacity="0.021" filter="url(#softGlow)"/>
<circle cx="184" cy="260" r="3.7" fill="#bff7ff" opacity="0.012" filter="url(#softGlow)"/>
<circle cx="584" cy="920" r="2.4" fill="#bff7ff" opacity="0.012" filter="url(#softGlow)"/>
</svg>