<svg xmlns="http://www.w3.org/2000/svg" width="1920" height="1080" viewBox="0 0 1920 1080">
<defs>
<radialGradient id="spaceGlow" cx="52%" cy="56%" r="54%"><stop offset="0%" stop-color="#132a42"/><stop offset="38%" stop-color="#111630"/><stop offset="100%" stop-color="#030712"/></radialGradient>
<radialGradient id="robotBody" cx="40%" cy="24%" r="85%"><stop offset="0%" stop-color="#ffffff"/><stop offset="52%" stop-color="#dce9ff"/><stop offset="100%" stop-color="#93a6bd"/></radialGradient>
<radialGradient id="blueCore" cx="40%" cy="30%" r="70%"><stop offset="0%" stop-color="#8df4ff"/><stop offset="45%" stop-color="#4895ff"/><stop offset="100%" stop-color="#1a47ff"/></radialGradient>
<filter id="softGlow" x="-80%" y="-80%" width="260%" height="260%"><feGaussianBlur stdDeviation="16" result="blur"/><feMerge><feMergeNode in="blur"/><feMergeNode in="SourceGraphic"/></feMerge></filter>
<filter id="wideGlow" x="-120%" y="-120%" width="340%" height="340%"><feGaussianBlur stdDeviation="34" result="blur"/><feMerge><feMergeNode in="blur"/><feMergeNode in="SourceGraphic"/></feMerge></filter>
</defs>
<ellipse cx="960" cy="775.1" rx="275.5" ry="201.1" fill="none" stroke="#70d6ff" stroke-width="4" opacity="0.151" filter="url(#softGlow)"/>
<path d="M820 740 C770 700 770 825 825 795" stroke="#c4f4ff" stroke-width="10" opacity="0.217" fill="none" stroke-linecap="round" filter="url(#softGlow)"/>
<path d="M1098 724 C1162 686 1164 822 1098 794" stroke="#c4f4ff" stroke-width="10" opacity="0.263" fill="none" stroke-linecap="round" filter="url(#softGlow)"/>
<circle cx="907.7" cy="914.0" r="4.0" fill="#c8f7ff" opacity="0.105" filter="url(#softGlow)"/>
<circle cx="1037.1" cy="896.0" r="5.0" fill="#c8f7ff" opacity="0.107" filter="url(#softGlow)"/>
<circle cx="1174.4" cy="775.9" r="6.0" fill="#c8f7ff" opacity="0.153" filter="url(#softGlow)"/>
<circle cx="1149.8" cy="652.5" r="7.0" fill="#c8f7ff" opacity="0.225" filter="url(#softGlow)"/>
<circle cx="1135.5" cy="615.4" r="4.0" fill="#c8f7ff" opacity="0.295" filter="url(#softGlow)"/>
<circle cx="1028.9" cy="618.9" r="5.0" fill="#c8f7ff" opacity="0.336" filter="url(#softGlow)"/>
<circle cx="893.1" cy="734.7" r="6.0" fill="#c8f7ff" opacity="0.332" filter="url(#softGlow)"/>
<circle cx="772.8" cy="858.4" r="7.0" fill="#c8f7ff" opacity="0.286" filter="url(#softGlow)"/>
<circle cx="702.3" cy="909.1" r="4.0" fill="#c8f7ff" opacity="0.214" filter="url(#softGlow)"/>
<circle cx="812.1" cy="920.2" r="5.0" fill="#c8f7ff" opacity="0.145" filter="url(#softGlow)"/>



<g opacity="0.798" filter="url(#softGlow)">
  <line x1="926.5" y1="383.9" x2="1216.5" y2="279.5" stroke="#d6a4ff" stroke-width="8" stroke-linecap="round"/>
  <line x1="944.5" y1="377.9" x2="1366.5" y2="225.5" stroke="#ffffff" stroke-width="2" stroke-linecap="round" opacity="0.92"/>
</g>




<circle cx="765" cy="113" r="3.7" fill="#bff7ff" opacity="0.020" filter="url(#softGlow)"/>
<circle cx="1377" cy="354" r="2.5" fill="#bff7ff" opacity="0.007" filter="url(#softGlow)"/>
<circle cx="1364" cy="691" r="3.6" fill="#bff7ff" opacity="0.017" filter="url(#softGlow)"/>
<circle cx="754" cy="46" r="2.3" fill="#bff7ff" opacity="0.016" filter="url(#softGlow)"/>
<circle cx="270" cy="420" r="2.3" fill="#bff7ff" opacity="0.014" filter="url(#softGlow)"/>
<circle cx="1700" cy="568" r="2.7" fill="#bff7ff" opacity="0.008" filter="url(#softGlow)"/>
<circle cx="546" cy="138" r="2.2" fill="#bff7ff" opacity="0.007" filter="url(#softGlow)"/>
<circle cx="1168" cy="888" r="2.6" fill="#bff7ff" opacity="0.013" filter="url(#softGlow)"/>
<circle cx="1167" cy="30" r="1.9" fill="#bff7ff" opacity="0.013" filter="url(#softGlow)"/>
<circle cx="241" cy="155" r="2.6" fill="#bff7ff" opacity="0.012" filter="url(#softGlow)"/>
<circle cx="1603" cy="878" r="3.7" fill="#bff7ff" opacity="0.017" filter="url(#softGlow)"/>
<circle cx="1668" cy="540" r="2.0" fill="#bff7ff" opacity="0.019" filter="url(#softGlow)"/>
<circle cx="1569" cy="838" r="2.1" fill="#bff7ff" opacity="0.014" filter="url(#softGlow)"/>
<circle cx="406" cy="492" r="3.7" fill="#bff7ff" opacity="0.005" filter="url(#softGlow)"/>
</svg>