<svg xmlns="http://www.w3.org/2000/svg" width="1920" height="1080" viewBox="0 0 1920 1080">
<defs>
<radialGradient id="spaceGlow" cx="52%" cy="56%" r="54%"><stop offset="0%" stop-color="#132a42"/><stop offset="38%" stop-color="#111630"/><stop offset="100%" stop-color="#030712"/></radialGradient>
<radialGradient id="robotBody" cx="40%" cy="24%" r="85%"><stop offset="0%" stop-color="#ffffff"/><stop offset="52%" stop-color="#dce9ff"/><stop offset="100%" stop-color="#93a6bd"/></radialGradient>
<radialGradient id="blueCore" cx="40%" cy="30%" r="70%"><stop offset="0%" stop-color="#8df4ff"/><stop offset="45%" stop-color="#4895ff"/><stop offset="100%" stop-color="#1a47ff"/></radialGradient>
<filter id="softGlow" x="-80%" y="-80%" width="260%" height="260%"><feGaussianBlur stdDeviation="16" result="blur"/><feMerge><feMergeNode in="blur"/><feMergeNode in="SourceGraphic"/></feMerge></filter>
<filter id="wideGlow" x="-120%" y="-120%" width="340%" height="340%"><feGaussianBlur stdDeviation="34" result="blur"/><feMerge><feMergeNode in="blur"/><feMergeNode in="SourceGraphic"/></feMerge></filter>
</defs>
<ellipse cx="960" cy="773.5" rx="279.9" ry="203.5" fill="none" stroke="#70d6ff" stroke-width="4" opacity="0.169" filter="url(#softGlow)"/>
<path d="M820 740 C770 700 770 825 825 795" stroke="#c4f4ff" stroke-width="10" opacity="0.246" fill="none" stroke-linecap="round" filter="url(#softGlow)"/>
<path d="M1098 724 C1162 686 1164 822 1098 794" stroke="#c4f4ff" stroke-width="10" opacity="0.234" fill="none" stroke-linecap="round" filter="url(#softGlow)"/>
<circle cx="928.7" cy="913.0" r="4.0" fill="#c8f7ff" opacity="0.102" filter="url(#softGlow)"/>
<circle cx="1060.4" cy="878.6" r="5.0" fill="#c8f7ff" opacity="0.113" filter="url(#softGlow)"/>
<circle cx="1189.3" cy="755.5" r="6.0" fill="#c8f7ff" opacity="0.165" filter="url(#softGlow)"/>
<circle cx="1147.8" cy="634.7" r="7.0" fill="#c8f7ff" opacity="0.238" filter="url(#softGlow)"/>
<circle cx="1118.6" cy="614.0" r="4.0" fill="#c8f7ff" opacity="0.305" filter="url(#softGlow)"/>
<circle cx="1000.3" cy="634.3" r="5.0" fill="#c8f7ff" opacity="0.339" filter="url(#softGlow)"/>
<circle cx="873.4" cy="754.9" r="6.0" fill="#c8f7ff" opacity="0.327" filter="url(#softGlow)"/>
<circle cx="760.1" cy="878.0" r="7.0" fill="#c8f7ff" opacity="0.274" filter="url(#softGlow)"/>
<circle cx="705.4" cy="912.9" r="4.0" fill="#c8f7ff" opacity="0.201" filter="url(#softGlow)"/>
<circle cx="826.6" cy="907.1" r="5.0" fill="#c8f7ff" opacity="0.135" filter="url(#softGlow)"/>



<g opacity="0.921" filter="url(#softGlow)">
  <line x1="832.3" y1="418.5" x2="1122.3" y2="314.1" stroke="#d6a4ff" stroke-width="8" stroke-linecap="round"/>
  <line x1="850.3" y1="412.5" x2="1272.3" y2="260.1" stroke="#ffffff" stroke-width="2" stroke-linecap="round" opacity="0.92"/>
</g>




<circle cx="765" cy="113" r="3.7" fill="#bff7ff" opacity="0.023" filter="url(#softGlow)"/>
<circle cx="1377" cy="354" r="2.5" fill="#bff7ff" opacity="0.008" filter="url(#softGlow)"/>
<circle cx="1364" cy="691" r="3.6" fill="#bff7ff" opacity="0.019" filter="url(#softGlow)"/>
<circle cx="754" cy="46" r="2.3" fill="#bff7ff" opacity="0.018" filter="url(#softGlow)"/>
<circle cx="270" cy="420" r="2.3" fill="#bff7ff" opacity="0.016" filter="url(#softGlow)"/>
<circle cx="1700" cy="568" r="2.7" fill="#bff7ff" opacity="0.009" filter="url(#softGlow)"/>
<circle cx="546" cy="138" r="2.2" fill="#bff7ff" opacity="0.008" filter="url(#softGlow)"/>
<circle cx="1168" cy="888" r="2.6" fill="#bff7ff" opacity="0.015" filter="url(#softGlow)"/>
<circle cx="1167" cy="30" r="1.9" fill="#bff7ff" opacity="0.014" filter="url(#softGlow)"/>
<circle cx="241" cy="155" r="2.6" fill="#bff7ff" opacity="0.013" filter="url(#softGlow)"/>
<circle cx="1603" cy="878" r="3.7" fill="#bff7ff" opacity="0.019" filter="url(#softGlow)"/>
<circle cx="1668" cy="540" r="2.0" fill="#bff7ff" opacity="0.021" filter="url(#softGlow)"/>
<circle cx="1569" cy="838" r="2.1" fill="#bff7ff" opacity="0.015" filter="url(#softGlow)"/>
<circle cx="406" cy="492" r="3.7" fill="#bff7ff" opacity="0.006" filter="url(#softGlow)"/>
</svg>