<svg xmlns="http://www.w3.org/2000/svg" width="1920" height="1080" viewBox="0 0 1920 1080">
<defs>
<radialGradient id="spaceGlow" cx="52%" cy="56%" r="54%"><stop offset="0%" stop-color="#132a42"/><stop offset="38%" stop-color="#111630"/><stop offset="100%" stop-color="#030712"/></radialGradient>
<radialGradient id="robotBody" cx="40%" cy="24%" r="85%"><stop offset="0%" stop-color="#ffffff"/><stop offset="52%" stop-color="#dce9ff"/><stop offset="100%" stop-color="#93a6bd"/></radialGradient>
<radialGradient id="blueCore" cx="40%" cy="30%" r="70%"><stop offset="0%" stop-color="#8df4ff"/><stop offset="45%" stop-color="#4895ff"/><stop offset="100%" stop-color="#1a47ff"/></radialGradient>
<filter id="softGlow" x="-80%" y="-80%" width="260%" height="260%"><feGaussianBlur stdDeviation="16" result="blur"/><feMerge><feMergeNode in="blur"/><feMergeNode in="SourceGraphic"/></feMerge></filter>
<filter id="wideGlow" x="-120%" y="-120%" width="340%" height="340%"><feGaussianBlur stdDeviation="34" result="blur"/><feMerge><feMergeNode in="blur"/><feMergeNode in="SourceGraphic"/></feMerge></filter>
</defs>
<ellipse cx="960" cy="772.7" rx="282.1" ry="204.7" fill="none" stroke="#70d6ff" stroke-width="4" opacity="0.177" filter="url(#softGlow)"/>
<path d="M820 740 C770 700 770 825 825 795" stroke="#c4f4ff" stroke-width="10" opacity="0.261" fill="none" stroke-linecap="round" filter="url(#softGlow)"/>
<path d="M1098 724 C1162 686 1164 822 1098 794" stroke="#c4f4ff" stroke-width="10" opacity="0.219" fill="none" stroke-linecap="round" filter="url(#softGlow)"/>
<circle cx="939.4" cy="911.5" r="4.0" fill="#c8f7ff" opacity="0.101" filter="url(#softGlow)"/>
<circle cx="1071.5" cy="869.0" r="5.0" fill="#c8f7ff" opacity="0.116" filter="url(#softGlow)"/>
<circle cx="1195.6" cy="745.3" r="6.0" fill="#c8f7ff" opacity="0.171" filter="url(#softGlow)"/>
<circle cx="1145.8" cy="626.7" r="7.0" fill="#c8f7ff" opacity="0.245" filter="url(#softGlow)"/>
<circle cx="1109.4" cy="614.3" r="4.0" fill="#c8f7ff" opacity="0.309" filter="url(#softGlow)"/>
<circle cx="985.8" cy="642.8" r="5.0" fill="#c8f7ff" opacity="0.339" filter="url(#softGlow)"/>
<circle cx="864.0" cy="765.1" r="6.0" fill="#c8f7ff" opacity="0.324" filter="url(#softGlow)"/>
<circle cx="754.7" cy="887.0" r="7.0" fill="#c8f7ff" opacity="0.268" filter="url(#softGlow)"/>
<circle cx="708.2" cy="913.8" r="4.0" fill="#c8f7ff" opacity="0.194" filter="url(#softGlow)"/>
<circle cx="834.4" cy="899.6" r="5.0" fill="#c8f7ff" opacity="0.130" filter="url(#softGlow)"/>



<g opacity="0.962" filter="url(#softGlow)">
  <line x1="793.2" y1="432.8" x2="1083.2" y2="328.4" stroke="#d6a4ff" stroke-width="8" stroke-linecap="round"/>
  <line x1="811.2" y1="426.8" x2="1233.2" y2="274.4" stroke="#ffffff" stroke-width="2" stroke-linecap="round" opacity="0.92"/>
</g>




<circle cx="1601" cy="563" r="2.3" fill="#bff7ff" opacity="0.024" filter="url(#softGlow)"/>
<circle cx="90" cy="115" r="1.5" fill="#bff7ff" opacity="0.009" filter="url(#softGlow)"/>
<circle cx="1099" cy="684" r="3.7" fill="#bff7ff" opacity="0.027" filter="url(#softGlow)"/>
<circle cx="487" cy="471" r="1.5" fill="#bff7ff" opacity="0.015" filter="url(#softGlow)"/>
<circle cx="732" cy="49" r="1.7" fill="#bff7ff" opacity="0.025" filter="url(#softGlow)"/>
<circle cx="827" cy="276" r="3.3" fill="#bff7ff" opacity="0.023" filter="url(#softGlow)"/>
<circle cx="387" cy="448" r="3.3" fill="#bff7ff" opacity="0.014" filter="url(#softGlow)"/>
<circle cx="215" cy="300" r="3.3" fill="#bff7ff" opacity="0.015" filter="url(#softGlow)"/>
<circle cx="950" cy="996" r="2.4" fill="#bff7ff" opacity="0.012" filter="url(#softGlow)"/>
<circle cx="1305" cy="976" r="2.6" fill="#bff7ff" opacity="0.020" filter="url(#softGlow)"/>
<circle cx="333" cy="921" r="2.7" fill="#bff7ff" opacity="0.008" filter="url(#softGlow)"/>
<circle cx="857" cy="474" r="3.8" fill="#bff7ff" opacity="0.022" filter="url(#softGlow)"/>
<circle cx="1569" cy="35" r="1.5" fill="#bff7ff" opacity="0.021" filter="url(#softGlow)"/>
<circle cx="665" cy="666" r="2.2" fill="#bff7ff" opacity="0.023" filter="url(#softGlow)"/>
</svg>