<svg xmlns="http://www.w3.org/2000/svg" width="1920" height="1080" viewBox="0 0 1920 1080">
<defs>
<radialGradient id="spaceGlow" cx="52%" cy="56%" r="54%"><stop offset="0%" stop-color="#132a42"/><stop offset="38%" stop-color="#111630"/><stop offset="100%" stop-color="#030712"/></radialGradient>
<radialGradient id="robotBody" cx="40%" cy="24%" r="85%"><stop offset="0%" stop-color="#ffffff"/><stop offset="52%" stop-color="#dce9ff"/><stop offset="100%" stop-color="#93a6bd"/></radialGradient>
<radialGradient id="blueCore" cx="40%" cy="30%" r="70%"><stop offset="0%" stop-color="#8df4ff"/><stop offset="45%" stop-color="#4895ff"/><stop offset="100%" stop-color="#1a47ff"/></radialGradient>
<filter id="softGlow" x="-80%" y="-80%" width="260%" height="260%"><feGaussianBlur stdDeviation="16" result="blur"/><feMerge><feMergeNode in="blur"/><feMergeNode in="SourceGraphic"/></feMerge></filter>
<filter id="wideGlow" x="-120%" y="-120%" width="340%" height="340%"><feGaussianBlur stdDeviation="34" result="blur"/><feMerge><feMergeNode in="blur"/><feMergeNode in="SourceGraphic"/></feMerge></filter>
</defs>
<ellipse cx="960" cy="768.6" rx="287.8" ry="207.9" fill="none" stroke="#70d6ff" stroke-width="4" opacity="0.199" filter="url(#softGlow)"/>
<path d="M820 740 C770 700 770 825 825 795" stroke="#c4f4ff" stroke-width="10" opacity="0.299" fill="none" stroke-linecap="round" filter="url(#softGlow)"/>
<path d="M1098 724 C1162 686 1164 822 1098 794" stroke="#c4f4ff" stroke-width="10" opacity="0.181" fill="none" stroke-linecap="round" filter="url(#softGlow)"/>
<circle cx="982.4" cy="898.7" r="4.0" fill="#c8f7ff" opacity="0.101" filter="url(#softGlow)"/>
<circle cx="1112.3" cy="826.6" r="5.0" fill="#c8f7ff" opacity="0.132" filter="url(#softGlow)"/>
<circle cx="1213.2" cy="706.0" r="6.0" fill="#c8f7ff" opacity="0.197" filter="url(#softGlow)"/>
<circle cx="1132.1" cy="601.3" r="7.0" fill="#c8f7ff" opacity="0.271" filter="url(#softGlow)"/>
<circle cx="1068.1" cy="622.5" r="4.0" fill="#c8f7ff" opacity="0.325" filter="url(#softGlow)"/>
<circle cx="927.5" cy="682.3" r="5.0" fill="#c8f7ff" opacity="0.339" filter="url(#softGlow)"/>
<circle cx="829.6" cy="805.3" r="6.0" fill="#c8f7ff" opacity="0.307" filter="url(#softGlow)"/>
<circle cx="739.8" cy="917.1" r="7.0" fill="#c8f7ff" opacity="0.242" filter="url(#softGlow)"/>
<circle cx="727.2" cy="910.4" r="4.0" fill="#c8f7ff" opacity="0.168" filter="url(#softGlow)"/>
<circle cx="869.7" cy="863.7" r="5.0" fill="#c8f7ff" opacity="0.114" filter="url(#softGlow)"/>



<g opacity="0.977" filter="url(#softGlow)">
  <line x1="682.2" y1="473.5" x2="972.2" y2="369.1" stroke="#d6a4ff" stroke-width="8" stroke-linecap="round"/>
  <line x1="700.2" y1="467.5" x2="1122.2" y2="315.1" stroke="#ffffff" stroke-width="2" stroke-linecap="round" opacity="0.92"/>
</g>




<circle cx="1649" cy="348" r="3.4" fill="#bff7ff" opacity="0.042" filter="url(#softGlow)"/>
<circle cx="839" cy="247" r="3.8" fill="#bff7ff" opacity="0.015" filter="url(#softGlow)"/>
<circle cx="1457" cy="185" r="1.6" fill="#bff7ff" opacity="0.035" filter="url(#softGlow)"/>
<circle cx="948" cy="299" r="2.3" fill="#bff7ff" opacity="0.033" filter="url(#softGlow)"/>
<circle cx="637" cy="606" r="2.5" fill="#bff7ff" opacity="0.037" filter="url(#softGlow)"/>
<circle cx="420" cy="440" r="3.0" fill="#bff7ff" opacity="0.034" filter="url(#softGlow)"/>
<circle cx="325" cy="950" r="3.1" fill="#bff7ff" opacity="0.020" filter="url(#softGlow)"/>
<circle cx="891" cy="659" r="3.2" fill="#bff7ff" opacity="0.016" filter="url(#softGlow)"/>
<circle cx="1420" cy="865" r="2.1" fill="#bff7ff" opacity="0.026" filter="url(#softGlow)"/>
<circle cx="1657" cy="40" r="1.5" fill="#bff7ff" opacity="0.032" filter="url(#softGlow)"/>
<circle cx="292" cy="862" r="4.1" fill="#bff7ff" opacity="0.026" filter="url(#softGlow)"/>
<circle cx="1775" cy="634" r="2.2" fill="#bff7ff" opacity="0.036" filter="url(#softGlow)"/>
<circle cx="652" cy="242" r="3.0" fill="#bff7ff" opacity="0.033" filter="url(#softGlow)"/>
<circle cx="1599" cy="102" r="2.8" fill="#bff7ff" opacity="0.031" filter="url(#softGlow)"/>
</svg>