<svg xmlns="http://www.w3.org/2000/svg" width="1920" height="1080" viewBox="0 0 1920 1080">
<defs>
<radialGradient id="spaceGlow" cx="52%" cy="56%" r="54%"><stop offset="0%" stop-color="#132a42"/><stop offset="38%" stop-color="#111630"/><stop offset="100%" stop-color="#030712"/></radialGradient>
<radialGradient id="robotBody" cx="40%" cy="24%" r="85%"><stop offset="0%" stop-color="#ffffff"/><stop offset="52%" stop-color="#dce9ff"/><stop offset="100%" stop-color="#93a6bd"/></radialGradient>
<radialGradient id="blueCore" cx="40%" cy="30%" r="70%"><stop offset="0%" stop-color="#8df4ff"/><stop offset="45%" stop-color="#4895ff"/><stop offset="100%" stop-color="#1a47ff"/></radialGradient>
<filter id="softGlow" x="-80%" y="-80%" width="260%" height="260%"><feGaussianBlur stdDeviation="16" result="blur"/><feMerge><feMergeNode in="blur"/><feMergeNode in="SourceGraphic"/></feMerge></filter>
<filter id="wideGlow" x="-120%" y="-120%" width="340%" height="340%"><feGaussianBlur stdDeviation="34" result="blur"/><feMerge><feMergeNode in="blur"/><feMergeNode in="SourceGraphic"/></feMerge></filter>
</defs>
<ellipse cx="960" cy="766.4" rx="287.6" ry="207.8" fill="none" stroke="#70d6ff" stroke-width="4" opacity="0.199" filter="url(#softGlow)"/>
<path d="M820 740 C770 700 770 825 825 795" stroke="#c4f4ff" stroke-width="10" opacity="0.298" fill="none" stroke-linecap="round" filter="url(#softGlow)"/>
<path d="M1098 724 C1162 686 1164 822 1098 794" stroke="#c4f4ff" stroke-width="10" opacity="0.182" fill="none" stroke-linecap="round" filter="url(#softGlow)"/>
<circle cx="1003.5" cy="888.5" r="4.0" fill="#c8f7ff" opacity="0.103" filter="url(#softGlow)"/>
<circle cx="1129.9" cy="803.4" r="5.0" fill="#c8f7ff" opacity="0.142" filter="url(#softGlow)"/>
<circle cx="1217.2" cy="687.8" r="6.0" fill="#c8f7ff" opacity="0.210" filter="url(#softGlow)"/>
<circle cx="1121.9" cy="593.0" r="7.0" fill="#c8f7ff" opacity="0.283" filter="url(#softGlow)"/>
<circle cx="1045.2" cy="630.5" r="4.0" fill="#c8f7ff" opacity="0.331" filter="url(#softGlow)"/>
<circle cx="898.8" cy="704.5" r="5.0" fill="#c8f7ff" opacity="0.337" filter="url(#softGlow)"/>
<circle cx="814.8" cy="824.5" r="6.0" fill="#c8f7ff" opacity="0.297" filter="url(#softGlow)"/>
<circle cx="736.6" cy="928.0" r="7.0" fill="#c8f7ff" opacity="0.229" filter="url(#softGlow)"/>
<circle cx="741.3" cy="904.6" r="4.0" fill="#c8f7ff" opacity="0.156" filter="url(#softGlow)"/>
<circle cx="889.2" cy="842.8" r="5.0" fill="#c8f7ff" opacity="0.109" filter="url(#softGlow)"/>



<g opacity="0.895" filter="url(#softGlow)">
  <line x1="649.6" y1="485.5" x2="939.6" y2="381.1" stroke="#d6a4ff" stroke-width="8" stroke-linecap="round"/>
  <line x1="667.6" y1="479.5" x2="1089.6" y2="327.1" stroke="#ffffff" stroke-width="2" stroke-linecap="round" opacity="0.92"/>
</g>




<circle cx="1714" cy="645" r="2.4" fill="#bff7ff" opacity="0.041" filter="url(#softGlow)"/>
<circle cx="723" cy="662" r="3.3" fill="#bff7ff" opacity="0.050" filter="url(#softGlow)"/>
<circle cx="1627" cy="508" r="3.8" fill="#bff7ff" opacity="0.034" filter="url(#softGlow)"/>
<circle cx="869" cy="250" r="2.7" fill="#bff7ff" opacity="0.021" filter="url(#softGlow)"/>
<circle cx="616" cy="829" r="3.1" fill="#bff7ff" opacity="0.012" filter="url(#softGlow)"/>
<circle cx="964" cy="252" r="2.8" fill="#bff7ff" opacity="0.011" filter="url(#softGlow)"/>
<circle cx="1372" cy="441" r="3.2" fill="#bff7ff" opacity="0.022" filter="url(#softGlow)"/>
<circle cx="373" cy="165" r="3.0" fill="#bff7ff" opacity="0.019" filter="url(#softGlow)"/>
<circle cx="1673" cy="180" r="3.9" fill="#bff7ff" opacity="0.020" filter="url(#softGlow)"/>
<circle cx="1418" cy="166" r="3.4" fill="#bff7ff" opacity="0.037" filter="url(#softGlow)"/>
<circle cx="1715" cy="801" r="2.3" fill="#bff7ff" opacity="0.024" filter="url(#softGlow)"/>
<circle cx="1355" cy="626" r="3.4" fill="#bff7ff" opacity="0.040" filter="url(#softGlow)"/>
<circle cx="852" cy="801" r="2.8" fill="#bff7ff" opacity="0.029" filter="url(#softGlow)"/>
<circle cx="783" cy="772" r="3.2" fill="#bff7ff" opacity="0.026" filter="url(#softGlow)"/>
</svg>