<svg xmlns="http://www.w3.org/2000/svg" width="1920" height="1080" viewBox="0 0 1920 1080">
<defs>
<radialGradient id="spaceGlow" cx="52%" cy="56%" r="54%"><stop offset="0%" stop-color="#132a42"/><stop offset="38%" stop-color="#111630"/><stop offset="100%" stop-color="#030712"/></radialGradient>
<radialGradient id="robotBody" cx="40%" cy="24%" r="85%"><stop offset="0%" stop-color="#ffffff"/><stop offset="52%" stop-color="#dce9ff"/><stop offset="100%" stop-color="#93a6bd"/></radialGradient>
<radialGradient id="blueCore" cx="40%" cy="30%" r="70%"><stop offset="0%" stop-color="#8df4ff"/><stop offset="45%" stop-color="#4895ff"/><stop offset="100%" stop-color="#1a47ff"/></radialGradient>
<filter id="softGlow" x="-80%" y="-80%" width="260%" height="260%"><feGaussianBlur stdDeviation="16" result="blur"/><feMerge><feMergeNode in="blur"/><feMergeNode in="SourceGraphic"/></feMerge></filter>
<filter id="wideGlow" x="-120%" y="-120%" width="340%" height="340%"><feGaussianBlur stdDeviation="34" result="blur"/><feMerge><feMergeNode in="blur"/><feMergeNode in="SourceGraphic"/></feMerge></filter>
</defs>
<ellipse cx="960" cy="763.9" rx="285.4" ry="206.6" fill="none" stroke="#70d6ff" stroke-width="4" opacity="0.190" filter="url(#softGlow)"/>
<path d="M820 740 C770 700 770 825 825 795" stroke="#c4f4ff" stroke-width="10" opacity="0.283" fill="none" stroke-linecap="round" filter="url(#softGlow)"/>
<path d="M1098 724 C1162 686 1164 822 1098 794" stroke="#c4f4ff" stroke-width="10" opacity="0.197" fill="none" stroke-linecap="round" filter="url(#softGlow)"/>
<circle cx="1024.2" cy="876.0" r="4.0" fill="#c8f7ff" opacity="0.107" filter="url(#softGlow)"/>
<circle cx="1145.4" cy="779.5" r="5.0" fill="#c8f7ff" opacity="0.153" filter="url(#softGlow)"/>
<circle cx="1217.9" cy="671.0" r="6.0" fill="#c8f7ff" opacity="0.224" filter="url(#softGlow)"/>
<circle cx="1109.7" cy="587.9" r="7.0" fill="#c8f7ff" opacity="0.294" filter="url(#softGlow)"/>
<circle cx="1021.3" cy="641.1" r="4.0" fill="#c8f7ff" opacity="0.335" filter="url(#softGlow)"/>
<circle cx="870.8" cy="727.8" r="5.0" fill="#c8f7ff" opacity="0.333" filter="url(#softGlow)"/>
<circle cx="801.9" cy="842.6" r="6.0" fill="#c8f7ff" opacity="0.287" filter="url(#softGlow)"/>
<circle cx="736.2" cy="935.9" r="7.0" fill="#c8f7ff" opacity="0.215" filter="url(#softGlow)"/>
<circle cx="758.1" cy="896.2" r="4.0" fill="#c8f7ff" opacity="0.145" filter="url(#softGlow)"/>
<circle cx="909.6" cy="820.4" r="5.0" fill="#c8f7ff" opacity="0.104" filter="url(#softGlow)"/>



<g opacity="0.759" filter="url(#softGlow)">
  <line x1="628.6" y1="493.2" x2="918.6" y2="388.8" stroke="#d6a4ff" stroke-width="8" stroke-linecap="round"/>
  <line x1="646.6" y1="487.2" x2="1068.6" y2="334.8" stroke="#ffffff" stroke-width="2" stroke-linecap="round" opacity="0.92"/>
</g>




<circle cx="1714" cy="645" r="2.4" fill="#bff7ff" opacity="0.051" filter="url(#softGlow)"/>
<circle cx="723" cy="662" r="3.3" fill="#bff7ff" opacity="0.062" filter="url(#softGlow)"/>
<circle cx="1627" cy="508" r="3.8" fill="#bff7ff" opacity="0.042" filter="url(#softGlow)"/>
<circle cx="869" cy="250" r="2.7" fill="#bff7ff" opacity="0.026" filter="url(#softGlow)"/>
<circle cx="616" cy="829" r="3.1" fill="#bff7ff" opacity="0.015" filter="url(#softGlow)"/>
<circle cx="964" cy="252" r="2.8" fill="#bff7ff" opacity="0.013" filter="url(#softGlow)"/>
<circle cx="1372" cy="441" r="3.2" fill="#bff7ff" opacity="0.027" filter="url(#softGlow)"/>
<circle cx="373" cy="165" r="3.0" fill="#bff7ff" opacity="0.024" filter="url(#softGlow)"/>
<circle cx="1673" cy="180" r="3.9" fill="#bff7ff" opacity="0.024" filter="url(#softGlow)"/>
<circle cx="1418" cy="166" r="3.4" fill="#bff7ff" opacity="0.045" filter="url(#softGlow)"/>
<circle cx="1715" cy="801" r="2.3" fill="#bff7ff" opacity="0.030" filter="url(#softGlow)"/>
<circle cx="1355" cy="626" r="3.4" fill="#bff7ff" opacity="0.050" filter="url(#softGlow)"/>
<circle cx="852" cy="801" r="2.8" fill="#bff7ff" opacity="0.036" filter="url(#softGlow)"/>
<circle cx="783" cy="772" r="3.2" fill="#bff7ff" opacity="0.032" filter="url(#softGlow)"/>
</svg>