<svg xmlns="http://www.w3.org/2000/svg" width="1920" height="1080" viewBox="0 0 1920 1080">
<defs>
<radialGradient id="spaceGlow" cx="52%" cy="56%" r="54%"><stop offset="0%" stop-color="#132a42"/><stop offset="38%" stop-color="#111630"/><stop offset="100%" stop-color="#030712"/></radialGradient>
<radialGradient id="robotBody" cx="40%" cy="24%" r="85%"><stop offset="0%" stop-color="#ffffff"/><stop offset="52%" stop-color="#dce9ff"/><stop offset="100%" stop-color="#93a6bd"/></radialGradient>
<radialGradient id="blueCore" cx="40%" cy="30%" r="70%"><stop offset="0%" stop-color="#8df4ff"/><stop offset="45%" stop-color="#4895ff"/><stop offset="100%" stop-color="#1a47ff"/></radialGradient>
<filter id="softGlow" x="-80%" y="-80%" width="260%" height="260%"><feGaussianBlur stdDeviation="16" result="blur"/><feMerge><feMergeNode in="blur"/><feMergeNode in="SourceGraphic"/></feMerge></filter>
<filter id="wideGlow" x="-120%" y="-120%" width="340%" height="340%"><feGaussianBlur stdDeviation="34" result="blur"/><feMerge><feMergeNode in="blur"/><feMergeNode in="SourceGraphic"/></feMerge></filter>
</defs>
<ellipse cx="960" cy="761.5" rx="281.6" ry="204.4" fill="none" stroke="#70d6ff" stroke-width="4" opacity="0.175" filter="url(#softGlow)"/>
<path d="M820 740 C770 700 770 825 825 795" stroke="#c4f4ff" stroke-width="10" opacity="0.257" fill="none" stroke-linecap="round" filter="url(#softGlow)"/>
<path d="M1098 724 C1162 686 1164 822 1098 794" stroke="#c4f4ff" stroke-width="10" opacity="0.223" fill="none" stroke-linecap="round" filter="url(#softGlow)"/>
<circle cx="1044.0" cy="861.5" r="4.0" fill="#c8f7ff" opacity="0.112" filter="url(#softGlow)"/>
<circle cx="1158.4" cy="755.3" r="5.0" fill="#c8f7ff" opacity="0.164" filter="url(#softGlow)"/>
<circle cx="1215.2" cy="655.9" r="6.0" fill="#c8f7ff" opacity="0.238" filter="url(#softGlow)"/>
<circle cx="1095.5" cy="586.0" r="7.0" fill="#c8f7ff" opacity="0.304" filter="url(#softGlow)"/>
<circle cx="996.5" cy="653.8" r="4.0" fill="#c8f7ff" opacity="0.338" filter="url(#softGlow)"/>
<circle cx="844.0" cy="751.8" r="5.0" fill="#c8f7ff" opacity="0.327" filter="url(#softGlow)"/>
<circle cx="791.0" cy="859.2" r="6.0" fill="#c8f7ff" opacity="0.275" filter="url(#softGlow)"/>
<circle cx="738.7" cy="940.6" r="7.0" fill="#c8f7ff" opacity="0.201" filter="url(#softGlow)"/>
<circle cx="777.6" cy="885.3" r="4.0" fill="#c8f7ff" opacity="0.135" filter="url(#softGlow)"/>
<circle cx="930.6" cy="797.0" r="5.0" fill="#c8f7ff" opacity="0.101" filter="url(#softGlow)"/>



<g opacity="0.578" filter="url(#softGlow)">
  <line x1="616.8" y1="497.5" x2="906.8" y2="393.1" stroke="#d6a4ff" stroke-width="8" stroke-linecap="round"/>
  <line x1="634.8" y1="491.5" x2="1056.8" y2="339.1" stroke="#ffffff" stroke-width="2" stroke-linecap="round" opacity="0.92"/>
</g>




<circle cx="82" cy="194" r="3.6" fill="#bff7ff" opacity="0.039" filter="url(#softGlow)"/>
<circle cx="1432" cy="110" r="2.8" fill="#bff7ff" opacity="0.067" filter="url(#softGlow)"/>
<circle cx="442" cy="88" r="2.1" fill="#bff7ff" opacity="0.051" filter="url(#softGlow)"/>
<circle cx="1762" cy="616" r="3.6" fill="#bff7ff" opacity="0.055" filter="url(#softGlow)"/>
<circle cx="1637" cy="506" r="3.5" fill="#bff7ff" opacity="0.059" filter="url(#softGlow)"/>
<circle cx="952" cy="290" r="2.9" fill="#bff7ff" opacity="0.042" filter="url(#softGlow)"/>
<circle cx="1317" cy="245" r="2.2" fill="#bff7ff" opacity="0.064" filter="url(#softGlow)"/>
<circle cx="1542" cy="350" r="2.8" fill="#bff7ff" opacity="0.025" filter="url(#softGlow)"/>
<circle cx="543" cy="164" r="4.1" fill="#bff7ff" opacity="0.033" filter="url(#softGlow)"/>
<circle cx="975" cy="778" r="2.6" fill="#bff7ff" opacity="0.059" filter="url(#softGlow)"/>
<circle cx="1589" cy="112" r="3.7" fill="#bff7ff" opacity="0.044" filter="url(#softGlow)"/>
<circle cx="1816" cy="486" r="2.7" fill="#bff7ff" opacity="0.033" filter="url(#softGlow)"/>
<circle cx="1595" cy="724" r="3.8" fill="#bff7ff" opacity="0.061" filter="url(#softGlow)"/>
<circle cx="1064" cy="378" r="3.3" fill="#bff7ff" opacity="0.026" filter="url(#softGlow)"/>
</svg>