<svg xmlns="http://www.w3.org/2000/svg" width="1920" height="1080" viewBox="0 0 1920 1080">
<defs>
<radialGradient id="spaceGlow" cx="52%" cy="56%" r="54%"><stop offset="0%" stop-color="#132a42"/><stop offset="38%" stop-color="#111630"/><stop offset="100%" stop-color="#030712"/></radialGradient>
<radialGradient id="robotBody" cx="40%" cy="24%" r="85%"><stop offset="0%" stop-color="#ffffff"/><stop offset="52%" stop-color="#dce9ff"/><stop offset="100%" stop-color="#93a6bd"/></radialGradient>
<radialGradient id="blueCore" cx="40%" cy="30%" r="70%"><stop offset="0%" stop-color="#8df4ff"/><stop offset="45%" stop-color="#4895ff"/><stop offset="100%" stop-color="#1a47ff"/></radialGradient>
<filter id="softGlow" x="-80%" y="-80%" width="260%" height="260%"><feGaussianBlur stdDeviation="16" result="blur"/><feMerge><feMergeNode in="blur"/><feMergeNode in="SourceGraphic"/></feMerge></filter>
<filter id="wideGlow" x="-120%" y="-120%" width="340%" height="340%"><feGaussianBlur stdDeviation="34" result="blur"/><feMerge><feMergeNode in="blur"/><feMergeNode in="SourceGraphic"/></feMerge></filter>
</defs>
<ellipse cx="960" cy="758.9" rx="277.1" ry="202.0" fill="none" stroke="#70d6ff" stroke-width="4" opacity="0.158" filter="url(#softGlow)"/>
<path d="M820 740 C770 700 770 825 825 795" stroke="#c4f4ff" stroke-width="10" opacity="0.227" fill="none" stroke-linecap="round" filter="url(#softGlow)"/>
<path d="M1098 724 C1162 686 1164 822 1098 794" stroke="#c4f4ff" stroke-width="10" opacity="0.253" fill="none" stroke-linecap="round" filter="url(#softGlow)"/>
<circle cx="1062.7" cy="845.1" r="4.0" fill="#c8f7ff" opacity="0.119" filter="url(#softGlow)"/>
<circle cx="1168.9" cy="731.3" r="5.0" fill="#c8f7ff" opacity="0.177" filter="url(#softGlow)"/>
<circle cx="1209.3" cy="642.8" r="6.0" fill="#c8f7ff" opacity="0.251" filter="url(#softGlow)"/>
<circle cx="1079.5" cy="587.4" r="7.0" fill="#c8f7ff" opacity="0.313" filter="url(#softGlow)"/>
<circle cx="971.3" cy="668.7" r="4.0" fill="#c8f7ff" opacity="0.340" filter="url(#softGlow)"/>
<circle cx="818.7" cy="776.0" r="5.0" fill="#c8f7ff" opacity="0.320" filter="url(#softGlow)"/>
<circle cx="782.3" cy="874.0" r="6.0" fill="#c8f7ff" opacity="0.262" filter="url(#softGlow)"/>
<circle cx="744.0" cy="942.0" r="7.0" fill="#c8f7ff" opacity="0.188" filter="url(#softGlow)"/>
<circle cx="799.4" cy="872.3" r="4.0" fill="#c8f7ff" opacity="0.126" filter="url(#softGlow)"/>
<circle cx="952.0" cy="773.0" r="5.0" fill="#c8f7ff" opacity="0.100" filter="url(#softGlow)"/>



<g opacity="0.361" filter="url(#softGlow)">
  <line x1="611.5" y1="499.5" x2="901.5" y2="395.1" stroke="#d6a4ff" stroke-width="8" stroke-linecap="round"/>
  <line x1="629.5" y1="493.5" x2="1051.5" y2="341.1" stroke="#ffffff" stroke-width="2" stroke-linecap="round" opacity="0.92"/>
</g>




<circle cx="1486" cy="805" r="2.0" fill="#bff7ff" opacity="0.064" filter="url(#softGlow)"/>
<circle cx="1157" cy="420" r="1.5" fill="#bff7ff" opacity="0.052" filter="url(#softGlow)"/>
<circle cx="1833" cy="875" r="3.7" fill="#bff7ff" opacity="0.034" filter="url(#softGlow)"/>
<circle cx="1712" cy="330" r="3.9" fill="#bff7ff" opacity="0.056" filter="url(#softGlow)"/>
<circle cx="1170" cy="954" r="2.6" fill="#bff7ff" opacity="0.023" filter="url(#softGlow)"/>
<circle cx="116" cy="330" r="3.3" fill="#bff7ff" opacity="0.079" filter="url(#softGlow)"/>
<circle cx="1466" cy="836" r="1.8" fill="#bff7ff" opacity="0.035" filter="url(#softGlow)"/>
<circle cx="1416" cy="723" r="3.1" fill="#bff7ff" opacity="0.065" filter="url(#softGlow)"/>
<circle cx="1014" cy="37" r="3.4" fill="#bff7ff" opacity="0.043" filter="url(#softGlow)"/>
<circle cx="322" cy="193" r="2.0" fill="#bff7ff" opacity="0.034" filter="url(#softGlow)"/>
<circle cx="498" cy="300" r="3.3" fill="#bff7ff" opacity="0.079" filter="url(#softGlow)"/>
<circle cx="1536" cy="665" r="3.3" fill="#bff7ff" opacity="0.064" filter="url(#softGlow)"/>
<circle cx="695" cy="451" r="4.0" fill="#bff7ff" opacity="0.021" filter="url(#softGlow)"/>
<circle cx="648" cy="393" r="4.1" fill="#bff7ff" opacity="0.084" filter="url(#softGlow)"/>
</svg>