<svg xmlns="http://www.w3.org/2000/svg" width="1920" height="1080" viewBox="0 0 1920 1080">
<defs>
<radialGradient id="spaceGlow" cx="52%" cy="56%" r="54%"><stop offset="0%" stop-color="#132a42"/><stop offset="38%" stop-color="#111630"/><stop offset="100%" stop-color="#030712"/></radialGradient>
<radialGradient id="robotBody" cx="40%" cy="24%" r="85%"><stop offset="0%" stop-color="#ffffff"/><stop offset="52%" stop-color="#dce9ff"/><stop offset="100%" stop-color="#93a6bd"/></radialGradient>
<radialGradient id="blueCore" cx="40%" cy="30%" r="70%"><stop offset="0%" stop-color="#8df4ff"/><stop offset="45%" stop-color="#4895ff"/><stop offset="100%" stop-color="#1a47ff"/></radialGradient>
<filter id="softGlow" x="-80%" y="-80%" width="260%" height="260%"><feGaussianBlur stdDeviation="16" result="blur"/><feMerge><feMergeNode in="blur"/><feMergeNode in="SourceGraphic"/></feMerge></filter>
<filter id="wideGlow" x="-120%" y="-120%" width="340%" height="340%"><feGaussianBlur stdDeviation="34" result="blur"/><feMerge><feMergeNode in="blur"/><feMergeNode in="SourceGraphic"/></feMerge></filter>
</defs>
<ellipse cx="960" cy="756.4" rx="273.1" ry="199.7" fill="none" stroke="#70d6ff" stroke-width="4" opacity="0.142" filter="url(#softGlow)"/>
<path d="M820 740 C770 700 770 825 825 795" stroke="#c4f4ff" stroke-width="10" opacity="0.201" fill="none" stroke-linecap="round" filter="url(#softGlow)"/>
<path d="M1098 724 C1162 686 1164 822 1098 794" stroke="#c4f4ff" stroke-width="10" opacity="0.279" fill="none" stroke-linecap="round" filter="url(#softGlow)"/>
<circle cx="1080.1" cy="827.2" r="4.0" fill="#c8f7ff" opacity="0.127" filter="url(#softGlow)"/>
<circle cx="1176.7" cy="707.9" r="5.0" fill="#c8f7ff" opacity="0.190" filter="url(#softGlow)"/>
<circle cx="1200.2" cy="631.9" r="6.0" fill="#c8f7ff" opacity="0.264" filter="url(#softGlow)"/>
<circle cx="1062.1" cy="592.1" r="7.0" fill="#c8f7ff" opacity="0.321" filter="url(#softGlow)"/>
<circle cx="945.9" cy="685.2" r="4.0" fill="#c8f7ff" opacity="0.340" filter="url(#softGlow)"/>
<circle cx="795.2" cy="799.9" r="5.0" fill="#c8f7ff" opacity="0.312" filter="url(#softGlow)"/>
<circle cx="775.8" cy="886.8" r="6.0" fill="#c8f7ff" opacity="0.249" filter="url(#softGlow)"/>
<circle cx="752.2" cy="940.1" r="7.0" fill="#c8f7ff" opacity="0.175" filter="url(#softGlow)"/>
<circle cx="823.3" cy="857.2" r="4.0" fill="#c8f7ff" opacity="0.118" filter="url(#softGlow)"/>
<circle cx="973.6" cy="748.8" r="5.0" fill="#c8f7ff" opacity="0.100" filter="url(#softGlow)"/>



<g opacity="0.123" filter="url(#softGlow)">
  <line x1="610.1" y1="500.0" x2="900.1" y2="395.6" stroke="#d6a4ff" stroke-width="8" stroke-linecap="round"/>
  <line x1="628.1" y1="494.0" x2="1050.1" y2="341.6" stroke="#ffffff" stroke-width="2" stroke-linecap="round" opacity="0.92"/>
</g>




<circle cx="1486" cy="805" r="2.0" fill="#bff7ff" opacity="0.074" filter="url(#softGlow)"/>
<circle cx="1157" cy="420" r="1.5" fill="#bff7ff" opacity="0.061" filter="url(#softGlow)"/>
<circle cx="1833" cy="875" r="3.7" fill="#bff7ff" opacity="0.040" filter="url(#softGlow)"/>
<circle cx="1712" cy="330" r="3.9" fill="#bff7ff" opacity="0.065" filter="url(#softGlow)"/>
<circle cx="1170" cy="954" r="2.6" fill="#bff7ff" opacity="0.027" filter="url(#softGlow)"/>
<circle cx="116" cy="330" r="3.3" fill="#bff7ff" opacity="0.092" filter="url(#softGlow)"/>
<circle cx="1466" cy="836" r="1.8" fill="#bff7ff" opacity="0.041" filter="url(#softGlow)"/>
<circle cx="1416" cy="723" r="3.1" fill="#bff7ff" opacity="0.076" filter="url(#softGlow)"/>
<circle cx="1014" cy="37" r="3.4" fill="#bff7ff" opacity="0.050" filter="url(#softGlow)"/>
<circle cx="322" cy="193" r="2.0" fill="#bff7ff" opacity="0.040" filter="url(#softGlow)"/>
<circle cx="498" cy="300" r="3.3" fill="#bff7ff" opacity="0.092" filter="url(#softGlow)"/>
<circle cx="1536" cy="665" r="3.3" fill="#bff7ff" opacity="0.075" filter="url(#softGlow)"/>
<circle cx="695" cy="451" r="4.0" fill="#bff7ff" opacity="0.024" filter="url(#softGlow)"/>
<circle cx="648" cy="393" r="4.1" fill="#bff7ff" opacity="0.098" filter="url(#softGlow)"/>
</svg>