<svg xmlns="http://www.w3.org/2000/svg" width="1920" height="1080" viewBox="0 0 1920 1080">
<defs>
<radialGradient id="spaceGlow" cx="52%" cy="56%" r="54%"><stop offset="0%" stop-color="#132a42"/><stop offset="38%" stop-color="#111630"/><stop offset="100%" stop-color="#030712"/></radialGradient>
<radialGradient id="robotBody" cx="40%" cy="24%" r="85%"><stop offset="0%" stop-color="#ffffff"/><stop offset="52%" stop-color="#dce9ff"/><stop offset="100%" stop-color="#93a6bd"/></radialGradient>
<radialGradient id="blueCore" cx="40%" cy="30%" r="70%"><stop offset="0%" stop-color="#8df4ff"/><stop offset="45%" stop-color="#4895ff"/><stop offset="100%" stop-color="#1a47ff"/></radialGradient>
<filter id="softGlow" x="-80%" y="-80%" width="260%" height="260%"><feGaussianBlur stdDeviation="16" result="blur"/><feMerge><feMergeNode in="blur"/><feMergeNode in="SourceGraphic"/></feMerge></filter>
<filter id="wideGlow" x="-120%" y="-120%" width="340%" height="340%"><feGaussianBlur stdDeviation="34" result="blur"/><feMerge><feMergeNode in="blur"/><feMergeNode in="SourceGraphic"/></feMerge></filter>
</defs>
<ellipse cx="960" cy="755.2" rx="271.6" ry="198.9" fill="none" stroke="#70d6ff" stroke-width="4" opacity="0.136" filter="url(#softGlow)"/>
<path d="M820 740 C770 700 770 825 825 795" stroke="#c4f4ff" stroke-width="10" opacity="0.191" fill="none" stroke-linecap="round" filter="url(#softGlow)"/>
<path d="M1098 724 C1162 686 1164 822 1098 794" stroke="#c4f4ff" stroke-width="10" opacity="0.289" fill="none" stroke-linecap="round" filter="url(#softGlow)"/>
<circle cx="1088.3" cy="817.8" r="4.0" fill="#c8f7ff" opacity="0.131" filter="url(#softGlow)"/>
<circle cx="1179.6" cy="696.5" r="5.0" fill="#c8f7ff" opacity="0.196" filter="url(#softGlow)"/>
<circle cx="1194.5" cy="627.4" r="6.0" fill="#c8f7ff" opacity="0.270" filter="url(#softGlow)"/>
<circle cx="1052.8" cy="595.6" r="7.0" fill="#c8f7ff" opacity="0.325" filter="url(#softGlow)"/>
<circle cx="933.3" cy="694.1" r="4.0" fill="#c8f7ff" opacity="0.339" filter="url(#softGlow)"/>
<circle cx="784.2" cy="811.7" r="5.0" fill="#c8f7ff" opacity="0.308" filter="url(#softGlow)"/>
<circle cx="773.5" cy="892.4" r="6.0" fill="#c8f7ff" opacity="0.243" filter="url(#softGlow)"/>
<circle cx="757.2" cy="938.0" r="7.0" fill="#c8f7ff" opacity="0.169" filter="url(#softGlow)"/>
<circle cx="835.9" cy="849.0" r="4.0" fill="#c8f7ff" opacity="0.115" filter="url(#softGlow)"/>
<circle cx="984.3" cy="736.8" r="5.0" fill="#c8f7ff" opacity="0.101" filter="url(#softGlow)"/>

<g transform="translate(1820.0 180.3)" opacity="0.000" filter="url(#softGlow)">
  <ellipse cx="0" cy="0" rx="92" ry="23" fill="#85f7ff" opacity="0.92"/>
  <ellipse cx="0" cy="-18" rx="46" ry="30" fill="#b9ffcc" opacity="0.76"/>
  <circle cx="-46" cy="4" r="8" fill="#f7ff82"/><circle cx="0" cy="7" r="8" fill="#ff7ddb"/><circle cx="46" cy="4" r="8" fill="#f7ff82"/>
  <path d="M-42 18 L38 18 L118 180 L-118 180 Z" fill="#7dffb3" opacity="0.000"/>
</g>


<g opacity="0.000" filter="url(#softGlow)">
  <line x1="610.0" y1="500.0" x2="900.0" y2="395.6" stroke="#d6a4ff" stroke-width="8" stroke-linecap="round"/>
  <line x1="628.0" y1="494.0" x2="1050.0" y2="341.6" stroke="#ffffff" stroke-width="2" stroke-linecap="round" opacity="0.92"/>
</g>




<circle cx="325" cy="365" r="2.2" fill="#bff7ff" opacity="0.068" filter="url(#softGlow)"/>
<circle cx="1241" cy="562" r="3.6" fill="#bff7ff" opacity="0.110" filter="url(#softGlow)"/>
<circle cx="945" cy="380" r="2.6" fill="#bff7ff" opacity="0.111" filter="url(#softGlow)"/>
<circle cx="907" cy="406" r="3.1" fill="#bff7ff" opacity="0.080" filter="url(#softGlow)"/>
<circle cx="1207" cy="829" r="2.6" fill="#bff7ff" opacity="0.113" filter="url(#softGlow)"/>
<circle cx="211" cy="740" r="2.5" fill="#bff7ff" opacity="0.089" filter="url(#softGlow)"/>
<circle cx="240" cy="921" r="1.6" fill="#bff7ff" opacity="0.083" filter="url(#softGlow)"/>
<circle cx="1594" cy="92" r="3.3" fill="#bff7ff" opacity="0.034" filter="url(#softGlow)"/>
<circle cx="457" cy="526" r="3.0" fill="#bff7ff" opacity="0.060" filter="url(#softGlow)"/>
<circle cx="531" cy="499" r="2.5" fill="#bff7ff" opacity="0.093" filter="url(#softGlow)"/>
<circle cx="1429" cy="289" r="3.0" fill="#bff7ff" opacity="0.057" filter="url(#softGlow)"/>
<circle cx="1832" cy="907" r="3.3" fill="#bff7ff" opacity="0.074" filter="url(#softGlow)"/>
<circle cx="1237" cy="513" r="3.1" fill="#bff7ff" opacity="0.071" filter="url(#softGlow)"/>
<circle cx="1141" cy="310" r="3.2" fill="#bff7ff" opacity="0.026" filter="url(#softGlow)"/>
</svg>