<svg xmlns="http://www.w3.org/2000/svg" width="1920" height="1080" viewBox="0 0 1920 1080">
<defs>
<radialGradient id="spaceGlow" cx="52%" cy="56%" r="54%"><stop offset="0%" stop-color="#132a42"/><stop offset="38%" stop-color="#111630"/><stop offset="100%" stop-color="#030712"/></radialGradient>
<radialGradient id="robotBody" cx="40%" cy="24%" r="85%"><stop offset="0%" stop-color="#ffffff"/><stop offset="52%" stop-color="#dce9ff"/><stop offset="100%" stop-color="#93a6bd"/></radialGradient>
<radialGradient id="blueCore" cx="40%" cy="30%" r="70%"><stop offset="0%" stop-color="#8df4ff"/><stop offset="45%" stop-color="#4895ff"/><stop offset="100%" stop-color="#1a47ff"/></radialGradient>
<filter id="softGlow" x="-80%" y="-80%" width="260%" height="260%"><feGaussianBlur stdDeviation="16" result="blur"/><feMerge><feMergeNode in="blur"/><feMergeNode in="SourceGraphic"/></feMerge></filter>
<filter id="wideGlow" x="-120%" y="-120%" width="340%" height="340%"><feGaussianBlur stdDeviation="34" result="blur"/><feMerge><feMergeNode in="blur"/><feMergeNode in="SourceGraphic"/></feMerge></filter>
</defs>
<ellipse cx="960" cy="754.0" rx="270.6" ry="198.3" fill="none" stroke="#70d6ff" stroke-width="4" opacity="0.132" filter="url(#softGlow)"/>
<path d="M820 740 C770 700 770 825 825 795" stroke="#c4f4ff" stroke-width="10" opacity="0.184" fill="none" stroke-linecap="round" filter="url(#softGlow)"/>
<path d="M1098 724 C1162 686 1164 822 1098 794" stroke="#c4f4ff" stroke-width="10" opacity="0.296" fill="none" stroke-linecap="round" filter="url(#softGlow)"/>
<circle cx="1096.0" cy="808.2" r="4.0" fill="#c8f7ff" opacity="0.136" filter="url(#softGlow)"/>
<circle cx="1181.7" cy="685.5" r="5.0" fill="#c8f7ff" opacity="0.203" filter="url(#softGlow)"/>
<circle cx="1188.0" cy="623.5" r="6.0" fill="#c8f7ff" opacity="0.276" filter="url(#softGlow)"/>
<circle cx="1043.3" cy="599.9" r="7.0" fill="#c8f7ff" opacity="0.328" filter="url(#softGlow)"/>
<circle cx="920.7" cy="703.3" r="4.0" fill="#c8f7ff" opacity="0.338" filter="url(#softGlow)"/>
<circle cx="773.8" cy="823.2" r="5.0" fill="#c8f7ff" opacity="0.303" filter="url(#softGlow)"/>
<circle cx="771.7" cy="897.4" r="6.0" fill="#c8f7ff" opacity="0.236" filter="url(#softGlow)"/>
<circle cx="762.9" cy="935.0" r="7.0" fill="#c8f7ff" opacity="0.163" filter="url(#softGlow)"/>
<circle cx="848.9" cy="840.4" r="4.0" fill="#c8f7ff" opacity="0.112" filter="url(#softGlow)"/>
<circle cx="994.9" cy="724.9" r="5.0" fill="#c8f7ff" opacity="0.102" filter="url(#softGlow)"/>

<g transform="translate(1819.7 182.2)" opacity="0.024" filter="url(#softGlow)">
  <ellipse cx="0" cy="0" rx="92" ry="23" fill="#85f7ff" opacity="0.92"/>
  <ellipse cx="0" cy="-18" rx="46" ry="30" fill="#b9ffcc" opacity="0.76"/>
  <circle cx="-46" cy="4" r="8" fill="#f7ff82"/><circle cx="0" cy="7" r="8" fill="#ff7ddb"/><circle cx="46" cy="4" r="8" fill="#f7ff82"/>
  <path d="M-42 18 L38 18 L118 180 L-118 180 Z" fill="#7dffb3" opacity="0.003"/>
</g>






<circle cx="325" cy="365" r="2.2" fill="#bff7ff" opacity="0.073" filter="url(#softGlow)"/>
<circle cx="1241" cy="562" r="3.6" fill="#bff7ff" opacity="0.118" filter="url(#softGlow)"/>
<circle cx="945" cy="380" r="2.6" fill="#bff7ff" opacity="0.119" filter="url(#softGlow)"/>
<circle cx="907" cy="406" r="3.1" fill="#bff7ff" opacity="0.086" filter="url(#softGlow)"/>
<circle cx="1207" cy="829" r="2.6" fill="#bff7ff" opacity="0.121" filter="url(#softGlow)"/>
<circle cx="211" cy="740" r="2.5" fill="#bff7ff" opacity="0.095" filter="url(#softGlow)"/>
<circle cx="240" cy="921" r="1.6" fill="#bff7ff" opacity="0.089" filter="url(#softGlow)"/>
<circle cx="1594" cy="92" r="3.3" fill="#bff7ff" opacity="0.036" filter="url(#softGlow)"/>
<circle cx="457" cy="526" r="3.0" fill="#bff7ff" opacity="0.064" filter="url(#softGlow)"/>
<circle cx="531" cy="499" r="2.5" fill="#bff7ff" opacity="0.100" filter="url(#softGlow)"/>
<circle cx="1429" cy="289" r="3.0" fill="#bff7ff" opacity="0.061" filter="url(#softGlow)"/>
<circle cx="1832" cy="907" r="3.3" fill="#bff7ff" opacity="0.079" filter="url(#softGlow)"/>
<circle cx="1237" cy="513" r="3.1" fill="#bff7ff" opacity="0.076" filter="url(#softGlow)"/>
<circle cx="1141" cy="310" r="3.2" fill="#bff7ff" opacity="0.027" filter="url(#softGlow)"/>
</svg>