<svg xmlns="http://www.w3.org/2000/svg" width="1920" height="1080" viewBox="0 0 1920 1080">
<defs>
<radialGradient id="spaceGlow" cx="52%" cy="56%" r="54%"><stop offset="0%" stop-color="#132a42"/><stop offset="38%" stop-color="#111630"/><stop offset="100%" stop-color="#030712"/></radialGradient>
<radialGradient id="robotBody" cx="40%" cy="24%" r="85%"><stop offset="0%" stop-color="#ffffff"/><stop offset="52%" stop-color="#dce9ff"/><stop offset="100%" stop-color="#93a6bd"/></radialGradient>
<radialGradient id="blueCore" cx="40%" cy="30%" r="70%"><stop offset="0%" stop-color="#8df4ff"/><stop offset="45%" stop-color="#4895ff"/><stop offset="100%" stop-color="#1a47ff"/></radialGradient>
<filter id="softGlow" x="-80%" y="-80%" width="260%" height="260%"><feGaussianBlur stdDeviation="16" result="blur"/><feMerge><feMergeNode in="blur"/><feMergeNode in="SourceGraphic"/></feMerge></filter>
<filter id="wideGlow" x="-120%" y="-120%" width="340%" height="340%"><feGaussianBlur stdDeviation="34" result="blur"/><feMerge><feMergeNode in="blur"/><feMergeNode in="SourceGraphic"/></feMerge></filter>
</defs>
<ellipse cx="960" cy="752.8" rx="270.1" ry="198.0" fill="none" stroke="#70d6ff" stroke-width="4" opacity="0.130" filter="url(#softGlow)"/>
<path d="M820 740 C770 700 770 825 825 795" stroke="#c4f4ff" stroke-width="10" opacity="0.180" fill="none" stroke-linecap="round" filter="url(#softGlow)"/>
<path d="M1098 724 C1162 686 1164 822 1098 794" stroke="#c4f4ff" stroke-width="10" opacity="0.300" fill="none" stroke-linecap="round" filter="url(#softGlow)"/>
<circle cx="1103.3" cy="798.4" r="4.0" fill="#c8f7ff" opacity="0.141" filter="url(#softGlow)"/>
<circle cx="1183.2" cy="674.8" r="5.0" fill="#c8f7ff" opacity="0.210" filter="url(#softGlow)"/>
<circle cx="1180.8" cy="620.3" r="6.0" fill="#c8f7ff" opacity="0.282" filter="url(#softGlow)"/>
<circle cx="1033.5" cy="605.0" r="7.0" fill="#c8f7ff" opacity="0.331" filter="url(#softGlow)"/>
<circle cx="908.3" cy="712.7" r="4.0" fill="#c8f7ff" opacity="0.337" filter="url(#softGlow)"/>
<circle cx="764.0" cy="834.5" r="5.0" fill="#c8f7ff" opacity="0.298" filter="url(#softGlow)"/>
<circle cx="770.6" cy="901.7" r="6.0" fill="#c8f7ff" opacity="0.229" filter="url(#softGlow)"/>
<circle cx="769.3" cy="931.3" r="7.0" fill="#c8f7ff" opacity="0.157" filter="url(#softGlow)"/>
<circle cx="862.2" cy="831.4" r="4.0" fill="#c8f7ff" opacity="0.109" filter="url(#softGlow)"/>
<circle cx="1005.4" cy="713.2" r="5.0" fill="#c8f7ff" opacity="0.103" filter="url(#softGlow)"/>

<g transform="translate(1818.9 185.0)" opacity="0.049" filter="url(#softGlow)">
  <ellipse cx="0" cy="0" rx="92" ry="23" fill="#85f7ff" opacity="0.92"/>
  <ellipse cx="0" cy="-18" rx="46" ry="30" fill="#b9ffcc" opacity="0.76"/>
  <circle cx="-46" cy="4" r="8" fill="#f7ff82"/><circle cx="0" cy="7" r="8" fill="#ff7ddb"/><circle cx="46" cy="4" r="8" fill="#f7ff82"/>
  <path d="M-42 18 L38 18 L118 180 L-118 180 Z" fill="#7dffb3" opacity="0.006"/>
</g>






<circle cx="325" cy="365" r="2.2" fill="#bff7ff" opacity="0.078" filter="url(#softGlow)"/>
<circle cx="1241" cy="562" r="3.6" fill="#bff7ff" opacity="0.125" filter="url(#softGlow)"/>
<circle cx="945" cy="380" r="2.6" fill="#bff7ff" opacity="0.126" filter="url(#softGlow)"/>
<circle cx="907" cy="406" r="3.1" fill="#bff7ff" opacity="0.091" filter="url(#softGlow)"/>
<circle cx="1207" cy="829" r="2.6" fill="#bff7ff" opacity="0.128" filter="url(#softGlow)"/>
<circle cx="211" cy="740" r="2.5" fill="#bff7ff" opacity="0.101" filter="url(#softGlow)"/>
<circle cx="240" cy="921" r="1.6" fill="#bff7ff" opacity="0.094" filter="url(#softGlow)"/>
<circle cx="1594" cy="92" r="3.3" fill="#bff7ff" opacity="0.038" filter="url(#softGlow)"/>
<circle cx="457" cy="526" r="3.0" fill="#bff7ff" opacity="0.068" filter="url(#softGlow)"/>
<circle cx="531" cy="499" r="2.5" fill="#bff7ff" opacity="0.106" filter="url(#softGlow)"/>
<circle cx="1429" cy="289" r="3.0" fill="#bff7ff" opacity="0.065" filter="url(#softGlow)"/>
<circle cx="1832" cy="907" r="3.3" fill="#bff7ff" opacity="0.084" filter="url(#softGlow)"/>
<circle cx="1237" cy="513" r="3.1" fill="#bff7ff" opacity="0.081" filter="url(#softGlow)"/>
<circle cx="1141" cy="310" r="3.2" fill="#bff7ff" opacity="0.029" filter="url(#softGlow)"/>
</svg>