<svg xmlns="http://www.w3.org/2000/svg" width="1920" height="1080" viewBox="0 0 1920 1080">
<defs>
<radialGradient id="spaceGlow" cx="52%" cy="56%" r="54%"><stop offset="0%" stop-color="#132a42"/><stop offset="38%" stop-color="#111630"/><stop offset="100%" stop-color="#030712"/></radialGradient>
<radialGradient id="robotBody" cx="40%" cy="24%" r="85%"><stop offset="0%" stop-color="#ffffff"/><stop offset="52%" stop-color="#dce9ff"/><stop offset="100%" stop-color="#93a6bd"/></radialGradient>
<radialGradient id="blueCore" cx="40%" cy="30%" r="70%"><stop offset="0%" stop-color="#8df4ff"/><stop offset="45%" stop-color="#4895ff"/><stop offset="100%" stop-color="#1a47ff"/></radialGradient>
<filter id="softGlow" x="-80%" y="-80%" width="260%" height="260%"><feGaussianBlur stdDeviation="16" result="blur"/><feMerge><feMergeNode in="blur"/><feMergeNode in="SourceGraphic"/></feMerge></filter>
<filter id="wideGlow" x="-120%" y="-120%" width="340%" height="340%"><feGaussianBlur stdDeviation="34" result="blur"/><feMerge><feMergeNode in="blur"/><feMergeNode in="SourceGraphic"/></feMerge></filter>
</defs>
<ellipse cx="960" cy="748.6" rx="273.3" ry="199.9" fill="none" stroke="#70d6ff" stroke-width="4" opacity="0.143" filter="url(#softGlow)"/>
<path d="M820 740 C770 700 770 825 825 795" stroke="#c4f4ff" stroke-width="10" opacity="0.202" fill="none" stroke-linecap="round" filter="url(#softGlow)"/>
<path d="M1098 724 C1162 686 1164 822 1098 794" stroke="#c4f4ff" stroke-width="10" opacity="0.278" fill="none" stroke-linecap="round" filter="url(#softGlow)"/>
<circle cx="1127.7" cy="757.9" r="4.0" fill="#c8f7ff" opacity="0.164" filter="url(#softGlow)"/>
<circle cx="1181.8" cy="636.7" r="5.0" fill="#c8f7ff" opacity="0.237" filter="url(#softGlow)"/>
<circle cx="1145.1" cy="614.0" r="6.0" fill="#c8f7ff" opacity="0.304" filter="url(#softGlow)"/>
<circle cx="992.2" cy="632.3" r="7.0" fill="#c8f7ff" opacity="0.338" filter="url(#softGlow)"/>
<circle cx="860.6" cy="752.5" r="4.0" fill="#c8f7ff" opacity="0.328" filter="url(#softGlow)"/>
<circle cx="731.3" cy="875.8" r="5.0" fill="#c8f7ff" opacity="0.276" filter="url(#softGlow)"/>
<circle cx="772.1" cy="912.6" r="6.0" fill="#c8f7ff" opacity="0.202" filter="url(#softGlow)"/>
<circle cx="800.6" cy="908.8" r="7.0" fill="#c8f7ff" opacity="0.136" filter="url(#softGlow)"/>
<circle cx="918.4" cy="793.0" r="4.0" fill="#c8f7ff" opacity="0.102" filter="url(#softGlow)"/>
<circle cx="1045.7" cy="669.2" r="5.0" fill="#c8f7ff" opacity="0.113" filter="url(#softGlow)"/>

<g transform="translate(1810.2 200.4)" opacity="0.146" filter="url(#softGlow)">
  <ellipse cx="0" cy="0" rx="92" ry="23" fill="#85f7ff" opacity="0.92"/>
  <ellipse cx="0" cy="-18" rx="46" ry="30" fill="#b9ffcc" opacity="0.76"/>
  <circle cx="-46" cy="4" r="8" fill="#f7ff82"/><circle cx="0" cy="7" r="8" fill="#ff7ddb"/><circle cx="46" cy="4" r="8" fill="#f7ff82"/>
  <path d="M-42 18 L38 18 L118 180 L-118 180 Z" fill="#7dffb3" opacity="0.017"/>
</g>






<circle cx="1824" cy="594" r="3.9" fill="#bff7ff" opacity="0.091" filter="url(#softGlow)"/>
<circle cx="1441" cy="873" r="3.1" fill="#bff7ff" opacity="0.129" filter="url(#softGlow)"/>
<circle cx="1580" cy="579" r="2.8" fill="#bff7ff" opacity="0.092" filter="url(#softGlow)"/>
<circle cx="936" cy="755" r="1.5" fill="#bff7ff" opacity="0.098" filter="url(#softGlow)"/>
<circle cx="1271" cy="53" r="2.8" fill="#bff7ff" opacity="0.030" filter="url(#softGlow)"/>
<circle cx="1465" cy="41" r="2.6" fill="#bff7ff" opacity="0.062" filter="url(#softGlow)"/>
<circle cx="825" cy="869" r="2.1" fill="#bff7ff" opacity="0.044" filter="url(#softGlow)"/>
<circle cx="157" cy="479" r="2.9" fill="#bff7ff" opacity="0.101" filter="url(#softGlow)"/>
<circle cx="320" cy="292" r="4.0" fill="#bff7ff" opacity="0.132" filter="url(#softGlow)"/>
<circle cx="99" cy="676" r="2.2" fill="#bff7ff" opacity="0.125" filter="url(#softGlow)"/>
<circle cx="506" cy="491" r="3.3" fill="#bff7ff" opacity="0.139" filter="url(#softGlow)"/>
<circle cx="193" cy="365" r="1.7" fill="#bff7ff" opacity="0.139" filter="url(#softGlow)"/>
<circle cx="1014" cy="666" r="4.2" fill="#bff7ff" opacity="0.129" filter="url(#softGlow)"/>
<circle cx="780" cy="977" r="3.3" fill="#bff7ff" opacity="0.073" filter="url(#softGlow)"/>
</svg>