<svg xmlns="http://www.w3.org/2000/svg" width="1920" height="1080" viewBox="0 0 1920 1080">
<defs>
<radialGradient id="spaceGlow" cx="52%" cy="56%" r="54%"><stop offset="0%" stop-color="#132a42"/><stop offset="38%" stop-color="#111630"/><stop offset="100%" stop-color="#030712"/></radialGradient>
<radialGradient id="robotBody" cx="40%" cy="24%" r="85%"><stop offset="0%" stop-color="#ffffff"/><stop offset="52%" stop-color="#dce9ff"/><stop offset="100%" stop-color="#93a6bd"/></radialGradient>
<radialGradient id="blueCore" cx="40%" cy="30%" r="70%"><stop offset="0%" stop-color="#8df4ff"/><stop offset="45%" stop-color="#4895ff"/><stop offset="100%" stop-color="#1a47ff"/></radialGradient>
<filter id="softGlow" x="-80%" y="-80%" width="260%" height="260%"><feGaussianBlur stdDeviation="16" result="blur"/><feMerge><feMergeNode in="blur"/><feMergeNode in="SourceGraphic"/></feMerge></filter>
<filter id="wideGlow" x="-120%" y="-120%" width="340%" height="340%"><feGaussianBlur stdDeviation="34" result="blur"/><feMerge><feMergeNode in="blur"/><feMergeNode in="SourceGraphic"/></feMerge></filter>
</defs>
<ellipse cx="960" cy="745.9" rx="279.6" ry="203.3" fill="none" stroke="#70d6ff" stroke-width="4" opacity="0.167" filter="url(#softGlow)"/>
<path d="M820 740 C770 700 770 825 825 795" stroke="#c4f4ff" stroke-width="10" opacity="0.244" fill="none" stroke-linecap="round" filter="url(#softGlow)"/>
<path d="M1098 724 C1162 686 1164 822 1098 794" stroke="#c4f4ff" stroke-width="10" opacity="0.236" fill="none" stroke-linecap="round" filter="url(#softGlow)"/>
<circle cx="1140.4" cy="727.6" r="4.0" fill="#c8f7ff" opacity="0.182" filter="url(#softGlow)"/>
<circle cx="1173.3" cy="614.1" r="5.0" fill="#c8f7ff" opacity="0.257" filter="url(#softGlow)"/>
<circle cx="1112.1" cy="616.6" r="6.0" fill="#c8f7ff" opacity="0.317" filter="url(#softGlow)"/>
<circle cx="960.1" cy="659.3" r="7.0" fill="#c8f7ff" opacity="0.340" filter="url(#softGlow)"/>
<circle cx="828.1" cy="783.0" r="4.0" fill="#c8f7ff" opacity="0.317" filter="url(#softGlow)"/>
<circle cx="714.4" cy="901.6" r="5.0" fill="#c8f7ff" opacity="0.257" filter="url(#softGlow)"/>
<circle cx="779.6" cy="913.6" r="6.0" fill="#c8f7ff" opacity="0.182" filter="url(#softGlow)"/>
<circle cx="829.5" cy="884.9" r="7.0" fill="#c8f7ff" opacity="0.122" filter="url(#softGlow)"/>
<circle cx="962.1" cy="762.6" r="4.0" fill="#c8f7ff" opacity="0.100" filter="url(#softGlow)"/>
<circle cx="1073.2" cy="640.6" r="5.0" fill="#c8f7ff" opacity="0.124" filter="url(#softGlow)"/>

<g transform="translate(1798.3 211.1)" opacity="0.217" filter="url(#softGlow)">
  <ellipse cx="0" cy="0" rx="92" ry="23" fill="#85f7ff" opacity="0.92"/>
  <ellipse cx="0" cy="-18" rx="46" ry="30" fill="#b9ffcc" opacity="0.76"/>
  <circle cx="-46" cy="4" r="8" fill="#f7ff82"/><circle cx="0" cy="7" r="8" fill="#ff7ddb"/><circle cx="46" cy="4" r="8" fill="#f7ff82"/>
  <path d="M-42 18 L38 18 L118 180 L-118 180 Z" fill="#7dffb3" opacity="0.026"/>
</g>






<circle cx="710" cy="982" r="1.8" fill="#bff7ff" opacity="0.118" filter="url(#softGlow)"/>
<circle cx="1269" cy="494" r="1.9" fill="#bff7ff" opacity="0.122" filter="url(#softGlow)"/>
<circle cx="1237" cy="256" r="2.8" fill="#bff7ff" opacity="0.175" filter="url(#softGlow)"/>
<circle cx="1192" cy="922" r="4.1" fill="#bff7ff" opacity="0.055" filter="url(#softGlow)"/>
<circle cx="1787" cy="929" r="1.6" fill="#bff7ff" opacity="0.118" filter="url(#softGlow)"/>
<circle cx="591" cy="780" r="1.5" fill="#bff7ff" opacity="0.124" filter="url(#softGlow)"/>
<circle cx="1103" cy="431" r="3.5" fill="#bff7ff" opacity="0.071" filter="url(#softGlow)"/>
<circle cx="513" cy="370" r="1.7" fill="#bff7ff" opacity="0.058" filter="url(#softGlow)"/>
<circle cx="1089" cy="206" r="3.7" fill="#bff7ff" opacity="0.124" filter="url(#softGlow)"/>
<circle cx="765" cy="917" r="2.7" fill="#bff7ff" opacity="0.127" filter="url(#softGlow)"/>
<circle cx="1657" cy="719" r="1.6" fill="#bff7ff" opacity="0.142" filter="url(#softGlow)"/>
<circle cx="1630" cy="752" r="2.8" fill="#bff7ff" opacity="0.172" filter="url(#softGlow)"/>
<circle cx="959" cy="115" r="2.0" fill="#bff7ff" opacity="0.167" filter="url(#softGlow)"/>
<circle cx="885" cy="107" r="3.8" fill="#bff7ff" opacity="0.136" filter="url(#softGlow)"/>
</svg>