<svg xmlns="http://www.w3.org/2000/svg" width="1920" height="1080" viewBox="0 0 1920 1080">
<defs>
<radialGradient id="spaceGlow" cx="52%" cy="56%" r="54%"><stop offset="0%" stop-color="#132a42"/><stop offset="38%" stop-color="#111630"/><stop offset="100%" stop-color="#030712"/></radialGradient>
<radialGradient id="robotBody" cx="40%" cy="24%" r="85%"><stop offset="0%" stop-color="#ffffff"/><stop offset="52%" stop-color="#dce9ff"/><stop offset="100%" stop-color="#93a6bd"/></radialGradient>
<radialGradient id="blueCore" cx="40%" cy="30%" r="70%"><stop offset="0%" stop-color="#8df4ff"/><stop offset="45%" stop-color="#4895ff"/><stop offset="100%" stop-color="#1a47ff"/></radialGradient>
<filter id="softGlow" x="-80%" y="-80%" width="260%" height="260%"><feGaussianBlur stdDeviation="16" result="blur"/><feMerge><feMergeNode in="blur"/><feMergeNode in="SourceGraphic"/></feMerge></filter>
<filter id="wideGlow" x="-120%" y="-120%" width="340%" height="340%"><feGaussianBlur stdDeviation="34" result="blur"/><feMerge><feMergeNode in="blur"/><feMergeNode in="SourceGraphic"/></feMerge></filter>
</defs>
<ellipse cx="960" cy="744.5" rx="283.8" ry="205.7" fill="none" stroke="#70d6ff" stroke-width="4" opacity="0.184" filter="url(#softGlow)"/>
<path d="M820 740 C770 700 770 825 825 795" stroke="#c4f4ff" stroke-width="10" opacity="0.272" fill="none" stroke-linecap="round" filter="url(#softGlow)"/>
<path d="M1098 724 C1162 686 1164 822 1098 794" stroke="#c4f4ff" stroke-width="10" opacity="0.208" fill="none" stroke-linecap="round" filter="url(#softGlow)"/>
<circle cx="1146.0" cy="708.2" r="4.0" fill="#c8f7ff" opacity="0.195" filter="url(#softGlow)"/>
<circle cx="1164.2" cy="602.5" r="5.0" fill="#c8f7ff" opacity="0.269" filter="url(#softGlow)"/>
<circle cx="1087.5" cy="621.7" r="6.0" fill="#c8f7ff" opacity="0.324" filter="url(#softGlow)"/>
<circle cx="938.6" cy="679.8" r="7.0" fill="#c8f7ff" opacity="0.339" filter="url(#softGlow)"/>
<circle cx="808.5" cy="803.0" r="4.0" fill="#c8f7ff" opacity="0.308" filter="url(#softGlow)"/>
<circle cx="707.0" cy="915.6" r="5.0" fill="#c8f7ff" opacity="0.244" filter="url(#softGlow)"/>
<circle cx="787.5" cy="910.9" r="6.0" fill="#c8f7ff" opacity="0.170" filter="url(#softGlow)"/>
<circle cx="850.9" cy="866.0" r="7.0" fill="#c8f7ff" opacity="0.115" filter="url(#softGlow)"/>
<circle cx="991.2" cy="742.2" r="4.0" fill="#c8f7ff" opacity="0.101" filter="url(#softGlow)"/>
<circle cx="1089.7" cy="624.4" r="5.0" fill="#c8f7ff" opacity="0.132" filter="url(#softGlow)"/>

<g transform="translate(1787.9 216.3)" opacity="0.265" filter="url(#softGlow)">
  <ellipse cx="0" cy="0" rx="92" ry="23" fill="#85f7ff" opacity="0.92"/>
  <ellipse cx="0" cy="-18" rx="46" ry="30" fill="#b9ffcc" opacity="0.76"/>
  <circle cx="-46" cy="4" r="8" fill="#f7ff82"/><circle cx="0" cy="7" r="8" fill="#ff7ddb"/><circle cx="46" cy="4" r="8" fill="#f7ff82"/>
  <path d="M-42 18 L38 18 L118 180 L-118 180 Z" fill="#7dffb3" opacity="0.032"/>
</g>






<circle cx="710" cy="982" r="1.8" fill="#bff7ff" opacity="0.126" filter="url(#softGlow)"/>
<circle cx="1269" cy="494" r="1.9" fill="#bff7ff" opacity="0.130" filter="url(#softGlow)"/>
<circle cx="1237" cy="256" r="2.8" fill="#bff7ff" opacity="0.187" filter="url(#softGlow)"/>
<circle cx="1192" cy="922" r="4.1" fill="#bff7ff" opacity="0.059" filter="url(#softGlow)"/>
<circle cx="1787" cy="929" r="1.6" fill="#bff7ff" opacity="0.125" filter="url(#softGlow)"/>
<circle cx="591" cy="780" r="1.5" fill="#bff7ff" opacity="0.131" filter="url(#softGlow)"/>
<circle cx="1103" cy="431" r="3.5" fill="#bff7ff" opacity="0.076" filter="url(#softGlow)"/>
<circle cx="513" cy="370" r="1.7" fill="#bff7ff" opacity="0.061" filter="url(#softGlow)"/>
<circle cx="1089" cy="206" r="3.7" fill="#bff7ff" opacity="0.132" filter="url(#softGlow)"/>
<circle cx="765" cy="917" r="2.7" fill="#bff7ff" opacity="0.135" filter="url(#softGlow)"/>
<circle cx="1657" cy="719" r="1.6" fill="#bff7ff" opacity="0.151" filter="url(#softGlow)"/>
<circle cx="1630" cy="752" r="2.8" fill="#bff7ff" opacity="0.183" filter="url(#softGlow)"/>
<circle cx="959" cy="115" r="2.0" fill="#bff7ff" opacity="0.177" filter="url(#softGlow)"/>
<circle cx="885" cy="107" r="3.8" fill="#bff7ff" opacity="0.144" filter="url(#softGlow)"/>
</svg>