<svg xmlns="http://www.w3.org/2000/svg" width="1920" height="1080" viewBox="0 0 1920 1080">
<defs>
<radialGradient id="spaceGlow" cx="52%" cy="56%" r="54%"><stop offset="0%" stop-color="#132a42"/><stop offset="38%" stop-color="#111630"/><stop offset="100%" stop-color="#030712"/></radialGradient>
<radialGradient id="robotBody" cx="40%" cy="24%" r="85%"><stop offset="0%" stop-color="#ffffff"/><stop offset="52%" stop-color="#dce9ff"/><stop offset="100%" stop-color="#93a6bd"/></radialGradient>
<radialGradient id="blueCore" cx="40%" cy="30%" r="70%"><stop offset="0%" stop-color="#8df4ff"/><stop offset="45%" stop-color="#4895ff"/><stop offset="100%" stop-color="#1a47ff"/></radialGradient>
<filter id="softGlow" x="-80%" y="-80%" width="260%" height="260%"><feGaussianBlur stdDeviation="16" result="blur"/><feMerge><feMergeNode in="blur"/><feMergeNode in="SourceGraphic"/></feMerge></filter>
<filter id="wideGlow" x="-120%" y="-120%" width="340%" height="340%"><feGaussianBlur stdDeviation="34" result="blur"/><feMerge><feMergeNode in="blur"/><feMergeNode in="SourceGraphic"/></feMerge></filter>
</defs>
<ellipse cx="960" cy="742.6" rx="288.0" ry="208.0" fill="none" stroke="#70d6ff" stroke-width="4" opacity="0.200" filter="url(#softGlow)"/>
<path d="M820 740 C770 700 770 825 825 795" stroke="#c4f4ff" stroke-width="10" opacity="0.300" fill="none" stroke-linecap="round" filter="url(#softGlow)"/>
<path d="M1098 724 C1162 686 1164 822 1098 794" stroke="#c4f4ff" stroke-width="10" opacity="0.180" fill="none" stroke-linecap="round" filter="url(#softGlow)"/>
<circle cx="1150.0" cy="672.9" r="4.0" fill="#c8f7ff" opacity="0.222" filter="url(#softGlow)"/>
<circle cx="1138.3" cy="588.3" r="5.0" fill="#c8f7ff" opacity="0.293" filter="url(#softGlow)"/>
<circle cx="1033.9" cy="639.7" r="6.0" fill="#c8f7ff" opacity="0.335" filter="url(#softGlow)"/>
<circle cx="896.7" cy="725.0" r="7.0" fill="#c8f7ff" opacity="0.333" filter="url(#softGlow)"/>
<circle cx="775.3" cy="840.5" r="4.0" fill="#c8f7ff" opacity="0.288" filter="url(#softGlow)"/>
<circle cx="702.1" cy="935.1" r="5.0" fill="#c8f7ff" opacity="0.217" filter="url(#softGlow)"/>
<circle cx="809.8" cy="897.3" r="6.0" fill="#c8f7ff" opacity="0.147" filter="url(#softGlow)"/>
<circle cx="897.7" cy="823.1" r="7.0" fill="#c8f7ff" opacity="0.105" filter="url(#softGlow)"/>
<circle cx="1048.0" cy="703.2" r="4.0" fill="#c8f7ff" opacity="0.107" filter="url(#softGlow)"/>
<circle cx="1117.6" cy="599.9" r="5.0" fill="#c8f7ff" opacity="0.153" filter="url(#softGlow)"/>

<g transform="translate(1761.6 221.8)" opacity="0.357" filter="url(#softGlow)">
  <ellipse cx="0" cy="0" rx="92" ry="23" fill="#85f7ff" opacity="0.92"/>
  <ellipse cx="0" cy="-18" rx="46" ry="30" fill="#b9ffcc" opacity="0.76"/>
  <circle cx="-46" cy="4" r="8" fill="#f7ff82"/><circle cx="0" cy="7" r="8" fill="#ff7ddb"/><circle cx="46" cy="4" r="8" fill="#f7ff82"/>
  <path d="M-42 18 L38 18 L118 180 L-118 180 Z" fill="#7dffb3" opacity="0.043"/>
</g>






<circle cx="1079" cy="432" r="4.1" fill="#bff7ff" opacity="0.151" filter="url(#softGlow)"/>
<circle cx="744" cy="742" r="1.5" fill="#bff7ff" opacity="0.137" filter="url(#softGlow)"/>
<circle cx="1312" cy="913" r="1.7" fill="#bff7ff" opacity="0.140" filter="url(#softGlow)"/>
<circle cx="1257" cy="323" r="2.4" fill="#bff7ff" opacity="0.048" filter="url(#softGlow)"/>
<circle cx="595" cy="86" r="3.2" fill="#bff7ff" opacity="0.078" filter="url(#softGlow)"/>
<circle cx="769" cy="501" r="2.3" fill="#bff7ff" opacity="0.132" filter="url(#softGlow)"/>
<circle cx="256" cy="902" r="1.7" fill="#bff7ff" opacity="0.050" filter="url(#softGlow)"/>
<circle cx="157" cy="952" r="4.1" fill="#bff7ff" opacity="0.203" filter="url(#softGlow)"/>
<circle cx="1352" cy="54" r="3.2" fill="#bff7ff" opacity="0.130" filter="url(#softGlow)"/>
<circle cx="905" cy="51" r="2.9" fill="#bff7ff" opacity="0.041" filter="url(#softGlow)"/>
<circle cx="642" cy="283" r="3.1" fill="#bff7ff" opacity="0.180" filter="url(#softGlow)"/>
<circle cx="1446" cy="985" r="3.4" fill="#bff7ff" opacity="0.103" filter="url(#softGlow)"/>
<circle cx="1667" cy="388" r="2.1" fill="#bff7ff" opacity="0.183" filter="url(#softGlow)"/>
<circle cx="1431" cy="393" r="3.0" fill="#bff7ff" opacity="0.068" filter="url(#softGlow)"/>
</svg>