<svg xmlns="http://www.w3.org/2000/svg" width="1920" height="1080" viewBox="0 0 1920 1080">
<defs>
<radialGradient id="spaceGlow" cx="52%" cy="56%" r="54%"><stop offset="0%" stop-color="#132a42"/><stop offset="38%" stop-color="#111630"/><stop offset="100%" stop-color="#030712"/></radialGradient>
<radialGradient id="robotBody" cx="40%" cy="24%" r="85%"><stop offset="0%" stop-color="#ffffff"/><stop offset="52%" stop-color="#dce9ff"/><stop offset="100%" stop-color="#93a6bd"/></radialGradient>
<radialGradient id="blueCore" cx="40%" cy="30%" r="70%"><stop offset="0%" stop-color="#8df4ff"/><stop offset="45%" stop-color="#4895ff"/><stop offset="100%" stop-color="#1a47ff"/></radialGradient>
<filter id="softGlow" x="-80%" y="-80%" width="260%" height="260%"><feGaussianBlur stdDeviation="16" result="blur"/><feMerge><feMergeNode in="blur"/><feMergeNode in="SourceGraphic"/></feMerge></filter>
<filter id="wideGlow" x="-120%" y="-120%" width="340%" height="340%"><feGaussianBlur stdDeviation="34" result="blur"/><feMerge><feMergeNode in="blur"/><feMergeNode in="SourceGraphic"/></feMerge></filter>
</defs>
<ellipse cx="960" cy="742.1" rx="286.9" ry="207.4" fill="none" stroke="#70d6ff" stroke-width="4" opacity="0.196" filter="url(#softGlow)"/>
<path d="M820 740 C770 700 770 825 825 795" stroke="#c4f4ff" stroke-width="10" opacity="0.293" fill="none" stroke-linecap="round" filter="url(#softGlow)"/>
<path d="M1098 724 C1162 686 1164 822 1098 794" stroke="#c4f4ff" stroke-width="10" opacity="0.187" fill="none" stroke-linecap="round" filter="url(#softGlow)"/>
<circle cx="1148.3" cy="657.6" r="4.0" fill="#c8f7ff" opacity="0.236" filter="url(#softGlow)"/>
<circle cx="1121.8" cy="586.1" r="5.0" fill="#c8f7ff" opacity="0.303" filter="url(#softGlow)"/>
<circle cx="1005.4" cy="652.2" r="6.0" fill="#c8f7ff" opacity="0.338" filter="url(#softGlow)"/>
<circle cx="876.8" cy="748.9" r="7.0" fill="#c8f7ff" opacity="0.328" filter="url(#softGlow)"/>
<circle cx="762.1" cy="857.3" r="4.0" fill="#c8f7ff" opacity="0.276" filter="url(#softGlow)"/>
<circle cx="704.6" cy="940.2" r="5.0" fill="#c8f7ff" opacity="0.203" filter="url(#softGlow)"/>
<circle cx="823.9" cy="886.7" r="6.0" fill="#c8f7ff" opacity="0.136" filter="url(#softGlow)"/>
<circle cx="922.4" cy="799.8" r="7.0" fill="#c8f7ff" opacity="0.102" filter="url(#softGlow)"/>
<circle cx="1074.9" cy="685.1" r="4.0" fill="#c8f7ff" opacity="0.113" filter="url(#softGlow)"/>
<circle cx="1128.6" cy="592.0" r="5.0" fill="#c8f7ff" opacity="0.165" filter="url(#softGlow)"/>

<g transform="translate(1745.9 223.0)" opacity="0.402" filter="url(#softGlow)">
  <ellipse cx="0" cy="0" rx="92" ry="23" fill="#85f7ff" opacity="0.92"/>
  <ellipse cx="0" cy="-18" rx="46" ry="30" fill="#b9ffcc" opacity="0.76"/>
  <circle cx="-46" cy="4" r="8" fill="#f7ff82"/><circle cx="0" cy="7" r="8" fill="#ff7ddb"/><circle cx="46" cy="4" r="8" fill="#f7ff82"/>
  <path d="M-42 18 L38 18 L118 180 L-118 180 Z" fill="#7dffb3" opacity="0.048"/>
</g>






<circle cx="1079" cy="432" r="4.1" fill="#bff7ff" opacity="0.154" filter="url(#softGlow)"/>
<circle cx="744" cy="742" r="1.5" fill="#bff7ff" opacity="0.140" filter="url(#softGlow)"/>
<circle cx="1312" cy="913" r="1.7" fill="#bff7ff" opacity="0.144" filter="url(#softGlow)"/>
<circle cx="1257" cy="323" r="2.4" fill="#bff7ff" opacity="0.049" filter="url(#softGlow)"/>
<circle cx="595" cy="86" r="3.2" fill="#bff7ff" opacity="0.080" filter="url(#softGlow)"/>
<circle cx="769" cy="501" r="2.3" fill="#bff7ff" opacity="0.135" filter="url(#softGlow)"/>
<circle cx="256" cy="902" r="1.7" fill="#bff7ff" opacity="0.052" filter="url(#softGlow)"/>
<circle cx="157" cy="952" r="4.1" fill="#bff7ff" opacity="0.208" filter="url(#softGlow)"/>
<circle cx="1352" cy="54" r="3.2" fill="#bff7ff" opacity="0.134" filter="url(#softGlow)"/>
<circle cx="905" cy="51" r="2.9" fill="#bff7ff" opacity="0.042" filter="url(#softGlow)"/>
<circle cx="642" cy="283" r="3.1" fill="#bff7ff" opacity="0.184" filter="url(#softGlow)"/>
<circle cx="1446" cy="985" r="3.4" fill="#bff7ff" opacity="0.106" filter="url(#softGlow)"/>
<circle cx="1667" cy="388" r="2.1" fill="#bff7ff" opacity="0.187" filter="url(#softGlow)"/>
<circle cx="1431" cy="393" r="3.0" fill="#bff7ff" opacity="0.070" filter="url(#softGlow)"/>
</svg>