<svg xmlns="http://www.w3.org/2000/svg" width="1920" height="1080" viewBox="0 0 1920 1080">
<defs>
<radialGradient id="spaceGlow" cx="52%" cy="56%" r="54%"><stop offset="0%" stop-color="#132a42"/><stop offset="38%" stop-color="#111630"/><stop offset="100%" stop-color="#030712"/></radialGradient>
<radialGradient id="robotBody" cx="40%" cy="24%" r="85%"><stop offset="0%" stop-color="#ffffff"/><stop offset="52%" stop-color="#dce9ff"/><stop offset="100%" stop-color="#93a6bd"/></radialGradient>
<radialGradient id="blueCore" cx="40%" cy="30%" r="70%"><stop offset="0%" stop-color="#8df4ff"/><stop offset="45%" stop-color="#4895ff"/><stop offset="100%" stop-color="#1a47ff"/></radialGradient>
<filter id="softGlow" x="-80%" y="-80%" width="260%" height="260%"><feGaussianBlur stdDeviation="16" result="blur"/><feMerge><feMergeNode in="blur"/><feMergeNode in="SourceGraphic"/></feMerge></filter>
<filter id="wideGlow" x="-120%" y="-120%" width="340%" height="340%"><feGaussianBlur stdDeviation="34" result="blur"/><feMerge><feMergeNode in="blur"/><feMergeNode in="SourceGraphic"/></feMerge></filter>
</defs>
<ellipse cx="960" cy="742.0" rx="285.6" ry="206.7" fill="none" stroke="#70d6ff" stroke-width="4" opacity="0.191" filter="url(#softGlow)"/>
<path d="M820 740 C770 700 770 825 825 795" stroke="#c4f4ff" stroke-width="10" opacity="0.284" fill="none" stroke-linecap="round" filter="url(#softGlow)"/>
<path d="M1098 724 C1162 686 1164 822 1098 794" stroke="#c4f4ff" stroke-width="10" opacity="0.196" fill="none" stroke-linecap="round" filter="url(#softGlow)"/>
<circle cx="1146.6" cy="650.6" r="4.0" fill="#c8f7ff" opacity="0.243" filter="url(#softGlow)"/>
<circle cx="1112.7" cy="586.2" r="5.0" fill="#c8f7ff" opacity="0.308" filter="url(#softGlow)"/>
<circle cx="991.0" cy="659.3" r="6.0" fill="#c8f7ff" opacity="0.339" filter="url(#softGlow)"/>
<circle cx="867.3" cy="761.0" r="7.0" fill="#c8f7ff" opacity="0.325" filter="url(#softGlow)"/>
<circle cx="756.5" cy="865.1" r="4.0" fill="#c8f7ff" opacity="0.270" filter="url(#softGlow)"/>
<circle cx="707.1" cy="941.5" r="5.0" fill="#c8f7ff" opacity="0.196" filter="url(#softGlow)"/>
<circle cx="831.6" cy="880.6" r="6.0" fill="#c8f7ff" opacity="0.132" filter="url(#softGlow)"/>
<circle cx="935.0" cy="787.8" r="7.0" fill="#c8f7ff" opacity="0.101" filter="url(#softGlow)"/>
<circle cx="1087.8" cy="676.6" r="4.0" fill="#c8f7ff" opacity="0.116" filter="url(#softGlow)"/>
<circle cx="1133.3" cy="589.3" r="5.0" fill="#c8f7ff" opacity="0.171" filter="url(#softGlow)"/>

<g transform="translate(1737.4 223.3)" opacity="0.424" filter="url(#softGlow)">
  <ellipse cx="0" cy="0" rx="92" ry="23" fill="#85f7ff" opacity="0.92"/>
  <ellipse cx="0" cy="-18" rx="46" ry="30" fill="#b9ffcc" opacity="0.76"/>
  <circle cx="-46" cy="4" r="8" fill="#f7ff82"/><circle cx="0" cy="7" r="8" fill="#ff7ddb"/><circle cx="46" cy="4" r="8" fill="#f7ff82"/>
  <path d="M-42 18 L38 18 L118 180 L-118 180 Z" fill="#7dffb3" opacity="0.051"/>
</g>






<circle cx="312" cy="580" r="2.2" fill="#bff7ff" opacity="0.157" filter="url(#softGlow)"/>
<circle cx="680" cy="116" r="2.1" fill="#bff7ff" opacity="0.145" filter="url(#softGlow)"/>
<circle cx="331" cy="746" r="2.0" fill="#bff7ff" opacity="0.155" filter="url(#softGlow)"/>
<circle cx="91" cy="311" r="3.0" fill="#bff7ff" opacity="0.155" filter="url(#softGlow)"/>
<circle cx="1068" cy="659" r="2.3" fill="#bff7ff" opacity="0.192" filter="url(#softGlow)"/>
<circle cx="169" cy="999" r="2.6" fill="#bff7ff" opacity="0.195" filter="url(#softGlow)"/>
<circle cx="1212" cy="488" r="2.0" fill="#bff7ff" opacity="0.072" filter="url(#softGlow)"/>
<circle cx="189" cy="806" r="1.7" fill="#bff7ff" opacity="0.054" filter="url(#softGlow)"/>
<circle cx="1785" cy="49" r="2.9" fill="#bff7ff" opacity="0.141" filter="url(#softGlow)"/>
<circle cx="1548" cy="593" r="1.5" fill="#bff7ff" opacity="0.165" filter="url(#softGlow)"/>
<circle cx="1579" cy="176" r="2.9" fill="#bff7ff" opacity="0.151" filter="url(#softGlow)"/>
<circle cx="654" cy="306" r="2.7" fill="#bff7ff" opacity="0.062" filter="url(#softGlow)"/>
<circle cx="1392" cy="913" r="3.7" fill="#bff7ff" opacity="0.097" filter="url(#softGlow)"/>
<circle cx="330" cy="1009" r="2.8" fill="#bff7ff" opacity="0.114" filter="url(#softGlow)"/>
</svg>