<svg xmlns="http://www.w3.org/2000/svg" width="1920" height="1080" viewBox="0 0 1920 1080">
<defs>
<radialGradient id="spaceGlow" cx="52%" cy="56%" r="54%"><stop offset="0%" stop-color="#132a42"/><stop offset="38%" stop-color="#111630"/><stop offset="100%" stop-color="#030712"/></radialGradient>
<radialGradient id="robotBody" cx="40%" cy="24%" r="85%"><stop offset="0%" stop-color="#ffffff"/><stop offset="52%" stop-color="#dce9ff"/><stop offset="100%" stop-color="#93a6bd"/></radialGradient>
<radialGradient id="blueCore" cx="40%" cy="30%" r="70%"><stop offset="0%" stop-color="#8df4ff"/><stop offset="45%" stop-color="#4895ff"/><stop offset="100%" stop-color="#1a47ff"/></radialGradient>
<filter id="softGlow" x="-80%" y="-80%" width="260%" height="260%"><feGaussianBlur stdDeviation="16" result="blur"/><feMerge><feMergeNode in="blur"/><feMergeNode in="SourceGraphic"/></feMerge></filter>
<filter id="wideGlow" x="-120%" y="-120%" width="340%" height="340%"><feGaussianBlur stdDeviation="34" result="blur"/><feMerge><feMergeNode in="blur"/><feMergeNode in="SourceGraphic"/></feMerge></filter>
</defs>
<ellipse cx="960" cy="742.1" rx="281.9" ry="204.6" fill="none" stroke="#70d6ff" stroke-width="4" opacity="0.176" filter="url(#softGlow)"/>
<path d="M820 740 C770 700 770 825 825 795" stroke="#c4f4ff" stroke-width="10" opacity="0.259" fill="none" stroke-linecap="round" filter="url(#softGlow)"/>
<path d="M1098 724 C1162 686 1164 822 1098 794" stroke="#c4f4ff" stroke-width="10" opacity="0.221" fill="none" stroke-linecap="round" filter="url(#softGlow)"/>
<circle cx="1141.3" cy="638.4" r="4.0" fill="#c8f7ff" opacity="0.256" filter="url(#softGlow)"/>
<circle cx="1093.2" cy="588.8" r="5.0" fill="#c8f7ff" opacity="0.316" filter="url(#softGlow)"/>
<circle cx="961.8" cy="674.8" r="6.0" fill="#c8f7ff" opacity="0.340" filter="url(#softGlow)"/>
<circle cx="849.1" cy="785.2" r="7.0" fill="#c8f7ff" opacity="0.317" filter="url(#softGlow)"/>
<circle cx="747.2" cy="879.2" r="4.0" fill="#c8f7ff" opacity="0.257" filter="url(#softGlow)"/>
<circle cx="714.5" cy="941.7" r="5.0" fill="#c8f7ff" opacity="0.183" filter="url(#softGlow)"/>
<circle cx="848.3" cy="866.7" r="6.0" fill="#c8f7ff" opacity="0.123" filter="url(#softGlow)"/>
<circle cx="960.3" cy="763.7" r="7.0" fill="#c8f7ff" opacity="0.100" filter="url(#softGlow)"/>
<circle cx="1112.3" cy="660.9" r="4.0" fill="#c8f7ff" opacity="0.123" filter="url(#softGlow)"/>
<circle cx="1141.0" cy="586.3" r="5.0" fill="#c8f7ff" opacity="0.183" filter="url(#softGlow)"/>

<g transform="translate(1719.1 223.0)" opacity="0.468" filter="url(#softGlow)">
  <ellipse cx="0" cy="0" rx="92" ry="23" fill="#85f7ff" opacity="0.92"/>
  <ellipse cx="0" cy="-18" rx="46" ry="30" fill="#b9ffcc" opacity="0.76"/>
  <circle cx="-46" cy="4" r="8" fill="#f7ff82"/><circle cx="0" cy="7" r="8" fill="#ff7ddb"/><circle cx="46" cy="4" r="8" fill="#f7ff82"/>
  <path d="M-42 18 L38 18 L118 180 L-118 180 Z" fill="#7dffb3" opacity="0.056"/>
</g>






<circle cx="312" cy="580" r="2.2" fill="#bff7ff" opacity="0.158" filter="url(#softGlow)"/>
<circle cx="680" cy="116" r="2.1" fill="#bff7ff" opacity="0.146" filter="url(#softGlow)"/>
<circle cx="331" cy="746" r="2.0" fill="#bff7ff" opacity="0.156" filter="url(#softGlow)"/>
<circle cx="91" cy="311" r="3.0" fill="#bff7ff" opacity="0.156" filter="url(#softGlow)"/>
<circle cx="1068" cy="659" r="2.3" fill="#bff7ff" opacity="0.194" filter="url(#softGlow)"/>
<circle cx="169" cy="999" r="2.6" fill="#bff7ff" opacity="0.197" filter="url(#softGlow)"/>
<circle cx="1212" cy="488" r="2.0" fill="#bff7ff" opacity="0.072" filter="url(#softGlow)"/>
<circle cx="189" cy="806" r="1.7" fill="#bff7ff" opacity="0.055" filter="url(#softGlow)"/>
<circle cx="1785" cy="49" r="2.9" fill="#bff7ff" opacity="0.142" filter="url(#softGlow)"/>
<circle cx="1548" cy="593" r="1.5" fill="#bff7ff" opacity="0.166" filter="url(#softGlow)"/>
<circle cx="1579" cy="176" r="2.9" fill="#bff7ff" opacity="0.152" filter="url(#softGlow)"/>
<circle cx="654" cy="306" r="2.7" fill="#bff7ff" opacity="0.062" filter="url(#softGlow)"/>
<circle cx="1392" cy="913" r="3.7" fill="#bff7ff" opacity="0.098" filter="url(#softGlow)"/>
<circle cx="330" cy="1009" r="2.8" fill="#bff7ff" opacity="0.115" filter="url(#softGlow)"/>
</svg>