<svg xmlns="http://www.w3.org/2000/svg" width="1920" height="1080" viewBox="0 0 1920 1080">
<defs>
<radialGradient id="spaceGlow" cx="52%" cy="56%" r="54%"><stop offset="0%" stop-color="#132a42"/><stop offset="38%" stop-color="#111630"/><stop offset="100%" stop-color="#030712"/></radialGradient>
<radialGradient id="robotBody" cx="40%" cy="24%" r="85%"><stop offset="0%" stop-color="#ffffff"/><stop offset="52%" stop-color="#dce9ff"/><stop offset="100%" stop-color="#93a6bd"/></radialGradient>
<radialGradient id="blueCore" cx="40%" cy="30%" r="70%"><stop offset="0%" stop-color="#8df4ff"/><stop offset="45%" stop-color="#4895ff"/><stop offset="100%" stop-color="#1a47ff"/></radialGradient>
<filter id="softGlow" x="-80%" y="-80%" width="260%" height="260%"><feGaussianBlur stdDeviation="16" result="blur"/><feMerge><feMergeNode in="blur"/><feMergeNode in="SourceGraphic"/></feMerge></filter>
<filter id="wideGlow" x="-120%" y="-120%" width="340%" height="340%"><feGaussianBlur stdDeviation="34" result="blur"/><feMerge><feMergeNode in="blur"/><feMergeNode in="SourceGraphic"/></feMerge></filter>
</defs>
<ellipse cx="960" cy="742.5" rx="277.4" ry="202.1" fill="none" stroke="#70d6ff" stroke-width="4" opacity="0.159" filter="url(#softGlow)"/>
<path d="M820 740 C770 700 770 825 825 795" stroke="#c4f4ff" stroke-width="10" opacity="0.229" fill="none" stroke-linecap="round" filter="url(#softGlow)"/>
<path d="M1098 724 C1162 686 1164 822 1098 794" stroke="#c4f4ff" stroke-width="10" opacity="0.251" fill="none" stroke-linecap="round" filter="url(#softGlow)"/>
<circle cx="1133.7" cy="628.4" r="4.0" fill="#c8f7ff" opacity="0.269" filter="url(#softGlow)"/>
<circle cx="1072.0" cy="594.7" r="5.0" fill="#c8f7ff" opacity="0.324" filter="url(#softGlow)"/>
<circle cx="932.6" cy="692.0" r="6.0" fill="#c8f7ff" opacity="0.339" filter="url(#softGlow)"/>
<circle cx="832.4" cy="808.9" r="7.0" fill="#c8f7ff" opacity="0.309" filter="url(#softGlow)"/>
<circle cx="740.7" cy="891.1" r="4.0" fill="#c8f7ff" opacity="0.244" filter="url(#softGlow)"/>
<circle cx="725.0" cy="938.6" r="5.0" fill="#c8f7ff" opacity="0.170" filter="url(#softGlow)"/>
<circle cx="866.4" cy="851.0" r="6.0" fill="#c8f7ff" opacity="0.116" filter="url(#softGlow)"/>
<circle cx="985.6" cy="739.6" r="7.0" fill="#c8f7ff" opacity="0.101" filter="url(#softGlow)"/>
<circle cx="1134.9" cy="647.1" r="4.0" fill="#c8f7ff" opacity="0.132" filter="url(#softGlow)"/>
<circle cx="1146.4" cy="586.6" r="5.0" fill="#c8f7ff" opacity="0.197" filter="url(#softGlow)"/>

<g transform="translate(1699.4 221.0)" opacity="0.511" filter="url(#softGlow)">
  <ellipse cx="0" cy="0" rx="92" ry="23" fill="#85f7ff" opacity="0.92"/>
  <ellipse cx="0" cy="-18" rx="46" ry="30" fill="#b9ffcc" opacity="0.76"/>
  <circle cx="-46" cy="4" r="8" fill="#f7ff82"/><circle cx="0" cy="7" r="8" fill="#ff7ddb"/><circle cx="46" cy="4" r="8" fill="#f7ff82"/>
  <path d="M-42 18 L38 18 L118 180 L-118 180 Z" fill="#7dffb3" opacity="0.061"/>
</g>






<circle cx="566" cy="843" r="3.6" fill="#bff7ff" opacity="0.094" filter="url(#softGlow)"/>
<circle cx="749" cy="864" r="4.0" fill="#bff7ff" opacity="0.087" filter="url(#softGlow)"/>
<circle cx="387" cy="598" r="3.2" fill="#bff7ff" opacity="0.163" filter="url(#softGlow)"/>
<circle cx="1476" cy="993" r="3.6" fill="#bff7ff" opacity="0.062" filter="url(#softGlow)"/>
<circle cx="717" cy="890" r="3.3" fill="#bff7ff" opacity="0.113" filter="url(#softGlow)"/>
<circle cx="999" cy="346" r="2.4" fill="#bff7ff" opacity="0.096" filter="url(#softGlow)"/>
<circle cx="555" cy="888" r="2.0" fill="#bff7ff" opacity="0.101" filter="url(#softGlow)"/>
<circle cx="336" cy="774" r="3.2" fill="#bff7ff" opacity="0.095" filter="url(#softGlow)"/>
<circle cx="1678" cy="950" r="2.3" fill="#bff7ff" opacity="0.184" filter="url(#softGlow)"/>
<circle cx="399" cy="167" r="2.3" fill="#bff7ff" opacity="0.060" filter="url(#softGlow)"/>
<circle cx="635" cy="983" r="3.9" fill="#bff7ff" opacity="0.198" filter="url(#softGlow)"/>
<circle cx="208" cy="307" r="1.8" fill="#bff7ff" opacity="0.106" filter="url(#softGlow)"/>
<circle cx="132" cy="256" r="3.8" fill="#bff7ff" opacity="0.067" filter="url(#softGlow)"/>
<circle cx="1272" cy="84" r="2.9" fill="#bff7ff" opacity="0.190" filter="url(#softGlow)"/>
</svg>