<svg xmlns="http://www.w3.org/2000/svg" width="1920" height="1080" viewBox="0 0 1920 1080">
<defs>
<radialGradient id="spaceGlow" cx="52%" cy="56%" r="54%"><stop offset="0%" stop-color="#132a42"/><stop offset="38%" stop-color="#111630"/><stop offset="100%" stop-color="#030712"/></radialGradient>
<radialGradient id="robotBody" cx="40%" cy="24%" r="85%"><stop offset="0%" stop-color="#ffffff"/><stop offset="52%" stop-color="#dce9ff"/><stop offset="100%" stop-color="#93a6bd"/></radialGradient>
<radialGradient id="blueCore" cx="40%" cy="30%" r="70%"><stop offset="0%" stop-color="#8df4ff"/><stop offset="45%" stop-color="#4895ff"/><stop offset="100%" stop-color="#1a47ff"/></radialGradient>
<filter id="softGlow" x="-80%" y="-80%" width="260%" height="260%"><feGaussianBlur stdDeviation="16" result="blur"/><feMerge><feMergeNode in="blur"/><feMergeNode in="SourceGraphic"/></feMerge></filter>
<filter id="wideGlow" x="-120%" y="-120%" width="340%" height="340%"><feGaussianBlur stdDeviation="34" result="blur"/><feMerge><feMergeNode in="blur"/><feMergeNode in="SourceGraphic"/></feMerge></filter>
</defs>
<ellipse cx="960" cy="743.3" rx="273.4" ry="199.9" fill="none" stroke="#70d6ff" stroke-width="4" opacity="0.143" filter="url(#softGlow)"/>
<path d="M820 740 C770 700 770 825 825 795" stroke="#c4f4ff" stroke-width="10" opacity="0.202" fill="none" stroke-linecap="round" filter="url(#softGlow)"/>
<path d="M1098 724 C1162 686 1164 822 1098 794" stroke="#c4f4ff" stroke-width="10" opacity="0.278" fill="none" stroke-linecap="round" filter="url(#softGlow)"/>
<circle cx="1123.9" cy="621.0" r="4.0" fill="#c8f7ff" opacity="0.281" filter="url(#softGlow)"/>
<circle cx="1049.4" cy="603.7" r="5.0" fill="#c8f7ff" opacity="0.330" filter="url(#softGlow)"/>
<circle cx="903.8" cy="710.5" r="6.0" fill="#c8f7ff" opacity="0.337" filter="url(#softGlow)"/>
<circle cx="817.3" cy="831.9" r="7.0" fill="#c8f7ff" opacity="0.299" filter="url(#softGlow)"/>
<circle cx="736.9" cy="900.7" r="4.0" fill="#c8f7ff" opacity="0.231" filter="url(#softGlow)"/>
<circle cx="738.6" cy="932.3" r="5.0" fill="#c8f7ff" opacity="0.158" filter="url(#softGlow)"/>
<circle cx="885.7" cy="833.6" r="6.0" fill="#c8f7ff" opacity="0.110" filter="url(#softGlow)"/>
<circle cx="1010.6" cy="715.9" r="7.0" fill="#c8f7ff" opacity="0.103" filter="url(#softGlow)"/>
<circle cx="1155.2" cy="635.4" r="4.0" fill="#c8f7ff" opacity="0.142" filter="url(#softGlow)"/>
<circle cx="1149.3" cy="590.1" r="5.0" fill="#c8f7ff" opacity="0.210" filter="url(#softGlow)"/>

<g transform="translate(1678.1 216.9)" opacity="0.552" filter="url(#softGlow)">
  <ellipse cx="0" cy="0" rx="92" ry="23" fill="#85f7ff" opacity="0.92"/>
  <ellipse cx="0" cy="-18" rx="46" ry="30" fill="#b9ffcc" opacity="0.76"/>
  <circle cx="-46" cy="4" r="8" fill="#f7ff82"/><circle cx="0" cy="7" r="8" fill="#ff7ddb"/><circle cx="46" cy="4" r="8" fill="#f7ff82"/>
  <path d="M-42 18 L38 18 L118 180 L-118 180 Z" fill="#7dffb3" opacity="0.066"/>
</g>



<g opacity="0.000" filter="url(#softGlow)">
  <line x1="1880.0" y1="320.0" x2="2220.0" y2="197.6" stroke="#ffffff" stroke-width="8" stroke-linecap="round"/>
  <line x1="1898.0" y1="314.0" x2="2370.0" y2="143.6" stroke="#ffffff" stroke-width="2" stroke-linecap="round" opacity="0.92"/>
</g>



<circle cx="1423" cy="215" r="3.1" fill="#bff7ff" opacity="0.152" filter="url(#softGlow)"/>
<circle cx="1373" cy="267" r="3.2" fill="#bff7ff" opacity="0.143" filter="url(#softGlow)"/>
<circle cx="1492" cy="57" r="3.6" fill="#bff7ff" opacity="0.169" filter="url(#softGlow)"/>
<circle cx="442" cy="62" r="2.5" fill="#bff7ff" opacity="0.135" filter="url(#softGlow)"/>
<circle cx="1558" cy="48" r="3.9" fill="#bff7ff" opacity="0.112" filter="url(#softGlow)"/>
<circle cx="644" cy="945" r="2.0" fill="#bff7ff" opacity="0.079" filter="url(#softGlow)"/>
<circle cx="1260" cy="266" r="3.7" fill="#bff7ff" opacity="0.049" filter="url(#softGlow)"/>
<circle cx="816" cy="361" r="2.7" fill="#bff7ff" opacity="0.207" filter="url(#softGlow)"/>
<circle cx="999" cy="628" r="2.9" fill="#bff7ff" opacity="0.039" filter="url(#softGlow)"/>
<circle cx="1381" cy="756" r="3.5" fill="#bff7ff" opacity="0.044" filter="url(#softGlow)"/>
<circle cx="243" cy="607" r="3.7" fill="#bff7ff" opacity="0.143" filter="url(#softGlow)"/>
<circle cx="1734" cy="388" r="3.1" fill="#bff7ff" opacity="0.103" filter="url(#softGlow)"/>
<circle cx="1266" cy="45" r="3.9" fill="#bff7ff" opacity="0.115" filter="url(#softGlow)"/>
<circle cx="182" cy="778" r="1.6" fill="#bff7ff" opacity="0.171" filter="url(#softGlow)"/>
</svg>