<svg xmlns="http://www.w3.org/2000/svg" width="1920" height="1080" viewBox="0 0 1920 1080">
<defs>
<radialGradient id="spaceGlow" cx="52%" cy="56%" r="54%"><stop offset="0%" stop-color="#132a42"/><stop offset="38%" stop-color="#111630"/><stop offset="100%" stop-color="#030712"/></radialGradient>
<radialGradient id="robotBody" cx="40%" cy="24%" r="85%"><stop offset="0%" stop-color="#ffffff"/><stop offset="52%" stop-color="#dce9ff"/><stop offset="100%" stop-color="#93a6bd"/></radialGradient>
<radialGradient id="blueCore" cx="40%" cy="30%" r="70%"><stop offset="0%" stop-color="#8df4ff"/><stop offset="45%" stop-color="#4895ff"/><stop offset="100%" stop-color="#1a47ff"/></radialGradient>
<filter id="softGlow" x="-80%" y="-80%" width="260%" height="260%"><feGaussianBlur stdDeviation="16" result="blur"/><feMerge><feMergeNode in="blur"/><feMergeNode in="SourceGraphic"/></feMerge></filter>
<filter id="wideGlow" x="-120%" y="-120%" width="340%" height="340%"><feGaussianBlur stdDeviation="34" result="blur"/><feMerge><feMergeNode in="blur"/><feMergeNode in="SourceGraphic"/></feMerge></filter>
</defs>
<ellipse cx="960" cy="744.4" rx="270.7" ry="198.4" fill="none" stroke="#70d6ff" stroke-width="4" opacity="0.133" filter="url(#softGlow)"/>
<path d="M820 740 C770 700 770 825 825 795" stroke="#c4f4ff" stroke-width="10" opacity="0.185" fill="none" stroke-linecap="round" filter="url(#softGlow)"/>
<path d="M1098 724 C1162 686 1164 822 1098 794" stroke="#c4f4ff" stroke-width="10" opacity="0.295" fill="none" stroke-linecap="round" filter="url(#softGlow)"/>
<circle cx="1112.0" cy="616.2" r="4.0" fill="#c8f7ff" opacity="0.292" filter="url(#softGlow)"/>
<circle cx="1025.6" cy="615.7" r="5.0" fill="#c8f7ff" opacity="0.335" filter="url(#softGlow)"/>
<circle cx="875.7" cy="730.0" r="6.0" fill="#c8f7ff" opacity="0.333" filter="url(#softGlow)"/>
<circle cx="804.0" cy="853.6" r="7.0" fill="#c8f7ff" opacity="0.289" filter="url(#softGlow)"/>
<circle cx="736.1" cy="907.8" r="4.0" fill="#c8f7ff" opacity="0.217" filter="url(#softGlow)"/>
<circle cx="755.0" cy="922.8" r="5.0" fill="#c8f7ff" opacity="0.147" filter="url(#softGlow)"/>
<circle cx="905.9" cy="814.9" r="6.0" fill="#c8f7ff" opacity="0.105" filter="url(#softGlow)"/>
<circle cx="1035.0" cy="693.1" r="7.0" fill="#c8f7ff" opacity="0.107" filter="url(#softGlow)"/>
<circle cx="1173.0" cy="626.1" r="4.0" fill="#c8f7ff" opacity="0.152" filter="url(#softGlow)"/>
<circle cx="1149.9" cy="596.8" r="5.0" fill="#c8f7ff" opacity="0.224" filter="url(#softGlow)"/>

<g transform="translate(1655.4 210.4)" opacity="0.592" filter="url(#softGlow)">
  <ellipse cx="0" cy="0" rx="92" ry="23" fill="#85f7ff" opacity="0.92"/>
  <ellipse cx="0" cy="-18" rx="46" ry="30" fill="#b9ffcc" opacity="0.76"/>
  <circle cx="-46" cy="4" r="8" fill="#f7ff82"/><circle cx="0" cy="7" r="8" fill="#ff7ddb"/><circle cx="46" cy="4" r="8" fill="#f7ff82"/>
  <path d="M-42 18 L38 18 L118 180 L-118 180 Z" fill="#7dffb3" opacity="0.071"/>
</g>



<g opacity="0.244" filter="url(#softGlow)">
  <line x1="1684.4" y1="391.7" x2="2024.4" y2="269.3" stroke="#ffffff" stroke-width="8" stroke-linecap="round"/>
  <line x1="1702.4" y1="385.7" x2="2174.4" y2="215.3" stroke="#ffffff" stroke-width="2" stroke-linecap="round" opacity="0.92"/>
</g>



<circle cx="1423" cy="215" r="3.1" fill="#bff7ff" opacity="0.148" filter="url(#softGlow)"/>
<circle cx="1373" cy="267" r="3.2" fill="#bff7ff" opacity="0.139" filter="url(#softGlow)"/>
<circle cx="1492" cy="57" r="3.6" fill="#bff7ff" opacity="0.165" filter="url(#softGlow)"/>
<circle cx="442" cy="62" r="2.5" fill="#bff7ff" opacity="0.131" filter="url(#softGlow)"/>
<circle cx="1558" cy="48" r="3.9" fill="#bff7ff" opacity="0.109" filter="url(#softGlow)"/>
<circle cx="644" cy="945" r="2.0" fill="#bff7ff" opacity="0.077" filter="url(#softGlow)"/>
<circle cx="1260" cy="266" r="3.7" fill="#bff7ff" opacity="0.048" filter="url(#softGlow)"/>
<circle cx="816" cy="361" r="2.7" fill="#bff7ff" opacity="0.201" filter="url(#softGlow)"/>
<circle cx="999" cy="628" r="2.9" fill="#bff7ff" opacity="0.038" filter="url(#softGlow)"/>
<circle cx="1381" cy="756" r="3.5" fill="#bff7ff" opacity="0.043" filter="url(#softGlow)"/>
<circle cx="243" cy="607" r="3.7" fill="#bff7ff" opacity="0.139" filter="url(#softGlow)"/>
<circle cx="1734" cy="388" r="3.1" fill="#bff7ff" opacity="0.100" filter="url(#softGlow)"/>
<circle cx="1266" cy="45" r="3.9" fill="#bff7ff" opacity="0.112" filter="url(#softGlow)"/>
<circle cx="182" cy="778" r="1.6" fill="#bff7ff" opacity="0.166" filter="url(#softGlow)"/>
</svg>