<svg xmlns="http://www.w3.org/2000/svg" width="1920" height="1080" viewBox="0 0 1920 1080">
<defs>
<radialGradient id="spaceGlow" cx="52%" cy="56%" r="54%"><stop offset="0%" stop-color="#132a42"/><stop offset="38%" stop-color="#111630"/><stop offset="100%" stop-color="#030712"/></radialGradient>
<radialGradient id="robotBody" cx="40%" cy="24%" r="85%"><stop offset="0%" stop-color="#ffffff"/><stop offset="52%" stop-color="#dce9ff"/><stop offset="100%" stop-color="#93a6bd"/></radialGradient>
<radialGradient id="blueCore" cx="40%" cy="30%" r="70%"><stop offset="0%" stop-color="#8df4ff"/><stop offset="45%" stop-color="#4895ff"/><stop offset="100%" stop-color="#1a47ff"/></radialGradient>
<filter id="softGlow" x="-80%" y="-80%" width="260%" height="260%"><feGaussianBlur stdDeviation="16" result="blur"/><feMerge><feMergeNode in="blur"/><feMergeNode in="SourceGraphic"/></feMerge></filter>
<filter id="wideGlow" x="-120%" y="-120%" width="340%" height="340%"><feGaussianBlur stdDeviation="34" result="blur"/><feMerge><feMergeNode in="blur"/><feMergeNode in="SourceGraphic"/></feMerge></filter>
</defs>
<ellipse cx="960" cy="746.6" rx="270.6" ry="198.3" fill="none" stroke="#70d6ff" stroke-width="4" opacity="0.132" filter="url(#softGlow)"/>
<path d="M820 740 C770 700 770 825 825 795" stroke="#c4f4ff" stroke-width="10" opacity="0.184" fill="none" stroke-linecap="round" filter="url(#softGlow)"/>
<path d="M1098 724 C1162 686 1164 822 1098 794" stroke="#c4f4ff" stroke-width="10" opacity="0.296" fill="none" stroke-linecap="round" filter="url(#softGlow)"/>
<circle cx="1090.5" cy="614.1" r="4.0" fill="#c8f7ff" opacity="0.307" filter="url(#softGlow)"/>
<circle cx="988.4" cy="638.7" r="5.0" fill="#c8f7ff" opacity="0.339" filter="url(#softGlow)"/>
<circle cx="835.6" cy="760.3" r="6.0" fill="#c8f7ff" opacity="0.325" filter="url(#softGlow)"/>
<circle cx="787.9" cy="882.9" r="7.0" fill="#c8f7ff" opacity="0.271" filter="url(#softGlow)"/>
<circle cx="740.1" cy="913.5" r="4.0" fill="#c8f7ff" opacity="0.197" filter="url(#softGlow)"/>
<circle cx="784.4" cy="903.2" r="5.0" fill="#c8f7ff" opacity="0.132" filter="url(#softGlow)"/>
<circle cx="937.5" cy="785.3" r="6.0" fill="#c8f7ff" opacity="0.101" filter="url(#softGlow)"/>
<circle cx="1069.6" cy="661.5" r="7.0" fill="#c8f7ff" opacity="0.115" filter="url(#softGlow)"/>
<circle cx="1194.6" cy="617.0" r="4.0" fill="#c8f7ff" opacity="0.170" filter="url(#softGlow)"/>
<circle cx="1146.2" cy="612.7" r="5.0" fill="#c8f7ff" opacity="0.244" filter="url(#softGlow)"/>

<g transform="translate(1618.9 197.5)" opacity="0.649" filter="url(#softGlow)">
  <ellipse cx="0" cy="0" rx="92" ry="23" fill="#85f7ff" opacity="0.92"/>
  <ellipse cx="0" cy="-18" rx="46" ry="30" fill="#b9ffcc" opacity="0.76"/>
  <circle cx="-46" cy="4" r="8" fill="#f7ff82"/><circle cx="0" cy="7" r="8" fill="#ff7ddb"/><circle cx="46" cy="4" r="8" fill="#f7ff82"/>
  <path d="M-42 18 L38 18 L118 180 L-118 180 Z" fill="#7dffb3" opacity="0.078"/>
</g>



<g opacity="0.578" filter="url(#softGlow)">
  <line x1="1447.6" y1="478.5" x2="1787.6" y2="356.1" stroke="#ffffff" stroke-width="8" stroke-linecap="round"/>
  <line x1="1465.6" y1="472.5" x2="1937.6" y2="302.1" stroke="#ffffff" stroke-width="2" stroke-linecap="round" opacity="0.92"/>
</g>



<circle cx="235" cy="345" r="2.5" fill="#bff7ff" opacity="0.044" filter="url(#softGlow)"/>
<circle cx="571" cy="624" r="3.1" fill="#bff7ff" opacity="0.139" filter="url(#softGlow)"/>
<circle cx="823" cy="758" r="2.9" fill="#bff7ff" opacity="0.140" filter="url(#softGlow)"/>
<circle cx="564" cy="887" r="2.7" fill="#bff7ff" opacity="0.175" filter="url(#softGlow)"/>
<circle cx="164" cy="884" r="1.8" fill="#bff7ff" opacity="0.095" filter="url(#softGlow)"/>
<circle cx="935" cy="130" r="3.9" fill="#bff7ff" opacity="0.099" filter="url(#softGlow)"/>
<circle cx="482" cy="542" r="4.0" fill="#bff7ff" opacity="0.045" filter="url(#softGlow)"/>
<circle cx="758" cy="663" r="3.7" fill="#bff7ff" opacity="0.113" filter="url(#softGlow)"/>
<circle cx="841" cy="212" r="3.5" fill="#bff7ff" opacity="0.131" filter="url(#softGlow)"/>
<circle cx="1103" cy="775" r="2.0" fill="#bff7ff" opacity="0.132" filter="url(#softGlow)"/>
<circle cx="647" cy="402" r="4.0" fill="#bff7ff" opacity="0.163" filter="url(#softGlow)"/>
<circle cx="908" cy="750" r="1.8" fill="#bff7ff" opacity="0.094" filter="url(#softGlow)"/>
<circle cx="1272" cy="569" r="2.4" fill="#bff7ff" opacity="0.102" filter="url(#softGlow)"/>
<circle cx="878" cy="288" r="3.0" fill="#bff7ff" opacity="0.055" filter="url(#softGlow)"/>
</svg>