<svg xmlns="http://www.w3.org/2000/svg" width="1920" height="1080" viewBox="0 0 1920 1080">
<defs>
<radialGradient id="spaceGlow" cx="52%" cy="56%" r="54%"><stop offset="0%" stop-color="#132a42"/><stop offset="38%" stop-color="#111630"/><stop offset="100%" stop-color="#030712"/></radialGradient>
<radialGradient id="robotBody" cx="40%" cy="24%" r="85%"><stop offset="0%" stop-color="#ffffff"/><stop offset="52%" stop-color="#dce9ff"/><stop offset="100%" stop-color="#93a6bd"/></radialGradient>
<radialGradient id="blueCore" cx="40%" cy="30%" r="70%"><stop offset="0%" stop-color="#8df4ff"/><stop offset="45%" stop-color="#4895ff"/><stop offset="100%" stop-color="#1a47ff"/></radialGradient>
<filter id="softGlow" x="-80%" y="-80%" width="260%" height="260%"><feGaussianBlur stdDeviation="16" result="blur"/><feMerge><feMergeNode in="blur"/><feMergeNode in="SourceGraphic"/></feMerge></filter>
<filter id="wideGlow" x="-120%" y="-120%" width="340%" height="340%"><feGaussianBlur stdDeviation="34" result="blur"/><feMerge><feMergeNode in="blur"/><feMergeNode in="SourceGraphic"/></feMerge></filter>
</defs>
<ellipse cx="960" cy="747.4" rx="271.6" ry="198.9" fill="none" stroke="#70d6ff" stroke-width="4" opacity="0.136" filter="url(#softGlow)"/>
<path d="M820 740 C770 700 770 825 825 795" stroke="#c4f4ff" stroke-width="10" opacity="0.191" fill="none" stroke-linecap="round" filter="url(#softGlow)"/>
<path d="M1098 724 C1162 686 1164 822 1098 794" stroke="#c4f4ff" stroke-width="10" opacity="0.289" fill="none" stroke-linecap="round" filter="url(#softGlow)"/>
<circle cx="1082.5" cy="614.8" r="4.0" fill="#c8f7ff" opacity="0.312" filter="url(#softGlow)"/>
<circle cx="975.7" cy="647.6" r="5.0" fill="#c8f7ff" opacity="0.340" filter="url(#softGlow)"/>
<circle cx="823.0" cy="770.5" r="6.0" fill="#c8f7ff" opacity="0.322" filter="url(#softGlow)"/>
<circle cx="783.6" cy="891.6" r="7.0" fill="#c8f7ff" opacity="0.265" filter="url(#softGlow)"/>
<circle cx="742.9" cy="914.0" r="4.0" fill="#c8f7ff" opacity="0.190" filter="url(#softGlow)"/>
<circle cx="795.4" cy="895.4" r="5.0" fill="#c8f7ff" opacity="0.128" filter="url(#softGlow)"/>
<circle cx="948.2" cy="775.1" r="6.0" fill="#c8f7ff" opacity="0.100" filter="url(#softGlow)"/>
<circle cx="1080.5" cy="651.8" r="7.0" fill="#c8f7ff" opacity="0.119" filter="url(#softGlow)"/>
<circle cx="1200.3" cy="615.3" r="4.0" fill="#c8f7ff" opacity="0.176" filter="url(#softGlow)"/>
<circle cx="1143.7" cy="619.4" r="5.0" fill="#c8f7ff" opacity="0.251" filter="url(#softGlow)"/>

<g transform="translate(1606.1 193.0)" opacity="0.667" filter="url(#softGlow)">
  <ellipse cx="0" cy="0" rx="92" ry="23" fill="#85f7ff" opacity="0.92"/>
  <ellipse cx="0" cy="-18" rx="46" ry="30" fill="#b9ffcc" opacity="0.76"/>
  <circle cx="-46" cy="4" r="8" fill="#f7ff82"/><circle cx="0" cy="7" r="8" fill="#ff7ddb"/><circle cx="46" cy="4" r="8" fill="#f7ff82"/>
  <path d="M-42 18 L38 18 L118 180 L-118 180 Z" fill="#7dffb3" opacity="0.080"/>
</g>



<g opacity="0.674" filter="url(#softGlow)">
  <line x1="1382.5" y1="502.4" x2="1722.5" y2="380.0" stroke="#ffffff" stroke-width="8" stroke-linecap="round"/>
  <line x1="1400.5" y1="496.4" x2="1872.5" y2="326.0" stroke="#ffffff" stroke-width="2" stroke-linecap="round" opacity="0.92"/>
</g>



<circle cx="108" cy="73" r="1.5" fill="#bff7ff" opacity="0.039" filter="url(#softGlow)"/>
<circle cx="1070" cy="355" r="1.7" fill="#bff7ff" opacity="0.113" filter="url(#softGlow)"/>
<circle cx="521" cy="84" r="1.9" fill="#bff7ff" opacity="0.146" filter="url(#softGlow)"/>
<circle cx="1577" cy="985" r="2.7" fill="#bff7ff" opacity="0.040" filter="url(#softGlow)"/>
<circle cx="933" cy="713" r="3.0" fill="#bff7ff" opacity="0.122" filter="url(#softGlow)"/>
<circle cx="98" cy="170" r="4.1" fill="#bff7ff" opacity="0.142" filter="url(#softGlow)"/>
<circle cx="241" cy="949" r="3.4" fill="#bff7ff" opacity="0.116" filter="url(#softGlow)"/>
<circle cx="986" cy="54" r="2.5" fill="#bff7ff" opacity="0.174" filter="url(#softGlow)"/>
<circle cx="880" cy="743" r="2.9" fill="#bff7ff" opacity="0.041" filter="url(#softGlow)"/>
<circle cx="1789" cy="251" r="2.3" fill="#bff7ff" opacity="0.151" filter="url(#softGlow)"/>
<circle cx="1760" cy="415" r="4.2" fill="#bff7ff" opacity="0.109" filter="url(#softGlow)"/>
<circle cx="984" cy="530" r="3.1" fill="#bff7ff" opacity="0.045" filter="url(#softGlow)"/>
<circle cx="949" cy="235" r="3.8" fill="#bff7ff" opacity="0.165" filter="url(#softGlow)"/>
<circle cx="1166" cy="234" r="3.5" fill="#bff7ff" opacity="0.124" filter="url(#softGlow)"/>
</svg>