<svg xmlns="http://www.w3.org/2000/svg" width="1920" height="1080" viewBox="0 0 1920 1080">
<defs>
<radialGradient id="spaceGlow" cx="52%" cy="56%" r="54%"><stop offset="0%" stop-color="#132a42"/><stop offset="38%" stop-color="#111630"/><stop offset="100%" stop-color="#030712"/></radialGradient>
<radialGradient id="robotBody" cx="40%" cy="24%" r="85%"><stop offset="0%" stop-color="#ffffff"/><stop offset="52%" stop-color="#dce9ff"/><stop offset="100%" stop-color="#93a6bd"/></radialGradient>
<radialGradient id="blueCore" cx="40%" cy="30%" r="70%"><stop offset="0%" stop-color="#8df4ff"/><stop offset="45%" stop-color="#4895ff"/><stop offset="100%" stop-color="#1a47ff"/></radialGradient>
<filter id="softGlow" x="-80%" y="-80%" width="260%" height="260%"><feGaussianBlur stdDeviation="16" result="blur"/><feMerge><feMergeNode in="blur"/><feMergeNode in="SourceGraphic"/></feMerge></filter>
<filter id="wideGlow" x="-120%" y="-120%" width="340%" height="340%"><feGaussianBlur stdDeviation="34" result="blur"/><feMerge><feMergeNode in="blur"/><feMergeNode in="SourceGraphic"/></feMerge></filter>
</defs>
<ellipse cx="960" cy="748.4" rx="273.1" ry="199.7" fill="none" stroke="#70d6ff" stroke-width="4" opacity="0.142" filter="url(#softGlow)"/>
<path d="M820 740 C770 700 770 825 825 795" stroke="#c4f4ff" stroke-width="10" opacity="0.201" fill="none" stroke-linecap="round" filter="url(#softGlow)"/>
<path d="M1098 724 C1162 686 1164 822 1098 794" stroke="#c4f4ff" stroke-width="10" opacity="0.279" fill="none" stroke-linecap="round" filter="url(#softGlow)"/>
<circle cx="1074.0" cy="616.2" r="4.0" fill="#c8f7ff" opacity="0.316" filter="url(#softGlow)"/>
<circle cx="963.1" cy="657.0" r="5.0" fill="#c8f7ff" opacity="0.340" filter="url(#softGlow)"/>
<circle cx="810.9" cy="780.7" r="6.0" fill="#c8f7ff" opacity="0.318" filter="url(#softGlow)"/>
<circle cx="779.9" cy="899.7" r="7.0" fill="#c8f7ff" opacity="0.258" filter="url(#softGlow)"/>
<circle cx="746.4" cy="913.8" r="4.0" fill="#c8f7ff" opacity="0.184" filter="url(#softGlow)"/>
<circle cx="806.9" cy="886.9" r="5.0" fill="#c8f7ff" opacity="0.123" filter="url(#softGlow)"/>
<circle cx="959.0" cy="765.0" r="6.0" fill="#c8f7ff" opacity="0.100" filter="url(#softGlow)"/>
<circle cx="1091.0" cy="642.7" r="7.0" fill="#c8f7ff" opacity="0.123" filter="url(#softGlow)"/>
<circle cx="1205.2" cy="614.3" r="4.0" fill="#c8f7ff" opacity="0.183" filter="url(#softGlow)"/>
<circle cx="1140.7" cy="626.8" r="5.0" fill="#c8f7ff" opacity="0.257" filter="url(#softGlow)"/>

<g transform="translate(1593.0 188.8)" opacity="0.685" filter="url(#softGlow)">
  <ellipse cx="0" cy="0" rx="92" ry="23" fill="#85f7ff" opacity="0.92"/>
  <ellipse cx="0" cy="-18" rx="46" ry="30" fill="#b9ffcc" opacity="0.76"/>
  <circle cx="-46" cy="4" r="8" fill="#f7ff82"/><circle cx="0" cy="7" r="8" fill="#ff7ddb"/><circle cx="46" cy="4" r="8" fill="#f7ff82"/>
  <path d="M-42 18 L38 18 L118 180 L-118 180 Z" fill="#7dffb3" opacity="0.082"/>
</g>



<g opacity="0.759" filter="url(#softGlow)">
  <line x1="1323.7" y1="524.0" x2="1663.7" y2="401.6" stroke="#ffffff" stroke-width="8" stroke-linecap="round"/>
  <line x1="1341.7" y1="518.0" x2="1813.7" y2="347.6" stroke="#ffffff" stroke-width="2" stroke-linecap="round" opacity="0.92"/>
</g>



<circle cx="108" cy="73" r="1.5" fill="#bff7ff" opacity="0.038" filter="url(#softGlow)"/>
<circle cx="1070" cy="355" r="1.7" fill="#bff7ff" opacity="0.109" filter="url(#softGlow)"/>
<circle cx="521" cy="84" r="1.9" fill="#bff7ff" opacity="0.141" filter="url(#softGlow)"/>
<circle cx="1577" cy="985" r="2.7" fill="#bff7ff" opacity="0.038" filter="url(#softGlow)"/>
<circle cx="933" cy="713" r="3.0" fill="#bff7ff" opacity="0.118" filter="url(#softGlow)"/>
<circle cx="98" cy="170" r="4.1" fill="#bff7ff" opacity="0.137" filter="url(#softGlow)"/>
<circle cx="241" cy="949" r="3.4" fill="#bff7ff" opacity="0.112" filter="url(#softGlow)"/>
<circle cx="986" cy="54" r="2.5" fill="#bff7ff" opacity="0.169" filter="url(#softGlow)"/>
<circle cx="880" cy="743" r="2.9" fill="#bff7ff" opacity="0.039" filter="url(#softGlow)"/>
<circle cx="1789" cy="251" r="2.3" fill="#bff7ff" opacity="0.146" filter="url(#softGlow)"/>
<circle cx="1760" cy="415" r="4.2" fill="#bff7ff" opacity="0.106" filter="url(#softGlow)"/>
<circle cx="984" cy="530" r="3.1" fill="#bff7ff" opacity="0.044" filter="url(#softGlow)"/>
<circle cx="949" cy="235" r="3.8" fill="#bff7ff" opacity="0.160" filter="url(#softGlow)"/>
<circle cx="1166" cy="234" r="3.5" fill="#bff7ff" opacity="0.120" filter="url(#softGlow)"/>
</svg>