<svg xmlns="http://www.w3.org/2000/svg" width="1920" height="1080" viewBox="0 0 1920 1080">
<defs>
<radialGradient id="spaceGlow" cx="52%" cy="56%" r="54%"><stop offset="0%" stop-color="#132a42"/><stop offset="38%" stop-color="#111630"/><stop offset="100%" stop-color="#030712"/></radialGradient>
<radialGradient id="robotBody" cx="40%" cy="24%" r="85%"><stop offset="0%" stop-color="#ffffff"/><stop offset="52%" stop-color="#dce9ff"/><stop offset="100%" stop-color="#93a6bd"/></radialGradient>
<radialGradient id="blueCore" cx="40%" cy="30%" r="70%"><stop offset="0%" stop-color="#8df4ff"/><stop offset="45%" stop-color="#4895ff"/><stop offset="100%" stop-color="#1a47ff"/></radialGradient>
<filter id="softGlow" x="-80%" y="-80%" width="260%" height="260%"><feGaussianBlur stdDeviation="16" result="blur"/><feMerge><feMergeNode in="blur"/><feMergeNode in="SourceGraphic"/></feMerge></filter>
<filter id="wideGlow" x="-120%" y="-120%" width="340%" height="340%"><feGaussianBlur stdDeviation="34" result="blur"/><feMerge><feMergeNode in="blur"/><feMergeNode in="SourceGraphic"/></feMerge></filter>
</defs>
<ellipse cx="960" cy="749.4" rx="275.0" ry="200.8" fill="none" stroke="#70d6ff" stroke-width="4" opacity="0.149" filter="url(#softGlow)"/>
<path d="M820 740 C770 700 770 825 825 795" stroke="#c4f4ff" stroke-width="10" opacity="0.213" fill="none" stroke-linecap="round" filter="url(#softGlow)"/>
<path d="M1098 724 C1162 686 1164 822 1098 794" stroke="#c4f4ff" stroke-width="10" opacity="0.267" fill="none" stroke-linecap="round" filter="url(#softGlow)"/>
<circle cx="1065.2" cy="618.2" r="4.0" fill="#c8f7ff" opacity="0.320" filter="url(#softGlow)"/>
<circle cx="950.4" cy="666.9" r="5.0" fill="#c8f7ff" opacity="0.340" filter="url(#softGlow)"/>
<circle cx="799.2" cy="790.7" r="6.0" fill="#c8f7ff" opacity="0.314" filter="url(#softGlow)"/>
<circle cx="776.8" cy="907.2" r="7.0" fill="#c8f7ff" opacity="0.252" filter="url(#softGlow)"/>
<circle cx="750.5" cy="912.9" r="4.0" fill="#c8f7ff" opacity="0.177" filter="url(#softGlow)"/>
<circle cx="818.9" cy="877.9" r="5.0" fill="#c8f7ff" opacity="0.120" filter="url(#softGlow)"/>
<circle cx="969.8" cy="754.8" r="6.0" fill="#c8f7ff" opacity="0.100" filter="url(#softGlow)"/>
<circle cx="1101.1" cy="634.1" r="7.0" fill="#c8f7ff" opacity="0.127" filter="url(#softGlow)"/>
<circle cx="1209.4" cy="614.0" r="4.0" fill="#c8f7ff" opacity="0.189" filter="url(#softGlow)"/>
<circle cx="1137.1" cy="634.8" r="5.0" fill="#c8f7ff" opacity="0.263" filter="url(#softGlow)"/>

<g transform="translate(1579.6 185.1)" opacity="0.703" filter="url(#softGlow)">
  <ellipse cx="0" cy="0" rx="92" ry="23" fill="#85f7ff" opacity="0.92"/>
  <ellipse cx="0" cy="-18" rx="46" ry="30" fill="#b9ffcc" opacity="0.76"/>
  <circle cx="-46" cy="4" r="8" fill="#f7ff82"/><circle cx="0" cy="7" r="8" fill="#ff7ddb"/><circle cx="46" cy="4" r="8" fill="#f7ff82"/>
  <path d="M-42 18 L38 18 L118 180 L-118 180 Z" fill="#7dffb3" opacity="0.084"/>
</g>



<g opacity="0.834" filter="url(#softGlow)">
  <line x1="1270.9" y1="543.3" x2="1610.9" y2="420.9" stroke="#ffffff" stroke-width="8" stroke-linecap="round"/>
  <line x1="1288.9" y1="537.3" x2="1760.9" y2="366.9" stroke="#ffffff" stroke-width="2" stroke-linecap="round" opacity="0.92"/>
</g>



<circle cx="108" cy="73" r="1.5" fill="#bff7ff" opacity="0.036" filter="url(#softGlow)"/>
<circle cx="1070" cy="355" r="1.7" fill="#bff7ff" opacity="0.106" filter="url(#softGlow)"/>
<circle cx="521" cy="84" r="1.9" fill="#bff7ff" opacity="0.136" filter="url(#softGlow)"/>
<circle cx="1577" cy="985" r="2.7" fill="#bff7ff" opacity="0.037" filter="url(#softGlow)"/>
<circle cx="933" cy="713" r="3.0" fill="#bff7ff" opacity="0.114" filter="url(#softGlow)"/>
<circle cx="98" cy="170" r="4.1" fill="#bff7ff" opacity="0.133" filter="url(#softGlow)"/>
<circle cx="241" cy="949" r="3.4" fill="#bff7ff" opacity="0.108" filter="url(#softGlow)"/>
<circle cx="986" cy="54" r="2.5" fill="#bff7ff" opacity="0.163" filter="url(#softGlow)"/>
<circle cx="880" cy="743" r="2.9" fill="#bff7ff" opacity="0.038" filter="url(#softGlow)"/>
<circle cx="1789" cy="251" r="2.3" fill="#bff7ff" opacity="0.142" filter="url(#softGlow)"/>
<circle cx="1760" cy="415" r="4.2" fill="#bff7ff" opacity="0.102" filter="url(#softGlow)"/>
<circle cx="984" cy="530" r="3.1" fill="#bff7ff" opacity="0.043" filter="url(#softGlow)"/>
<circle cx="949" cy="235" r="3.8" fill="#bff7ff" opacity="0.155" filter="url(#softGlow)"/>
<circle cx="1166" cy="234" r="3.5" fill="#bff7ff" opacity="0.116" filter="url(#softGlow)"/>
</svg>