<svg xmlns="http://www.w3.org/2000/svg" width="1920" height="1080" viewBox="0 0 1920 1080">
<defs>
<radialGradient id="spaceGlow" cx="52%" cy="56%" r="54%"><stop offset="0%" stop-color="#132a42"/><stop offset="38%" stop-color="#111630"/><stop offset="100%" stop-color="#030712"/></radialGradient>
<radialGradient id="robotBody" cx="40%" cy="24%" r="85%"><stop offset="0%" stop-color="#ffffff"/><stop offset="52%" stop-color="#dce9ff"/><stop offset="100%" stop-color="#93a6bd"/></radialGradient>
<radialGradient id="blueCore" cx="40%" cy="30%" r="70%"><stop offset="0%" stop-color="#8df4ff"/><stop offset="45%" stop-color="#4895ff"/><stop offset="100%" stop-color="#1a47ff"/></radialGradient>
<filter id="softGlow" x="-80%" y="-80%" width="260%" height="260%"><feGaussianBlur stdDeviation="16" result="blur"/><feMerge><feMergeNode in="blur"/><feMergeNode in="SourceGraphic"/></feMerge></filter>
<filter id="wideGlow" x="-120%" y="-120%" width="340%" height="340%"><feGaussianBlur stdDeviation="34" result="blur"/><feMerge><feMergeNode in="blur"/><feMergeNode in="SourceGraphic"/></feMerge></filter>
</defs>
<ellipse cx="960" cy="750.4" rx="277.1" ry="201.9" fill="none" stroke="#70d6ff" stroke-width="4" opacity="0.158" filter="url(#softGlow)"/>
<path d="M820 740 C770 700 770 825 825 795" stroke="#c4f4ff" stroke-width="10" opacity="0.227" fill="none" stroke-linecap="round" filter="url(#softGlow)"/>
<path d="M1098 724 C1162 686 1164 822 1098 794" stroke="#c4f4ff" stroke-width="10" opacity="0.253" fill="none" stroke-linecap="round" filter="url(#softGlow)"/>
<circle cx="1056.1" cy="621.0" r="4.0" fill="#c8f7ff" opacity="0.324" filter="url(#softGlow)"/>
<circle cx="937.7" cy="677.3" r="5.0" fill="#c8f7ff" opacity="0.339" filter="url(#softGlow)"/>
<circle cx="788.0" cy="800.7" r="6.0" fill="#c8f7ff" opacity="0.309" filter="url(#softGlow)"/>
<circle cx="774.2" cy="914.1" r="7.0" fill="#c8f7ff" opacity="0.245" filter="url(#softGlow)"/>
<circle cx="755.4" cy="911.3" r="4.0" fill="#c8f7ff" opacity="0.171" filter="url(#softGlow)"/>
<circle cx="831.4" cy="868.3" r="5.0" fill="#c8f7ff" opacity="0.116" filter="url(#softGlow)"/>
<circle cx="980.5" cy="744.6" r="6.0" fill="#c8f7ff" opacity="0.101" filter="url(#softGlow)"/>
<circle cx="1110.7" cy="626.2" r="7.0" fill="#c8f7ff" opacity="0.131" filter="url(#softGlow)"/>
<circle cx="1212.7" cy="614.4" r="4.0" fill="#c8f7ff" opacity="0.196" filter="url(#softGlow)"/>
<circle cx="1132.9" cy="643.5" r="5.0" fill="#c8f7ff" opacity="0.270" filter="url(#softGlow)"/>

<g transform="translate(1566.0 182.2)" opacity="0.720" filter="url(#softGlow)">
  <ellipse cx="0" cy="0" rx="92" ry="23" fill="#85f7ff" opacity="0.92"/>
  <ellipse cx="0" cy="-18" rx="46" ry="30" fill="#b9ffcc" opacity="0.76"/>
  <circle cx="-46" cy="4" r="8" fill="#f7ff82"/><circle cx="0" cy="7" r="8" fill="#ff7ddb"/><circle cx="46" cy="4" r="8" fill="#f7ff82"/>
  <path d="M-42 18 L38 18 L118 180 L-118 180 Z" fill="#7dffb3" opacity="0.086"/>
</g>



<g opacity="0.895" filter="url(#softGlow)">
  <line x1="1223.8" y1="560.6" x2="1563.8" y2="438.2" stroke="#ffffff" stroke-width="8" stroke-linecap="round"/>
  <line x1="1241.8" y1="554.6" x2="1713.8" y2="384.2" stroke="#ffffff" stroke-width="2" stroke-linecap="round" opacity="0.92"/>
</g>



<circle cx="1007" cy="156" r="3.6" fill="#bff7ff" opacity="0.142" filter="url(#softGlow)"/>
<circle cx="794" cy="144" r="3.8" fill="#bff7ff" opacity="0.085" filter="url(#softGlow)"/>
<circle cx="858" cy="110" r="2.3" fill="#bff7ff" opacity="0.125" filter="url(#softGlow)"/>
<circle cx="123" cy="651" r="2.8" fill="#bff7ff" opacity="0.137" filter="url(#softGlow)"/>
<circle cx="1561" cy="483" r="3.1" fill="#bff7ff" opacity="0.126" filter="url(#softGlow)"/>
<circle cx="1561" cy="913" r="2.5" fill="#bff7ff" opacity="0.090" filter="url(#softGlow)"/>
<circle cx="605" cy="531" r="3.1" fill="#bff7ff" opacity="0.170" filter="url(#softGlow)"/>
<circle cx="750" cy="121" r="2.5" fill="#bff7ff" opacity="0.063" filter="url(#softGlow)"/>
<circle cx="1449" cy="46" r="1.9" fill="#bff7ff" opacity="0.138" filter="url(#softGlow)"/>
<circle cx="1822" cy="160" r="1.8" fill="#bff7ff" opacity="0.171" filter="url(#softGlow)"/>
<circle cx="694" cy="459" r="1.7" fill="#bff7ff" opacity="0.141" filter="url(#softGlow)"/>
<circle cx="300" cy="937" r="3.5" fill="#bff7ff" opacity="0.080" filter="url(#softGlow)"/>
<circle cx="640" cy="239" r="2.2" fill="#bff7ff" opacity="0.127" filter="url(#softGlow)"/>
<circle cx="728" cy="441" r="4.0" fill="#bff7ff" opacity="0.084" filter="url(#softGlow)"/>
</svg>