<svg xmlns="http://www.w3.org/2000/svg" width="1920" height="1080" viewBox="0 0 1920 1080">
<defs>
<radialGradient id="spaceGlow" cx="52%" cy="56%" r="54%"><stop offset="0%" stop-color="#132a42"/><stop offset="38%" stop-color="#111630"/><stop offset="100%" stop-color="#030712"/></radialGradient>
<radialGradient id="robotBody" cx="40%" cy="24%" r="85%"><stop offset="0%" stop-color="#ffffff"/><stop offset="52%" stop-color="#dce9ff"/><stop offset="100%" stop-color="#93a6bd"/></radialGradient>
<radialGradient id="blueCore" cx="40%" cy="30%" r="70%"><stop offset="0%" stop-color="#8df4ff"/><stop offset="45%" stop-color="#4895ff"/><stop offset="100%" stop-color="#1a47ff"/></radialGradient>
<filter id="softGlow" x="-80%" y="-80%" width="260%" height="260%"><feGaussianBlur stdDeviation="16" result="blur"/><feMerge><feMergeNode in="blur"/><feMergeNode in="SourceGraphic"/></feMerge></filter>
<filter id="wideGlow" x="-120%" y="-120%" width="340%" height="340%"><feGaussianBlur stdDeviation="34" result="blur"/><feMerge><feMergeNode in="blur"/><feMergeNode in="SourceGraphic"/></feMerge></filter>
</defs>
<ellipse cx="960" cy="751.5" rx="279.3" ry="203.2" fill="none" stroke="#70d6ff" stroke-width="4" opacity="0.166" filter="url(#softGlow)"/>
<path d="M820 740 C770 700 770 825 825 795" stroke="#c4f4ff" stroke-width="10" opacity="0.242" fill="none" stroke-linecap="round" filter="url(#softGlow)"/>
<path d="M1098 724 C1162 686 1164 822 1098 794" stroke="#c4f4ff" stroke-width="10" opacity="0.238" fill="none" stroke-linecap="round" filter="url(#softGlow)"/>
<circle cx="1046.7" cy="624.4" r="4.0" fill="#c8f7ff" opacity="0.327" filter="url(#softGlow)"/>
<circle cx="925.1" cy="688.1" r="5.0" fill="#c8f7ff" opacity="0.339" filter="url(#softGlow)"/>
<circle cx="777.4" cy="810.5" r="6.0" fill="#c8f7ff" opacity="0.305" filter="url(#softGlow)"/>
<circle cx="772.3" cy="920.2" r="7.0" fill="#c8f7ff" opacity="0.238" filter="url(#softGlow)"/>
<circle cx="760.9" cy="909.1" r="4.0" fill="#c8f7ff" opacity="0.165" filter="url(#softGlow)"/>
<circle cx="844.2" cy="858.3" r="5.0" fill="#c8f7ff" opacity="0.113" filter="url(#softGlow)"/>
<circle cx="991.2" cy="734.5" r="6.0" fill="#c8f7ff" opacity="0.102" filter="url(#softGlow)"/>
<circle cx="1119.9" cy="618.8" r="7.0" fill="#c8f7ff" opacity="0.136" filter="url(#softGlow)"/>
<circle cx="1215.3" cy="615.4" r="4.0" fill="#c8f7ff" opacity="0.203" filter="url(#softGlow)"/>
<circle cx="1128.2" cy="652.6" r="5.0" fill="#c8f7ff" opacity="0.276" filter="url(#softGlow)"/>

<g transform="translate(1552.0 180.1)" opacity="0.737" filter="url(#softGlow)">
  <ellipse cx="0" cy="0" rx="92" ry="23" fill="#85f7ff" opacity="0.92"/>
  <ellipse cx="0" cy="-18" rx="46" ry="30" fill="#b9ffcc" opacity="0.76"/>
  <circle cx="-46" cy="4" r="8" fill="#f7ff82"/><circle cx="0" cy="7" r="8" fill="#ff7ddb"/><circle cx="46" cy="4" r="8" fill="#f7ff82"/>
  <path d="M-42 18 L38 18 L118 180 L-118 180 Z" fill="#7dffb3" opacity="0.088"/>
</g>



<g opacity="0.943" filter="url(#softGlow)">
  <line x1="1182.1" y1="575.9" x2="1522.1" y2="453.5" stroke="#ffffff" stroke-width="8" stroke-linecap="round"/>
  <line x1="1200.1" y1="569.9" x2="1672.1" y2="399.5" stroke="#ffffff" stroke-width="2" stroke-linecap="round" opacity="0.92"/>
</g>



<circle cx="1007" cy="156" r="3.6" fill="#bff7ff" opacity="0.136" filter="url(#softGlow)"/>
<circle cx="794" cy="144" r="3.8" fill="#bff7ff" opacity="0.081" filter="url(#softGlow)"/>
<circle cx="858" cy="110" r="2.3" fill="#bff7ff" opacity="0.120" filter="url(#softGlow)"/>
<circle cx="123" cy="651" r="2.8" fill="#bff7ff" opacity="0.132" filter="url(#softGlow)"/>
<circle cx="1561" cy="483" r="3.1" fill="#bff7ff" opacity="0.121" filter="url(#softGlow)"/>
<circle cx="1561" cy="913" r="2.5" fill="#bff7ff" opacity="0.086" filter="url(#softGlow)"/>
<circle cx="605" cy="531" r="3.1" fill="#bff7ff" opacity="0.163" filter="url(#softGlow)"/>
<circle cx="750" cy="121" r="2.5" fill="#bff7ff" opacity="0.060" filter="url(#softGlow)"/>
<circle cx="1449" cy="46" r="1.9" fill="#bff7ff" opacity="0.132" filter="url(#softGlow)"/>
<circle cx="1822" cy="160" r="1.8" fill="#bff7ff" opacity="0.164" filter="url(#softGlow)"/>
<circle cx="694" cy="459" r="1.7" fill="#bff7ff" opacity="0.135" filter="url(#softGlow)"/>
<circle cx="300" cy="937" r="3.5" fill="#bff7ff" opacity="0.077" filter="url(#softGlow)"/>
<circle cx="640" cy="239" r="2.2" fill="#bff7ff" opacity="0.122" filter="url(#softGlow)"/>
<circle cx="728" cy="441" r="4.0" fill="#bff7ff" opacity="0.081" filter="url(#softGlow)"/>
</svg>