<svg xmlns="http://www.w3.org/2000/svg" width="1920" height="1080" viewBox="0 0 1920 1080">
<defs>
<radialGradient id="spaceGlow" cx="52%" cy="56%" r="54%"><stop offset="0%" stop-color="#132a42"/><stop offset="38%" stop-color="#111630"/><stop offset="100%" stop-color="#030712"/></radialGradient>
<radialGradient id="robotBody" cx="40%" cy="24%" r="85%"><stop offset="0%" stop-color="#ffffff"/><stop offset="52%" stop-color="#dce9ff"/><stop offset="100%" stop-color="#93a6bd"/></radialGradient>
<radialGradient id="blueCore" cx="40%" cy="30%" r="70%"><stop offset="0%" stop-color="#8df4ff"/><stop offset="45%" stop-color="#4895ff"/><stop offset="100%" stop-color="#1a47ff"/></radialGradient>
<filter id="softGlow" x="-80%" y="-80%" width="260%" height="260%"><feGaussianBlur stdDeviation="16" result="blur"/><feMerge><feMergeNode in="blur"/><feMergeNode in="SourceGraphic"/></feMerge></filter>
<filter id="wideGlow" x="-120%" y="-120%" width="340%" height="340%"><feGaussianBlur stdDeviation="34" result="blur"/><feMerge><feMergeNode in="blur"/><feMergeNode in="SourceGraphic"/></feMerge></filter>
</defs>
<ellipse cx="960" cy="752.6" rx="281.5" ry="204.4" fill="none" stroke="#70d6ff" stroke-width="4" opacity="0.175" filter="url(#softGlow)"/>
<path d="M820 740 C770 700 770 825 825 795" stroke="#c4f4ff" stroke-width="10" opacity="0.257" fill="none" stroke-linecap="round" filter="url(#softGlow)"/>
<path d="M1098 724 C1162 686 1164 822 1098 794" stroke="#c4f4ff" stroke-width="10" opacity="0.223" fill="none" stroke-linecap="round" filter="url(#softGlow)"/>
<circle cx="1037.0" cy="628.4" r="4.0" fill="#c8f7ff" opacity="0.330" filter="url(#softGlow)"/>
<circle cx="912.7" cy="699.2" r="5.0" fill="#c8f7ff" opacity="0.337" filter="url(#softGlow)"/>
<circle cx="767.4" cy="820.1" r="6.0" fill="#c8f7ff" opacity="0.300" filter="url(#softGlow)"/>
<circle cx="770.9" cy="925.7" r="7.0" fill="#c8f7ff" opacity="0.232" filter="url(#softGlow)"/>
<circle cx="767.0" cy="906.2" r="4.0" fill="#c8f7ff" opacity="0.159" filter="url(#softGlow)"/>
<circle cx="857.5" cy="847.8" r="5.0" fill="#c8f7ff" opacity="0.110" filter="url(#softGlow)"/>
<circle cx="1001.7" cy="724.6" r="6.0" fill="#c8f7ff" opacity="0.103" filter="url(#softGlow)"/>
<circle cx="1128.5" cy="612.2" r="7.0" fill="#c8f7ff" opacity="0.141" filter="url(#softGlow)"/>
<circle cx="1217.0" cy="617.2" r="4.0" fill="#c8f7ff" opacity="0.209" filter="url(#softGlow)"/>
<circle cx="1122.9" cy="662.3" r="5.0" fill="#c8f7ff" opacity="0.282" filter="url(#softGlow)"/>

<g transform="translate(1537.8 179.1)" opacity="0.753" filter="url(#softGlow)">
  <ellipse cx="0" cy="0" rx="92" ry="23" fill="#85f7ff" opacity="0.92"/>
  <ellipse cx="0" cy="-18" rx="46" ry="30" fill="#b9ffcc" opacity="0.76"/>
  <circle cx="-46" cy="4" r="8" fill="#f7ff82"/><circle cx="0" cy="7" r="8" fill="#ff7ddb"/><circle cx="46" cy="4" r="8" fill="#f7ff82"/>
  <path d="M-42 18 L38 18 L118 180 L-118 180 Z" fill="#7dffb3" opacity="0.090"/>
</g>



<g opacity="0.977" filter="url(#softGlow)">
  <line x1="1145.5" y1="589.3" x2="1485.5" y2="466.9" stroke="#ffffff" stroke-width="8" stroke-linecap="round"/>
  <line x1="1163.5" y1="583.3" x2="1635.5" y2="412.9" stroke="#ffffff" stroke-width="2" stroke-linecap="round" opacity="0.92"/>
</g>



<circle cx="1007" cy="156" r="3.6" fill="#bff7ff" opacity="0.130" filter="url(#softGlow)"/>
<circle cx="794" cy="144" r="3.8" fill="#bff7ff" opacity="0.078" filter="url(#softGlow)"/>
<circle cx="858" cy="110" r="2.3" fill="#bff7ff" opacity="0.115" filter="url(#softGlow)"/>
<circle cx="123" cy="651" r="2.8" fill="#bff7ff" opacity="0.126" filter="url(#softGlow)"/>
<circle cx="1561" cy="483" r="3.1" fill="#bff7ff" opacity="0.116" filter="url(#softGlow)"/>
<circle cx="1561" cy="913" r="2.5" fill="#bff7ff" opacity="0.082" filter="url(#softGlow)"/>
<circle cx="605" cy="531" r="3.1" fill="#bff7ff" opacity="0.156" filter="url(#softGlow)"/>
<circle cx="750" cy="121" r="2.5" fill="#bff7ff" opacity="0.057" filter="url(#softGlow)"/>
<circle cx="1449" cy="46" r="1.9" fill="#bff7ff" opacity="0.127" filter="url(#softGlow)"/>
<circle cx="1822" cy="160" r="1.8" fill="#bff7ff" opacity="0.157" filter="url(#softGlow)"/>
<circle cx="694" cy="459" r="1.7" fill="#bff7ff" opacity="0.129" filter="url(#softGlow)"/>
<circle cx="300" cy="937" r="3.5" fill="#bff7ff" opacity="0.073" filter="url(#softGlow)"/>
<circle cx="640" cy="239" r="2.2" fill="#bff7ff" opacity="0.116" filter="url(#softGlow)"/>
<circle cx="728" cy="441" r="4.0" fill="#bff7ff" opacity="0.077" filter="url(#softGlow)"/>
</svg>