<svg xmlns="http://www.w3.org/2000/svg" width="1920" height="1080" viewBox="0 0 1920 1080">
<defs>
<radialGradient id="spaceGlow" cx="52%" cy="56%" r="54%"><stop offset="0%" stop-color="#132a42"/><stop offset="38%" stop-color="#111630"/><stop offset="100%" stop-color="#030712"/></radialGradient>
<radialGradient id="robotBody" cx="40%" cy="24%" r="85%"><stop offset="0%" stop-color="#ffffff"/><stop offset="52%" stop-color="#dce9ff"/><stop offset="100%" stop-color="#93a6bd"/></radialGradient>
<radialGradient id="blueCore" cx="40%" cy="30%" r="70%"><stop offset="0%" stop-color="#8df4ff"/><stop offset="45%" stop-color="#4895ff"/><stop offset="100%" stop-color="#1a47ff"/></radialGradient>
<filter id="softGlow" x="-80%" y="-80%" width="260%" height="260%"><feGaussianBlur stdDeviation="16" result="blur"/><feMerge><feMergeNode in="blur"/><feMergeNode in="SourceGraphic"/></feMerge></filter>
<filter id="wideGlow" x="-120%" y="-120%" width="340%" height="340%"><feGaussianBlur stdDeviation="34" result="blur"/><feMerge><feMergeNode in="blur"/><feMergeNode in="SourceGraphic"/></feMerge></filter>
</defs>
<ellipse cx="960" cy="757.4" rx="287.6" ry="207.8" fill="none" stroke="#70d6ff" stroke-width="4" opacity="0.199" filter="url(#softGlow)"/>
<path d="M820 740 C770 700 770 825 825 795" stroke="#c4f4ff" stroke-width="10" opacity="0.298" fill="none" stroke-linecap="round" filter="url(#softGlow)"/>
<path d="M1098 724 C1162 686 1164 822 1098 794" stroke="#c4f4ff" stroke-width="10" opacity="0.182" fill="none" stroke-linecap="round" filter="url(#softGlow)"/>
<circle cx="995.9" cy="650.6" r="4.0" fill="#c8f7ff" opacity="0.338" filter="url(#softGlow)"/>
<circle cx="864.7" cy="746.1" r="5.0" fill="#c8f7ff" opacity="0.329" filter="url(#softGlow)"/>
<circle cx="733.7" cy="855.4" r="6.0" fill="#c8f7ff" opacity="0.278" filter="url(#softGlow)"/>
<circle cx="771.6" cy="939.7" r="7.0" fill="#c8f7ff" opacity="0.205" filter="url(#softGlow)"/>
<circle cx="797.5" cy="888.1" r="4.0" fill="#c8f7ff" opacity="0.137" filter="url(#softGlow)"/>
<circle cx="913.3" cy="802.6" r="5.0" fill="#c8f7ff" opacity="0.102" filter="url(#softGlow)"/>
<circle cx="1042.3" cy="687.2" r="6.0" fill="#c8f7ff" opacity="0.112" filter="url(#softGlow)"/>
<circle cx="1157.4" cy="592.8" r="7.0" fill="#c8f7ff" opacity="0.163" filter="url(#softGlow)"/>
<circle cx="1215.6" cy="630.9" r="4.0" fill="#c8f7ff" opacity="0.236" filter="url(#softGlow)"/>
<circle cx="1096.8" cy="705.3" r="5.0" fill="#c8f7ff" opacity="0.303" filter="url(#softGlow)"/>

<g transform="translate(1478.5 185.6)" opacity="0.813" filter="url(#softGlow)">
  <ellipse cx="0" cy="0" rx="92" ry="23" fill="#85f7ff" opacity="0.92"/>
  <ellipse cx="0" cy="-18" rx="46" ry="30" fill="#b9ffcc" opacity="0.76"/>
  <circle cx="-46" cy="4" r="8" fill="#f7ff82"/><circle cx="0" cy="7" r="8" fill="#ff7ddb"/><circle cx="46" cy="4" r="8" fill="#f7ff82"/>
  <path d="M-42 18 L38 18 L118 180 L-118 180 Z" fill="#7dffb3" opacity="0.098"/>
</g>



<g opacity="0.962" filter="url(#softGlow)">
  <line x1="1042.8" y1="627.0" x2="1382.8" y2="504.6" stroke="#ffffff" stroke-width="8" stroke-linecap="round"/>
  <line x1="1060.8" y1="621.0" x2="1532.8" y2="450.6" stroke="#ffffff" stroke-width="2" stroke-linecap="round" opacity="0.92"/>
</g>



<circle cx="701" cy="852" r="2.2" fill="#bff7ff" opacity="0.109" filter="url(#softGlow)"/>
<circle cx="279" cy="777" r="1.9" fill="#bff7ff" opacity="0.042" filter="url(#softGlow)"/>
<circle cx="159" cy="254" r="3.5" fill="#bff7ff" opacity="0.039" filter="url(#softGlow)"/>
<circle cx="528" cy="308" r="3.6" fill="#bff7ff" opacity="0.041" filter="url(#softGlow)"/>
<circle cx="1259" cy="718" r="2.1" fill="#bff7ff" opacity="0.074" filter="url(#softGlow)"/>
<circle cx="924" cy="486" r="2.5" fill="#bff7ff" opacity="0.041" filter="url(#softGlow)"/>
<circle cx="951" cy="398" r="1.9" fill="#bff7ff" opacity="0.088" filter="url(#softGlow)"/>
<circle cx="1013" cy="1010" r="4.0" fill="#bff7ff" opacity="0.073" filter="url(#softGlow)"/>
<circle cx="581" cy="410" r="3.7" fill="#bff7ff" opacity="0.026" filter="url(#softGlow)"/>
<circle cx="293" cy="293" r="2.9" fill="#bff7ff" opacity="0.116" filter="url(#softGlow)"/>
<circle cx="1809" cy="962" r="2.9" fill="#bff7ff" opacity="0.067" filter="url(#softGlow)"/>
<circle cx="1790" cy="45" r="4.1" fill="#bff7ff" opacity="0.087" filter="url(#softGlow)"/>
<circle cx="932" cy="957" r="3.6" fill="#bff7ff" opacity="0.034" filter="url(#softGlow)"/>
<circle cx="741" cy="958" r="3.9" fill="#bff7ff" opacity="0.091" filter="url(#softGlow)"/>
</svg>