<svg xmlns="http://www.w3.org/2000/svg" width="1920" height="1080" viewBox="0 0 1920 1080">
<defs>
<radialGradient id="spaceGlow" cx="52%" cy="56%" r="54%"><stop offset="0%" stop-color="#132a42"/><stop offset="38%" stop-color="#111630"/><stop offset="100%" stop-color="#030712"/></radialGradient>
<radialGradient id="robotBody" cx="40%" cy="24%" r="85%"><stop offset="0%" stop-color="#ffffff"/><stop offset="52%" stop-color="#dce9ff"/><stop offset="100%" stop-color="#93a6bd"/></radialGradient>
<radialGradient id="blueCore" cx="40%" cy="30%" r="70%"><stop offset="0%" stop-color="#8df4ff"/><stop offset="45%" stop-color="#4895ff"/><stop offset="100%" stop-color="#1a47ff"/></radialGradient>
<filter id="softGlow" x="-80%" y="-80%" width="260%" height="260%"><feGaussianBlur stdDeviation="16" result="blur"/><feMerge><feMergeNode in="blur"/><feMergeNode in="SourceGraphic"/></feMerge></filter>
<filter id="wideGlow" x="-120%" y="-120%" width="340%" height="340%"><feGaussianBlur stdDeviation="34" result="blur"/><feMerge><feMergeNode in="blur"/><feMergeNode in="SourceGraphic"/></feMerge></filter>
</defs>
<ellipse cx="960" cy="768.4" rx="275.5" ry="201.1" fill="none" stroke="#70d6ff" stroke-width="4" opacity="0.152" filter="url(#softGlow)"/>
<path d="M820 740 C770 700 770 825 825 795" stroke="#c4f4ff" stroke-width="10" opacity="0.217" fill="none" stroke-linecap="round" filter="url(#softGlow)"/>
<path d="M1098 724 C1162 686 1164 822 1098 794" stroke="#c4f4ff" stroke-width="10" opacity="0.263" fill="none" stroke-linecap="round" filter="url(#softGlow)"/>
<circle cx="900.3" cy="727.7" r="4.0" fill="#c8f7ff" opacity="0.334" filter="url(#softGlow)"/>
<circle cx="777.8" cy="851.1" r="5.0" fill="#c8f7ff" opacity="0.290" filter="url(#softGlow)"/>
<circle cx="702.0" cy="907.1" r="6.0" fill="#c8f7ff" opacity="0.219" filter="url(#softGlow)"/>
<circle cx="807.5" cy="924.1" r="7.0" fill="#c8f7ff" opacity="0.148" filter="url(#softGlow)"/>
<circle cx="893.4" cy="817.2" r="4.0" fill="#c8f7ff" opacity="0.105" filter="url(#softGlow)"/>
<circle cx="1043.1" cy="695.7" r="5.0" fill="#c8f7ff" opacity="0.106" filter="url(#softGlow)"/>
<circle cx="1115.4" cy="627.1" r="6.0" fill="#c8f7ff" opacity="0.151" filter="url(#softGlow)"/>
<circle cx="1184.0" cy="595.9" r="7.0" fill="#c8f7ff" opacity="0.222" filter="url(#softGlow)"/>
<circle cx="1165.8" cy="694.7" r="4.0" fill="#c8f7ff" opacity="0.292" filter="url(#softGlow)"/>
<circle cx="1015.0" cy="812.5" r="5.0" fill="#c8f7ff" opacity="0.335" filter="url(#softGlow)"/>

<g transform="translate(1332.8 219.6)" opacity="0.920" filter="url(#softGlow)">
  <ellipse cx="0" cy="0" rx="92" ry="23" fill="#85f7ff" opacity="0.92"/>
  <ellipse cx="0" cy="-18" rx="46" ry="30" fill="#b9ffcc" opacity="0.76"/>
  <circle cx="-46" cy="4" r="8" fill="#f7ff82"/><circle cx="0" cy="7" r="8" fill="#ff7ddb"/><circle cx="46" cy="4" r="8" fill="#f7ff82"/>
  <path d="M-42 18 L38 18 L118 180 L-118 180 Z" fill="#7dffb3" opacity="0.110"/>
</g>



<g opacity="0.184" filter="url(#softGlow)">
  <line x1="980.2" y1="649.9" x2="1320.2" y2="527.5" stroke="#ffffff" stroke-width="8" stroke-linecap="round"/>
  <line x1="998.2" y1="643.9" x2="1470.2" y2="473.5" stroke="#ffffff" stroke-width="2" stroke-linecap="round" opacity="0.92"/>
</g>



<circle cx="1226" cy="179" r="2.8" fill="#bff7ff" opacity="0.030" filter="url(#softGlow)"/>
<circle cx="226" cy="676" r="3.8" fill="#bff7ff" opacity="0.046" filter="url(#softGlow)"/>
<circle cx="1127" cy="869" r="3.5" fill="#bff7ff" opacity="0.021" filter="url(#softGlow)"/>
<circle cx="580" cy="947" r="3.1" fill="#bff7ff" opacity="0.037" filter="url(#softGlow)"/>
<circle cx="1047" cy="632" r="4.1" fill="#bff7ff" opacity="0.013" filter="url(#softGlow)"/>
<circle cx="925" cy="599" r="2.4" fill="#bff7ff" opacity="0.041" filter="url(#softGlow)"/>
<circle cx="1189" cy="659" r="2.4" fill="#bff7ff" opacity="0.036" filter="url(#softGlow)"/>
<circle cx="1570" cy="74" r="2.2" fill="#bff7ff" opacity="0.044" filter="url(#softGlow)"/>
<circle cx="759" cy="910" r="2.2" fill="#bff7ff" opacity="0.044" filter="url(#softGlow)"/>
<circle cx="1038" cy="612" r="3.4" fill="#bff7ff" opacity="0.029" filter="url(#softGlow)"/>
<circle cx="1124" cy="361" r="2.6" fill="#bff7ff" opacity="0.044" filter="url(#softGlow)"/>
<circle cx="1190" cy="761" r="3.0" fill="#bff7ff" opacity="0.017" filter="url(#softGlow)"/>
<circle cx="529" cy="308" r="3.6" fill="#bff7ff" opacity="0.026" filter="url(#softGlow)"/>
<circle cx="765" cy="329" r="2.0" fill="#bff7ff" opacity="0.038" filter="url(#softGlow)"/>
</svg>