<svg xmlns="http://www.w3.org/2000/svg" width="1920" height="1080" viewBox="0 0 1920 1080">
<defs>
<radialGradient id="spaceGlow" cx="52%" cy="56%" r="54%"><stop offset="0%" stop-color="#132a42"/><stop offset="38%" stop-color="#111630"/><stop offset="100%" stop-color="#030712"/></radialGradient>
<radialGradient id="robotBody" cx="40%" cy="24%" r="85%"><stop offset="0%" stop-color="#ffffff"/><stop offset="52%" stop-color="#dce9ff"/><stop offset="100%" stop-color="#93a6bd"/></radialGradient>
<radialGradient id="blueCore" cx="40%" cy="30%" r="70%"><stop offset="0%" stop-color="#8df4ff"/><stop offset="45%" stop-color="#4895ff"/><stop offset="100%" stop-color="#1a47ff"/></radialGradient>
<filter id="softGlow" x="-80%" y="-80%" width="260%" height="260%"><feGaussianBlur stdDeviation="16" result="blur"/><feMerge><feMergeNode in="blur"/><feMergeNode in="SourceGraphic"/></feMerge></filter>
<filter id="wideGlow" x="-120%" y="-120%" width="340%" height="340%"><feGaussianBlur stdDeviation="34" result="blur"/><feMerge><feMergeNode in="blur"/><feMergeNode in="SourceGraphic"/></feMerge></filter>
</defs>
<ellipse cx="960" cy="769.5" rx="273.6" ry="200.0" fill="none" stroke="#70d6ff" stroke-width="4" opacity="0.144" filter="url(#softGlow)"/>
<path d="M820 740 C770 700 770 825 825 795" stroke="#c4f4ff" stroke-width="10" opacity="0.204" fill="none" stroke-linecap="round" filter="url(#softGlow)"/>
<path d="M1098 724 C1162 686 1164 822 1098 794" stroke="#c4f4ff" stroke-width="10" opacity="0.276" fill="none" stroke-linecap="round" filter="url(#softGlow)"/>
<circle cx="890.2" cy="737.6" r="4.0" fill="#c8f7ff" opacity="0.332" filter="url(#softGlow)"/>
<circle cx="770.8" cy="861.4" r="5.0" fill="#c8f7ff" opacity="0.284" filter="url(#softGlow)"/>
<circle cx="702.6" cy="909.9" r="6.0" fill="#c8f7ff" opacity="0.212" filter="url(#softGlow)"/>
<circle cx="814.1" cy="918.4" r="7.0" fill="#c8f7ff" opacity="0.143" filter="url(#softGlow)"/>
<circle cx="905.6" cy="807.5" r="4.0" fill="#c8f7ff" opacity="0.104" filter="url(#softGlow)"/>
<circle cx="1056.8" cy="684.7" r="5.0" fill="#c8f7ff" opacity="0.109" filter="url(#softGlow)"/>
<circle cx="1121.4" cy="623.3" r="6.0" fill="#c8f7ff" opacity="0.157" filter="url(#softGlow)"/>
<circle cx="1183.4" cy="600.3" r="7.0" fill="#c8f7ff" opacity="0.229" filter="url(#softGlow)"/>
<circle cx="1156.7" cy="703.9" r="4.0" fill="#c8f7ff" opacity="0.298" filter="url(#softGlow)"/>
<circle cx="1004.6" cy="824.0" r="5.0" fill="#c8f7ff" opacity="0.337" filter="url(#softGlow)"/>

<g transform="translate(1315.8 221.2)" opacity="0.930" filter="url(#softGlow)">
  <ellipse cx="0" cy="0" rx="92" ry="23" fill="#85f7ff" opacity="0.92"/>
  <ellipse cx="0" cy="-18" rx="46" ry="30" fill="#b9ffcc" opacity="0.76"/>
  <circle cx="-46" cy="4" r="8" fill="#f7ff82"/><circle cx="0" cy="7" r="8" fill="#ff7ddb"/><circle cx="46" cy="4" r="8" fill="#f7ff82"/>
  <path d="M-42 18 L38 18 L118 180 L-118 180 Z" fill="#7dffb3" opacity="0.112"/>
</g>



<g opacity="0.062" filter="url(#softGlow)">
  <line x1="980.0" y1="650.0" x2="1320.0" y2="527.6" stroke="#ffffff" stroke-width="8" stroke-linecap="round"/>
  <line x1="998.0" y1="644.0" x2="1470.0" y2="473.6" stroke="#ffffff" stroke-width="2" stroke-linecap="round" opacity="0.92"/>
</g>



<circle cx="1226" cy="179" r="2.8" fill="#bff7ff" opacity="0.027" filter="url(#softGlow)"/>
<circle cx="226" cy="676" r="3.8" fill="#bff7ff" opacity="0.041" filter="url(#softGlow)"/>
<circle cx="1127" cy="869" r="3.5" fill="#bff7ff" opacity="0.019" filter="url(#softGlow)"/>
<circle cx="580" cy="947" r="3.1" fill="#bff7ff" opacity="0.033" filter="url(#softGlow)"/>
<circle cx="1047" cy="632" r="4.1" fill="#bff7ff" opacity="0.012" filter="url(#softGlow)"/>
<circle cx="925" cy="599" r="2.4" fill="#bff7ff" opacity="0.037" filter="url(#softGlow)"/>
<circle cx="1189" cy="659" r="2.4" fill="#bff7ff" opacity="0.033" filter="url(#softGlow)"/>
<circle cx="1570" cy="74" r="2.2" fill="#bff7ff" opacity="0.040" filter="url(#softGlow)"/>
<circle cx="759" cy="910" r="2.2" fill="#bff7ff" opacity="0.040" filter="url(#softGlow)"/>
<circle cx="1038" cy="612" r="3.4" fill="#bff7ff" opacity="0.026" filter="url(#softGlow)"/>
<circle cx="1124" cy="361" r="2.6" fill="#bff7ff" opacity="0.039" filter="url(#softGlow)"/>
<circle cx="1190" cy="761" r="3.0" fill="#bff7ff" opacity="0.015" filter="url(#softGlow)"/>
<circle cx="529" cy="308" r="3.6" fill="#bff7ff" opacity="0.023" filter="url(#softGlow)"/>
<circle cx="765" cy="329" r="2.0" fill="#bff7ff" opacity="0.034" filter="url(#softGlow)"/>
</svg>