<svg xmlns="http://www.w3.org/2000/svg" width="1920" height="1080" viewBox="0 0 1920 1080">
<defs>
<radialGradient id="spaceGlow" cx="52%" cy="56%" r="54%"><stop offset="0%" stop-color="#132a42"/><stop offset="38%" stop-color="#111630"/><stop offset="100%" stop-color="#030712"/></radialGradient>
<radialGradient id="robotBody" cx="40%" cy="24%" r="85%"><stop offset="0%" stop-color="#ffffff"/><stop offset="52%" stop-color="#dce9ff"/><stop offset="100%" stop-color="#93a6bd"/></radialGradient>
<radialGradient id="blueCore" cx="40%" cy="30%" r="70%"><stop offset="0%" stop-color="#8df4ff"/><stop offset="45%" stop-color="#4895ff"/><stop offset="100%" stop-color="#1a47ff"/></radialGradient>
<filter id="softGlow" x="-80%" y="-80%" width="260%" height="260%"><feGaussianBlur stdDeviation="16" result="blur"/><feMerge><feMergeNode in="blur"/><feMergeNode in="SourceGraphic"/></feMerge></filter>
<filter id="wideGlow" x="-120%" y="-120%" width="340%" height="340%"><feGaussianBlur stdDeviation="34" result="blur"/><feMerge><feMergeNode in="blur"/><feMergeNode in="SourceGraphic"/></feMerge></filter>
</defs>
<ellipse cx="960" cy="771.6" rx="270.8" ry="198.4" fill="none" stroke="#70d6ff" stroke-width="4" opacity="0.133" filter="url(#softGlow)"/>
<path d="M820 740 C770 700 770 825 825 795" stroke="#c4f4ff" stroke-width="10" opacity="0.185" fill="none" stroke-linecap="round" filter="url(#softGlow)"/>
<path d="M1098 724 C1162 686 1164 822 1098 794" stroke="#c4f4ff" stroke-width="10" opacity="0.295" fill="none" stroke-linecap="round" filter="url(#softGlow)"/>
<circle cx="870.6" cy="757.9" r="4.0" fill="#c8f7ff" opacity="0.326" filter="url(#softGlow)"/>
<circle cx="758.4" cy="880.7" r="5.0" fill="#c8f7ff" opacity="0.272" filter="url(#softGlow)"/>
<circle cx="706.1" cy="913.3" r="6.0" fill="#c8f7ff" opacity="0.199" filter="url(#softGlow)"/>
<circle cx="828.8" cy="905.0" r="7.0" fill="#c8f7ff" opacity="0.133" filter="url(#softGlow)"/>
<circle cx="930.5" cy="787.7" r="4.0" fill="#c8f7ff" opacity="0.101" filter="url(#softGlow)"/>
<circle cx="1083.3" cy="663.8" r="5.0" fill="#c8f7ff" opacity="0.115" filter="url(#softGlow)"/>
<circle cx="1131.7" cy="617.5" r="6.0" fill="#c8f7ff" opacity="0.169" filter="url(#softGlow)"/>
<circle cx="1180.1" cy="611.2" r="7.0" fill="#c8f7ff" opacity="0.242" filter="url(#softGlow)"/>
<circle cx="1136.5" cy="723.1" r="4.0" fill="#c8f7ff" opacity="0.308" filter="url(#softGlow)"/>
<circle cx="983.4" cy="846.2" r="5.0" fill="#c8f7ff" opacity="0.339" filter="url(#softGlow)"/>

<g transform="translate(1281.3 223.0)" opacity="0.946" filter="url(#softGlow)">
  <ellipse cx="0" cy="0" rx="92" ry="23" fill="#85f7ff" opacity="0.92"/>
  <ellipse cx="0" cy="-18" rx="46" ry="30" fill="#b9ffcc" opacity="0.76"/>
  <circle cx="-46" cy="4" r="8" fill="#f7ff82"/><circle cx="0" cy="7" r="8" fill="#ff7ddb"/><circle cx="46" cy="4" r="8" fill="#f7ff82"/>
  <path d="M-42 18 L38 18 L118 180 L-118 180 Z" fill="#7dffb3" opacity="0.114"/>
</g>






<circle cx="785" cy="119" r="3.2" fill="#bff7ff" opacity="0.026" filter="url(#softGlow)"/>
<circle cx="701" cy="161" r="4.0" fill="#bff7ff" opacity="0.039" filter="url(#softGlow)"/>
<circle cx="1098" cy="969" r="3.3" fill="#bff7ff" opacity="0.042" filter="url(#softGlow)"/>
<circle cx="164" cy="536" r="3.1" fill="#bff7ff" opacity="0.027" filter="url(#softGlow)"/>
<circle cx="1815" cy="134" r="2.6" fill="#bff7ff" opacity="0.018" filter="url(#softGlow)"/>
<circle cx="1641" cy="315" r="2.8" fill="#bff7ff" opacity="0.038" filter="url(#softGlow)"/>
<circle cx="1694" cy="885" r="3.8" fill="#bff7ff" opacity="0.028" filter="url(#softGlow)"/>
<circle cx="787" cy="559" r="2.8" fill="#bff7ff" opacity="0.043" filter="url(#softGlow)"/>
<circle cx="239" cy="138" r="2.9" fill="#bff7ff" opacity="0.020" filter="url(#softGlow)"/>
<circle cx="1128" cy="883" r="3.2" fill="#bff7ff" opacity="0.028" filter="url(#softGlow)"/>
<circle cx="185" cy="324" r="4.1" fill="#bff7ff" opacity="0.012" filter="url(#softGlow)"/>
<circle cx="1613" cy="1000" r="3.7" fill="#bff7ff" opacity="0.016" filter="url(#softGlow)"/>
<circle cx="886" cy="491" r="2.6" fill="#bff7ff" opacity="0.041" filter="url(#softGlow)"/>
<circle cx="1307" cy="780" r="4.2" fill="#bff7ff" opacity="0.018" filter="url(#softGlow)"/>
</svg>