<svg xmlns="http://www.w3.org/2000/svg" width="1920" height="1080" viewBox="0 0 1920 1080">
<defs>
<radialGradient id="spaceGlow" cx="52%" cy="56%" r="54%"><stop offset="0%" stop-color="#132a42"/><stop offset="38%" stop-color="#111630"/><stop offset="100%" stop-color="#030712"/></radialGradient>
<radialGradient id="robotBody" cx="40%" cy="24%" r="85%"><stop offset="0%" stop-color="#ffffff"/><stop offset="52%" stop-color="#dce9ff"/><stop offset="100%" stop-color="#93a6bd"/></radialGradient>
<radialGradient id="blueCore" cx="40%" cy="30%" r="70%"><stop offset="0%" stop-color="#8df4ff"/><stop offset="45%" stop-color="#4895ff"/><stop offset="100%" stop-color="#1a47ff"/></radialGradient>
<filter id="softGlow" x="-80%" y="-80%" width="260%" height="260%"><feGaussianBlur stdDeviation="16" result="blur"/><feMerge><feMergeNode in="blur"/><feMergeNode in="SourceGraphic"/></feMerge></filter>
<filter id="wideGlow" x="-120%" y="-120%" width="340%" height="340%"><feGaussianBlur stdDeviation="34" result="blur"/><feMerge><feMergeNode in="blur"/><feMergeNode in="SourceGraphic"/></feMerge></filter>
</defs>
<ellipse cx="960" cy="774.2" rx="270.5" ry="198.3" fill="none" stroke="#70d6ff" stroke-width="4" opacity="0.132" filter="url(#softGlow)"/>
<path d="M820 740 C770 700 770 825 825 795" stroke="#c4f4ff" stroke-width="10" opacity="0.183" fill="none" stroke-linecap="round" filter="url(#softGlow)"/>
<path d="M1098 724 C1162 686 1164 822 1098 794" stroke="#c4f4ff" stroke-width="10" opacity="0.297" fill="none" stroke-linecap="round" filter="url(#softGlow)"/>
<circle cx="843.6" cy="788.4" r="4.0" fill="#c8f7ff" opacity="0.315" filter="url(#softGlow)"/>
<circle cx="744.8" cy="905.5" r="5.0" fill="#c8f7ff" opacity="0.253" filter="url(#softGlow)"/>
<circle cx="717.5" cy="913.2" r="6.0" fill="#c8f7ff" opacity="0.179" filter="url(#softGlow)"/>
<circle cx="854.0" cy="880.1" r="7.0" fill="#c8f7ff" opacity="0.120" filter="url(#softGlow)"/>
<circle cx="968.5" cy="757.2" r="4.0" fill="#c8f7ff" opacity="0.100" filter="url(#softGlow)"/>
<circle cx="1119.8" cy="636.1" r="5.0" fill="#c8f7ff" opacity="0.126" filter="url(#softGlow)"/>
<circle cx="1143.0" cy="614.0" r="6.0" fill="#c8f7ff" opacity="0.188" filter="url(#softGlow)"/>
<circle cx="1169.9" cy="632.9" r="7.0" fill="#c8f7ff" opacity="0.262" filter="url(#softGlow)"/>
<circle cx="1102.2" cy="753.2" r="4.0" fill="#c8f7ff" opacity="0.320" filter="url(#softGlow)"/>
<circle cx="951.2" cy="876.5" r="5.0" fill="#c8f7ff" opacity="0.340" filter="url(#softGlow)"/>

<g transform="translate(1228.8 223.0)" opacity="0.967" filter="url(#softGlow)">
  <ellipse cx="0" cy="0" rx="92" ry="23" fill="#85f7ff" opacity="0.92"/>
  <ellipse cx="0" cy="-18" rx="46" ry="30" fill="#b9ffcc" opacity="0.76"/>
  <circle cx="-46" cy="4" r="8" fill="#f7ff82"/><circle cx="0" cy="7" r="8" fill="#ff7ddb"/><circle cx="46" cy="4" r="8" fill="#f7ff82"/>
  <path d="M-42 18 L38 18 L118 180 L-118 180 Z" fill="#7dffb3" opacity="0.116"/>
</g>






<circle cx="1353" cy="227" r="3.7" fill="#bff7ff" opacity="0.006" filter="url(#softGlow)"/>
<circle cx="663" cy="574" r="4.0" fill="#bff7ff" opacity="0.018" filter="url(#softGlow)"/>
<circle cx="1661" cy="68" r="1.9" fill="#bff7ff" opacity="0.009" filter="url(#softGlow)"/>
<circle cx="333" cy="428" r="2.6" fill="#bff7ff" opacity="0.016" filter="url(#softGlow)"/>
<circle cx="967" cy="253" r="2.1" fill="#bff7ff" opacity="0.025" filter="url(#softGlow)"/>
<circle cx="1538" cy="476" r="4.2" fill="#bff7ff" opacity="0.027" filter="url(#softGlow)"/>
<circle cx="372" cy="922" r="3.3" fill="#bff7ff" opacity="0.015" filter="url(#softGlow)"/>
<circle cx="1745" cy="197" r="3.0" fill="#bff7ff" opacity="0.008" filter="url(#softGlow)"/>
<circle cx="124" cy="594" r="3.5" fill="#bff7ff" opacity="0.014" filter="url(#softGlow)"/>
<circle cx="1334" cy="201" r="3.5" fill="#bff7ff" opacity="0.011" filter="url(#softGlow)"/>
<circle cx="324" cy="250" r="2.4" fill="#bff7ff" opacity="0.022" filter="url(#softGlow)"/>
<circle cx="1207" cy="147" r="2.2" fill="#bff7ff" opacity="0.030" filter="url(#softGlow)"/>
<circle cx="926" cy="616" r="2.0" fill="#bff7ff" opacity="0.022" filter="url(#softGlow)"/>
<circle cx="836" cy="760" r="3.5" fill="#bff7ff" opacity="0.028" filter="url(#softGlow)"/>
</svg>