<svg xmlns="http://www.w3.org/2000/svg" width="1920" height="1080" viewBox="0 0 1920 1080">
<defs>
<radialGradient id="spaceGlow" cx="52%" cy="56%" r="54%"><stop offset="0%" stop-color="#132a42"/><stop offset="38%" stop-color="#111630"/><stop offset="100%" stop-color="#030712"/></radialGradient>
<radialGradient id="robotBody" cx="40%" cy="24%" r="85%"><stop offset="0%" stop-color="#ffffff"/><stop offset="52%" stop-color="#dce9ff"/><stop offset="100%" stop-color="#93a6bd"/></radialGradient>
<radialGradient id="blueCore" cx="40%" cy="30%" r="70%"><stop offset="0%" stop-color="#8df4ff"/><stop offset="45%" stop-color="#4895ff"/><stop offset="100%" stop-color="#1a47ff"/></radialGradient>
<filter id="softGlow" x="-80%" y="-80%" width="260%" height="260%"><feGaussianBlur stdDeviation="16" result="blur"/><feMerge><feMergeNode in="blur"/><feMergeNode in="SourceGraphic"/></feMerge></filter>
<filter id="wideGlow" x="-120%" y="-120%" width="340%" height="340%"><feGaussianBlur stdDeviation="34" result="blur"/><feMerge><feMergeNode in="blur"/><feMergeNode in="SourceGraphic"/></feMerge></filter>
</defs>
<ellipse cx="960" cy="777.1" rx="279.0" ry="203.0" fill="none" stroke="#70d6ff" stroke-width="4" opacity="0.165" filter="url(#softGlow)"/>
<path d="M820 740 C770 700 770 825 825 795" stroke="#c4f4ff" stroke-width="10" opacity="0.240" fill="none" stroke-linecap="round" filter="url(#softGlow)"/>
<path d="M1098 724 C1162 686 1164 822 1098 794" stroke="#c4f4ff" stroke-width="10" opacity="0.240" fill="none" stroke-linecap="round" filter="url(#softGlow)"/>
<circle cx="806.2" cy="836.3" r="4.0" fill="#c8f7ff" opacity="0.290" filter="url(#softGlow)"/>
<circle cx="736.0" cy="933.4" r="5.0" fill="#c8f7ff" opacity="0.220" filter="url(#softGlow)"/>
<circle cx="751.9" cy="899.4" r="6.0" fill="#c8f7ff" opacity="0.149" filter="url(#softGlow)"/>
<circle cx="902.3" cy="828.4" r="7.0" fill="#c8f7ff" opacity="0.106" filter="url(#softGlow)"/>
<circle cx="1030.8" cy="707.6" r="4.0" fill="#c8f7ff" opacity="0.106" filter="url(#softGlow)"/>
<circle cx="1170.1" cy="602.1" r="5.0" fill="#c8f7ff" opacity="0.150" filter="url(#softGlow)"/>
<circle cx="1150.0" cy="621.9" r="6.0" fill="#c8f7ff" opacity="0.221" filter="url(#softGlow)"/>
<circle cx="1139.6" cy="680.6" r="7.0" fill="#c8f7ff" opacity="0.292" filter="url(#softGlow)"/>
<circle cx="1036.3" cy="803.7" r="4.0" fill="#c8f7ff" opacity="0.335" filter="url(#softGlow)"/>
<circle cx="898.5" cy="916.1" r="5.0" fill="#c8f7ff" opacity="0.334" filter="url(#softGlow)"/>

<g transform="translate(1139.5 217.9)" opacity="0.991" filter="url(#softGlow)">
  <ellipse cx="0" cy="0" rx="92" ry="23" fill="#85f7ff" opacity="0.92"/>
  <ellipse cx="0" cy="-18" rx="46" ry="30" fill="#b9ffcc" opacity="0.76"/>
  <circle cx="-46" cy="4" r="8" fill="#f7ff82"/><circle cx="0" cy="7" r="8" fill="#ff7ddb"/><circle cx="46" cy="4" r="8" fill="#f7ff82"/>
  <path d="M-42 18 L38 18 L118 180 L-118 180 Z" fill="#7dffb3" opacity="0.119"/>
</g>






<circle cx="106" cy="328" r="3.1" fill="#bff7ff" opacity="0.012" filter="url(#softGlow)"/>
<circle cx="244" cy="532" r="3.9" fill="#bff7ff" opacity="0.020" filter="url(#softGlow)"/>
<circle cx="1358" cy="366" r="4.1" fill="#bff7ff" opacity="0.017" filter="url(#softGlow)"/>
<circle cx="1436" cy="165" r="2.9" fill="#bff7ff" opacity="0.014" filter="url(#softGlow)"/>
<circle cx="938" cy="499" r="3.3" fill="#bff7ff" opacity="0.020" filter="url(#softGlow)"/>
<circle cx="1767" cy="208" r="2.9" fill="#bff7ff" opacity="0.014" filter="url(#softGlow)"/>
<circle cx="1696" cy="832" r="3.4" fill="#bff7ff" opacity="0.008" filter="url(#softGlow)"/>
<circle cx="1053" cy="399" r="3.2" fill="#bff7ff" opacity="0.022" filter="url(#softGlow)"/>
<circle cx="100" cy="540" r="1.5" fill="#bff7ff" opacity="0.015" filter="url(#softGlow)"/>
<circle cx="1769" cy="78" r="3.9" fill="#bff7ff" opacity="0.008" filter="url(#softGlow)"/>
<circle cx="840" cy="830" r="3.8" fill="#bff7ff" opacity="0.017" filter="url(#softGlow)"/>
<circle cx="1397" cy="543" r="3.4" fill="#bff7ff" opacity="0.021" filter="url(#softGlow)"/>
<circle cx="741" cy="756" r="2.8" fill="#bff7ff" opacity="0.014" filter="url(#softGlow)"/>
<circle cx="1525" cy="611" r="2.5" fill="#bff7ff" opacity="0.010" filter="url(#softGlow)"/>
</svg>