<svg xmlns="http://www.w3.org/2000/svg" width="1920" height="1080" viewBox="0 0 1920 1080">
<defs>
<radialGradient id="spaceGlow" cx="52%" cy="56%" r="54%"><stop offset="0%" stop-color="#132a42"/><stop offset="38%" stop-color="#111630"/><stop offset="100%" stop-color="#030712"/></radialGradient>
<radialGradient id="robotBody" cx="40%" cy="24%" r="85%"><stop offset="0%" stop-color="#ffffff"/><stop offset="52%" stop-color="#dce9ff"/><stop offset="100%" stop-color="#93a6bd"/></radialGradient>
<radialGradient id="blueCore" cx="40%" cy="30%" r="70%"><stop offset="0%" stop-color="#8df4ff"/><stop offset="45%" stop-color="#4895ff"/><stop offset="100%" stop-color="#1a47ff"/></radialGradient>
<filter id="softGlow" x="-80%" y="-80%" width="260%" height="260%"><feGaussianBlur stdDeviation="16" result="blur"/><feMerge><feMergeNode in="blur"/><feMergeNode in="SourceGraphic"/></feMerge></filter>
<filter id="wideGlow" x="-120%" y="-120%" width="340%" height="340%"><feGaussianBlur stdDeviation="34" result="blur"/><feMerge><feMergeNode in="blur"/><feMergeNode in="SourceGraphic"/></feMerge></filter>
</defs>
<ellipse cx="960" cy="777.9" rx="288.0" ry="208.0" fill="none" stroke="#70d6ff" stroke-width="4" opacity="0.200" filter="url(#softGlow)"/>
<path d="M820 740 C770 700 770 825 825 795" stroke="#c4f4ff" stroke-width="10" opacity="0.300" fill="none" stroke-linecap="round" filter="url(#softGlow)"/>
<path d="M1098 724 C1162 686 1164 822 1098 794" stroke="#c4f4ff" stroke-width="10" opacity="0.180" fill="none" stroke-linecap="round" filter="url(#softGlow)"/>
<circle cx="777.8" cy="882.5" r="4.0" fill="#c8f7ff" opacity="0.254" filter="url(#softGlow)"/>
<circle cx="749.0" cy="941.2" r="5.0" fill="#c8f7ff" opacity="0.180" filter="url(#softGlow)"/>
<circle cx="814.6" cy="862.7" r="6.0" fill="#c8f7ff" opacity="0.121" filter="url(#softGlow)"/>
<circle cx="966.0" cy="757.3" r="7.0" fill="#c8f7ff" opacity="0.100" filter="url(#softGlow)"/>
<circle cx="1097.6" cy="657.1" r="4.0" fill="#c8f7ff" opacity="0.125" filter="url(#softGlow)"/>
<circle cx="1208.0" cy="586.0" r="5.0" fill="#c8f7ff" opacity="0.187" filter="url(#softGlow)"/>
<circle cx="1138.4" cy="652.7" r="6.0" fill="#c8f7ff" opacity="0.261" filter="url(#softGlow)"/>
<circle cx="1084.7" cy="749.8" r="7.0" fill="#c8f7ff" opacity="0.320" filter="url(#softGlow)"/>
<circle cx="949.7" cy="857.9" r="4.0" fill="#c8f7ff" opacity="0.340" filter="url(#softGlow)"/>
<circle cx="842.0" cy="940.3" r="5.0" fill="#c8f7ff" opacity="0.314" filter="url(#softGlow)"/>

<g transform="translate(1030.9 199.8)" opacity="1.000" filter="url(#softGlow)">
  <ellipse cx="0" cy="0" rx="92" ry="23" fill="#85f7ff" opacity="0.92"/>
  <ellipse cx="0" cy="-18" rx="46" ry="30" fill="#b9ffcc" opacity="0.76"/>
  <circle cx="-46" cy="4" r="8" fill="#f7ff82"/><circle cx="0" cy="7" r="8" fill="#ff7ddb"/><circle cx="46" cy="4" r="8" fill="#f7ff82"/>
  <path d="M-42 18 L38 18 L118 180 L-118 180 Z" fill="#7dffb3" opacity="0.120"/>
</g>






<circle cx="1798" cy="624" r="3.0" fill="#bff7ff" opacity="0.009" filter="url(#softGlow)"/>
<circle cx="107" cy="861" r="3.5" fill="#bff7ff" opacity="0.015" filter="url(#softGlow)"/>
<circle cx="1684" cy="635" r="2.5" fill="#bff7ff" opacity="0.010" filter="url(#softGlow)"/>
<circle cx="726" cy="251" r="2.0" fill="#bff7ff" opacity="0.027" filter="url(#softGlow)"/>
<circle cx="1459" cy="460" r="3.1" fill="#bff7ff" opacity="0.010" filter="url(#softGlow)"/>
<circle cx="1011" cy="841" r="3.9" fill="#bff7ff" opacity="0.025" filter="url(#softGlow)"/>
<circle cx="382" cy="644" r="2.9" fill="#bff7ff" opacity="0.019" filter="url(#softGlow)"/>
<circle cx="345" cy="554" r="2.9" fill="#bff7ff" opacity="0.010" filter="url(#softGlow)"/>
<circle cx="103" cy="842" r="2.1" fill="#bff7ff" opacity="0.017" filter="url(#softGlow)"/>
<circle cx="1000" cy="459" r="4.1" fill="#bff7ff" opacity="0.008" filter="url(#softGlow)"/>
<circle cx="1120" cy="634" r="4.1" fill="#bff7ff" opacity="0.026" filter="url(#softGlow)"/>
<circle cx="1588" cy="570" r="3.1" fill="#bff7ff" opacity="0.021" filter="url(#softGlow)"/>
<circle cx="1721" cy="273" r="1.5" fill="#bff7ff" opacity="0.024" filter="url(#softGlow)"/>
<circle cx="529" cy="31" r="3.6" fill="#bff7ff" opacity="0.011" filter="url(#softGlow)"/>
</svg>