<svg xmlns="http://www.w3.org/2000/svg" width="1920" height="1080" viewBox="0 0 1920 1080">
<defs>
<radialGradient id="spaceGlow" cx="52%" cy="56%" r="54%"><stop offset="0%" stop-color="#132a42"/><stop offset="38%" stop-color="#111630"/><stop offset="100%" stop-color="#030712"/></radialGradient>
<radialGradient id="robotBody" cx="40%" cy="24%" r="85%"><stop offset="0%" stop-color="#ffffff"/><stop offset="52%" stop-color="#dce9ff"/><stop offset="100%" stop-color="#93a6bd"/></radialGradient>
<radialGradient id="blueCore" cx="40%" cy="30%" r="70%"><stop offset="0%" stop-color="#8df4ff"/><stop offset="45%" stop-color="#4895ff"/><stop offset="100%" stop-color="#1a47ff"/></radialGradient>
<filter id="softGlow" x="-80%" y="-80%" width="260%" height="260%"><feGaussianBlur stdDeviation="16" result="blur"/><feMerge><feMergeNode in="blur"/><feMergeNode in="SourceGraphic"/></feMerge></filter>
<filter id="wideGlow" x="-120%" y="-120%" width="340%" height="340%"><feGaussianBlur stdDeviation="34" result="blur"/><feMerge><feMergeNode in="blur"/><feMergeNode in="SourceGraphic"/></feMerge></filter>
</defs>
<ellipse cx="960" cy="777.5" rx="287.2" ry="207.5" fill="none" stroke="#70d6ff" stroke-width="4" opacity="0.197" filter="url(#softGlow)"/>
<path d="M820 740 C770 700 770 825 825 795" stroke="#c4f4ff" stroke-width="10" opacity="0.295" fill="none" stroke-linecap="round" filter="url(#softGlow)"/>
<path d="M1098 724 C1162 686 1164 822 1098 794" stroke="#c4f4ff" stroke-width="10" opacity="0.185" fill="none" stroke-linecap="round" filter="url(#softGlow)"/>
<circle cx="772.9" cy="893.9" r="4.0" fill="#c8f7ff" opacity="0.241" filter="url(#softGlow)"/>
<circle cx="758.8" cy="937.2" r="5.0" fill="#c8f7ff" opacity="0.167" filter="url(#softGlow)"/>
<circle cx="839.7" cy="846.5" r="6.0" fill="#c8f7ff" opacity="0.114" filter="url(#softGlow)"/>
<circle cx="987.4" cy="733.2" r="7.0" fill="#c8f7ff" opacity="0.101" filter="url(#softGlow)"/>
<circle cx="1116.7" cy="643.8" r="4.0" fill="#c8f7ff" opacity="0.134" filter="url(#softGlow)"/>
<circle cx="1214.5" cy="587.2" r="5.0" fill="#c8f7ff" opacity="0.200" filter="url(#softGlow)"/>
<circle cx="1129.9" cy="667.4" r="6.0" fill="#c8f7ff" opacity="0.274" filter="url(#softGlow)"/>
<circle cx="1062.8" cy="774.0" r="7.0" fill="#c8f7ff" opacity="0.327" filter="url(#softGlow)"/>
<circle cx="920.6" cy="872.9" r="4.0" fill="#c8f7ff" opacity="0.339" filter="url(#softGlow)"/>
<circle cx="826.0" cy="942.0" r="5.0" fill="#c8f7ff" opacity="0.305" filter="url(#softGlow)"/>

<g transform="translate(994.7 191.7)" opacity="0.998" filter="url(#softGlow)">
  <ellipse cx="0" cy="0" rx="92" ry="23" fill="#85f7ff" opacity="0.92"/>
  <ellipse cx="0" cy="-18" rx="46" ry="30" fill="#b9ffcc" opacity="0.76"/>
  <circle cx="-46" cy="4" r="8" fill="#f7ff82"/><circle cx="0" cy="7" r="8" fill="#ff7ddb"/><circle cx="46" cy="4" r="8" fill="#f7ff82"/>
  <path d="M-42 18 L38 18 L118 180 L-118 180 Z" fill="#7dffb3" opacity="0.120"/>
</g>






<circle cx="751" cy="235" r="4.1" fill="#bff7ff" opacity="0.038" filter="url(#softGlow)"/>
<circle cx="649" cy="931" r="2.5" fill="#bff7ff" opacity="0.038" filter="url(#softGlow)"/>
<circle cx="1141" cy="1002" r="3.1" fill="#bff7ff" opacity="0.030" filter="url(#softGlow)"/>
<circle cx="985" cy="855" r="4.2" fill="#bff7ff" opacity="0.035" filter="url(#softGlow)"/>
<circle cx="831" cy="827" r="3.3" fill="#bff7ff" opacity="0.024" filter="url(#softGlow)"/>
<circle cx="1766" cy="45" r="2.0" fill="#bff7ff" opacity="0.011" filter="url(#softGlow)"/>
<circle cx="1446" cy="915" r="3.2" fill="#bff7ff" opacity="0.036" filter="url(#softGlow)"/>
<circle cx="330" cy="708" r="2.1" fill="#bff7ff" opacity="0.017" filter="url(#softGlow)"/>
<circle cx="1479" cy="944" r="2.8" fill="#bff7ff" opacity="0.036" filter="url(#softGlow)"/>
<circle cx="468" cy="405" r="3.4" fill="#bff7ff" opacity="0.031" filter="url(#softGlow)"/>
<circle cx="1131" cy="350" r="2.2" fill="#bff7ff" opacity="0.010" filter="url(#softGlow)"/>
<circle cx="655" cy="246" r="3.4" fill="#bff7ff" opacity="0.032" filter="url(#softGlow)"/>
<circle cx="813" cy="852" r="2.5" fill="#bff7ff" opacity="0.025" filter="url(#softGlow)"/>
<circle cx="141" cy="799" r="3.7" fill="#bff7ff" opacity="0.022" filter="url(#softGlow)"/>
</svg>