<svg xmlns="http://www.w3.org/2000/svg" width="1920" height="1080" viewBox="0 0 1920 1080">
<defs>
<radialGradient id="spaceGlow" cx="52%" cy="56%" r="54%"><stop offset="0%" stop-color="#132a42"/><stop offset="38%" stop-color="#111630"/><stop offset="100%" stop-color="#030712"/></radialGradient>
<radialGradient id="robotBody" cx="40%" cy="24%" r="85%"><stop offset="0%" stop-color="#ffffff"/><stop offset="52%" stop-color="#dce9ff"/><stop offset="100%" stop-color="#93a6bd"/></radialGradient>
<radialGradient id="blueCore" cx="40%" cy="30%" r="70%"><stop offset="0%" stop-color="#8df4ff"/><stop offset="45%" stop-color="#4895ff"/><stop offset="100%" stop-color="#1a47ff"/></radialGradient>
<filter id="softGlow" x="-80%" y="-80%" width="260%" height="260%"><feGaussianBlur stdDeviation="16" result="blur"/><feMerge><feMergeNode in="blur"/><feMergeNode in="SourceGraphic"/></feMerge></filter>
<filter id="wideGlow" x="-120%" y="-120%" width="340%" height="340%"><feGaussianBlur stdDeviation="34" result="blur"/><feMerge><feMergeNode in="blur"/><feMergeNode in="SourceGraphic"/></feMerge></filter>
</defs>
<ellipse cx="960" cy="773.3" rx="273.8" ry="200.1" fill="none" stroke="#70d6ff" stroke-width="4" opacity="0.145" filter="url(#softGlow)"/>
<path d="M820 740 C770 700 770 825 825 795" stroke="#c4f4ff" stroke-width="10" opacity="0.206" fill="none" stroke-linecap="round" filter="url(#softGlow)"/>
<path d="M1098 724 C1162 686 1164 822 1098 794" stroke="#c4f4ff" stroke-width="10" opacity="0.274" fill="none" stroke-linecap="round" filter="url(#softGlow)"/>
<circle cx="774.7" cy="913.8" r="4.0" fill="#c8f7ff" opacity="0.194" filter="url(#softGlow)"/>
<circle cx="812.5" cy="899.2" r="5.0" fill="#c8f7ff" opacity="0.130" filter="url(#softGlow)"/>
<circle cx="937.2" cy="779.9" r="6.0" fill="#c8f7ff" opacity="0.100" filter="url(#softGlow)"/>
<circle cx="1057.9" cy="656.3" r="7.0" fill="#c8f7ff" opacity="0.117" filter="url(#softGlow)"/>
<circle cx="1166.4" cy="616.0" r="4.0" fill="#c8f7ff" opacity="0.173" filter="url(#softGlow)"/>
<circle cx="1211.2" cy="616.2" r="5.0" fill="#c8f7ff" opacity="0.247" filter="url(#softGlow)"/>
<circle cx="1083.9" cy="730.7" r="6.0" fill="#c8f7ff" opacity="0.311" filter="url(#softGlow)"/>
<circle cx="977.9" cy="854.3" r="7.0" fill="#c8f7ff" opacity="0.340" filter="url(#softGlow)"/>
<circle cx="825.2" cy="908.0" r="4.0" fill="#c8f7ff" opacity="0.322" filter="url(#softGlow)"/>
<circle cx="784.3" cy="922.4" r="5.0" fill="#c8f7ff" opacity="0.266" filter="url(#softGlow)"/>

<g transform="translate(868.9 180.9)" opacity="0.973" filter="url(#softGlow)">
  <ellipse cx="0" cy="0" rx="92" ry="23" fill="#85f7ff" opacity="0.92"/>
  <ellipse cx="0" cy="-18" rx="46" ry="30" fill="#b9ffcc" opacity="0.76"/>
  <circle cx="-46" cy="4" r="8" fill="#f7ff82"/><circle cx="0" cy="7" r="8" fill="#ff7ddb"/><circle cx="46" cy="4" r="8" fill="#f7ff82"/>
  <path d="M-42 18 L38 18 L118 180 L-118 180 Z" fill="#7dffb3" opacity="0.117"/>
</g>






<circle cx="129" cy="654" r="3.8" fill="#bff7ff" opacity="0.033" filter="url(#softGlow)"/>
<circle cx="600" cy="433" r="1.7" fill="#bff7ff" opacity="0.068" filter="url(#softGlow)"/>
<circle cx="1097" cy="656" r="2.0" fill="#bff7ff" opacity="0.069" filter="url(#softGlow)"/>
<circle cx="560" cy="276" r="3.4" fill="#bff7ff" opacity="0.053" filter="url(#softGlow)"/>
<circle cx="1605" cy="853" r="3.8" fill="#bff7ff" opacity="0.076" filter="url(#softGlow)"/>
<circle cx="1480" cy="395" r="3.0" fill="#bff7ff" opacity="0.056" filter="url(#softGlow)"/>
<circle cx="163" cy="767" r="3.4" fill="#bff7ff" opacity="0.038" filter="url(#softGlow)"/>
<circle cx="1809" cy="836" r="1.7" fill="#bff7ff" opacity="0.048" filter="url(#softGlow)"/>
<circle cx="520" cy="841" r="2.7" fill="#bff7ff" opacity="0.071" filter="url(#softGlow)"/>
<circle cx="1132" cy="809" r="3.1" fill="#bff7ff" opacity="0.018" filter="url(#softGlow)"/>
<circle cx="172" cy="500" r="2.8" fill="#bff7ff" opacity="0.049" filter="url(#softGlow)"/>
<circle cx="469" cy="613" r="3.8" fill="#bff7ff" opacity="0.066" filter="url(#softGlow)"/>
<circle cx="1251" cy="54" r="2.3" fill="#bff7ff" opacity="0.047" filter="url(#softGlow)"/>
<circle cx="1438" cy="104" r="1.7" fill="#bff7ff" opacity="0.078" filter="url(#softGlow)"/>
</svg>