<svg xmlns="http://www.w3.org/2000/svg" width="1920" height="1080" viewBox="0 0 1920 1080">
<defs>
<radialGradient id="spaceGlow" cx="52%" cy="56%" r="54%"><stop offset="0%" stop-color="#132a42"/><stop offset="38%" stop-color="#111630"/><stop offset="100%" stop-color="#030712"/></radialGradient>
<radialGradient id="robotBody" cx="40%" cy="24%" r="85%"><stop offset="0%" stop-color="#ffffff"/><stop offset="52%" stop-color="#dce9ff"/><stop offset="100%" stop-color="#93a6bd"/></radialGradient>
<radialGradient id="blueCore" cx="40%" cy="30%" r="70%"><stop offset="0%" stop-color="#8df4ff"/><stop offset="45%" stop-color="#4895ff"/><stop offset="100%" stop-color="#1a47ff"/></radialGradient>
<filter id="softGlow" x="-80%" y="-80%" width="260%" height="260%"><feGaussianBlur stdDeviation="16" result="blur"/><feMerge><feMergeNode in="blur"/><feMergeNode in="SourceGraphic"/></feMerge></filter>
<filter id="wideGlow" x="-120%" y="-120%" width="340%" height="340%"><feGaussianBlur stdDeviation="34" result="blur"/><feMerge><feMergeNode in="blur"/><feMergeNode in="SourceGraphic"/></feMerge></filter>
</defs>
<ellipse cx="960" cy="768.4" rx="270.4" ry="198.2" fill="none" stroke="#70d6ff" stroke-width="4" opacity="0.131" filter="url(#softGlow)"/>
<path d="M820 740 C770 700 770 825 825 795" stroke="#c4f4ff" stroke-width="10" opacity="0.183" fill="none" stroke-linecap="round" filter="url(#softGlow)"/>
<path d="M1098 724 C1162 686 1164 822 1098 794" stroke="#c4f4ff" stroke-width="10" opacity="0.297" fill="none" stroke-linecap="round" filter="url(#softGlow)"/>
<circle cx="793.8" cy="907.6" r="4.0" fill="#c8f7ff" opacity="0.162" filter="url(#softGlow)"/>
<circle cx="865.5" cy="852.8" r="5.0" fill="#c8f7ff" opacity="0.111" filter="url(#softGlow)"/>
<circle cx="1009.9" cy="729.3" r="6.0" fill="#c8f7ff" opacity="0.102" filter="url(#softGlow)"/>
<circle cx="1099.5" cy="615.2" r="7.0" fill="#c8f7ff" opacity="0.139" filter="url(#softGlow)"/>
<circle cx="1182.5" cy="616.3" r="4.0" fill="#c8f7ff" opacity="0.206" filter="url(#softGlow)"/>
<circle cx="1184.7" cy="657.7" r="5.0" fill="#c8f7ff" opacity="0.279" filter="url(#softGlow)"/>
<circle cx="1038.7" cy="781.4" r="6.0" fill="#c8f7ff" opacity="0.329" filter="url(#softGlow)"/>
<circle cx="914.8" cy="900.3" r="7.0" fill="#c8f7ff" opacity="0.338" filter="url(#softGlow)"/>
<circle cx="769.1" cy="913.8" r="4.0" fill="#c8f7ff" opacity="0.301" filter="url(#softGlow)"/>
<circle cx="771.1" cy="886.3" r="5.0" fill="#c8f7ff" opacity="0.233" filter="url(#softGlow)"/>

<g transform="translate(781.4 200.0)" opacity="0.938" filter="url(#softGlow)">
  <ellipse cx="0" cy="0" rx="92" ry="23" fill="#85f7ff" opacity="0.92"/>
  <ellipse cx="0" cy="-18" rx="46" ry="30" fill="#b9ffcc" opacity="0.76"/>
  <circle cx="-46" cy="4" r="8" fill="#f7ff82"/><circle cx="0" cy="7" r="8" fill="#ff7ddb"/><circle cx="46" cy="4" r="8" fill="#f7ff82"/>
  <path d="M-42 18 L38 18 L118 180 L-118 180 Z" fill="#7dffb3" opacity="0.113"/>
</g>




<g opacity="0.473" filter="url(#softGlow)">
  <line x1="1279.4" y1="214.2" x2="1594.4" y2="100.8" stroke="#89ffca" stroke-width="8" stroke-linecap="round"/>
  <line x1="1297.4" y1="208.2" x2="1744.4" y2="46.8" stroke="#ffffff" stroke-width="2" stroke-linecap="round" opacity="0.92"/>
</g>


<circle cx="377" cy="434" r="1.6" fill="#bff7ff" opacity="0.117" filter="url(#softGlow)"/>
<circle cx="1690" cy="283" r="2.5" fill="#bff7ff" opacity="0.115" filter="url(#softGlow)"/>
<circle cx="232" cy="977" r="3.6" fill="#bff7ff" opacity="0.056" filter="url(#softGlow)"/>
<circle cx="313" cy="453" r="3.6" fill="#bff7ff" opacity="0.069" filter="url(#softGlow)"/>
<circle cx="84" cy="347" r="2.6" fill="#bff7ff" opacity="0.075" filter="url(#softGlow)"/>
<circle cx="1110" cy="932" r="2.2" fill="#bff7ff" opacity="0.111" filter="url(#softGlow)"/>
<circle cx="1021" cy="223" r="3.2" fill="#bff7ff" opacity="0.095" filter="url(#softGlow)"/>
<circle cx="1061" cy="339" r="1.8" fill="#bff7ff" opacity="0.057" filter="url(#softGlow)"/>
<circle cx="1549" cy="871" r="2.5" fill="#bff7ff" opacity="0.066" filter="url(#softGlow)"/>
<circle cx="1307" cy="215" r="2.1" fill="#bff7ff" opacity="0.051" filter="url(#softGlow)"/>
<circle cx="1137" cy="440" r="4.0" fill="#bff7ff" opacity="0.097" filter="url(#softGlow)"/>
<circle cx="1481" cy="82" r="1.6" fill="#bff7ff" opacity="0.024" filter="url(#softGlow)"/>
<circle cx="1142" cy="475" r="1.6" fill="#bff7ff" opacity="0.086" filter="url(#softGlow)"/>
<circle cx="1098" cy="527" r="3.2" fill="#bff7ff" opacity="0.048" filter="url(#softGlow)"/>
</svg>