<svg xmlns="http://www.w3.org/2000/svg" width="1920" height="1080" viewBox="0 0 1920 1080">
<defs>
<radialGradient id="spaceGlow" cx="52%" cy="56%" r="54%"><stop offset="0%" stop-color="#132a42"/><stop offset="38%" stop-color="#111630"/><stop offset="100%" stop-color="#030712"/></radialGradient>
<radialGradient id="robotBody" cx="40%" cy="24%" r="85%"><stop offset="0%" stop-color="#ffffff"/><stop offset="52%" stop-color="#dce9ff"/><stop offset="100%" stop-color="#93a6bd"/></radialGradient>
<radialGradient id="blueCore" cx="40%" cy="30%" r="70%"><stop offset="0%" stop-color="#8df4ff"/><stop offset="45%" stop-color="#4895ff"/><stop offset="100%" stop-color="#1a47ff"/></radialGradient>
<filter id="softGlow" x="-80%" y="-80%" width="260%" height="260%"><feGaussianBlur stdDeviation="16" result="blur"/><feMerge><feMergeNode in="blur"/><feMergeNode in="SourceGraphic"/></feMerge></filter>
<filter id="wideGlow" x="-120%" y="-120%" width="340%" height="340%"><feGaussianBlur stdDeviation="34" result="blur"/><feMerge><feMergeNode in="blur"/><feMergeNode in="SourceGraphic"/></feMerge></filter>
</defs>
<ellipse cx="960" cy="767.2" rx="271.3" ry="198.7" fill="none" stroke="#70d6ff" stroke-width="4" opacity="0.135" filter="url(#softGlow)"/>
<path d="M820 740 C770 700 770 825 825 795" stroke="#c4f4ff" stroke-width="10" opacity="0.189" fill="none" stroke-linecap="round" filter="url(#softGlow)"/>
<path d="M1098 724 C1162 686 1164 822 1098 794" stroke="#c4f4ff" stroke-width="10" opacity="0.291" fill="none" stroke-linecap="round" filter="url(#softGlow)"/>
<circle cx="799.2" cy="904.4" r="4.0" fill="#c8f7ff" opacity="0.156" filter="url(#softGlow)"/>
<circle cx="877.2" cy="842.1" r="5.0" fill="#c8f7ff" opacity="0.108" filter="url(#softGlow)"/>
<circle cx="1024.2" cy="719.4" r="6.0" fill="#c8f7ff" opacity="0.104" filter="url(#softGlow)"/>
<circle cx="1106.6" cy="608.9" r="7.0" fill="#c8f7ff" opacity="0.144" filter="url(#softGlow)"/>
<circle cx="1183.6" cy="618.4" r="4.0" fill="#c8f7ff" opacity="0.213" filter="url(#softGlow)"/>
<circle cx="1177.1" cy="667.7" r="5.0" fill="#c8f7ff" opacity="0.285" filter="url(#softGlow)"/>
<circle cx="1028.7" cy="791.5" r="6.0" fill="#c8f7ff" opacity="0.332" filter="url(#softGlow)"/>
<circle cx="902.5" cy="907.8" r="7.0" fill="#c8f7ff" opacity="0.336" filter="url(#softGlow)"/>
<circle cx="759.5" cy="912.8" r="4.0" fill="#c8f7ff" opacity="0.296" filter="url(#softGlow)"/>
<circle cx="770.2" cy="877.2" r="5.0" fill="#c8f7ff" opacity="0.226" filter="url(#softGlow)"/>

<g transform="translate(764.2 204.8)" opacity="0.930" filter="url(#softGlow)">
  <ellipse cx="0" cy="0" rx="92" ry="23" fill="#85f7ff" opacity="0.92"/>
  <ellipse cx="0" cy="-18" rx="46" ry="30" fill="#b9ffcc" opacity="0.76"/>
  <circle cx="-46" cy="4" r="8" fill="#f7ff82"/><circle cx="0" cy="7" r="8" fill="#ff7ddb"/><circle cx="46" cy="4" r="8" fill="#f7ff82"/>
  <path d="M-42 18 L38 18 L118 180 L-118 180 Z" fill="#7dffb3" opacity="0.112"/>
</g>




<g opacity="0.578" filter="url(#softGlow)">
  <line x1="1207.6" y1="240.5" x2="1522.6" y2="127.1" stroke="#89ffca" stroke-width="8" stroke-linecap="round"/>
  <line x1="1225.6" y1="234.5" x2="1672.6" y2="73.1" stroke="#ffffff" stroke-width="2" stroke-linecap="round" opacity="0.92"/>
</g>


<circle cx="377" cy="434" r="1.6" fill="#bff7ff" opacity="0.125" filter="url(#softGlow)"/>
<circle cx="1690" cy="283" r="2.5" fill="#bff7ff" opacity="0.122" filter="url(#softGlow)"/>
<circle cx="232" cy="977" r="3.6" fill="#bff7ff" opacity="0.059" filter="url(#softGlow)"/>
<circle cx="313" cy="453" r="3.6" fill="#bff7ff" opacity="0.073" filter="url(#softGlow)"/>
<circle cx="84" cy="347" r="2.6" fill="#bff7ff" opacity="0.080" filter="url(#softGlow)"/>
<circle cx="1110" cy="932" r="2.2" fill="#bff7ff" opacity="0.118" filter="url(#softGlow)"/>
<circle cx="1021" cy="223" r="3.2" fill="#bff7ff" opacity="0.101" filter="url(#softGlow)"/>
<circle cx="1061" cy="339" r="1.8" fill="#bff7ff" opacity="0.061" filter="url(#softGlow)"/>
<circle cx="1549" cy="871" r="2.5" fill="#bff7ff" opacity="0.070" filter="url(#softGlow)"/>
<circle cx="1307" cy="215" r="2.1" fill="#bff7ff" opacity="0.054" filter="url(#softGlow)"/>
<circle cx="1137" cy="440" r="4.0" fill="#bff7ff" opacity="0.103" filter="url(#softGlow)"/>
<circle cx="1481" cy="82" r="1.6" fill="#bff7ff" opacity="0.026" filter="url(#softGlow)"/>
<circle cx="1142" cy="475" r="1.6" fill="#bff7ff" opacity="0.092" filter="url(#softGlow)"/>
<circle cx="1098" cy="527" r="3.2" fill="#bff7ff" opacity="0.051" filter="url(#softGlow)"/>
</svg>