<svg xmlns="http://www.w3.org/2000/svg" width="1920" height="1080" viewBox="0 0 1920 1080">
<defs>
<radialGradient id="spaceGlow" cx="52%" cy="56%" r="54%"><stop offset="0%" stop-color="#132a42"/><stop offset="38%" stop-color="#111630"/><stop offset="100%" stop-color="#030712"/></radialGradient>
<radialGradient id="robotBody" cx="40%" cy="24%" r="85%"><stop offset="0%" stop-color="#ffffff"/><stop offset="52%" stop-color="#dce9ff"/><stop offset="100%" stop-color="#93a6bd"/></radialGradient>
<radialGradient id="blueCore" cx="40%" cy="30%" r="70%"><stop offset="0%" stop-color="#8df4ff"/><stop offset="45%" stop-color="#4895ff"/><stop offset="100%" stop-color="#1a47ff"/></radialGradient>
<filter id="softGlow" x="-80%" y="-80%" width="260%" height="260%"><feGaussianBlur stdDeviation="16" result="blur"/><feMerge><feMergeNode in="blur"/><feMergeNode in="SourceGraphic"/></feMerge></filter>
<filter id="wideGlow" x="-120%" y="-120%" width="340%" height="340%"><feGaussianBlur stdDeviation="34" result="blur"/><feMerge><feMergeNode in="blur"/><feMergeNode in="SourceGraphic"/></feMerge></filter>
</defs>
<ellipse cx="960" cy="766.1" rx="272.7" ry="199.5" fill="none" stroke="#70d6ff" stroke-width="4" opacity="0.140" filter="url(#softGlow)"/>
<path d="M820 740 C770 700 770 825 825 795" stroke="#c4f4ff" stroke-width="10" opacity="0.198" fill="none" stroke-linecap="round" filter="url(#softGlow)"/>
<path d="M1098 724 C1162 686 1164 822 1098 794" stroke="#c4f4ff" stroke-width="10" opacity="0.282" fill="none" stroke-linecap="round" filter="url(#softGlow)"/>
<circle cx="805.2" cy="900.4" r="4.0" fill="#c8f7ff" opacity="0.150" filter="url(#softGlow)"/>
<circle cx="889.1" cy="831.1" r="5.0" fill="#c8f7ff" opacity="0.106" filter="url(#softGlow)"/>
<circle cx="1038.2" cy="709.8" r="6.0" fill="#c8f7ff" opacity="0.106" filter="url(#softGlow)"/>
<circle cx="1113.2" cy="603.3" r="7.0" fill="#c8f7ff" opacity="0.149" filter="url(#softGlow)"/>
<circle cx="1184.0" cy="621.2" r="4.0" fill="#c8f7ff" opacity="0.220" filter="url(#softGlow)"/>
<circle cx="1168.9" cy="678.0" r="5.0" fill="#c8f7ff" opacity="0.290" filter="url(#softGlow)"/>
<circle cx="1018.6" cy="801.4" r="6.0" fill="#c8f7ff" opacity="0.334" filter="url(#softGlow)"/>
<circle cx="890.3" cy="914.6" r="7.0" fill="#c8f7ff" opacity="0.334" filter="url(#softGlow)"/>
<circle cx="750.7" cy="911.2" r="4.0" fill="#c8f7ff" opacity="0.290" filter="url(#softGlow)"/>
<circle cx="770.0" cy="867.6" r="5.0" fill="#c8f7ff" opacity="0.219" filter="url(#softGlow)"/>

<g transform="translate(747.2 209.5)" opacity="0.920" filter="url(#softGlow)">
  <ellipse cx="0" cy="0" rx="92" ry="23" fill="#85f7ff" opacity="0.92"/>
  <ellipse cx="0" cy="-18" rx="46" ry="30" fill="#b9ffcc" opacity="0.76"/>
  <circle cx="-46" cy="4" r="8" fill="#f7ff82"/><circle cx="0" cy="7" r="8" fill="#ff7ddb"/><circle cx="46" cy="4" r="8" fill="#f7ff82"/>
  <path d="M-42 18 L38 18 L118 180 L-118 180 Z" fill="#7dffb3" opacity="0.110"/>
</g>




<g opacity="0.674" filter="url(#softGlow)">
  <line x1="1142.5" y1="264.4" x2="1457.5" y2="151.0" stroke="#89ffca" stroke-width="8" stroke-linecap="round"/>
  <line x1="1160.5" y1="258.4" x2="1607.5" y2="97.0" stroke="#ffffff" stroke-width="2" stroke-linecap="round" opacity="0.92"/>
</g>


<circle cx="212" cy="820" r="3.4" fill="#bff7ff" opacity="0.116" filter="url(#softGlow)"/>
<circle cx="815" cy="107" r="2.6" fill="#bff7ff" opacity="0.105" filter="url(#softGlow)"/>
<circle cx="1809" cy="485" r="3.8" fill="#bff7ff" opacity="0.042" filter="url(#softGlow)"/>
<circle cx="1280" cy="103" r="2.7" fill="#bff7ff" opacity="0.098" filter="url(#softGlow)"/>
<circle cx="1126" cy="894" r="2.2" fill="#bff7ff" opacity="0.094" filter="url(#softGlow)"/>
<circle cx="1565" cy="570" r="2.8" fill="#bff7ff" opacity="0.087" filter="url(#softGlow)"/>
<circle cx="913" cy="861" r="2.6" fill="#bff7ff" opacity="0.086" filter="url(#softGlow)"/>
<circle cx="715" cy="843" r="1.6" fill="#bff7ff" opacity="0.036" filter="url(#softGlow)"/>
<circle cx="472" cy="525" r="4.1" fill="#bff7ff" opacity="0.136" filter="url(#softGlow)"/>
<circle cx="1045" cy="123" r="1.9" fill="#bff7ff" opacity="0.065" filter="url(#softGlow)"/>
<circle cx="777" cy="487" r="2.3" fill="#bff7ff" opacity="0.059" filter="url(#softGlow)"/>
<circle cx="1049" cy="204" r="2.0" fill="#bff7ff" opacity="0.069" filter="url(#softGlow)"/>
<circle cx="1481" cy="345" r="1.7" fill="#bff7ff" opacity="0.058" filter="url(#softGlow)"/>
<circle cx="1582" cy="803" r="3.7" fill="#bff7ff" opacity="0.103" filter="url(#softGlow)"/>
</svg>