<svg xmlns="http://www.w3.org/2000/svg" width="1920" height="1080" viewBox="0 0 1920 1080">
<defs>
<radialGradient id="spaceGlow" cx="52%" cy="56%" r="54%"><stop offset="0%" stop-color="#132a42"/><stop offset="38%" stop-color="#111630"/><stop offset="100%" stop-color="#030712"/></radialGradient>
<radialGradient id="robotBody" cx="40%" cy="24%" r="85%"><stop offset="0%" stop-color="#ffffff"/><stop offset="52%" stop-color="#dce9ff"/><stop offset="100%" stop-color="#93a6bd"/></radialGradient>
<radialGradient id="blueCore" cx="40%" cy="30%" r="70%"><stop offset="0%" stop-color="#8df4ff"/><stop offset="45%" stop-color="#4895ff"/><stop offset="100%" stop-color="#1a47ff"/></radialGradient>
<filter id="softGlow" x="-80%" y="-80%" width="260%" height="260%"><feGaussianBlur stdDeviation="16" result="blur"/><feMerge><feMergeNode in="blur"/><feMergeNode in="SourceGraphic"/></feMerge></filter>
<filter id="wideGlow" x="-120%" y="-120%" width="340%" height="340%"><feGaussianBlur stdDeviation="34" result="blur"/><feMerge><feMergeNode in="blur"/><feMergeNode in="SourceGraphic"/></feMerge></filter>
</defs>
<ellipse cx="960" cy="764.9" rx="274.4" ry="200.5" fill="none" stroke="#70d6ff" stroke-width="4" opacity="0.147" filter="url(#softGlow)"/>
<path d="M820 740 C770 700 770 825 825 795" stroke="#c4f4ff" stroke-width="10" opacity="0.210" fill="none" stroke-linecap="round" filter="url(#softGlow)"/>
<path d="M1098 724 C1162 686 1164 822 1098 794" stroke="#c4f4ff" stroke-width="10" opacity="0.270" fill="none" stroke-linecap="round" filter="url(#softGlow)"/>
<circle cx="811.7" cy="895.9" r="4.0" fill="#c8f7ff" opacity="0.145" filter="url(#softGlow)"/>
<circle cx="901.3" cy="819.7" r="5.0" fill="#c8f7ff" opacity="0.104" filter="url(#softGlow)"/>
<circle cx="1052.0" cy="700.4" r="6.0" fill="#c8f7ff" opacity="0.108" filter="url(#softGlow)"/>
<circle cx="1119.3" cy="598.5" r="7.0" fill="#c8f7ff" opacity="0.155" filter="url(#softGlow)"/>
<circle cx="1183.7" cy="624.6" r="4.0" fill="#c8f7ff" opacity="0.226" filter="url(#softGlow)"/>
<circle cx="1160.0" cy="688.8" r="5.0" fill="#c8f7ff" opacity="0.296" filter="url(#softGlow)"/>
<circle cx="1008.3" cy="811.2" r="6.0" fill="#c8f7ff" opacity="0.336" filter="url(#softGlow)"/>
<circle cx="878.3" cy="920.7" r="7.0" fill="#c8f7ff" opacity="0.332" filter="url(#softGlow)"/>
<circle cx="742.5" cy="908.9" r="4.0" fill="#c8f7ff" opacity="0.285" filter="url(#softGlow)"/>
<circle cx="770.4" cy="857.6" r="5.0" fill="#c8f7ff" opacity="0.213" filter="url(#softGlow)"/>

<g transform="translate(730.3 213.7)" opacity="0.911" filter="url(#softGlow)">
  <ellipse cx="0" cy="0" rx="92" ry="23" fill="#85f7ff" opacity="0.92"/>
  <ellipse cx="0" cy="-18" rx="46" ry="30" fill="#b9ffcc" opacity="0.76"/>
  <circle cx="-46" cy="4" r="8" fill="#f7ff82"/><circle cx="0" cy="7" r="8" fill="#ff7ddb"/><circle cx="46" cy="4" r="8" fill="#f7ff82"/>
  <path d="M-42 18 L38 18 L118 180 L-118 180 Z" fill="#7dffb3" opacity="0.109"/>
</g>




<g opacity="0.759" filter="url(#softGlow)">
  <line x1="1083.7" y1="286.0" x2="1398.7" y2="172.6" stroke="#89ffca" stroke-width="8" stroke-linecap="round"/>
  <line x1="1101.7" y1="280.0" x2="1548.7" y2="118.6" stroke="#ffffff" stroke-width="2" stroke-linecap="round" opacity="0.92"/>
</g>


<circle cx="212" cy="820" r="3.4" fill="#bff7ff" opacity="0.123" filter="url(#softGlow)"/>
<circle cx="815" cy="107" r="2.6" fill="#bff7ff" opacity="0.111" filter="url(#softGlow)"/>
<circle cx="1809" cy="485" r="3.8" fill="#bff7ff" opacity="0.045" filter="url(#softGlow)"/>
<circle cx="1280" cy="103" r="2.7" fill="#bff7ff" opacity="0.104" filter="url(#softGlow)"/>
<circle cx="1126" cy="894" r="2.2" fill="#bff7ff" opacity="0.099" filter="url(#softGlow)"/>
<circle cx="1565" cy="570" r="2.8" fill="#bff7ff" opacity="0.092" filter="url(#softGlow)"/>
<circle cx="913" cy="861" r="2.6" fill="#bff7ff" opacity="0.091" filter="url(#softGlow)"/>
<circle cx="715" cy="843" r="1.6" fill="#bff7ff" opacity="0.038" filter="url(#softGlow)"/>
<circle cx="472" cy="525" r="4.1" fill="#bff7ff" opacity="0.144" filter="url(#softGlow)"/>
<circle cx="1045" cy="123" r="1.9" fill="#bff7ff" opacity="0.069" filter="url(#softGlow)"/>
<circle cx="777" cy="487" r="2.3" fill="#bff7ff" opacity="0.062" filter="url(#softGlow)"/>
<circle cx="1049" cy="204" r="2.0" fill="#bff7ff" opacity="0.073" filter="url(#softGlow)"/>
<circle cx="1481" cy="345" r="1.7" fill="#bff7ff" opacity="0.061" filter="url(#softGlow)"/>
<circle cx="1582" cy="803" r="3.7" fill="#bff7ff" opacity="0.109" filter="url(#softGlow)"/>
</svg>