<svg xmlns="http://www.w3.org/2000/svg" width="1920" height="1080" viewBox="0 0 1920 1080">
<defs>
<radialGradient id="spaceGlow" cx="52%" cy="56%" r="54%"><stop offset="0%" stop-color="#132a42"/><stop offset="38%" stop-color="#111630"/><stop offset="100%" stop-color="#030712"/></radialGradient>
<radialGradient id="robotBody" cx="40%" cy="24%" r="85%"><stop offset="0%" stop-color="#ffffff"/><stop offset="52%" stop-color="#dce9ff"/><stop offset="100%" stop-color="#93a6bd"/></radialGradient>
<radialGradient id="blueCore" cx="40%" cy="30%" r="70%"><stop offset="0%" stop-color="#8df4ff"/><stop offset="45%" stop-color="#4895ff"/><stop offset="100%" stop-color="#1a47ff"/></radialGradient>
<filter id="softGlow" x="-80%" y="-80%" width="260%" height="260%"><feGaussianBlur stdDeviation="16" result="blur"/><feMerge><feMergeNode in="blur"/><feMergeNode in="SourceGraphic"/></feMerge></filter>
<filter id="wideGlow" x="-120%" y="-120%" width="340%" height="340%"><feGaussianBlur stdDeviation="34" result="blur"/><feMerge><feMergeNode in="blur"/><feMergeNode in="SourceGraphic"/></feMerge></filter>
</defs>
<ellipse cx="960" cy="763.7" rx="276.5" ry="201.6" fill="none" stroke="#70d6ff" stroke-width="4" opacity="0.155" filter="url(#softGlow)"/>
<path d="M820 740 C770 700 770 825 825 795" stroke="#c4f4ff" stroke-width="10" opacity="0.223" fill="none" stroke-linecap="round" filter="url(#softGlow)"/>
<path d="M1098 724 C1162 686 1164 822 1098 794" stroke="#c4f4ff" stroke-width="10" opacity="0.257" fill="none" stroke-linecap="round" filter="url(#softGlow)"/>
<circle cx="818.7" cy="890.7" r="4.0" fill="#c8f7ff" opacity="0.140" filter="url(#softGlow)"/>
<circle cx="913.6" cy="808.1" r="5.0" fill="#c8f7ff" opacity="0.103" filter="url(#softGlow)"/>
<circle cx="1065.5" cy="691.3" r="6.0" fill="#c8f7ff" opacity="0.110" filter="url(#softGlow)"/>
<circle cx="1124.9" cy="594.4" r="7.0" fill="#c8f7ff" opacity="0.160" filter="url(#softGlow)"/>
<circle cx="1182.6" cy="628.7" r="4.0" fill="#c8f7ff" opacity="0.233" filter="url(#softGlow)"/>
<circle cx="1150.4" cy="700.0" r="5.0" fill="#c8f7ff" opacity="0.301" filter="url(#softGlow)"/>
<circle cx="997.8" cy="820.8" r="6.0" fill="#c8f7ff" opacity="0.338" filter="url(#softGlow)"/>
<circle cx="866.7" cy="926.0" r="7.0" fill="#c8f7ff" opacity="0.329" filter="url(#softGlow)"/>
<circle cx="735.0" cy="905.9" r="4.0" fill="#c8f7ff" opacity="0.279" filter="url(#softGlow)"/>
<circle cx="771.3" cy="847.1" r="5.0" fill="#c8f7ff" opacity="0.206" filter="url(#softGlow)"/>

<g transform="translate(713.6 217.4)" opacity="0.900" filter="url(#softGlow)">
  <ellipse cx="0" cy="0" rx="92" ry="23" fill="#85f7ff" opacity="0.92"/>
  <ellipse cx="0" cy="-18" rx="46" ry="30" fill="#b9ffcc" opacity="0.76"/>
  <circle cx="-46" cy="4" r="8" fill="#f7ff82"/><circle cx="0" cy="7" r="8" fill="#ff7ddb"/><circle cx="46" cy="4" r="8" fill="#f7ff82"/>
  <path d="M-42 18 L38 18 L118 180 L-118 180 Z" fill="#7dffb3" opacity="0.108"/>
</g>




<g opacity="0.834" filter="url(#softGlow)">
  <line x1="1030.9" y1="305.3" x2="1345.9" y2="191.9" stroke="#89ffca" stroke-width="8" stroke-linecap="round"/>
  <line x1="1048.9" y1="299.3" x2="1495.9" y2="137.9" stroke="#ffffff" stroke-width="2" stroke-linecap="round" opacity="0.92"/>
</g>


<circle cx="212" cy="820" r="3.4" fill="#bff7ff" opacity="0.130" filter="url(#softGlow)"/>
<circle cx="815" cy="107" r="2.6" fill="#bff7ff" opacity="0.117" filter="url(#softGlow)"/>
<circle cx="1809" cy="485" r="3.8" fill="#bff7ff" opacity="0.047" filter="url(#softGlow)"/>
<circle cx="1280" cy="103" r="2.7" fill="#bff7ff" opacity="0.109" filter="url(#softGlow)"/>
<circle cx="1126" cy="894" r="2.2" fill="#bff7ff" opacity="0.104" filter="url(#softGlow)"/>
<circle cx="1565" cy="570" r="2.8" fill="#bff7ff" opacity="0.097" filter="url(#softGlow)"/>
<circle cx="913" cy="861" r="2.6" fill="#bff7ff" opacity="0.095" filter="url(#softGlow)"/>
<circle cx="715" cy="843" r="1.6" fill="#bff7ff" opacity="0.040" filter="url(#softGlow)"/>
<circle cx="472" cy="525" r="4.1" fill="#bff7ff" opacity="0.151" filter="url(#softGlow)"/>
<circle cx="1045" cy="123" r="1.9" fill="#bff7ff" opacity="0.073" filter="url(#softGlow)"/>
<circle cx="777" cy="487" r="2.3" fill="#bff7ff" opacity="0.065" filter="url(#softGlow)"/>
<circle cx="1049" cy="204" r="2.0" fill="#bff7ff" opacity="0.076" filter="url(#softGlow)"/>
<circle cx="1481" cy="345" r="1.7" fill="#bff7ff" opacity="0.064" filter="url(#softGlow)"/>
<circle cx="1582" cy="803" r="3.7" fill="#bff7ff" opacity="0.115" filter="url(#softGlow)"/>
</svg>