<svg xmlns="http://www.w3.org/2000/svg" width="1920" height="1080" viewBox="0 0 1920 1080">
<defs>
<radialGradient id="spaceGlow" cx="52%" cy="56%" r="54%"><stop offset="0%" stop-color="#132a42"/><stop offset="38%" stop-color="#111630"/><stop offset="100%" stop-color="#030712"/></radialGradient>
<radialGradient id="robotBody" cx="40%" cy="24%" r="85%"><stop offset="0%" stop-color="#ffffff"/><stop offset="52%" stop-color="#dce9ff"/><stop offset="100%" stop-color="#93a6bd"/></radialGradient>
<radialGradient id="blueCore" cx="40%" cy="30%" r="70%"><stop offset="0%" stop-color="#8df4ff"/><stop offset="45%" stop-color="#4895ff"/><stop offset="100%" stop-color="#1a47ff"/></radialGradient>
<filter id="softGlow" x="-80%" y="-80%" width="260%" height="260%"><feGaussianBlur stdDeviation="16" result="blur"/><feMerge><feMergeNode in="blur"/><feMergeNode in="SourceGraphic"/></feMerge></filter>
<filter id="wideGlow" x="-120%" y="-120%" width="340%" height="340%"><feGaussianBlur stdDeviation="34" result="blur"/><feMerge><feMergeNode in="blur"/><feMergeNode in="SourceGraphic"/></feMerge></filter>
</defs>
<ellipse cx="960" cy="762.4" rx="278.7" ry="202.8" fill="none" stroke="#70d6ff" stroke-width="4" opacity="0.164" filter="url(#softGlow)"/>
<path d="M820 740 C770 700 770 825 825 795" stroke="#c4f4ff" stroke-width="10" opacity="0.238" fill="none" stroke-linecap="round" filter="url(#softGlow)"/>
<path d="M1098 724 C1162 686 1164 822 1098 794" stroke="#c4f4ff" stroke-width="10" opacity="0.242" fill="none" stroke-linecap="round" filter="url(#softGlow)"/>
<circle cx="826.1" cy="885.0" r="4.0" fill="#c8f7ff" opacity="0.135" filter="url(#softGlow)"/>
<circle cx="926.1" cy="796.3" r="5.0" fill="#c8f7ff" opacity="0.101" filter="url(#softGlow)"/>
<circle cx="1078.7" cy="682.6" r="6.0" fill="#c8f7ff" opacity="0.113" filter="url(#softGlow)"/>
<circle cx="1130.0" cy="591.1" r="7.0" fill="#c8f7ff" opacity="0.166" filter="url(#softGlow)"/>
<circle cx="1180.9" cy="633.4" r="4.0" fill="#c8f7ff" opacity="0.240" filter="url(#softGlow)"/>
<circle cx="1140.3" cy="711.4" r="5.0" fill="#c8f7ff" opacity="0.306" filter="url(#softGlow)"/>
<circle cx="987.2" cy="830.1" r="6.0" fill="#c8f7ff" opacity="0.339" filter="url(#softGlow)"/>
<circle cx="855.3" cy="930.7" r="7.0" fill="#c8f7ff" opacity="0.326" filter="url(#softGlow)"/>
<circle cx="728.2" cy="902.3" r="4.0" fill="#c8f7ff" opacity="0.273" filter="url(#softGlow)"/>
<circle cx="772.9" cy="836.2" r="5.0" fill="#c8f7ff" opacity="0.199" filter="url(#softGlow)"/>

<g transform="translate(697.1 220.3)" opacity="0.889" filter="url(#softGlow)">
  <ellipse cx="0" cy="0" rx="92" ry="23" fill="#85f7ff" opacity="0.92"/>
  <ellipse cx="0" cy="-18" rx="46" ry="30" fill="#b9ffcc" opacity="0.76"/>
  <circle cx="-46" cy="4" r="8" fill="#f7ff82"/><circle cx="0" cy="7" r="8" fill="#ff7ddb"/><circle cx="46" cy="4" r="8" fill="#f7ff82"/>
  <path d="M-42 18 L38 18 L118 180 L-118 180 Z" fill="#7dffb3" opacity="0.107"/>
</g>




<g opacity="0.895" filter="url(#softGlow)">
  <line x1="983.8" y1="322.6" x2="1298.8" y2="209.2" stroke="#89ffca" stroke-width="8" stroke-linecap="round"/>
  <line x1="1001.8" y1="316.6" x2="1448.8" y2="155.2" stroke="#ffffff" stroke-width="2" stroke-linecap="round" opacity="0.92"/>
</g>


<circle cx="658" cy="384" r="2.6" fill="#bff7ff" opacity="0.088" filter="url(#softGlow)"/>
<circle cx="1556" cy="875" r="2.0" fill="#bff7ff" opacity="0.126" filter="url(#softGlow)"/>
<circle cx="633" cy="56" r="2.9" fill="#bff7ff" opacity="0.103" filter="url(#softGlow)"/>
<circle cx="1815" cy="675" r="2.1" fill="#bff7ff" opacity="0.038" filter="url(#softGlow)"/>
<circle cx="1284" cy="267" r="3.4" fill="#bff7ff" opacity="0.138" filter="url(#softGlow)"/>
<circle cx="1784" cy="960" r="2.2" fill="#bff7ff" opacity="0.106" filter="url(#softGlow)"/>
<circle cx="1697" cy="236" r="3.7" fill="#bff7ff" opacity="0.106" filter="url(#softGlow)"/>
<circle cx="1071" cy="743" r="3.3" fill="#bff7ff" opacity="0.151" filter="url(#softGlow)"/>
<circle cx="1644" cy="607" r="3.1" fill="#bff7ff" opacity="0.090" filter="url(#softGlow)"/>
<circle cx="1060" cy="897" r="2.5" fill="#bff7ff" opacity="0.038" filter="url(#softGlow)"/>
<circle cx="1231" cy="793" r="3.0" fill="#bff7ff" opacity="0.150" filter="url(#softGlow)"/>
<circle cx="552" cy="735" r="3.3" fill="#bff7ff" opacity="0.075" filter="url(#softGlow)"/>
<circle cx="1157" cy="929" r="1.7" fill="#bff7ff" opacity="0.042" filter="url(#softGlow)"/>
<circle cx="1795" cy="713" r="2.9" fill="#bff7ff" opacity="0.108" filter="url(#softGlow)"/>
</svg>