<svg xmlns="http://www.w3.org/2000/svg" width="1920" height="1080" viewBox="0 0 1920 1080">
<defs>
<radialGradient id="spaceGlow" cx="52%" cy="56%" r="54%"><stop offset="0%" stop-color="#132a42"/><stop offset="38%" stop-color="#111630"/><stop offset="100%" stop-color="#030712"/></radialGradient>
<radialGradient id="robotBody" cx="40%" cy="24%" r="85%"><stop offset="0%" stop-color="#ffffff"/><stop offset="52%" stop-color="#dce9ff"/><stop offset="100%" stop-color="#93a6bd"/></radialGradient>
<radialGradient id="blueCore" cx="40%" cy="30%" r="70%"><stop offset="0%" stop-color="#8df4ff"/><stop offset="45%" stop-color="#4895ff"/><stop offset="100%" stop-color="#1a47ff"/></radialGradient>
<filter id="softGlow" x="-80%" y="-80%" width="260%" height="260%"><feGaussianBlur stdDeviation="16" result="blur"/><feMerge><feMergeNode in="blur"/><feMergeNode in="SourceGraphic"/></feMerge></filter>
<filter id="wideGlow" x="-120%" y="-120%" width="340%" height="340%"><feGaussianBlur stdDeviation="34" result="blur"/><feMerge><feMergeNode in="blur"/><feMergeNode in="SourceGraphic"/></feMerge></filter>
</defs>
<ellipse cx="960" cy="761.2" rx="281.0" ry="204.1" fill="none" stroke="#70d6ff" stroke-width="4" opacity="0.173" filter="url(#softGlow)"/>
<path d="M820 740 C770 700 770 825 825 795" stroke="#c4f4ff" stroke-width="10" opacity="0.253" fill="none" stroke-linecap="round" filter="url(#softGlow)"/>
<path d="M1098 724 C1162 686 1164 822 1098 794" stroke="#c4f4ff" stroke-width="10" opacity="0.227" fill="none" stroke-linecap="round" filter="url(#softGlow)"/>
<circle cx="834.0" cy="878.7" r="4.0" fill="#c8f7ff" opacity="0.130" filter="url(#softGlow)"/>
<circle cx="938.7" cy="784.3" r="5.0" fill="#c8f7ff" opacity="0.101" filter="url(#softGlow)"/>
<circle cx="1091.5" cy="674.2" r="6.0" fill="#c8f7ff" opacity="0.117" filter="url(#softGlow)"/>
<circle cx="1134.5" cy="588.7" r="7.0" fill="#c8f7ff" opacity="0.173" filter="url(#softGlow)"/>
<circle cx="1178.4" cy="638.8" r="4.0" fill="#c8f7ff" opacity="0.247" filter="url(#softGlow)"/>
<circle cx="1129.5" cy="723.1" r="5.0" fill="#c8f7ff" opacity="0.310" filter="url(#softGlow)"/>
<circle cx="976.5" cy="839.1" r="6.0" fill="#c8f7ff" opacity="0.340" filter="url(#softGlow)"/>
<circle cx="844.2" cy="934.5" r="7.0" fill="#c8f7ff" opacity="0.323" filter="url(#softGlow)"/>
<circle cx="722.1" cy="898.1" r="4.0" fill="#c8f7ff" opacity="0.266" filter="url(#softGlow)"/>
<circle cx="775.1" cy="825.0" r="5.0" fill="#c8f7ff" opacity="0.192" filter="url(#softGlow)"/>

<g transform="translate(680.7 222.5)" opacity="0.878" filter="url(#softGlow)">
  <ellipse cx="0" cy="0" rx="92" ry="23" fill="#85f7ff" opacity="0.92"/>
  <ellipse cx="0" cy="-18" rx="46" ry="30" fill="#b9ffcc" opacity="0.76"/>
  <circle cx="-46" cy="4" r="8" fill="#f7ff82"/><circle cx="0" cy="7" r="8" fill="#ff7ddb"/><circle cx="46" cy="4" r="8" fill="#f7ff82"/>
  <path d="M-42 18 L38 18 L118 180 L-118 180 Z" fill="#7dffb3" opacity="0.105"/>
</g>




<g opacity="0.943" filter="url(#softGlow)">
  <line x1="942.1" y1="337.9" x2="1257.1" y2="224.5" stroke="#89ffca" stroke-width="8" stroke-linecap="round"/>
  <line x1="960.1" y1="331.9" x2="1407.1" y2="170.5" stroke="#ffffff" stroke-width="2" stroke-linecap="round" opacity="0.92"/>
</g>


<circle cx="658" cy="384" r="2.6" fill="#bff7ff" opacity="0.092" filter="url(#softGlow)"/>
<circle cx="1556" cy="875" r="2.0" fill="#bff7ff" opacity="0.131" filter="url(#softGlow)"/>
<circle cx="633" cy="56" r="2.9" fill="#bff7ff" opacity="0.107" filter="url(#softGlow)"/>
<circle cx="1815" cy="675" r="2.1" fill="#bff7ff" opacity="0.039" filter="url(#softGlow)"/>
<circle cx="1284" cy="267" r="3.4" fill="#bff7ff" opacity="0.144" filter="url(#softGlow)"/>
<circle cx="1784" cy="960" r="2.2" fill="#bff7ff" opacity="0.110" filter="url(#softGlow)"/>
<circle cx="1697" cy="236" r="3.7" fill="#bff7ff" opacity="0.110" filter="url(#softGlow)"/>
<circle cx="1071" cy="743" r="3.3" fill="#bff7ff" opacity="0.158" filter="url(#softGlow)"/>
<circle cx="1644" cy="607" r="3.1" fill="#bff7ff" opacity="0.094" filter="url(#softGlow)"/>
<circle cx="1060" cy="897" r="2.5" fill="#bff7ff" opacity="0.040" filter="url(#softGlow)"/>
<circle cx="1231" cy="793" r="3.0" fill="#bff7ff" opacity="0.156" filter="url(#softGlow)"/>
<circle cx="552" cy="735" r="3.3" fill="#bff7ff" opacity="0.078" filter="url(#softGlow)"/>
<circle cx="1157" cy="929" r="1.7" fill="#bff7ff" opacity="0.044" filter="url(#softGlow)"/>
<circle cx="1795" cy="713" r="2.9" fill="#bff7ff" opacity="0.112" filter="url(#softGlow)"/>
</svg>