<svg xmlns="http://www.w3.org/2000/svg" width="1920" height="1080" viewBox="0 0 1920 1080">
<defs>
<radialGradient id="spaceGlow" cx="52%" cy="56%" r="54%"><stop offset="0%" stop-color="#132a42"/><stop offset="38%" stop-color="#111630"/><stop offset="100%" stop-color="#030712"/></radialGradient>
<radialGradient id="robotBody" cx="40%" cy="24%" r="85%"><stop offset="0%" stop-color="#ffffff"/><stop offset="52%" stop-color="#dce9ff"/><stop offset="100%" stop-color="#93a6bd"/></radialGradient>
<radialGradient id="blueCore" cx="40%" cy="30%" r="70%"><stop offset="0%" stop-color="#8df4ff"/><stop offset="45%" stop-color="#4895ff"/><stop offset="100%" stop-color="#1a47ff"/></radialGradient>
<filter id="softGlow" x="-80%" y="-80%" width="260%" height="260%"><feGaussianBlur stdDeviation="16" result="blur"/><feMerge><feMergeNode in="blur"/><feMergeNode in="SourceGraphic"/></feMerge></filter>
<filter id="wideGlow" x="-120%" y="-120%" width="340%" height="340%"><feGaussianBlur stdDeviation="34" result="blur"/><feMerge><feMergeNode in="blur"/><feMergeNode in="SourceGraphic"/></feMerge></filter>
</defs>
<ellipse cx="960" cy="759.9" rx="283.1" ry="205.3" fill="none" stroke="#70d6ff" stroke-width="4" opacity="0.181" filter="url(#softGlow)"/>
<path d="M820 740 C770 700 770 825 825 795" stroke="#c4f4ff" stroke-width="10" opacity="0.267" fill="none" stroke-linecap="round" filter="url(#softGlow)"/>
<path d="M1098 724 C1162 686 1164 822 1098 794" stroke="#c4f4ff" stroke-width="10" opacity="0.213" fill="none" stroke-linecap="round" filter="url(#softGlow)"/>
<circle cx="842.2" cy="871.8" r="4.0" fill="#c8f7ff" opacity="0.126" filter="url(#softGlow)"/>
<circle cx="951.4" cy="772.2" r="5.0" fill="#c8f7ff" opacity="0.100" filter="url(#softGlow)"/>
<circle cx="1103.8" cy="666.3" r="6.0" fill="#c8f7ff" opacity="0.120" filter="url(#softGlow)"/>
<circle cx="1138.5" cy="587.0" r="7.0" fill="#c8f7ff" opacity="0.179" filter="url(#softGlow)"/>
<circle cx="1175.2" cy="644.7" r="4.0" fill="#c8f7ff" opacity="0.253" filter="url(#softGlow)"/>
<circle cx="1118.2" cy="735.0" r="5.0" fill="#c8f7ff" opacity="0.315" filter="url(#softGlow)"/>
<circle cx="965.7" cy="847.7" r="6.0" fill="#c8f7ff" opacity="0.340" filter="url(#softGlow)"/>
<circle cx="833.6" cy="937.6" r="7.0" fill="#c8f7ff" opacity="0.319" filter="url(#softGlow)"/>
<circle cx="716.9" cy="893.2" r="4.0" fill="#c8f7ff" opacity="0.260" filter="url(#softGlow)"/>
<circle cx="777.9" cy="813.5" r="5.0" fill="#c8f7ff" opacity="0.186" filter="url(#softGlow)"/>

<g transform="translate(664.4 224.0)" opacity="0.866" filter="url(#softGlow)">
  <ellipse cx="0" cy="0" rx="92" ry="23" fill="#85f7ff" opacity="0.92"/>
  <ellipse cx="0" cy="-18" rx="46" ry="30" fill="#b9ffcc" opacity="0.76"/>
  <circle cx="-46" cy="4" r="8" fill="#f7ff82"/><circle cx="0" cy="7" r="8" fill="#ff7ddb"/><circle cx="46" cy="4" r="8" fill="#f7ff82"/>
  <path d="M-42 18 L38 18 L118 180 L-118 180 Z" fill="#7dffb3" opacity="0.104"/>
</g>




<g opacity="0.977" filter="url(#softGlow)">
  <line x1="905.5" y1="351.3" x2="1220.5" y2="237.9" stroke="#89ffca" stroke-width="8" stroke-linecap="round"/>
  <line x1="923.5" y1="345.3" x2="1370.5" y2="183.9" stroke="#ffffff" stroke-width="2" stroke-linecap="round" opacity="0.92"/>
</g>


<circle cx="658" cy="384" r="2.6" fill="#bff7ff" opacity="0.096" filter="url(#softGlow)"/>
<circle cx="1556" cy="875" r="2.0" fill="#bff7ff" opacity="0.137" filter="url(#softGlow)"/>
<circle cx="633" cy="56" r="2.9" fill="#bff7ff" opacity="0.112" filter="url(#softGlow)"/>
<circle cx="1815" cy="675" r="2.1" fill="#bff7ff" opacity="0.041" filter="url(#softGlow)"/>
<circle cx="1284" cy="267" r="3.4" fill="#bff7ff" opacity="0.150" filter="url(#softGlow)"/>
<circle cx="1784" cy="960" r="2.2" fill="#bff7ff" opacity="0.115" filter="url(#softGlow)"/>
<circle cx="1697" cy="236" r="3.7" fill="#bff7ff" opacity="0.115" filter="url(#softGlow)"/>
<circle cx="1071" cy="743" r="3.3" fill="#bff7ff" opacity="0.164" filter="url(#softGlow)"/>
<circle cx="1644" cy="607" r="3.1" fill="#bff7ff" opacity="0.098" filter="url(#softGlow)"/>
<circle cx="1060" cy="897" r="2.5" fill="#bff7ff" opacity="0.041" filter="url(#softGlow)"/>
<circle cx="1231" cy="793" r="3.0" fill="#bff7ff" opacity="0.163" filter="url(#softGlow)"/>
<circle cx="552" cy="735" r="3.3" fill="#bff7ff" opacity="0.081" filter="url(#softGlow)"/>
<circle cx="1157" cy="929" r="1.7" fill="#bff7ff" opacity="0.046" filter="url(#softGlow)"/>
<circle cx="1795" cy="713" r="2.9" fill="#bff7ff" opacity="0.117" filter="url(#softGlow)"/>
</svg>