<svg xmlns="http://www.w3.org/2000/svg" width="1920" height="1080" viewBox="0 0 1920 1080">
<defs>
<radialGradient id="spaceGlow" cx="52%" cy="56%" r="54%"><stop offset="0%" stop-color="#132a42"/><stop offset="38%" stop-color="#111630"/><stop offset="100%" stop-color="#030712"/></radialGradient>
<radialGradient id="robotBody" cx="40%" cy="24%" r="85%"><stop offset="0%" stop-color="#ffffff"/><stop offset="52%" stop-color="#dce9ff"/><stop offset="100%" stop-color="#93a6bd"/></radialGradient>
<radialGradient id="blueCore" cx="40%" cy="30%" r="70%"><stop offset="0%" stop-color="#8df4ff"/><stop offset="45%" stop-color="#4895ff"/><stop offset="100%" stop-color="#1a47ff"/></radialGradient>
<filter id="softGlow" x="-80%" y="-80%" width="260%" height="260%"><feGaussianBlur stdDeviation="16" result="blur"/><feMerge><feMergeNode in="blur"/><feMergeNode in="SourceGraphic"/></feMerge></filter>
<filter id="wideGlow" x="-120%" y="-120%" width="340%" height="340%"><feGaussianBlur stdDeviation="34" result="blur"/><feMerge><feMergeNode in="blur"/><feMergeNode in="SourceGraphic"/></feMerge></filter>
</defs>
<ellipse cx="960" cy="756.1" rx="287.4" ry="207.7" fill="none" stroke="#70d6ff" stroke-width="4" opacity="0.198" filter="url(#softGlow)"/>
<path d="M820 740 C770 700 770 825 825 795" stroke="#c4f4ff" stroke-width="10" opacity="0.296" fill="none" stroke-linecap="round" filter="url(#softGlow)"/>
<path d="M1098 724 C1162 686 1164 822 1098 794" stroke="#c4f4ff" stroke-width="10" opacity="0.184" fill="none" stroke-linecap="round" filter="url(#softGlow)"/>
<circle cx="869.1" cy="848.5" r="4.0" fill="#c8f7ff" opacity="0.115" filter="url(#softGlow)"/>
<circle cx="989.3" cy="736.1" r="5.0" fill="#c8f7ff" opacity="0.101" filter="url(#softGlow)"/>
<circle cx="1138.0" cy="645.2" r="6.0" fill="#c8f7ff" opacity="0.133" filter="url(#softGlow)"/>
<circle cx="1147.0" cy="586.9" r="7.0" fill="#c8f7ff" opacity="0.199" filter="url(#softGlow)"/>
<circle cx="1161.6" cy="665.6" r="4.0" fill="#c8f7ff" opacity="0.272" filter="url(#softGlow)"/>
<circle cx="1081.5" cy="771.1" r="5.0" fill="#c8f7ff" opacity="0.326" filter="url(#softGlow)"/>
<circle cx="933.5" cy="871.2" r="6.0" fill="#c8f7ff" opacity="0.339" filter="url(#softGlow)"/>
<circle cx="804.1" cy="942.0" r="7.0" fill="#c8f7ff" opacity="0.306" filter="url(#softGlow)"/>
<circle cx="705.8" cy="875.0" r="4.0" fill="#c8f7ff" opacity="0.240" filter="url(#softGlow)"/>
<circle cx="789.7" cy="777.8" r="5.0" fill="#c8f7ff" opacity="0.167" filter="url(#softGlow)"/>

<g transform="translate(617.0 224.6)" opacity="0.827" filter="url(#softGlow)">
  <ellipse cx="0" cy="0" rx="92" ry="23" fill="#85f7ff" opacity="0.92"/>
  <ellipse cx="0" cy="-18" rx="46" ry="30" fill="#b9ffcc" opacity="0.76"/>
  <circle cx="-46" cy="4" r="8" fill="#f7ff82"/><circle cx="0" cy="7" r="8" fill="#ff7ddb"/><circle cx="46" cy="4" r="8" fill="#f7ff82"/>
  <path d="M-42 18 L38 18 L118 180 L-118 180 Z" fill="#7dffb3" opacity="0.099"/>
</g>




<g opacity="0.988" filter="url(#softGlow)">
  <line x1="822.5" y1="381.7" x2="1137.5" y2="268.3" stroke="#89ffca" stroke-width="8" stroke-linecap="round"/>
  <line x1="840.5" y1="375.7" x2="1287.5" y2="214.3" stroke="#ffffff" stroke-width="2" stroke-linecap="round" opacity="0.92"/>
</g>


<circle cx="768" cy="241" r="2.5" fill="#bff7ff" opacity="0.131" filter="url(#softGlow)"/>
<circle cx="1594" cy="750" r="1.7" fill="#bff7ff" opacity="0.130" filter="url(#softGlow)"/>
<circle cx="605" cy="697" r="3.8" fill="#bff7ff" opacity="0.036" filter="url(#softGlow)"/>
<circle cx="1274" cy="793" r="1.5" fill="#bff7ff" opacity="0.037" filter="url(#softGlow)"/>
<circle cx="905" cy="165" r="3.4" fill="#bff7ff" opacity="0.121" filter="url(#softGlow)"/>
<circle cx="147" cy="61" r="2.6" fill="#bff7ff" opacity="0.125" filter="url(#softGlow)"/>
<circle cx="318" cy="912" r="2.2" fill="#bff7ff" opacity="0.148" filter="url(#softGlow)"/>
<circle cx="1007" cy="622" r="1.5" fill="#bff7ff" opacity="0.102" filter="url(#softGlow)"/>
<circle cx="325" cy="32" r="1.9" fill="#bff7ff" opacity="0.053" filter="url(#softGlow)"/>
<circle cx="1562" cy="107" r="3.0" fill="#bff7ff" opacity="0.127" filter="url(#softGlow)"/>
<circle cx="774" cy="807" r="3.2" fill="#bff7ff" opacity="0.185" filter="url(#softGlow)"/>
<circle cx="524" cy="850" r="2.4" fill="#bff7ff" opacity="0.086" filter="url(#softGlow)"/>
<circle cx="293" cy="468" r="1.6" fill="#bff7ff" opacity="0.098" filter="url(#softGlow)"/>
<circle cx="1492" cy="730" r="4.0" fill="#bff7ff" opacity="0.066" filter="url(#softGlow)"/>
</svg>