<svg xmlns="http://www.w3.org/2000/svg" width="1920" height="1080" viewBox="0 0 1920 1080">
<defs>
<radialGradient id="spaceGlow" cx="52%" cy="56%" r="54%"><stop offset="0%" stop-color="#132a42"/><stop offset="38%" stop-color="#111630"/><stop offset="100%" stop-color="#030712"/></radialGradient>
<radialGradient id="robotBody" cx="40%" cy="24%" r="85%"><stop offset="0%" stop-color="#ffffff"/><stop offset="52%" stop-color="#dce9ff"/><stop offset="100%" stop-color="#93a6bd"/></radialGradient>
<radialGradient id="blueCore" cx="40%" cy="30%" r="70%"><stop offset="0%" stop-color="#8df4ff"/><stop offset="45%" stop-color="#4895ff"/><stop offset="100%" stop-color="#1a47ff"/></radialGradient>
<filter id="softGlow" x="-80%" y="-80%" width="260%" height="260%"><feGaussianBlur stdDeviation="16" result="blur"/><feMerge><feMergeNode in="blur"/><feMergeNode in="SourceGraphic"/></feMerge></filter>
<filter id="wideGlow" x="-120%" y="-120%" width="340%" height="340%"><feGaussianBlur stdDeviation="34" result="blur"/><feMerge><feMergeNode in="blur"/><feMergeNode in="SourceGraphic"/></feMerge></filter>
</defs>
<ellipse cx="960" cy="754.9" rx="288.0" ry="208.0" fill="none" stroke="#70d6ff" stroke-width="4" opacity="0.200" filter="url(#softGlow)"/>
<path d="M820 740 C770 700 770 825 825 795" stroke="#c4f4ff" stroke-width="10" opacity="0.300" fill="none" stroke-linecap="round" filter="url(#softGlow)"/>
<path d="M1098 724 C1162 686 1164 822 1098 794" stroke="#c4f4ff" stroke-width="10" opacity="0.180" fill="none" stroke-linecap="round" filter="url(#softGlow)"/>
<circle cx="878.7" cy="839.9" r="4.0" fill="#c8f7ff" opacity="0.112" filter="url(#softGlow)"/>
<circle cx="1001.9" cy="724.2" r="5.0" fill="#c8f7ff" opacity="0.102" filter="url(#softGlow)"/>
<circle cx="1148.3" cy="639.3" r="6.0" fill="#c8f7ff" opacity="0.138" filter="url(#softGlow)"/>
<circle cx="1148.6" cy="588.5" r="7.0" fill="#c8f7ff" opacity="0.205" filter="url(#softGlow)"/>
<circle cx="1155.8" cy="673.5" r="4.0" fill="#c8f7ff" opacity="0.278" filter="url(#softGlow)"/>
<circle cx="1068.4" cy="783.2" r="5.0" fill="#c8f7ff" opacity="0.329" filter="url(#softGlow)"/>
<circle cx="922.9" cy="878.1" r="6.0" fill="#c8f7ff" opacity="0.338" filter="url(#softGlow)"/>
<circle cx="795.2" cy="941.8" r="7.0" fill="#c8f7ff" opacity="0.301" filter="url(#softGlow)"/>
<circle cx="703.7" cy="867.9" r="4.0" fill="#c8f7ff" opacity="0.234" filter="url(#softGlow)"/>
<circle cx="794.7" cy="765.7" r="5.0" fill="#c8f7ff" opacity="0.161" filter="url(#softGlow)"/>

<g transform="translate(601.5 223.8)" opacity="0.813" filter="url(#softGlow)">
  <ellipse cx="0" cy="0" rx="92" ry="23" fill="#85f7ff" opacity="0.92"/>
  <ellipse cx="0" cy="-18" rx="46" ry="30" fill="#b9ffcc" opacity="0.76"/>
  <circle cx="-46" cy="4" r="8" fill="#f7ff82"/><circle cx="0" cy="7" r="8" fill="#ff7ddb"/><circle cx="46" cy="4" r="8" fill="#f7ff82"/>
  <path d="M-42 18 L38 18 L118 180 L-118 180 Z" fill="#7dffb3" opacity="0.098"/>
</g>




<g opacity="0.962" filter="url(#softGlow)">
  <line x1="802.8" y1="389.0" x2="1117.8" y2="275.6" stroke="#89ffca" stroke-width="8" stroke-linecap="round"/>
  <line x1="820.8" y1="383.0" x2="1267.8" y2="221.6" stroke="#ffffff" stroke-width="2" stroke-linecap="round" opacity="0.92"/>
</g>


<circle cx="1269" cy="208" r="2.9" fill="#bff7ff" opacity="0.100" filter="url(#softGlow)"/>
<circle cx="324" cy="176" r="1.7" fill="#bff7ff" opacity="0.053" filter="url(#softGlow)"/>
<circle cx="614" cy="579" r="1.9" fill="#bff7ff" opacity="0.087" filter="url(#softGlow)"/>
<circle cx="1830" cy="555" r="3.0" fill="#bff7ff" opacity="0.139" filter="url(#softGlow)"/>
<circle cx="1175" cy="908" r="2.6" fill="#bff7ff" opacity="0.047" filter="url(#softGlow)"/>
<circle cx="1032" cy="498" r="3.4" fill="#bff7ff" opacity="0.088" filter="url(#softGlow)"/>
<circle cx="1763" cy="281" r="2.6" fill="#bff7ff" opacity="0.121" filter="url(#softGlow)"/>
<circle cx="332" cy="889" r="3.0" fill="#bff7ff" opacity="0.193" filter="url(#softGlow)"/>
<circle cx="224" cy="928" r="1.9" fill="#bff7ff" opacity="0.083" filter="url(#softGlow)"/>
<circle cx="259" cy="239" r="4.2" fill="#bff7ff" opacity="0.177" filter="url(#softGlow)"/>
<circle cx="383" cy="463" r="3.7" fill="#bff7ff" opacity="0.047" filter="url(#softGlow)"/>
<circle cx="838" cy="119" r="3.2" fill="#bff7ff" opacity="0.139" filter="url(#softGlow)"/>
<circle cx="1251" cy="982" r="3.4" fill="#bff7ff" opacity="0.039" filter="url(#softGlow)"/>
<circle cx="1739" cy="425" r="3.4" fill="#bff7ff" opacity="0.161" filter="url(#softGlow)"/>
</svg>