<svg xmlns="http://www.w3.org/2000/svg" width="1920" height="1080" viewBox="0 0 1920 1080">
<defs>
<radialGradient id="spaceGlow" cx="52%" cy="56%" r="54%"><stop offset="0%" stop-color="#132a42"/><stop offset="38%" stop-color="#111630"/><stop offset="100%" stop-color="#030712"/></radialGradient>
<radialGradient id="robotBody" cx="40%" cy="24%" r="85%"><stop offset="0%" stop-color="#ffffff"/><stop offset="52%" stop-color="#dce9ff"/><stop offset="100%" stop-color="#93a6bd"/></radialGradient>
<radialGradient id="blueCore" cx="40%" cy="30%" r="70%"><stop offset="0%" stop-color="#8df4ff"/><stop offset="45%" stop-color="#4895ff"/><stop offset="100%" stop-color="#1a47ff"/></radialGradient>
<filter id="softGlow" x="-80%" y="-80%" width="260%" height="260%"><feGaussianBlur stdDeviation="16" result="blur"/><feMerge><feMergeNode in="blur"/><feMergeNode in="SourceGraphic"/></feMerge></filter>
<filter id="wideGlow" x="-120%" y="-120%" width="340%" height="340%"><feGaussianBlur stdDeviation="34" result="blur"/><feMerge><feMergeNode in="blur"/><feMergeNode in="SourceGraphic"/></feMerge></filter>
</defs>
<ellipse cx="960" cy="753.7" rx="287.9" ry="207.9" fill="none" stroke="#70d6ff" stroke-width="4" opacity="0.200" filter="url(#softGlow)"/>
<path d="M820 740 C770 700 770 825 825 795" stroke="#c4f4ff" stroke-width="10" opacity="0.299" fill="none" stroke-linecap="round" filter="url(#softGlow)"/>
<path d="M1098 724 C1162 686 1164 822 1098 794" stroke="#c4f4ff" stroke-width="10" opacity="0.181" fill="none" stroke-linecap="round" filter="url(#softGlow)"/>
<circle cx="888.6" cy="830.9" r="4.0" fill="#c8f7ff" opacity="0.109" filter="url(#softGlow)"/>
<circle cx="1014.3" cy="712.5" r="5.0" fill="#c8f7ff" opacity="0.104" filter="url(#softGlow)"/>
<circle cx="1158.0" cy="633.9" r="6.0" fill="#c8f7ff" opacity="0.143" filter="url(#softGlow)"/>
<circle cx="1149.6" cy="590.9" r="7.0" fill="#c8f7ff" opacity="0.212" filter="url(#softGlow)"/>
<circle cx="1149.3" cy="681.8" r="4.0" fill="#c8f7ff" opacity="0.284" filter="url(#softGlow)"/>
<circle cx="1054.9" cy="795.2" r="5.0" fill="#c8f7ff" opacity="0.332" filter="url(#softGlow)"/>
<circle cx="912.4" cy="884.4" r="6.0" fill="#c8f7ff" opacity="0.336" filter="url(#softGlow)"/>
<circle cx="786.9" cy="940.8" r="7.0" fill="#c8f7ff" opacity="0.296" filter="url(#softGlow)"/>
<circle cx="702.4" cy="860.3" r="4.0" fill="#c8f7ff" opacity="0.227" filter="url(#softGlow)"/>
<circle cx="800.3" cy="753.6" r="5.0" fill="#c8f7ff" opacity="0.155" filter="url(#softGlow)"/>

<g transform="translate(586.3 222.7)" opacity="0.799" filter="url(#softGlow)">
  <ellipse cx="0" cy="0" rx="92" ry="23" fill="#85f7ff" opacity="0.92"/>
  <ellipse cx="0" cy="-18" rx="46" ry="30" fill="#b9ffcc" opacity="0.76"/>
  <circle cx="-46" cy="4" r="8" fill="#f7ff82"/><circle cx="0" cy="7" r="8" fill="#ff7ddb"/><circle cx="46" cy="4" r="8" fill="#f7ff82"/>
  <path d="M-42 18 L38 18 L118 180 L-118 180 Z" fill="#7dffb3" opacity="0.096"/>
</g>




<g opacity="0.921" filter="url(#softGlow)">
  <line x1="786.5" y1="394.9" x2="1101.5" y2="281.5" stroke="#89ffca" stroke-width="8" stroke-linecap="round"/>
  <line x1="804.5" y1="388.9" x2="1251.5" y2="227.5" stroke="#ffffff" stroke-width="2" stroke-linecap="round" opacity="0.92"/>
</g>


<circle cx="1269" cy="208" r="2.9" fill="#bff7ff" opacity="0.103" filter="url(#softGlow)"/>
<circle cx="324" cy="176" r="1.7" fill="#bff7ff" opacity="0.055" filter="url(#softGlow)"/>
<circle cx="614" cy="579" r="1.9" fill="#bff7ff" opacity="0.089" filter="url(#softGlow)"/>
<circle cx="1830" cy="555" r="3.0" fill="#bff7ff" opacity="0.142" filter="url(#softGlow)"/>
<circle cx="1175" cy="908" r="2.6" fill="#bff7ff" opacity="0.048" filter="url(#softGlow)"/>
<circle cx="1032" cy="498" r="3.4" fill="#bff7ff" opacity="0.091" filter="url(#softGlow)"/>
<circle cx="1763" cy="281" r="2.6" fill="#bff7ff" opacity="0.124" filter="url(#softGlow)"/>
<circle cx="332" cy="889" r="3.0" fill="#bff7ff" opacity="0.198" filter="url(#softGlow)"/>
<circle cx="224" cy="928" r="1.9" fill="#bff7ff" opacity="0.085" filter="url(#softGlow)"/>
<circle cx="259" cy="239" r="4.2" fill="#bff7ff" opacity="0.181" filter="url(#softGlow)"/>
<circle cx="383" cy="463" r="3.7" fill="#bff7ff" opacity="0.048" filter="url(#softGlow)"/>
<circle cx="838" cy="119" r="3.2" fill="#bff7ff" opacity="0.142" filter="url(#softGlow)"/>
<circle cx="1251" cy="982" r="3.4" fill="#bff7ff" opacity="0.040" filter="url(#softGlow)"/>
<circle cx="1739" cy="425" r="3.4" fill="#bff7ff" opacity="0.165" filter="url(#softGlow)"/>
</svg>