<svg xmlns="http://www.w3.org/2000/svg" width="1920" height="1080" viewBox="0 0 1920 1080">
<defs>
<radialGradient id="spaceGlow" cx="52%" cy="56%" r="54%"><stop offset="0%" stop-color="#132a42"/><stop offset="38%" stop-color="#111630"/><stop offset="100%" stop-color="#030712"/></radialGradient>
<radialGradient id="robotBody" cx="40%" cy="24%" r="85%"><stop offset="0%" stop-color="#ffffff"/><stop offset="52%" stop-color="#dce9ff"/><stop offset="100%" stop-color="#93a6bd"/></radialGradient>
<radialGradient id="blueCore" cx="40%" cy="30%" r="70%"><stop offset="0%" stop-color="#8df4ff"/><stop offset="45%" stop-color="#4895ff"/><stop offset="100%" stop-color="#1a47ff"/></radialGradient>
<filter id="softGlow" x="-80%" y="-80%" width="260%" height="260%"><feGaussianBlur stdDeviation="16" result="blur"/><feMerge><feMergeNode in="blur"/><feMergeNode in="SourceGraphic"/></feMerge></filter>
<filter id="wideGlow" x="-120%" y="-120%" width="340%" height="340%"><feGaussianBlur stdDeviation="34" result="blur"/><feMerge><feMergeNode in="blur"/><feMergeNode in="SourceGraphic"/></feMerge></filter>
</defs>
<ellipse cx="960" cy="751.4" rx="286.2" ry="207.0" fill="none" stroke="#70d6ff" stroke-width="4" opacity="0.193" filter="url(#softGlow)"/>
<path d="M820 740 C770 700 770 825 825 795" stroke="#c4f4ff" stroke-width="10" opacity="0.288" fill="none" stroke-linecap="round" filter="url(#softGlow)"/>
<path d="M1098 724 C1162 686 1164 822 1098 794" stroke="#c4f4ff" stroke-width="10" opacity="0.192" fill="none" stroke-linecap="round" filter="url(#softGlow)"/>
<circle cx="909.0" cy="812.1" r="4.0" fill="#c8f7ff" opacity="0.104" filter="url(#softGlow)"/>
<circle cx="1038.5" cy="689.9" r="5.0" fill="#c8f7ff" opacity="0.108" filter="url(#softGlow)"/>
<circle cx="1175.4" cy="625.0" r="6.0" fill="#c8f7ff" opacity="0.154" filter="url(#softGlow)"/>
<circle cx="1149.8" cy="598.1" r="7.0" fill="#c8f7ff" opacity="0.226" filter="url(#softGlow)"/>
<circle cx="1134.6" cy="699.6" r="4.0" fill="#c8f7ff" opacity="0.295" filter="url(#softGlow)"/>
<circle cx="1027.2" cy="818.7" r="5.0" fill="#c8f7ff" opacity="0.336" filter="url(#softGlow)"/>
<circle cx="891.9" cy="895.4" r="6.0" fill="#c8f7ff" opacity="0.332" filter="url(#softGlow)"/>
<circle cx="771.9" cy="936.3" r="7.0" fill="#c8f7ff" opacity="0.285" filter="url(#softGlow)"/>
<circle cx="702.4" cy="843.9" r="4.0" fill="#c8f7ff" opacity="0.213" filter="url(#softGlow)"/>
<circle cx="812.9" cy="729.6" r="5.0" fill="#c8f7ff" opacity="0.144" filter="url(#softGlow)"/>

<g transform="translate(556.7 219.9)" opacity="0.769" filter="url(#softGlow)">
  <ellipse cx="0" cy="0" rx="92" ry="23" fill="#85f7ff" opacity="0.92"/>
  <ellipse cx="0" cy="-18" rx="46" ry="30" fill="#b9ffcc" opacity="0.76"/>
  <circle cx="-46" cy="4" r="8" fill="#f7ff82"/><circle cx="0" cy="7" r="8" fill="#ff7ddb"/><circle cx="46" cy="4" r="8" fill="#f7ff82"/>
  <path d="M-42 18 L38 18 L118 180 L-118 180 Z" fill="#7dffb3" opacity="0.092"/>
</g>




<g opacity="0.798" filter="url(#softGlow)">
  <line x1="762.9" y1="403.6" x2="1077.9" y2="290.2" stroke="#89ffca" stroke-width="8" stroke-linecap="round"/>
  <line x1="780.9" y1="397.6" x2="1227.9" y2="236.2" stroke="#ffffff" stroke-width="2" stroke-linecap="round" opacity="0.92"/>
</g>


<circle cx="1014" cy="979" r="1.7" fill="#bff7ff" opacity="0.051" filter="url(#softGlow)"/>
<circle cx="980" cy="935" r="4.1" fill="#bff7ff" opacity="0.193" filter="url(#softGlow)"/>
<circle cx="228" cy="424" r="1.5" fill="#bff7ff" opacity="0.117" filter="url(#softGlow)"/>
<circle cx="1535" cy="991" r="1.5" fill="#bff7ff" opacity="0.130" filter="url(#softGlow)"/>
<circle cx="1131" cy="995" r="3.7" fill="#bff7ff" opacity="0.193" filter="url(#softGlow)"/>
<circle cx="526" cy="982" r="2.1" fill="#bff7ff" opacity="0.150" filter="url(#softGlow)"/>
<circle cx="1031" cy="584" r="1.9" fill="#bff7ff" opacity="0.134" filter="url(#softGlow)"/>
<circle cx="901" cy="728" r="2.7" fill="#bff7ff" opacity="0.058" filter="url(#softGlow)"/>
<circle cx="777" cy="105" r="3.1" fill="#bff7ff" opacity="0.046" filter="url(#softGlow)"/>
<circle cx="1834" cy="649" r="2.0" fill="#bff7ff" opacity="0.054" filter="url(#softGlow)"/>
<circle cx="1622" cy="605" r="3.6" fill="#bff7ff" opacity="0.150" filter="url(#softGlow)"/>
<circle cx="543" cy="810" r="2.3" fill="#bff7ff" opacity="0.107" filter="url(#softGlow)"/>
<circle cx="1350" cy="221" r="3.0" fill="#bff7ff" opacity="0.091" filter="url(#softGlow)"/>
<circle cx="1117" cy="813" r="2.8" fill="#bff7ff" opacity="0.053" filter="url(#softGlow)"/>
</svg>