<svg xmlns="http://www.w3.org/2000/svg" width="1920" height="1080" viewBox="0 0 1920 1080">
<defs>
<radialGradient id="spaceGlow" cx="52%" cy="56%" r="54%"><stop offset="0%" stop-color="#132a42"/><stop offset="38%" stop-color="#111630"/><stop offset="100%" stop-color="#030712"/></radialGradient>
<radialGradient id="robotBody" cx="40%" cy="24%" r="85%"><stop offset="0%" stop-color="#ffffff"/><stop offset="52%" stop-color="#dce9ff"/><stop offset="100%" stop-color="#93a6bd"/></radialGradient>
<radialGradient id="blueCore" cx="40%" cy="30%" r="70%"><stop offset="0%" stop-color="#8df4ff"/><stop offset="45%" stop-color="#4895ff"/><stop offset="100%" stop-color="#1a47ff"/></radialGradient>
<filter id="softGlow" x="-80%" y="-80%" width="260%" height="260%"><feGaussianBlur stdDeviation="16" result="blur"/><feMerge><feMergeNode in="blur"/><feMergeNode in="SourceGraphic"/></feMerge></filter>
<filter id="wideGlow" x="-120%" y="-120%" width="340%" height="340%"><feGaussianBlur stdDeviation="34" result="blur"/><feMerge><feMergeNode in="blur"/><feMergeNode in="SourceGraphic"/></feMerge></filter>
</defs>
<ellipse cx="960" cy="750.4" rx="284.6" ry="206.1" fill="none" stroke="#70d6ff" stroke-width="4" opacity="0.187" filter="url(#softGlow)"/>
<path d="M820 740 C770 700 770 825 825 795" stroke="#c4f4ff" stroke-width="10" opacity="0.277" fill="none" stroke-linecap="round" filter="url(#softGlow)"/>
<path d="M1098 724 C1162 686 1164 822 1098 794" stroke="#c4f4ff" stroke-width="10" opacity="0.203" fill="none" stroke-linecap="round" filter="url(#softGlow)"/>
<circle cx="919.4" cy="802.3" r="4.0" fill="#c8f7ff" opacity="0.103" filter="url(#softGlow)"/>
<circle cx="1050.3" cy="679.0" r="5.0" fill="#c8f7ff" opacity="0.110" filter="url(#softGlow)"/>
<circle cx="1183.1" cy="621.5" r="6.0" fill="#c8f7ff" opacity="0.160" filter="url(#softGlow)"/>
<circle cx="1149.0" cy="602.9" r="7.0" fill="#c8f7ff" opacity="0.232" filter="url(#softGlow)"/>
<circle cx="1126.3" cy="708.9" r="4.0" fill="#c8f7ff" opacity="0.300" filter="url(#softGlow)"/>
<circle cx="1013.0" cy="830.0" r="5.0" fill="#c8f7ff" opacity="0.337" filter="url(#softGlow)"/>
<circle cx="882.0" cy="900.0" r="6.0" fill="#c8f7ff" opacity="0.329" filter="url(#softGlow)"/>
<circle cx="765.3" cy="932.9" r="7.0" fill="#c8f7ff" opacity="0.279" filter="url(#softGlow)"/>
<circle cx="703.6" cy="835.1" r="4.0" fill="#c8f7ff" opacity="0.207" filter="url(#softGlow)"/>
<circle cx="820.0" cy="717.8" r="5.0" fill="#c8f7ff" opacity="0.139" filter="url(#softGlow)"/>

<g transform="translate(542.2 218.3)" opacity="0.753" filter="url(#softGlow)">
  <ellipse cx="0" cy="0" rx="92" ry="23" fill="#85f7ff" opacity="0.92"/>
  <ellipse cx="0" cy="-18" rx="46" ry="30" fill="#b9ffcc" opacity="0.76"/>
  <circle cx="-46" cy="4" r="8" fill="#f7ff82"/><circle cx="0" cy="7" r="8" fill="#ff7ddb"/><circle cx="46" cy="4" r="8" fill="#f7ff82"/>
  <path d="M-42 18 L38 18 L118 180 L-118 180 Z" fill="#7dffb3" opacity="0.090"/>
</g>




<g opacity="0.718" filter="url(#softGlow)">
  <line x1="754.9" y1="406.5" x2="1069.9" y2="293.1" stroke="#89ffca" stroke-width="8" stroke-linecap="round"/>
  <line x1="772.9" y1="400.5" x2="1219.9" y2="239.1" stroke="#ffffff" stroke-width="2" stroke-linecap="round" opacity="0.92"/>
</g>


<circle cx="1014" cy="979" r="1.7" fill="#bff7ff" opacity="0.051" filter="url(#softGlow)"/>
<circle cx="980" cy="935" r="4.1" fill="#bff7ff" opacity="0.196" filter="url(#softGlow)"/>
<circle cx="228" cy="424" r="1.5" fill="#bff7ff" opacity="0.119" filter="url(#softGlow)"/>
<circle cx="1535" cy="991" r="1.5" fill="#bff7ff" opacity="0.132" filter="url(#softGlow)"/>
<circle cx="1131" cy="995" r="3.7" fill="#bff7ff" opacity="0.196" filter="url(#softGlow)"/>
<circle cx="526" cy="982" r="2.1" fill="#bff7ff" opacity="0.152" filter="url(#softGlow)"/>
<circle cx="1031" cy="584" r="1.9" fill="#bff7ff" opacity="0.136" filter="url(#softGlow)"/>
<circle cx="901" cy="728" r="2.7" fill="#bff7ff" opacity="0.059" filter="url(#softGlow)"/>
<circle cx="777" cy="105" r="3.1" fill="#bff7ff" opacity="0.047" filter="url(#softGlow)"/>
<circle cx="1834" cy="649" r="2.0" fill="#bff7ff" opacity="0.055" filter="url(#softGlow)"/>
<circle cx="1622" cy="605" r="3.6" fill="#bff7ff" opacity="0.153" filter="url(#softGlow)"/>
<circle cx="543" cy="810" r="2.3" fill="#bff7ff" opacity="0.109" filter="url(#softGlow)"/>
<circle cx="1350" cy="221" r="3.0" fill="#bff7ff" opacity="0.092" filter="url(#softGlow)"/>
<circle cx="1117" cy="813" r="2.8" fill="#bff7ff" opacity="0.054" filter="url(#softGlow)"/>
</svg>