<svg xmlns="http://www.w3.org/2000/svg" width="1920" height="1080" viewBox="0 0 1920 1080">
<defs>
<radialGradient id="spaceGlow" cx="52%" cy="56%" r="54%"><stop offset="0%" stop-color="#132a42"/><stop offset="38%" stop-color="#111630"/><stop offset="100%" stop-color="#030712"/></radialGradient>
<radialGradient id="robotBody" cx="40%" cy="24%" r="85%"><stop offset="0%" stop-color="#ffffff"/><stop offset="52%" stop-color="#dce9ff"/><stop offset="100%" stop-color="#93a6bd"/></radialGradient>
<radialGradient id="blueCore" cx="40%" cy="30%" r="70%"><stop offset="0%" stop-color="#8df4ff"/><stop offset="45%" stop-color="#4895ff"/><stop offset="100%" stop-color="#1a47ff"/></radialGradient>
<filter id="softGlow" x="-80%" y="-80%" width="260%" height="260%"><feGaussianBlur stdDeviation="16" result="blur"/><feMerge><feMergeNode in="blur"/><feMergeNode in="SourceGraphic"/></feMerge></filter>
<filter id="wideGlow" x="-120%" y="-120%" width="340%" height="340%"><feGaussianBlur stdDeviation="34" result="blur"/><feMerge><feMergeNode in="blur"/><feMergeNode in="SourceGraphic"/></feMerge></filter>
</defs>
<ellipse cx="960" cy="748.3" rx="280.5" ry="203.9" fill="none" stroke="#70d6ff" stroke-width="4" opacity="0.171" filter="url(#softGlow)"/>
<path d="M820 740 C770 700 770 825 825 795" stroke="#c4f4ff" stroke-width="10" opacity="0.250" fill="none" stroke-linecap="round" filter="url(#softGlow)"/>
<path d="M1098 724 C1162 686 1164 822 1098 794" stroke="#c4f4ff" stroke-width="10" opacity="0.230" fill="none" stroke-linecap="round" filter="url(#softGlow)"/>
<circle cx="940.7" cy="782.3" r="4.0" fill="#c8f7ff" opacity="0.101" filter="url(#softGlow)"/>
<circle cx="1072.9" cy="658.6" r="5.0" fill="#c8f7ff" opacity="0.116" filter="url(#softGlow)"/>
<circle cx="1196.3" cy="616.5" r="6.0" fill="#c8f7ff" opacity="0.172" filter="url(#softGlow)"/>
<circle cx="1145.5" cy="614.6" r="7.0" fill="#c8f7ff" opacity="0.246" filter="url(#softGlow)"/>
<circle cx="1108.3" cy="728.4" r="4.0" fill="#c8f7ff" opacity="0.310" filter="url(#softGlow)"/>
<circle cx="984.1" cy="851.8" r="5.0" fill="#c8f7ff" opacity="0.339" filter="url(#softGlow)"/>
<circle cx="862.9" cy="907.4" r="6.0" fill="#c8f7ff" opacity="0.323" filter="url(#softGlow)"/>
<circle cx="754.1" cy="923.7" r="7.0" fill="#c8f7ff" opacity="0.267" filter="url(#softGlow)"/>
<circle cx="708.5" cy="816.5" r="4.0" fill="#c8f7ff" opacity="0.193" filter="url(#softGlow)"/>
<circle cx="835.4" cy="694.9" r="5.0" fill="#c8f7ff" opacity="0.129" filter="url(#softGlow)"/>

<g transform="translate(514.0 214.6)" opacity="0.720" filter="url(#softGlow)">
  <ellipse cx="0" cy="0" rx="92" ry="23" fill="#85f7ff" opacity="0.92"/>
  <ellipse cx="0" cy="-18" rx="46" ry="30" fill="#b9ffcc" opacity="0.76"/>
  <circle cx="-46" cy="4" r="8" fill="#f7ff82"/><circle cx="0" cy="7" r="8" fill="#ff7ddb"/><circle cx="46" cy="4" r="8" fill="#f7ff82"/>
  <path d="M-42 18 L38 18 L118 180 L-118 180 Z" fill="#7dffb3" opacity="0.086"/>
</g>




<g opacity="0.526" filter="url(#softGlow)">
  <line x1="744.9" y1="410.2" x2="1059.9" y2="296.8" stroke="#89ffca" stroke-width="8" stroke-linecap="round"/>
  <line x1="762.9" y1="404.2" x2="1209.9" y2="242.8" stroke="#ffffff" stroke-width="2" stroke-linecap="round" opacity="0.92"/>
</g>


<circle cx="982" cy="713" r="1.9" fill="#bff7ff" opacity="0.054" filter="url(#softGlow)"/>
<circle cx="1803" cy="568" r="3.8" fill="#bff7ff" opacity="0.207" filter="url(#softGlow)"/>
<circle cx="1369" cy="949" r="2.5" fill="#bff7ff" opacity="0.117" filter="url(#softGlow)"/>
<circle cx="1567" cy="946" r="1.9" fill="#bff7ff" opacity="0.087" filter="url(#softGlow)"/>
<circle cx="1108" cy="474" r="1.9" fill="#bff7ff" opacity="0.095" filter="url(#softGlow)"/>
<circle cx="100" cy="571" r="3.4" fill="#bff7ff" opacity="0.181" filter="url(#softGlow)"/>
<circle cx="1701" cy="758" r="3.6" fill="#bff7ff" opacity="0.086" filter="url(#softGlow)"/>
<circle cx="875" cy="121" r="1.6" fill="#bff7ff" opacity="0.133" filter="url(#softGlow)"/>
<circle cx="1481" cy="886" r="3.2" fill="#bff7ff" opacity="0.202" filter="url(#softGlow)"/>
<circle cx="1773" cy="938" r="2.3" fill="#bff7ff" opacity="0.136" filter="url(#softGlow)"/>
<circle cx="632" cy="930" r="1.5" fill="#bff7ff" opacity="0.176" filter="url(#softGlow)"/>
<circle cx="882" cy="175" r="3.6" fill="#bff7ff" opacity="0.215" filter="url(#softGlow)"/>
<circle cx="1759" cy="697" r="3.7" fill="#bff7ff" opacity="0.184" filter="url(#softGlow)"/>
<circle cx="914" cy="111" r="2.5" fill="#bff7ff" opacity="0.078" filter="url(#softGlow)"/>
</svg>