<svg xmlns="http://www.w3.org/2000/svg" width="1920" height="1080" viewBox="0 0 1920 1080">
<defs>
<radialGradient id="spaceGlow" cx="52%" cy="56%" r="54%"><stop offset="0%" stop-color="#132a42"/><stop offset="38%" stop-color="#111630"/><stop offset="100%" stop-color="#030712"/></radialGradient>
<radialGradient id="robotBody" cx="40%" cy="24%" r="85%"><stop offset="0%" stop-color="#ffffff"/><stop offset="52%" stop-color="#dce9ff"/><stop offset="100%" stop-color="#93a6bd"/></radialGradient>
<radialGradient id="blueCore" cx="40%" cy="30%" r="70%"><stop offset="0%" stop-color="#8df4ff"/><stop offset="45%" stop-color="#4895ff"/><stop offset="100%" stop-color="#1a47ff"/></radialGradient>
<filter id="softGlow" x="-80%" y="-80%" width="260%" height="260%"><feGaussianBlur stdDeviation="16" result="blur"/><feMerge><feMergeNode in="blur"/><feMergeNode in="SourceGraphic"/></feMerge></filter>
<filter id="wideGlow" x="-120%" y="-120%" width="340%" height="340%"><feGaussianBlur stdDeviation="34" result="blur"/><feMerge><feMergeNode in="blur"/><feMergeNode in="SourceGraphic"/></feMerge></filter>
</defs>
<ellipse cx="960" cy="746.5" rx="276.1" ry="201.4" fill="none" stroke="#70d6ff" stroke-width="4" opacity="0.154" filter="url(#softGlow)"/>
<path d="M820 740 C770 700 770 825 825 795" stroke="#c4f4ff" stroke-width="10" opacity="0.221" fill="none" stroke-linecap="round" filter="url(#softGlow)"/>
<path d="M1098 724 C1162 686 1164 822 1098 794" stroke="#c4f4ff" stroke-width="10" opacity="0.259" fill="none" stroke-linecap="round" filter="url(#softGlow)"/>
<circle cx="962.2" cy="762.0" r="4.0" fill="#c8f7ff" opacity="0.100" filter="url(#softGlow)"/>
<circle cx="1094.0" cy="640.1" r="5.0" fill="#c8f7ff" opacity="0.124" filter="url(#softGlow)"/>
<circle cx="1206.5" cy="614.2" r="6.0" fill="#c8f7ff" opacity="0.185" filter="url(#softGlow)"/>
<circle cx="1139.7" cy="629.1" r="7.0" fill="#c8f7ff" opacity="0.259" filter="url(#softGlow)"/>
<circle cx="1088.4" cy="748.4" r="4.0" fill="#c8f7ff" opacity="0.318" filter="url(#softGlow)"/>
<circle cx="954.9" cy="872.0" r="5.0" fill="#c8f7ff" opacity="0.340" filter="url(#softGlow)"/>
<circle cx="845.0" cy="912.0" r="6.0" fill="#c8f7ff" opacity="0.316" filter="url(#softGlow)"/>
<circle cx="745.4" cy="911.6" r="7.0" fill="#c8f7ff" opacity="0.254" filter="url(#softGlow)"/>
<circle cx="716.7" cy="797.0" r="4.0" fill="#c8f7ff" opacity="0.180" filter="url(#softGlow)"/>
<circle cx="852.4" cy="673.3" r="5.0" fill="#c8f7ff" opacity="0.121" filter="url(#softGlow)"/>

<g transform="translate(487.0 210.0)" opacity="0.685" filter="url(#softGlow)">
  <ellipse cx="0" cy="0" rx="92" ry="23" fill="#85f7ff" opacity="0.92"/>
  <ellipse cx="0" cy="-18" rx="46" ry="30" fill="#b9ffcc" opacity="0.76"/>
  <circle cx="-46" cy="4" r="8" fill="#f7ff82"/><circle cx="0" cy="7" r="8" fill="#ff7ddb"/><circle cx="46" cy="4" r="8" fill="#f7ff82"/>
  <path d="M-42 18 L38 18 L118 180 L-118 180 Z" fill="#7dffb3" opacity="0.082"/>
</g>




<g opacity="0.303" filter="url(#softGlow)">
  <line x1="740.8" y1="411.7" x2="1055.8" y2="298.3" stroke="#89ffca" stroke-width="8" stroke-linecap="round"/>
  <line x1="758.8" y1="405.7" x2="1205.8" y2="244.3" stroke="#ffffff" stroke-width="2" stroke-linecap="round" opacity="0.92"/>
</g>


<circle cx="982" cy="713" r="1.9" fill="#bff7ff" opacity="0.055" filter="url(#softGlow)"/>
<circle cx="1803" cy="568" r="3.8" fill="#bff7ff" opacity="0.209" filter="url(#softGlow)"/>
<circle cx="1369" cy="949" r="2.5" fill="#bff7ff" opacity="0.118" filter="url(#softGlow)"/>
<circle cx="1567" cy="946" r="1.9" fill="#bff7ff" opacity="0.088" filter="url(#softGlow)"/>
<circle cx="1108" cy="474" r="1.9" fill="#bff7ff" opacity="0.096" filter="url(#softGlow)"/>
<circle cx="100" cy="571" r="3.4" fill="#bff7ff" opacity="0.183" filter="url(#softGlow)"/>
<circle cx="1701" cy="758" r="3.6" fill="#bff7ff" opacity="0.087" filter="url(#softGlow)"/>
<circle cx="875" cy="121" r="1.6" fill="#bff7ff" opacity="0.134" filter="url(#softGlow)"/>
<circle cx="1481" cy="886" r="3.2" fill="#bff7ff" opacity="0.204" filter="url(#softGlow)"/>
<circle cx="1773" cy="938" r="2.3" fill="#bff7ff" opacity="0.137" filter="url(#softGlow)"/>
<circle cx="632" cy="930" r="1.5" fill="#bff7ff" opacity="0.178" filter="url(#softGlow)"/>
<circle cx="882" cy="175" r="3.6" fill="#bff7ff" opacity="0.217" filter="url(#softGlow)"/>
<circle cx="1759" cy="697" r="3.7" fill="#bff7ff" opacity="0.185" filter="url(#softGlow)"/>
<circle cx="914" cy="111" r="2.5" fill="#bff7ff" opacity="0.079" filter="url(#softGlow)"/>
</svg>