<svg xmlns="http://www.w3.org/2000/svg" width="1920" height="1080" viewBox="0 0 1920 1080">
<defs>
<radialGradient id="spaceGlow" cx="52%" cy="56%" r="54%"><stop offset="0%" stop-color="#132a42"/><stop offset="38%" stop-color="#111630"/><stop offset="100%" stop-color="#030712"/></radialGradient>
<radialGradient id="robotBody" cx="40%" cy="24%" r="85%"><stop offset="0%" stop-color="#ffffff"/><stop offset="52%" stop-color="#dce9ff"/><stop offset="100%" stop-color="#93a6bd"/></radialGradient>
<radialGradient id="blueCore" cx="40%" cy="30%" r="70%"><stop offset="0%" stop-color="#8df4ff"/><stop offset="45%" stop-color="#4895ff"/><stop offset="100%" stop-color="#1a47ff"/></radialGradient>
<filter id="softGlow" x="-80%" y="-80%" width="260%" height="260%"><feGaussianBlur stdDeviation="16" result="blur"/><feMerge><feMergeNode in="blur"/><feMergeNode in="SourceGraphic"/></feMerge></filter>
<filter id="wideGlow" x="-120%" y="-120%" width="340%" height="340%"><feGaussianBlur stdDeviation="34" result="blur"/><feMerge><feMergeNode in="blur"/><feMergeNode in="SourceGraphic"/></feMerge></filter>
</defs>
<ellipse cx="960" cy="743.3" rx="270.0" ry="198.0" fill="none" stroke="#70d6ff" stroke-width="4" opacity="0.130" filter="url(#softGlow)"/>
<path d="M820 740 C770 700 770 825 825 795" stroke="#c4f4ff" stroke-width="10" opacity="0.180" fill="none" stroke-linecap="round" filter="url(#softGlow)"/>
<path d="M1098 724 C1162 686 1164 822 1098 794" stroke="#c4f4ff" stroke-width="10" opacity="0.300" fill="none" stroke-linecap="round" filter="url(#softGlow)"/>
<circle cx="1015.2" cy="712.0" r="4.0" fill="#c8f7ff" opacity="0.105" filter="url(#softGlow)"/>
<circle cx="1138.9" cy="604.6" r="5.0" fill="#c8f7ff" opacity="0.148" filter="url(#softGlow)"/>
<circle cx="1218.0" cy="620.5" r="6.0" fill="#c8f7ff" opacity="0.218" filter="url(#softGlow)"/>
<circle cx="1115.3" cy="675.6" r="7.0" fill="#c8f7ff" opacity="0.289" filter="url(#softGlow)"/>
<circle cx="1031.9" cy="799.1" r="4.0" fill="#c8f7ff" opacity="0.334" filter="url(#softGlow)"/>
<circle cx="883.0" cy="913.0" r="5.0" fill="#c8f7ff" opacity="0.335" filter="url(#softGlow)"/>
<circle cx="807.3" cy="911.6" r="6.0" fill="#c8f7ff" opacity="0.291" filter="url(#softGlow)"/>
<circle cx="736.0" cy="869.9" r="7.0" fill="#c8f7ff" opacity="0.221" filter="url(#softGlow)"/>
<circle cx="750.4" cy="746.3" r="4.0" fill="#c8f7ff" opacity="0.150" filter="url(#softGlow)"/>
<circle cx="900.5" cy="627.4" r="5.0" fill="#c8f7ff" opacity="0.106" filter="url(#softGlow)"/>

<g transform="translate(424.6 194.0)" opacity="0.592" filter="url(#softGlow)">
  <ellipse cx="0" cy="0" rx="92" ry="23" fill="#85f7ff" opacity="0.92"/>
  <ellipse cx="0" cy="-18" rx="46" ry="30" fill="#b9ffcc" opacity="0.76"/>
  <circle cx="-46" cy="4" r="8" fill="#f7ff82"/><circle cx="0" cy="7" r="8" fill="#ff7ddb"/><circle cx="46" cy="4" r="8" fill="#f7ff82"/>
  <path d="M-42 18 L38 18 L118 180 L-118 180 Z" fill="#7dffb3" opacity="0.071"/>
</g>






<circle cx="341" cy="162" r="2.7" fill="#bff7ff" opacity="0.130" filter="url(#softGlow)"/>
<circle cx="692" cy="437" r="2.6" fill="#bff7ff" opacity="0.152" filter="url(#softGlow)"/>
<circle cx="1734" cy="163" r="2.3" fill="#bff7ff" opacity="0.050" filter="url(#softGlow)"/>
<circle cx="1200" cy="485" r="2.2" fill="#bff7ff" opacity="0.162" filter="url(#softGlow)"/>
<circle cx="792" cy="680" r="2.2" fill="#bff7ff" opacity="0.168" filter="url(#softGlow)"/>
<circle cx="1227" cy="203" r="3.8" fill="#bff7ff" opacity="0.150" filter="url(#softGlow)"/>
<circle cx="128" cy="141" r="2.8" fill="#bff7ff" opacity="0.157" filter="url(#softGlow)"/>
<circle cx="1702" cy="363" r="2.4" fill="#bff7ff" opacity="0.050" filter="url(#softGlow)"/>
<circle cx="1466" cy="747" r="2.2" fill="#bff7ff" opacity="0.049" filter="url(#softGlow)"/>
<circle cx="1299" cy="726" r="3.3" fill="#bff7ff" opacity="0.175" filter="url(#softGlow)"/>
<circle cx="1002" cy="480" r="2.7" fill="#bff7ff" opacity="0.084" filter="url(#softGlow)"/>
<circle cx="365" cy="90" r="3.2" fill="#bff7ff" opacity="0.191" filter="url(#softGlow)"/>
<circle cx="550" cy="353" r="2.9" fill="#bff7ff" opacity="0.197" filter="url(#softGlow)"/>
<circle cx="1041" cy="544" r="2.9" fill="#bff7ff" opacity="0.079" filter="url(#softGlow)"/>
</svg>