<svg xmlns="http://www.w3.org/2000/svg" width="1920" height="1080" viewBox="0 0 1920 1080">
<defs>
<radialGradient id="spaceGlow" cx="52%" cy="56%" r="54%"><stop offset="0%" stop-color="#132a42"/><stop offset="38%" stop-color="#111630"/><stop offset="100%" stop-color="#030712"/></radialGradient>
<radialGradient id="robotBody" cx="40%" cy="24%" r="85%"><stop offset="0%" stop-color="#ffffff"/><stop offset="52%" stop-color="#dce9ff"/><stop offset="100%" stop-color="#93a6bd"/></radialGradient>
<radialGradient id="blueCore" cx="40%" cy="30%" r="70%"><stop offset="0%" stop-color="#8df4ff"/><stop offset="45%" stop-color="#4895ff"/><stop offset="100%" stop-color="#1a47ff"/></radialGradient>
<filter id="softGlow" x="-80%" y="-80%" width="260%" height="260%"><feGaussianBlur stdDeviation="16" result="blur"/><feMerge><feMergeNode in="blur"/><feMergeNode in="SourceGraphic"/></feMerge></filter>
<filter id="wideGlow" x="-120%" y="-120%" width="340%" height="340%"><feGaussianBlur stdDeviation="34" result="blur"/><feMerge><feMergeNode in="blur"/><feMergeNode in="SourceGraphic"/></feMerge></filter>
</defs>
<ellipse cx="960" cy="742.1" rx="274.2" ry="200.3" fill="none" stroke="#70d6ff" stroke-width="4" opacity="0.146" filter="url(#softGlow)"/>
<path d="M820 740 C770 700 770 825 825 795" stroke="#c4f4ff" stroke-width="10" opacity="0.208" fill="none" stroke-linecap="round" filter="url(#softGlow)"/>
<path d="M1098 724 C1162 686 1164 822 1098 794" stroke="#c4f4ff" stroke-width="10" opacity="0.272" fill="none" stroke-linecap="round" filter="url(#softGlow)"/>
<circle cx="1054.6" cy="676.2" r="4.0" fill="#c8f7ff" opacity="0.116" filter="url(#softGlow)"/>
<circle cx="1164.6" cy="589.2" r="5.0" fill="#c8f7ff" opacity="0.171" filter="url(#softGlow)"/>
<circle cx="1212.3" cy="637.5" r="6.0" fill="#c8f7ff" opacity="0.245" filter="url(#softGlow)"/>
<circle cx="1086.7" cy="720.3" r="7.0" fill="#c8f7ff" opacity="0.309" filter="url(#softGlow)"/>
<circle cx="982.4" cy="837.0" r="4.0" fill="#c8f7ff" opacity="0.339" filter="url(#softGlow)"/>
<circle cx="829.6" cy="933.7" r="5.0" fill="#c8f7ff" opacity="0.324" filter="url(#softGlow)"/>
<circle cx="785.8" cy="899.1" r="6.0" fill="#c8f7ff" opacity="0.268" filter="url(#softGlow)"/>
<circle cx="741.4" cy="827.6" r="7.0" fill="#c8f7ff" opacity="0.194" filter="url(#softGlow)"/>
<circle cx="789.5" cy="706.9" r="4.0" fill="#c8f7ff" opacity="0.130" filter="url(#softGlow)"/>
<circle cx="942.6" cy="601.8" r="5.0" fill="#c8f7ff" opacity="0.101" filter="url(#softGlow)"/>

<g transform="translate(380.6 182.1)" opacity="0.511" filter="url(#softGlow)">
  <ellipse cx="0" cy="0" rx="92" ry="23" fill="#85f7ff" opacity="0.92"/>
  <ellipse cx="0" cy="-18" rx="46" ry="30" fill="#b9ffcc" opacity="0.76"/>
  <circle cx="-46" cy="4" r="8" fill="#f7ff82"/><circle cx="0" cy="7" r="8" fill="#ff7ddb"/><circle cx="46" cy="4" r="8" fill="#f7ff82"/>
  <path d="M-42 18 L38 18 L118 180 L-118 180 Z" fill="#7dffb3" opacity="0.061"/>
</g>






<circle cx="1361" cy="751" r="2.9" fill="#bff7ff" opacity="0.175" filter="url(#softGlow)"/>
<circle cx="1470" cy="959" r="3.8" fill="#bff7ff" opacity="0.146" filter="url(#softGlow)"/>
<circle cx="1538" cy="45" r="2.3" fill="#bff7ff" opacity="0.086" filter="url(#softGlow)"/>
<circle cx="1290" cy="65" r="2.6" fill="#bff7ff" opacity="0.182" filter="url(#softGlow)"/>
<circle cx="1459" cy="362" r="2.1" fill="#bff7ff" opacity="0.178" filter="url(#softGlow)"/>
<circle cx="734" cy="591" r="2.0" fill="#bff7ff" opacity="0.046" filter="url(#softGlow)"/>
<circle cx="494" cy="834" r="3.4" fill="#bff7ff" opacity="0.152" filter="url(#softGlow)"/>
<circle cx="1707" cy="684" r="2.0" fill="#bff7ff" opacity="0.061" filter="url(#softGlow)"/>
<circle cx="1796" cy="325" r="3.6" fill="#bff7ff" opacity="0.137" filter="url(#softGlow)"/>
<circle cx="971" cy="740" r="2.6" fill="#bff7ff" opacity="0.068" filter="url(#softGlow)"/>
<circle cx="1565" cy="37" r="2.4" fill="#bff7ff" opacity="0.094" filter="url(#softGlow)"/>
<circle cx="1799" cy="858" r="1.8" fill="#bff7ff" opacity="0.131" filter="url(#softGlow)"/>
<circle cx="960" cy="558" r="4.1" fill="#bff7ff" opacity="0.058" filter="url(#softGlow)"/>
<circle cx="419" cy="888" r="2.5" fill="#bff7ff" opacity="0.138" filter="url(#softGlow)"/>
</svg>