<svg xmlns="http://www.w3.org/2000/svg" width="1920" height="1080" viewBox="0 0 1920 1080">
<defs>
<radialGradient id="spaceGlow" cx="52%" cy="56%" r="54%"><stop offset="0%" stop-color="#132a42"/><stop offset="38%" stop-color="#111630"/><stop offset="100%" stop-color="#030712"/></radialGradient>
<radialGradient id="robotBody" cx="40%" cy="24%" r="85%"><stop offset="0%" stop-color="#ffffff"/><stop offset="52%" stop-color="#dce9ff"/><stop offset="100%" stop-color="#93a6bd"/></radialGradient>
<radialGradient id="blueCore" cx="40%" cy="30%" r="70%"><stop offset="0%" stop-color="#8df4ff"/><stop offset="45%" stop-color="#4895ff"/><stop offset="100%" stop-color="#1a47ff"/></radialGradient>
<filter id="softGlow" x="-80%" y="-80%" width="260%" height="260%"><feGaussianBlur stdDeviation="16" result="blur"/><feMerge><feMergeNode in="blur"/><feMergeNode in="SourceGraphic"/></feMerge></filter>
<filter id="wideGlow" x="-120%" y="-120%" width="340%" height="340%"><feGaussianBlur stdDeviation="34" result="blur"/><feMerge><feMergeNode in="blur"/><feMergeNode in="SourceGraphic"/></feMerge></filter>
</defs>
<ellipse cx="960" cy="742.0" rx="276.2" ry="201.5" fill="none" stroke="#70d6ff" stroke-width="4" opacity="0.154" filter="url(#softGlow)"/>
<path d="M820 740 C770 700 770 825 825 795" stroke="#c4f4ff" stroke-width="10" opacity="0.221" fill="none" stroke-linecap="round" filter="url(#softGlow)"/>
<path d="M1098 724 C1162 686 1164 822 1098 794" stroke="#c4f4ff" stroke-width="10" opacity="0.259" fill="none" stroke-linecap="round" filter="url(#softGlow)"/>
<circle cx="1063.8" cy="668.1" r="4.0" fill="#c8f7ff" opacity="0.119" filter="url(#softGlow)"/>
<circle cx="1169.4" cy="587.3" r="5.0" fill="#c8f7ff" opacity="0.177" filter="url(#softGlow)"/>
<circle cx="1208.8" cy="643.2" r="6.0" fill="#c8f7ff" opacity="0.252" filter="url(#softGlow)"/>
<circle cx="1078.5" cy="732.1" r="7.0" fill="#c8f7ff" opacity="0.314" filter="url(#softGlow)"/>
<circle cx="969.7" cy="845.7" r="4.0" fill="#c8f7ff" opacity="0.340" filter="url(#softGlow)"/>
<circle cx="817.2" cy="937.0" r="5.0" fill="#c8f7ff" opacity="0.320" filter="url(#softGlow)"/>
<circle cx="781.8" cy="894.4" r="6.0" fill="#c8f7ff" opacity="0.262" filter="url(#softGlow)"/>
<circle cx="744.5" cy="816.2" r="7.0" fill="#c8f7ff" opacity="0.187" filter="url(#softGlow)"/>
<circle cx="800.8" cy="697.6" r="4.0" fill="#c8f7ff" opacity="0.126" filter="url(#softGlow)"/>
<circle cx="953.3" cy="597.2" r="5.0" fill="#c8f7ff" opacity="0.100" filter="url(#softGlow)"/>

<g transform="translate(370.6 180.7)" opacity="0.489" filter="url(#softGlow)">
  <ellipse cx="0" cy="0" rx="92" ry="23" fill="#85f7ff" opacity="0.92"/>
  <ellipse cx="0" cy="-18" rx="46" ry="30" fill="#b9ffcc" opacity="0.76"/>
  <circle cx="-46" cy="4" r="8" fill="#f7ff82"/><circle cx="0" cy="7" r="8" fill="#ff7ddb"/><circle cx="46" cy="4" r="8" fill="#f7ff82"/>
  <path d="M-42 18 L38 18 L118 180 L-118 180 Z" fill="#7dffb3" opacity="0.059"/>
</g>






<circle cx="1478" cy="426" r="1.6" fill="#bff7ff" opacity="0.058" filter="url(#softGlow)"/>
<circle cx="112" cy="593" r="3.0" fill="#bff7ff" opacity="0.062" filter="url(#softGlow)"/>
<circle cx="439" cy="191" r="1.6" fill="#bff7ff" opacity="0.158" filter="url(#softGlow)"/>
<circle cx="1704" cy="854" r="3.8" fill="#bff7ff" opacity="0.137" filter="url(#softGlow)"/>
<circle cx="1292" cy="264" r="2.8" fill="#bff7ff" opacity="0.166" filter="url(#softGlow)"/>
<circle cx="934" cy="712" r="3.9" fill="#bff7ff" opacity="0.064" filter="url(#softGlow)"/>
<circle cx="1017" cy="971" r="2.8" fill="#bff7ff" opacity="0.042" filter="url(#softGlow)"/>
<circle cx="1256" cy="611" r="2.9" fill="#bff7ff" opacity="0.039" filter="url(#softGlow)"/>
<circle cx="781" cy="434" r="3.5" fill="#bff7ff" opacity="0.083" filter="url(#softGlow)"/>
<circle cx="1394" cy="493" r="2.3" fill="#bff7ff" opacity="0.099" filter="url(#softGlow)"/>
<circle cx="1642" cy="854" r="3.6" fill="#bff7ff" opacity="0.081" filter="url(#softGlow)"/>
<circle cx="1715" cy="910" r="3.5" fill="#bff7ff" opacity="0.185" filter="url(#softGlow)"/>
<circle cx="1825" cy="87" r="2.4" fill="#bff7ff" opacity="0.161" filter="url(#softGlow)"/>
<circle cx="892" cy="978" r="3.3" fill="#bff7ff" opacity="0.045" filter="url(#softGlow)"/>
</svg>