<svg xmlns="http://www.w3.org/2000/svg" width="1920" height="1080" viewBox="0 0 1920 1080">
<defs>
<radialGradient id="spaceGlow" cx="52%" cy="56%" r="54%"><stop offset="0%" stop-color="#132a42"/><stop offset="38%" stop-color="#111630"/><stop offset="100%" stop-color="#030712"/></radialGradient>
<radialGradient id="robotBody" cx="40%" cy="24%" r="85%"><stop offset="0%" stop-color="#ffffff"/><stop offset="52%" stop-color="#dce9ff"/><stop offset="100%" stop-color="#93a6bd"/></radialGradient>
<radialGradient id="blueCore" cx="40%" cy="30%" r="70%"><stop offset="0%" stop-color="#8df4ff"/><stop offset="45%" stop-color="#4895ff"/><stop offset="100%" stop-color="#1a47ff"/></radialGradient>
<filter id="softGlow" x="-80%" y="-80%" width="260%" height="260%"><feGaussianBlur stdDeviation="16" result="blur"/><feMerge><feMergeNode in="blur"/><feMergeNode in="SourceGraphic"/></feMerge></filter>
<filter id="wideGlow" x="-120%" y="-120%" width="340%" height="340%"><feGaussianBlur stdDeviation="34" result="blur"/><feMerge><feMergeNode in="blur"/><feMergeNode in="SourceGraphic"/></feMerge></filter>
</defs>
<ellipse cx="960" cy="742.6" rx="284.7" ry="206.2" fill="none" stroke="#70d6ff" stroke-width="4" opacity="0.187" filter="url(#softGlow)"/>
<path d="M820 740 C770 700 770 825 825 795" stroke="#c4f4ff" stroke-width="10" opacity="0.278" fill="none" stroke-linecap="round" filter="url(#softGlow)"/>
<path d="M1098 724 C1162 686 1164 822 1098 794" stroke="#c4f4ff" stroke-width="10" opacity="0.202" fill="none" stroke-linecap="round" filter="url(#softGlow)"/>
<circle cx="1096.9" cy="640.6" r="4.0" fill="#c8f7ff" opacity="0.137" filter="url(#softGlow)"/>
<circle cx="1181.9" cy="588.0" r="5.0" fill="#c8f7ff" opacity="0.204" filter="url(#softGlow)"/>
<circle cx="1187.2" cy="671.6" r="6.0" fill="#c8f7ff" opacity="0.277" filter="url(#softGlow)"/>
<circle cx="1042.1" cy="780.4" r="7.0" fill="#c8f7ff" opacity="0.328" filter="url(#softGlow)"/>
<circle cx="919.2" cy="876.5" r="4.0" fill="#c8f7ff" opacity="0.338" filter="url(#softGlow)"/>
<circle cx="772.6" cy="941.9" r="5.0" fill="#c8f7ff" opacity="0.302" filter="url(#softGlow)"/>
<circle cx="771.5" cy="869.7" r="6.0" fill="#c8f7ff" opacity="0.235" filter="url(#softGlow)"/>
<circle cx="763.7" cy="768.5" r="7.0" fill="#c8f7ff" opacity="0.162" filter="url(#softGlow)"/>
<circle cx="850.5" cy="663.9" r="4.0" fill="#c8f7ff" opacity="0.111" filter="url(#softGlow)"/>
<circle cx="996.2" cy="586.6" r="5.0" fill="#c8f7ff" opacity="0.102" filter="url(#softGlow)"/>

<g transform="translate(334.1 184.6)" opacity="0.402" filter="url(#softGlow)">
  <ellipse cx="0" cy="0" rx="92" ry="23" fill="#85f7ff" opacity="0.92"/>
  <ellipse cx="0" cy="-18" rx="46" ry="30" fill="#b9ffcc" opacity="0.76"/>
  <circle cx="-46" cy="4" r="8" fill="#f7ff82"/><circle cx="0" cy="7" r="8" fill="#ff7ddb"/><circle cx="46" cy="4" r="8" fill="#f7ff82"/>
  <path d="M-42 18 L38 18 L118 180 L-118 180 Z" fill="#7dffb3" opacity="0.048"/>
</g>






<circle cx="720" cy="569" r="3.7" fill="#bff7ff" opacity="0.153" filter="url(#softGlow)"/>
<circle cx="832" cy="254" r="4.0" fill="#bff7ff" opacity="0.034" filter="url(#softGlow)"/>
<circle cx="1525" cy="645" r="2.5" fill="#bff7ff" opacity="0.150" filter="url(#softGlow)"/>
<circle cx="474" cy="477" r="3.5" fill="#bff7ff" opacity="0.144" filter="url(#softGlow)"/>
<circle cx="1420" cy="823" r="2.7" fill="#bff7ff" opacity="0.081" filter="url(#softGlow)"/>
<circle cx="1402" cy="902" r="3.4" fill="#bff7ff" opacity="0.153" filter="url(#softGlow)"/>
<circle cx="144" cy="685" r="2.0" fill="#bff7ff" opacity="0.146" filter="url(#softGlow)"/>
<circle cx="1768" cy="132" r="4.2" fill="#bff7ff" opacity="0.057" filter="url(#softGlow)"/>
<circle cx="1077" cy="58" r="4.1" fill="#bff7ff" opacity="0.113" filter="url(#softGlow)"/>
<circle cx="1641" cy="999" r="2.0" fill="#bff7ff" opacity="0.086" filter="url(#softGlow)"/>
<circle cx="1615" cy="543" r="1.8" fill="#bff7ff" opacity="0.049" filter="url(#softGlow)"/>
<circle cx="1400" cy="834" r="3.9" fill="#bff7ff" opacity="0.062" filter="url(#softGlow)"/>
<circle cx="806" cy="780" r="3.3" fill="#bff7ff" opacity="0.113" filter="url(#softGlow)"/>
<circle cx="656" cy="862" r="3.6" fill="#bff7ff" opacity="0.141" filter="url(#softGlow)"/>
</svg>