<svg xmlns="http://www.w3.org/2000/svg" width="1920" height="1080" viewBox="0 0 1920 1080">
<defs>
<radialGradient id="spaceGlow" cx="52%" cy="56%" r="54%"><stop offset="0%" stop-color="#132a42"/><stop offset="38%" stop-color="#111630"/><stop offset="100%" stop-color="#030712"/></radialGradient>
<radialGradient id="robotBody" cx="40%" cy="24%" r="85%"><stop offset="0%" stop-color="#ffffff"/><stop offset="52%" stop-color="#dce9ff"/><stop offset="100%" stop-color="#93a6bd"/></radialGradient>
<radialGradient id="blueCore" cx="40%" cy="30%" r="70%"><stop offset="0%" stop-color="#8df4ff"/><stop offset="45%" stop-color="#4895ff"/><stop offset="100%" stop-color="#1a47ff"/></radialGradient>
<filter id="softGlow" x="-80%" y="-80%" width="260%" height="260%"><feGaussianBlur stdDeviation="16" result="blur"/><feMerge><feMergeNode in="blur"/><feMergeNode in="SourceGraphic"/></feMerge></filter>
<filter id="wideGlow" x="-120%" y="-120%" width="340%" height="340%"><feGaussianBlur stdDeviation="34" result="blur"/><feMerge><feMergeNode in="blur"/><feMergeNode in="SourceGraphic"/></feMerge></filter>
</defs>
<ellipse cx="960" cy="743.4" rx="287.3" ry="207.6" fill="none" stroke="#70d6ff" stroke-width="4" opacity="0.197" filter="url(#softGlow)"/>
<path d="M820 740 C770 700 770 825 825 795" stroke="#c4f4ff" stroke-width="10" opacity="0.296" fill="none" stroke-linecap="round" filter="url(#softGlow)"/>
<path d="M1098 724 C1162 686 1164 822 1098 794" stroke="#c4f4ff" stroke-width="10" opacity="0.184" fill="none" stroke-linecap="round" filter="url(#softGlow)"/>
<circle cx="1110.9" cy="630.2" r="4.0" fill="#c8f7ff" opacity="0.147" filter="url(#softGlow)"/>
<circle cx="1183.9" cy="593.3" r="5.0" fill="#c8f7ff" opacity="0.217" filter="url(#softGlow)"/>
<circle cx="1171.9" cy="688.4" r="6.0" fill="#c8f7ff" opacity="0.288" filter="url(#softGlow)"/>
<circle cx="1022.2" cy="804.2" r="7.0" fill="#c8f7ff" opacity="0.333" filter="url(#softGlow)"/>
<circle cx="894.6" cy="888.9" r="4.0" fill="#c8f7ff" opacity="0.335" filter="url(#softGlow)"/>
<circle cx="753.7" cy="939.5" r="5.0" fill="#c8f7ff" opacity="0.292" filter="url(#softGlow)"/>
<circle cx="770.0" cy="854.2" r="6.0" fill="#c8f7ff" opacity="0.222" filter="url(#softGlow)"/>
<circle cx="777.1" cy="744.4" r="7.0" fill="#c8f7ff" opacity="0.151" filter="url(#softGlow)"/>
<circle cx="877.6" cy="649.7" r="4.0" fill="#c8f7ff" opacity="0.106" filter="url(#softGlow)"/>
<circle cx="1017.0" cy="586.2" r="5.0" fill="#c8f7ff" opacity="0.106" filter="url(#softGlow)"/>

<g transform="translate(318.4 192.1)" opacity="0.357" filter="url(#softGlow)">
  <ellipse cx="0" cy="0" rx="92" ry="23" fill="#85f7ff" opacity="0.92"/>
  <ellipse cx="0" cy="-18" rx="46" ry="30" fill="#b9ffcc" opacity="0.76"/>
  <circle cx="-46" cy="4" r="8" fill="#f7ff82"/><circle cx="0" cy="7" r="8" fill="#ff7ddb"/><circle cx="46" cy="4" r="8" fill="#f7ff82"/>
  <path d="M-42 18 L38 18 L118 180 L-118 180 Z" fill="#7dffb3" opacity="0.043"/>
</g>






<circle cx="923" cy="524" r="3.5" fill="#bff7ff" opacity="0.130" filter="url(#softGlow)"/>
<circle cx="1080" cy="1004" r="1.8" fill="#bff7ff" opacity="0.145" filter="url(#softGlow)"/>
<circle cx="1393" cy="141" r="3.9" fill="#bff7ff" opacity="0.133" filter="url(#softGlow)"/>
<circle cx="1787" cy="151" r="2.4" fill="#bff7ff" opacity="0.121" filter="url(#softGlow)"/>
<circle cx="678" cy="472" r="3.0" fill="#bff7ff" opacity="0.073" filter="url(#softGlow)"/>
<circle cx="1678" cy="831" r="3.4" fill="#bff7ff" opacity="0.104" filter="url(#softGlow)"/>
<circle cx="1109" cy="783" r="2.8" fill="#bff7ff" opacity="0.151" filter="url(#softGlow)"/>
<circle cx="1436" cy="616" r="1.7" fill="#bff7ff" opacity="0.041" filter="url(#softGlow)"/>
<circle cx="1466" cy="222" r="3.8" fill="#bff7ff" opacity="0.040" filter="url(#softGlow)"/>
<circle cx="995" cy="634" r="2.2" fill="#bff7ff" opacity="0.056" filter="url(#softGlow)"/>
<circle cx="1227" cy="835" r="4.0" fill="#bff7ff" opacity="0.041" filter="url(#softGlow)"/>
<circle cx="1835" cy="688" r="3.7" fill="#bff7ff" opacity="0.099" filter="url(#softGlow)"/>
<circle cx="1772" cy="601" r="2.9" fill="#bff7ff" opacity="0.075" filter="url(#softGlow)"/>
<circle cx="486" cy="148" r="2.1" fill="#bff7ff" opacity="0.090" filter="url(#softGlow)"/>
</svg>