<svg xmlns="http://www.w3.org/2000/svg" width="1920" height="1080" viewBox="0 0 1920 1080">
<defs>
<radialGradient id="spaceGlow" cx="52%" cy="56%" r="54%"><stop offset="0%" stop-color="#132a42"/><stop offset="38%" stop-color="#111630"/><stop offset="100%" stop-color="#030712"/></radialGradient>
<radialGradient id="robotBody" cx="40%" cy="24%" r="85%"><stop offset="0%" stop-color="#ffffff"/><stop offset="52%" stop-color="#dce9ff"/><stop offset="100%" stop-color="#93a6bd"/></radialGradient>
<radialGradient id="blueCore" cx="40%" cy="30%" r="70%"><stop offset="0%" stop-color="#8df4ff"/><stop offset="45%" stop-color="#4895ff"/><stop offset="100%" stop-color="#1a47ff"/></radialGradient>
<filter id="softGlow" x="-80%" y="-80%" width="260%" height="260%"><feGaussianBlur stdDeviation="16" result="blur"/><feMerge><feMergeNode in="blur"/><feMergeNode in="SourceGraphic"/></feMerge></filter>
<filter id="wideGlow" x="-120%" y="-120%" width="340%" height="340%"><feGaussianBlur stdDeviation="34" result="blur"/><feMerge><feMergeNode in="blur"/><feMergeNode in="SourceGraphic"/></feMerge></filter>
</defs>
<ellipse cx="960" cy="743.9" rx="287.9" ry="208.0" fill="none" stroke="#70d6ff" stroke-width="4" opacity="0.200" filter="url(#softGlow)"/>
<path d="M820 740 C770 700 770 825 825 795" stroke="#c4f4ff" stroke-width="10" opacity="0.299" fill="none" stroke-linecap="round" filter="url(#softGlow)"/>
<path d="M1098 724 C1162 686 1164 822 1098 794" stroke="#c4f4ff" stroke-width="10" opacity="0.181" fill="none" stroke-linecap="round" filter="url(#softGlow)"/>
<circle cx="1117.2" cy="625.9" r="4.0" fill="#c8f7ff" opacity="0.153" filter="url(#softGlow)"/>
<circle cx="1183.9" cy="597.1" r="5.0" fill="#c8f7ff" opacity="0.224" filter="url(#softGlow)"/>
<circle cx="1163.2" cy="697.4" r="6.0" fill="#c8f7ff" opacity="0.294" filter="url(#softGlow)"/>
<circle cx="1011.9" cy="815.9" r="7.0" fill="#c8f7ff" opacity="0.335" filter="url(#softGlow)"/>
<circle cx="882.5" cy="894.3" r="4.0" fill="#c8f7ff" opacity="0.333" filter="url(#softGlow)"/>
<circle cx="745.3" cy="937.0" r="5.0" fill="#c8f7ff" opacity="0.287" filter="url(#softGlow)"/>
<circle cx="770.2" cy="845.9" r="6.0" fill="#c8f7ff" opacity="0.215" filter="url(#softGlow)"/>
<circle cx="784.7" cy="732.4" r="7.0" fill="#c8f7ff" opacity="0.145" filter="url(#softGlow)"/>
<circle cx="891.6" cy="643.4" r="4.0" fill="#c8f7ff" opacity="0.104" filter="url(#softGlow)"/>
<circle cx="1027.2" cy="587.3" r="5.0" fill="#c8f7ff" opacity="0.108" filter="url(#softGlow)"/>

<g transform="translate(311.1 196.8)" opacity="0.334" filter="url(#softGlow)">
  <ellipse cx="0" cy="0" rx="92" ry="23" fill="#85f7ff" opacity="0.92"/>
  <ellipse cx="0" cy="-18" rx="46" ry="30" fill="#b9ffcc" opacity="0.76"/>
  <circle cx="-46" cy="4" r="8" fill="#f7ff82"/><circle cx="0" cy="7" r="8" fill="#ff7ddb"/><circle cx="46" cy="4" r="8" fill="#f7ff82"/>
  <path d="M-42 18 L38 18 L118 180 L-118 180 Z" fill="#7dffb3" opacity="0.040"/>
</g>






<circle cx="923" cy="524" r="3.5" fill="#bff7ff" opacity="0.124" filter="url(#softGlow)"/>
<circle cx="1080" cy="1004" r="1.8" fill="#bff7ff" opacity="0.138" filter="url(#softGlow)"/>
<circle cx="1393" cy="141" r="3.9" fill="#bff7ff" opacity="0.126" filter="url(#softGlow)"/>
<circle cx="1787" cy="151" r="2.4" fill="#bff7ff" opacity="0.116" filter="url(#softGlow)"/>
<circle cx="678" cy="472" r="3.0" fill="#bff7ff" opacity="0.069" filter="url(#softGlow)"/>
<circle cx="1678" cy="831" r="3.4" fill="#bff7ff" opacity="0.099" filter="url(#softGlow)"/>
<circle cx="1109" cy="783" r="2.8" fill="#bff7ff" opacity="0.144" filter="url(#softGlow)"/>
<circle cx="1436" cy="616" r="1.7" fill="#bff7ff" opacity="0.039" filter="url(#softGlow)"/>
<circle cx="1466" cy="222" r="3.8" fill="#bff7ff" opacity="0.038" filter="url(#softGlow)"/>
<circle cx="995" cy="634" r="2.2" fill="#bff7ff" opacity="0.053" filter="url(#softGlow)"/>
<circle cx="1227" cy="835" r="4.0" fill="#bff7ff" opacity="0.039" filter="url(#softGlow)"/>
<circle cx="1835" cy="688" r="3.7" fill="#bff7ff" opacity="0.094" filter="url(#softGlow)"/>
<circle cx="1772" cy="601" r="2.9" fill="#bff7ff" opacity="0.071" filter="url(#softGlow)"/>
<circle cx="486" cy="148" r="2.1" fill="#bff7ff" opacity="0.086" filter="url(#softGlow)"/>
</svg>