<svg xmlns="http://www.w3.org/2000/svg" width="1920" height="1080" viewBox="0 0 1920 1080">
<defs>
<radialGradient id="spaceGlow" cx="52%" cy="56%" r="54%"><stop offset="0%" stop-color="#132a42"/><stop offset="38%" stop-color="#111630"/><stop offset="100%" stop-color="#030712"/></radialGradient>
<radialGradient id="robotBody" cx="40%" cy="24%" r="85%"><stop offset="0%" stop-color="#ffffff"/><stop offset="52%" stop-color="#dce9ff"/><stop offset="100%" stop-color="#93a6bd"/></radialGradient>
<radialGradient id="blueCore" cx="40%" cy="30%" r="70%"><stop offset="0%" stop-color="#8df4ff"/><stop offset="45%" stop-color="#4895ff"/><stop offset="100%" stop-color="#1a47ff"/></radialGradient>
<filter id="softGlow" x="-80%" y="-80%" width="260%" height="260%"><feGaussianBlur stdDeviation="16" result="blur"/><feMerge><feMergeNode in="blur"/><feMergeNode in="SourceGraphic"/></feMerge></filter>
<filter id="wideGlow" x="-120%" y="-120%" width="340%" height="340%"><feGaussianBlur stdDeviation="34" result="blur"/><feMerge><feMergeNode in="blur"/><feMergeNode in="SourceGraphic"/></feMerge></filter>
</defs>
<ellipse cx="960" cy="745.9" rx="286.4" ry="207.1" fill="none" stroke="#70d6ff" stroke-width="4" opacity="0.194" filter="url(#softGlow)"/>
<path d="M820 740 C770 700 770 825 825 795" stroke="#c4f4ff" stroke-width="10" opacity="0.289" fill="none" stroke-linecap="round" filter="url(#softGlow)"/>
<path d="M1098 724 C1162 686 1164 822 1098 794" stroke="#c4f4ff" stroke-width="10" opacity="0.191" fill="none" stroke-linecap="round" filter="url(#softGlow)"/>
<circle cx="1133.0" cy="616.9" r="4.0" fill="#c8f7ff" opacity="0.170" filter="url(#softGlow)"/>
<circle cx="1179.4" cy="613.1" r="5.0" fill="#c8f7ff" opacity="0.244" filter="url(#softGlow)"/>
<circle cx="1133.4" cy="726.0" r="6.0" fill="#c8f7ff" opacity="0.309" filter="url(#softGlow)"/>
<circle cx="980.3" cy="849.3" r="7.0" fill="#c8f7ff" opacity="0.339" filter="url(#softGlow)"/>
<circle cx="848.1" cy="906.6" r="4.0" fill="#c8f7ff" opacity="0.324" filter="url(#softGlow)"/>
<circle cx="724.2" cy="924.9" r="5.0" fill="#c8f7ff" opacity="0.269" filter="url(#softGlow)"/>
<circle cx="774.3" cy="818.7" r="6.0" fill="#c8f7ff" opacity="0.195" filter="url(#softGlow)"/>
<circle cx="810.9" cy="697.6" r="7.0" fill="#c8f7ff" opacity="0.130" filter="url(#softGlow)"/>
<circle cx="934.6" cy="627.8" r="4.0" fill="#c8f7ff" opacity="0.101" filter="url(#softGlow)"/>
<circle cx="1056.3" cy="595.2" r="5.0" fill="#c8f7ff" opacity="0.117" filter="url(#softGlow)"/>

<g transform="translate(292.1 211.8)" opacity="0.265" filter="url(#softGlow)">
  <ellipse cx="0" cy="0" rx="92" ry="23" fill="#85f7ff" opacity="0.92"/>
  <ellipse cx="0" cy="-18" rx="46" ry="30" fill="#b9ffcc" opacity="0.76"/>
  <circle cx="-46" cy="4" r="8" fill="#f7ff82"/><circle cx="0" cy="7" r="8" fill="#ff7ddb"/><circle cx="46" cy="4" r="8" fill="#f7ff82"/>
  <path d="M-42 18 L38 18 L118 180 L-118 180 Z" fill="#7dffb3" opacity="0.032"/>
</g>






<circle cx="1604" cy="248" r="2.6" fill="#bff7ff" opacity="0.041" filter="url(#softGlow)"/>
<circle cx="1017" cy="339" r="3.3" fill="#bff7ff" opacity="0.085" filter="url(#softGlow)"/>
<circle cx="534" cy="479" r="2.0" fill="#bff7ff" opacity="0.113" filter="url(#softGlow)"/>
<circle cx="1457" cy="604" r="2.6" fill="#bff7ff" opacity="0.105" filter="url(#softGlow)"/>
<circle cx="572" cy="595" r="3.1" fill="#bff7ff" opacity="0.049" filter="url(#softGlow)"/>
<circle cx="1284" cy="265" r="2.4" fill="#bff7ff" opacity="0.051" filter="url(#softGlow)"/>
<circle cx="1193" cy="852" r="2.5" fill="#bff7ff" opacity="0.094" filter="url(#softGlow)"/>
<circle cx="1369" cy="914" r="2.9" fill="#bff7ff" opacity="0.086" filter="url(#softGlow)"/>
<circle cx="1111" cy="265" r="2.0" fill="#bff7ff" opacity="0.073" filter="url(#softGlow)"/>
<circle cx="1813" cy="850" r="1.6" fill="#bff7ff" opacity="0.075" filter="url(#softGlow)"/>
<circle cx="1213" cy="313" r="2.7" fill="#bff7ff" opacity="0.119" filter="url(#softGlow)"/>
<circle cx="1817" cy="294" r="3.5" fill="#bff7ff" opacity="0.070" filter="url(#softGlow)"/>
<circle cx="757" cy="578" r="2.4" fill="#bff7ff" opacity="0.087" filter="url(#softGlow)"/>
<circle cx="375" cy="853" r="1.7" fill="#bff7ff" opacity="0.043" filter="url(#softGlow)"/>
</svg>