<svg xmlns="http://www.w3.org/2000/svg" width="1920" height="1080" viewBox="0 0 1920 1080">
<defs>
<radialGradient id="spaceGlow" cx="52%" cy="56%" r="54%"><stop offset="0%" stop-color="#132a42"/><stop offset="38%" stop-color="#111630"/><stop offset="100%" stop-color="#030712"/></radialGradient>
<radialGradient id="robotBody" cx="40%" cy="24%" r="85%"><stop offset="0%" stop-color="#ffffff"/><stop offset="52%" stop-color="#dce9ff"/><stop offset="100%" stop-color="#93a6bd"/></radialGradient>
<radialGradient id="blueCore" cx="40%" cy="30%" r="70%"><stop offset="0%" stop-color="#8df4ff"/><stop offset="45%" stop-color="#4895ff"/><stop offset="100%" stop-color="#1a47ff"/></radialGradient>
<filter id="softGlow" x="-80%" y="-80%" width="260%" height="260%"><feGaussianBlur stdDeviation="16" result="blur"/><feMerge><feMergeNode in="blur"/><feMergeNode in="SourceGraphic"/></feMerge></filter>
<filter id="wideGlow" x="-120%" y="-120%" width="340%" height="340%"><feGaussianBlur stdDeviation="34" result="blur"/><feMerge><feMergeNode in="blur"/><feMergeNode in="SourceGraphic"/></feMerge></filter>
</defs>
<ellipse cx="960" cy="746.8" rx="284.8" ry="206.2" fill="none" stroke="#70d6ff" stroke-width="4" opacity="0.188" filter="url(#softGlow)"/>
<path d="M820 740 C770 700 770 825 825 795" stroke="#c4f4ff" stroke-width="10" opacity="0.279" fill="none" stroke-linecap="round" filter="url(#softGlow)"/>
<path d="M1098 724 C1162 686 1164 822 1098 794" stroke="#c4f4ff" stroke-width="10" opacity="0.201" fill="none" stroke-linecap="round" filter="url(#softGlow)"/>
<circle cx="1137.2" cy="615.2" r="4.0" fill="#c8f7ff" opacity="0.177" filter="url(#softGlow)"/>
<circle cx="1176.4" cy="619.8" r="5.0" fill="#c8f7ff" opacity="0.251" filter="url(#softGlow)"/>
<circle cx="1122.3" cy="736.0" r="6.0" fill="#c8f7ff" opacity="0.313" filter="url(#softGlow)"/>
<circle cx="969.5" cy="859.8" r="7.0" fill="#c8f7ff" opacity="0.340" filter="url(#softGlow)"/>
<circle cx="837.3" cy="909.5" r="4.0" fill="#c8f7ff" opacity="0.320" filter="url(#softGlow)"/>
<circle cx="718.6" cy="919.4" r="5.0" fill="#c8f7ff" opacity="0.262" filter="url(#softGlow)"/>
<circle cx="776.8" cy="809.1" r="6.0" fill="#c8f7ff" opacity="0.188" filter="url(#softGlow)"/>
<circle cx="820.6" cy="686.5" r="7.0" fill="#c8f7ff" opacity="0.126" filter="url(#softGlow)"/>
<circle cx="949.2" cy="623.8" r="4.0" fill="#c8f7ff" opacity="0.100" filter="url(#softGlow)"/>
<circle cx="1065.4" cy="599.5" r="5.0" fill="#c8f7ff" opacity="0.120" filter="url(#softGlow)"/>

<g transform="translate(286.7 216.2)" opacity="0.241" filter="url(#softGlow)">
  <ellipse cx="0" cy="0" rx="92" ry="23" fill="#85f7ff" opacity="0.92"/>
  <ellipse cx="0" cy="-18" rx="46" ry="30" fill="#b9ffcc" opacity="0.76"/>
  <circle cx="-46" cy="4" r="8" fill="#f7ff82"/><circle cx="0" cy="7" r="8" fill="#ff7ddb"/><circle cx="46" cy="4" r="8" fill="#f7ff82"/>
  <path d="M-42 18 L38 18 L118 180 L-118 180 Z" fill="#7dffb3" opacity="0.029"/>
</g>






<circle cx="1604" cy="248" r="2.6" fill="#bff7ff" opacity="0.039" filter="url(#softGlow)"/>
<circle cx="1017" cy="339" r="3.3" fill="#bff7ff" opacity="0.080" filter="url(#softGlow)"/>
<circle cx="534" cy="479" r="2.0" fill="#bff7ff" opacity="0.106" filter="url(#softGlow)"/>
<circle cx="1457" cy="604" r="2.6" fill="#bff7ff" opacity="0.099" filter="url(#softGlow)"/>
<circle cx="572" cy="595" r="3.1" fill="#bff7ff" opacity="0.046" filter="url(#softGlow)"/>
<circle cx="1284" cy="265" r="2.4" fill="#bff7ff" opacity="0.048" filter="url(#softGlow)"/>
<circle cx="1193" cy="852" r="2.5" fill="#bff7ff" opacity="0.088" filter="url(#softGlow)"/>
<circle cx="1369" cy="914" r="2.9" fill="#bff7ff" opacity="0.081" filter="url(#softGlow)"/>
<circle cx="1111" cy="265" r="2.0" fill="#bff7ff" opacity="0.068" filter="url(#softGlow)"/>
<circle cx="1813" cy="850" r="1.6" fill="#bff7ff" opacity="0.071" filter="url(#softGlow)"/>
<circle cx="1213" cy="313" r="2.7" fill="#bff7ff" opacity="0.111" filter="url(#softGlow)"/>
<circle cx="1817" cy="294" r="3.5" fill="#bff7ff" opacity="0.066" filter="url(#softGlow)"/>
<circle cx="757" cy="578" r="2.4" fill="#bff7ff" opacity="0.082" filter="url(#softGlow)"/>
<circle cx="375" cy="853" r="1.7" fill="#bff7ff" opacity="0.040" filter="url(#softGlow)"/>
</svg>