<svg xmlns="http://www.w3.org/2000/svg" width="1920" height="1080" viewBox="0 0 1920 1080">
<defs>
<radialGradient id="spaceGlow" cx="52%" cy="56%" r="54%"><stop offset="0%" stop-color="#132a42"/><stop offset="38%" stop-color="#111630"/><stop offset="100%" stop-color="#030712"/></radialGradient>
<radialGradient id="robotBody" cx="40%" cy="24%" r="85%"><stop offset="0%" stop-color="#ffffff"/><stop offset="52%" stop-color="#dce9ff"/><stop offset="100%" stop-color="#93a6bd"/></radialGradient>
<radialGradient id="blueCore" cx="40%" cy="30%" r="70%"><stop offset="0%" stop-color="#8df4ff"/><stop offset="45%" stop-color="#4895ff"/><stop offset="100%" stop-color="#1a47ff"/></radialGradient>
<filter id="softGlow" x="-80%" y="-80%" width="260%" height="260%"><feGaussianBlur stdDeviation="16" result="blur"/><feMerge><feMergeNode in="blur"/><feMergeNode in="SourceGraphic"/></feMerge></filter>
<filter id="wideGlow" x="-120%" y="-120%" width="340%" height="340%"><feGaussianBlur stdDeviation="34" result="blur"/><feMerge><feMergeNode in="blur"/><feMergeNode in="SourceGraphic"/></feMerge></filter>
</defs>
<ellipse cx="960" cy="747.7" rx="283.0" ry="205.2" fill="none" stroke="#70d6ff" stroke-width="4" opacity="0.180" filter="url(#softGlow)"/>
<path d="M820 740 C770 700 770 825 825 795" stroke="#c4f4ff" stroke-width="10" opacity="0.266" fill="none" stroke-linecap="round" filter="url(#softGlow)"/>
<path d="M1098 724 C1162 686 1164 822 1098 794" stroke="#c4f4ff" stroke-width="10" opacity="0.214" fill="none" stroke-linecap="round" filter="url(#softGlow)"/>
<circle cx="1140.8" cy="614.3" r="4.0" fill="#c8f7ff" opacity="0.183" filter="url(#softGlow)"/>
<circle cx="1172.8" cy="627.3" r="5.0" fill="#c8f7ff" opacity="0.257" filter="url(#softGlow)"/>
<circle cx="1110.6" cy="746.1" r="6.0" fill="#c8f7ff" opacity="0.317" filter="url(#softGlow)"/>
<circle cx="958.8" cy="869.7" r="7.0" fill="#c8f7ff" opacity="0.340" filter="url(#softGlow)"/>
<circle cx="826.9" cy="911.6" r="4.0" fill="#c8f7ff" opacity="0.317" filter="url(#softGlow)"/>
<circle cx="713.9" cy="913.2" r="5.0" fill="#c8f7ff" opacity="0.256" filter="url(#softGlow)"/>
<circle cx="780.0" cy="799.3" r="6.0" fill="#c8f7ff" opacity="0.182" filter="url(#softGlow)"/>
<circle cx="830.7" cy="675.8" r="7.0" fill="#c8f7ff" opacity="0.122" filter="url(#softGlow)"/>
<circle cx="963.8" cy="620.5" r="4.0" fill="#c8f7ff" opacity="0.100" filter="url(#softGlow)"/>
<circle cx="1074.2" cy="604.5" r="5.0" fill="#c8f7ff" opacity="0.124" filter="url(#softGlow)"/>

<g transform="translate(281.7 220.0)" opacity="0.217" filter="url(#softGlow)">
  <ellipse cx="0" cy="0" rx="92" ry="23" fill="#85f7ff" opacity="0.92"/>
  <ellipse cx="0" cy="-18" rx="46" ry="30" fill="#b9ffcc" opacity="0.76"/>
  <circle cx="-46" cy="4" r="8" fill="#f7ff82"/><circle cx="0" cy="7" r="8" fill="#ff7ddb"/><circle cx="46" cy="4" r="8" fill="#f7ff82"/>
  <path d="M-42 18 L38 18 L118 180 L-118 180 Z" fill="#7dffb3" opacity="0.026"/>
</g>






<circle cx="1363" cy="753" r="2.4" fill="#bff7ff" opacity="0.076" filter="url(#softGlow)"/>
<circle cx="557" cy="894" r="2.3" fill="#bff7ff" opacity="0.057" filter="url(#softGlow)"/>
<circle cx="255" cy="30" r="4.0" fill="#bff7ff" opacity="0.037" filter="url(#softGlow)"/>
<circle cx="556" cy="110" r="2.2" fill="#bff7ff" opacity="0.075" filter="url(#softGlow)"/>
<circle cx="1458" cy="992" r="3.4" fill="#bff7ff" opacity="0.035" filter="url(#softGlow)"/>
<circle cx="1554" cy="633" r="3.7" fill="#bff7ff" opacity="0.048" filter="url(#softGlow)"/>
<circle cx="1203" cy="225" r="2.6" fill="#bff7ff" opacity="0.086" filter="url(#softGlow)"/>
<circle cx="1007" cy="228" r="3.7" fill="#bff7ff" opacity="0.056" filter="url(#softGlow)"/>
<circle cx="560" cy="321" r="1.6" fill="#bff7ff" opacity="0.043" filter="url(#softGlow)"/>
<circle cx="657" cy="313" r="3.5" fill="#bff7ff" opacity="0.044" filter="url(#softGlow)"/>
<circle cx="1343" cy="988" r="3.3" fill="#bff7ff" opacity="0.051" filter="url(#softGlow)"/>
<circle cx="141" cy="874" r="2.0" fill="#bff7ff" opacity="0.100" filter="url(#softGlow)"/>
<circle cx="1714" cy="691" r="2.8" fill="#bff7ff" opacity="0.091" filter="url(#softGlow)"/>
<circle cx="1677" cy="894" r="1.7" fill="#bff7ff" opacity="0.106" filter="url(#softGlow)"/>
</svg>