<svg xmlns="http://www.w3.org/2000/svg" width="1920" height="1080" viewBox="0 0 1920 1080">
<defs>
<radialGradient id="spaceGlow" cx="52%" cy="56%" r="54%"><stop offset="0%" stop-color="#132a42"/><stop offset="38%" stop-color="#111630"/><stop offset="100%" stop-color="#030712"/></radialGradient>
<radialGradient id="robotBody" cx="40%" cy="24%" r="85%"><stop offset="0%" stop-color="#ffffff"/><stop offset="52%" stop-color="#dce9ff"/><stop offset="100%" stop-color="#93a6bd"/></radialGradient>
<radialGradient id="blueCore" cx="40%" cy="30%" r="70%"><stop offset="0%" stop-color="#8df4ff"/><stop offset="45%" stop-color="#4895ff"/><stop offset="100%" stop-color="#1a47ff"/></radialGradient>
<filter id="softGlow" x="-80%" y="-80%" width="260%" height="260%"><feGaussianBlur stdDeviation="16" result="blur"/><feMerge><feMergeNode in="blur"/><feMergeNode in="SourceGraphic"/></feMerge></filter>
<filter id="wideGlow" x="-120%" y="-120%" width="340%" height="340%"><feGaussianBlur stdDeviation="34" result="blur"/><feMerge><feMergeNode in="blur"/><feMergeNode in="SourceGraphic"/></feMerge></filter>
</defs>
<ellipse cx="960" cy="749.6" rx="278.6" ry="202.8" fill="none" stroke="#70d6ff" stroke-width="4" opacity="0.163" filter="url(#softGlow)"/>
<path d="M820 740 C770 700 770 825 825 795" stroke="#c4f4ff" stroke-width="10" opacity="0.237" fill="none" stroke-linecap="round" filter="url(#softGlow)"/>
<path d="M1098 724 C1162 686 1164 822 1098 794" stroke="#c4f4ff" stroke-width="10" opacity="0.243" fill="none" stroke-linecap="round" filter="url(#softGlow)"/>
<circle cx="1146.2" cy="614.4" r="4.0" fill="#c8f7ff" opacity="0.196" filter="url(#softGlow)"/>
<circle cx="1163.6" cy="644.0" r="5.0" fill="#c8f7ff" opacity="0.270" filter="url(#softGlow)"/>
<circle cx="1086.0" cy="766.4" r="6.0" fill="#c8f7ff" opacity="0.325" filter="url(#softGlow)"/>
<circle cx="937.3" cy="888.2" r="7.0" fill="#c8f7ff" opacity="0.339" filter="url(#softGlow)"/>
<circle cx="807.3" cy="913.9" r="4.0" fill="#c8f7ff" opacity="0.308" filter="url(#softGlow)"/>
<circle cx="706.7" cy="898.6" r="5.0" fill="#c8f7ff" opacity="0.243" filter="url(#softGlow)"/>
<circle cx="788.0" cy="779.2" r="6.0" fill="#c8f7ff" opacity="0.169" filter="url(#softGlow)"/>
<circle cx="852.3" cy="655.6" r="7.0" fill="#c8f7ff" opacity="0.115" filter="url(#softGlow)"/>
<circle cx="993.0" cy="615.9" r="4.0" fill="#c8f7ff" opacity="0.101" filter="url(#softGlow)"/>
<circle cx="1090.6" cy="616.7" r="5.0" fill="#c8f7ff" opacity="0.133" filter="url(#softGlow)"/>

<g transform="translate(273.3 225.1)" opacity="0.170" filter="url(#softGlow)">
  <ellipse cx="0" cy="0" rx="92" ry="23" fill="#85f7ff" opacity="0.92"/>
  <ellipse cx="0" cy="-18" rx="46" ry="30" fill="#b9ffcc" opacity="0.76"/>
  <circle cx="-46" cy="4" r="8" fill="#f7ff82"/><circle cx="0" cy="7" r="8" fill="#ff7ddb"/><circle cx="46" cy="4" r="8" fill="#f7ff82"/>
  <path d="M-42 18 L38 18 L118 180 L-118 180 Z" fill="#7dffb3" opacity="0.020"/>
</g>






<circle cx="1363" cy="753" r="2.4" fill="#bff7ff" opacity="0.065" filter="url(#softGlow)"/>
<circle cx="557" cy="894" r="2.3" fill="#bff7ff" opacity="0.049" filter="url(#softGlow)"/>
<circle cx="255" cy="30" r="4.0" fill="#bff7ff" opacity="0.032" filter="url(#softGlow)"/>
<circle cx="556" cy="110" r="2.2" fill="#bff7ff" opacity="0.064" filter="url(#softGlow)"/>
<circle cx="1458" cy="992" r="3.4" fill="#bff7ff" opacity="0.030" filter="url(#softGlow)"/>
<circle cx="1554" cy="633" r="3.7" fill="#bff7ff" opacity="0.041" filter="url(#softGlow)"/>
<circle cx="1203" cy="225" r="2.6" fill="#bff7ff" opacity="0.073" filter="url(#softGlow)"/>
<circle cx="1007" cy="228" r="3.7" fill="#bff7ff" opacity="0.048" filter="url(#softGlow)"/>
<circle cx="560" cy="321" r="1.6" fill="#bff7ff" opacity="0.037" filter="url(#softGlow)"/>
<circle cx="657" cy="313" r="3.5" fill="#bff7ff" opacity="0.038" filter="url(#softGlow)"/>
<circle cx="1343" cy="988" r="3.3" fill="#bff7ff" opacity="0.044" filter="url(#softGlow)"/>
<circle cx="141" cy="874" r="2.0" fill="#bff7ff" opacity="0.085" filter="url(#softGlow)"/>
<circle cx="1714" cy="691" r="2.8" fill="#bff7ff" opacity="0.078" filter="url(#softGlow)"/>
<circle cx="1677" cy="894" r="1.7" fill="#bff7ff" opacity="0.091" filter="url(#softGlow)"/>
</svg>