<svg xmlns="http://www.w3.org/2000/svg" width="1920" height="1080" viewBox="0 0 1920 1080">
<defs>
<radialGradient id="spaceGlow" cx="52%" cy="56%" r="54%"><stop offset="0%" stop-color="#132a42"/><stop offset="38%" stop-color="#111630"/><stop offset="100%" stop-color="#030712"/></radialGradient>
<radialGradient id="robotBody" cx="40%" cy="24%" r="85%"><stop offset="0%" stop-color="#ffffff"/><stop offset="52%" stop-color="#dce9ff"/><stop offset="100%" stop-color="#93a6bd"/></radialGradient>
<radialGradient id="blueCore" cx="40%" cy="30%" r="70%"><stop offset="0%" stop-color="#8df4ff"/><stop offset="45%" stop-color="#4895ff"/><stop offset="100%" stop-color="#1a47ff"/></radialGradient>
<filter id="softGlow" x="-80%" y="-80%" width="260%" height="260%"><feGaussianBlur stdDeviation="16" result="blur"/><feMerge><feMergeNode in="blur"/><feMergeNode in="SourceGraphic"/></feMerge></filter>
<filter id="wideGlow" x="-120%" y="-120%" width="340%" height="340%"><feGaussianBlur stdDeviation="34" result="blur"/><feMerge><feMergeNode in="blur"/><feMergeNode in="SourceGraphic"/></feMerge></filter>
</defs>
<ellipse cx="960" cy="751.8" rx="274.3" ry="200.4" fill="none" stroke="#70d6ff" stroke-width="4" opacity="0.147" filter="url(#softGlow)"/>
<path d="M820 740 C770 700 770 825 825 795" stroke="#c4f4ff" stroke-width="10" opacity="0.209" fill="none" stroke-linecap="round" filter="url(#softGlow)"/>
<path d="M1098 724 C1162 686 1164 822 1098 794" stroke="#c4f4ff" stroke-width="10" opacity="0.271" fill="none" stroke-linecap="round" filter="url(#softGlow)"/>
<circle cx="1149.3" cy="617.3" r="4.0" fill="#c8f7ff" opacity="0.210" filter="url(#softGlow)"/>
<circle cx="1151.7" cy="662.9" r="5.0" fill="#c8f7ff" opacity="0.282" filter="url(#softGlow)"/>
<circle cx="1059.7" cy="786.7" r="6.0" fill="#c8f7ff" opacity="0.331" filter="url(#softGlow)"/>
<circle cx="916.1" cy="904.3" r="7.0" fill="#c8f7ff" opacity="0.337" filter="url(#softGlow)"/>
<circle cx="789.8" cy="913.3" r="4.0" fill="#c8f7ff" opacity="0.298" filter="url(#softGlow)"/>
<circle cx="702.8" cy="881.6" r="5.0" fill="#c8f7ff" opacity="0.229" filter="url(#softGlow)"/>
<circle cx="798.3" cy="758.8" r="6.0" fill="#c8f7ff" opacity="0.157" filter="url(#softGlow)"/>
<circle cx="875.2" cy="637.5" r="7.0" fill="#c8f7ff" opacity="0.109" filter="url(#softGlow)"/>
<circle cx="1021.7" cy="614.0" r="4.0" fill="#c8f7ff" opacity="0.103" filter="url(#softGlow)"/>
<circle cx="1105.4" cy="631.6" r="5.0" fill="#c8f7ff" opacity="0.143" filter="url(#softGlow)"/>

<g transform="translate(266.8 226.9)" opacity="0.121" filter="url(#softGlow)">
  <ellipse cx="0" cy="0" rx="92" ry="23" fill="#85f7ff" opacity="0.92"/>
  <ellipse cx="0" cy="-18" rx="46" ry="30" fill="#b9ffcc" opacity="0.76"/>
  <circle cx="-46" cy="4" r="8" fill="#f7ff82"/><circle cx="0" cy="7" r="8" fill="#ff7ddb"/><circle cx="46" cy="4" r="8" fill="#f7ff82"/>
  <path d="M-42 18 L38 18 L118 180 L-118 180 Z" fill="#7dffb3" opacity="0.015"/>
</g>






<circle cx="136" cy="705" r="2.2" fill="#bff7ff" opacity="0.034" filter="url(#softGlow)"/>
<circle cx="330" cy="332" r="1.6" fill="#bff7ff" opacity="0.076" filter="url(#softGlow)"/>
<circle cx="1663" cy="337" r="4.0" fill="#bff7ff" opacity="0.037" filter="url(#softGlow)"/>
<circle cx="269" cy="241" r="1.6" fill="#bff7ff" opacity="0.076" filter="url(#softGlow)"/>
<circle cx="791" cy="899" r="3.0" fill="#bff7ff" opacity="0.036" filter="url(#softGlow)"/>
<circle cx="516" cy="948" r="2.3" fill="#bff7ff" opacity="0.050" filter="url(#softGlow)"/>
<circle cx="1502" cy="506" r="2.9" fill="#bff7ff" opacity="0.069" filter="url(#softGlow)"/>
<circle cx="334" cy="276" r="2.2" fill="#bff7ff" opacity="0.043" filter="url(#softGlow)"/>
<circle cx="143" cy="479" r="1.6" fill="#bff7ff" opacity="0.024" filter="url(#softGlow)"/>
<circle cx="1520" cy="913" r="2.5" fill="#bff7ff" opacity="0.015" filter="url(#softGlow)"/>
<circle cx="1199" cy="370" r="3.3" fill="#bff7ff" opacity="0.060" filter="url(#softGlow)"/>
<circle cx="511" cy="64" r="2.0" fill="#bff7ff" opacity="0.077" filter="url(#softGlow)"/>
<circle cx="364" cy="533" r="1.6" fill="#bff7ff" opacity="0.077" filter="url(#softGlow)"/>
<circle cx="848" cy="39" r="2.8" fill="#bff7ff" opacity="0.041" filter="url(#softGlow)"/>
</svg>