<svg xmlns="http://www.w3.org/2000/svg" width="1920" height="1080" viewBox="0 0 1920 1080">
<defs>
<radialGradient id="spaceGlow" cx="52%" cy="56%" r="54%"><stop offset="0%" stop-color="#132a42"/><stop offset="38%" stop-color="#111630"/><stop offset="100%" stop-color="#030712"/></radialGradient>
<radialGradient id="robotBody" cx="40%" cy="24%" r="85%"><stop offset="0%" stop-color="#ffffff"/><stop offset="52%" stop-color="#dce9ff"/><stop offset="100%" stop-color="#93a6bd"/></radialGradient>
<radialGradient id="blueCore" cx="40%" cy="30%" r="70%"><stop offset="0%" stop-color="#8df4ff"/><stop offset="45%" stop-color="#4895ff"/><stop offset="100%" stop-color="#1a47ff"/></radialGradient>
<filter id="softGlow" x="-80%" y="-80%" width="260%" height="260%"><feGaussianBlur stdDeviation="16" result="blur"/><feMerge><feMergeNode in="blur"/><feMergeNode in="SourceGraphic"/></feMerge></filter>
<filter id="wideGlow" x="-120%" y="-120%" width="340%" height="340%"><feGaussianBlur stdDeviation="34" result="blur"/><feMerge><feMergeNode in="blur"/><feMergeNode in="SourceGraphic"/></feMerge></filter>
</defs>
<ellipse cx="960" cy="752.9" rx="272.6" ry="199.4" fill="none" stroke="#70d6ff" stroke-width="4" opacity="0.140" filter="url(#softGlow)"/>
<path d="M820 740 C770 700 770 825 825 795" stroke="#c4f4ff" stroke-width="10" opacity="0.197" fill="none" stroke-linecap="round" filter="url(#softGlow)"/>
<path d="M1098 724 C1162 686 1164 822 1098 794" stroke="#c4f4ff" stroke-width="10" opacity="0.283" fill="none" stroke-linecap="round" filter="url(#softGlow)"/>
<circle cx="1149.9" cy="619.8" r="4.0" fill="#c8f7ff" opacity="0.216" filter="url(#softGlow)"/>
<circle cx="1144.8" cy="673.1" r="5.0" fill="#c8f7ff" opacity="0.288" filter="url(#softGlow)"/>
<circle cx="1046.1" cy="796.7" r="6.0" fill="#c8f7ff" opacity="0.333" filter="url(#softGlow)"/>
<circle cx="905.7" cy="911.4" r="7.0" fill="#c8f7ff" opacity="0.335" filter="url(#softGlow)"/>
<circle cx="781.8" cy="912.1" r="4.0" fill="#c8f7ff" opacity="0.293" filter="url(#softGlow)"/>
<circle cx="702.1" cy="872.2" r="5.0" fill="#c8f7ff" opacity="0.223" filter="url(#softGlow)"/>
<circle cx="804.2" cy="748.7" r="6.0" fill="#c8f7ff" opacity="0.151" filter="url(#softGlow)"/>
<circle cx="887.0" cy="629.3" r="7.0" fill="#c8f7ff" opacity="0.107" filter="url(#softGlow)"/>
<circle cx="1035.8" cy="614.1" r="4.0" fill="#c8f7ff" opacity="0.105" filter="url(#softGlow)"/>
<circle cx="1112.1" cy="639.9" r="5.0" fill="#c8f7ff" opacity="0.148" filter="url(#softGlow)"/>

<g transform="translate(264.4 226.6)" opacity="0.097" filter="url(#softGlow)">
  <ellipse cx="0" cy="0" rx="92" ry="23" fill="#85f7ff" opacity="0.92"/>
  <ellipse cx="0" cy="-18" rx="46" ry="30" fill="#b9ffcc" opacity="0.76"/>
  <circle cx="-46" cy="4" r="8" fill="#f7ff82"/><circle cx="0" cy="7" r="8" fill="#ff7ddb"/><circle cx="46" cy="4" r="8" fill="#f7ff82"/>
  <path d="M-42 18 L38 18 L118 180 L-118 180 Z" fill="#7dffb3" opacity="0.012"/>
</g>






<circle cx="136" cy="705" r="2.2" fill="#bff7ff" opacity="0.031" filter="url(#softGlow)"/>
<circle cx="330" cy="332" r="1.6" fill="#bff7ff" opacity="0.069" filter="url(#softGlow)"/>
<circle cx="1663" cy="337" r="4.0" fill="#bff7ff" opacity="0.034" filter="url(#softGlow)"/>
<circle cx="269" cy="241" r="1.6" fill="#bff7ff" opacity="0.069" filter="url(#softGlow)"/>
<circle cx="791" cy="899" r="3.0" fill="#bff7ff" opacity="0.032" filter="url(#softGlow)"/>
<circle cx="516" cy="948" r="2.3" fill="#bff7ff" opacity="0.046" filter="url(#softGlow)"/>
<circle cx="1502" cy="506" r="2.9" fill="#bff7ff" opacity="0.062" filter="url(#softGlow)"/>
<circle cx="334" cy="276" r="2.2" fill="#bff7ff" opacity="0.039" filter="url(#softGlow)"/>
<circle cx="143" cy="479" r="1.6" fill="#bff7ff" opacity="0.022" filter="url(#softGlow)"/>
<circle cx="1520" cy="913" r="2.5" fill="#bff7ff" opacity="0.013" filter="url(#softGlow)"/>
<circle cx="1199" cy="370" r="3.3" fill="#bff7ff" opacity="0.055" filter="url(#softGlow)"/>
<circle cx="511" cy="64" r="2.0" fill="#bff7ff" opacity="0.070" filter="url(#softGlow)"/>
<circle cx="364" cy="533" r="1.6" fill="#bff7ff" opacity="0.070" filter="url(#softGlow)"/>
<circle cx="848" cy="39" r="2.8" fill="#bff7ff" opacity="0.037" filter="url(#softGlow)"/>
</svg>