<svg xmlns="http://www.w3.org/2000/svg" width="1920" height="1080" viewBox="0 0 1920 1080">
<defs>
<radialGradient id="spaceGlow" cx="52%" cy="56%" r="54%"><stop offset="0%" stop-color="#132a42"/><stop offset="38%" stop-color="#111630"/><stop offset="100%" stop-color="#030712"/></radialGradient>
<radialGradient id="robotBody" cx="40%" cy="24%" r="85%"><stop offset="0%" stop-color="#ffffff"/><stop offset="52%" stop-color="#dce9ff"/><stop offset="100%" stop-color="#93a6bd"/></radialGradient>
<radialGradient id="blueCore" cx="40%" cy="30%" r="70%"><stop offset="0%" stop-color="#8df4ff"/><stop offset="45%" stop-color="#4895ff"/><stop offset="100%" stop-color="#1a47ff"/></radialGradient>
<filter id="softGlow" x="-80%" y="-80%" width="260%" height="260%"><feGaussianBlur stdDeviation="16" result="blur"/><feMerge><feMergeNode in="blur"/><feMergeNode in="SourceGraphic"/></feMerge></filter>
<filter id="wideGlow" x="-120%" y="-120%" width="340%" height="340%"><feGaussianBlur stdDeviation="34" result="blur"/><feMerge><feMergeNode in="blur"/><feMergeNode in="SourceGraphic"/></feMerge></filter>
</defs>
<ellipse cx="960" cy="757.7" rx="270.2" ry="198.1" fill="none" stroke="#70d6ff" stroke-width="4" opacity="0.131" filter="url(#softGlow)"/>
<path d="M820 740 C770 700 770 825 825 795" stroke="#c4f4ff" stroke-width="10" opacity="0.181" fill="none" stroke-linecap="round" filter="url(#softGlow)"/>
<path d="M1098 724 C1162 686 1164 822 1098 794" stroke="#c4f4ff" stroke-width="10" opacity="0.299" fill="none" stroke-linecap="round" filter="url(#softGlow)"/>
<circle cx="1146.3" cy="636.2" r="4.0" fill="#c8f7ff" opacity="0.244" filter="url(#softGlow)"/>
<circle cx="1111.6" cy="717.6" r="5.0" fill="#c8f7ff" opacity="0.308" filter="url(#softGlow)"/>
<circle cx="989.2" cy="834.9" r="6.0" fill="#c8f7ff" opacity="0.339" filter="url(#softGlow)"/>
<circle cx="866.2" cy="932.8" r="7.0" fill="#c8f7ff" opacity="0.324" filter="url(#softGlow)"/>
<circle cx="755.9" cy="900.1" r="4.0" fill="#c8f7ff" opacity="0.269" filter="url(#softGlow)"/>
<circle cx="707.4" cy="830.3" r="5.0" fill="#c8f7ff" opacity="0.195" filter="url(#softGlow)"/>
<circle cx="832.6" cy="709.1" r="6.0" fill="#c8f7ff" opacity="0.131" filter="url(#softGlow)"/>
<circle cx="936.5" cy="603.0" r="7.0" fill="#c8f7ff" opacity="0.101" filter="url(#softGlow)"/>
<circle cx="1089.3" cy="621.4" r="4.0" fill="#c8f7ff" opacity="0.116" filter="url(#softGlow)"/>
<circle cx="1133.8" cy="678.8" r="5.0" fill="#c8f7ff" opacity="0.172" filter="url(#softGlow)"/>

<g transform="translate(260.0 220.3)" opacity="0.000" filter="url(#softGlow)">
  <ellipse cx="0" cy="0" rx="92" ry="23" fill="#85f7ff" opacity="0.92"/>
  <ellipse cx="0" cy="-18" rx="46" ry="30" fill="#b9ffcc" opacity="0.76"/>
  <circle cx="-46" cy="4" r="8" fill="#f7ff82"/><circle cx="0" cy="7" r="8" fill="#ff7ddb"/><circle cx="46" cy="4" r="8" fill="#f7ff82"/>
  <path d="M-42 18 L38 18 L118 180 L-118 180 Z" fill="#7dffb3" opacity="0.000"/>
</g>






<circle cx="1246" cy="654" r="2.3" fill="#bff7ff" opacity="0.030" filter="url(#softGlow)"/>
<circle cx="1402" cy="792" r="2.3" fill="#bff7ff" opacity="0.022" filter="url(#softGlow)"/>
<circle cx="121" cy="631" r="1.7" fill="#bff7ff" opacity="0.045" filter="url(#softGlow)"/>
<circle cx="620" cy="547" r="1.6" fill="#bff7ff" opacity="0.028" filter="url(#softGlow)"/>
<circle cx="967" cy="778" r="2.0" fill="#bff7ff" opacity="0.009" filter="url(#softGlow)"/>
<circle cx="623" cy="578" r="2.5" fill="#bff7ff" opacity="0.029" filter="url(#softGlow)"/>
<circle cx="1303" cy="764" r="3.6" fill="#bff7ff" opacity="0.036" filter="url(#softGlow)"/>
<circle cx="549" cy="938" r="3.6" fill="#bff7ff" opacity="0.041" filter="url(#softGlow)"/>
<circle cx="1833" cy="395" r="3.1" fill="#bff7ff" opacity="0.012" filter="url(#softGlow)"/>
<circle cx="489" cy="1010" r="3.3" fill="#bff7ff" opacity="0.043" filter="url(#softGlow)"/>
<circle cx="110" cy="371" r="2.8" fill="#bff7ff" opacity="0.045" filter="url(#softGlow)"/>
<circle cx="236" cy="63" r="3.8" fill="#bff7ff" opacity="0.019" filter="url(#softGlow)"/>
<circle cx="799" cy="689" r="3.1" fill="#bff7ff" opacity="0.016" filter="url(#softGlow)"/>
<circle cx="572" cy="817" r="1.7" fill="#bff7ff" opacity="0.033" filter="url(#softGlow)"/>
</svg>