<svg xmlns="http://www.w3.org/2000/svg" width="1920" height="1080" viewBox="0 0 1920 1080">
<defs>
<radialGradient id="spaceGlow" cx="52%" cy="56%" r="54%"><stop offset="0%" stop-color="#132a42"/><stop offset="38%" stop-color="#111630"/><stop offset="100%" stop-color="#030712"/></radialGradient>
<radialGradient id="robotBody" cx="40%" cy="24%" r="85%"><stop offset="0%" stop-color="#ffffff"/><stop offset="52%" stop-color="#dce9ff"/><stop offset="100%" stop-color="#93a6bd"/></radialGradient>
<radialGradient id="blueCore" cx="40%" cy="30%" r="70%"><stop offset="0%" stop-color="#8df4ff"/><stop offset="45%" stop-color="#4895ff"/><stop offset="100%" stop-color="#1a47ff"/></radialGradient>
<filter id="softGlow" x="-80%" y="-80%" width="260%" height="260%"><feGaussianBlur stdDeviation="16" result="blur"/><feMerge><feMergeNode in="blur"/><feMergeNode in="SourceGraphic"/></feMerge></filter>
<filter id="wideGlow" x="-120%" y="-120%" width="340%" height="340%"><feGaussianBlur stdDeviation="34" result="blur"/><feMerge><feMergeNode in="blur"/><feMergeNode in="SourceGraphic"/></feMerge></filter>
</defs>
<ellipse cx="960" cy="760.3" rx="272.3" ry="199.3" fill="none" stroke="#70d6ff" stroke-width="4" opacity="0.139" filter="url(#softGlow)"/>
<path d="M820 740 C770 700 770 825 825 795" stroke="#c4f4ff" stroke-width="10" opacity="0.195" fill="none" stroke-linecap="round" filter="url(#softGlow)"/>
<path d="M1098 724 C1162 686 1164 822 1098 794" stroke="#c4f4ff" stroke-width="10" opacity="0.285" fill="none" stroke-linecap="round" filter="url(#softGlow)"/>
<circle cx="1140.9" cy="648.0" r="4.0" fill="#c8f7ff" opacity="0.257" filter="url(#softGlow)"/>
<circle cx="1092.0" cy="741.3" r="5.0" fill="#c8f7ff" opacity="0.317" filter="url(#softGlow)"/>
<circle cx="960.1" cy="852.1" r="6.0" fill="#c8f7ff" opacity="0.340" filter="url(#softGlow)"/>
<circle cx="848.1" cy="938.9" r="7.0" fill="#c8f7ff" opacity="0.317" filter="url(#softGlow)"/>
<circle cx="746.7" cy="890.3" r="4.0" fill="#c8f7ff" opacity="0.257" filter="url(#softGlow)"/>
<circle cx="715.0" cy="807.3" r="5.0" fill="#c8f7ff" opacity="0.182" filter="url(#softGlow)"/>
<circle cx="849.3" cy="690.7" r="6.0" fill="#c8f7ff" opacity="0.122" filter="url(#softGlow)"/>
<circle cx="961.8" cy="594.2" r="7.0" fill="#c8f7ff" opacity="0.100" filter="url(#softGlow)"/>
<circle cx="1113.7" cy="629.0" r="4.0" fill="#c8f7ff" opacity="0.124" filter="url(#softGlow)"/>
<circle cx="1141.4" cy="700.8" r="5.0" fill="#c8f7ff" opacity="0.184" filter="url(#softGlow)"/>







<circle cx="1246" cy="654" r="2.3" fill="#bff7ff" opacity="0.024" filter="url(#softGlow)"/>
<circle cx="1402" cy="792" r="2.3" fill="#bff7ff" opacity="0.017" filter="url(#softGlow)"/>
<circle cx="121" cy="631" r="1.7" fill="#bff7ff" opacity="0.036" filter="url(#softGlow)"/>
<circle cx="620" cy="547" r="1.6" fill="#bff7ff" opacity="0.023" filter="url(#softGlow)"/>
<circle cx="967" cy="778" r="2.0" fill="#bff7ff" opacity="0.007" filter="url(#softGlow)"/>
<circle cx="623" cy="578" r="2.5" fill="#bff7ff" opacity="0.023" filter="url(#softGlow)"/>
<circle cx="1303" cy="764" r="3.6" fill="#bff7ff" opacity="0.029" filter="url(#softGlow)"/>
<circle cx="549" cy="938" r="3.6" fill="#bff7ff" opacity="0.032" filter="url(#softGlow)"/>
<circle cx="1833" cy="395" r="3.1" fill="#bff7ff" opacity="0.010" filter="url(#softGlow)"/>
<circle cx="489" cy="1010" r="3.3" fill="#bff7ff" opacity="0.034" filter="url(#softGlow)"/>
<circle cx="110" cy="371" r="2.8" fill="#bff7ff" opacity="0.036" filter="url(#softGlow)"/>
<circle cx="236" cy="63" r="3.8" fill="#bff7ff" opacity="0.015" filter="url(#softGlow)"/>
<circle cx="799" cy="689" r="3.1" fill="#bff7ff" opacity="0.012" filter="url(#softGlow)"/>
<circle cx="572" cy="817" r="1.7" fill="#bff7ff" opacity="0.026" filter="url(#softGlow)"/>
</svg>