<svg xmlns="http://www.w3.org/2000/svg" width="1920" height="1080" viewBox="0 0 1920 1080">
<defs>
<radialGradient id="spaceGlow" cx="52%" cy="56%" r="54%"><stop offset="0%" stop-color="#132a42"/><stop offset="38%" stop-color="#111630"/><stop offset="100%" stop-color="#030712"/></radialGradient>
<radialGradient id="robotBody" cx="40%" cy="24%" r="85%"><stop offset="0%" stop-color="#ffffff"/><stop offset="52%" stop-color="#dce9ff"/><stop offset="100%" stop-color="#93a6bd"/></radialGradient>
<radialGradient id="blueCore" cx="40%" cy="30%" r="70%"><stop offset="0%" stop-color="#8df4ff"/><stop offset="45%" stop-color="#4895ff"/><stop offset="100%" stop-color="#1a47ff"/></radialGradient>
<filter id="softGlow" x="-80%" y="-80%" width="260%" height="260%"><feGaussianBlur stdDeviation="16" result="blur"/><feMerge><feMergeNode in="blur"/><feMergeNode in="SourceGraphic"/></feMerge></filter>
<filter id="wideGlow" x="-120%" y="-120%" width="340%" height="340%"><feGaussianBlur stdDeviation="34" result="blur"/><feMerge><feMergeNode in="blur"/><feMergeNode in="SourceGraphic"/></feMerge></filter>
</defs>
<ellipse cx="960" cy="766.4" rx="282.5" ry="205.0" fill="none" stroke="#70d6ff" stroke-width="4" opacity="0.179" filter="url(#softGlow)"/>
<path d="M820 740 C770 700 770 825 825 795" stroke="#c4f4ff" stroke-width="10" opacity="0.264" fill="none" stroke-linecap="round" filter="url(#softGlow)"/>
<path d="M1098 724 C1162 686 1164 822 1098 794" stroke="#c4f4ff" stroke-width="10" opacity="0.216" fill="none" stroke-linecap="round" filter="url(#softGlow)"/>
<circle cx="1117.5" cy="686.4" r="4.0" fill="#c8f7ff" opacity="0.287" filter="url(#softGlow)"/>
<circle cx="1036.2" cy="801.5" r="5.0" fill="#c8f7ff" opacity="0.333" filter="url(#softGlow)"/>
<circle cx="887.9" cy="887.6" r="6.0" fill="#c8f7ff" opacity="0.335" filter="url(#softGlow)"/>
<circle cx="809.6" cy="939.9" r="7.0" fill="#c8f7ff" opacity="0.293" filter="url(#softGlow)"/>
<circle cx="736.1" cy="856.1" r="4.0" fill="#c8f7ff" opacity="0.223" filter="url(#softGlow)"/>
<circle cx="747.4" cy="747.2" r="5.0" fill="#c8f7ff" opacity="0.152" filter="url(#softGlow)"/>
<circle cx="896.9" cy="651.3" r="6.0" fill="#c8f7ff" opacity="0.107" filter="url(#softGlow)"/>
<circle cx="1024.4" cy="586.1" r="7.0" fill="#c8f7ff" opacity="0.105" filter="url(#softGlow)"/>
<circle cx="1165.5" cy="658.6" r="4.0" fill="#c8f7ff" opacity="0.147" filter="url(#softGlow)"/>
<circle cx="1150.0" cy="759.9" r="5.0" fill="#c8f7ff" opacity="0.218" filter="url(#softGlow)"/>







<circle cx="137" cy="327" r="4.2" fill="#bff7ff" opacity="0.017" filter="url(#softGlow)"/>
<circle cx="1018" cy="854" r="3.3" fill="#bff7ff" opacity="0.018" filter="url(#softGlow)"/>
<circle cx="364" cy="701" r="2.1" fill="#bff7ff" opacity="0.011" filter="url(#softGlow)"/>
<circle cx="264" cy="143" r="2.1" fill="#bff7ff" opacity="0.010" filter="url(#softGlow)"/>
<circle cx="1132" cy="142" r="3.1" fill="#bff7ff" opacity="0.012" filter="url(#softGlow)"/>
<circle cx="709" cy="786" r="2.9" fill="#bff7ff" opacity="0.015" filter="url(#softGlow)"/>
<circle cx="710" cy="131" r="3.2" fill="#bff7ff" opacity="0.019" filter="url(#softGlow)"/>
<circle cx="1400" cy="657" r="1.8" fill="#bff7ff" opacity="0.020" filter="url(#softGlow)"/>
<circle cx="762" cy="204" r="3.3" fill="#bff7ff" opacity="0.011" filter="url(#softGlow)"/>
<circle cx="1342" cy="126" r="3.5" fill="#bff7ff" opacity="0.016" filter="url(#softGlow)"/>
<circle cx="864" cy="579" r="1.6" fill="#bff7ff" opacity="0.011" filter="url(#softGlow)"/>
<circle cx="125" cy="621" r="1.8" fill="#bff7ff" opacity="0.004" filter="url(#softGlow)"/>
<circle cx="523" cy="211" r="3.6" fill="#bff7ff" opacity="0.012" filter="url(#softGlow)"/>
<circle cx="1561" cy="397" r="2.0" fill="#bff7ff" opacity="0.008" filter="url(#softGlow)"/>
</svg>