<svg xmlns="http://www.w3.org/2000/svg" width="1920" height="1080" viewBox="0 0 1920 1080">
<defs>
<radialGradient id="spaceGlow" cx="52%" cy="56%" r="54%"><stop offset="0%" stop-color="#132a42"/><stop offset="38%" stop-color="#111630"/><stop offset="100%" stop-color="#030712"/></radialGradient>
<radialGradient id="robotBody" cx="40%" cy="24%" r="85%"><stop offset="0%" stop-color="#ffffff"/><stop offset="52%" stop-color="#dce9ff"/><stop offset="100%" stop-color="#93a6bd"/></radialGradient>
<radialGradient id="blueCore" cx="40%" cy="30%" r="70%"><stop offset="0%" stop-color="#8df4ff"/><stop offset="45%" stop-color="#4895ff"/><stop offset="100%" stop-color="#1a47ff"/></radialGradient>
<filter id="softGlow" x="-80%" y="-80%" width="260%" height="260%"><feGaussianBlur stdDeviation="16" result="blur"/><feMerge><feMergeNode in="blur"/><feMergeNode in="SourceGraphic"/></feMerge></filter>
<filter id="wideGlow" x="-120%" y="-120%" width="340%" height="340%"><feGaussianBlur stdDeviation="34" result="blur"/><feMerge><feMergeNode in="blur"/><feMergeNode in="SourceGraphic"/></feMerge></filter>
</defs>
<ellipse cx="960" cy="767.6" rx="284.5" ry="206.0" fill="none" stroke="#70d6ff" stroke-width="4" opacity="0.186" filter="url(#softGlow)"/>
<path d="M820 740 C770 700 770 825 825 795" stroke="#c4f4ff" stroke-width="10" opacity="0.276" fill="none" stroke-linecap="round" filter="url(#softGlow)"/>
<path d="M1098 724 C1162 686 1164 822 1098 794" stroke="#c4f4ff" stroke-width="10" opacity="0.204" fill="none" stroke-linecap="round" filter="url(#softGlow)"/>
<circle cx="1111.2" cy="695.3" r="4.0" fill="#c8f7ff" opacity="0.293" filter="url(#softGlow)"/>
<circle cx="1024.1" cy="813.2" r="5.0" fill="#c8f7ff" opacity="0.335" filter="url(#softGlow)"/>
<circle cx="874.0" cy="893.1" r="6.0" fill="#c8f7ff" opacity="0.333" filter="url(#softGlow)"/>
<circle cx="803.3" cy="937.7" r="7.0" fill="#c8f7ff" opacity="0.288" filter="url(#softGlow)"/>
<circle cx="736.1" cy="847.9" r="4.0" fill="#c8f7ff" opacity="0.217" filter="url(#softGlow)"/>
<circle cx="756.0" cy="735.2" r="5.0" fill="#c8f7ff" opacity="0.147" filter="url(#softGlow)"/>
<circle cx="907.2" cy="644.8" r="6.0" fill="#c8f7ff" opacity="0.105" filter="url(#softGlow)"/>
<circle cx="1036.4" cy="587.0" r="7.0" fill="#c8f7ff" opacity="0.107" filter="url(#softGlow)"/>
<circle cx="1174.0" cy="666.1" r="4.0" fill="#c8f7ff" opacity="0.153" filter="url(#softGlow)"/>
<circle cx="1149.9" cy="772.0" r="5.0" fill="#c8f7ff" opacity="0.224" filter="url(#softGlow)"/>







<circle cx="137" cy="327" r="4.2" fill="#bff7ff" opacity="0.016" filter="url(#softGlow)"/>
<circle cx="1018" cy="854" r="3.3" fill="#bff7ff" opacity="0.018" filter="url(#softGlow)"/>
<circle cx="364" cy="701" r="2.1" fill="#bff7ff" opacity="0.010" filter="url(#softGlow)"/>
<circle cx="264" cy="143" r="2.1" fill="#bff7ff" opacity="0.010" filter="url(#softGlow)"/>
<circle cx="1132" cy="142" r="3.1" fill="#bff7ff" opacity="0.011" filter="url(#softGlow)"/>
<circle cx="709" cy="786" r="2.9" fill="#bff7ff" opacity="0.015" filter="url(#softGlow)"/>
<circle cx="710" cy="131" r="3.2" fill="#bff7ff" opacity="0.018" filter="url(#softGlow)"/>
<circle cx="1400" cy="657" r="1.8" fill="#bff7ff" opacity="0.019" filter="url(#softGlow)"/>
<circle cx="762" cy="204" r="3.3" fill="#bff7ff" opacity="0.010" filter="url(#softGlow)"/>
<circle cx="1342" cy="126" r="3.5" fill="#bff7ff" opacity="0.016" filter="url(#softGlow)"/>
<circle cx="864" cy="579" r="1.6" fill="#bff7ff" opacity="0.010" filter="url(#softGlow)"/>
<circle cx="125" cy="621" r="1.8" fill="#bff7ff" opacity="0.004" filter="url(#softGlow)"/>
<circle cx="523" cy="211" r="3.6" fill="#bff7ff" opacity="0.011" filter="url(#softGlow)"/>
<circle cx="1561" cy="397" r="2.0" fill="#bff7ff" opacity="0.008" filter="url(#softGlow)"/>
</svg>