<svg xmlns="http://www.w3.org/2000/svg" width="1920" height="1080" viewBox="0 0 1920 1080">
<defs>
<radialGradient id="spaceGlow" cx="52%" cy="56%" r="54%"><stop offset="0%" stop-color="#132a42"/><stop offset="38%" stop-color="#111630"/><stop offset="100%" stop-color="#030712"/></radialGradient>
<radialGradient id="robotBody" cx="40%" cy="24%" r="85%"><stop offset="0%" stop-color="#ffffff"/><stop offset="52%" stop-color="#dce9ff"/><stop offset="100%" stop-color="#93a6bd"/></radialGradient>
<radialGradient id="blueCore" cx="40%" cy="30%" r="70%"><stop offset="0%" stop-color="#8df4ff"/><stop offset="45%" stop-color="#4895ff"/><stop offset="100%" stop-color="#1a47ff"/></radialGradient>
<filter id="softGlow" x="-80%" y="-80%" width="260%" height="260%"><feGaussianBlur stdDeviation="16" result="blur"/><feMerge><feMergeNode in="blur"/><feMergeNode in="SourceGraphic"/></feMerge></filter>
<filter id="wideGlow" x="-120%" y="-120%" width="340%" height="340%"><feGaussianBlur stdDeviation="34" result="blur"/><feMerge><feMergeNode in="blur"/><feMergeNode in="SourceGraphic"/></feMerge></filter>
</defs>
<ellipse cx="960" cy="769.8" rx="287.2" ry="207.6" fill="none" stroke="#70d6ff" stroke-width="4" opacity="0.197" filter="url(#softGlow)"/>
<path d="M820 740 C770 700 770 825 825 795" stroke="#c4f4ff" stroke-width="10" opacity="0.295" fill="none" stroke-linecap="round" filter="url(#softGlow)"/>
<path d="M1098 724 C1162 686 1164 822 1098 794" stroke="#c4f4ff" stroke-width="10" opacity="0.185" fill="none" stroke-linecap="round" filter="url(#softGlow)"/>
<circle cx="1097.2" cy="714.0" r="4.0" fill="#c8f7ff" opacity="0.303" filter="url(#softGlow)"/>
<circle cx="999.4" cy="835.9" r="5.0" fill="#c8f7ff" opacity="0.338" filter="url(#softGlow)"/>
<circle cx="847.1" cy="902.2" r="6.0" fill="#c8f7ff" opacity="0.328" filter="url(#softGlow)"/>
<circle cx="792.1" cy="930.8" r="7.0" fill="#c8f7ff" opacity="0.276" filter="url(#softGlow)"/>
<circle cx="738.3" cy="830.3" r="4.0" fill="#c8f7ff" opacity="0.203" filter="url(#softGlow)"/>
<circle cx="775.2" cy="711.7" r="5.0" fill="#c8f7ff" opacity="0.136" filter="url(#softGlow)"/>
<circle cx="928.1" cy="633.6" r="6.0" fill="#c8f7ff" opacity="0.102" filter="url(#softGlow)"/>
<circle cx="1059.8" cy="591.1" r="7.0" fill="#c8f7ff" opacity="0.113" filter="url(#softGlow)"/>
<circle cx="1188.9" cy="682.4" r="4.0" fill="#c8f7ff" opacity="0.165" filter="url(#softGlow)"/>
<circle cx="1147.8" cy="796.0" r="5.0" fill="#c8f7ff" opacity="0.238" filter="url(#softGlow)"/>







<circle cx="1473" cy="59" r="2.6" fill="#bff7ff" opacity="0.018" filter="url(#softGlow)"/>
<circle cx="347" cy="497" r="2.2" fill="#bff7ff" opacity="0.018" filter="url(#softGlow)"/>
<circle cx="348" cy="977" r="4.0" fill="#bff7ff" opacity="0.006" filter="url(#softGlow)"/>
<circle cx="1293" cy="91" r="1.7" fill="#bff7ff" opacity="0.014" filter="url(#softGlow)"/>
<circle cx="860" cy="411" r="3.0" fill="#bff7ff" opacity="0.012" filter="url(#softGlow)"/>
<circle cx="240" cy="48" r="4.0" fill="#bff7ff" opacity="0.018" filter="url(#softGlow)"/>
<circle cx="363" cy="79" r="2.8" fill="#bff7ff" opacity="0.009" filter="url(#softGlow)"/>
<circle cx="1076" cy="949" r="2.8" fill="#bff7ff" opacity="0.010" filter="url(#softGlow)"/>
<circle cx="183" cy="271" r="2.8" fill="#bff7ff" opacity="0.017" filter="url(#softGlow)"/>
<circle cx="183" cy="878" r="3.5" fill="#bff7ff" opacity="0.004" filter="url(#softGlow)"/>
<circle cx="1489" cy="974" r="3.0" fill="#bff7ff" opacity="0.005" filter="url(#softGlow)"/>
<circle cx="651" cy="926" r="2.5" fill="#bff7ff" opacity="0.007" filter="url(#softGlow)"/>
<circle cx="909" cy="755" r="2.6" fill="#bff7ff" opacity="0.014" filter="url(#softGlow)"/>
<circle cx="1298" cy="753" r="2.4" fill="#bff7ff" opacity="0.013" filter="url(#softGlow)"/>
</svg>