<svg xmlns="http://www.w3.org/2000/svg" width="1920" height="1080" viewBox="0 0 1920 1080">
<defs>
<radialGradient id="spaceGlow" cx="52%" cy="56%" r="54%"><stop offset="0%" stop-color="#132a42"/><stop offset="38%" stop-color="#111630"/><stop offset="100%" stop-color="#030712"/></radialGradient>
<radialGradient id="robotBody" cx="40%" cy="24%" r="85%"><stop offset="0%" stop-color="#ffffff"/><stop offset="52%" stop-color="#dce9ff"/><stop offset="100%" stop-color="#93a6bd"/></radialGradient>
<radialGradient id="blueCore" cx="40%" cy="30%" r="70%"><stop offset="0%" stop-color="#8df4ff"/><stop offset="45%" stop-color="#4895ff"/><stop offset="100%" stop-color="#1a47ff"/></radialGradient>
<filter id="softGlow" x="-80%" y="-80%" width="260%" height="260%"><feGaussianBlur stdDeviation="16" result="blur"/><feMerge><feMergeNode in="blur"/><feMergeNode in="SourceGraphic"/></feMerge></filter>
<filter id="wideGlow" x="-120%" y="-120%" width="340%" height="340%"><feGaussianBlur stdDeviation="34" result="blur"/><feMerge><feMergeNode in="blur"/><feMergeNode in="SourceGraphic"/></feMerge></filter>
</defs>
<ellipse cx="960" cy="772.7" rx="287.5" ry="207.7" fill="none" stroke="#70d6ff" stroke-width="4" opacity="0.198" filter="url(#softGlow)"/>
<path d="M820 740 C770 700 770 825 825 795" stroke="#c4f4ff" stroke-width="10" opacity="0.297" fill="none" stroke-linecap="round" filter="url(#softGlow)"/>
<path d="M1098 724 C1162 686 1164 822 1098 794" stroke="#c4f4ff" stroke-width="10" opacity="0.183" fill="none" stroke-linecap="round" filter="url(#softGlow)"/>
<circle cx="1073.0" cy="743.7" r="4.0" fill="#c8f7ff" opacity="0.316" filter="url(#softGlow)"/>
<circle cx="961.5" cy="867.4" r="5.0" fill="#c8f7ff" opacity="0.340" filter="url(#softGlow)"/>
<circle cx="809.4" cy="911.2" r="6.0" fill="#c8f7ff" opacity="0.317" filter="url(#softGlow)"/>
<circle cx="779.5" cy="914.7" r="7.0" fill="#c8f7ff" opacity="0.257" filter="url(#softGlow)"/>
<circle cx="746.8" cy="801.6" r="4.0" fill="#c8f7ff" opacity="0.183" filter="url(#softGlow)"/>
<circle cx="808.3" cy="678.3" r="5.0" fill="#c8f7ff" opacity="0.123" filter="url(#softGlow)"/>
<circle cx="960.3" cy="621.3" r="6.0" fill="#c8f7ff" opacity="0.100" filter="url(#softGlow)"/>
<circle cx="1092.2" cy="603.2" r="7.0" fill="#c8f7ff" opacity="0.123" filter="url(#softGlow)"/>
<circle cx="1205.8" cy="709.6" r="4.0" fill="#c8f7ff" opacity="0.183" filter="url(#softGlow)"/>
<circle cx="1140.3" cy="830.8" r="5.0" fill="#c8f7ff" opacity="0.258" filter="url(#softGlow)"/>







<circle cx="655" cy="909" r="2.6" fill="#bff7ff" opacity="0.008" filter="url(#softGlow)"/>
<circle cx="1129" cy="626" r="1.8" fill="#bff7ff" opacity="0.019" filter="url(#softGlow)"/>
<circle cx="1420" cy="273" r="2.0" fill="#bff7ff" opacity="0.010" filter="url(#softGlow)"/>
<circle cx="1558" cy="324" r="3.1" fill="#bff7ff" opacity="0.022" filter="url(#softGlow)"/>
<circle cx="635" cy="1008" r="3.6" fill="#bff7ff" opacity="0.008" filter="url(#softGlow)"/>
<circle cx="1683" cy="48" r="3.3" fill="#bff7ff" opacity="0.018" filter="url(#softGlow)"/>
<circle cx="772" cy="874" r="3.3" fill="#bff7ff" opacity="0.013" filter="url(#softGlow)"/>
<circle cx="931" cy="956" r="3.2" fill="#bff7ff" opacity="0.007" filter="url(#softGlow)"/>
<circle cx="237" cy="157" r="3.3" fill="#bff7ff" opacity="0.025" filter="url(#softGlow)"/>
<circle cx="305" cy="834" r="2.2" fill="#bff7ff" opacity="0.006" filter="url(#softGlow)"/>
<circle cx="1622" cy="284" r="4.1" fill="#bff7ff" opacity="0.010" filter="url(#softGlow)"/>
<circle cx="966" cy="950" r="3.7" fill="#bff7ff" opacity="0.010" filter="url(#softGlow)"/>
<circle cx="374" cy="241" r="2.6" fill="#bff7ff" opacity="0.020" filter="url(#softGlow)"/>
<circle cx="1464" cy="984" r="2.6" fill="#bff7ff" opacity="0.012" filter="url(#softGlow)"/>
</svg>