<svg xmlns="http://www.w3.org/2000/svg" width="1920" height="1080" viewBox="0 0 1920 1080">
<defs>
<radialGradient id="spaceGlow" cx="52%" cy="56%" r="54%"><stop offset="0%" stop-color="#132a42"/><stop offset="38%" stop-color="#111630"/><stop offset="100%" stop-color="#030712"/></radialGradient>
<radialGradient id="robotBody" cx="40%" cy="24%" r="85%"><stop offset="0%" stop-color="#ffffff"/><stop offset="52%" stop-color="#dce9ff"/><stop offset="100%" stop-color="#93a6bd"/></radialGradient>
<radialGradient id="blueCore" cx="40%" cy="30%" r="70%"><stop offset="0%" stop-color="#8df4ff"/><stop offset="45%" stop-color="#4895ff"/><stop offset="100%" stop-color="#1a47ff"/></radialGradient>
<filter id="softGlow" x="-80%" y="-80%" width="260%" height="260%"><feGaussianBlur stdDeviation="16" result="blur"/><feMerge><feMergeNode in="blur"/><feMergeNode in="SourceGraphic"/></feMerge></filter>
<filter id="wideGlow" x="-120%" y="-120%" width="340%" height="340%"><feGaussianBlur stdDeviation="34" result="blur"/><feMerge><feMergeNode in="blur"/><feMergeNode in="SourceGraphic"/></feMerge></filter>
</defs>
<ellipse cx="960" cy="775.7" rx="281.1" ry="204.2" fill="none" stroke="#70d6ff" stroke-width="4" opacity="0.173" filter="url(#softGlow)"/>
<path d="M820 740 C770 700 770 825 825 795" stroke="#c4f4ff" stroke-width="10" opacity="0.254" fill="none" stroke-linecap="round" filter="url(#softGlow)"/>
<path d="M1098 724 C1162 686 1164 822 1098 794" stroke="#c4f4ff" stroke-width="10" opacity="0.226" fill="none" stroke-linecap="round" filter="url(#softGlow)"/>
<circle cx="1035.8" cy="784.3" r="4.0" fill="#c8f7ff" opacity="0.330" filter="url(#softGlow)"/>
<circle cx="911.2" cy="902.6" r="5.0" fill="#c8f7ff" opacity="0.337" filter="url(#softGlow)"/>
<circle cx="766.2" cy="913.6" r="6.0" fill="#c8f7ff" opacity="0.299" filter="url(#softGlow)"/>
<circle cx="770.8" cy="883.7" r="7.0" fill="#c8f7ff" opacity="0.231" filter="url(#softGlow)"/>
<circle cx="767.8" cy="761.2" r="4.0" fill="#c8f7ff" opacity="0.158" filter="url(#softGlow)"/>
<circle cx="859.1" cy="639.5" r="5.0" fill="#c8f7ff" opacity="0.110" filter="url(#softGlow)"/>
<circle cx="1003.0" cy="614.1" r="6.0" fill="#c8f7ff" opacity="0.103" filter="url(#softGlow)"/>
<circle cx="1129.5" cy="629.7" r="7.0" fill="#c8f7ff" opacity="0.142" filter="url(#softGlow)"/>
<circle cx="1217.1" cy="749.2" r="4.0" fill="#c8f7ff" opacity="0.210" filter="url(#softGlow)"/>
<circle cx="1122.2" cy="872.7" r="5.0" fill="#c8f7ff" opacity="0.282" filter="url(#softGlow)"/>







<circle cx="268" cy="964" r="3.0" fill="#bff7ff" opacity="0.040" filter="url(#softGlow)"/>
<circle cx="318" cy="460" r="3.1" fill="#bff7ff" opacity="0.031" filter="url(#softGlow)"/>
<circle cx="989" cy="393" r="4.1" fill="#bff7ff" opacity="0.017" filter="url(#softGlow)"/>
<circle cx="1677" cy="386" r="3.5" fill="#bff7ff" opacity="0.020" filter="url(#softGlow)"/>
<circle cx="1580" cy="80" r="1.8" fill="#bff7ff" opacity="0.014" filter="url(#softGlow)"/>
<circle cx="291" cy="91" r="3.3" fill="#bff7ff" opacity="0.011" filter="url(#softGlow)"/>
<circle cx="1701" cy="635" r="3.9" fill="#bff7ff" opacity="0.041" filter="url(#softGlow)"/>
<circle cx="299" cy="279" r="1.5" fill="#bff7ff" opacity="0.030" filter="url(#softGlow)"/>
<circle cx="1194" cy="935" r="2.1" fill="#bff7ff" opacity="0.021" filter="url(#softGlow)"/>
<circle cx="265" cy="47" r="3.6" fill="#bff7ff" opacity="0.037" filter="url(#softGlow)"/>
<circle cx="1752" cy="590" r="4.2" fill="#bff7ff" opacity="0.014" filter="url(#softGlow)"/>
<circle cx="1619" cy="637" r="1.6" fill="#bff7ff" opacity="0.012" filter="url(#softGlow)"/>
<circle cx="1405" cy="810" r="3.8" fill="#bff7ff" opacity="0.014" filter="url(#softGlow)"/>
<circle cx="899" cy="849" r="2.2" fill="#bff7ff" opacity="0.013" filter="url(#softGlow)"/>
</svg>