<svg xmlns="http://www.w3.org/2000/svg" width="1920" height="1080" viewBox="0 0 1920 1080">
<defs>
<radialGradient id="spaceGlow" cx="52%" cy="56%" r="54%"><stop offset="0%" stop-color="#132a42"/><stop offset="38%" stop-color="#111630"/><stop offset="100%" stop-color="#030712"/></radialGradient>
<radialGradient id="robotBody" cx="40%" cy="24%" r="85%"><stop offset="0%" stop-color="#ffffff"/><stop offset="52%" stop-color="#dce9ff"/><stop offset="100%" stop-color="#93a6bd"/></radialGradient>
<radialGradient id="blueCore" cx="40%" cy="30%" r="70%"><stop offset="0%" stop-color="#8df4ff"/><stop offset="45%" stop-color="#4895ff"/><stop offset="100%" stop-color="#1a47ff"/></radialGradient>
<filter id="softGlow" x="-80%" y="-80%" width="260%" height="260%"><feGaussianBlur stdDeviation="16" result="blur"/><feMerge><feMergeNode in="blur"/><feMergeNode in="SourceGraphic"/></feMerge></filter>
<filter id="wideGlow" x="-120%" y="-120%" width="340%" height="340%"><feGaussianBlur stdDeviation="34" result="blur"/><feMerge><feMergeNode in="blur"/><feMergeNode in="SourceGraphic"/></feMerge></filter>
</defs>
<ellipse cx="960" cy="777.2" rx="274.6" ry="200.6" fill="none" stroke="#70d6ff" stroke-width="4" opacity="0.148" filter="url(#softGlow)"/>
<path d="M820 740 C770 700 770 825 825 795" stroke="#c4f4ff" stroke-width="10" opacity="0.211" fill="none" stroke-linecap="round" filter="url(#softGlow)"/>
<path d="M1098 724 C1162 686 1164 822 1098 794" stroke="#c4f4ff" stroke-width="10" opacity="0.269" fill="none" stroke-linecap="round" filter="url(#softGlow)"/>
<circle cx="1005.2" cy="814.0" r="4.0" fill="#c8f7ff" opacity="0.337" filter="url(#softGlow)"/>
<circle cx="874.9" cy="922.3" r="5.0" fill="#c8f7ff" opacity="0.331" filter="url(#softGlow)"/>
<circle cx="740.2" cy="908.1" r="6.0" fill="#c8f7ff" opacity="0.283" filter="url(#softGlow)"/>
<circle cx="770.6" cy="854.5" r="7.0" fill="#c8f7ff" opacity="0.211" filter="url(#softGlow)"/>
<circle cx="790.0" cy="730.9" r="4.0" fill="#c8f7ff" opacity="0.142" filter="url(#softGlow)"/>
<circle cx="900.7" cy="616.3" r="5.0" fill="#c8f7ff" opacity="0.103" filter="url(#softGlow)"/>
<circle cx="1033.7" cy="616.0" r="6.0" fill="#c8f7ff" opacity="0.109" filter="url(#softGlow)"/>
<circle cx="1151.8" cy="656.1" r="7.0" fill="#c8f7ff" opacity="0.158" filter="url(#softGlow)"/>
<circle cx="1217.0" cy="779.7" r="4.0" fill="#c8f7ff" opacity="0.230" filter="url(#softGlow)"/>
<circle cx="1103.2" cy="899.0" r="5.0" fill="#c8f7ff" opacity="0.299" filter="url(#softGlow)"/>







<circle cx="1771" cy="111" r="3.7" fill="#bff7ff" opacity="0.018" filter="url(#softGlow)"/>
<circle cx="973" cy="394" r="2.5" fill="#bff7ff" opacity="0.020" filter="url(#softGlow)"/>
<circle cx="1491" cy="723" r="3.4" fill="#bff7ff" opacity="0.056" filter="url(#softGlow)"/>
<circle cx="1419" cy="258" r="1.9" fill="#bff7ff" opacity="0.015" filter="url(#softGlow)"/>
<circle cx="313" cy="629" r="2.9" fill="#bff7ff" opacity="0.038" filter="url(#softGlow)"/>
<circle cx="1673" cy="884" r="3.0" fill="#bff7ff" opacity="0.033" filter="url(#softGlow)"/>
<circle cx="279" cy="935" r="3.9" fill="#bff7ff" opacity="0.014" filter="url(#softGlow)"/>
<circle cx="637" cy="231" r="1.9" fill="#bff7ff" opacity="0.032" filter="url(#softGlow)"/>
<circle cx="1153" cy="409" r="3.7" fill="#bff7ff" opacity="0.028" filter="url(#softGlow)"/>
<circle cx="952" cy="625" r="2.0" fill="#bff7ff" opacity="0.032" filter="url(#softGlow)"/>
<circle cx="1563" cy="994" r="3.3" fill="#bff7ff" opacity="0.012" filter="url(#softGlow)"/>
<circle cx="544" cy="746" r="1.9" fill="#bff7ff" opacity="0.016" filter="url(#softGlow)"/>
<circle cx="83" cy="1004" r="4.1" fill="#bff7ff" opacity="0.054" filter="url(#softGlow)"/>
<circle cx="1169" cy="910" r="3.1" fill="#bff7ff" opacity="0.027" filter="url(#softGlow)"/>
</svg>