<svg xmlns="http://www.w3.org/2000/svg" width="1920" height="1080" viewBox="0 0 1920 1080">
<defs>
<radialGradient id="spaceGlow" cx="52%" cy="56%" r="54%"><stop offset="0%" stop-color="#132a42"/><stop offset="38%" stop-color="#111630"/><stop offset="100%" stop-color="#030712"/></radialGradient>
<radialGradient id="robotBody" cx="40%" cy="24%" r="85%"><stop offset="0%" stop-color="#ffffff"/><stop offset="52%" stop-color="#dce9ff"/><stop offset="100%" stop-color="#93a6bd"/></radialGradient>
<radialGradient id="blueCore" cx="40%" cy="30%" r="70%"><stop offset="0%" stop-color="#8df4ff"/><stop offset="45%" stop-color="#4895ff"/><stop offset="100%" stop-color="#1a47ff"/></radialGradient>
<filter id="softGlow" x="-80%" y="-80%" width="260%" height="260%"><feGaussianBlur stdDeviation="16" result="blur"/><feMerge><feMergeNode in="blur"/><feMergeNode in="SourceGraphic"/></feMerge></filter>
<filter id="wideGlow" x="-120%" y="-120%" width="340%" height="340%"><feGaussianBlur stdDeviation="34" result="blur"/><feMerge><feMergeNode in="blur"/><feMergeNode in="SourceGraphic"/></feMerge></filter>
</defs>
<ellipse cx="960" cy="777.9" rx="270.4" ry="198.2" fill="none" stroke="#70d6ff" stroke-width="4" opacity="0.132" filter="url(#softGlow)"/>
<path d="M820 740 C770 700 770 825 825 795" stroke="#c4f4ff" stroke-width="10" opacity="0.183" fill="none" stroke-linecap="round" filter="url(#softGlow)"/>
<path d="M1098 724 C1162 686 1164 822 1098 794" stroke="#c4f4ff" stroke-width="10" opacity="0.297" fill="none" stroke-linecap="round" filter="url(#softGlow)"/>
<circle cx="973.3" cy="841.6" r="4.0" fill="#c8f7ff" opacity="0.340" filter="url(#softGlow)"/>
<circle cx="841.1" cy="935.5" r="5.0" fill="#c8f7ff" opacity="0.322" filter="url(#softGlow)"/>
<circle cx="720.5" cy="896.7" r="6.0" fill="#c8f7ff" opacity="0.265" filter="url(#softGlow)"/>
<circle cx="775.9" cy="821.6" r="7.0" fill="#c8f7ff" opacity="0.190" filter="url(#softGlow)"/>
<circle cx="817.1" cy="701.9" r="4.0" fill="#c8f7ff" opacity="0.128" filter="url(#softGlow)"/>
<circle cx="944.1" cy="599.3" r="5.0" fill="#c8f7ff" opacity="0.100" filter="url(#softGlow)"/>
<circle cx="1062.2" cy="624.0" r="6.0" fill="#c8f7ff" opacity="0.119" filter="url(#softGlow)"/>
<circle cx="1168.6" cy="687.0" r="7.0" fill="#c8f7ff" opacity="0.176" filter="url(#softGlow)"/>
<circle cx="1209.5" cy="809.6" r="4.0" fill="#c8f7ff" opacity="0.251" filter="url(#softGlow)"/>
<circle cx="1080.0" cy="919.7" r="5.0" fill="#c8f7ff" opacity="0.313" filter="url(#softGlow)"/>






<g opacity="0.062" filter="url(#softGlow)">
  <line x1="1713.1" y1="267.0" x2="2093.1" y2="130.2" stroke="#75b9ff" stroke-width="8" stroke-linecap="round"/>
  <line x1="1731.1" y1="261.0" x2="2243.1" y2="76.2" stroke="#ffffff" stroke-width="2" stroke-linecap="round" opacity="0.92"/>
</g>

<circle cx="245" cy="129" r="2.9" fill="#bff7ff" opacity="0.053" filter="url(#softGlow)"/>
<circle cx="1598" cy="942" r="4.1" fill="#bff7ff" opacity="0.016" filter="url(#softGlow)"/>
<circle cx="716" cy="101" r="2.9" fill="#bff7ff" opacity="0.061" filter="url(#softGlow)"/>
<circle cx="1831" cy="937" r="3.9" fill="#bff7ff" opacity="0.028" filter="url(#softGlow)"/>
<circle cx="380" cy="280" r="4.0" fill="#bff7ff" opacity="0.040" filter="url(#softGlow)"/>
<circle cx="170" cy="849" r="2.1" fill="#bff7ff" opacity="0.061" filter="url(#softGlow)"/>
<circle cx="1283" cy="431" r="4.2" fill="#bff7ff" opacity="0.044" filter="url(#softGlow)"/>
<circle cx="337" cy="463" r="2.0" fill="#bff7ff" opacity="0.037" filter="url(#softGlow)"/>
<circle cx="693" cy="337" r="2.1" fill="#bff7ff" opacity="0.021" filter="url(#softGlow)"/>
<circle cx="1445" cy="223" r="2.2" fill="#bff7ff" opacity="0.018" filter="url(#softGlow)"/>
<circle cx="1556" cy="838" r="3.0" fill="#bff7ff" opacity="0.063" filter="url(#softGlow)"/>
<circle cx="1208" cy="163" r="3.7" fill="#bff7ff" opacity="0.054" filter="url(#softGlow)"/>
<circle cx="1259" cy="190" r="3.2" fill="#bff7ff" opacity="0.047" filter="url(#softGlow)"/>
<circle cx="1204" cy="713" r="1.6" fill="#bff7ff" opacity="0.051" filter="url(#softGlow)"/>
</svg>