<svg xmlns="http://www.w3.org/2000/svg" width="1920" height="1080" viewBox="0 0 1920 1080">
<defs>
<radialGradient id="spaceGlow" cx="52%" cy="56%" r="54%"><stop offset="0%" stop-color="#132a42"/><stop offset="38%" stop-color="#111630"/><stop offset="100%" stop-color="#030712"/></radialGradient>
<radialGradient id="robotBody" cx="40%" cy="24%" r="85%"><stop offset="0%" stop-color="#ffffff"/><stop offset="52%" stop-color="#dce9ff"/><stop offset="100%" stop-color="#93a6bd"/></radialGradient>
<radialGradient id="blueCore" cx="40%" cy="30%" r="70%"><stop offset="0%" stop-color="#8df4ff"/><stop offset="45%" stop-color="#4895ff"/><stop offset="100%" stop-color="#1a47ff"/></radialGradient>
<filter id="softGlow" x="-80%" y="-80%" width="260%" height="260%"><feGaussianBlur stdDeviation="16" result="blur"/><feMerge><feMergeNode in="blur"/><feMergeNode in="SourceGraphic"/></feMerge></filter>
<filter id="wideGlow" x="-120%" y="-120%" width="340%" height="340%"><feGaussianBlur stdDeviation="34" result="blur"/><feMerge><feMergeNode in="blur"/><feMergeNode in="SourceGraphic"/></feMerge></filter>
</defs>
<ellipse cx="960" cy="778.0" rx="270.0" ry="198.0" fill="none" stroke="#70d6ff" stroke-width="4" opacity="0.130" filter="url(#softGlow)"/>
<path d="M820 740 C770 700 770 825 825 795" stroke="#c4f4ff" stroke-width="10" opacity="0.180" fill="none" stroke-linecap="round" filter="url(#softGlow)"/>
<path d="M1098 724 C1162 686 1164 822 1098 794" stroke="#c4f4ff" stroke-width="10" opacity="0.300" fill="none" stroke-linecap="round" filter="url(#softGlow)"/>
<circle cx="962.6" cy="850.2" r="4.0" fill="#c8f7ff" opacity="0.340" filter="url(#softGlow)"/>
<circle cx="830.5" cy="938.4" r="5.0" fill="#c8f7ff" opacity="0.318" filter="url(#softGlow)"/>
<circle cx="715.5" cy="891.6" r="6.0" fill="#c8f7ff" opacity="0.258" filter="url(#softGlow)"/>
<circle cx="778.8" cy="810.0" r="7.0" fill="#c8f7ff" opacity="0.184" filter="url(#softGlow)"/>
<circle cx="827.1" cy="692.8" r="4.0" fill="#c8f7ff" opacity="0.123" filter="url(#softGlow)"/>
<circle cx="958.7" cy="595.1" r="5.0" fill="#c8f7ff" opacity="0.100" filter="url(#softGlow)"/>
<circle cx="1071.1" cy="628.0" r="6.0" fill="#c8f7ff" opacity="0.123" filter="url(#softGlow)"/>
<circle cx="1172.9" cy="698.1" r="7.0" fill="#c8f7ff" opacity="0.183" filter="url(#softGlow)"/>
<circle cx="1205.4" cy="819.2" r="4.0" fill="#c8f7ff" opacity="0.257" filter="url(#softGlow)"/>
<circle cx="1071.4" cy="925.2" r="5.0" fill="#c8f7ff" opacity="0.317" filter="url(#softGlow)"/>






<g opacity="0.184" filter="url(#softGlow)">
  <line x1="1615.3" y1="302.9" x2="1995.3" y2="166.1" stroke="#75b9ff" stroke-width="8" stroke-linecap="round"/>
  <line x1="1633.3" y1="296.9" x2="2145.3" y2="112.1" stroke="#ffffff" stroke-width="2" stroke-linecap="round" opacity="0.92"/>
</g>

<circle cx="578" cy="214" r="1.9" fill="#bff7ff" opacity="0.031" filter="url(#softGlow)"/>
<circle cx="828" cy="830" r="3.8" fill="#bff7ff" opacity="0.034" filter="url(#softGlow)"/>
<circle cx="172" cy="417" r="2.7" fill="#bff7ff" opacity="0.028" filter="url(#softGlow)"/>
<circle cx="896" cy="674" r="2.8" fill="#bff7ff" opacity="0.070" filter="url(#softGlow)"/>
<circle cx="1421" cy="245" r="3.8" fill="#bff7ff" opacity="0.084" filter="url(#softGlow)"/>
<circle cx="1587" cy="558" r="2.9" fill="#bff7ff" opacity="0.078" filter="url(#softGlow)"/>
<circle cx="152" cy="852" r="1.7" fill="#bff7ff" opacity="0.034" filter="url(#softGlow)"/>
<circle cx="907" cy="145" r="1.9" fill="#bff7ff" opacity="0.034" filter="url(#softGlow)"/>
<circle cx="1087" cy="658" r="1.5" fill="#bff7ff" opacity="0.041" filter="url(#softGlow)"/>
<circle cx="1494" cy="507" r="2.5" fill="#bff7ff" opacity="0.036" filter="url(#softGlow)"/>
<circle cx="428" cy="856" r="3.2" fill="#bff7ff" opacity="0.022" filter="url(#softGlow)"/>
<circle cx="688" cy="186" r="2.3" fill="#bff7ff" opacity="0.018" filter="url(#softGlow)"/>
<circle cx="805" cy="470" r="2.4" fill="#bff7ff" opacity="0.036" filter="url(#softGlow)"/>
<circle cx="1067" cy="506" r="1.9" fill="#bff7ff" opacity="0.032" filter="url(#softGlow)"/>
</svg>