<svg xmlns="http://www.w3.org/2000/svg" width="1920" height="1080" viewBox="0 0 1920 1080">
<defs>
<radialGradient id="spaceGlow" cx="52%" cy="56%" r="54%"><stop offset="0%" stop-color="#132a42"/><stop offset="38%" stop-color="#111630"/><stop offset="100%" stop-color="#030712"/></radialGradient>
<radialGradient id="robotBody" cx="40%" cy="24%" r="85%"><stop offset="0%" stop-color="#ffffff"/><stop offset="52%" stop-color="#dce9ff"/><stop offset="100%" stop-color="#93a6bd"/></radialGradient>
<radialGradient id="blueCore" cx="40%" cy="30%" r="70%"><stop offset="0%" stop-color="#8df4ff"/><stop offset="45%" stop-color="#4895ff"/><stop offset="100%" stop-color="#1a47ff"/></radialGradient>
<filter id="softGlow" x="-80%" y="-80%" width="260%" height="260%"><feGaussianBlur stdDeviation="16" result="blur"/><feMerge><feMergeNode in="blur"/><feMergeNode in="SourceGraphic"/></feMerge></filter>
<filter id="wideGlow" x="-120%" y="-120%" width="340%" height="340%"><feGaussianBlur stdDeviation="34" result="blur"/><feMerge><feMergeNode in="blur"/><feMergeNode in="SourceGraphic"/></feMerge></filter>
</defs>
<ellipse cx="960" cy="777.9" rx="270.9" ry="198.5" fill="none" stroke="#70d6ff" stroke-width="4" opacity="0.133" filter="url(#softGlow)"/>
<path d="M820 740 C770 700 770 825 825 795" stroke="#c4f4ff" stroke-width="10" opacity="0.186" fill="none" stroke-linecap="round" filter="url(#softGlow)"/>
<path d="M1098 724 C1162 686 1164 822 1098 794" stroke="#c4f4ff" stroke-width="10" opacity="0.294" fill="none" stroke-linecap="round" filter="url(#softGlow)"/>
<circle cx="941.1" cy="866.0" r="4.0" fill="#c8f7ff" opacity="0.339" filter="url(#softGlow)"/>
<circle cx="810.7" cy="941.6" r="5.0" fill="#c8f7ff" opacity="0.309" filter="url(#softGlow)"/>
<circle cx="707.7" cy="879.8" r="6.0" fill="#c8f7ff" opacity="0.245" filter="url(#softGlow)"/>
<circle cx="786.4" cy="786.3" r="7.0" fill="#c8f7ff" opacity="0.171" filter="url(#softGlow)"/>
<circle cx="848.3" cy="675.6" r="4.0" fill="#c8f7ff" opacity="0.116" filter="url(#softGlow)"/>
<circle cx="987.9" cy="589.0" r="5.0" fill="#c8f7ff" opacity="0.101" filter="url(#softGlow)"/>
<circle cx="1087.9" cy="637.9" r="6.0" fill="#c8f7ff" opacity="0.131" filter="url(#softGlow)"/>
<circle cx="1179.4" cy="721.2" r="7.0" fill="#c8f7ff" opacity="0.196" filter="url(#softGlow)"/>
<circle cx="1194.8" cy="837.6" r="4.0" fill="#c8f7ff" opacity="0.270" filter="url(#softGlow)"/>
<circle cx="1053.3" cy="933.9" r="5.0" fill="#c8f7ff" opacity="0.325" filter="url(#softGlow)"/>






<g opacity="0.418" filter="url(#softGlow)">
  <line x1="1442.9" y1="366.1" x2="1822.9" y2="229.3" stroke="#75b9ff" stroke-width="8" stroke-linecap="round"/>
  <line x1="1460.9" y1="360.1" x2="1972.9" y2="175.3" stroke="#ffffff" stroke-width="2" stroke-linecap="round" opacity="0.92"/>
</g>

<circle cx="578" cy="214" r="1.9" fill="#bff7ff" opacity="0.036" filter="url(#softGlow)"/>
<circle cx="828" cy="830" r="3.8" fill="#bff7ff" opacity="0.040" filter="url(#softGlow)"/>
<circle cx="172" cy="417" r="2.7" fill="#bff7ff" opacity="0.033" filter="url(#softGlow)"/>
<circle cx="896" cy="674" r="2.8" fill="#bff7ff" opacity="0.082" filter="url(#softGlow)"/>
<circle cx="1421" cy="245" r="3.8" fill="#bff7ff" opacity="0.099" filter="url(#softGlow)"/>
<circle cx="1587" cy="558" r="2.9" fill="#bff7ff" opacity="0.091" filter="url(#softGlow)"/>
<circle cx="152" cy="852" r="1.7" fill="#bff7ff" opacity="0.041" filter="url(#softGlow)"/>
<circle cx="907" cy="145" r="1.9" fill="#bff7ff" opacity="0.040" filter="url(#softGlow)"/>
<circle cx="1087" cy="658" r="1.5" fill="#bff7ff" opacity="0.049" filter="url(#softGlow)"/>
<circle cx="1494" cy="507" r="2.5" fill="#bff7ff" opacity="0.043" filter="url(#softGlow)"/>
<circle cx="428" cy="856" r="3.2" fill="#bff7ff" opacity="0.025" filter="url(#softGlow)"/>
<circle cx="688" cy="186" r="2.3" fill="#bff7ff" opacity="0.021" filter="url(#softGlow)"/>
<circle cx="805" cy="470" r="2.4" fill="#bff7ff" opacity="0.043" filter="url(#softGlow)"/>
<circle cx="1067" cy="506" r="1.9" fill="#bff7ff" opacity="0.037" filter="url(#softGlow)"/>
</svg>