<svg xmlns="http://www.w3.org/2000/svg" width="1920" height="1080" viewBox="0 0 1920 1080">
<defs>
<radialGradient id="spaceGlow" cx="52%" cy="56%" r="54%"><stop offset="0%" stop-color="#132a42"/><stop offset="38%" stop-color="#111630"/><stop offset="100%" stop-color="#030712"/></radialGradient>
<radialGradient id="robotBody" cx="40%" cy="24%" r="85%"><stop offset="0%" stop-color="#ffffff"/><stop offset="52%" stop-color="#dce9ff"/><stop offset="100%" stop-color="#93a6bd"/></radialGradient>
<radialGradient id="blueCore" cx="40%" cy="30%" r="70%"><stop offset="0%" stop-color="#8df4ff"/><stop offset="45%" stop-color="#4895ff"/><stop offset="100%" stop-color="#1a47ff"/></radialGradient>
<filter id="softGlow" x="-80%" y="-80%" width="260%" height="260%"><feGaussianBlur stdDeviation="16" result="blur"/><feMerge><feMergeNode in="blur"/><feMergeNode in="SourceGraphic"/></feMerge></filter>
<filter id="wideGlow" x="-120%" y="-120%" width="340%" height="340%"><feGaussianBlur stdDeviation="34" result="blur"/><feMerge><feMergeNode in="blur"/><feMergeNode in="SourceGraphic"/></feMerge></filter>
</defs>
<ellipse cx="960" cy="777.7" rx="272.1" ry="199.1" fill="none" stroke="#70d6ff" stroke-width="4" opacity="0.138" filter="url(#softGlow)"/>
<path d="M820 740 C770 700 770 825 825 795" stroke="#c4f4ff" stroke-width="10" opacity="0.194" fill="none" stroke-linecap="round" filter="url(#softGlow)"/>
<path d="M1098 724 C1162 686 1164 822 1098 794" stroke="#c4f4ff" stroke-width="10" opacity="0.286" fill="none" stroke-linecap="round" filter="url(#softGlow)"/>
<circle cx="930.4" cy="873.3" r="4.0" fill="#c8f7ff" opacity="0.339" filter="url(#softGlow)"/>
<circle cx="801.4" cy="942.0" r="5.0" fill="#c8f7ff" opacity="0.305" filter="url(#softGlow)"/>
<circle cx="705.1" cy="873.0" r="6.0" fill="#c8f7ff" opacity="0.238" filter="url(#softGlow)"/>
<circle cx="791.1" cy="774.2" r="7.0" fill="#c8f7ff" opacity="0.165" filter="url(#softGlow)"/>
<circle cx="859.5" cy="667.5" r="4.0" fill="#c8f7ff" opacity="0.113" filter="url(#softGlow)"/>
<circle cx="1002.3" cy="587.2" r="5.0" fill="#c8f7ff" opacity="0.102" filter="url(#softGlow)"/>
<circle cx="1095.6" cy="643.7" r="6.0" fill="#c8f7ff" opacity="0.136" filter="url(#softGlow)"/>
<circle cx="1181.6" cy="733.0" r="7.0" fill="#c8f7ff" opacity="0.203" filter="url(#softGlow)"/>
<circle cx="1188.4" cy="846.3" r="4.0" fill="#c8f7ff" opacity="0.276" filter="url(#softGlow)"/>
<circle cx="1043.8" cy="937.2" r="5.0" fill="#c8f7ff" opacity="0.328" filter="url(#softGlow)"/>






<g opacity="0.526" filter="url(#softGlow)">
  <line x1="1367.7" y1="393.7" x2="1747.7" y2="256.9" stroke="#75b9ff" stroke-width="8" stroke-linecap="round"/>
  <line x1="1385.7" y1="387.7" x2="1897.7" y2="202.9" stroke="#ffffff" stroke-width="2" stroke-linecap="round" opacity="0.92"/>
</g>

<circle cx="259" cy="300" r="3.2" fill="#bff7ff" opacity="0.075" filter="url(#softGlow)"/>
<circle cx="687" cy="254" r="1.5" fill="#bff7ff" opacity="0.062" filter="url(#softGlow)"/>
<circle cx="692" cy="504" r="3.7" fill="#bff7ff" opacity="0.104" filter="url(#softGlow)"/>
<circle cx="157" cy="80" r="3.6" fill="#bff7ff" opacity="0.054" filter="url(#softGlow)"/>
<circle cx="304" cy="258" r="2.2" fill="#bff7ff" opacity="0.056" filter="url(#softGlow)"/>
<circle cx="146" cy="131" r="2.3" fill="#bff7ff" opacity="0.045" filter="url(#softGlow)"/>
<circle cx="382" cy="696" r="3.6" fill="#bff7ff" opacity="0.071" filter="url(#softGlow)"/>
<circle cx="1759" cy="930" r="2.9" fill="#bff7ff" opacity="0.076" filter="url(#softGlow)"/>
<circle cx="352" cy="847" r="3.0" fill="#bff7ff" opacity="0.079" filter="url(#softGlow)"/>
<circle cx="587" cy="188" r="2.1" fill="#bff7ff" opacity="0.032" filter="url(#softGlow)"/>
<circle cx="477" cy="556" r="3.3" fill="#bff7ff" opacity="0.068" filter="url(#softGlow)"/>
<circle cx="598" cy="933" r="2.9" fill="#bff7ff" opacity="0.079" filter="url(#softGlow)"/>
<circle cx="1115" cy="368" r="2.9" fill="#bff7ff" opacity="0.078" filter="url(#softGlow)"/>
<circle cx="1053" cy="315" r="4.2" fill="#bff7ff" opacity="0.077" filter="url(#softGlow)"/>
</svg>