<svg xmlns="http://www.w3.org/2000/svg" width="1920" height="1080" viewBox="0 0 1920 1080">
<defs>
<radialGradient id="spaceGlow" cx="52%" cy="56%" r="54%"><stop offset="0%" stop-color="#132a42"/><stop offset="38%" stop-color="#111630"/><stop offset="100%" stop-color="#030712"/></radialGradient>
<radialGradient id="robotBody" cx="40%" cy="24%" r="85%"><stop offset="0%" stop-color="#ffffff"/><stop offset="52%" stop-color="#dce9ff"/><stop offset="100%" stop-color="#93a6bd"/></radialGradient>
<radialGradient id="blueCore" cx="40%" cy="30%" r="70%"><stop offset="0%" stop-color="#8df4ff"/><stop offset="45%" stop-color="#4895ff"/><stop offset="100%" stop-color="#1a47ff"/></radialGradient>
<filter id="softGlow" x="-80%" y="-80%" width="260%" height="260%"><feGaussianBlur stdDeviation="16" result="blur"/><feMerge><feMergeNode in="blur"/><feMergeNode in="SourceGraphic"/></feMerge></filter>
<filter id="wideGlow" x="-120%" y="-120%" width="340%" height="340%"><feGaussianBlur stdDeviation="34" result="blur"/><feMerge><feMergeNode in="blur"/><feMergeNode in="SourceGraphic"/></feMerge></filter>
</defs>
<ellipse cx="960" cy="776.6" rx="277.8" ry="202.3" fill="none" stroke="#70d6ff" stroke-width="4" opacity="0.160" filter="url(#softGlow)"/>
<path d="M820 740 C770 700 770 825 825 795" stroke="#c4f4ff" stroke-width="10" opacity="0.232" fill="none" stroke-linecap="round" filter="url(#softGlow)"/>
<path d="M1098 724 C1162 686 1164 822 1098 794" stroke="#c4f4ff" stroke-width="10" opacity="0.248" fill="none" stroke-linecap="round" filter="url(#softGlow)"/>
<circle cx="899.1" cy="891.8" r="4.0" fill="#c8f7ff" opacity="0.334" filter="url(#softGlow)"/>
<circle cx="777.0" cy="938.3" r="5.0" fill="#c8f7ff" opacity="0.289" filter="url(#softGlow)"/>
<circle cx="702.0" cy="849.9" r="6.0" fill="#c8f7ff" opacity="0.218" filter="url(#softGlow)"/>
<circle cx="808.2" cy="738.0" r="7.0" fill="#c8f7ff" opacity="0.148" filter="url(#softGlow)"/>
<circle cx="894.8" cy="646.3" r="4.0" fill="#c8f7ff" opacity="0.105" filter="url(#softGlow)"/>
<circle cx="1044.8" cy="586.7" r="5.0" fill="#c8f7ff" opacity="0.107" filter="url(#softGlow)"/>
<circle cx="1116.2" cy="664.3" r="6.0" fill="#c8f7ff" opacity="0.152" filter="url(#softGlow)"/>
<circle cx="1183.9" cy="769.1" r="7.0" fill="#c8f7ff" opacity="0.223" filter="url(#softGlow)"/>
<circle cx="1164.8" cy="870.0" r="4.0" fill="#c8f7ff" opacity="0.293" filter="url(#softGlow)"/>
<circle cx="1013.7" cy="941.9" r="5.0" fill="#c8f7ff" opacity="0.335" filter="url(#softGlow)"/>






<g opacity="0.798" filter="url(#softGlow)">
  <line x1="1181.5" y1="461.9" x2="1561.5" y2="325.1" stroke="#75b9ff" stroke-width="8" stroke-linecap="round"/>
  <line x1="1199.5" y1="455.9" x2="1711.5" y2="271.1" stroke="#ffffff" stroke-width="2" stroke-linecap="round" opacity="0.92"/>
</g>

<circle cx="1370" cy="512" r="2.9" fill="#bff7ff" opacity="0.064" filter="url(#softGlow)"/>
<circle cx="424" cy="380" r="2.7" fill="#bff7ff" opacity="0.036" filter="url(#softGlow)"/>
<circle cx="450" cy="347" r="2.1" fill="#bff7ff" opacity="0.063" filter="url(#softGlow)"/>
<circle cx="1833" cy="79" r="3.3" fill="#bff7ff" opacity="0.024" filter="url(#softGlow)"/>
<circle cx="680" cy="98" r="2.0" fill="#bff7ff" opacity="0.073" filter="url(#softGlow)"/>
<circle cx="1783" cy="684" r="1.6" fill="#bff7ff" opacity="0.087" filter="url(#softGlow)"/>
<circle cx="1643" cy="140" r="2.8" fill="#bff7ff" opacity="0.043" filter="url(#softGlow)"/>
<circle cx="1500" cy="674" r="4.0" fill="#bff7ff" opacity="0.096" filter="url(#softGlow)"/>
<circle cx="394" cy="955" r="1.7" fill="#bff7ff" opacity="0.045" filter="url(#softGlow)"/>
<circle cx="115" cy="166" r="1.5" fill="#bff7ff" opacity="0.101" filter="url(#softGlow)"/>
<circle cx="1175" cy="734" r="1.9" fill="#bff7ff" opacity="0.056" filter="url(#softGlow)"/>
<circle cx="1605" cy="466" r="2.5" fill="#bff7ff" opacity="0.113" filter="url(#softGlow)"/>
<circle cx="689" cy="597" r="2.7" fill="#bff7ff" opacity="0.039" filter="url(#softGlow)"/>
<circle cx="391" cy="290" r="3.7" fill="#bff7ff" opacity="0.057" filter="url(#softGlow)"/>
</svg>