<svg xmlns="http://www.w3.org/2000/svg" width="1920" height="1080" viewBox="0 0 1920 1080">
<defs>
<radialGradient id="spaceGlow" cx="52%" cy="56%" r="54%"><stop offset="0%" stop-color="#132a42"/><stop offset="38%" stop-color="#111630"/><stop offset="100%" stop-color="#030712"/></radialGradient>
<radialGradient id="robotBody" cx="40%" cy="24%" r="85%"><stop offset="0%" stop-color="#ffffff"/><stop offset="52%" stop-color="#dce9ff"/><stop offset="100%" stop-color="#93a6bd"/></radialGradient>
<radialGradient id="blueCore" cx="40%" cy="30%" r="70%"><stop offset="0%" stop-color="#8df4ff"/><stop offset="45%" stop-color="#4895ff"/><stop offset="100%" stop-color="#1a47ff"/></radialGradient>
<filter id="softGlow" x="-80%" y="-80%" width="260%" height="260%"><feGaussianBlur stdDeviation="16" result="blur"/><feMerge><feMergeNode in="blur"/><feMergeNode in="SourceGraphic"/></feMerge></filter>
<filter id="wideGlow" x="-120%" y="-120%" width="340%" height="340%"><feGaussianBlur stdDeviation="34" result="blur"/><feMerge><feMergeNode in="blur"/><feMergeNode in="SourceGraphic"/></feMerge></filter>
</defs>
<ellipse cx="960" cy="776.0" rx="280.1" ry="203.6" fill="none" stroke="#70d6ff" stroke-width="4" opacity="0.169" filter="url(#softGlow)"/>
<path d="M820 740 C770 700 770 825 825 795" stroke="#c4f4ff" stroke-width="10" opacity="0.247" fill="none" stroke-linecap="round" filter="url(#softGlow)"/>
<path d="M1098 724 C1162 686 1164 822 1098 794" stroke="#c4f4ff" stroke-width="10" opacity="0.233" fill="none" stroke-linecap="round" filter="url(#softGlow)"/>
<circle cx="889.0" cy="896.9" r="4.0" fill="#c8f7ff" opacity="0.331" filter="url(#softGlow)"/>
<circle cx="769.9" cy="935.4" r="5.0" fill="#c8f7ff" opacity="0.284" filter="url(#softGlow)"/>
<circle cx="702.7" cy="841.3" r="6.0" fill="#c8f7ff" opacity="0.211" filter="url(#softGlow)"/>
<circle cx="815.0" cy="726.1" r="7.0" fill="#c8f7ff" opacity="0.142" filter="url(#softGlow)"/>
<circle cx="907.1" cy="640.2" r="4.0" fill="#c8f7ff" opacity="0.103" filter="url(#softGlow)"/>
<circle cx="1058.5" cy="588.2" r="5.0" fill="#c8f7ff" opacity="0.109" filter="url(#softGlow)"/>
<circle cx="1122.1" cy="672.1" r="6.0" fill="#c8f7ff" opacity="0.157" filter="url(#softGlow)"/>
<circle cx="1183.3" cy="781.2" r="7.0" fill="#c8f7ff" opacity="0.230" filter="url(#softGlow)"/>
<circle cx="1155.5" cy="877.0" r="4.0" fill="#c8f7ff" opacity="0.298" filter="url(#softGlow)"/>
<circle cx="1003.3" cy="941.9" r="5.0" fill="#c8f7ff" opacity="0.337" filter="url(#softGlow)"/>






<g opacity="0.866" filter="url(#softGlow)">
  <line x1="1131.7" y1="480.2" x2="1511.7" y2="343.4" stroke="#75b9ff" stroke-width="8" stroke-linecap="round"/>
  <line x1="1149.7" y1="474.2" x2="1661.7" y2="289.4" stroke="#ffffff" stroke-width="2" stroke-linecap="round" opacity="0.92"/>
</g>

<circle cx="1370" cy="512" r="2.9" fill="#bff7ff" opacity="0.068" filter="url(#softGlow)"/>
<circle cx="424" cy="380" r="2.7" fill="#bff7ff" opacity="0.039" filter="url(#softGlow)"/>
<circle cx="450" cy="347" r="2.1" fill="#bff7ff" opacity="0.067" filter="url(#softGlow)"/>
<circle cx="1833" cy="79" r="3.3" fill="#bff7ff" opacity="0.026" filter="url(#softGlow)"/>
<circle cx="680" cy="98" r="2.0" fill="#bff7ff" opacity="0.077" filter="url(#softGlow)"/>
<circle cx="1783" cy="684" r="1.6" fill="#bff7ff" opacity="0.092" filter="url(#softGlow)"/>
<circle cx="1643" cy="140" r="2.8" fill="#bff7ff" opacity="0.046" filter="url(#softGlow)"/>
<circle cx="1500" cy="674" r="4.0" fill="#bff7ff" opacity="0.101" filter="url(#softGlow)"/>
<circle cx="394" cy="955" r="1.7" fill="#bff7ff" opacity="0.048" filter="url(#softGlow)"/>
<circle cx="115" cy="166" r="1.5" fill="#bff7ff" opacity="0.107" filter="url(#softGlow)"/>
<circle cx="1175" cy="734" r="1.9" fill="#bff7ff" opacity="0.060" filter="url(#softGlow)"/>
<circle cx="1605" cy="466" r="2.5" fill="#bff7ff" opacity="0.120" filter="url(#softGlow)"/>
<circle cx="689" cy="597" r="2.7" fill="#bff7ff" opacity="0.042" filter="url(#softGlow)"/>
<circle cx="391" cy="290" r="3.7" fill="#bff7ff" opacity="0.061" filter="url(#softGlow)"/>
</svg>