<svg xmlns="http://www.w3.org/2000/svg" width="1920" height="1080" viewBox="0 0 1920 1080">
<defs>
<radialGradient id="spaceGlow" cx="52%" cy="56%" r="54%"><stop offset="0%" stop-color="#132a42"/><stop offset="38%" stop-color="#111630"/><stop offset="100%" stop-color="#030712"/></radialGradient>
<radialGradient id="robotBody" cx="40%" cy="24%" r="85%"><stop offset="0%" stop-color="#ffffff"/><stop offset="52%" stop-color="#dce9ff"/><stop offset="100%" stop-color="#93a6bd"/></radialGradient>
<radialGradient id="blueCore" cx="40%" cy="30%" r="70%"><stop offset="0%" stop-color="#8df4ff"/><stop offset="45%" stop-color="#4895ff"/><stop offset="100%" stop-color="#1a47ff"/></radialGradient>
<filter id="softGlow" x="-80%" y="-80%" width="260%" height="260%"><feGaussianBlur stdDeviation="16" result="blur"/><feMerge><feMergeNode in="blur"/><feMergeNode in="SourceGraphic"/></feMerge></filter>
<filter id="wideGlow" x="-120%" y="-120%" width="340%" height="340%"><feGaussianBlur stdDeviation="34" result="blur"/><feMerge><feMergeNode in="blur"/><feMergeNode in="SourceGraphic"/></feMerge></filter>
</defs>
<ellipse cx="960" cy="775.4" rx="282.3" ry="204.8" fill="none" stroke="#70d6ff" stroke-width="4" opacity="0.178" filter="url(#softGlow)"/>
<path d="M820 740 C770 700 770 825 825 795" stroke="#c4f4ff" stroke-width="10" opacity="0.262" fill="none" stroke-linecap="round" filter="url(#softGlow)"/>
<path d="M1098 724 C1162 686 1164 822 1098 794" stroke="#c4f4ff" stroke-width="10" opacity="0.218" fill="none" stroke-linecap="round" filter="url(#softGlow)"/>
<circle cx="879.1" cy="901.3" r="4.0" fill="#c8f7ff" opacity="0.329" filter="url(#softGlow)"/>
<circle cx="763.5" cy="931.7" r="5.0" fill="#c8f7ff" opacity="0.278" filter="url(#softGlow)"/>
<circle cx="704.1" cy="832.4" r="6.0" fill="#c8f7ff" opacity="0.205" filter="url(#softGlow)"/>
<circle cx="822.2" cy="714.4" r="7.0" fill="#c8f7ff" opacity="0.137" filter="url(#softGlow)"/>
<circle cx="919.5" cy="634.8" r="4.0" fill="#c8f7ff" opacity="0.102" filter="url(#softGlow)"/>
<circle cx="1071.8" cy="590.4" r="5.0" fill="#c8f7ff" opacity="0.112" filter="url(#softGlow)"/>
<circle cx="1127.4" cy="680.4" r="6.0" fill="#c8f7ff" opacity="0.163" filter="url(#softGlow)"/>
<circle cx="1181.9" cy="793.2" r="7.0" fill="#c8f7ff" opacity="0.236" filter="url(#softGlow)"/>
<circle cx="1145.7" cy="883.4" r="4.0" fill="#c8f7ff" opacity="0.303" filter="url(#softGlow)"/>
<circle cx="992.8" cy="941.0" r="5.0" fill="#c8f7ff" opacity="0.338" filter="url(#softGlow)"/>






<g opacity="0.921" filter="url(#softGlow)">
  <line x1="1087.3" y1="496.5" x2="1467.3" y2="359.7" stroke="#75b9ff" stroke-width="8" stroke-linecap="round"/>
  <line x1="1105.3" y1="490.5" x2="1617.3" y2="305.7" stroke="#ffffff" stroke-width="2" stroke-linecap="round" opacity="0.92"/>
</g>

<circle cx="1370" cy="512" r="2.9" fill="#bff7ff" opacity="0.071" filter="url(#softGlow)"/>
<circle cx="424" cy="380" r="2.7" fill="#bff7ff" opacity="0.041" filter="url(#softGlow)"/>
<circle cx="450" cy="347" r="2.1" fill="#bff7ff" opacity="0.071" filter="url(#softGlow)"/>
<circle cx="1833" cy="79" r="3.3" fill="#bff7ff" opacity="0.027" filter="url(#softGlow)"/>
<circle cx="680" cy="98" r="2.0" fill="#bff7ff" opacity="0.081" filter="url(#softGlow)"/>
<circle cx="1783" cy="684" r="1.6" fill="#bff7ff" opacity="0.097" filter="url(#softGlow)"/>
<circle cx="1643" cy="140" r="2.8" fill="#bff7ff" opacity="0.048" filter="url(#softGlow)"/>
<circle cx="1500" cy="674" r="4.0" fill="#bff7ff" opacity="0.107" filter="url(#softGlow)"/>
<circle cx="394" cy="955" r="1.7" fill="#bff7ff" opacity="0.050" filter="url(#softGlow)"/>
<circle cx="115" cy="166" r="1.5" fill="#bff7ff" opacity="0.113" filter="url(#softGlow)"/>
<circle cx="1175" cy="734" r="1.9" fill="#bff7ff" opacity="0.063" filter="url(#softGlow)"/>
<circle cx="1605" cy="466" r="2.5" fill="#bff7ff" opacity="0.126" filter="url(#softGlow)"/>
<circle cx="689" cy="597" r="2.7" fill="#bff7ff" opacity="0.044" filter="url(#softGlow)"/>
<circle cx="391" cy="290" r="3.7" fill="#bff7ff" opacity="0.064" filter="url(#softGlow)"/>
</svg>