<svg xmlns="http://www.w3.org/2000/svg" width="1920" height="1080" viewBox="0 0 1920 1080">
<defs>
<radialGradient id="spaceGlow" cx="52%" cy="56%" r="54%"><stop offset="0%" stop-color="#132a42"/><stop offset="38%" stop-color="#111630"/><stop offset="100%" stop-color="#030712"/></radialGradient>
<radialGradient id="robotBody" cx="40%" cy="24%" r="85%"><stop offset="0%" stop-color="#ffffff"/><stop offset="52%" stop-color="#dce9ff"/><stop offset="100%" stop-color="#93a6bd"/></radialGradient>
<radialGradient id="blueCore" cx="40%" cy="30%" r="70%"><stop offset="0%" stop-color="#8df4ff"/><stop offset="45%" stop-color="#4895ff"/><stop offset="100%" stop-color="#1a47ff"/></radialGradient>
<filter id="softGlow" x="-80%" y="-80%" width="260%" height="260%"><feGaussianBlur stdDeviation="16" result="blur"/><feMerge><feMergeNode in="blur"/><feMergeNode in="SourceGraphic"/></feMerge></filter>
<filter id="wideGlow" x="-120%" y="-120%" width="340%" height="340%"><feGaussianBlur stdDeviation="34" result="blur"/><feMerge><feMergeNode in="blur"/><feMergeNode in="SourceGraphic"/></feMerge></filter>
</defs>
<ellipse cx="960" cy="774.0" rx="285.9" ry="206.8" fill="none" stroke="#70d6ff" stroke-width="4" opacity="0.192" filter="url(#softGlow)"/>
<path d="M820 740 C770 700 770 825 825 795" stroke="#c4f4ff" stroke-width="10" opacity="0.286" fill="none" stroke-linecap="round" filter="url(#softGlow)"/>
<path d="M1098 724 C1162 686 1164 822 1098 794" stroke="#c4f4ff" stroke-width="10" opacity="0.194" fill="none" stroke-linecap="round" filter="url(#softGlow)"/>
<circle cx="860.2" cy="908.2" r="4.0" fill="#c8f7ff" opacity="0.322" filter="url(#softGlow)"/>
<circle cx="752.6" cy="922.1" r="5.0" fill="#c8f7ff" opacity="0.265" filter="url(#softGlow)"/>
<circle cx="709.5" cy="813.7" r="6.0" fill="#c8f7ff" opacity="0.191" filter="url(#softGlow)"/>
<circle cx="837.8" cy="691.7" r="7.0" fill="#c8f7ff" opacity="0.128" filter="url(#softGlow)"/>
<circle cx="944.7" cy="625.6" r="4.0" fill="#c8f7ff" opacity="0.100" filter="url(#softGlow)"/>
<circle cx="1097.4" cy="597.4" r="5.0" fill="#c8f7ff" opacity="0.118" filter="url(#softGlow)"/>
<circle cx="1136.5" cy="698.1" r="6.0" fill="#c8f7ff" opacity="0.176" filter="url(#softGlow)"/>
<circle cx="1177.0" cy="816.8" r="7.0" fill="#c8f7ff" opacity="0.250" filter="url(#softGlow)"/>
<circle cx="1124.2" cy="894.6" r="4.0" fill="#c8f7ff" opacity="0.313" filter="url(#softGlow)"/>
<circle cx="971.4" cy="936.8" r="5.0" fill="#c8f7ff" opacity="0.340" filter="url(#softGlow)"/>






<g opacity="0.988" filter="url(#softGlow)">
  <line x1="1013.9" y1="523.4" x2="1393.9" y2="386.6" stroke="#75b9ff" stroke-width="8" stroke-linecap="round"/>
  <line x1="1031.9" y1="517.4" x2="1543.9" y2="332.6" stroke="#ffffff" stroke-width="2" stroke-linecap="round" opacity="0.92"/>
</g>

<circle cx="1087" cy="1010" r="3.5" fill="#bff7ff" opacity="0.053" filter="url(#softGlow)"/>
<circle cx="318" cy="121" r="3.0" fill="#bff7ff" opacity="0.105" filter="url(#softGlow)"/>
<circle cx="210" cy="613" r="2.2" fill="#bff7ff" opacity="0.120" filter="url(#softGlow)"/>
<circle cx="1635" cy="819" r="2.7" fill="#bff7ff" opacity="0.036" filter="url(#softGlow)"/>
<circle cx="540" cy="33" r="1.9" fill="#bff7ff" opacity="0.131" filter="url(#softGlow)"/>
<circle cx="165" cy="188" r="3.1" fill="#bff7ff" opacity="0.152" filter="url(#softGlow)"/>
<circle cx="738" cy="625" r="1.5" fill="#bff7ff" opacity="0.138" filter="url(#softGlow)"/>
<circle cx="817" cy="885" r="2.3" fill="#bff7ff" opacity="0.071" filter="url(#softGlow)"/>
<circle cx="1663" cy="344" r="2.5" fill="#bff7ff" opacity="0.109" filter="url(#softGlow)"/>
<circle cx="234" cy="661" r="3.0" fill="#bff7ff" opacity="0.048" filter="url(#softGlow)"/>
<circle cx="1093" cy="230" r="2.5" fill="#bff7ff" opacity="0.064" filter="url(#softGlow)"/>
<circle cx="1660" cy="824" r="4.0" fill="#bff7ff" opacity="0.153" filter="url(#softGlow)"/>
<circle cx="641" cy="508" r="3.9" fill="#bff7ff" opacity="0.133" filter="url(#softGlow)"/>
<circle cx="1060" cy="146" r="3.5" fill="#bff7ff" opacity="0.065" filter="url(#softGlow)"/>
</svg>