<svg xmlns="http://www.w3.org/2000/svg" width="1920" height="1080" viewBox="0 0 1920 1080">
<defs>
<radialGradient id="spaceGlow" cx="52%" cy="56%" r="54%"><stop offset="0%" stop-color="#132a42"/><stop offset="38%" stop-color="#111630"/><stop offset="100%" stop-color="#030712"/></radialGradient>
<radialGradient id="robotBody" cx="40%" cy="24%" r="85%"><stop offset="0%" stop-color="#ffffff"/><stop offset="52%" stop-color="#dce9ff"/><stop offset="100%" stop-color="#93a6bd"/></radialGradient>
<radialGradient id="blueCore" cx="40%" cy="30%" r="70%"><stop offset="0%" stop-color="#8df4ff"/><stop offset="45%" stop-color="#4895ff"/><stop offset="100%" stop-color="#1a47ff"/></radialGradient>
<filter id="softGlow" x="-80%" y="-80%" width="260%" height="260%"><feGaussianBlur stdDeviation="16" result="blur"/><feMerge><feMergeNode in="blur"/><feMergeNode in="SourceGraphic"/></feMerge></filter>
<filter id="wideGlow" x="-120%" y="-120%" width="340%" height="340%"><feGaussianBlur stdDeviation="34" result="blur"/><feMerge><feMergeNode in="blur"/><feMergeNode in="SourceGraphic"/></feMerge></filter>
</defs>
<ellipse cx="960" cy="772.2" rx="287.8" ry="207.9" fill="none" stroke="#70d6ff" stroke-width="4" opacity="0.199" filter="url(#softGlow)"/>
<path d="M820 740 C770 700 770 825 825 795" stroke="#c4f4ff" stroke-width="10" opacity="0.299" fill="none" stroke-linecap="round" filter="url(#softGlow)"/>
<path d="M1098 724 C1162 686 1164 822 1098 794" stroke="#c4f4ff" stroke-width="10" opacity="0.181" fill="none" stroke-linecap="round" filter="url(#softGlow)"/>
<circle cx="842.5" cy="912.5" r="4.0" fill="#c8f7ff" opacity="0.314" filter="url(#softGlow)"/>
<circle cx="744.4" cy="909.6" r="5.0" fill="#c8f7ff" opacity="0.253" filter="url(#softGlow)"/>
<circle cx="718.1" cy="794.0" r="6.0" fill="#c8f7ff" opacity="0.178" filter="url(#softGlow)"/>
<circle cx="855.1" cy="670.3" r="7.0" fill="#c8f7ff" opacity="0.120" filter="url(#softGlow)"/>
<circle cx="970.0" cy="619.1" r="4.0" fill="#c8f7ff" opacity="0.100" filter="url(#softGlow)"/>
<circle cx="1121.2" cy="607.4" r="5.0" fill="#c8f7ff" opacity="0.126" filter="url(#softGlow)"/>
<circle cx="1143.3" cy="716.9" r="6.0" fill="#c8f7ff" opacity="0.188" filter="url(#softGlow)"/>
<circle cx="1169.3" cy="839.3" r="7.0" fill="#c8f7ff" opacity="0.263" filter="url(#softGlow)"/>
<circle cx="1100.7" cy="903.4" r="4.0" fill="#c8f7ff" opacity="0.321" filter="url(#softGlow)"/>
<circle cx="949.9" cy="929.4" r="5.0" fill="#c8f7ff" opacity="0.340" filter="url(#softGlow)"/>






<g opacity="0.996" filter="url(#softGlow)">
  <line x1="958.8" y1="543.6" x2="1338.8" y2="406.8" stroke="#75b9ff" stroke-width="8" stroke-linecap="round"/>
  <line x1="976.8" y1="537.6" x2="1488.8" y2="352.8" stroke="#ffffff" stroke-width="2" stroke-linecap="round" opacity="0.92"/>
</g>

<circle cx="1281" cy="481" r="3.8" fill="#bff7ff" opacity="0.095" filter="url(#softGlow)"/>
<circle cx="926" cy="818" r="2.6" fill="#bff7ff" opacity="0.042" filter="url(#softGlow)"/>
<circle cx="1403" cy="116" r="1.6" fill="#bff7ff" opacity="0.173" filter="url(#softGlow)"/>
<circle cx="1639" cy="530" r="2.1" fill="#bff7ff" opacity="0.098" filter="url(#softGlow)"/>
<circle cx="448" cy="733" r="3.9" fill="#bff7ff" opacity="0.044" filter="url(#softGlow)"/>
<circle cx="1330" cy="422" r="3.2" fill="#bff7ff" opacity="0.137" filter="url(#softGlow)"/>
<circle cx="1564" cy="127" r="3.7" fill="#bff7ff" opacity="0.102" filter="url(#softGlow)"/>
<circle cx="1415" cy="641" r="3.1" fill="#bff7ff" opacity="0.062" filter="url(#softGlow)"/>
<circle cx="731" cy="352" r="2.7" fill="#bff7ff" opacity="0.133" filter="url(#softGlow)"/>
<circle cx="1518" cy="48" r="2.9" fill="#bff7ff" opacity="0.111" filter="url(#softGlow)"/>
<circle cx="407" cy="439" r="3.4" fill="#bff7ff" opacity="0.106" filter="url(#softGlow)"/>
<circle cx="1166" cy="481" r="1.8" fill="#bff7ff" opacity="0.104" filter="url(#softGlow)"/>
<circle cx="608" cy="863" r="3.1" fill="#bff7ff" opacity="0.106" filter="url(#softGlow)"/>
<circle cx="1512" cy="305" r="2.3" fill="#bff7ff" opacity="0.107" filter="url(#softGlow)"/>
</svg>