<svg xmlns="http://www.w3.org/2000/svg" width="1920" height="1080" viewBox="0 0 1920 1080">
<defs>
<radialGradient id="spaceGlow" cx="52%" cy="56%" r="54%"><stop offset="0%" stop-color="#132a42"/><stop offset="38%" stop-color="#111630"/><stop offset="100%" stop-color="#030712"/></radialGradient>
<radialGradient id="robotBody" cx="40%" cy="24%" r="85%"><stop offset="0%" stop-color="#ffffff"/><stop offset="52%" stop-color="#dce9ff"/><stop offset="100%" stop-color="#93a6bd"/></radialGradient>
<radialGradient id="blueCore" cx="40%" cy="30%" r="70%"><stop offset="0%" stop-color="#8df4ff"/><stop offset="45%" stop-color="#4895ff"/><stop offset="100%" stop-color="#1a47ff"/></radialGradient>
<filter id="softGlow" x="-80%" y="-80%" width="260%" height="260%"><feGaussianBlur stdDeviation="16" result="blur"/><feMerge><feMergeNode in="blur"/><feMergeNode in="SourceGraphic"/></feMerge></filter>
<filter id="wideGlow" x="-120%" y="-120%" width="340%" height="340%"><feGaussianBlur stdDeviation="34" result="blur"/><feMerge><feMergeNode in="blur"/><feMergeNode in="SourceGraphic"/></feMerge></filter>
</defs>
<ellipse cx="960" cy="771.3" rx="288.0" ry="208.0" fill="none" stroke="#70d6ff" stroke-width="4" opacity="0.200" filter="url(#softGlow)"/>
<path d="M820 740 C770 700 770 825 825 795" stroke="#c4f4ff" stroke-width="10" opacity="0.300" fill="none" stroke-linecap="round" filter="url(#softGlow)"/>
<path d="M1098 724 C1162 686 1164 822 1098 794" stroke="#c4f4ff" stroke-width="10" opacity="0.180" fill="none" stroke-linecap="round" filter="url(#softGlow)"/>
<circle cx="834.3" cy="913.6" r="4.0" fill="#c8f7ff" opacity="0.310" filter="url(#softGlow)"/>
<circle cx="741.3" cy="902.3" r="5.0" fill="#c8f7ff" opacity="0.246" filter="url(#softGlow)"/>
<circle cx="723.6" cy="784.0" r="6.0" fill="#c8f7ff" opacity="0.172" filter="url(#softGlow)"/>
<circle cx="864.2" cy="660.2" r="7.0" fill="#c8f7ff" opacity="0.116" filter="url(#softGlow)"/>
<circle cx="982.7" cy="616.8" r="4.0" fill="#c8f7ff" opacity="0.101" filter="url(#softGlow)"/>
<circle cx="1132.3" cy="613.5" r="5.0" fill="#c8f7ff" opacity="0.131" filter="url(#softGlow)"/>
<circle cx="1145.9" cy="726.7" r="6.0" fill="#c8f7ff" opacity="0.195" filter="url(#softGlow)"/>
<circle cx="1164.5" cy="850.1" r="7.0" fill="#c8f7ff" opacity="0.269" filter="url(#softGlow)"/>
<circle cx="1088.2" cy="906.9" r="4.0" fill="#c8f7ff" opacity="0.324" filter="url(#softGlow)"/>
<circle cx="939.2" cy="924.6" r="5.0" fill="#c8f7ff" opacity="0.339" filter="url(#softGlow)"/>






<g opacity="0.977" filter="url(#softGlow)">
  <line x1="937.2" y1="551.5" x2="1317.2" y2="414.7" stroke="#75b9ff" stroke-width="8" stroke-linecap="round"/>
  <line x1="955.2" y1="545.5" x2="1467.2" y2="360.7" stroke="#ffffff" stroke-width="2" stroke-linecap="round" opacity="0.92"/>
</g>

<circle cx="1281" cy="481" r="3.8" fill="#bff7ff" opacity="0.099" filter="url(#softGlow)"/>
<circle cx="926" cy="818" r="2.6" fill="#bff7ff" opacity="0.043" filter="url(#softGlow)"/>
<circle cx="1403" cy="116" r="1.6" fill="#bff7ff" opacity="0.180" filter="url(#softGlow)"/>
<circle cx="1639" cy="530" r="2.1" fill="#bff7ff" opacity="0.101" filter="url(#softGlow)"/>
<circle cx="448" cy="733" r="3.9" fill="#bff7ff" opacity="0.046" filter="url(#softGlow)"/>
<circle cx="1330" cy="422" r="3.2" fill="#bff7ff" opacity="0.142" filter="url(#softGlow)"/>
<circle cx="1564" cy="127" r="3.7" fill="#bff7ff" opacity="0.105" filter="url(#softGlow)"/>
<circle cx="1415" cy="641" r="3.1" fill="#bff7ff" opacity="0.064" filter="url(#softGlow)"/>
<circle cx="731" cy="352" r="2.7" fill="#bff7ff" opacity="0.138" filter="url(#softGlow)"/>
<circle cx="1518" cy="48" r="2.9" fill="#bff7ff" opacity="0.115" filter="url(#softGlow)"/>
<circle cx="407" cy="439" r="3.4" fill="#bff7ff" opacity="0.110" filter="url(#softGlow)"/>
<circle cx="1166" cy="481" r="1.8" fill="#bff7ff" opacity="0.107" filter="url(#softGlow)"/>
<circle cx="608" cy="863" r="3.1" fill="#bff7ff" opacity="0.110" filter="url(#softGlow)"/>
<circle cx="1512" cy="305" r="2.3" fill="#bff7ff" opacity="0.111" filter="url(#softGlow)"/>
</svg>