<svg xmlns="http://www.w3.org/2000/svg" width="1920" height="1080" viewBox="0 0 1920 1080">
<defs>
<radialGradient id="spaceGlow" cx="52%" cy="56%" r="54%"><stop offset="0%" stop-color="#132a42"/><stop offset="38%" stop-color="#111630"/><stop offset="100%" stop-color="#030712"/></radialGradient>
<radialGradient id="robotBody" cx="40%" cy="24%" r="85%"><stop offset="0%" stop-color="#ffffff"/><stop offset="52%" stop-color="#dce9ff"/><stop offset="100%" stop-color="#93a6bd"/></radialGradient>
<radialGradient id="blueCore" cx="40%" cy="30%" r="70%"><stop offset="0%" stop-color="#8df4ff"/><stop offset="45%" stop-color="#4895ff"/><stop offset="100%" stop-color="#1a47ff"/></radialGradient>
<filter id="softGlow" x="-80%" y="-80%" width="260%" height="260%"><feGaussianBlur stdDeviation="16" result="blur"/><feMerge><feMergeNode in="blur"/><feMergeNode in="SourceGraphic"/></feMerge></filter>
<filter id="wideGlow" x="-120%" y="-120%" width="340%" height="340%"><feGaussianBlur stdDeviation="34" result="blur"/><feMerge><feMergeNode in="blur"/><feMergeNode in="SourceGraphic"/></feMerge></filter>
</defs>
<ellipse cx="960" cy="770.3" rx="287.6" ry="207.8" fill="none" stroke="#70d6ff" stroke-width="4" opacity="0.198" filter="url(#softGlow)"/>
<path d="M820 740 C770 700 770 825 825 795" stroke="#c4f4ff" stroke-width="10" opacity="0.297" fill="none" stroke-linecap="round" filter="url(#softGlow)"/>
<path d="M1098 724 C1162 686 1164 822 1098 794" stroke="#c4f4ff" stroke-width="10" opacity="0.183" fill="none" stroke-linecap="round" filter="url(#softGlow)"/>
<circle cx="826.4" cy="914.0" r="4.0" fill="#c8f7ff" opacity="0.305" filter="url(#softGlow)"/>
<circle cx="738.9" cy="894.3" r="5.0" fill="#c8f7ff" opacity="0.239" filter="url(#softGlow)"/>
<circle cx="729.9" cy="773.8" r="6.0" fill="#c8f7ff" opacity="0.166" filter="url(#softGlow)"/>
<circle cx="873.6" cy="650.6" r="7.0" fill="#c8f7ff" opacity="0.113" filter="url(#softGlow)"/>
<circle cx="995.3" cy="615.2" r="4.0" fill="#c8f7ff" opacity="0.101" filter="url(#softGlow)"/>
<circle cx="1142.9" cy="620.3" r="5.0" fill="#c8f7ff" opacity="0.135" filter="url(#softGlow)"/>
<circle cx="1147.8" cy="736.7" r="6.0" fill="#c8f7ff" opacity="0.202" filter="url(#softGlow)"/>
<circle cx="1159.0" cy="860.5" r="7.0" fill="#c8f7ff" opacity="0.275" filter="url(#softGlow)"/>
<circle cx="1075.3" cy="909.6" r="4.0" fill="#c8f7ff" opacity="0.327" filter="url(#softGlow)"/>
<circle cx="928.5" cy="919.0" r="5.0" fill="#c8f7ff" opacity="0.338" filter="url(#softGlow)"/>






<g opacity="0.943" filter="url(#softGlow)">
  <line x1="919.3" y1="558.1" x2="1299.3" y2="421.3" stroke="#75b9ff" stroke-width="8" stroke-linecap="round"/>
  <line x1="937.3" y1="552.1" x2="1449.3" y2="367.3" stroke="#ffffff" stroke-width="2" stroke-linecap="round" opacity="0.92"/>
</g>

<circle cx="1281" cy="481" r="3.8" fill="#bff7ff" opacity="0.102" filter="url(#softGlow)"/>
<circle cx="926" cy="818" r="2.6" fill="#bff7ff" opacity="0.045" filter="url(#softGlow)"/>
<circle cx="1403" cy="116" r="1.6" fill="#bff7ff" opacity="0.186" filter="url(#softGlow)"/>
<circle cx="1639" cy="530" r="2.1" fill="#bff7ff" opacity="0.104" filter="url(#softGlow)"/>
<circle cx="448" cy="733" r="3.9" fill="#bff7ff" opacity="0.047" filter="url(#softGlow)"/>
<circle cx="1330" cy="422" r="3.2" fill="#bff7ff" opacity="0.147" filter="url(#softGlow)"/>
<circle cx="1564" cy="127" r="3.7" fill="#bff7ff" opacity="0.109" filter="url(#softGlow)"/>
<circle cx="1415" cy="641" r="3.1" fill="#bff7ff" opacity="0.066" filter="url(#softGlow)"/>
<circle cx="731" cy="352" r="2.7" fill="#bff7ff" opacity="0.143" filter="url(#softGlow)"/>
<circle cx="1518" cy="48" r="2.9" fill="#bff7ff" opacity="0.119" filter="url(#softGlow)"/>
<circle cx="407" cy="439" r="3.4" fill="#bff7ff" opacity="0.113" filter="url(#softGlow)"/>
<circle cx="1166" cy="481" r="1.8" fill="#bff7ff" opacity="0.111" filter="url(#softGlow)"/>
<circle cx="608" cy="863" r="3.1" fill="#bff7ff" opacity="0.114" filter="url(#softGlow)"/>
<circle cx="1512" cy="305" r="2.3" fill="#bff7ff" opacity="0.114" filter="url(#softGlow)"/>
</svg>