<svg xmlns="http://www.w3.org/2000/svg" width="1920" height="1080" viewBox="0 0 1920 1080">
<defs>
<radialGradient id="spaceGlow" cx="52%" cy="56%" r="54%"><stop offset="0%" stop-color="#132a42"/><stop offset="38%" stop-color="#111630"/><stop offset="100%" stop-color="#030712"/></radialGradient>
<radialGradient id="robotBody" cx="40%" cy="24%" r="85%"><stop offset="0%" stop-color="#ffffff"/><stop offset="52%" stop-color="#dce9ff"/><stop offset="100%" stop-color="#93a6bd"/></radialGradient>
<radialGradient id="blueCore" cx="40%" cy="30%" r="70%"><stop offset="0%" stop-color="#8df4ff"/><stop offset="45%" stop-color="#4895ff"/><stop offset="100%" stop-color="#1a47ff"/></radialGradient>
<filter id="softGlow" x="-80%" y="-80%" width="260%" height="260%"><feGaussianBlur stdDeviation="16" result="blur"/><feMerge><feMergeNode in="blur"/><feMergeNode in="SourceGraphic"/></feMerge></filter>
<filter id="wideGlow" x="-120%" y="-120%" width="340%" height="340%"><feGaussianBlur stdDeviation="34" result="blur"/><feMerge><feMergeNode in="blur"/><feMergeNode in="SourceGraphic"/></feMerge></filter>
</defs>
<ellipse cx="960" cy="768.1" rx="285.3" ry="206.5" fill="none" stroke="#70d6ff" stroke-width="4" opacity="0.189" filter="url(#softGlow)"/>
<path d="M820 740 C770 700 770 825 825 795" stroke="#c4f4ff" stroke-width="10" opacity="0.282" fill="none" stroke-linecap="round" filter="url(#softGlow)"/>
<path d="M1098 724 C1162 686 1164 822 1098 794" stroke="#c4f4ff" stroke-width="10" opacity="0.198" fill="none" stroke-linecap="round" filter="url(#softGlow)"/>
<circle cx="812.0" cy="912.7" r="4.0" fill="#c8f7ff" opacity="0.295" filter="url(#softGlow)"/>
<circle cx="736.3" cy="876.7" r="5.0" fill="#c8f7ff" opacity="0.226" filter="url(#softGlow)"/>
<circle cx="744.5" cy="753.4" r="6.0" fill="#c8f7ff" opacity="0.154" filter="url(#softGlow)"/>
<circle cx="893.3" cy="633.1" r="7.0" fill="#c8f7ff" opacity="0.108" filter="url(#softGlow)"/>
<circle cx="1020.1" cy="614.0" r="4.0" fill="#c8f7ff" opacity="0.104" filter="url(#softGlow)"/>
<circle cx="1162.3" cy="635.9" r="5.0" fill="#c8f7ff" opacity="0.146" filter="url(#softGlow)"/>
<circle cx="1149.9" cy="756.9" r="6.0" fill="#c8f7ff" opacity="0.215" filter="url(#softGlow)"/>
<circle cx="1146.0" cy="879.9" r="7.0" fill="#c8f7ff" opacity="0.287" filter="url(#softGlow)"/>
<circle cx="1048.5" cy="913.2" r="4.0" fill="#c8f7ff" opacity="0.333" filter="url(#softGlow)"/>
<circle cx="907.5" cy="905.7" r="5.0" fill="#c8f7ff" opacity="0.335" filter="url(#softGlow)"/>






<g opacity="0.834" filter="url(#softGlow)">
  <line x1="892.8" y1="567.8" x2="1272.8" y2="431.0" stroke="#75b9ff" stroke-width="8" stroke-linecap="round"/>
  <line x1="910.8" y1="561.8" x2="1422.8" y2="377.0" stroke="#ffffff" stroke-width="2" stroke-linecap="round" opacity="0.92"/>
</g>

<circle cx="316" cy="882" r="3.4" fill="#bff7ff" opacity="0.172" filter="url(#softGlow)"/>
<circle cx="1353" cy="635" r="3.2" fill="#bff7ff" opacity="0.055" filter="url(#softGlow)"/>
<circle cx="192" cy="741" r="3.7" fill="#bff7ff" opacity="0.189" filter="url(#softGlow)"/>
<circle cx="1674" cy="834" r="1.8" fill="#bff7ff" opacity="0.072" filter="url(#softGlow)"/>
<circle cx="1040" cy="641" r="3.7" fill="#bff7ff" opacity="0.046" filter="url(#softGlow)"/>
<circle cx="689" cy="525" r="3.9" fill="#bff7ff" opacity="0.074" filter="url(#softGlow)"/>
<circle cx="753" cy="736" r="3.1" fill="#bff7ff" opacity="0.131" filter="url(#softGlow)"/>
<circle cx="953" cy="675" r="1.7" fill="#bff7ff" opacity="0.127" filter="url(#softGlow)"/>
<circle cx="355" cy="728" r="3.9" fill="#bff7ff" opacity="0.197" filter="url(#softGlow)"/>
<circle cx="1699" cy="541" r="2.3" fill="#bff7ff" opacity="0.181" filter="url(#softGlow)"/>
<circle cx="1280" cy="97" r="2.7" fill="#bff7ff" opacity="0.128" filter="url(#softGlow)"/>
<circle cx="1028" cy="232" r="3.9" fill="#bff7ff" opacity="0.112" filter="url(#softGlow)"/>
<circle cx="465" cy="246" r="1.7" fill="#bff7ff" opacity="0.061" filter="url(#softGlow)"/>
<circle cx="1105" cy="910" r="1.9" fill="#bff7ff" opacity="0.108" filter="url(#softGlow)"/>
</svg>