<svg xmlns="http://www.w3.org/2000/svg" width="1920" height="1080" viewBox="0 0 1920 1080">
<defs>
<radialGradient id="spaceGlow" cx="52%" cy="56%" r="54%"><stop offset="0%" stop-color="#132a42"/><stop offset="38%" stop-color="#111630"/><stop offset="100%" stop-color="#030712"/></radialGradient>
<radialGradient id="robotBody" cx="40%" cy="24%" r="85%"><stop offset="0%" stop-color="#ffffff"/><stop offset="52%" stop-color="#dce9ff"/><stop offset="100%" stop-color="#93a6bd"/></radialGradient>
<radialGradient id="blueCore" cx="40%" cy="30%" r="70%"><stop offset="0%" stop-color="#8df4ff"/><stop offset="45%" stop-color="#4895ff"/><stop offset="100%" stop-color="#1a47ff"/></radialGradient>
<filter id="softGlow" x="-80%" y="-80%" width="260%" height="260%"><feGaussianBlur stdDeviation="16" result="blur"/><feMerge><feMergeNode in="blur"/><feMergeNode in="SourceGraphic"/></feMerge></filter>
<filter id="wideGlow" x="-120%" y="-120%" width="340%" height="340%"><feGaussianBlur stdDeviation="34" result="blur"/><feMerge><feMergeNode in="blur"/><feMergeNode in="SourceGraphic"/></feMerge></filter>
</defs>
<ellipse cx="960" cy="765.8" rx="281.4" ry="204.3" fill="none" stroke="#70d6ff" stroke-width="4" opacity="0.174" filter="url(#softGlow)"/>
<path d="M820 740 C770 700 770 825 825 795" stroke="#c4f4ff" stroke-width="10" opacity="0.256" fill="none" stroke-linecap="round" filter="url(#softGlow)"/>
<path d="M1098 724 C1162 686 1164 822 1098 794" stroke="#c4f4ff" stroke-width="10" opacity="0.224" fill="none" stroke-linecap="round" filter="url(#softGlow)"/>
<circle cx="799.5" cy="908.8" r="4.0" fill="#c8f7ff" opacity="0.284" filter="url(#softGlow)"/>
<circle cx="736.5" cy="857.0" r="5.0" fill="#c8f7ff" opacity="0.212" filter="url(#softGlow)"/>
<circle cx="762.0" cy="733.2" r="6.0" fill="#c8f7ff" opacity="0.143" filter="url(#softGlow)"/>
<circle cx="913.9" cy="617.9" r="7.0" fill="#c8f7ff" opacity="0.104" filter="url(#softGlow)"/>
<circle cx="1044.1" cy="615.6" r="4.0" fill="#c8f7ff" opacity="0.109" filter="url(#softGlow)"/>
<circle cx="1179.1" cy="653.9" r="5.0" fill="#c8f7ff" opacity="0.157" filter="url(#softGlow)"/>
<circle cx="1149.5" cy="777.3" r="6.0" fill="#c8f7ff" opacity="0.229" filter="url(#softGlow)"/>
<circle cx="1130.7" cy="897.1" r="7.0" fill="#c8f7ff" opacity="0.298" filter="url(#softGlow)"/>
<circle cx="1020.5" cy="913.9" r="4.0" fill="#c8f7ff" opacity="0.337" filter="url(#softGlow)"/>
<circle cx="887.2" cy="889.8" r="5.0" fill="#c8f7ff" opacity="0.331" filter="url(#softGlow)"/>






<g opacity="0.674" filter="url(#softGlow)">
  <line x1="876.7" y1="573.7" x2="1256.7" y2="436.9" stroke="#75b9ff" stroke-width="8" stroke-linecap="round"/>
  <line x1="894.7" y1="567.7" x2="1406.7" y2="382.9" stroke="#ffffff" stroke-width="2" stroke-linecap="round" opacity="0.92"/>
</g>

<circle cx="586" cy="952" r="3.6" fill="#bff7ff" opacity="0.151" filter="url(#softGlow)"/>
<circle cx="1211" cy="327" r="4.0" fill="#bff7ff" opacity="0.196" filter="url(#softGlow)"/>
<circle cx="623" cy="632" r="3.6" fill="#bff7ff" opacity="0.179" filter="url(#softGlow)"/>
<circle cx="1302" cy="672" r="3.2" fill="#bff7ff" opacity="0.182" filter="url(#softGlow)"/>
<circle cx="243" cy="59" r="1.6" fill="#bff7ff" opacity="0.147" filter="url(#softGlow)"/>
<circle cx="1593" cy="937" r="2.2" fill="#bff7ff" opacity="0.109" filter="url(#softGlow)"/>
<circle cx="1484" cy="124" r="3.5" fill="#bff7ff" opacity="0.207" filter="url(#softGlow)"/>
<circle cx="450" cy="233" r="1.9" fill="#bff7ff" opacity="0.104" filter="url(#softGlow)"/>
<circle cx="1759" cy="223" r="2.6" fill="#bff7ff" opacity="0.187" filter="url(#softGlow)"/>
<circle cx="502" cy="671" r="3.0" fill="#bff7ff" opacity="0.126" filter="url(#softGlow)"/>
<circle cx="1811" cy="326" r="2.2" fill="#bff7ff" opacity="0.104" filter="url(#softGlow)"/>
<circle cx="142" cy="282" r="2.1" fill="#bff7ff" opacity="0.042" filter="url(#softGlow)"/>
<circle cx="724" cy="408" r="3.3" fill="#bff7ff" opacity="0.090" filter="url(#softGlow)"/>
<circle cx="1022" cy="919" r="2.8" fill="#bff7ff" opacity="0.086" filter="url(#softGlow)"/>
</svg>