<svg xmlns="http://www.w3.org/2000/svg" width="1920" height="1080" viewBox="0 0 1920 1080">
<defs>
<radialGradient id="spaceGlow" cx="52%" cy="56%" r="54%"><stop offset="0%" stop-color="#132a42"/><stop offset="38%" stop-color="#111630"/><stop offset="100%" stop-color="#030712"/></radialGradient>
<radialGradient id="robotBody" cx="40%" cy="24%" r="85%"><stop offset="0%" stop-color="#ffffff"/><stop offset="52%" stop-color="#dce9ff"/><stop offset="100%" stop-color="#93a6bd"/></radialGradient>
<radialGradient id="blueCore" cx="40%" cy="30%" r="70%"><stop offset="0%" stop-color="#8df4ff"/><stop offset="45%" stop-color="#4895ff"/><stop offset="100%" stop-color="#1a47ff"/></radialGradient>
<filter id="softGlow" x="-80%" y="-80%" width="260%" height="260%"><feGaussianBlur stdDeviation="16" result="blur"/><feMerge><feMergeNode in="blur"/><feMergeNode in="SourceGraphic"/></feMerge></filter>
<filter id="wideGlow" x="-120%" y="-120%" width="340%" height="340%"><feGaussianBlur stdDeviation="34" result="blur"/><feMerge><feMergeNode in="blur"/><feMergeNode in="SourceGraphic"/></feMerge></filter>
</defs>
<ellipse cx="960" cy="764.6" rx="279.2" ry="203.1" fill="none" stroke="#70d6ff" stroke-width="4" opacity="0.166" filter="url(#softGlow)"/>
<path d="M820 740 C770 700 770 825 825 795" stroke="#c4f4ff" stroke-width="10" opacity="0.241" fill="none" stroke-linecap="round" filter="url(#softGlow)"/>
<path d="M1098 724 C1162 686 1164 822 1098 794" stroke="#c4f4ff" stroke-width="10" opacity="0.239" fill="none" stroke-linecap="round" filter="url(#softGlow)"/>
<circle cx="794.0" cy="905.7" r="4.0" fill="#c8f7ff" opacity="0.278" filter="url(#softGlow)"/>
<circle cx="737.7" cy="846.4" r="5.0" fill="#c8f7ff" opacity="0.205" filter="url(#softGlow)"/>
<circle cx="771.6" cy="723.3" r="6.0" fill="#c8f7ff" opacity="0.138" filter="url(#softGlow)"/>
<circle cx="924.4" cy="611.4" r="7.0" fill="#c8f7ff" opacity="0.102" filter="url(#softGlow)"/>
<circle cx="1055.7" cy="617.5" r="4.0" fill="#c8f7ff" opacity="0.112" filter="url(#softGlow)"/>
<circle cx="1186.5" cy="663.6" r="5.0" fill="#c8f7ff" opacity="0.163" filter="url(#softGlow)"/>
<circle cx="1148.4" cy="787.4" r="6.0" fill="#c8f7ff" opacity="0.236" filter="url(#softGlow)"/>
<circle cx="1122.2" cy="904.8" r="7.0" fill="#c8f7ff" opacity="0.303" filter="url(#softGlow)"/>
<circle cx="1006.2" cy="913.3" r="4.0" fill="#c8f7ff" opacity="0.338" filter="url(#softGlow)"/>
<circle cx="877.4" cy="880.9" r="5.0" fill="#c8f7ff" opacity="0.328" filter="url(#softGlow)"/>






<g opacity="0.578" filter="url(#softGlow)">
  <line x1="871.8" y1="575.5" x2="1251.8" y2="438.7" stroke="#75b9ff" stroke-width="8" stroke-linecap="round"/>
  <line x1="889.8" y1="569.5" x2="1401.8" y2="384.7" stroke="#ffffff" stroke-width="2" stroke-linecap="round" opacity="0.92"/>
</g>

<circle cx="586" cy="952" r="3.6" fill="#bff7ff" opacity="0.153" filter="url(#softGlow)"/>
<circle cx="1211" cy="327" r="4.0" fill="#bff7ff" opacity="0.199" filter="url(#softGlow)"/>
<circle cx="623" cy="632" r="3.6" fill="#bff7ff" opacity="0.182" filter="url(#softGlow)"/>
<circle cx="1302" cy="672" r="3.2" fill="#bff7ff" opacity="0.186" filter="url(#softGlow)"/>
<circle cx="243" cy="59" r="1.6" fill="#bff7ff" opacity="0.149" filter="url(#softGlow)"/>
<circle cx="1593" cy="937" r="2.2" fill="#bff7ff" opacity="0.110" filter="url(#softGlow)"/>
<circle cx="1484" cy="124" r="3.5" fill="#bff7ff" opacity="0.211" filter="url(#softGlow)"/>
<circle cx="450" cy="233" r="1.9" fill="#bff7ff" opacity="0.106" filter="url(#softGlow)"/>
<circle cx="1759" cy="223" r="2.6" fill="#bff7ff" opacity="0.190" filter="url(#softGlow)"/>
<circle cx="502" cy="671" r="3.0" fill="#bff7ff" opacity="0.128" filter="url(#softGlow)"/>
<circle cx="1811" cy="326" r="2.2" fill="#bff7ff" opacity="0.106" filter="url(#softGlow)"/>
<circle cx="142" cy="282" r="2.1" fill="#bff7ff" opacity="0.043" filter="url(#softGlow)"/>
<circle cx="724" cy="408" r="3.3" fill="#bff7ff" opacity="0.092" filter="url(#softGlow)"/>
<circle cx="1022" cy="919" r="2.8" fill="#bff7ff" opacity="0.088" filter="url(#softGlow)"/>
</svg>