<svg xmlns="http://www.w3.org/2000/svg" width="1920" height="1080" viewBox="0 0 1920 1080">
<defs>
<radialGradient id="spaceGlow" cx="52%" cy="56%" r="54%"><stop offset="0%" stop-color="#132a42"/><stop offset="38%" stop-color="#111630"/><stop offset="100%" stop-color="#030712"/></radialGradient>
<radialGradient id="robotBody" cx="40%" cy="24%" r="85%"><stop offset="0%" stop-color="#ffffff"/><stop offset="52%" stop-color="#dce9ff"/><stop offset="100%" stop-color="#93a6bd"/></radialGradient>
<radialGradient id="blueCore" cx="40%" cy="30%" r="70%"><stop offset="0%" stop-color="#8df4ff"/><stop offset="45%" stop-color="#4895ff"/><stop offset="100%" stop-color="#1a47ff"/></radialGradient>
<filter id="softGlow" x="-80%" y="-80%" width="260%" height="260%"><feGaussianBlur stdDeviation="16" result="blur"/><feMerge><feMergeNode in="blur"/><feMergeNode in="SourceGraphic"/></feMerge></filter>
<filter id="wideGlow" x="-120%" y="-120%" width="340%" height="340%"><feGaussianBlur stdDeviation="34" result="blur"/><feMerge><feMergeNode in="blur"/><feMergeNode in="SourceGraphic"/></feMerge></filter>
</defs>
<ellipse cx="960" cy="762.1" rx="274.9" ry="200.7" fill="none" stroke="#70d6ff" stroke-width="4" opacity="0.149" filter="url(#softGlow)"/>
<path d="M820 740 C770 700 770 825 825 795" stroke="#c4f4ff" stroke-width="10" opacity="0.212" fill="none" stroke-linecap="round" filter="url(#softGlow)"/>
<path d="M1098 724 C1162 686 1164 822 1098 794" stroke="#c4f4ff" stroke-width="10" opacity="0.268" fill="none" stroke-linecap="round" filter="url(#softGlow)"/>
<circle cx="784.6" cy="897.8" r="4.0" fill="#c8f7ff" opacity="0.266" filter="url(#softGlow)"/>
<circle cx="742.2" cy="824.3" r="5.0" fill="#c8f7ff" opacity="0.192" filter="url(#softGlow)"/>
<circle cx="792.8" cy="704.1" r="6.0" fill="#c8f7ff" opacity="0.129" filter="url(#softGlow)"/>
<circle cx="945.7" cy="600.4" r="7.0" fill="#c8f7ff" opacity="0.100" filter="url(#softGlow)"/>
<circle cx="1078.0" cy="623.2" r="4.0" fill="#c8f7ff" opacity="0.118" filter="url(#softGlow)"/>
<circle cx="1199.0" cy="684.5" r="5.0" fill="#c8f7ff" opacity="0.175" filter="url(#softGlow)"/>
<circle cx="1144.4" cy="807.3" r="6.0" fill="#c8f7ff" opacity="0.249" filter="url(#softGlow)"/>
<circle cx="1103.7" cy="918.3" r="7.0" fill="#c8f7ff" opacity="0.312" filter="url(#softGlow)"/>
<circle cx="977.2" cy="909.9" r="4.0" fill="#c8f7ff" opacity="0.340" filter="url(#softGlow)"/>
<circle cx="858.5" cy="861.7" r="5.0" fill="#c8f7ff" opacity="0.321" filter="url(#softGlow)"/>






<g opacity="0.361" filter="url(#softGlow)">
  <line x1="866.5" y1="577.5" x2="1246.5" y2="440.7" stroke="#75b9ff" stroke-width="8" stroke-linecap="round"/>
  <line x1="884.5" y1="571.5" x2="1396.5" y2="386.7" stroke="#ffffff" stroke-width="2" stroke-linecap="round" opacity="0.92"/>
</g>

<circle cx="285" cy="393" r="3.0" fill="#bff7ff" opacity="0.101" filter="url(#softGlow)"/>
<circle cx="364" cy="295" r="4.0" fill="#bff7ff" opacity="0.157" filter="url(#softGlow)"/>
<circle cx="600" cy="141" r="3.4" fill="#bff7ff" opacity="0.070" filter="url(#softGlow)"/>
<circle cx="522" cy="356" r="3.1" fill="#bff7ff" opacity="0.051" filter="url(#softGlow)"/>
<circle cx="1516" cy="52" r="2.3" fill="#bff7ff" opacity="0.142" filter="url(#softGlow)"/>
<circle cx="977" cy="281" r="2.9" fill="#bff7ff" opacity="0.171" filter="url(#softGlow)"/>
<circle cx="1130" cy="901" r="1.6" fill="#bff7ff" opacity="0.180" filter="url(#softGlow)"/>
<circle cx="362" cy="813" r="2.8" fill="#bff7ff" opacity="0.197" filter="url(#softGlow)"/>
<circle cx="1366" cy="302" r="2.7" fill="#bff7ff" opacity="0.107" filter="url(#softGlow)"/>
<circle cx="1710" cy="645" r="3.5" fill="#bff7ff" opacity="0.063" filter="url(#softGlow)"/>
<circle cx="1315" cy="296" r="3.0" fill="#bff7ff" opacity="0.102" filter="url(#softGlow)"/>
<circle cx="1363" cy="569" r="1.8" fill="#bff7ff" opacity="0.152" filter="url(#softGlow)"/>
<circle cx="1633" cy="582" r="2.5" fill="#bff7ff" opacity="0.090" filter="url(#softGlow)"/>
<circle cx="573" cy="944" r="2.0" fill="#bff7ff" opacity="0.144" filter="url(#softGlow)"/>
</svg>