<svg xmlns="http://www.w3.org/2000/svg" width="1920" height="1080" viewBox="0 0 1920 1080">
<defs>
<radialGradient id="spaceGlow" cx="52%" cy="56%" r="54%"><stop offset="0%" stop-color="#132a42"/><stop offset="38%" stop-color="#111630"/><stop offset="100%" stop-color="#030712"/></radialGradient>
<radialGradient id="robotBody" cx="40%" cy="24%" r="85%"><stop offset="0%" stop-color="#ffffff"/><stop offset="52%" stop-color="#dce9ff"/><stop offset="100%" stop-color="#93a6bd"/></radialGradient>
<radialGradient id="blueCore" cx="40%" cy="30%" r="70%"><stop offset="0%" stop-color="#8df4ff"/><stop offset="45%" stop-color="#4895ff"/><stop offset="100%" stop-color="#1a47ff"/></radialGradient>
<filter id="softGlow" x="-80%" y="-80%" width="260%" height="260%"><feGaussianBlur stdDeviation="16" result="blur"/><feMerge><feMergeNode in="blur"/><feMergeNode in="SourceGraphic"/></feMerge></filter>
<filter id="wideGlow" x="-120%" y="-120%" width="340%" height="340%"><feGaussianBlur stdDeviation="34" result="blur"/><feMerge><feMergeNode in="blur"/><feMergeNode in="SourceGraphic"/></feMerge></filter>
</defs>
<ellipse cx="960" cy="755.9" rx="270.1" ry="198.1" fill="none" stroke="#70d6ff" stroke-width="4" opacity="0.130" filter="url(#softGlow)"/>
<path d="M820 740 C770 700 770 825 825 795" stroke="#c4f4ff" stroke-width="10" opacity="0.181" fill="none" stroke-linecap="round" filter="url(#softGlow)"/>
<path d="M1098 724 C1162 686 1164 822 1098 794" stroke="#c4f4ff" stroke-width="10" opacity="0.299" fill="none" stroke-linecap="round" filter="url(#softGlow)"/>
<circle cx="771.2" cy="867.5" r="4.0" fill="#c8f7ff" opacity="0.233" filter="url(#softGlow)"/>
<circle cx="765.5" cy="765.0" r="5.0" fill="#c8f7ff" opacity="0.160" filter="url(#softGlow)"/>
<circle cx="854.4" cy="661.7" r="6.0" fill="#c8f7ff" opacity="0.111" filter="url(#softGlow)"/>
<circle cx="999.3" cy="586.4" r="7.0" fill="#c8f7ff" opacity="0.103" filter="url(#softGlow)"/>
<circle cx="1126.5" cy="648.5" r="4.0" fill="#c8f7ff" opacity="0.140" filter="url(#softGlow)"/>
<circle cx="1216.6" cy="742.1" r="5.0" fill="#c8f7ff" opacity="0.208" filter="url(#softGlow)"/>
<circle cx="1124.2" cy="852.7" r="6.0" fill="#c8f7ff" opacity="0.280" filter="url(#softGlow)"/>
<circle cx="1050.0" cy="939.1" r="7.0" fill="#c8f7ff" opacity="0.330" filter="url(#softGlow)"/>
<circle cx="904.6" cy="890.0" r="4.0" fill="#c8f7ff" opacity="0.337" filter="url(#softGlow)"/>
<circle cx="817.7" cy="806.4" r="5.0" fill="#c8f7ff" opacity="0.300" filter="url(#softGlow)"/>







<circle cx="918" cy="813" r="4.0" fill="#bff7ff" opacity="0.189" filter="url(#softGlow)"/>
<circle cx="1479" cy="854" r="3.2" fill="#bff7ff" opacity="0.143" filter="url(#softGlow)"/>
<circle cx="1158" cy="988" r="2.5" fill="#bff7ff" opacity="0.209" filter="url(#softGlow)"/>
<circle cx="745" cy="398" r="3.5" fill="#bff7ff" opacity="0.087" filter="url(#softGlow)"/>
<circle cx="1762" cy="722" r="3.2" fill="#bff7ff" opacity="0.081" filter="url(#softGlow)"/>
<circle cx="965" cy="77" r="1.6" fill="#bff7ff" opacity="0.184" filter="url(#softGlow)"/>
<circle cx="1262" cy="418" r="2.4" fill="#bff7ff" opacity="0.154" filter="url(#softGlow)"/>
<circle cx="1149" cy="807" r="2.6" fill="#bff7ff" opacity="0.056" filter="url(#softGlow)"/>
<circle cx="1235" cy="323" r="1.8" fill="#bff7ff" opacity="0.203" filter="url(#softGlow)"/>
<circle cx="1105" cy="443" r="2.9" fill="#bff7ff" opacity="0.053" filter="url(#softGlow)"/>
<circle cx="1188" cy="509" r="3.4" fill="#bff7ff" opacity="0.081" filter="url(#softGlow)"/>
<circle cx="273" cy="886" r="2.0" fill="#bff7ff" opacity="0.115" filter="url(#softGlow)"/>
<circle cx="1642" cy="304" r="2.5" fill="#bff7ff" opacity="0.109" filter="url(#softGlow)"/>
<circle cx="628" cy="614" r="3.6" fill="#bff7ff" opacity="0.067" filter="url(#softGlow)"/>
</svg>