<svg xmlns="http://www.w3.org/2000/svg" width="1920" height="1080" viewBox="0 0 1920 1080">
<defs>
<radialGradient id="spaceGlow" cx="52%" cy="56%" r="54%"><stop offset="0%" stop-color="#132a42"/><stop offset="38%" stop-color="#111630"/><stop offset="100%" stop-color="#030712"/></radialGradient>
<radialGradient id="robotBody" cx="40%" cy="24%" r="85%"><stop offset="0%" stop-color="#ffffff"/><stop offset="52%" stop-color="#dce9ff"/><stop offset="100%" stop-color="#93a6bd"/></radialGradient>
<radialGradient id="blueCore" cx="40%" cy="30%" r="70%"><stop offset="0%" stop-color="#8df4ff"/><stop offset="45%" stop-color="#4895ff"/><stop offset="100%" stop-color="#1a47ff"/></radialGradient>
<filter id="softGlow" x="-80%" y="-80%" width="260%" height="260%"><feGaussianBlur stdDeviation="16" result="blur"/><feMerge><feMergeNode in="blur"/><feMergeNode in="SourceGraphic"/></feMerge></filter>
<filter id="wideGlow" x="-120%" y="-120%" width="340%" height="340%"><feGaussianBlur stdDeviation="34" result="blur"/><feMerge><feMergeNode in="blur"/><feMergeNode in="SourceGraphic"/></feMerge></filter>
</defs>
<ellipse cx="960" cy="753.4" rx="271.9" ry="199.0" fill="none" stroke="#70d6ff" stroke-width="4" opacity="0.137" filter="url(#softGlow)"/>
<path d="M820 740 C770 700 770 825 825 795" stroke="#c4f4ff" stroke-width="10" opacity="0.192" fill="none" stroke-linecap="round" filter="url(#softGlow)"/>
<path d="M1098 724 C1162 686 1164 822 1098 794" stroke="#c4f4ff" stroke-width="10" opacity="0.288" fill="none" stroke-linecap="round" filter="url(#softGlow)"/>
<circle cx="770.0" cy="851.8" r="4.0" fill="#c8f7ff" opacity="0.220" filter="url(#softGlow)"/>
<circle cx="779.3" cy="740.8" r="5.0" fill="#c8f7ff" opacity="0.149" filter="url(#softGlow)"/>
<circle cx="881.7" cy="647.8" r="6.0" fill="#c8f7ff" opacity="0.106" filter="url(#softGlow)"/>
<circle cx="1020.0" cy="586.5" r="7.0" fill="#c8f7ff" opacity="0.106" filter="url(#softGlow)"/>
<circle cx="1142.4" cy="662.5" r="4.0" fill="#c8f7ff" opacity="0.150" filter="url(#softGlow)"/>
<circle cx="1218.0" cy="766.3" r="5.0" fill="#c8f7ff" opacity="0.221" filter="url(#softGlow)"/>
<circle cx="1112.3" cy="868.3" r="6.0" fill="#c8f7ff" opacity="0.292" filter="url(#softGlow)"/>
<circle cx="1026.2" cy="941.8" r="7.0" fill="#c8f7ff" opacity="0.335" filter="url(#softGlow)"/>
<circle cx="876.4" cy="877.7" r="4.0" fill="#c8f7ff" opacity="0.334" filter="url(#softGlow)"/>
<circle cx="804.4" cy="782.6" r="5.0" fill="#c8f7ff" opacity="0.289" filter="url(#softGlow)"/>







<circle cx="151" cy="490" r="2.2" fill="#bff7ff" opacity="0.098" filter="url(#softGlow)"/>
<circle cx="1148" cy="686" r="2.5" fill="#bff7ff" opacity="0.190" filter="url(#softGlow)"/>
<circle cx="811" cy="483" r="3.0" fill="#bff7ff" opacity="0.182" filter="url(#softGlow)"/>
<circle cx="1224" cy="821" r="2.5" fill="#bff7ff" opacity="0.189" filter="url(#softGlow)"/>
<circle cx="881" cy="920" r="2.8" fill="#bff7ff" opacity="0.147" filter="url(#softGlow)"/>
<circle cx="1163" cy="690" r="4.0" fill="#bff7ff" opacity="0.040" filter="url(#softGlow)"/>
<circle cx="707" cy="30" r="3.3" fill="#bff7ff" opacity="0.088" filter="url(#softGlow)"/>
<circle cx="1083" cy="762" r="2.0" fill="#bff7ff" opacity="0.175" filter="url(#softGlow)"/>
<circle cx="1604" cy="344" r="1.7" fill="#bff7ff" opacity="0.158" filter="url(#softGlow)"/>
<circle cx="647" cy="142" r="2.0" fill="#bff7ff" opacity="0.119" filter="url(#softGlow)"/>
<circle cx="1764" cy="470" r="3.1" fill="#bff7ff" opacity="0.161" filter="url(#softGlow)"/>
<circle cx="639" cy="247" r="2.4" fill="#bff7ff" opacity="0.184" filter="url(#softGlow)"/>
<circle cx="535" cy="771" r="3.8" fill="#bff7ff" opacity="0.135" filter="url(#softGlow)"/>
<circle cx="420" cy="248" r="4.0" fill="#bff7ff" opacity="0.149" filter="url(#softGlow)"/>
</svg>