<svg xmlns="http://www.w3.org/2000/svg" width="1920" height="1080" viewBox="0 0 1920 1080">
<defs>
<radialGradient id="spaceGlow" cx="52%" cy="56%" r="54%"><stop offset="0%" stop-color="#132a42"/><stop offset="38%" stop-color="#111630"/><stop offset="100%" stop-color="#030712"/></radialGradient>
<radialGradient id="robotBody" cx="40%" cy="24%" r="85%"><stop offset="0%" stop-color="#ffffff"/><stop offset="52%" stop-color="#dce9ff"/><stop offset="100%" stop-color="#93a6bd"/></radialGradient>
<radialGradient id="blueCore" cx="40%" cy="30%" r="70%"><stop offset="0%" stop-color="#8df4ff"/><stop offset="45%" stop-color="#4895ff"/><stop offset="100%" stop-color="#1a47ff"/></radialGradient>
<filter id="softGlow" x="-80%" y="-80%" width="260%" height="260%"><feGaussianBlur stdDeviation="16" result="blur"/><feMerge><feMergeNode in="blur"/><feMergeNode in="SourceGraphic"/></feMerge></filter>
<filter id="wideGlow" x="-120%" y="-120%" width="340%" height="340%"><feGaussianBlur stdDeviation="34" result="blur"/><feMerge><feMergeNode in="blur"/><feMergeNode in="SourceGraphic"/></feMerge></filter>
</defs>
<ellipse cx="960" cy="752.3" rx="273.5" ry="199.9" fill="none" stroke="#70d6ff" stroke-width="4" opacity="0.143" filter="url(#softGlow)"/>
<path d="M820 740 C770 700 770 825 825 795" stroke="#c4f4ff" stroke-width="10" opacity="0.203" fill="none" stroke-linecap="round" filter="url(#softGlow)"/>
<path d="M1098 724 C1162 686 1164 822 1098 794" stroke="#c4f4ff" stroke-width="10" opacity="0.277" fill="none" stroke-linecap="round" filter="url(#softGlow)"/>
<circle cx="770.3" cy="843.4" r="4.0" fill="#c8f7ff" opacity="0.213" filter="url(#softGlow)"/>
<circle cx="787.1" cy="728.9" r="5.0" fill="#c8f7ff" opacity="0.144" filter="url(#softGlow)"/>
<circle cx="895.7" cy="641.6" r="6.0" fill="#c8f7ff" opacity="0.104" filter="url(#softGlow)"/>
<circle cx="1030.2" cy="587.7" r="7.0" fill="#c8f7ff" opacity="0.108" filter="url(#softGlow)"/>
<circle cx="1149.5" cy="670.3" r="4.0" fill="#c8f7ff" opacity="0.156" filter="url(#softGlow)"/>
<circle cx="1217.4" cy="778.4" r="5.0" fill="#c8f7ff" opacity="0.228" filter="url(#softGlow)"/>
<circle cx="1105.6" cy="875.4" r="6.0" fill="#c8f7ff" opacity="0.297" filter="url(#softGlow)"/>
<circle cx="1014.0" cy="942.0" r="7.0" fill="#c8f7ff" opacity="0.336" filter="url(#softGlow)"/>
<circle cx="862.7" cy="870.8" r="4.0" fill="#c8f7ff" opacity="0.331" filter="url(#softGlow)"/>
<circle cx="798.4" cy="770.5" r="5.0" fill="#c8f7ff" opacity="0.283" filter="url(#softGlow)"/>







<circle cx="151" cy="490" r="2.2" fill="#bff7ff" opacity="0.097" filter="url(#softGlow)"/>
<circle cx="1148" cy="686" r="2.5" fill="#bff7ff" opacity="0.187" filter="url(#softGlow)"/>
<circle cx="811" cy="483" r="3.0" fill="#bff7ff" opacity="0.180" filter="url(#softGlow)"/>
<circle cx="1224" cy="821" r="2.5" fill="#bff7ff" opacity="0.187" filter="url(#softGlow)"/>
<circle cx="881" cy="920" r="2.8" fill="#bff7ff" opacity="0.145" filter="url(#softGlow)"/>
<circle cx="1163" cy="690" r="4.0" fill="#bff7ff" opacity="0.040" filter="url(#softGlow)"/>
<circle cx="707" cy="30" r="3.3" fill="#bff7ff" opacity="0.087" filter="url(#softGlow)"/>
<circle cx="1083" cy="762" r="2.0" fill="#bff7ff" opacity="0.173" filter="url(#softGlow)"/>
<circle cx="1604" cy="344" r="1.7" fill="#bff7ff" opacity="0.156" filter="url(#softGlow)"/>
<circle cx="647" cy="142" r="2.0" fill="#bff7ff" opacity="0.117" filter="url(#softGlow)"/>
<circle cx="1764" cy="470" r="3.1" fill="#bff7ff" opacity="0.159" filter="url(#softGlow)"/>
<circle cx="639" cy="247" r="2.4" fill="#bff7ff" opacity="0.182" filter="url(#softGlow)"/>
<circle cx="535" cy="771" r="3.8" fill="#bff7ff" opacity="0.133" filter="url(#softGlow)"/>
<circle cx="420" cy="248" r="4.0" fill="#bff7ff" opacity="0.147" filter="url(#softGlow)"/>
</svg>