<svg xmlns="http://www.w3.org/2000/svg" width="1920" height="1080" viewBox="0 0 1920 1080">
<defs>
<radialGradient id="spaceGlow" cx="52%" cy="56%" r="54%"><stop offset="0%" stop-color="#132a42"/><stop offset="38%" stop-color="#111630"/><stop offset="100%" stop-color="#030712"/></radialGradient>
<radialGradient id="robotBody" cx="40%" cy="24%" r="85%"><stop offset="0%" stop-color="#ffffff"/><stop offset="52%" stop-color="#dce9ff"/><stop offset="100%" stop-color="#93a6bd"/></radialGradient>
<radialGradient id="blueCore" cx="40%" cy="30%" r="70%"><stop offset="0%" stop-color="#8df4ff"/><stop offset="45%" stop-color="#4895ff"/><stop offset="100%" stop-color="#1a47ff"/></radialGradient>
<filter id="softGlow" x="-80%" y="-80%" width="260%" height="260%"><feGaussianBlur stdDeviation="16" result="blur"/><feMerge><feMergeNode in="blur"/><feMergeNode in="SourceGraphic"/></feMerge></filter>
<filter id="wideGlow" x="-120%" y="-120%" width="340%" height="340%"><feGaussianBlur stdDeviation="34" result="blur"/><feMerge><feMergeNode in="blur"/><feMergeNode in="SourceGraphic"/></feMerge></filter>
</defs>
<ellipse cx="960" cy="749.1" rx="279.8" ry="203.4" fill="none" stroke="#70d6ff" stroke-width="4" opacity="0.168" filter="url(#softGlow)"/>
<path d="M820 740 C770 700 770 825 825 795" stroke="#c4f4ff" stroke-width="10" opacity="0.245" fill="none" stroke-linecap="round" filter="url(#softGlow)"/>
<path d="M1098 724 C1162 686 1164 822 1098 794" stroke="#c4f4ff" stroke-width="10" opacity="0.235" fill="none" stroke-linecap="round" filter="url(#softGlow)"/>
<circle cx="775.0" cy="815.9" r="4.0" fill="#c8f7ff" opacity="0.193" filter="url(#softGlow)"/>
<circle cx="813.7" cy="694.3" r="5.0" fill="#c8f7ff" opacity="0.129" filter="url(#softGlow)"/>
<circle cx="938.9" cy="626.6" r="6.0" fill="#c8f7ff" opacity="0.100" filter="url(#softGlow)"/>
<circle cx="1059.0" cy="596.4" r="7.0" fill="#c8f7ff" opacity="0.118" filter="url(#softGlow)"/>
<circle cx="1167.0" cy="695.9" r="4.0" fill="#c8f7ff" opacity="0.174" filter="url(#softGlow)"/>
<circle cx="1210.8" cy="814.0" r="5.0" fill="#c8f7ff" opacity="0.248" filter="url(#softGlow)"/>
<circle cx="1082.9" cy="893.4" r="6.0" fill="#c8f7ff" opacity="0.312" filter="url(#softGlow)"/>
<circle cx="976.4" cy="937.5" r="7.0" fill="#c8f7ff" opacity="0.340" filter="url(#softGlow)"/>
<circle cx="823.7" cy="847.3" r="4.0" fill="#c8f7ff" opacity="0.322" filter="url(#softGlow)"/>
<circle cx="783.9" cy="734.4" r="5.0" fill="#c8f7ff" opacity="0.265" filter="url(#softGlow)"/>







<circle cx="528" cy="264" r="2.8" fill="#bff7ff" opacity="0.084" filter="url(#softGlow)"/>
<circle cx="797" cy="774" r="3.0" fill="#bff7ff" opacity="0.077" filter="url(#softGlow)"/>
<circle cx="1258" cy="804" r="2.1" fill="#bff7ff" opacity="0.078" filter="url(#softGlow)"/>
<circle cx="1305" cy="380" r="3.4" fill="#bff7ff" opacity="0.094" filter="url(#softGlow)"/>
<circle cx="144" cy="258" r="3.3" fill="#bff7ff" opacity="0.142" filter="url(#softGlow)"/>
<circle cx="876" cy="181" r="1.8" fill="#bff7ff" opacity="0.112" filter="url(#softGlow)"/>
<circle cx="1218" cy="412" r="1.7" fill="#bff7ff" opacity="0.047" filter="url(#softGlow)"/>
<circle cx="1732" cy="195" r="3.1" fill="#bff7ff" opacity="0.077" filter="url(#softGlow)"/>
<circle cx="1690" cy="813" r="2.8" fill="#bff7ff" opacity="0.113" filter="url(#softGlow)"/>
<circle cx="451" cy="330" r="4.2" fill="#bff7ff" opacity="0.180" filter="url(#softGlow)"/>
<circle cx="149" cy="375" r="1.8" fill="#bff7ff" opacity="0.101" filter="url(#softGlow)"/>
<circle cx="793" cy="698" r="2.6" fill="#bff7ff" opacity="0.142" filter="url(#softGlow)"/>
<circle cx="1584" cy="457" r="2.4" fill="#bff7ff" opacity="0.087" filter="url(#softGlow)"/>
<circle cx="1169" cy="817" r="2.9" fill="#bff7ff" opacity="0.061" filter="url(#softGlow)"/>
</svg>