<svg xmlns="http://www.w3.org/2000/svg" width="1920" height="1080" viewBox="0 0 1920 1080">
<defs>
<radialGradient id="spaceGlow" cx="52%" cy="56%" r="54%"><stop offset="0%" stop-color="#132a42"/><stop offset="38%" stop-color="#111630"/><stop offset="100%" stop-color="#030712"/></radialGradient>
<radialGradient id="robotBody" cx="40%" cy="24%" r="85%"><stop offset="0%" stop-color="#ffffff"/><stop offset="52%" stop-color="#dce9ff"/><stop offset="100%" stop-color="#93a6bd"/></radialGradient>
<radialGradient id="blueCore" cx="40%" cy="30%" r="70%"><stop offset="0%" stop-color="#8df4ff"/><stop offset="45%" stop-color="#4895ff"/><stop offset="100%" stop-color="#1a47ff"/></radialGradient>
<filter id="softGlow" x="-80%" y="-80%" width="260%" height="260%"><feGaussianBlur stdDeviation="16" result="blur"/><feMerge><feMergeNode in="blur"/><feMergeNode in="SourceGraphic"/></feMerge></filter>
<filter id="wideGlow" x="-120%" y="-120%" width="340%" height="340%"><feGaussianBlur stdDeviation="34" result="blur"/><feMerge><feMergeNode in="blur"/><feMergeNode in="SourceGraphic"/></feMerge></filter>
</defs>
<ellipse cx="960" cy="747.2" rx="284.0" ry="205.8" fill="none" stroke="#70d6ff" stroke-width="4" opacity="0.184" filter="url(#softGlow)"/>
<path d="M820 740 C770 700 770 825 825 795" stroke="#c4f4ff" stroke-width="10" opacity="0.273" fill="none" stroke-linecap="round" filter="url(#softGlow)"/>
<path d="M1098 724 C1162 686 1164 822 1098 794" stroke="#c4f4ff" stroke-width="10" opacity="0.207" fill="none" stroke-linecap="round" filter="url(#softGlow)"/>
<circle cx="781.0" cy="796.4" r="4.0" fill="#c8f7ff" opacity="0.180" filter="url(#softGlow)"/>
<circle cx="833.8" cy="672.7" r="5.0" fill="#c8f7ff" opacity="0.121" filter="url(#softGlow)"/>
<circle cx="968.1" cy="619.7" r="6.0" fill="#c8f7ff" opacity="0.100" filter="url(#softGlow)"/>
<circle cx="1076.7" cy="606.1" r="7.0" fill="#c8f7ff" opacity="0.125" filter="url(#softGlow)"/>
<circle cx="1175.3" cy="714.7" r="4.0" fill="#c8f7ff" opacity="0.187" filter="url(#softGlow)"/>
<circle cx="1202.3" cy="836.7" r="5.0" fill="#c8f7ff" opacity="0.261" filter="url(#softGlow)"/>
<circle cx="1065.7" cy="902.5" r="6.0" fill="#c8f7ff" opacity="0.320" filter="url(#softGlow)"/>
<circle cx="951.1" cy="930.5" r="7.0" fill="#c8f7ff" opacity="0.340" filter="url(#softGlow)"/>
<circle cx="799.8" cy="829.6" r="4.0" fill="#c8f7ff" opacity="0.314" filter="url(#softGlow)"/>
<circle cx="776.9" cy="710.8" r="5.0" fill="#c8f7ff" opacity="0.252" filter="url(#softGlow)"/>







<circle cx="786" cy="999" r="3.4" fill="#bff7ff" opacity="0.063" filter="url(#softGlow)"/>
<circle cx="1371" cy="392" r="2.8" fill="#bff7ff" opacity="0.108" filter="url(#softGlow)"/>
<circle cx="1566" cy="661" r="2.6" fill="#bff7ff" opacity="0.114" filter="url(#softGlow)"/>
<circle cx="170" cy="575" r="2.3" fill="#bff7ff" opacity="0.072" filter="url(#softGlow)"/>
<circle cx="1785" cy="435" r="3.0" fill="#bff7ff" opacity="0.070" filter="url(#softGlow)"/>
<circle cx="1536" cy="791" r="2.2" fill="#bff7ff" opacity="0.054" filter="url(#softGlow)"/>
<circle cx="1700" cy="144" r="3.4" fill="#bff7ff" opacity="0.191" filter="url(#softGlow)"/>
<circle cx="1740" cy="540" r="2.1" fill="#bff7ff" opacity="0.178" filter="url(#softGlow)"/>
<circle cx="119" cy="101" r="2.0" fill="#bff7ff" opacity="0.158" filter="url(#softGlow)"/>
<circle cx="1362" cy="156" r="4.0" fill="#bff7ff" opacity="0.056" filter="url(#softGlow)"/>
<circle cx="231" cy="93" r="1.8" fill="#bff7ff" opacity="0.091" filter="url(#softGlow)"/>
<circle cx="386" cy="821" r="3.3" fill="#bff7ff" opacity="0.089" filter="url(#softGlow)"/>
<circle cx="1304" cy="835" r="3.1" fill="#bff7ff" opacity="0.142" filter="url(#softGlow)"/>
<circle cx="634" cy="254" r="3.5" fill="#bff7ff" opacity="0.125" filter="url(#softGlow)"/>
</svg>