<svg xmlns="http://www.w3.org/2000/svg" width="1920" height="1080" viewBox="0 0 1920 1080">
<defs>
<radialGradient id="spaceGlow" cx="52%" cy="56%" r="54%"><stop offset="0%" stop-color="#132a42"/><stop offset="38%" stop-color="#111630"/><stop offset="100%" stop-color="#030712"/></radialGradient>
<radialGradient id="robotBody" cx="40%" cy="24%" r="85%"><stop offset="0%" stop-color="#ffffff"/><stop offset="52%" stop-color="#dce9ff"/><stop offset="100%" stop-color="#93a6bd"/></radialGradient>
<radialGradient id="blueCore" cx="40%" cy="30%" r="70%"><stop offset="0%" stop-color="#8df4ff"/><stop offset="45%" stop-color="#4895ff"/><stop offset="100%" stop-color="#1a47ff"/></radialGradient>
<filter id="softGlow" x="-80%" y="-80%" width="260%" height="260%"><feGaussianBlur stdDeviation="16" result="blur"/><feMerge><feMergeNode in="blur"/><feMergeNode in="SourceGraphic"/></feMerge></filter>
<filter id="wideGlow" x="-120%" y="-120%" width="340%" height="340%"><feGaussianBlur stdDeviation="34" result="blur"/><feMerge><feMergeNode in="blur"/><feMergeNode in="SourceGraphic"/></feMerge></filter>
</defs>
<ellipse cx="960" cy="746.3" rx="285.7" ry="206.7" fill="none" stroke="#70d6ff" stroke-width="4" opacity="0.191" filter="url(#softGlow)"/>
<path d="M820 740 C770 700 770 825 825 795" stroke="#c4f4ff" stroke-width="10" opacity="0.285" fill="none" stroke-linecap="round" filter="url(#softGlow)"/>
<path d="M1098 724 C1162 686 1164 822 1098 794" stroke="#c4f4ff" stroke-width="10" opacity="0.195" fill="none" stroke-linecap="round" filter="url(#softGlow)"/>
<circle cx="784.9" cy="786.3" r="4.0" fill="#c8f7ff" opacity="0.173" filter="url(#softGlow)"/>
<circle cx="844.5" cy="662.5" r="5.0" fill="#c8f7ff" opacity="0.117" filter="url(#softGlow)"/>
<circle cx="982.7" cy="617.2" r="6.0" fill="#c8f7ff" opacity="0.100" filter="url(#softGlow)"/>
<circle cx="1085.0" cy="612.0" r="7.0" fill="#c8f7ff" opacity="0.130" filter="url(#softGlow)"/>
<circle cx="1178.5" cy="724.4" r="4.0" fill="#c8f7ff" opacity="0.194" filter="url(#softGlow)"/>
<circle cx="1196.9" cy="847.6" r="5.0" fill="#c8f7ff" opacity="0.268" filter="url(#softGlow)"/>
<circle cx="1056.6" cy="906.1" r="6.0" fill="#c8f7ff" opacity="0.323" filter="url(#softGlow)"/>
<circle cx="938.4" cy="925.8" r="7.0" fill="#c8f7ff" opacity="0.339" filter="url(#softGlow)"/>
<circle cx="788.6" cy="820.3" r="4.0" fill="#c8f7ff" opacity="0.310" filter="url(#softGlow)"/>
<circle cx="774.3" cy="699.4" r="5.0" fill="#c8f7ff" opacity="0.246" filter="url(#softGlow)"/>







<circle cx="786" cy="999" r="3.4" fill="#bff7ff" opacity="0.061" filter="url(#softGlow)"/>
<circle cx="1371" cy="392" r="2.8" fill="#bff7ff" opacity="0.105" filter="url(#softGlow)"/>
<circle cx="1566" cy="661" r="2.6" fill="#bff7ff" opacity="0.111" filter="url(#softGlow)"/>
<circle cx="170" cy="575" r="2.3" fill="#bff7ff" opacity="0.070" filter="url(#softGlow)"/>
<circle cx="1785" cy="435" r="3.0" fill="#bff7ff" opacity="0.068" filter="url(#softGlow)"/>
<circle cx="1536" cy="791" r="2.2" fill="#bff7ff" opacity="0.053" filter="url(#softGlow)"/>
<circle cx="1700" cy="144" r="3.4" fill="#bff7ff" opacity="0.185" filter="url(#softGlow)"/>
<circle cx="1740" cy="540" r="2.1" fill="#bff7ff" opacity="0.173" filter="url(#softGlow)"/>
<circle cx="119" cy="101" r="2.0" fill="#bff7ff" opacity="0.153" filter="url(#softGlow)"/>
<circle cx="1362" cy="156" r="4.0" fill="#bff7ff" opacity="0.055" filter="url(#softGlow)"/>
<circle cx="231" cy="93" r="1.8" fill="#bff7ff" opacity="0.089" filter="url(#softGlow)"/>
<circle cx="386" cy="821" r="3.3" fill="#bff7ff" opacity="0.086" filter="url(#softGlow)"/>
<circle cx="1304" cy="835" r="3.1" fill="#bff7ff" opacity="0.137" filter="url(#softGlow)"/>
<circle cx="634" cy="254" r="3.5" fill="#bff7ff" opacity="0.121" filter="url(#softGlow)"/>
</svg>