<svg xmlns="http://www.w3.org/2000/svg" width="1920" height="1080" viewBox="0 0 1920 1080">
<defs>
<radialGradient id="spaceGlow" cx="52%" cy="56%" r="54%"><stop offset="0%" stop-color="#132a42"/><stop offset="38%" stop-color="#111630"/><stop offset="100%" stop-color="#030712"/></radialGradient>
<radialGradient id="robotBody" cx="40%" cy="24%" r="85%"><stop offset="0%" stop-color="#ffffff"/><stop offset="52%" stop-color="#dce9ff"/><stop offset="100%" stop-color="#93a6bd"/></radialGradient>
<radialGradient id="blueCore" cx="40%" cy="30%" r="70%"><stop offset="0%" stop-color="#8df4ff"/><stop offset="45%" stop-color="#4895ff"/><stop offset="100%" stop-color="#1a47ff"/></radialGradient>
<filter id="softGlow" x="-80%" y="-80%" width="260%" height="260%"><feGaussianBlur stdDeviation="16" result="blur"/><feMerge><feMergeNode in="blur"/><feMergeNode in="SourceGraphic"/></feMerge></filter>
<filter id="wideGlow" x="-120%" y="-120%" width="340%" height="340%"><feGaussianBlur stdDeviation="34" result="blur"/><feMerge><feMergeNode in="blur"/><feMergeNode in="SourceGraphic"/></feMerge></filter>
</defs>
<ellipse cx="960" cy="744.8" rx="287.8" ry="207.9" fill="none" stroke="#70d6ff" stroke-width="4" opacity="0.199" filter="url(#softGlow)"/>
<path d="M820 740 C770 700 770 825 825 795" stroke="#c4f4ff" stroke-width="10" opacity="0.298" fill="none" stroke-linecap="round" filter="url(#softGlow)"/>
<path d="M1098 724 C1162 686 1164 822 1098 794" stroke="#c4f4ff" stroke-width="10" opacity="0.182" fill="none" stroke-linecap="round" filter="url(#softGlow)"/>
<circle cx="794.4" cy="766.0" r="4.0" fill="#c8f7ff" opacity="0.161" filter="url(#softGlow)"/>
<circle cx="866.9" cy="643.7" r="5.0" fill="#c8f7ff" opacity="0.111" filter="url(#softGlow)"/>
<circle cx="1011.6" cy="614.4" r="6.0" fill="#c8f7ff" opacity="0.102" filter="url(#softGlow)"/>
<circle cx="1100.4" cy="626.0" r="7.0" fill="#c8f7ff" opacity="0.139" filter="url(#softGlow)"/>
<circle cx="1182.7" cy="744.4" r="4.0" fill="#c8f7ff" opacity="0.207" filter="url(#softGlow)"/>
<circle cx="1183.8" cy="868.1" r="5.0" fill="#c8f7ff" opacity="0.280" filter="url(#softGlow)"/>
<circle cx="1037.5" cy="911.3" r="6.0" fill="#c8f7ff" opacity="0.330" filter="url(#softGlow)"/>
<circle cx="913.3" cy="914.2" r="7.0" fill="#c8f7ff" opacity="0.337" filter="url(#softGlow)"/>
<circle cx="767.9" cy="800.9" r="4.0" fill="#c8f7ff" opacity="0.300" filter="url(#softGlow)"/>
<circle cx="771.0" cy="677.5" r="5.0" fill="#c8f7ff" opacity="0.232" filter="url(#softGlow)"/>







<circle cx="887" cy="837" r="3.9" fill="#bff7ff" opacity="0.036" filter="url(#softGlow)"/>
<circle cx="1697" cy="190" r="2.4" fill="#bff7ff" opacity="0.122" filter="url(#softGlow)"/>
<circle cx="1483" cy="51" r="4.0" fill="#bff7ff" opacity="0.128" filter="url(#softGlow)"/>
<circle cx="956" cy="549" r="3.1" fill="#bff7ff" opacity="0.095" filter="url(#softGlow)"/>
<circle cx="1163" cy="317" r="3.7" fill="#bff7ff" opacity="0.043" filter="url(#softGlow)"/>
<circle cx="973" cy="146" r="3.3" fill="#bff7ff" opacity="0.043" filter="url(#softGlow)"/>
<circle cx="456" cy="760" r="4.2" fill="#bff7ff" opacity="0.032" filter="url(#softGlow)"/>
<circle cx="812" cy="886" r="2.1" fill="#bff7ff" opacity="0.033" filter="url(#softGlow)"/>
<circle cx="1441" cy="711" r="3.8" fill="#bff7ff" opacity="0.081" filter="url(#softGlow)"/>
<circle cx="722" cy="762" r="3.6" fill="#bff7ff" opacity="0.117" filter="url(#softGlow)"/>
<circle cx="488" cy="941" r="1.9" fill="#bff7ff" opacity="0.138" filter="url(#softGlow)"/>
<circle cx="955" cy="526" r="2.5" fill="#bff7ff" opacity="0.133" filter="url(#softGlow)"/>
<circle cx="1547" cy="227" r="1.9" fill="#bff7ff" opacity="0.059" filter="url(#softGlow)"/>
<circle cx="594" cy="532" r="3.4" fill="#bff7ff" opacity="0.139" filter="url(#softGlow)"/>
</svg>