<svg xmlns="http://www.w3.org/2000/svg" width="1920" height="1080" viewBox="0 0 1920 1080">
<defs>
<radialGradient id="spaceGlow" cx="52%" cy="56%" r="54%"><stop offset="0%" stop-color="#132a42"/><stop offset="38%" stop-color="#111630"/><stop offset="100%" stop-color="#030712"/></radialGradient>
<radialGradient id="robotBody" cx="40%" cy="24%" r="85%"><stop offset="0%" stop-color="#ffffff"/><stop offset="52%" stop-color="#dce9ff"/><stop offset="100%" stop-color="#93a6bd"/></radialGradient>
<radialGradient id="blueCore" cx="40%" cy="30%" r="70%"><stop offset="0%" stop-color="#8df4ff"/><stop offset="45%" stop-color="#4895ff"/><stop offset="100%" stop-color="#1a47ff"/></radialGradient>
<filter id="softGlow" x="-80%" y="-80%" width="260%" height="260%"><feGaussianBlur stdDeviation="16" result="blur"/><feMerge><feMergeNode in="blur"/><feMergeNode in="SourceGraphic"/></feMerge></filter>
<filter id="wideGlow" x="-120%" y="-120%" width="340%" height="340%"><feGaussianBlur stdDeviation="34" result="blur"/><feMerge><feMergeNode in="blur"/><feMergeNode in="SourceGraphic"/></feMerge></filter>
</defs>
<ellipse cx="960" cy="743.6" rx="287.7" ry="207.8" fill="none" stroke="#70d6ff" stroke-width="4" opacity="0.199" filter="url(#softGlow)"/>
<path d="M820 740 C770 700 770 825 825 795" stroke="#c4f4ff" stroke-width="10" opacity="0.298" fill="none" stroke-linecap="round" filter="url(#softGlow)"/>
<path d="M1098 724 C1162 686 1164 822 1098 794" stroke="#c4f4ff" stroke-width="10" opacity="0.182" fill="none" stroke-linecap="round" filter="url(#softGlow)"/>
<circle cx="806.0" cy="745.7" r="4.0" fill="#c8f7ff" opacity="0.150" filter="url(#softGlow)"/>
<circle cx="890.6" cy="627.0" r="5.0" fill="#c8f7ff" opacity="0.106" filter="url(#softGlow)"/>
<circle cx="1039.9" cy="614.3" r="6.0" fill="#c8f7ff" opacity="0.106" filter="url(#softGlow)"/>
<circle cx="1114.0" cy="642.5" r="7.0" fill="#c8f7ff" opacity="0.150" filter="url(#softGlow)"/>
<circle cx="1184.0" cy="764.7" r="4.0" fill="#c8f7ff" opacity="0.220" filter="url(#softGlow)"/>
<circle cx="1167.9" cy="886.7" r="5.0" fill="#c8f7ff" opacity="0.291" filter="url(#softGlow)"/>
<circle cx="1017.4" cy="913.8" r="6.0" fill="#c8f7ff" opacity="0.334" filter="url(#softGlow)"/>
<circle cx="888.8" cy="899.9" r="7.0" fill="#c8f7ff" opacity="0.334" filter="url(#softGlow)"/>
<circle cx="749.6" cy="780.9" r="4.0" fill="#c8f7ff" opacity="0.289" filter="url(#softGlow)"/>
<circle cx="770.0" cy="657.2" r="5.0" fill="#c8f7ff" opacity="0.219" filter="url(#softGlow)"/>







<circle cx="1594" cy="66" r="3.2" fill="#bff7ff" opacity="0.082" filter="url(#softGlow)"/>
<circle cx="1795" cy="813" r="3.9" fill="#bff7ff" opacity="0.040" filter="url(#softGlow)"/>
<circle cx="998" cy="407" r="4.1" fill="#bff7ff" opacity="0.096" filter="url(#softGlow)"/>
<circle cx="1230" cy="298" r="3.2" fill="#bff7ff" opacity="0.116" filter="url(#softGlow)"/>
<circle cx="986" cy="613" r="1.5" fill="#bff7ff" opacity="0.041" filter="url(#softGlow)"/>
<circle cx="648" cy="114" r="3.3" fill="#bff7ff" opacity="0.098" filter="url(#softGlow)"/>
<circle cx="503" cy="808" r="1.6" fill="#bff7ff" opacity="0.034" filter="url(#softGlow)"/>
<circle cx="1649" cy="52" r="2.5" fill="#bff7ff" opacity="0.094" filter="url(#softGlow)"/>
<circle cx="763" cy="850" r="4.1" fill="#bff7ff" opacity="0.091" filter="url(#softGlow)"/>
<circle cx="1255" cy="910" r="1.5" fill="#bff7ff" opacity="0.080" filter="url(#softGlow)"/>
<circle cx="515" cy="535" r="2.9" fill="#bff7ff" opacity="0.030" filter="url(#softGlow)"/>
<circle cx="743" cy="500" r="3.5" fill="#bff7ff" opacity="0.125" filter="url(#softGlow)"/>
<circle cx="1132" cy="338" r="2.3" fill="#bff7ff" opacity="0.032" filter="url(#softGlow)"/>
<circle cx="507" cy="701" r="1.6" fill="#bff7ff" opacity="0.132" filter="url(#softGlow)"/>
</svg>