<svg xmlns="http://www.w3.org/2000/svg" width="1920" height="1080" viewBox="0 0 1920 1080">
<defs>
<radialGradient id="spaceGlow" cx="52%" cy="56%" r="54%"><stop offset="0%" stop-color="#132a42"/><stop offset="38%" stop-color="#111630"/><stop offset="100%" stop-color="#030712"/></radialGradient>
<radialGradient id="robotBody" cx="40%" cy="24%" r="85%"><stop offset="0%" stop-color="#ffffff"/><stop offset="52%" stop-color="#dce9ff"/><stop offset="100%" stop-color="#93a6bd"/></radialGradient>
<radialGradient id="blueCore" cx="40%" cy="30%" r="70%"><stop offset="0%" stop-color="#8df4ff"/><stop offset="45%" stop-color="#4895ff"/><stop offset="100%" stop-color="#1a47ff"/></radialGradient>
<filter id="softGlow" x="-80%" y="-80%" width="260%" height="260%"><feGaussianBlur stdDeviation="16" result="blur"/><feMerge><feMergeNode in="blur"/><feMergeNode in="SourceGraphic"/></feMerge></filter>
<filter id="wideGlow" x="-120%" y="-120%" width="340%" height="340%"><feGaussianBlur stdDeviation="34" result="blur"/><feMerge><feMergeNode in="blur"/><feMergeNode in="SourceGraphic"/></feMerge></filter>
</defs>
<ellipse cx="960" cy="742.7" rx="285.5" ry="206.6" fill="none" stroke="#70d6ff" stroke-width="4" opacity="0.190" filter="url(#softGlow)"/>
<path d="M820 740 C770 700 770 825 825 795" stroke="#c4f4ff" stroke-width="10" opacity="0.283" fill="none" stroke-linecap="round" filter="url(#softGlow)"/>
<path d="M1098 724 C1162 686 1164 822 1098 794" stroke="#c4f4ff" stroke-width="10" opacity="0.197" fill="none" stroke-linecap="round" filter="url(#softGlow)"/>
<circle cx="819.6" cy="725.7" r="4.0" fill="#c8f7ff" opacity="0.139" filter="url(#softGlow)"/>
<circle cx="915.1" cy="612.8" r="5.0" fill="#c8f7ff" opacity="0.102" filter="url(#softGlow)"/>
<circle cx="1067.1" cy="617.0" r="6.0" fill="#c8f7ff" opacity="0.111" filter="url(#softGlow)"/>
<circle cx="1125.6" cy="661.3" r="7.0" fill="#c8f7ff" opacity="0.161" filter="url(#softGlow)"/>
<circle cx="1182.5" cy="785.1" r="4.0" fill="#c8f7ff" opacity="0.234" filter="url(#softGlow)"/>
<circle cx="1149.2" cy="903.1" r="5.0" fill="#c8f7ff" opacity="0.302" filter="url(#softGlow)"/>
<circle cx="996.5" cy="913.5" r="6.0" fill="#c8f7ff" opacity="0.338" filter="url(#softGlow)"/>
<circle cx="865.3" cy="883.1" r="7.0" fill="#c8f7ff" opacity="0.329" filter="url(#softGlow)"/>
<circle cx="734.1" cy="760.5" r="4.0" fill="#c8f7ff" opacity="0.278" filter="url(#softGlow)"/>
<circle cx="771.5" cy="638.9" r="5.0" fill="#c8f7ff" opacity="0.205" filter="url(#softGlow)"/>







<circle cx="1594" cy="66" r="3.2" fill="#bff7ff" opacity="0.074" filter="url(#softGlow)"/>
<circle cx="1795" cy="813" r="3.9" fill="#bff7ff" opacity="0.036" filter="url(#softGlow)"/>
<circle cx="998" cy="407" r="4.1" fill="#bff7ff" opacity="0.087" filter="url(#softGlow)"/>
<circle cx="1230" cy="298" r="3.2" fill="#bff7ff" opacity="0.105" filter="url(#softGlow)"/>
<circle cx="986" cy="613" r="1.5" fill="#bff7ff" opacity="0.037" filter="url(#softGlow)"/>
<circle cx="648" cy="114" r="3.3" fill="#bff7ff" opacity="0.089" filter="url(#softGlow)"/>
<circle cx="503" cy="808" r="1.6" fill="#bff7ff" opacity="0.031" filter="url(#softGlow)"/>
<circle cx="1649" cy="52" r="2.5" fill="#bff7ff" opacity="0.085" filter="url(#softGlow)"/>
<circle cx="763" cy="850" r="4.1" fill="#bff7ff" opacity="0.082" filter="url(#softGlow)"/>
<circle cx="1255" cy="910" r="1.5" fill="#bff7ff" opacity="0.072" filter="url(#softGlow)"/>
<circle cx="515" cy="535" r="2.9" fill="#bff7ff" opacity="0.028" filter="url(#softGlow)"/>
<circle cx="743" cy="500" r="3.5" fill="#bff7ff" opacity="0.113" filter="url(#softGlow)"/>
<circle cx="1132" cy="338" r="2.3" fill="#bff7ff" opacity="0.029" filter="url(#softGlow)"/>
<circle cx="507" cy="701" r="1.6" fill="#bff7ff" opacity="0.120" filter="url(#softGlow)"/>
</svg>