<svg xmlns="http://www.w3.org/2000/svg" width="1920" height="1080" viewBox="0 0 1920 1080">
<defs>
<radialGradient id="spaceGlow" cx="52%" cy="56%" r="54%"><stop offset="0%" stop-color="#132a42"/><stop offset="38%" stop-color="#111630"/><stop offset="100%" stop-color="#030712"/></radialGradient>
<radialGradient id="robotBody" cx="40%" cy="24%" r="85%"><stop offset="0%" stop-color="#ffffff"/><stop offset="52%" stop-color="#dce9ff"/><stop offset="100%" stop-color="#93a6bd"/></radialGradient>
<radialGradient id="blueCore" cx="40%" cy="30%" r="70%"><stop offset="0%" stop-color="#8df4ff"/><stop offset="45%" stop-color="#4895ff"/><stop offset="100%" stop-color="#1a47ff"/></radialGradient>
<filter id="softGlow" x="-80%" y="-80%" width="260%" height="260%"><feGaussianBlur stdDeviation="16" result="blur"/><feMerge><feMergeNode in="blur"/><feMergeNode in="SourceGraphic"/></feMerge></filter>
<filter id="wideGlow" x="-120%" y="-120%" width="340%" height="340%"><feGaussianBlur stdDeviation="34" result="blur"/><feMerge><feMergeNode in="blur"/><feMergeNode in="SourceGraphic"/></feMerge></filter>
</defs>
<ellipse cx="960" cy="742.2" rx="281.7" ry="204.5" fill="none" stroke="#70d6ff" stroke-width="4" opacity="0.176" filter="url(#softGlow)"/>
<path d="M820 740 C770 700 770 825 825 795" stroke="#c4f4ff" stroke-width="10" opacity="0.258" fill="none" stroke-linecap="round" filter="url(#softGlow)"/>
<path d="M1098 724 C1162 686 1164 822 1098 794" stroke="#c4f4ff" stroke-width="10" opacity="0.222" fill="none" stroke-linecap="round" filter="url(#softGlow)"/>
<circle cx="834.9" cy="706.4" r="4.0" fill="#c8f7ff" opacity="0.130" filter="url(#softGlow)"/>
<circle cx="940.2" cy="601.5" r="5.0" fill="#c8f7ff" opacity="0.100" filter="url(#softGlow)"/>
<circle cx="1093.0" cy="622.4" r="6.0" fill="#c8f7ff" opacity="0.117" filter="url(#softGlow)"/>
<circle cx="1135.1" cy="681.9" r="7.0" fill="#c8f7ff" opacity="0.173" filter="url(#softGlow)"/>
<circle cx="1178.1" cy="805.0" r="4.0" fill="#c8f7ff" opacity="0.247" filter="url(#softGlow)"/>
<circle cx="1128.2" cy="916.9" r="5.0" fill="#c8f7ff" opacity="0.311" filter="url(#softGlow)"/>
<circle cx="975.2" cy="910.4" r="6.0" fill="#c8f7ff" opacity="0.340" filter="url(#softGlow)"/>
<circle cx="842.9" cy="864.0" r="7.0" fill="#c8f7ff" opacity="0.322" filter="url(#softGlow)"/>
<circle cx="721.5" cy="740.2" r="4.0" fill="#c8f7ff" opacity="0.266" filter="url(#softGlow)"/>
<circle cx="775.4" cy="622.9" r="5.0" fill="#c8f7ff" opacity="0.192" filter="url(#softGlow)"/>







<circle cx="929" cy="555" r="2.5" fill="#bff7ff" opacity="0.080" filter="url(#softGlow)"/>
<circle cx="1321" cy="270" r="1.9" fill="#bff7ff" opacity="0.107" filter="url(#softGlow)"/>
<circle cx="1729" cy="661" r="4.2" fill="#bff7ff" opacity="0.127" filter="url(#softGlow)"/>
<circle cx="1744" cy="697" r="4.1" fill="#bff7ff" opacity="0.087" filter="url(#softGlow)"/>
<circle cx="1689" cy="119" r="1.7" fill="#bff7ff" opacity="0.077" filter="url(#softGlow)"/>
<circle cx="1460" cy="189" r="3.3" fill="#bff7ff" opacity="0.110" filter="url(#softGlow)"/>
<circle cx="242" cy="452" r="3.5" fill="#bff7ff" opacity="0.106" filter="url(#softGlow)"/>
<circle cx="293" cy="460" r="2.4" fill="#bff7ff" opacity="0.089" filter="url(#softGlow)"/>
<circle cx="210" cy="969" r="3.8" fill="#bff7ff" opacity="0.105" filter="url(#softGlow)"/>
<circle cx="948" cy="926" r="3.9" fill="#bff7ff" opacity="0.080" filter="url(#softGlow)"/>
<circle cx="84" cy="106" r="3.3" fill="#bff7ff" opacity="0.093" filter="url(#softGlow)"/>
<circle cx="559" cy="701" r="3.0" fill="#bff7ff" opacity="0.028" filter="url(#softGlow)"/>
<circle cx="1497" cy="647" r="2.6" fill="#bff7ff" opacity="0.102" filter="url(#softGlow)"/>
<circle cx="711" cy="543" r="2.4" fill="#bff7ff" opacity="0.034" filter="url(#softGlow)"/>
</svg>