<svg xmlns="http://www.w3.org/2000/svg" width="1920" height="1080" viewBox="0 0 1920 1080">
<defs>
<radialGradient id="spaceGlow" cx="52%" cy="56%" r="54%"><stop offset="0%" stop-color="#132a42"/><stop offset="38%" stop-color="#111630"/><stop offset="100%" stop-color="#030712"/></radialGradient>
<radialGradient id="robotBody" cx="40%" cy="24%" r="85%"><stop offset="0%" stop-color="#ffffff"/><stop offset="52%" stop-color="#dce9ff"/><stop offset="100%" stop-color="#93a6bd"/></radialGradient>
<radialGradient id="blueCore" cx="40%" cy="30%" r="70%"><stop offset="0%" stop-color="#8df4ff"/><stop offset="45%" stop-color="#4895ff"/><stop offset="100%" stop-color="#1a47ff"/></radialGradient>
<filter id="softGlow" x="-80%" y="-80%" width="260%" height="260%"><feGaussianBlur stdDeviation="16" result="blur"/><feMerge><feMergeNode in="blur"/><feMergeNode in="SourceGraphic"/></feMerge></filter>
<filter id="wideGlow" x="-120%" y="-120%" width="340%" height="340%"><feGaussianBlur stdDeviation="34" result="blur"/><feMerge><feMergeNode in="blur"/><feMergeNode in="SourceGraphic"/></feMerge></filter>
</defs>
<ellipse cx="960" cy="742.7" rx="270.6" ry="198.3" fill="none" stroke="#70d6ff" stroke-width="4" opacity="0.132" filter="url(#softGlow)"/>
<path d="M820 740 C770 700 770 825 825 795" stroke="#c4f4ff" stroke-width="10" opacity="0.184" fill="none" stroke-linecap="round" filter="url(#softGlow)"/>
<path d="M1098 724 C1162 686 1164 822 1098 794" stroke="#c4f4ff" stroke-width="10" opacity="0.296" fill="none" stroke-linecap="round" filter="url(#softGlow)"/>
<circle cx="889.8" cy="656.1" r="4.0" fill="#c8f7ff" opacity="0.108" filter="url(#softGlow)"/>
<circle cx="1015.8" cy="586.0" r="5.0" fill="#c8f7ff" opacity="0.104" filter="url(#softGlow)"/>
<circle cx="1159.1" cy="653.6" r="6.0" fill="#c8f7ff" opacity="0.144" filter="url(#softGlow)"/>
<circle cx="1149.7" cy="751.4" r="7.0" fill="#c8f7ff" opacity="0.213" filter="url(#softGlow)"/>
<circle cx="1148.5" cy="858.9" r="4.0" fill="#c8f7ff" opacity="0.285" filter="url(#softGlow)"/>
<circle cx="1053.3" cy="940.5" r="5.0" fill="#c8f7ff" opacity="0.332" filter="url(#softGlow)"/>
<circle cx="911.2" cy="885.5" r="6.0" fill="#c8f7ff" opacity="0.336" filter="url(#softGlow)"/>
<circle cx="785.9" cy="797.4" r="7.0" fill="#c8f7ff" opacity="0.296" filter="url(#softGlow)"/>
<circle cx="702.3" cy="683.4" r="4.0" fill="#c8f7ff" opacity="0.226" filter="url(#softGlow)"/>
<circle cx="801.0" cy="591.4" r="5.0" fill="#c8f7ff" opacity="0.154" filter="url(#softGlow)"/>







<circle cx="1560" cy="319" r="2.3" fill="#bff7ff" opacity="0.042" filter="url(#softGlow)"/>
<circle cx="627" cy="556" r="2.8" fill="#bff7ff" opacity="0.040" filter="url(#softGlow)"/>
<circle cx="244" cy="282" r="3.8" fill="#bff7ff" opacity="0.060" filter="url(#softGlow)"/>
<circle cx="1815" cy="65" r="3.2" fill="#bff7ff" opacity="0.035" filter="url(#softGlow)"/>
<circle cx="1827" cy="961" r="2.3" fill="#bff7ff" opacity="0.080" filter="url(#softGlow)"/>
<circle cx="157" cy="558" r="4.1" fill="#bff7ff" opacity="0.038" filter="url(#softGlow)"/>
<circle cx="1332" cy="467" r="3.1" fill="#bff7ff" opacity="0.069" filter="url(#softGlow)"/>
<circle cx="1299" cy="911" r="3.1" fill="#bff7ff" opacity="0.081" filter="url(#softGlow)"/>
<circle cx="1005" cy="61" r="3.2" fill="#bff7ff" opacity="0.036" filter="url(#softGlow)"/>
<circle cx="1473" cy="560" r="3.4" fill="#bff7ff" opacity="0.057" filter="url(#softGlow)"/>
<circle cx="1028" cy="439" r="1.8" fill="#bff7ff" opacity="0.073" filter="url(#softGlow)"/>
<circle cx="740" cy="332" r="2.8" fill="#bff7ff" opacity="0.030" filter="url(#softGlow)"/>
<circle cx="930" cy="357" r="2.5" fill="#bff7ff" opacity="0.025" filter="url(#softGlow)"/>
<circle cx="543" cy="581" r="3.5" fill="#bff7ff" opacity="0.073" filter="url(#softGlow)"/>
</svg>