<svg xmlns="http://www.w3.org/2000/svg" width="1920" height="1080" viewBox="0 0 1920 1080">
<defs>
<radialGradient id="spaceGlow" cx="52%" cy="56%" r="54%"><stop offset="0%" stop-color="#132a42"/><stop offset="38%" stop-color="#111630"/><stop offset="100%" stop-color="#030712"/></radialGradient>
<radialGradient id="robotBody" cx="40%" cy="24%" r="85%"><stop offset="0%" stop-color="#ffffff"/><stop offset="52%" stop-color="#dce9ff"/><stop offset="100%" stop-color="#93a6bd"/></radialGradient>
<radialGradient id="blueCore" cx="40%" cy="30%" r="70%"><stop offset="0%" stop-color="#8df4ff"/><stop offset="45%" stop-color="#4895ff"/><stop offset="100%" stop-color="#1a47ff"/></radialGradient>
<filter id="softGlow" x="-80%" y="-80%" width="260%" height="260%"><feGaussianBlur stdDeviation="16" result="blur"/><feMerge><feMergeNode in="blur"/><feMergeNode in="SourceGraphic"/></feMerge></filter>
<filter id="wideGlow" x="-120%" y="-120%" width="340%" height="340%"><feGaussianBlur stdDeviation="34" result="blur"/><feMerge><feMergeNode in="blur"/><feMergeNode in="SourceGraphic"/></feMerge></filter>
</defs>
<ellipse cx="960" cy="745.4" rx="273.2" ry="199.8" fill="none" stroke="#70d6ff" stroke-width="4" opacity="0.143" filter="url(#softGlow)"/>
<path d="M820 740 C770 700 770 825 825 795" stroke="#c4f4ff" stroke-width="10" opacity="0.201" fill="none" stroke-linecap="round" filter="url(#softGlow)"/>
<path d="M1098 724 C1162 686 1164 822 1098 794" stroke="#c4f4ff" stroke-width="10" opacity="0.279" fill="none" stroke-linecap="round" filter="url(#softGlow)"/>
<circle cx="942.0" cy="627.5" r="4.0" fill="#c8f7ff" opacity="0.101" filter="url(#softGlow)"/>
<circle cx="1074.2" cy="595.5" r="5.0" fill="#c8f7ff" opacity="0.117" filter="url(#softGlow)"/>
<circle cx="1197.0" cy="693.8" r="6.0" fill="#c8f7ff" opacity="0.173" filter="url(#softGlow)"/>
<circle cx="1145.3" cy="811.3" r="7.0" fill="#c8f7ff" opacity="0.247" filter="url(#softGlow)"/>
<circle cx="1107.1" cy="892.2" r="4.0" fill="#c8f7ff" opacity="0.310" filter="url(#softGlow)"/>
<circle cx="982.3" cy="938.1" r="5.0" fill="#c8f7ff" opacity="0.340" filter="url(#softGlow)"/>
<circle cx="861.8" cy="849.3" r="6.0" fill="#c8f7ff" opacity="0.323" filter="url(#softGlow)"/>
<circle cx="753.5" cy="737.2" r="7.0" fill="#c8f7ff" opacity="0.266" filter="url(#softGlow)"/>
<circle cx="708.9" cy="645.8" r="4.0" fill="#c8f7ff" opacity="0.192" filter="url(#softGlow)"/>
<circle cx="836.4" cy="586.8" r="5.0" fill="#c8f7ff" opacity="0.129" filter="url(#softGlow)"/>







<circle cx="989" cy="806" r="2.7" fill="#bff7ff" opacity="0.039" filter="url(#softGlow)"/>
<circle cx="260" cy="257" r="4.1" fill="#bff7ff" opacity="0.028" filter="url(#softGlow)"/>
<circle cx="577" cy="620" r="2.9" fill="#bff7ff" opacity="0.022" filter="url(#softGlow)"/>
<circle cx="1073" cy="665" r="4.2" fill="#bff7ff" opacity="0.040" filter="url(#softGlow)"/>
<circle cx="1572" cy="480" r="1.8" fill="#bff7ff" opacity="0.040" filter="url(#softGlow)"/>
<circle cx="1037" cy="306" r="3.5" fill="#bff7ff" opacity="0.023" filter="url(#softGlow)"/>
<circle cx="916" cy="703" r="1.6" fill="#bff7ff" opacity="0.033" filter="url(#softGlow)"/>
<circle cx="1802" cy="530" r="2.0" fill="#bff7ff" opacity="0.037" filter="url(#softGlow)"/>
<circle cx="1669" cy="233" r="2.9" fill="#bff7ff" opacity="0.039" filter="url(#softGlow)"/>
<circle cx="740" cy="953" r="2.8" fill="#bff7ff" opacity="0.037" filter="url(#softGlow)"/>
<circle cx="157" cy="727" r="3.4" fill="#bff7ff" opacity="0.028" filter="url(#softGlow)"/>
<circle cx="193" cy="169" r="2.1" fill="#bff7ff" opacity="0.017" filter="url(#softGlow)"/>
<circle cx="761" cy="217" r="2.4" fill="#bff7ff" opacity="0.032" filter="url(#softGlow)"/>
<circle cx="1396" cy="541" r="3.1" fill="#bff7ff" opacity="0.028" filter="url(#softGlow)"/>
</svg>