<svg xmlns="http://www.w3.org/2000/svg" width="1920" height="1080" viewBox="0 0 1920 1080">
<defs>
<radialGradient id="spaceGlow" cx="52%" cy="56%" r="54%"><stop offset="0%" stop-color="#132a42"/><stop offset="38%" stop-color="#111630"/><stop offset="100%" stop-color="#030712"/></radialGradient>
<radialGradient id="robotBody" cx="40%" cy="24%" r="85%"><stop offset="0%" stop-color="#ffffff"/><stop offset="52%" stop-color="#dce9ff"/><stop offset="100%" stop-color="#93a6bd"/></radialGradient>
<radialGradient id="blueCore" cx="40%" cy="30%" r="70%"><stop offset="0%" stop-color="#8df4ff"/><stop offset="45%" stop-color="#4895ff"/><stop offset="100%" stop-color="#1a47ff"/></radialGradient>
<filter id="softGlow" x="-80%" y="-80%" width="260%" height="260%"><feGaussianBlur stdDeviation="16" result="blur"/><feMerge><feMergeNode in="blur"/><feMergeNode in="SourceGraphic"/></feMerge></filter>
<filter id="wideGlow" x="-120%" y="-120%" width="340%" height="340%"><feGaussianBlur stdDeviation="34" result="blur"/><feMerge><feMergeNode in="blur"/><feMergeNode in="SourceGraphic"/></feMerge></filter>
</defs>
<ellipse cx="960" cy="746.1" rx="275.1" ry="200.8" fill="none" stroke="#70d6ff" stroke-width="4" opacity="0.150" filter="url(#softGlow)"/>
<path d="M820 740 C770 700 770 825 825 795" stroke="#c4f4ff" stroke-width="10" opacity="0.214" fill="none" stroke-linecap="round" filter="url(#softGlow)"/>
<path d="M1098 724 C1162 686 1164 822 1098 794" stroke="#c4f4ff" stroke-width="10" opacity="0.266" fill="none" stroke-linecap="round" filter="url(#softGlow)"/>
<circle cx="952.7" cy="623.6" r="4.0" fill="#c8f7ff" opacity="0.100" filter="url(#softGlow)"/>
<circle cx="1084.9" cy="599.8" r="5.0" fill="#c8f7ff" opacity="0.120" filter="url(#softGlow)"/>
<circle cx="1202.4" cy="703.0" r="6.0" fill="#c8f7ff" opacity="0.179" filter="url(#softGlow)"/>
<circle cx="1142.6" cy="822.8" r="7.0" fill="#c8f7ff" opacity="0.253" filter="url(#softGlow)"/>
<circle cx="1097.3" cy="897.2" r="4.0" fill="#c8f7ff" opacity="0.315" filter="url(#softGlow)"/>
<circle cx="967.8" cy="935.2" r="5.0" fill="#c8f7ff" opacity="0.340" filter="url(#softGlow)"/>
<circle cx="852.7" cy="840.7" r="6.0" fill="#c8f7ff" opacity="0.319" filter="url(#softGlow)"/>
<circle cx="748.9" cy="725.3" r="7.0" fill="#c8f7ff" opacity="0.260" filter="url(#softGlow)"/>
<circle cx="712.7" cy="639.8" r="4.0" fill="#c8f7ff" opacity="0.186" filter="url(#softGlow)"/>
<circle cx="844.8" cy="588.3" r="5.0" fill="#c8f7ff" opacity="0.125" filter="url(#softGlow)"/>







<circle cx="989" cy="806" r="2.7" fill="#bff7ff" opacity="0.035" filter="url(#softGlow)"/>
<circle cx="260" cy="257" r="4.1" fill="#bff7ff" opacity="0.025" filter="url(#softGlow)"/>
<circle cx="577" cy="620" r="2.9" fill="#bff7ff" opacity="0.020" filter="url(#softGlow)"/>
<circle cx="1073" cy="665" r="4.2" fill="#bff7ff" opacity="0.036" filter="url(#softGlow)"/>
<circle cx="1572" cy="480" r="1.8" fill="#bff7ff" opacity="0.036" filter="url(#softGlow)"/>
<circle cx="1037" cy="306" r="3.5" fill="#bff7ff" opacity="0.021" filter="url(#softGlow)"/>
<circle cx="916" cy="703" r="1.6" fill="#bff7ff" opacity="0.030" filter="url(#softGlow)"/>
<circle cx="1802" cy="530" r="2.0" fill="#bff7ff" opacity="0.033" filter="url(#softGlow)"/>
<circle cx="1669" cy="233" r="2.9" fill="#bff7ff" opacity="0.035" filter="url(#softGlow)"/>
<circle cx="740" cy="953" r="2.8" fill="#bff7ff" opacity="0.033" filter="url(#softGlow)"/>
<circle cx="157" cy="727" r="3.4" fill="#bff7ff" opacity="0.025" filter="url(#softGlow)"/>
<circle cx="193" cy="169" r="2.1" fill="#bff7ff" opacity="0.015" filter="url(#softGlow)"/>
<circle cx="761" cy="217" r="2.4" fill="#bff7ff" opacity="0.029" filter="url(#softGlow)"/>
<circle cx="1396" cy="541" r="3.1" fill="#bff7ff" opacity="0.025" filter="url(#softGlow)"/>
</svg>