<svg xmlns="http://www.w3.org/2000/svg" width="1920" height="1080" viewBox="0 0 1920 1080">
<defs>
<radialGradient id="spaceGlow" cx="52%" cy="56%" r="54%"><stop offset="0%" stop-color="#132a42"/><stop offset="38%" stop-color="#111630"/><stop offset="100%" stop-color="#030712"/></radialGradient>
<radialGradient id="robotBody" cx="40%" cy="24%" r="85%"><stop offset="0%" stop-color="#ffffff"/><stop offset="52%" stop-color="#dce9ff"/><stop offset="100%" stop-color="#93a6bd"/></radialGradient>
<radialGradient id="blueCore" cx="40%" cy="30%" r="70%"><stop offset="0%" stop-color="#8df4ff"/><stop offset="45%" stop-color="#4895ff"/><stop offset="100%" stop-color="#1a47ff"/></radialGradient>
<filter id="softGlow" x="-80%" y="-80%" width="260%" height="260%"><feGaussianBlur stdDeviation="16" result="blur"/><feMerge><feMergeNode in="blur"/><feMergeNode in="SourceGraphic"/></feMerge></filter>
<filter id="wideGlow" x="-120%" y="-120%" width="340%" height="340%"><feGaussianBlur stdDeviation="34" result="blur"/><feMerge><feMergeNode in="blur"/><feMergeNode in="SourceGraphic"/></feMerge></filter>
</defs>
<ellipse cx="960" cy="747.0" rx="277.2" ry="202.0" fill="none" stroke="#70d6ff" stroke-width="4" opacity="0.158" filter="url(#softGlow)"/>
<path d="M820 740 C770 700 770 825 825 795" stroke="#c4f4ff" stroke-width="10" opacity="0.228" fill="none" stroke-linecap="round" filter="url(#softGlow)"/>
<path d="M1098 724 C1162 686 1164 822 1098 794" stroke="#c4f4ff" stroke-width="10" opacity="0.252" fill="none" stroke-linecap="round" filter="url(#softGlow)"/>
<circle cx="963.5" cy="620.4" r="4.0" fill="#c8f7ff" opacity="0.100" filter="url(#softGlow)"/>
<circle cx="1095.2" cy="604.8" r="5.0" fill="#c8f7ff" opacity="0.124" filter="url(#softGlow)"/>
<circle cx="1207.0" cy="712.4" r="6.0" fill="#c8f7ff" opacity="0.185" filter="url(#softGlow)"/>
<circle cx="1139.3" cy="834.1" r="7.0" fill="#c8f7ff" opacity="0.260" filter="url(#softGlow)"/>
<circle cx="1087.1" cy="901.6" r="4.0" fill="#c8f7ff" opacity="0.319" filter="url(#softGlow)"/>
<circle cx="953.1" cy="931.4" r="5.0" fill="#c8f7ff" opacity="0.340" filter="url(#softGlow)"/>
<circle cx="844.0" cy="831.8" r="6.0" fill="#c8f7ff" opacity="0.315" filter="url(#softGlow)"/>
<circle cx="745.0" cy="713.6" r="7.0" fill="#c8f7ff" opacity="0.254" filter="url(#softGlow)"/>
<circle cx="717.3" cy="634.4" r="4.0" fill="#c8f7ff" opacity="0.179" filter="url(#softGlow)"/>
<circle cx="853.5" cy="590.6" r="5.0" fill="#c8f7ff" opacity="0.121" filter="url(#softGlow)"/>







<g opacity="0.062" filter="url(#softGlow)">
  <line x1="1368.1" y1="149.0" x2="1668.1" y2="41.0" stroke="#fff1a6" stroke-width="8" stroke-linecap="round"/>
  <line x1="1386.1" y1="143.0" x2="1818.1" y2="-13.0" stroke="#ffffff" stroke-width="2" stroke-linecap="round" opacity="0.92"/>
</g>
<circle cx="989" cy="806" r="2.7" fill="#bff7ff" opacity="0.031" filter="url(#softGlow)"/>
<circle cx="260" cy="257" r="4.1" fill="#bff7ff" opacity="0.023" filter="url(#softGlow)"/>
<circle cx="577" cy="620" r="2.9" fill="#bff7ff" opacity="0.018" filter="url(#softGlow)"/>
<circle cx="1073" cy="665" r="4.2" fill="#bff7ff" opacity="0.032" filter="url(#softGlow)"/>
<circle cx="1572" cy="480" r="1.8" fill="#bff7ff" opacity="0.032" filter="url(#softGlow)"/>
<circle cx="1037" cy="306" r="3.5" fill="#bff7ff" opacity="0.019" filter="url(#softGlow)"/>
<circle cx="916" cy="703" r="1.6" fill="#bff7ff" opacity="0.026" filter="url(#softGlow)"/>
<circle cx="1802" cy="530" r="2.0" fill="#bff7ff" opacity="0.030" filter="url(#softGlow)"/>
<circle cx="1669" cy="233" r="2.9" fill="#bff7ff" opacity="0.031" filter="url(#softGlow)"/>
<circle cx="740" cy="953" r="2.8" fill="#bff7ff" opacity="0.030" filter="url(#softGlow)"/>
<circle cx="157" cy="727" r="3.4" fill="#bff7ff" opacity="0.022" filter="url(#softGlow)"/>
<circle cx="193" cy="169" r="2.1" fill="#bff7ff" opacity="0.014" filter="url(#softGlow)"/>
<circle cx="761" cy="217" r="2.4" fill="#bff7ff" opacity="0.026" filter="url(#softGlow)"/>
<circle cx="1396" cy="541" r="3.1" fill="#bff7ff" opacity="0.022" filter="url(#softGlow)"/>
</svg>