<svg xmlns="http://www.w3.org/2000/svg" width="1920" height="1080" viewBox="0 0 1920 1080">
<defs>
<radialGradient id="spaceGlow" cx="52%" cy="56%" r="54%"><stop offset="0%" stop-color="#132a42"/><stop offset="38%" stop-color="#111630"/><stop offset="100%" stop-color="#030712"/></radialGradient>
<radialGradient id="robotBody" cx="40%" cy="24%" r="85%"><stop offset="0%" stop-color="#ffffff"/><stop offset="52%" stop-color="#dce9ff"/><stop offset="100%" stop-color="#93a6bd"/></radialGradient>
<radialGradient id="blueCore" cx="40%" cy="30%" r="70%"><stop offset="0%" stop-color="#8df4ff"/><stop offset="45%" stop-color="#4895ff"/><stop offset="100%" stop-color="#1a47ff"/></radialGradient>
<filter id="softGlow" x="-80%" y="-80%" width="260%" height="260%"><feGaussianBlur stdDeviation="16" result="blur"/><feMerge><feMergeNode in="blur"/><feMergeNode in="SourceGraphic"/></feMerge></filter>
<filter id="wideGlow" x="-120%" y="-120%" width="340%" height="340%"><feGaussianBlur stdDeviation="34" result="blur"/><feMerge><feMergeNode in="blur"/><feMergeNode in="SourceGraphic"/></feMerge></filter>
</defs>
<ellipse cx="960" cy="747.9" rx="279.5" ry="203.3" fill="none" stroke="#70d6ff" stroke-width="4" opacity="0.167" filter="url(#softGlow)"/>
<path d="M820 740 C770 700 770 825 825 795" stroke="#c4f4ff" stroke-width="10" opacity="0.243" fill="none" stroke-linecap="round" filter="url(#softGlow)"/>
<path d="M1098 724 C1162 686 1164 822 1098 794" stroke="#c4f4ff" stroke-width="10" opacity="0.237" fill="none" stroke-linecap="round" filter="url(#softGlow)"/>
<circle cx="974.2" cy="617.8" r="4.0" fill="#c8f7ff" opacity="0.100" filter="url(#softGlow)"/>
<circle cx="1105.1" cy="610.6" r="5.0" fill="#c8f7ff" opacity="0.129" filter="url(#softGlow)"/>
<circle cx="1210.9" cy="722.1" r="6.0" fill="#c8f7ff" opacity="0.192" filter="url(#softGlow)"/>
<circle cx="1135.4" cy="845.1" r="7.0" fill="#c8f7ff" opacity="0.266" filter="url(#softGlow)"/>
<circle cx="1076.5" cy="905.3" r="4.0" fill="#c8f7ff" opacity="0.323" filter="url(#softGlow)"/>
<circle cx="938.5" cy="927.0" r="5.0" fill="#c8f7ff" opacity="0.340" filter="url(#softGlow)"/>
<circle cx="835.7" cy="822.5" r="6.0" fill="#c8f7ff" opacity="0.311" filter="url(#softGlow)"/>
<circle cx="741.8" cy="702.1" r="7.0" fill="#c8f7ff" opacity="0.247" filter="url(#softGlow)"/>
<circle cx="722.6" cy="629.6" r="4.0" fill="#c8f7ff" opacity="0.173" filter="url(#softGlow)"/>
<circle cx="862.6" cy="593.8" r="5.0" fill="#c8f7ff" opacity="0.117" filter="url(#softGlow)"/>







<g opacity="0.184" filter="url(#softGlow)">
  <line x1="1270.3" y1="184.9" x2="1570.3" y2="76.9" stroke="#fff1a6" stroke-width="8" stroke-linecap="round"/>
  <line x1="1288.3" y1="178.9" x2="1720.3" y2="22.9" stroke="#ffffff" stroke-width="2" stroke-linecap="round" opacity="0.92"/>
</g>
<circle cx="178" cy="380" r="3.2" fill="#bff7ff" opacity="0.012" filter="url(#softGlow)"/>
<circle cx="1495" cy="419" r="1.9" fill="#bff7ff" opacity="0.008" filter="url(#softGlow)"/>
<circle cx="572" cy="298" r="1.9" fill="#bff7ff" opacity="0.009" filter="url(#softGlow)"/>
<circle cx="1038" cy="951" r="2.1" fill="#bff7ff" opacity="0.014" filter="url(#softGlow)"/>
<circle cx="1596" cy="201" r="1.7" fill="#bff7ff" opacity="0.020" filter="url(#softGlow)"/>
<circle cx="1627" cy="967" r="3.0" fill="#bff7ff" opacity="0.008" filter="url(#softGlow)"/>
<circle cx="391" cy="521" r="3.4" fill="#bff7ff" opacity="0.032" filter="url(#softGlow)"/>
<circle cx="1011" cy="934" r="3.3" fill="#bff7ff" opacity="0.015" filter="url(#softGlow)"/>
<circle cx="1645" cy="154" r="1.8" fill="#bff7ff" opacity="0.034" filter="url(#softGlow)"/>
<circle cx="329" cy="203" r="1.8" fill="#bff7ff" opacity="0.030" filter="url(#softGlow)"/>
<circle cx="1612" cy="498" r="3.5" fill="#bff7ff" opacity="0.011" filter="url(#softGlow)"/>
<circle cx="1799" cy="754" r="3.8" fill="#bff7ff" opacity="0.031" filter="url(#softGlow)"/>
<circle cx="1232" cy="382" r="3.2" fill="#bff7ff" opacity="0.027" filter="url(#softGlow)"/>
<circle cx="575" cy="940" r="2.0" fill="#bff7ff" opacity="0.023" filter="url(#softGlow)"/>
</svg>