<svg xmlns="http://www.w3.org/2000/svg" width="1920" height="1080" viewBox="0 0 1920 1080">
<defs>
<radialGradient id="spaceGlow" cx="52%" cy="56%" r="54%"><stop offset="0%" stop-color="#132a42"/><stop offset="38%" stop-color="#111630"/><stop offset="100%" stop-color="#030712"/></radialGradient>
<radialGradient id="robotBody" cx="40%" cy="24%" r="85%"><stop offset="0%" stop-color="#ffffff"/><stop offset="52%" stop-color="#dce9ff"/><stop offset="100%" stop-color="#93a6bd"/></radialGradient>
<radialGradient id="blueCore" cx="40%" cy="30%" r="70%"><stop offset="0%" stop-color="#8df4ff"/><stop offset="45%" stop-color="#4895ff"/><stop offset="100%" stop-color="#1a47ff"/></radialGradient>
<filter id="softGlow" x="-80%" y="-80%" width="260%" height="260%"><feGaussianBlur stdDeviation="16" result="blur"/><feMerge><feMergeNode in="blur"/><feMergeNode in="SourceGraphic"/></feMerge></filter>
<filter id="wideGlow" x="-120%" y="-120%" width="340%" height="340%"><feGaussianBlur stdDeviation="34" result="blur"/><feMerge><feMergeNode in="blur"/><feMergeNode in="SourceGraphic"/></feMerge></filter>
</defs>
<ellipse cx="960" cy="749.8" rx="283.7" ry="205.6" fill="none" stroke="#70d6ff" stroke-width="4" opacity="0.183" filter="url(#softGlow)"/>
<path d="M820 740 C770 700 770 825 825 795" stroke="#c4f4ff" stroke-width="10" opacity="0.272" fill="none" stroke-linecap="round" filter="url(#softGlow)"/>
<path d="M1098 724 C1162 686 1164 822 1098 794" stroke="#c4f4ff" stroke-width="10" opacity="0.208" fill="none" stroke-linecap="round" filter="url(#softGlow)"/>
<circle cx="995.5" cy="614.6" r="4.0" fill="#c8f7ff" opacity="0.102" filter="url(#softGlow)"/>
<circle cx="1123.5" cy="624.2" r="5.0" fill="#c8f7ff" opacity="0.138" filter="url(#softGlow)"/>
<circle cx="1216.1" cy="742.0" r="6.0" fill="#c8f7ff" opacity="0.205" filter="url(#softGlow)"/>
<circle cx="1126.1" cy="865.8" r="7.0" fill="#c8f7ff" opacity="0.278" filter="url(#softGlow)"/>
<circle cx="1054.1" cy="910.8" r="4.0" fill="#c8f7ff" opacity="0.329" filter="url(#softGlow)"/>
<circle cx="909.6" cy="915.7" r="5.0" fill="#c8f7ff" opacity="0.338" filter="url(#softGlow)"/>
<circle cx="820.2" cy="803.2" r="6.0" fill="#c8f7ff" opacity="0.301" filter="url(#softGlow)"/>
<circle cx="737.5" cy="680.0" r="7.0" fill="#c8f7ff" opacity="0.234" filter="url(#softGlow)"/>
<circle cx="735.6" cy="621.8" r="4.0" fill="#c8f7ff" opacity="0.161" filter="url(#softGlow)"/>
<circle cx="881.7" cy="602.4" r="5.0" fill="#c8f7ff" opacity="0.111" filter="url(#softGlow)"/>







<g opacity="0.418" filter="url(#softGlow)">
  <line x1="1097.9" y1="248.1" x2="1397.9" y2="140.1" stroke="#fff1a6" stroke-width="8" stroke-linecap="round"/>
  <line x1="1115.9" y1="242.1" x2="1547.9" y2="86.1" stroke="#ffffff" stroke-width="2" stroke-linecap="round" opacity="0.92"/>
</g>
<circle cx="178" cy="380" r="3.2" fill="#bff7ff" opacity="0.010" filter="url(#softGlow)"/>
<circle cx="1495" cy="419" r="1.9" fill="#bff7ff" opacity="0.007" filter="url(#softGlow)"/>
<circle cx="572" cy="298" r="1.9" fill="#bff7ff" opacity="0.008" filter="url(#softGlow)"/>
<circle cx="1038" cy="951" r="2.1" fill="#bff7ff" opacity="0.012" filter="url(#softGlow)"/>
<circle cx="1596" cy="201" r="1.7" fill="#bff7ff" opacity="0.016" filter="url(#softGlow)"/>
<circle cx="1627" cy="967" r="3.0" fill="#bff7ff" opacity="0.007" filter="url(#softGlow)"/>
<circle cx="391" cy="521" r="3.4" fill="#bff7ff" opacity="0.026" filter="url(#softGlow)"/>
<circle cx="1011" cy="934" r="3.3" fill="#bff7ff" opacity="0.012" filter="url(#softGlow)"/>
<circle cx="1645" cy="154" r="1.8" fill="#bff7ff" opacity="0.028" filter="url(#softGlow)"/>
<circle cx="329" cy="203" r="1.8" fill="#bff7ff" opacity="0.025" filter="url(#softGlow)"/>
<circle cx="1612" cy="498" r="3.5" fill="#bff7ff" opacity="0.009" filter="url(#softGlow)"/>
<circle cx="1799" cy="754" r="3.8" fill="#bff7ff" opacity="0.025" filter="url(#softGlow)"/>
<circle cx="1232" cy="382" r="3.2" fill="#bff7ff" opacity="0.021" filter="url(#softGlow)"/>
<circle cx="575" cy="940" r="2.0" fill="#bff7ff" opacity="0.018" filter="url(#softGlow)"/>
</svg>