<svg xmlns="http://www.w3.org/2000/svg" width="1920" height="1080" viewBox="0 0 1920 1080">
<defs>
<radialGradient id="spaceGlow" cx="52%" cy="56%" r="54%"><stop offset="0%" stop-color="#132a42"/><stop offset="38%" stop-color="#111630"/><stop offset="100%" stop-color="#030712"/></radialGradient>
<radialGradient id="robotBody" cx="40%" cy="24%" r="85%"><stop offset="0%" stop-color="#ffffff"/><stop offset="52%" stop-color="#dce9ff"/><stop offset="100%" stop-color="#93a6bd"/></radialGradient>
<radialGradient id="blueCore" cx="40%" cy="30%" r="70%"><stop offset="0%" stop-color="#8df4ff"/><stop offset="45%" stop-color="#4895ff"/><stop offset="100%" stop-color="#1a47ff"/></radialGradient>
<filter id="softGlow" x="-80%" y="-80%" width="260%" height="260%"><feGaussianBlur stdDeviation="16" result="blur"/><feMerge><feMergeNode in="blur"/><feMergeNode in="SourceGraphic"/></feMerge></filter>
<filter id="wideGlow" x="-120%" y="-120%" width="340%" height="340%"><feGaussianBlur stdDeviation="34" result="blur"/><feMerge><feMergeNode in="blur"/><feMergeNode in="SourceGraphic"/></feMerge></filter>
</defs>
<ellipse cx="960" cy="754.4" rx="288.0" ry="208.0" fill="none" stroke="#70d6ff" stroke-width="4" opacity="0.200" filter="url(#softGlow)"/>
<path d="M820 740 C770 700 770 825 825 795" stroke="#c4f4ff" stroke-width="10" opacity="0.300" fill="none" stroke-linecap="round" filter="url(#softGlow)"/>
<path d="M1098 724 C1162 686 1164 822 1098 794" stroke="#c4f4ff" stroke-width="10" opacity="0.180" fill="none" stroke-linecap="round" filter="url(#softGlow)"/>
<circle cx="1036.6" cy="616.5" r="4.0" fill="#c8f7ff" opacity="0.110" filter="url(#softGlow)"/>
<circle cx="1153.7" cy="659.0" r="5.0" fill="#c8f7ff" opacity="0.160" filter="url(#softGlow)"/>
<circle cx="1216.6" cy="782.7" r="6.0" fill="#c8f7ff" opacity="0.232" filter="url(#softGlow)"/>
<circle cx="1101.1" cy="901.3" r="7.0" fill="#c8f7ff" opacity="0.300" filter="url(#softGlow)"/>
<circle cx="1006.0" cy="913.7" r="4.0" fill="#c8f7ff" opacity="0.337" filter="url(#softGlow)"/>
<circle cx="854.0" cy="885.2" r="5.0" fill="#c8f7ff" opacity="0.329" filter="url(#softGlow)"/>
<circle cx="794.9" cy="762.9" r="6.0" fill="#c8f7ff" opacity="0.279" filter="url(#softGlow)"/>
<circle cx="737.4" cy="640.9" r="7.0" fill="#c8f7ff" opacity="0.207" filter="url(#softGlow)"/>
<circle cx="769.9" cy="614.2" r="4.0" fill="#c8f7ff" opacity="0.139" filter="url(#softGlow)"/>
<circle cx="922.6" cy="628.4" r="5.0" fill="#c8f7ff" opacity="0.102" filter="url(#softGlow)"/>







<g opacity="0.798" filter="url(#softGlow)">
  <line x1="836.5" y1="343.9" x2="1136.5" y2="235.9" stroke="#fff1a6" stroke-width="8" stroke-linecap="round"/>
  <line x1="854.5" y1="337.9" x2="1286.5" y2="181.9" stroke="#ffffff" stroke-width="2" stroke-linecap="round" opacity="0.92"/>
</g>
<circle cx="163" cy="183" r="2.8" fill="#bff7ff" opacity="0.011" filter="url(#softGlow)"/>
<circle cx="1021" cy="950" r="3.3" fill="#bff7ff" opacity="0.013" filter="url(#softGlow)"/>
<circle cx="1178" cy="460" r="3.4" fill="#bff7ff" opacity="0.015" filter="url(#softGlow)"/>
<circle cx="450" cy="933" r="4.1" fill="#bff7ff" opacity="0.011" filter="url(#softGlow)"/>
<circle cx="1530" cy="381" r="2.2" fill="#bff7ff" opacity="0.013" filter="url(#softGlow)"/>
<circle cx="1707" cy="313" r="2.1" fill="#bff7ff" opacity="0.005" filter="url(#softGlow)"/>
<circle cx="1169" cy="792" r="2.7" fill="#bff7ff" opacity="0.019" filter="url(#softGlow)"/>
<circle cx="994" cy="639" r="2.4" fill="#bff7ff" opacity="0.005" filter="url(#softGlow)"/>
<circle cx="711" cy="551" r="2.0" fill="#bff7ff" opacity="0.004" filter="url(#softGlow)"/>
<circle cx="1240" cy="699" r="2.4" fill="#bff7ff" opacity="0.021" filter="url(#softGlow)"/>
<circle cx="377" cy="889" r="3.6" fill="#bff7ff" opacity="0.022" filter="url(#softGlow)"/>
<circle cx="1816" cy="711" r="2.7" fill="#bff7ff" opacity="0.021" filter="url(#softGlow)"/>
<circle cx="1799" cy="381" r="2.2" fill="#bff7ff" opacity="0.010" filter="url(#softGlow)"/>
<circle cx="1416" cy="970" r="2.4" fill="#bff7ff" opacity="0.008" filter="url(#softGlow)"/>
</svg>