<svg xmlns="http://www.w3.org/2000/svg" width="1920" height="1080" viewBox="0 0 1920 1080">
<defs>
<radialGradient id="spaceGlow" cx="52%" cy="56%" r="54%"><stop offset="0%" stop-color="#132a42"/><stop offset="38%" stop-color="#111630"/><stop offset="100%" stop-color="#030712"/></radialGradient>
<radialGradient id="robotBody" cx="40%" cy="24%" r="85%"><stop offset="0%" stop-color="#ffffff"/><stop offset="52%" stop-color="#dce9ff"/><stop offset="100%" stop-color="#93a6bd"/></radialGradient>
<radialGradient id="blueCore" cx="40%" cy="30%" r="70%"><stop offset="0%" stop-color="#8df4ff"/><stop offset="45%" stop-color="#4895ff"/><stop offset="100%" stop-color="#1a47ff"/></radialGradient>
<filter id="softGlow" x="-80%" y="-80%" width="260%" height="260%"><feGaussianBlur stdDeviation="16" result="blur"/><feMerge><feMergeNode in="blur"/><feMergeNode in="SourceGraphic"/></feMerge></filter>
<filter id="wideGlow" x="-120%" y="-120%" width="340%" height="340%"><feGaussianBlur stdDeviation="34" result="blur"/><feMerge><feMergeNode in="blur"/><feMergeNode in="SourceGraphic"/></feMerge></filter>
</defs>
<ellipse cx="960" cy="755.6" rx="287.8" ry="207.9" fill="none" stroke="#70d6ff" stroke-width="4" opacity="0.199" filter="url(#softGlow)"/>
<path d="M820 740 C770 700 770 825 825 795" stroke="#c4f4ff" stroke-width="10" opacity="0.298" fill="none" stroke-linecap="round" filter="url(#softGlow)"/>
<path d="M1098 724 C1162 686 1164 822 1098 794" stroke="#c4f4ff" stroke-width="10" opacity="0.182" fill="none" stroke-linecap="round" filter="url(#softGlow)"/>
<circle cx="1046.3" cy="618.7" r="4.0" fill="#c8f7ff" opacity="0.113" filter="url(#softGlow)"/>
<circle cx="1159.8" cy="669.0" r="5.0" fill="#c8f7ff" opacity="0.166" filter="url(#softGlow)"/>
<circle cx="1214.7" cy="792.8" r="6.0" fill="#c8f7ff" opacity="0.239" filter="url(#softGlow)"/>
<circle cx="1093.6" cy="908.7" r="7.0" fill="#c8f7ff" opacity="0.305" filter="url(#softGlow)"/>
<circle cx="993.5" cy="912.7" r="4.0" fill="#c8f7ff" opacity="0.339" filter="url(#softGlow)"/>
<circle cx="840.9" cy="876.0" r="5.0" fill="#c8f7ff" opacity="0.326" filter="url(#softGlow)"/>
<circle cx="789.8" cy="752.7" r="6.0" fill="#c8f7ff" opacity="0.273" filter="url(#softGlow)"/>
<circle cx="739.2" cy="632.5" r="7.0" fill="#c8f7ff" opacity="0.200" filter="url(#softGlow)"/>
<circle cx="780.1" cy="614.0" r="4.0" fill="#c8f7ff" opacity="0.134" filter="url(#softGlow)"/>
<circle cx="933.2" cy="636.5" r="5.0" fill="#c8f7ff" opacity="0.101" filter="url(#softGlow)"/>







<g opacity="0.866" filter="url(#softGlow)">
  <line x1="786.7" y1="362.2" x2="1086.7" y2="254.2" stroke="#fff1a6" stroke-width="8" stroke-linecap="round"/>
  <line x1="804.7" y1="356.2" x2="1236.7" y2="200.2" stroke="#ffffff" stroke-width="2" stroke-linecap="round" opacity="0.92"/>
</g>
<circle cx="163" cy="183" r="2.8" fill="#bff7ff" opacity="0.011" filter="url(#softGlow)"/>
<circle cx="1021" cy="950" r="3.3" fill="#bff7ff" opacity="0.013" filter="url(#softGlow)"/>
<circle cx="1178" cy="460" r="3.4" fill="#bff7ff" opacity="0.015" filter="url(#softGlow)"/>
<circle cx="450" cy="933" r="4.1" fill="#bff7ff" opacity="0.011" filter="url(#softGlow)"/>
<circle cx="1530" cy="381" r="2.2" fill="#bff7ff" opacity="0.013" filter="url(#softGlow)"/>
<circle cx="1707" cy="313" r="2.1" fill="#bff7ff" opacity="0.005" filter="url(#softGlow)"/>
<circle cx="1169" cy="792" r="2.7" fill="#bff7ff" opacity="0.019" filter="url(#softGlow)"/>
<circle cx="994" cy="639" r="2.4" fill="#bff7ff" opacity="0.005" filter="url(#softGlow)"/>
<circle cx="711" cy="551" r="2.0" fill="#bff7ff" opacity="0.004" filter="url(#softGlow)"/>
<circle cx="1240" cy="699" r="2.4" fill="#bff7ff" opacity="0.021" filter="url(#softGlow)"/>
<circle cx="377" cy="889" r="3.6" fill="#bff7ff" opacity="0.022" filter="url(#softGlow)"/>
<circle cx="1816" cy="711" r="2.7" fill="#bff7ff" opacity="0.021" filter="url(#softGlow)"/>
<circle cx="1799" cy="381" r="2.2" fill="#bff7ff" opacity="0.010" filter="url(#softGlow)"/>
<circle cx="1416" cy="970" r="2.4" fill="#bff7ff" opacity="0.008" filter="url(#softGlow)"/>
</svg>