<svg xmlns="http://www.w3.org/2000/svg" width="1920" height="1080" viewBox="0 0 1920 1080">
<defs>
<radialGradient id="spaceGlow" cx="52%" cy="56%" r="54%"><stop offset="0%" stop-color="#132a42"/><stop offset="38%" stop-color="#111630"/><stop offset="100%" stop-color="#030712"/></radialGradient>
<radialGradient id="robotBody" cx="40%" cy="24%" r="85%"><stop offset="0%" stop-color="#ffffff"/><stop offset="52%" stop-color="#dce9ff"/><stop offset="100%" stop-color="#93a6bd"/></radialGradient>
<radialGradient id="blueCore" cx="40%" cy="30%" r="70%"><stop offset="0%" stop-color="#8df4ff"/><stop offset="45%" stop-color="#4895ff"/><stop offset="100%" stop-color="#1a47ff"/></radialGradient>
<filter id="softGlow" x="-80%" y="-80%" width="260%" height="260%"><feGaussianBlur stdDeviation="16" result="blur"/><feMerge><feMergeNode in="blur"/><feMergeNode in="SourceGraphic"/></feMerge></filter>
<filter id="wideGlow" x="-120%" y="-120%" width="340%" height="340%"><feGaussianBlur stdDeviation="34" result="blur"/><feMerge><feMergeNode in="blur"/><feMergeNode in="SourceGraphic"/></feMerge></filter>
</defs>
<ellipse cx="960" cy="758.0" rx="285.7" ry="206.7" fill="none" stroke="#70d6ff" stroke-width="4" opacity="0.191" filter="url(#softGlow)"/>
<path d="M820 740 C770 700 770 825 825 795" stroke="#c4f4ff" stroke-width="10" opacity="0.285" fill="none" stroke-linecap="round" filter="url(#softGlow)"/>
<path d="M1098 724 C1162 686 1164 822 1098 794" stroke="#c4f4ff" stroke-width="10" opacity="0.195" fill="none" stroke-linecap="round" filter="url(#softGlow)"/>
<circle cx="1064.9" cy="625.1" r="4.0" fill="#c8f7ff" opacity="0.120" filter="url(#softGlow)"/>
<circle cx="1170.0" cy="690.3" r="5.0" fill="#c8f7ff" opacity="0.178" filter="url(#softGlow)"/>
<circle cx="1208.4" cy="812.4" r="6.0" fill="#c8f7ff" opacity="0.252" filter="url(#softGlow)"/>
<circle cx="1077.5" cy="921.4" r="7.0" fill="#c8f7ff" opacity="0.314" filter="url(#softGlow)"/>
<circle cx="968.2" cy="908.6" r="4.0" fill="#c8f7ff" opacity="0.340" filter="url(#softGlow)"/>
<circle cx="815.8" cy="856.2" r="5.0" fill="#c8f7ff" opacity="0.319" filter="url(#softGlow)"/>
<circle cx="781.4" cy="732.5" r="6.0" fill="#c8f7ff" opacity="0.261" filter="url(#softGlow)"/>
<circle cx="744.9" cy="617.4" r="7.0" fill="#c8f7ff" opacity="0.187" filter="url(#softGlow)"/>
<circle cx="802.2" cy="615.7" r="4.0" fill="#c8f7ff" opacity="0.125" filter="url(#softGlow)"/>
<circle cx="954.6" cy="654.5" r="5.0" fill="#c8f7ff" opacity="0.100" filter="url(#softGlow)"/>







<g opacity="0.962" filter="url(#softGlow)">
  <line x1="703.2" y1="392.8" x2="1003.2" y2="284.8" stroke="#fff1a6" stroke-width="8" stroke-linecap="round"/>
  <line x1="721.2" y1="386.8" x2="1153.2" y2="230.8" stroke="#ffffff" stroke-width="2" stroke-linecap="round" opacity="0.92"/>
</g>
<circle cx="1362" cy="325" r="3.5" fill="#bff7ff" opacity="0.007" filter="url(#softGlow)"/>
<circle cx="1132" cy="610" r="3.3" fill="#bff7ff" opacity="0.019" filter="url(#softGlow)"/>
<circle cx="1302" cy="342" r="2.5" fill="#bff7ff" opacity="0.012" filter="url(#softGlow)"/>
<circle cx="1559" cy="732" r="3.4" fill="#bff7ff" opacity="0.019" filter="url(#softGlow)"/>
<circle cx="1042" cy="818" r="3.1" fill="#bff7ff" opacity="0.010" filter="url(#softGlow)"/>
<circle cx="1829" cy="531" r="2.5" fill="#bff7ff" opacity="0.007" filter="url(#softGlow)"/>
<circle cx="1030" cy="253" r="3.3" fill="#bff7ff" opacity="0.015" filter="url(#softGlow)"/>
<circle cx="1673" cy="780" r="3.6" fill="#bff7ff" opacity="0.006" filter="url(#softGlow)"/>
<circle cx="909" cy="391" r="4.1" fill="#bff7ff" opacity="0.019" filter="url(#softGlow)"/>
<circle cx="227" cy="395" r="2.4" fill="#bff7ff" opacity="0.007" filter="url(#softGlow)"/>
<circle cx="891" cy="923" r="4.0" fill="#bff7ff" opacity="0.009" filter="url(#softGlow)"/>
<circle cx="125" cy="813" r="2.1" fill="#bff7ff" opacity="0.020" filter="url(#softGlow)"/>
<circle cx="1700" cy="683" r="2.9" fill="#bff7ff" opacity="0.023" filter="url(#softGlow)"/>
<circle cx="1412" cy="588" r="2.8" fill="#bff7ff" opacity="0.015" filter="url(#softGlow)"/>
</svg>