<svg xmlns="http://www.w3.org/2000/svg" width="1920" height="1080" viewBox="0 0 1920 1080">
<defs>
<radialGradient id="spaceGlow" cx="52%" cy="56%" r="54%"><stop offset="0%" stop-color="#132a42"/><stop offset="38%" stop-color="#111630"/><stop offset="100%" stop-color="#030712"/></radialGradient>
<radialGradient id="robotBody" cx="40%" cy="24%" r="85%"><stop offset="0%" stop-color="#ffffff"/><stop offset="52%" stop-color="#dce9ff"/><stop offset="100%" stop-color="#93a6bd"/></radialGradient>
<radialGradient id="blueCore" cx="40%" cy="30%" r="70%"><stop offset="0%" stop-color="#8df4ff"/><stop offset="45%" stop-color="#4895ff"/><stop offset="100%" stop-color="#1a47ff"/></radialGradient>
<filter id="softGlow" x="-80%" y="-80%" width="260%" height="260%"><feGaussianBlur stdDeviation="16" result="blur"/><feMerge><feMergeNode in="blur"/><feMergeNode in="SourceGraphic"/></feMerge></filter>
<filter id="wideGlow" x="-120%" y="-120%" width="340%" height="340%"><feGaussianBlur stdDeviation="34" result="blur"/><feMerge><feMergeNode in="blur"/><feMergeNode in="SourceGraphic"/></feMerge></filter>
</defs>
<ellipse cx="960" cy="759.3" rx="284.0" ry="205.8" fill="none" stroke="#70d6ff" stroke-width="4" opacity="0.184" filter="url(#softGlow)"/>
<path d="M820 740 C770 700 770 825 825 795" stroke="#c4f4ff" stroke-width="10" opacity="0.273" fill="none" stroke-linecap="round" filter="url(#softGlow)"/>
<path d="M1098 724 C1162 686 1164 822 1098 794" stroke="#c4f4ff" stroke-width="10" opacity="0.207" fill="none" stroke-linecap="round" filter="url(#softGlow)"/>
<circle cx="1073.7" cy="629.3" r="4.0" fill="#c8f7ff" opacity="0.124" filter="url(#softGlow)"/>
<circle cx="1174.0" cy="701.4" r="5.0" fill="#c8f7ff" opacity="0.185" filter="url(#softGlow)"/>
<circle cx="1204.0" cy="822.0" r="6.0" fill="#c8f7ff" opacity="0.259" filter="url(#softGlow)"/>
<circle cx="1068.9" cy="926.7" r="7.0" fill="#c8f7ff" opacity="0.318" filter="url(#softGlow)"/>
<circle cx="955.5" cy="905.5" r="4.0" fill="#c8f7ff" opacity="0.340" filter="url(#softGlow)"/>
<circle cx="803.9" cy="845.7" r="5.0" fill="#c8f7ff" opacity="0.316" filter="url(#softGlow)"/>
<circle cx="778.0" cy="722.6" r="6.0" fill="#c8f7ff" opacity="0.254" filter="url(#softGlow)"/>
<circle cx="748.8" cy="610.9" r="7.0" fill="#c8f7ff" opacity="0.180" filter="url(#softGlow)"/>
<circle cx="814.0" cy="617.6" r="4.0" fill="#c8f7ff" opacity="0.121" filter="url(#softGlow)"/>
<circle cx="965.4" cy="664.3" r="5.0" fill="#c8f7ff" opacity="0.100" filter="url(#softGlow)"/>







<g opacity="0.988" filter="url(#softGlow)">
  <line x1="668.9" y1="405.4" x2="968.9" y2="297.4" stroke="#fff1a6" stroke-width="8" stroke-linecap="round"/>
  <line x1="686.9" y1="399.4" x2="1118.9" y2="243.4" stroke="#ffffff" stroke-width="2" stroke-linecap="round" opacity="0.92"/>
</g>
<circle cx="1362" cy="325" r="3.5" fill="#bff7ff" opacity="0.008" filter="url(#softGlow)"/>
<circle cx="1132" cy="610" r="3.3" fill="#bff7ff" opacity="0.020" filter="url(#softGlow)"/>
<circle cx="1302" cy="342" r="2.5" fill="#bff7ff" opacity="0.013" filter="url(#softGlow)"/>
<circle cx="1559" cy="732" r="3.4" fill="#bff7ff" opacity="0.020" filter="url(#softGlow)"/>
<circle cx="1042" cy="818" r="3.1" fill="#bff7ff" opacity="0.011" filter="url(#softGlow)"/>
<circle cx="1829" cy="531" r="2.5" fill="#bff7ff" opacity="0.008" filter="url(#softGlow)"/>
<circle cx="1030" cy="253" r="3.3" fill="#bff7ff" opacity="0.016" filter="url(#softGlow)"/>
<circle cx="1673" cy="780" r="3.6" fill="#bff7ff" opacity="0.006" filter="url(#softGlow)"/>
<circle cx="909" cy="391" r="4.1" fill="#bff7ff" opacity="0.020" filter="url(#softGlow)"/>
<circle cx="227" cy="395" r="2.4" fill="#bff7ff" opacity="0.008" filter="url(#softGlow)"/>
<circle cx="891" cy="923" r="4.0" fill="#bff7ff" opacity="0.010" filter="url(#softGlow)"/>
<circle cx="125" cy="813" r="2.1" fill="#bff7ff" opacity="0.021" filter="url(#softGlow)"/>
<circle cx="1700" cy="683" r="2.9" fill="#bff7ff" opacity="0.025" filter="url(#softGlow)"/>
<circle cx="1412" cy="588" r="2.8" fill="#bff7ff" opacity="0.016" filter="url(#softGlow)"/>
</svg>