<svg xmlns="http://www.w3.org/2000/svg" width="1920" height="1080" viewBox="0 0 1920 1080">
<defs>
<radialGradient id="spaceGlow" cx="52%" cy="56%" r="54%"><stop offset="0%" stop-color="#132a42"/><stop offset="38%" stop-color="#111630"/><stop offset="100%" stop-color="#030712"/></radialGradient>
<radialGradient id="robotBody" cx="40%" cy="24%" r="85%"><stop offset="0%" stop-color="#ffffff"/><stop offset="52%" stop-color="#dce9ff"/><stop offset="100%" stop-color="#93a6bd"/></radialGradient>
<radialGradient id="blueCore" cx="40%" cy="30%" r="70%"><stop offset="0%" stop-color="#8df4ff"/><stop offset="45%" stop-color="#4895ff"/><stop offset="100%" stop-color="#1a47ff"/></radialGradient>
<filter id="softGlow" x="-80%" y="-80%" width="260%" height="260%"><feGaussianBlur stdDeviation="16" result="blur"/><feMerge><feMergeNode in="blur"/><feMergeNode in="SourceGraphic"/></feMerge></filter>
<filter id="wideGlow" x="-120%" y="-120%" width="340%" height="340%"><feGaussianBlur stdDeviation="34" result="blur"/><feMerge><feMergeNode in="blur"/><feMergeNode in="SourceGraphic"/></feMerge></filter>
</defs>
<ellipse cx="960" cy="763.1" rx="277.6" ry="202.2" fill="none" stroke="#70d6ff" stroke-width="4" opacity="0.159" filter="url(#softGlow)"/>
<path d="M820 740 C770 700 770 825 825 795" stroke="#c4f4ff" stroke-width="10" opacity="0.230" fill="none" stroke-linecap="round" filter="url(#softGlow)"/>
<path d="M1098 724 C1162 686 1164 822 1098 794" stroke="#c4f4ff" stroke-width="10" opacity="0.250" fill="none" stroke-linecap="round" filter="url(#softGlow)"/>
<circle cx="1097.8" cy="645.5" r="4.0" fill="#c8f7ff" opacity="0.137" filter="url(#softGlow)"/>
<circle cx="1182.1" cy="736.5" r="5.0" fill="#c8f7ff" opacity="0.205" filter="url(#softGlow)"/>
<circle cx="1186.3" cy="848.8" r="6.0" fill="#c8f7ff" opacity="0.278" filter="url(#softGlow)"/>
<circle cx="1040.9" cy="937.9" r="7.0" fill="#c8f7ff" opacity="0.329" filter="url(#softGlow)"/>
<circle cx="917.7" cy="892.5" r="4.0" fill="#c8f7ff" opacity="0.338" filter="url(#softGlow)"/>
<circle cx="771.4" cy="811.9" r="5.0" fill="#c8f7ff" opacity="0.302" filter="url(#softGlow)"/>
<circle cx="771.4" cy="694.3" r="6.0" fill="#c8f7ff" opacity="0.234" filter="url(#softGlow)"/>
<circle cx="764.4" cy="595.7" r="7.0" fill="#c8f7ff" opacity="0.162" filter="url(#softGlow)"/>
<circle cx="852.1" cy="627.3" r="4.0" fill="#c8f7ff" opacity="0.111" filter="url(#softGlow)"/>
<circle cx="997.4" cy="696.3" r="5.0" fill="#c8f7ff" opacity="0.102" filter="url(#softGlow)"/>







<g opacity="0.977" filter="url(#softGlow)">
  <line x1="592.2" y1="433.5" x2="892.2" y2="325.5" stroke="#fff1a6" stroke-width="8" stroke-linecap="round"/>
  <line x1="610.2" y1="427.5" x2="1042.2" y2="271.5" stroke="#ffffff" stroke-width="2" stroke-linecap="round" opacity="0.92"/>
</g>
<circle cx="387" cy="832" r="3.3" fill="#bff7ff" opacity="0.019" filter="url(#softGlow)"/>
<circle cx="1208" cy="322" r="2.6" fill="#bff7ff" opacity="0.008" filter="url(#softGlow)"/>
<circle cx="376" cy="357" r="2.3" fill="#bff7ff" opacity="0.017" filter="url(#softGlow)"/>
<circle cx="574" cy="170" r="2.7" fill="#bff7ff" opacity="0.028" filter="url(#softGlow)"/>
<circle cx="974" cy="280" r="1.6" fill="#bff7ff" opacity="0.018" filter="url(#softGlow)"/>
<circle cx="155" cy="857" r="1.9" fill="#bff7ff" opacity="0.010" filter="url(#softGlow)"/>
<circle cx="567" cy="608" r="2.7" fill="#bff7ff" opacity="0.031" filter="url(#softGlow)"/>
<circle cx="380" cy="969" r="3.5" fill="#bff7ff" opacity="0.034" filter="url(#softGlow)"/>
<circle cx="1035" cy="114" r="3.6" fill="#bff7ff" opacity="0.032" filter="url(#softGlow)"/>
<circle cx="933" cy="240" r="2.3" fill="#bff7ff" opacity="0.027" filter="url(#softGlow)"/>
<circle cx="629" cy="865" r="2.3" fill="#bff7ff" opacity="0.033" filter="url(#softGlow)"/>
<circle cx="224" cy="309" r="2.0" fill="#bff7ff" opacity="0.019" filter="url(#softGlow)"/>
<circle cx="708" cy="555" r="2.9" fill="#bff7ff" opacity="0.025" filter="url(#softGlow)"/>
<circle cx="1194" cy="141" r="1.5" fill="#bff7ff" opacity="0.024" filter="url(#softGlow)"/>
</svg>