<svg xmlns="http://www.w3.org/2000/svg" width="1920" height="1080" viewBox="0 0 1920 1080">
<defs>
<radialGradient id="spaceGlow" cx="52%" cy="56%" r="54%"><stop offset="0%" stop-color="#132a42"/><stop offset="38%" stop-color="#111630"/><stop offset="100%" stop-color="#030712"/></radialGradient>
<radialGradient id="robotBody" cx="40%" cy="24%" r="85%"><stop offset="0%" stop-color="#ffffff"/><stop offset="52%" stop-color="#dce9ff"/><stop offset="100%" stop-color="#93a6bd"/></radialGradient>
<radialGradient id="blueCore" cx="40%" cy="30%" r="70%"><stop offset="0%" stop-color="#8df4ff"/><stop offset="45%" stop-color="#4895ff"/><stop offset="100%" stop-color="#1a47ff"/></radialGradient>
<filter id="softGlow" x="-80%" y="-80%" width="260%" height="260%"><feGaussianBlur stdDeviation="16" result="blur"/><feMerge><feMergeNode in="blur"/><feMergeNode in="SourceGraphic"/></feMerge></filter>
<filter id="wideGlow" x="-120%" y="-120%" width="340%" height="340%"><feGaussianBlur stdDeviation="34" result="blur"/><feMerge><feMergeNode in="blur"/><feMergeNode in="SourceGraphic"/></feMerge></filter>
</defs>
<ellipse cx="960" cy="764.3" rx="275.4" ry="201.0" fill="none" stroke="#70d6ff" stroke-width="4" opacity="0.151" filter="url(#softGlow)"/>
<path d="M820 740 C770 700 770 825 825 795" stroke="#c4f4ff" stroke-width="10" opacity="0.216" fill="none" stroke-linecap="round" filter="url(#softGlow)"/>
<path d="M1098 724 C1162 686 1164 822 1098 794" stroke="#c4f4ff" stroke-width="10" opacity="0.264" fill="none" stroke-linecap="round" filter="url(#softGlow)"/>
<circle cx="1105.0" cy="652.0" r="4.0" fill="#c8f7ff" opacity="0.142" filter="url(#softGlow)"/>
<circle cx="1183.4" cy="748.5" r="5.0" fill="#c8f7ff" opacity="0.211" filter="url(#softGlow)"/>
<circle cx="1178.9" cy="857.0" r="6.0" fill="#c8f7ff" opacity="0.283" filter="url(#softGlow)"/>
<circle cx="1031.1" cy="940.1" r="7.0" fill="#c8f7ff" opacity="0.331" filter="url(#softGlow)"/>
<circle cx="905.3" cy="886.9" r="4.0" fill="#c8f7ff" opacity="0.336" filter="url(#softGlow)"/>
<circle cx="761.7" cy="800.2" r="5.0" fill="#c8f7ff" opacity="0.297" filter="url(#softGlow)"/>
<circle cx="770.4" cy="685.4" r="6.0" fill="#c8f7ff" opacity="0.228" filter="url(#softGlow)"/>
<circle cx="770.9" cy="592.1" r="7.0" fill="#c8f7ff" opacity="0.156" filter="url(#softGlow)"/>
<circle cx="865.5" cy="631.8" r="4.0" fill="#c8f7ff" opacity="0.108" filter="url(#softGlow)"/>
<circle cx="1007.9" cy="707.6" r="5.0" fill="#c8f7ff" opacity="0.104" filter="url(#softGlow)"/>







<g opacity="0.943" filter="url(#softGlow)">
  <line x1="574.3" y1="440.1" x2="874.3" y2="332.1" stroke="#fff1a6" stroke-width="8" stroke-linecap="round"/>
  <line x1="592.3" y1="434.1" x2="1024.3" y2="278.1" stroke="#ffffff" stroke-width="2" stroke-linecap="round" opacity="0.92"/>
</g>
<circle cx="387" cy="832" r="3.3" fill="#bff7ff" opacity="0.022" filter="url(#softGlow)"/>
<circle cx="1208" cy="322" r="2.6" fill="#bff7ff" opacity="0.009" filter="url(#softGlow)"/>
<circle cx="376" cy="357" r="2.3" fill="#bff7ff" opacity="0.019" filter="url(#softGlow)"/>
<circle cx="574" cy="170" r="2.7" fill="#bff7ff" opacity="0.032" filter="url(#softGlow)"/>
<circle cx="974" cy="280" r="1.6" fill="#bff7ff" opacity="0.020" filter="url(#softGlow)"/>
<circle cx="155" cy="857" r="1.9" fill="#bff7ff" opacity="0.011" filter="url(#softGlow)"/>
<circle cx="567" cy="608" r="2.7" fill="#bff7ff" opacity="0.034" filter="url(#softGlow)"/>
<circle cx="380" cy="969" r="3.5" fill="#bff7ff" opacity="0.038" filter="url(#softGlow)"/>
<circle cx="1035" cy="114" r="3.6" fill="#bff7ff" opacity="0.036" filter="url(#softGlow)"/>
<circle cx="933" cy="240" r="2.3" fill="#bff7ff" opacity="0.030" filter="url(#softGlow)"/>
<circle cx="629" cy="865" r="2.3" fill="#bff7ff" opacity="0.037" filter="url(#softGlow)"/>
<circle cx="224" cy="309" r="2.0" fill="#bff7ff" opacity="0.021" filter="url(#softGlow)"/>
<circle cx="708" cy="555" r="2.9" fill="#bff7ff" opacity="0.028" filter="url(#softGlow)"/>
<circle cx="1194" cy="141" r="1.5" fill="#bff7ff" opacity="0.027" filter="url(#softGlow)"/>
</svg>