<svg xmlns="http://www.w3.org/2000/svg" width="1920" height="1080" viewBox="0 0 1920 1080">
<defs>
<radialGradient id="spaceGlow" cx="52%" cy="56%" r="54%"><stop offset="0%" stop-color="#132a42"/><stop offset="38%" stop-color="#111630"/><stop offset="100%" stop-color="#030712"/></radialGradient>
<radialGradient id="robotBody" cx="40%" cy="24%" r="85%"><stop offset="0%" stop-color="#ffffff"/><stop offset="52%" stop-color="#dce9ff"/><stop offset="100%" stop-color="#93a6bd"/></radialGradient>
<radialGradient id="blueCore" cx="40%" cy="30%" r="70%"><stop offset="0%" stop-color="#8df4ff"/><stop offset="45%" stop-color="#4895ff"/><stop offset="100%" stop-color="#1a47ff"/></radialGradient>
<filter id="softGlow" x="-80%" y="-80%" width="260%" height="260%"><feGaussianBlur stdDeviation="16" result="blur"/><feMerge><feMergeNode in="blur"/><feMergeNode in="SourceGraphic"/></feMerge></filter>
<filter id="wideGlow" x="-120%" y="-120%" width="340%" height="340%"><feGaussianBlur stdDeviation="34" result="blur"/><feMerge><feMergeNode in="blur"/><feMergeNode in="SourceGraphic"/></feMerge></filter>
</defs>
<ellipse cx="960" cy="765.5" rx="273.5" ry="199.9" fill="none" stroke="#70d6ff" stroke-width="4" opacity="0.143" filter="url(#softGlow)"/>
<path d="M820 740 C770 700 770 825 825 795" stroke="#c4f4ff" stroke-width="10" opacity="0.203" fill="none" stroke-linecap="round" filter="url(#softGlow)"/>
<path d="M1098 724 C1162 686 1164 822 1098 794" stroke="#c4f4ff" stroke-width="10" opacity="0.277" fill="none" stroke-linecap="round" filter="url(#softGlow)"/>
<circle cx="1111.7" cy="659.0" r="4.0" fill="#c8f7ff" opacity="0.148" filter="url(#softGlow)"/>
<circle cx="1184.0" cy="760.6" r="5.0" fill="#c8f7ff" opacity="0.218" filter="url(#softGlow)"/>
<circle cx="1170.9" cy="864.8" r="6.0" fill="#c8f7ff" opacity="0.289" filter="url(#softGlow)"/>
<circle cx="1021.0" cy="941.5" r="7.0" fill="#c8f7ff" opacity="0.334" filter="url(#softGlow)"/>
<circle cx="893.1" cy="880.8" r="4.0" fill="#c8f7ff" opacity="0.335" filter="url(#softGlow)"/>
<circle cx="752.7" cy="788.3" r="5.0" fill="#c8f7ff" opacity="0.291" filter="url(#softGlow)"/>
<circle cx="770.0" cy="676.9" r="6.0" fill="#c8f7ff" opacity="0.221" filter="url(#softGlow)"/>
<circle cx="778.0" cy="589.4" r="7.0" fill="#c8f7ff" opacity="0.150" filter="url(#softGlow)"/>
<circle cx="879.3" cy="637.0" r="4.0" fill="#c8f7ff" opacity="0.106" filter="url(#softGlow)"/>
<circle cx="1018.3" cy="719.2" r="5.0" fill="#c8f7ff" opacity="0.106" filter="url(#softGlow)"/>







<g opacity="0.895" filter="url(#softGlow)">
  <line x1="559.6" y1="445.5" x2="859.6" y2="337.5" stroke="#fff1a6" stroke-width="8" stroke-linecap="round"/>
  <line x1="577.6" y1="439.5" x2="1009.6" y2="283.5" stroke="#ffffff" stroke-width="2" stroke-linecap="round" opacity="0.92"/>
</g>
<circle cx="407" cy="325" r="2.1" fill="#bff7ff" opacity="0.041" filter="url(#softGlow)"/>
<circle cx="322" cy="64" r="3.8" fill="#bff7ff" opacity="0.011" filter="url(#softGlow)"/>
<circle cx="841" cy="495" r="2.1" fill="#bff7ff" opacity="0.043" filter="url(#softGlow)"/>
<circle cx="371" cy="226" r="3.5" fill="#bff7ff" opacity="0.032" filter="url(#softGlow)"/>
<circle cx="1766" cy="668" r="3.2" fill="#bff7ff" opacity="0.022" filter="url(#softGlow)"/>
<circle cx="1263" cy="209" r="3.4" fill="#bff7ff" opacity="0.029" filter="url(#softGlow)"/>
<circle cx="702" cy="209" r="2.4" fill="#bff7ff" opacity="0.023" filter="url(#softGlow)"/>
<circle cx="1398" cy="188" r="2.2" fill="#bff7ff" opacity="0.014" filter="url(#softGlow)"/>
<circle cx="1315" cy="714" r="3.4" fill="#bff7ff" opacity="0.033" filter="url(#softGlow)"/>
<circle cx="1701" cy="387" r="3.2" fill="#bff7ff" opacity="0.034" filter="url(#softGlow)"/>
<circle cx="189" cy="801" r="2.7" fill="#bff7ff" opacity="0.017" filter="url(#softGlow)"/>
<circle cx="1100" cy="851" r="4.0" fill="#bff7ff" opacity="0.012" filter="url(#softGlow)"/>
<circle cx="1606" cy="969" r="3.7" fill="#bff7ff" opacity="0.042" filter="url(#softGlow)"/>
<circle cx="159" cy="174" r="2.3" fill="#bff7ff" opacity="0.033" filter="url(#softGlow)"/>
</svg>