<svg xmlns="http://www.w3.org/2000/svg" width="1920" height="1080" viewBox="0 0 1920 1080">
<defs>
<radialGradient id="spaceGlow" cx="52%" cy="56%" r="54%"><stop offset="0%" stop-color="#132a42"/><stop offset="38%" stop-color="#111630"/><stop offset="100%" stop-color="#030712"/></radialGradient>
<radialGradient id="robotBody" cx="40%" cy="24%" r="85%"><stop offset="0%" stop-color="#ffffff"/><stop offset="52%" stop-color="#dce9ff"/><stop offset="100%" stop-color="#93a6bd"/></radialGradient>
<radialGradient id="blueCore" cx="40%" cy="30%" r="70%"><stop offset="0%" stop-color="#8df4ff"/><stop offset="45%" stop-color="#4895ff"/><stop offset="100%" stop-color="#1a47ff"/></radialGradient>
<filter id="softGlow" x="-80%" y="-80%" width="260%" height="260%"><feGaussianBlur stdDeviation="16" result="blur"/><feMerge><feMergeNode in="blur"/><feMergeNode in="SourceGraphic"/></feMerge></filter>
<filter id="wideGlow" x="-120%" y="-120%" width="340%" height="340%"><feGaussianBlur stdDeviation="34" result="blur"/><feMerge><feMergeNode in="blur"/><feMergeNode in="SourceGraphic"/></feMerge></filter>
</defs>
<ellipse cx="960" cy="769.0" rx="270.1" ry="198.1" fill="none" stroke="#70d6ff" stroke-width="4" opacity="0.130" filter="url(#softGlow)"/>
<path d="M820 740 C770 700 770 825 825 795" stroke="#c4f4ff" stroke-width="10" opacity="0.181" fill="none" stroke-linecap="round" filter="url(#softGlow)"/>
<path d="M1098 724 C1162 686 1164 822 1098 794" stroke="#c4f4ff" stroke-width="10" opacity="0.299" fill="none" stroke-linecap="round" filter="url(#softGlow)"/>
<circle cx="1128.9" cy="682.9" r="4.0" fill="#c8f7ff" opacity="0.165" filter="url(#softGlow)"/>
<circle cx="1181.3" cy="796.7" r="5.0" fill="#c8f7ff" opacity="0.238" filter="url(#softGlow)"/>
<circle cx="1142.7" cy="885.2" r="6.0" fill="#c8f7ff" opacity="0.305" filter="url(#softGlow)"/>
<circle cx="989.7" cy="940.6" r="7.0" fill="#c8f7ff" opacity="0.339" filter="url(#softGlow)"/>
<circle cx="857.9" cy="859.3" r="4.0" fill="#c8f7ff" opacity="0.327" filter="url(#softGlow)"/>
<circle cx="729.7" cy="752.0" r="5.0" fill="#c8f7ff" opacity="0.274" filter="url(#softGlow)"/>
<circle cx="772.5" cy="654.0" r="6.0" fill="#c8f7ff" opacity="0.201" filter="url(#softGlow)"/>
<circle cx="802.7" cy="586.0" r="7.0" fill="#c8f7ff" opacity="0.135" filter="url(#softGlow)"/>
<circle cx="921.9" cy="655.7" r="4.0" fill="#c8f7ff" opacity="0.101" filter="url(#softGlow)"/>
<circle cx="1048.0" cy="755.1" r="5.0" fill="#c8f7ff" opacity="0.114" filter="url(#softGlow)"/>







<g opacity="0.674" filter="url(#softGlow)">
  <line x1="531.7" y1="455.7" x2="831.7" y2="347.7" stroke="#fff1a6" stroke-width="8" stroke-linecap="round"/>
  <line x1="549.7" y1="449.7" x2="981.7" y2="293.7" stroke="#ffffff" stroke-width="2" stroke-linecap="round" opacity="0.92"/>
</g>
<circle cx="778" cy="600" r="3.3" fill="#bff7ff" opacity="0.045" filter="url(#softGlow)"/>
<circle cx="1116" cy="651" r="3.6" fill="#bff7ff" opacity="0.045" filter="url(#softGlow)"/>
<circle cx="150" cy="729" r="2.0" fill="#bff7ff" opacity="0.030" filter="url(#softGlow)"/>
<circle cx="244" cy="128" r="2.4" fill="#bff7ff" opacity="0.048" filter="url(#softGlow)"/>
<circle cx="1661" cy="394" r="1.7" fill="#bff7ff" opacity="0.049" filter="url(#softGlow)"/>
<circle cx="191" cy="39" r="3.5" fill="#bff7ff" opacity="0.041" filter="url(#softGlow)"/>
<circle cx="1075" cy="302" r="3.9" fill="#bff7ff" opacity="0.028" filter="url(#softGlow)"/>
<circle cx="1661" cy="448" r="2.3" fill="#bff7ff" opacity="0.061" filter="url(#softGlow)"/>
<circle cx="803" cy="997" r="1.9" fill="#bff7ff" opacity="0.047" filter="url(#softGlow)"/>
<circle cx="1761" cy="596" r="3.8" fill="#bff7ff" opacity="0.037" filter="url(#softGlow)"/>
<circle cx="1185" cy="91" r="4.1" fill="#bff7ff" opacity="0.017" filter="url(#softGlow)"/>
<circle cx="176" cy="550" r="3.6" fill="#bff7ff" opacity="0.017" filter="url(#softGlow)"/>
<circle cx="244" cy="385" r="3.4" fill="#bff7ff" opacity="0.025" filter="url(#softGlow)"/>
<circle cx="1612" cy="416" r="2.0" fill="#bff7ff" opacity="0.043" filter="url(#softGlow)"/>
</svg>