<svg xmlns="http://www.w3.org/2000/svg" width="1920" height="1080" viewBox="0 0 1920 1080">
<defs>
<radialGradient id="spaceGlow" cx="52%" cy="56%" r="54%"><stop offset="0%" stop-color="#132a42"/><stop offset="38%" stop-color="#111630"/><stop offset="100%" stop-color="#030712"/></radialGradient>
<radialGradient id="robotBody" cx="40%" cy="24%" r="85%"><stop offset="0%" stop-color="#ffffff"/><stop offset="52%" stop-color="#dce9ff"/><stop offset="100%" stop-color="#93a6bd"/></radialGradient>
<radialGradient id="blueCore" cx="40%" cy="30%" r="70%"><stop offset="0%" stop-color="#8df4ff"/><stop offset="45%" stop-color="#4895ff"/><stop offset="100%" stop-color="#1a47ff"/></radialGradient>
<filter id="softGlow" x="-80%" y="-80%" width="260%" height="260%"><feGaussianBlur stdDeviation="16" result="blur"/><feMerge><feMergeNode in="blur"/><feMergeNode in="SourceGraphic"/></feMerge></filter>
<filter id="wideGlow" x="-120%" y="-120%" width="340%" height="340%"><feGaussianBlur stdDeviation="34" result="blur"/><feMerge><feMergeNode in="blur"/><feMergeNode in="SourceGraphic"/></feMerge></filter>
</defs>
<ellipse cx="960" cy="771.0" rx="270.5" ry="198.3" fill="none" stroke="#70d6ff" stroke-width="4" opacity="0.132" filter="url(#softGlow)"/>
<path d="M820 740 C770 700 770 825 825 795" stroke="#c4f4ff" stroke-width="10" opacity="0.183" fill="none" stroke-linecap="round" filter="url(#softGlow)"/>
<path d="M1098 724 C1162 686 1164 822 1098 794" stroke="#c4f4ff" stroke-width="10" opacity="0.297" fill="none" stroke-linecap="round" filter="url(#softGlow)"/>
<circle cx="1137.6" cy="700.8" r="4.0" fill="#c8f7ff" opacity="0.177" filter="url(#softGlow)"/>
<circle cx="1176.0" cy="820.1" r="5.0" fill="#c8f7ff" opacity="0.252" filter="url(#softGlow)"/>
<circle cx="1120.9" cy="896.1" r="6.0" fill="#c8f7ff" opacity="0.314" filter="url(#softGlow)"/>
<circle cx="968.2" cy="935.9" r="7.0" fill="#c8f7ff" opacity="0.340" filter="url(#softGlow)"/>
<circle cx="836.0" cy="842.7" r="4.0" fill="#c8f7ff" opacity="0.320" filter="url(#softGlow)"/>
<circle cx="718.0" cy="728.1" r="5.0" fill="#c8f7ff" opacity="0.262" filter="url(#softGlow)"/>
<circle cx="777.2" cy="641.2" r="6.0" fill="#c8f7ff" opacity="0.187" filter="url(#softGlow)"/>
<circle cx="821.8" cy="587.9" r="7.0" fill="#c8f7ff" opacity="0.126" filter="url(#softGlow)"/>
<circle cx="951.0" cy="670.8" r="4.0" fill="#c8f7ff" opacity="0.100" filter="url(#softGlow)"/>
<circle cx="1066.5" cy="779.2" r="5.0" fill="#c8f7ff" opacity="0.121" filter="url(#softGlow)"/>







<g opacity="0.473" filter="url(#softGlow)">
  <line x1="523.5" y1="458.7" x2="823.5" y2="350.7" stroke="#fff1a6" stroke-width="8" stroke-linecap="round"/>
  <line x1="541.5" y1="452.7" x2="973.5" y2="296.7" stroke="#ffffff" stroke-width="2" stroke-linecap="round" opacity="0.92"/>
</g>
<circle cx="778" cy="600" r="3.3" fill="#bff7ff" opacity="0.055" filter="url(#softGlow)"/>
<circle cx="1116" cy="651" r="3.6" fill="#bff7ff" opacity="0.054" filter="url(#softGlow)"/>
<circle cx="150" cy="729" r="2.0" fill="#bff7ff" opacity="0.036" filter="url(#softGlow)"/>
<circle cx="244" cy="128" r="2.4" fill="#bff7ff" opacity="0.058" filter="url(#softGlow)"/>
<circle cx="1661" cy="394" r="1.7" fill="#bff7ff" opacity="0.059" filter="url(#softGlow)"/>
<circle cx="191" cy="39" r="3.5" fill="#bff7ff" opacity="0.050" filter="url(#softGlow)"/>
<circle cx="1075" cy="302" r="3.9" fill="#bff7ff" opacity="0.034" filter="url(#softGlow)"/>
<circle cx="1661" cy="448" r="2.3" fill="#bff7ff" opacity="0.074" filter="url(#softGlow)"/>
<circle cx="803" cy="997" r="1.9" fill="#bff7ff" opacity="0.057" filter="url(#softGlow)"/>
<circle cx="1761" cy="596" r="3.8" fill="#bff7ff" opacity="0.045" filter="url(#softGlow)"/>
<circle cx="1185" cy="91" r="4.1" fill="#bff7ff" opacity="0.020" filter="url(#softGlow)"/>
<circle cx="176" cy="550" r="3.6" fill="#bff7ff" opacity="0.020" filter="url(#softGlow)"/>
<circle cx="244" cy="385" r="3.4" fill="#bff7ff" opacity="0.030" filter="url(#softGlow)"/>
<circle cx="1612" cy="416" r="2.0" fill="#bff7ff" opacity="0.053" filter="url(#softGlow)"/>
</svg>