<svg xmlns="http://www.w3.org/2000/svg" width="1920" height="1080" viewBox="0 0 1920 1080">
<defs>
<radialGradient id="spaceGlow" cx="52%" cy="56%" r="54%"><stop offset="0%" stop-color="#132a42"/><stop offset="38%" stop-color="#111630"/><stop offset="100%" stop-color="#030712"/></radialGradient>
<radialGradient id="robotBody" cx="40%" cy="24%" r="85%"><stop offset="0%" stop-color="#ffffff"/><stop offset="52%" stop-color="#dce9ff"/><stop offset="100%" stop-color="#93a6bd"/></radialGradient>
<radialGradient id="blueCore" cx="40%" cy="30%" r="70%"><stop offset="0%" stop-color="#8df4ff"/><stop offset="45%" stop-color="#4895ff"/><stop offset="100%" stop-color="#1a47ff"/></radialGradient>
<filter id="softGlow" x="-80%" y="-80%" width="260%" height="260%"><feGaussianBlur stdDeviation="16" result="blur"/><feMerge><feMergeNode in="blur"/><feMergeNode in="SourceGraphic"/></feMerge></filter>
<filter id="wideGlow" x="-120%" y="-120%" width="340%" height="340%"><feGaussianBlur stdDeviation="34" result="blur"/><feMerge><feMergeNode in="blur"/><feMergeNode in="SourceGraphic"/></feMerge></filter>
</defs>
<ellipse cx="960" cy="772.0" rx="271.5" ry="198.8" fill="none" stroke="#70d6ff" stroke-width="4" opacity="0.136" filter="url(#softGlow)"/>
<path d="M820 740 C770 700 770 825 825 795" stroke="#c4f4ff" stroke-width="10" opacity="0.190" fill="none" stroke-linecap="round" filter="url(#softGlow)"/>
<path d="M1098 724 C1162 686 1164 822 1098 794" stroke="#c4f4ff" stroke-width="10" opacity="0.290" fill="none" stroke-linecap="round" filter="url(#softGlow)"/>
<circle cx="1141.2" cy="710.2" r="4.0" fill="#c8f7ff" opacity="0.184" filter="url(#softGlow)"/>
<circle cx="1172.3" cy="831.5" r="5.0" fill="#c8f7ff" opacity="0.258" filter="url(#softGlow)"/>
<circle cx="1109.2" cy="900.6" r="6.0" fill="#c8f7ff" opacity="0.318" filter="url(#softGlow)"/>
<circle cx="957.5" cy="932.4" r="7.0" fill="#c8f7ff" opacity="0.340" filter="url(#softGlow)"/>
<circle cx="825.6" cy="833.9" r="4.0" fill="#c8f7ff" opacity="0.316" filter="url(#softGlow)"/>
<circle cx="713.3" cy="716.3" r="5.0" fill="#c8f7ff" opacity="0.255" filter="url(#softGlow)"/>
<circle cx="780.4" cy="635.6" r="6.0" fill="#c8f7ff" opacity="0.181" filter="url(#softGlow)"/>
<circle cx="832.0" cy="590.0" r="7.0" fill="#c8f7ff" opacity="0.122" filter="url(#softGlow)"/>
<circle cx="965.6" cy="679.0" r="4.0" fill="#c8f7ff" opacity="0.100" filter="url(#softGlow)"/>
<circle cx="1075.2" cy="791.3" r="5.0" fill="#c8f7ff" opacity="0.125" filter="url(#softGlow)"/>







<g opacity="0.361" filter="url(#softGlow)">
  <line x1="521.5" y1="459.5" x2="821.5" y2="351.5" stroke="#fff1a6" stroke-width="8" stroke-linecap="round"/>
  <line x1="539.5" y1="453.5" x2="971.5" y2="297.5" stroke="#ffffff" stroke-width="2" stroke-linecap="round" opacity="0.92"/>
</g>
<circle cx="1840" cy="811" r="3.0" fill="#bff7ff" opacity="0.021" filter="url(#softGlow)"/>
<circle cx="1465" cy="636" r="2.0" fill="#bff7ff" opacity="0.077" filter="url(#softGlow)"/>
<circle cx="1520" cy="979" r="3.2" fill="#bff7ff" opacity="0.048" filter="url(#softGlow)"/>
<circle cx="1578" cy="425" r="2.4" fill="#bff7ff" opacity="0.067" filter="url(#softGlow)"/>
<circle cx="1185" cy="780" r="3.0" fill="#bff7ff" opacity="0.069" filter="url(#softGlow)"/>
<circle cx="1635" cy="173" r="4.0" fill="#bff7ff" opacity="0.043" filter="url(#softGlow)"/>
<circle cx="1254" cy="618" r="2.2" fill="#bff7ff" opacity="0.055" filter="url(#softGlow)"/>
<circle cx="1199" cy="239" r="3.2" fill="#bff7ff" opacity="0.017" filter="url(#softGlow)"/>
<circle cx="116" cy="187" r="3.5" fill="#bff7ff" opacity="0.035" filter="url(#softGlow)"/>
<circle cx="1239" cy="126" r="2.6" fill="#bff7ff" opacity="0.061" filter="url(#softGlow)"/>
<circle cx="872" cy="834" r="2.2" fill="#bff7ff" opacity="0.076" filter="url(#softGlow)"/>
<circle cx="937" cy="637" r="3.6" fill="#bff7ff" opacity="0.017" filter="url(#softGlow)"/>
<circle cx="376" cy="585" r="2.0" fill="#bff7ff" opacity="0.071" filter="url(#softGlow)"/>
<circle cx="1023" cy="74" r="1.6" fill="#bff7ff" opacity="0.029" filter="url(#softGlow)"/>
</svg>