<svg xmlns="http://www.w3.org/2000/svg" width="1920" height="1080" viewBox="0 0 1920 1080">
<defs>
<radialGradient id="spaceGlow" cx="52%" cy="56%" r="54%"><stop offset="0%" stop-color="#132a42"/><stop offset="38%" stop-color="#111630"/><stop offset="100%" stop-color="#030712"/></radialGradient>
<radialGradient id="robotBody" cx="40%" cy="24%" r="85%"><stop offset="0%" stop-color="#ffffff"/><stop offset="52%" stop-color="#dce9ff"/><stop offset="100%" stop-color="#93a6bd"/></radialGradient>
<radialGradient id="blueCore" cx="40%" cy="30%" r="70%"><stop offset="0%" stop-color="#8df4ff"/><stop offset="45%" stop-color="#4895ff"/><stop offset="100%" stop-color="#1a47ff"/></radialGradient>
<filter id="softGlow" x="-80%" y="-80%" width="260%" height="260%"><feGaussianBlur stdDeviation="16" result="blur"/><feMerge><feMergeNode in="blur"/><feMergeNode in="SourceGraphic"/></feMerge></filter>
<filter id="wideGlow" x="-120%" y="-120%" width="340%" height="340%"><feGaussianBlur stdDeviation="34" result="blur"/><feMerge><feMergeNode in="blur"/><feMergeNode in="SourceGraphic"/></feMerge></filter>
</defs>
<ellipse cx="960" cy="773.8" rx="274.8" ry="200.7" fill="none" stroke="#70d6ff" stroke-width="4" opacity="0.149" filter="url(#softGlow)"/>
<path d="M820 740 C770 700 770 825 825 795" stroke="#c4f4ff" stroke-width="10" opacity="0.212" fill="none" stroke-linecap="round" filter="url(#softGlow)"/>
<path d="M1098 724 C1162 686 1164 822 1098 794" stroke="#c4f4ff" stroke-width="10" opacity="0.268" fill="none" stroke-linecap="round" filter="url(#softGlow)"/>
<circle cx="1146.5" cy="729.6" r="4.0" fill="#c8f7ff" opacity="0.197" filter="url(#softGlow)"/>
<circle cx="1162.9" cy="853.2" r="5.0" fill="#c8f7ff" opacity="0.271" filter="url(#softGlow)"/>
<circle cx="1084.5" cy="907.7" r="6.0" fill="#c8f7ff" opacity="0.325" filter="url(#softGlow)"/>
<circle cx="936.0" cy="923.0" r="7.0" fill="#c8f7ff" opacity="0.339" filter="url(#softGlow)"/>
<circle cx="806.2" cy="815.3" r="4.0" fill="#c8f7ff" opacity="0.307" filter="url(#softGlow)"/>
<circle cx="706.4" cy="693.5" r="5.0" fill="#c8f7ff" opacity="0.242" filter="url(#softGlow)"/>
<circle cx="788.6" cy="626.3" r="6.0" fill="#c8f7ff" opacity="0.168" filter="url(#softGlow)"/>
<circle cx="853.6" cy="596.7" r="7.0" fill="#c8f7ff" opacity="0.114" filter="url(#softGlow)"/>
<circle cx="994.7" cy="696.6" r="4.0" fill="#c8f7ff" opacity="0.101" filter="url(#softGlow)"/>
<circle cx="1091.6" cy="814.8" r="5.0" fill="#c8f7ff" opacity="0.133" filter="url(#softGlow)"/>







<g opacity="0.123" filter="url(#softGlow)">
  <line x1="520.1" y1="460.0" x2="820.1" y2="352.0" stroke="#fff1a6" stroke-width="8" stroke-linecap="round"/>
  <line x1="538.1" y1="454.0" x2="970.1" y2="298.0" stroke="#ffffff" stroke-width="2" stroke-linecap="round" opacity="0.92"/>
</g>
<circle cx="1840" cy="811" r="3.0" fill="#bff7ff" opacity="0.025" filter="url(#softGlow)"/>
<circle cx="1465" cy="636" r="2.0" fill="#bff7ff" opacity="0.092" filter="url(#softGlow)"/>
<circle cx="1520" cy="979" r="3.2" fill="#bff7ff" opacity="0.057" filter="url(#softGlow)"/>
<circle cx="1578" cy="425" r="2.4" fill="#bff7ff" opacity="0.080" filter="url(#softGlow)"/>
<circle cx="1185" cy="780" r="3.0" fill="#bff7ff" opacity="0.082" filter="url(#softGlow)"/>
<circle cx="1635" cy="173" r="4.0" fill="#bff7ff" opacity="0.051" filter="url(#softGlow)"/>
<circle cx="1254" cy="618" r="2.2" fill="#bff7ff" opacity="0.065" filter="url(#softGlow)"/>
<circle cx="1199" cy="239" r="3.2" fill="#bff7ff" opacity="0.020" filter="url(#softGlow)"/>
<circle cx="116" cy="187" r="3.5" fill="#bff7ff" opacity="0.041" filter="url(#softGlow)"/>
<circle cx="1239" cy="126" r="2.6" fill="#bff7ff" opacity="0.072" filter="url(#softGlow)"/>
<circle cx="872" cy="834" r="2.2" fill="#bff7ff" opacity="0.090" filter="url(#softGlow)"/>
<circle cx="937" cy="637" r="3.6" fill="#bff7ff" opacity="0.020" filter="url(#softGlow)"/>
<circle cx="376" cy="585" r="2.0" fill="#bff7ff" opacity="0.084" filter="url(#softGlow)"/>
<circle cx="1023" cy="74" r="1.6" fill="#bff7ff" opacity="0.035" filter="url(#softGlow)"/>
</svg>