<svg xmlns="http://www.w3.org/2000/svg" width="1920" height="1080" viewBox="0 0 1920 1080">
<defs>
<radialGradient id="spaceGlow" cx="52%" cy="56%" r="54%"><stop offset="0%" stop-color="#132a42"/><stop offset="38%" stop-color="#111630"/><stop offset="100%" stop-color="#030712"/></radialGradient>
<radialGradient id="robotBody" cx="40%" cy="24%" r="85%"><stop offset="0%" stop-color="#ffffff"/><stop offset="52%" stop-color="#dce9ff"/><stop offset="100%" stop-color="#93a6bd"/></radialGradient>
<radialGradient id="blueCore" cx="40%" cy="30%" r="70%"><stop offset="0%" stop-color="#8df4ff"/><stop offset="45%" stop-color="#4895ff"/><stop offset="100%" stop-color="#1a47ff"/></radialGradient>
<filter id="softGlow" x="-80%" y="-80%" width="260%" height="260%"><feGaussianBlur stdDeviation="16" result="blur"/><feMerge><feMergeNode in="blur"/><feMergeNode in="SourceGraphic"/></feMerge></filter>
<filter id="wideGlow" x="-120%" y="-120%" width="340%" height="340%"><feGaussianBlur stdDeviation="34" result="blur"/><feMerge><feMergeNode in="blur"/><feMergeNode in="SourceGraphic"/></feMerge></filter>
</defs>
<ellipse cx="960" cy="774.5" rx="276.9" ry="201.9" fill="none" stroke="#70d6ff" stroke-width="4" opacity="0.157" filter="url(#softGlow)"/>
<path d="M820 740 C770 700 770 825 825 795" stroke="#c4f4ff" stroke-width="10" opacity="0.226" fill="none" stroke-linecap="round" filter="url(#softGlow)"/>
<path d="M1098 724 C1162 686 1164 822 1098 794" stroke="#c4f4ff" stroke-width="10" opacity="0.254" fill="none" stroke-linecap="round" filter="url(#softGlow)"/>
<circle cx="1148.2" cy="739.6" r="4.0" fill="#c8f7ff" opacity="0.204" filter="url(#softGlow)"/>
<circle cx="1157.2" cy="863.5" r="5.0" fill="#c8f7ff" opacity="0.277" filter="url(#softGlow)"/>
<circle cx="1071.5" cy="910.3" r="6.0" fill="#c8f7ff" opacity="0.328" filter="url(#softGlow)"/>
<circle cx="925.4" cy="917.2" r="7.0" fill="#c8f7ff" opacity="0.338" filter="url(#softGlow)"/>
<circle cx="797.3" cy="805.6" r="4.0" fill="#c8f7ff" opacity="0.302" filter="url(#softGlow)"/>
<circle cx="704.1" cy="682.5" r="5.0" fill="#c8f7ff" opacity="0.235" filter="url(#softGlow)"/>
<circle cx="793.5" cy="622.6" r="6.0" fill="#c8f7ff" opacity="0.162" filter="url(#softGlow)"/>
<circle cx="864.9" cy="601.2" r="7.0" fill="#c8f7ff" opacity="0.111" filter="url(#softGlow)"/>
<circle cx="1009.2" cy="705.8" r="4.0" fill="#c8f7ff" opacity="0.102" filter="url(#softGlow)"/>
<circle cx="1099.1" cy="826.3" r="5.0" fill="#c8f7ff" opacity="0.138" filter="url(#softGlow)"/>







<g opacity="0.000" filter="url(#softGlow)">
  <line x1="520.0" y1="460.0" x2="820.0" y2="352.0" stroke="#fff1a6" stroke-width="8" stroke-linecap="round"/>
  <line x1="538.0" y1="454.0" x2="970.0" y2="298.0" stroke="#ffffff" stroke-width="2" stroke-linecap="round" opacity="0.92"/>
</g>
<circle cx="1136" cy="435" r="3.8" fill="#bff7ff" opacity="0.045" filter="url(#softGlow)"/>
<circle cx="1218" cy="486" r="2.7" fill="#bff7ff" opacity="0.078" filter="url(#softGlow)"/>
<circle cx="724" cy="624" r="4.1" fill="#bff7ff" opacity="0.021" filter="url(#softGlow)"/>
<circle cx="649" cy="155" r="2.8" fill="#bff7ff" opacity="0.038" filter="url(#softGlow)"/>
<circle cx="214" cy="737" r="2.2" fill="#bff7ff" opacity="0.103" filter="url(#softGlow)"/>
<circle cx="589" cy="789" r="3.3" fill="#bff7ff" opacity="0.050" filter="url(#softGlow)"/>
<circle cx="1360" cy="380" r="4.1" fill="#bff7ff" opacity="0.051" filter="url(#softGlow)"/>
<circle cx="1100" cy="846" r="3.5" fill="#bff7ff" opacity="0.097" filter="url(#softGlow)"/>
<circle cx="1385" cy="104" r="1.8" fill="#bff7ff" opacity="0.046" filter="url(#softGlow)"/>
<circle cx="1038" cy="418" r="1.5" fill="#bff7ff" opacity="0.103" filter="url(#softGlow)"/>
<circle cx="1290" cy="391" r="2.0" fill="#bff7ff" opacity="0.072" filter="url(#softGlow)"/>
<circle cx="1680" cy="954" r="3.1" fill="#bff7ff" opacity="0.062" filter="url(#softGlow)"/>
<circle cx="206" cy="932" r="2.8" fill="#bff7ff" opacity="0.023" filter="url(#softGlow)"/>
<circle cx="1656" cy="586" r="2.3" fill="#bff7ff" opacity="0.057" filter="url(#softGlow)"/>
</svg>