<svg xmlns="http://www.w3.org/2000/svg" width="1920" height="1080" viewBox="0 0 1920 1080">
<defs>
<radialGradient id="spaceGlow" cx="52%" cy="56%" r="54%"><stop offset="0%" stop-color="#132a42"/><stop offset="38%" stop-color="#111630"/><stop offset="100%" stop-color="#030712"/></radialGradient>
<radialGradient id="robotBody" cx="40%" cy="24%" r="85%"><stop offset="0%" stop-color="#ffffff"/><stop offset="52%" stop-color="#dce9ff"/><stop offset="100%" stop-color="#93a6bd"/></radialGradient>
<radialGradient id="blueCore" cx="40%" cy="30%" r="70%"><stop offset="0%" stop-color="#8df4ff"/><stop offset="45%" stop-color="#4895ff"/><stop offset="100%" stop-color="#1a47ff"/></radialGradient>
<filter id="softGlow" x="-80%" y="-80%" width="260%" height="260%"><feGaussianBlur stdDeviation="16" result="blur"/><feMerge><feMergeNode in="blur"/><feMergeNode in="SourceGraphic"/></feMerge></filter>
<filter id="wideGlow" x="-120%" y="-120%" width="340%" height="340%"><feGaussianBlur stdDeviation="34" result="blur"/><feMerge><feMergeNode in="blur"/><feMergeNode in="SourceGraphic"/></feMerge></filter>
</defs>
<ellipse cx="960" cy="775.9" rx="281.4" ry="204.3" fill="none" stroke="#70d6ff" stroke-width="4" opacity="0.174" filter="url(#softGlow)"/>
<path d="M820 740 C770 700 770 825 825 795" stroke="#c4f4ff" stroke-width="10" opacity="0.256" fill="none" stroke-linecap="round" filter="url(#softGlow)"/>
<path d="M1098 724 C1162 686 1164 822 1098 794" stroke="#c4f4ff" stroke-width="10" opacity="0.224" fill="none" stroke-linecap="round" filter="url(#softGlow)"/>
<circle cx="1150.0" cy="759.9" r="4.0" fill="#c8f7ff" opacity="0.217" filter="url(#softGlow)"/>
<circle cx="1143.9" cy="882.6" r="5.0" fill="#c8f7ff" opacity="0.288" filter="url(#softGlow)"/>
<circle cx="1044.4" cy="913.4" r="6.0" fill="#c8f7ff" opacity="0.333" filter="url(#softGlow)"/>
<circle cx="904.5" cy="903.5" r="7.0" fill="#c8f7ff" opacity="0.335" filter="url(#softGlow)"/>
<circle cx="780.9" cy="785.6" r="4.0" fill="#c8f7ff" opacity="0.292" filter="url(#softGlow)"/>
<circle cx="702.0" cy="661.8" r="5.0" fill="#c8f7ff" opacity="0.222" filter="url(#softGlow)"/>
<circle cx="804.9" cy="617.1" r="6.0" fill="#c8f7ff" opacity="0.151" filter="url(#softGlow)"/>
<circle cx="888.5" cy="612.5" r="7.0" fill="#c8f7ff" opacity="0.106" filter="url(#softGlow)"/>
<circle cx="1037.5" cy="725.1" r="4.0" fill="#c8f7ff" opacity="0.106" filter="url(#softGlow)"/>
<circle cx="1112.9" cy="848.4" r="5.0" fill="#c8f7ff" opacity="0.149" filter="url(#softGlow)"/>







<circle cx="1136" cy="435" r="3.8" fill="#bff7ff" opacity="0.052" filter="url(#softGlow)"/>
<circle cx="1218" cy="486" r="2.7" fill="#bff7ff" opacity="0.090" filter="url(#softGlow)"/>
<circle cx="724" cy="624" r="4.1" fill="#bff7ff" opacity="0.024" filter="url(#softGlow)"/>
<circle cx="649" cy="155" r="2.8" fill="#bff7ff" opacity="0.044" filter="url(#softGlow)"/>
<circle cx="214" cy="737" r="2.2" fill="#bff7ff" opacity="0.119" filter="url(#softGlow)"/>
<circle cx="589" cy="789" r="3.3" fill="#bff7ff" opacity="0.057" filter="url(#softGlow)"/>
<circle cx="1360" cy="380" r="4.1" fill="#bff7ff" opacity="0.059" filter="url(#softGlow)"/>
<circle cx="1100" cy="846" r="3.5" fill="#bff7ff" opacity="0.112" filter="url(#softGlow)"/>
<circle cx="1385" cy="104" r="1.8" fill="#bff7ff" opacity="0.053" filter="url(#softGlow)"/>
<circle cx="1038" cy="418" r="1.5" fill="#bff7ff" opacity="0.119" filter="url(#softGlow)"/>
<circle cx="1290" cy="391" r="2.0" fill="#bff7ff" opacity="0.082" filter="url(#softGlow)"/>
<circle cx="1680" cy="954" r="3.1" fill="#bff7ff" opacity="0.071" filter="url(#softGlow)"/>
<circle cx="206" cy="932" r="2.8" fill="#bff7ff" opacity="0.026" filter="url(#softGlow)"/>
<circle cx="1656" cy="586" r="2.3" fill="#bff7ff" opacity="0.066" filter="url(#softGlow)"/>
</svg>