<svg xmlns="http://www.w3.org/2000/svg" width="1920" height="1080" viewBox="0 0 1920 1080">
<defs>
<radialGradient id="spaceGlow" cx="52%" cy="56%" r="54%"><stop offset="0%" stop-color="#132a42"/><stop offset="38%" stop-color="#111630"/><stop offset="100%" stop-color="#030712"/></radialGradient>
<radialGradient id="robotBody" cx="40%" cy="24%" r="85%"><stop offset="0%" stop-color="#ffffff"/><stop offset="52%" stop-color="#dce9ff"/><stop offset="100%" stop-color="#93a6bd"/></radialGradient>
<radialGradient id="blueCore" cx="40%" cy="30%" r="70%"><stop offset="0%" stop-color="#8df4ff"/><stop offset="45%" stop-color="#4895ff"/><stop offset="100%" stop-color="#1a47ff"/></radialGradient>
<filter id="softGlow" x="-80%" y="-80%" width="260%" height="260%"><feGaussianBlur stdDeviation="16" result="blur"/><feMerge><feMergeNode in="blur"/><feMergeNode in="SourceGraphic"/></feMerge></filter>
<filter id="wideGlow" x="-120%" y="-120%" width="340%" height="340%"><feGaussianBlur stdDeviation="34" result="blur"/><feMerge><feMergeNode in="blur"/><feMergeNode in="SourceGraphic"/></feMerge></filter>
</defs>
<ellipse cx="960" cy="776.9" rx="285.3" ry="206.5" fill="none" stroke="#70d6ff" stroke-width="4" opacity="0.189" filter="url(#softGlow)"/>
<path d="M820 740 C770 700 770 825 825 795" stroke="#c4f4ff" stroke-width="10" opacity="0.282" fill="none" stroke-linecap="round" filter="url(#softGlow)"/>
<path d="M1098 724 C1162 686 1164 822 1098 794" stroke="#c4f4ff" stroke-width="10" opacity="0.198" fill="none" stroke-linecap="round" filter="url(#softGlow)"/>
<circle cx="1149.2" cy="780.3" r="4.0" fill="#c8f7ff" opacity="0.231" filter="url(#softGlow)"/>
<circle cx="1128.3" cy="899.5" r="5.0" fill="#c8f7ff" opacity="0.299" filter="url(#softGlow)"/>
<circle cx="1016.3" cy="913.8" r="6.0" fill="#c8f7ff" opacity="0.337" filter="url(#softGlow)"/>
<circle cx="884.3" cy="887.2" r="7.0" fill="#c8f7ff" opacity="0.330" filter="url(#softGlow)"/>
<circle cx="766.8" cy="765.3" r="4.0" fill="#c8f7ff" opacity="0.281" filter="url(#softGlow)"/>
<circle cx="703.3" cy="643.0" r="5.0" fill="#c8f7ff" opacity="0.208" filter="url(#softGlow)"/>
<circle cx="818.3" cy="614.3" r="6.0" fill="#c8f7ff" opacity="0.140" filter="url(#softGlow)"/>
<circle cx="912.9" cy="626.5" r="7.0" fill="#c8f7ff" opacity="0.103" filter="url(#softGlow)"/>
<circle cx="1064.8" cy="745.1" r="4.0" fill="#c8f7ff" opacity="0.110" filter="url(#softGlow)"/>
<circle cx="1124.7" cy="868.8" r="5.0" fill="#c8f7ff" opacity="0.160" filter="url(#softGlow)"/>







<circle cx="1428" cy="820" r="1.6" fill="#bff7ff" opacity="0.124" filter="url(#softGlow)"/>
<circle cx="1718" cy="923" r="1.5" fill="#bff7ff" opacity="0.031" filter="url(#softGlow)"/>
<circle cx="1574" cy="412" r="1.9" fill="#bff7ff" opacity="0.111" filter="url(#softGlow)"/>
<circle cx="388" cy="806" r="3.3" fill="#bff7ff" opacity="0.067" filter="url(#softGlow)"/>
<circle cx="1611" cy="504" r="1.7" fill="#bff7ff" opacity="0.035" filter="url(#softGlow)"/>
<circle cx="688" cy="430" r="2.1" fill="#bff7ff" opacity="0.115" filter="url(#softGlow)"/>
<circle cx="82" cy="959" r="4.0" fill="#bff7ff" opacity="0.100" filter="url(#softGlow)"/>
<circle cx="1199" cy="315" r="3.9" fill="#bff7ff" opacity="0.072" filter="url(#softGlow)"/>
<circle cx="793" cy="299" r="3.8" fill="#bff7ff" opacity="0.109" filter="url(#softGlow)"/>
<circle cx="292" cy="865" r="3.7" fill="#bff7ff" opacity="0.092" filter="url(#softGlow)"/>
<circle cx="729" cy="729" r="2.4" fill="#bff7ff" opacity="0.074" filter="url(#softGlow)"/>
<circle cx="1297" cy="278" r="1.6" fill="#bff7ff" opacity="0.027" filter="url(#softGlow)"/>
<circle cx="1561" cy="369" r="4.0" fill="#bff7ff" opacity="0.038" filter="url(#softGlow)"/>
<circle cx="742" cy="937" r="2.7" fill="#bff7ff" opacity="0.036" filter="url(#softGlow)"/>
</svg>