<svg xmlns="http://www.w3.org/2000/svg" width="1920" height="1080" viewBox="0 0 1920 1080">
<defs>
<radialGradient id="spaceGlow" cx="52%" cy="56%" r="54%"><stop offset="0%" stop-color="#132a42"/><stop offset="38%" stop-color="#111630"/><stop offset="100%" stop-color="#030712"/></radialGradient>
<radialGradient id="robotBody" cx="40%" cy="24%" r="85%"><stop offset="0%" stop-color="#ffffff"/><stop offset="52%" stop-color="#dce9ff"/><stop offset="100%" stop-color="#93a6bd"/></radialGradient>
<radialGradient id="blueCore" cx="40%" cy="30%" r="70%"><stop offset="0%" stop-color="#8df4ff"/><stop offset="45%" stop-color="#4895ff"/><stop offset="100%" stop-color="#1a47ff"/></radialGradient>
<filter id="softGlow" x="-80%" y="-80%" width="260%" height="260%"><feGaussianBlur stdDeviation="16" result="blur"/><feMerge><feMergeNode in="blur"/><feMergeNode in="SourceGraphic"/></feMerge></filter>
<filter id="wideGlow" x="-120%" y="-120%" width="340%" height="340%"><feGaussianBlur stdDeviation="34" result="blur"/><feMerge><feMergeNode in="blur"/><feMergeNode in="SourceGraphic"/></feMerge></filter>
</defs>
<ellipse cx="960" cy="778.0" rx="287.1" ry="207.5" fill="none" stroke="#70d6ff" stroke-width="4" opacity="0.197" filter="url(#softGlow)"/>
<path d="M820 740 C770 700 770 825 825 795" stroke="#c4f4ff" stroke-width="10" opacity="0.294" fill="none" stroke-linecap="round" filter="url(#softGlow)"/>
<path d="M1098 724 C1162 686 1164 822 1098 794" stroke="#c4f4ff" stroke-width="10" opacity="0.186" fill="none" stroke-linecap="round" filter="url(#softGlow)"/>
<circle cx="1136.9" cy="829.1" r="4.0" fill="#c8f7ff" opacity="0.264" filter="url(#softGlow)"/>
<circle cx="1080.3" cy="930.2" r="5.0" fill="#c8f7ff" opacity="0.321" filter="url(#softGlow)"/>
<circle cx="943.7" cy="902.7" r="6.0" fill="#c8f7ff" opacity="0.340" filter="url(#softGlow)"/>
<circle cx="838.6" cy="837.3" r="7.0" fill="#c8f7ff" opacity="0.312" filter="url(#softGlow)"/>
<circle cx="742.8" cy="715.2" r="4.0" fill="#c8f7ff" opacity="0.249" filter="url(#softGlow)"/>
<circle cx="720.6" cy="606.4" r="5.0" fill="#c8f7ff" opacity="0.175" filter="url(#softGlow)"/>
<circle cx="859.3" cy="619.5" r="6.0" fill="#c8f7ff" opacity="0.118" filter="url(#softGlow)"/>
<circle cx="976.0" cy="672.1" r="7.0" fill="#c8f7ff" opacity="0.100" filter="url(#softGlow)"/>
<circle cx="1126.5" cy="795.8" r="4.0" fill="#c8f7ff" opacity="0.128" filter="url(#softGlow)"/>
<circle cx="1144.6" cy="910.8" r="5.0" fill="#c8f7ff" opacity="0.192" filter="url(#softGlow)"/>







<circle cx="375" cy="960" r="3.2" fill="#bff7ff" opacity="0.113" filter="url(#softGlow)"/>
<circle cx="1606" cy="435" r="2.0" fill="#bff7ff" opacity="0.048" filter="url(#softGlow)"/>
<circle cx="1558" cy="549" r="2.3" fill="#bff7ff" opacity="0.111" filter="url(#softGlow)"/>
<circle cx="898" cy="78" r="3.2" fill="#bff7ff" opacity="0.132" filter="url(#softGlow)"/>
<circle cx="671" cy="941" r="2.0" fill="#bff7ff" opacity="0.111" filter="url(#softGlow)"/>
<circle cx="1192" cy="667" r="3.4" fill="#bff7ff" opacity="0.144" filter="url(#softGlow)"/>
<circle cx="519" cy="267" r="2.3" fill="#bff7ff" opacity="0.168" filter="url(#softGlow)"/>
<circle cx="1766" cy="234" r="4.0" fill="#bff7ff" opacity="0.083" filter="url(#softGlow)"/>
<circle cx="344" cy="152" r="3.2" fill="#bff7ff" opacity="0.145" filter="url(#softGlow)"/>
<circle cx="1488" cy="429" r="2.7" fill="#bff7ff" opacity="0.149" filter="url(#softGlow)"/>
<circle cx="1509" cy="806" r="4.2" fill="#bff7ff" opacity="0.144" filter="url(#softGlow)"/>
<circle cx="519" cy="376" r="2.2" fill="#bff7ff" opacity="0.088" filter="url(#softGlow)"/>
<circle cx="1494" cy="139" r="2.9" fill="#bff7ff" opacity="0.154" filter="url(#softGlow)"/>
<circle cx="1419" cy="428" r="2.2" fill="#bff7ff" opacity="0.083" filter="url(#softGlow)"/>
</svg>