<svg xmlns="http://www.w3.org/2000/svg" width="1920" height="1080" viewBox="0 0 1920 1080">
<defs>
<radialGradient id="spaceGlow" cx="52%" cy="56%" r="54%"><stop offset="0%" stop-color="#132a42"/><stop offset="38%" stop-color="#111630"/><stop offset="100%" stop-color="#030712"/></radialGradient>
<radialGradient id="robotBody" cx="40%" cy="24%" r="85%"><stop offset="0%" stop-color="#ffffff"/><stop offset="52%" stop-color="#dce9ff"/><stop offset="100%" stop-color="#93a6bd"/></radialGradient>
<radialGradient id="blueCore" cx="40%" cy="30%" r="70%"><stop offset="0%" stop-color="#8df4ff"/><stop offset="45%" stop-color="#4895ff"/><stop offset="100%" stop-color="#1a47ff"/></radialGradient>
<filter id="softGlow" x="-80%" y="-80%" width="260%" height="260%"><feGaussianBlur stdDeviation="16" result="blur"/><feMerge><feMergeNode in="blur"/><feMergeNode in="SourceGraphic"/></feMerge></filter>
<filter id="wideGlow" x="-120%" y="-120%" width="340%" height="340%"><feGaussianBlur stdDeviation="34" result="blur"/><feMerge><feMergeNode in="blur"/><feMergeNode in="SourceGraphic"/></feMerge></filter>
</defs>
<ellipse cx="960" cy="777.8" rx="284.2" ry="205.9" fill="none" stroke="#70d6ff" stroke-width="4" opacity="0.185" filter="url(#softGlow)"/>
<path d="M820 740 C770 700 770 825 825 795" stroke="#c4f4ff" stroke-width="10" opacity="0.275" fill="none" stroke-linecap="round" filter="url(#softGlow)"/>
<path d="M1098 724 C1162 686 1164 822 1098 794" stroke="#c4f4ff" stroke-width="10" opacity="0.205" fill="none" stroke-linecap="round" filter="url(#softGlow)"/>
<circle cx="1127.9" cy="846.8" r="4.0" fill="#c8f7ff" opacity="0.276" filter="url(#softGlow)"/>
<circle cx="1058.1" cy="937.3" r="5.0" fill="#c8f7ff" opacity="0.328" filter="url(#softGlow)"/>
<circle cx="914.7" cy="893.7" r="6.0" fill="#c8f7ff" opacity="0.338" filter="url(#softGlow)"/>
<circle cx="822.8" cy="814.7" r="7.0" fill="#c8f7ff" opacity="0.303" filter="url(#softGlow)"/>
<circle cx="738.0" cy="696.4" r="4.0" fill="#c8f7ff" opacity="0.236" filter="url(#softGlow)"/>
<circle cx="733.1" cy="596.6" r="5.0" fill="#c8f7ff" opacity="0.163" filter="url(#softGlow)"/>
<circle cx="878.2" cy="626.3" r="6.0" fill="#c8f7ff" opacity="0.112" filter="url(#softGlow)"/>
<circle cx="1001.2" cy="693.7" r="7.0" fill="#c8f7ff" opacity="0.102" filter="url(#softGlow)"/>
<circle cx="1147.8" cy="815.4" r="4.0" fill="#c8f7ff" opacity="0.138" filter="url(#softGlow)"/>
<circle cx="1148.5" cy="923.1" r="5.0" fill="#c8f7ff" opacity="0.205" filter="url(#softGlow)"/>







<circle cx="375" cy="960" r="3.2" fill="#bff7ff" opacity="0.122" filter="url(#softGlow)"/>
<circle cx="1606" cy="435" r="2.0" fill="#bff7ff" opacity="0.052" filter="url(#softGlow)"/>
<circle cx="1558" cy="549" r="2.3" fill="#bff7ff" opacity="0.119" filter="url(#softGlow)"/>
<circle cx="898" cy="78" r="3.2" fill="#bff7ff" opacity="0.142" filter="url(#softGlow)"/>
<circle cx="671" cy="941" r="2.0" fill="#bff7ff" opacity="0.120" filter="url(#softGlow)"/>
<circle cx="1192" cy="667" r="3.4" fill="#bff7ff" opacity="0.154" filter="url(#softGlow)"/>
<circle cx="519" cy="267" r="2.3" fill="#bff7ff" opacity="0.181" filter="url(#softGlow)"/>
<circle cx="1766" cy="234" r="4.0" fill="#bff7ff" opacity="0.090" filter="url(#softGlow)"/>
<circle cx="344" cy="152" r="3.2" fill="#bff7ff" opacity="0.156" filter="url(#softGlow)"/>
<circle cx="1488" cy="429" r="2.7" fill="#bff7ff" opacity="0.160" filter="url(#softGlow)"/>
<circle cx="1509" cy="806" r="4.2" fill="#bff7ff" opacity="0.155" filter="url(#softGlow)"/>
<circle cx="519" cy="376" r="2.2" fill="#bff7ff" opacity="0.094" filter="url(#softGlow)"/>
<circle cx="1494" cy="139" r="2.9" fill="#bff7ff" opacity="0.166" filter="url(#softGlow)"/>
<circle cx="1419" cy="428" r="2.2" fill="#bff7ff" opacity="0.089" filter="url(#softGlow)"/>
</svg>