<svg xmlns="http://www.w3.org/2000/svg" width="1920" height="1080" viewBox="0 0 1920 1080">
<defs>
<radialGradient id="spaceGlow" cx="52%" cy="56%" r="54%"><stop offset="0%" stop-color="#132a42"/><stop offset="38%" stop-color="#111630"/><stop offset="100%" stop-color="#030712"/></radialGradient>
<radialGradient id="robotBody" cx="40%" cy="24%" r="85%"><stop offset="0%" stop-color="#ffffff"/><stop offset="52%" stop-color="#dce9ff"/><stop offset="100%" stop-color="#93a6bd"/></radialGradient>
<radialGradient id="blueCore" cx="40%" cy="30%" r="70%"><stop offset="0%" stop-color="#8df4ff"/><stop offset="45%" stop-color="#4895ff"/><stop offset="100%" stop-color="#1a47ff"/></radialGradient>
<filter id="softGlow" x="-80%" y="-80%" width="260%" height="260%"><feGaussianBlur stdDeviation="16" result="blur"/><feMerge><feMergeNode in="blur"/><feMergeNode in="SourceGraphic"/></feMerge></filter>
<filter id="wideGlow" x="-120%" y="-120%" width="340%" height="340%"><feGaussianBlur stdDeviation="34" result="blur"/><feMerge><feMergeNode in="blur"/><feMergeNode in="SourceGraphic"/></feMerge></filter>
</defs>
<ellipse cx="960" cy="776.4" rx="275.7" ry="201.2" fill="none" stroke="#70d6ff" stroke-width="4" opacity="0.152" filter="url(#softGlow)"/>
<path d="M820 740 C770 700 770 825 825 795" stroke="#c4f4ff" stroke-width="10" opacity="0.218" fill="none" stroke-linecap="round" filter="url(#softGlow)"/>
<path d="M1098 724 C1162 686 1164 822 1098 794" stroke="#c4f4ff" stroke-width="10" opacity="0.262" fill="none" stroke-linecap="round" filter="url(#softGlow)"/>
<circle cx="1103.6" cy="877.4" r="4.0" fill="#c8f7ff" opacity="0.299" filter="url(#softGlow)"/>
<circle cx="1010.4" cy="941.8" r="5.0" fill="#c8f7ff" opacity="0.337" filter="url(#softGlow)"/>
<circle cx="858.8" cy="868.7" r="6.0" fill="#c8f7ff" opacity="0.330" filter="url(#softGlow)"/>
<circle cx="796.8" cy="767.0" r="7.0" fill="#c8f7ff" opacity="0.281" filter="url(#softGlow)"/>
<circle cx="737.0" cy="662.9" r="4.0" fill="#c8f7ff" opacity="0.209" filter="url(#softGlow)"/>
<circle cx="766.5" cy="586.5" r="5.0" fill="#c8f7ff" opacity="0.141" filter="url(#softGlow)"/>
<circle cx="918.8" cy="647.4" r="6.0" fill="#c8f7ff" opacity="0.103" filter="url(#softGlow)"/>
<circle cx="1049.6" cy="740.2" r="7.0" fill="#c8f7ff" opacity="0.110" filter="url(#softGlow)"/>
<circle cx="1182.7" cy="851.4" r="4.0" fill="#c8f7ff" opacity="0.159" filter="url(#softGlow)"/>
<circle cx="1149.0" cy="938.7" r="5.0" fill="#c8f7ff" opacity="0.232" filter="url(#softGlow)"/>







<circle cx="411" cy="494" r="2.1" fill="#bff7ff" opacity="0.193" filter="url(#softGlow)"/>
<circle cx="683" cy="127" r="1.7" fill="#bff7ff" opacity="0.070" filter="url(#softGlow)"/>
<circle cx="1800" cy="543" r="2.7" fill="#bff7ff" opacity="0.054" filter="url(#softGlow)"/>
<circle cx="190" cy="187" r="2.8" fill="#bff7ff" opacity="0.183" filter="url(#softGlow)"/>
<circle cx="1672" cy="393" r="2.1" fill="#bff7ff" opacity="0.186" filter="url(#softGlow)"/>
<circle cx="1370" cy="661" r="2.0" fill="#bff7ff" opacity="0.186" filter="url(#softGlow)"/>
<circle cx="1651" cy="459" r="2.8" fill="#bff7ff" opacity="0.100" filter="url(#softGlow)"/>
<circle cx="790" cy="994" r="3.4" fill="#bff7ff" opacity="0.086" filter="url(#softGlow)"/>
<circle cx="1667" cy="103" r="3.8" fill="#bff7ff" opacity="0.104" filter="url(#softGlow)"/>
<circle cx="431" cy="950" r="2.0" fill="#bff7ff" opacity="0.069" filter="url(#softGlow)"/>
<circle cx="474" cy="261" r="3.7" fill="#bff7ff" opacity="0.070" filter="url(#softGlow)"/>
<circle cx="1284" cy="615" r="1.7" fill="#bff7ff" opacity="0.062" filter="url(#softGlow)"/>
<circle cx="1370" cy="497" r="3.9" fill="#bff7ff" opacity="0.113" filter="url(#softGlow)"/>
<circle cx="302" cy="274" r="1.7" fill="#bff7ff" opacity="0.126" filter="url(#softGlow)"/>
</svg>