<svg xmlns="http://www.w3.org/2000/svg" width="1920" height="1080" viewBox="0 0 1920 1080">
<defs>
<radialGradient id="spaceGlow" cx="52%" cy="56%" r="54%"><stop offset="0%" stop-color="#132a42"/><stop offset="38%" stop-color="#111630"/><stop offset="100%" stop-color="#030712"/></radialGradient>
<radialGradient id="robotBody" cx="40%" cy="24%" r="85%"><stop offset="0%" stop-color="#ffffff"/><stop offset="52%" stop-color="#dce9ff"/><stop offset="100%" stop-color="#93a6bd"/></radialGradient>
<radialGradient id="blueCore" cx="40%" cy="30%" r="70%"><stop offset="0%" stop-color="#8df4ff"/><stop offset="45%" stop-color="#4895ff"/><stop offset="100%" stop-color="#1a47ff"/></radialGradient>
<filter id="softGlow" x="-80%" y="-80%" width="260%" height="260%"><feGaussianBlur stdDeviation="16" result="blur"/><feMerge><feMergeNode in="blur"/><feMergeNode in="SourceGraphic"/></feMerge></filter>
<filter id="wideGlow" x="-120%" y="-120%" width="340%" height="340%"><feGaussianBlur stdDeviation="34" result="blur"/><feMerge><feMergeNode in="blur"/><feMergeNode in="SourceGraphic"/></feMerge></filter>
</defs>
<ellipse cx="960" cy="775.9" rx="273.7" ry="200.1" fill="none" stroke="#70d6ff" stroke-width="4" opacity="0.144" filter="url(#softGlow)"/>
<path d="M820 740 C770 700 770 825 825 795" stroke="#c4f4ff" stroke-width="10" opacity="0.205" fill="none" stroke-linecap="round" filter="url(#softGlow)"/>
<path d="M1098 724 C1162 686 1164 822 1098 794" stroke="#c4f4ff" stroke-width="10" opacity="0.275" fill="none" stroke-linecap="round" filter="url(#softGlow)"/>
<circle cx="1096.3" cy="883.8" r="4.0" fill="#c8f7ff" opacity="0.304" filter="url(#softGlow)"/>
<circle cx="997.9" cy="940.9" r="5.0" fill="#c8f7ff" opacity="0.338" filter="url(#softGlow)"/>
<circle cx="845.5" cy="861.2" r="6.0" fill="#c8f7ff" opacity="0.328" filter="url(#softGlow)"/>
<circle cx="791.5" cy="754.9" r="7.0" fill="#c8f7ff" opacity="0.276" filter="url(#softGlow)"/>
<circle cx="738.5" cy="655.6" r="4.0" fill="#c8f7ff" opacity="0.202" filter="url(#softGlow)"/>
<circle cx="776.4" cy="586.0" r="5.0" fill="#c8f7ff" opacity="0.136" filter="url(#softGlow)"/>
<circle cx="929.4" cy="654.1" r="6.0" fill="#c8f7ff" opacity="0.102" filter="url(#softGlow)"/>
<circle cx="1061.1" cy="752.2" r="7.0" fill="#c8f7ff" opacity="0.113" filter="url(#softGlow)"/>
<circle cx="1189.7" cy="859.4" r="4.0" fill="#c8f7ff" opacity="0.165" filter="url(#softGlow)"/>
<circle cx="1147.6" cy="940.6" r="5.0" fill="#c8f7ff" opacity="0.239" filter="url(#softGlow)"/>







<circle cx="411" cy="494" r="2.1" fill="#bff7ff" opacity="0.197" filter="url(#softGlow)"/>
<circle cx="683" cy="127" r="1.7" fill="#bff7ff" opacity="0.071" filter="url(#softGlow)"/>
<circle cx="1800" cy="543" r="2.7" fill="#bff7ff" opacity="0.055" filter="url(#softGlow)"/>
<circle cx="190" cy="187" r="2.8" fill="#bff7ff" opacity="0.187" filter="url(#softGlow)"/>
<circle cx="1672" cy="393" r="2.1" fill="#bff7ff" opacity="0.190" filter="url(#softGlow)"/>
<circle cx="1370" cy="661" r="2.0" fill="#bff7ff" opacity="0.190" filter="url(#softGlow)"/>
<circle cx="1651" cy="459" r="2.8" fill="#bff7ff" opacity="0.102" filter="url(#softGlow)"/>
<circle cx="790" cy="994" r="3.4" fill="#bff7ff" opacity="0.088" filter="url(#softGlow)"/>
<circle cx="1667" cy="103" r="3.8" fill="#bff7ff" opacity="0.106" filter="url(#softGlow)"/>
<circle cx="431" cy="950" r="2.0" fill="#bff7ff" opacity="0.071" filter="url(#softGlow)"/>
<circle cx="474" cy="261" r="3.7" fill="#bff7ff" opacity="0.072" filter="url(#softGlow)"/>
<circle cx="1284" cy="615" r="1.7" fill="#bff7ff" opacity="0.063" filter="url(#softGlow)"/>
<circle cx="1370" cy="497" r="3.9" fill="#bff7ff" opacity="0.116" filter="url(#softGlow)"/>
<circle cx="302" cy="274" r="1.7" fill="#bff7ff" opacity="0.128" filter="url(#softGlow)"/>
</svg>