<svg xmlns="http://www.w3.org/2000/svg" width="1920" height="1080" viewBox="0 0 1920 1080">
<defs>
<radialGradient id="spaceGlow" cx="52%" cy="56%" r="54%"><stop offset="0%" stop-color="#132a42"/><stop offset="38%" stop-color="#111630"/><stop offset="100%" stop-color="#030712"/></radialGradient>
<radialGradient id="robotBody" cx="40%" cy="24%" r="85%"><stop offset="0%" stop-color="#ffffff"/><stop offset="52%" stop-color="#dce9ff"/><stop offset="100%" stop-color="#93a6bd"/></radialGradient>
<radialGradient id="blueCore" cx="40%" cy="30%" r="70%"><stop offset="0%" stop-color="#8df4ff"/><stop offset="45%" stop-color="#4895ff"/><stop offset="100%" stop-color="#1a47ff"/></radialGradient>
<filter id="softGlow" x="-80%" y="-80%" width="260%" height="260%"><feGaussianBlur stdDeviation="16" result="blur"/><feMerge><feMergeNode in="blur"/><feMergeNode in="SourceGraphic"/></feMerge></filter>
<filter id="wideGlow" x="-120%" y="-120%" width="340%" height="340%"><feGaussianBlur stdDeviation="34" result="blur"/><feMerge><feMergeNode in="blur"/><feMergeNode in="SourceGraphic"/></feMerge></filter>
</defs>
<ellipse cx="960" cy="775.2" rx="272.1" ry="199.2" fill="none" stroke="#70d6ff" stroke-width="4" opacity="0.138" filter="url(#softGlow)"/>
<path d="M820 740 C770 700 770 825 825 795" stroke="#c4f4ff" stroke-width="10" opacity="0.194" fill="none" stroke-linecap="round" filter="url(#softGlow)"/>
<path d="M1098 724 C1162 686 1164 822 1098 794" stroke="#c4f4ff" stroke-width="10" opacity="0.286" fill="none" stroke-linecap="round" filter="url(#softGlow)"/>
<circle cx="1088.6" cy="889.6" r="4.0" fill="#c8f7ff" opacity="0.308" filter="url(#softGlow)"/>
<circle cx="985.3" cy="939.2" r="5.0" fill="#c8f7ff" opacity="0.339" filter="url(#softGlow)"/>
<circle cx="832.6" cy="853.2" r="6.0" fill="#c8f7ff" opacity="0.324" filter="url(#softGlow)"/>
<circle cx="786.8" cy="742.8" r="7.0" fill="#c8f7ff" opacity="0.269" filter="url(#softGlow)"/>
<circle cx="740.7" cy="648.8" r="4.0" fill="#c8f7ff" opacity="0.195" filter="url(#softGlow)"/>
<circle cx="787.0" cy="586.3" r="5.0" fill="#c8f7ff" opacity="0.131" filter="url(#softGlow)"/>
<circle cx="940.1" cy="661.3" r="6.0" fill="#c8f7ff" opacity="0.101" filter="url(#softGlow)"/>
<circle cx="1072.3" cy="764.3" r="7.0" fill="#c8f7ff" opacity="0.116" filter="url(#softGlow)"/>
<circle cx="1196.0" cy="867.1" r="4.0" fill="#c8f7ff" opacity="0.172" filter="url(#softGlow)"/>
<circle cx="1145.7" cy="941.7" r="5.0" fill="#c8f7ff" opacity="0.246" filter="url(#softGlow)"/>







<circle cx="411" cy="494" r="2.1" fill="#bff7ff" opacity="0.200" filter="url(#softGlow)"/>
<circle cx="683" cy="127" r="1.7" fill="#bff7ff" opacity="0.072" filter="url(#softGlow)"/>
<circle cx="1800" cy="543" r="2.7" fill="#bff7ff" opacity="0.056" filter="url(#softGlow)"/>
<circle cx="190" cy="187" r="2.8" fill="#bff7ff" opacity="0.190" filter="url(#softGlow)"/>
<circle cx="1672" cy="393" r="2.1" fill="#bff7ff" opacity="0.193" filter="url(#softGlow)"/>
<circle cx="1370" cy="661" r="2.0" fill="#bff7ff" opacity="0.193" filter="url(#softGlow)"/>
<circle cx="1651" cy="459" r="2.8" fill="#bff7ff" opacity="0.104" filter="url(#softGlow)"/>
<circle cx="790" cy="994" r="3.4" fill="#bff7ff" opacity="0.089" filter="url(#softGlow)"/>
<circle cx="1667" cy="103" r="3.8" fill="#bff7ff" opacity="0.108" filter="url(#softGlow)"/>
<circle cx="431" cy="950" r="2.0" fill="#bff7ff" opacity="0.072" filter="url(#softGlow)"/>
<circle cx="474" cy="261" r="3.7" fill="#bff7ff" opacity="0.073" filter="url(#softGlow)"/>
<circle cx="1284" cy="615" r="1.7" fill="#bff7ff" opacity="0.064" filter="url(#softGlow)"/>
<circle cx="1370" cy="497" r="3.9" fill="#bff7ff" opacity="0.117" filter="url(#softGlow)"/>
<circle cx="302" cy="274" r="1.7" fill="#bff7ff" opacity="0.130" filter="url(#softGlow)"/>
</svg>